%TF.GenerationSoftware,KiCad,Pcbnew,(6.0.4-0)*%
%TF.CreationDate,2022-05-22T20:42:40+12:00*%
%TF.ProjectId,controller,636f6e74-726f-46c6-9c65-722e6b696361,1.0*%
%TF.SameCoordinates,PX4900f70PY2ebae40*%
%TF.FileFunction,Soldermask,Bot*%
%TF.FilePolarity,Negative*%
%FSLAX46Y46*%
G04 Gerber Fmt 4.6, Leading zero omitted, Abs format (unit mm)*
G04 Created by KiCad (PCBNEW (6.0.4-0)) date 2022-05-22 20:42:40*
%MOMM*%
%LPD*%
G01*
G04 APERTURE LIST*
G04 Aperture macros list*
%AMRoundRect*
0 Rectangle with rounded corners*
0 $1 Rounding radius*
0 $2 $3 $4 $5 $6 $7 $8 $9 X,Y pos of 4 corners*
0 Add a 4 corners polygon primitive as box body*
4,1,4,$2,$3,$4,$5,$6,$7,$8,$9,$2,$3,0*
0 Add four circle primitives for the rounded corners*
1,1,$1+$1,$2,$3*
1,1,$1+$1,$4,$5*
1,1,$1+$1,$6,$7*
1,1,$1+$1,$8,$9*
0 Add four rect primitives between the rounded corners*
20,1,$1+$1,$2,$3,$4,$5,0*
20,1,$1+$1,$4,$5,$6,$7,0*
20,1,$1+$1,$6,$7,$8,$9,0*
20,1,$1+$1,$8,$9,$2,$3,0*%
G04 Aperture macros list end*
%ADD10C,1.000000*%
%ADD11RoundRect,0.250001X-0.499999X0.499999X-0.499999X-0.499999X0.499999X-0.499999X0.499999X0.499999X0*%
%ADD12C,1.500000*%
%ADD13R,1.700000X1.700000*%
%ADD14O,1.700000X1.700000*%
%ADD15R,2.100000X2.100000*%
%ADD16C,2.100000*%
%ADD17RoundRect,0.250001X-0.499999X-0.499999X0.499999X-0.499999X0.499999X0.499999X-0.499999X0.499999X0*%
%ADD18RoundRect,0.250000X-0.750000X0.600000X-0.750000X-0.600000X0.750000X-0.600000X0.750000X0.600000X0*%
%ADD19O,2.000000X1.700000*%
%ADD20RoundRect,0.250000X0.620000X0.845000X-0.620000X0.845000X-0.620000X-0.845000X0.620000X-0.845000X0*%
%ADD21O,1.740000X2.190000*%
%ADD22RoundRect,0.250000X-0.725000X0.600000X-0.725000X-0.600000X0.725000X-0.600000X0.725000X0.600000X0*%
%ADD23O,1.950000X1.700000*%
%ADD24RoundRect,0.250000X0.750000X-0.600000X0.750000X0.600000X-0.750000X0.600000X-0.750000X-0.600000X0*%
%ADD25C,5.500000*%
%ADD26C,2.300000*%
%ADD27R,2.300000X2.300000*%
%ADD28C,2.200000*%
%ADD29C,1.700000*%
%ADD30O,3.200000X1.600000*%
%ADD31O,1.750000X3.500000*%
%ADD32C,1.448000*%
%ADD33C,4.000000*%
%ADD34R,1.600000X1.600000*%
%ADD35C,1.600000*%
G04 APERTURE END LIST*
D10*
%TO.C,J12*%
X35871000Y-104790000D03*
X35871000Y-119790000D03*
D11*
X39811000Y-107790000D03*
D12*
X39811000Y-110790000D03*
X39811000Y-113790000D03*
X39811000Y-116790000D03*
X36811000Y-107790000D03*
X36811000Y-110790000D03*
X36811000Y-113790000D03*
X36811000Y-116790000D03*
%TD*%
D13*
%TO.C,JP4*%
X14500000Y-9150000D03*
D14*
X11960000Y-9150000D03*
%TD*%
D15*
%TO.C,J3*%
X51925000Y-10950000D03*
D16*
X51925000Y-16030000D03*
%TD*%
D10*
%TO.C,J2*%
X28150000Y-7060000D03*
X19150000Y-7060000D03*
D17*
X22150000Y-3120000D03*
D12*
X25150000Y-3120000D03*
X22150000Y-6120000D03*
X25150000Y-6120000D03*
%TD*%
D18*
%TO.C,J14*%
X53800000Y-28400000D03*
D19*
X53800000Y-30900000D03*
%TD*%
D13*
%TO.C,JP1*%
X29619000Y-102450000D03*
D14*
X29619000Y-99910000D03*
X29619000Y-97370000D03*
%TD*%
D20*
%TO.C,J16*%
X30400000Y-117250000D03*
D21*
X27860000Y-117250000D03*
X25320000Y-117250000D03*
%TD*%
D22*
%TO.C,J9*%
X53790000Y-68850000D03*
D23*
X53790000Y-71350000D03*
X53790000Y-73850000D03*
X53790000Y-76350000D03*
%TD*%
D24*
%TO.C,J13*%
X45250000Y-38300000D03*
D19*
X45250000Y-35800000D03*
%TD*%
D22*
%TO.C,J11*%
X53867500Y-83950000D03*
D23*
X53867500Y-86450000D03*
X53867500Y-88950000D03*
X53867500Y-91450000D03*
%TD*%
D25*
%TO.C,H4*%
X54000000Y-119000000D03*
%TD*%
D22*
%TO.C,J6*%
X53790000Y-53722000D03*
D23*
X53790000Y-56222000D03*
X53790000Y-58722000D03*
X53790000Y-61222000D03*
%TD*%
D22*
%TO.C,J5*%
X53790000Y-98896000D03*
D23*
X53790000Y-101396000D03*
X53790000Y-103896000D03*
X53790000Y-106396000D03*
X53790000Y-108896000D03*
X53790000Y-111396000D03*
%TD*%
D26*
%TO.C,K1*%
X42020000Y-44825000D03*
X42000000Y-57525000D03*
X34400000Y-60065000D03*
D27*
X34400000Y-44825000D03*
%TD*%
D10*
%TO.C,J10*%
X35871000Y-100972000D03*
X35871000Y-85972000D03*
D11*
X39811000Y-88972000D03*
D12*
X39811000Y-91972000D03*
X39811000Y-94972000D03*
X39811000Y-97972000D03*
X36811000Y-88972000D03*
X36811000Y-91972000D03*
X36811000Y-94972000D03*
X36811000Y-97972000D03*
%TD*%
D28*
%TO.C,J1*%
X4450000Y-30300000D03*
D29*
X4450000Y-25000000D03*
D28*
X4450000Y-14700000D03*
D29*
X4450000Y-20000000D03*
D30*
X11600000Y-25400000D03*
X7950000Y-25000000D03*
X7950000Y-20000000D03*
X11600000Y-19600000D03*
X12950000Y-14700000D03*
D31*
X2450000Y-22500000D03*
D30*
X12950000Y-30300000D03*
%TD*%
D13*
%TO.C,JP2*%
X4600000Y-55150000D03*
D14*
X4600000Y-52610000D03*
X4600000Y-50070000D03*
%TD*%
D10*
%TO.C,J7*%
X35871000Y-67176000D03*
X35871000Y-82176000D03*
D11*
X39811000Y-70176000D03*
D12*
X39811000Y-73176000D03*
X39811000Y-76176000D03*
X39811000Y-79176000D03*
X36811000Y-70176000D03*
X36811000Y-73176000D03*
X36811000Y-76176000D03*
X36811000Y-79176000D03*
%TD*%
D32*
%TO.C,TH2*%
X48710000Y-119380000D03*
%TD*%
D33*
%TO.C,J4*%
X9784331Y-110055000D03*
X9784331Y-62955000D03*
D34*
X11204331Y-69885000D03*
D35*
X11204331Y-72655000D03*
X11204331Y-75425000D03*
X11204331Y-78195000D03*
X11204331Y-80965000D03*
X11204331Y-83735000D03*
X11204331Y-86505000D03*
X11204331Y-89275000D03*
X11204331Y-92045000D03*
X11204331Y-94815000D03*
X11204331Y-97585000D03*
X11204331Y-100355000D03*
X11204331Y-103125000D03*
X8364331Y-71270000D03*
X8364331Y-74040000D03*
X8364331Y-76810000D03*
X8364331Y-79580000D03*
X8364331Y-82350000D03*
X8364331Y-85120000D03*
X8364331Y-87890000D03*
X8364331Y-90660000D03*
X8364331Y-93430000D03*
X8364331Y-96200000D03*
X8364331Y-98970000D03*
X8364331Y-101740000D03*
%TD*%
D20*
%TO.C,J17*%
X20350000Y-117250000D03*
D21*
X17810000Y-117250000D03*
X15270000Y-117250000D03*
%TD*%
D25*
%TO.C,H1*%
X3000000Y-3000000D03*
%TD*%
D22*
%TO.C,J8*%
X53790000Y-38600000D03*
D23*
X53790000Y-41100000D03*
X53790000Y-43600000D03*
X53790000Y-46100000D03*
%TD*%
D25*
%TO.C,H3*%
X3000000Y-119000000D03*
%TD*%
D32*
%TO.C,TH3*%
X1720000Y-63500000D03*
%TD*%
D25*
%TO.C,H2*%
X54000000Y-3000000D03*
%TD*%
D13*
%TO.C,JP3*%
X4650000Y-41075000D03*
D14*
X4650000Y-43615000D03*
X4650000Y-46155000D03*
%TD*%
M02*
