%TF.GenerationSoftware,KiCad,Pcbnew,(6.0.4-0)*%
%TF.CreationDate,2022-05-22T20:42:40+12:00*%
%TF.ProjectId,controller,636f6e74-726f-46c6-9c65-722e6b696361,1.0*%
%TF.SameCoordinates,PX4900f70PY2ebae40*%
%TF.FileFunction,Legend,Top*%
%TF.FilePolarity,Positive*%
%FSLAX46Y46*%
G04 Gerber Fmt 4.6, Leading zero omitted, Abs format (unit mm)*
G04 Created by KiCad (PCBNEW (6.0.4-0)) date 2022-05-22 20:42:40*
%MOMM*%
%LPD*%
G01*
G04 APERTURE LIST*
%ADD10C,0.150000*%
%ADD11C,0.125000*%
%ADD12C,0.200000*%
%ADD13C,0.100000*%
%ADD14C,0.300000*%
%ADD15C,0.120000*%
%ADD16C,0.127000*%
G04 APERTURE END LIST*
D10*
X18125000Y-27300000D02*
G75*
G03*
X18125000Y-27300000I-75000J0D01*
G01*
D11*
X6250000Y-51750000D02*
X7550000Y-51750000D01*
X7550000Y-51750000D02*
X7550000Y-49200000D01*
X7550000Y-49200000D02*
X6250000Y-49200000D01*
X6250000Y-49200000D02*
X6250000Y-51750000D01*
X44600000Y-43700000D02*
X46250000Y-43700000D01*
D10*
X46450000Y-108950000D02*
X47250000Y-108950000D01*
X43350000Y-80450000D02*
X43350000Y-81900000D01*
X25000000Y-44400000D02*
X25125000Y-44600000D01*
X50800000Y-38050000D02*
X50250000Y-38050000D01*
X17410000Y-51672500D02*
X17210000Y-51410000D01*
X30250000Y-113350000D02*
X30650000Y-113350000D01*
X49000000Y-68150000D02*
X48450000Y-68150000D01*
D11*
X51550000Y-43650000D02*
X52400000Y-43650000D01*
D10*
X26850000Y-44450000D02*
X26850000Y-44650000D01*
D11*
X32050000Y-99875000D02*
X31100000Y-99875000D01*
D10*
X43350000Y-81900000D02*
X42800000Y-81900000D01*
X25725000Y-112350000D02*
G75*
G03*
X25725000Y-112350000I-75000J0D01*
G01*
X33125000Y-17500000D02*
G75*
G03*
X33125000Y-17500000I-75000J0D01*
G01*
X43350000Y-86300000D02*
X43350000Y-87750000D01*
X52000000Y-43550000D02*
X52400000Y-43650000D01*
X48500000Y-60550000D02*
X48500000Y-61700000D01*
D11*
X6275000Y-47000000D02*
X7575000Y-47000000D01*
X7575000Y-47000000D02*
X7575000Y-44450000D01*
X7575000Y-44450000D02*
X6275000Y-44450000D01*
X6275000Y-44450000D02*
X6275000Y-47000000D01*
D10*
X43350000Y-105150000D02*
X43350000Y-106600000D01*
X30387500Y-12050000D02*
X30612500Y-12250000D01*
X39000000Y-84750000D02*
X38600000Y-84750000D01*
D11*
X6900000Y-53450000D02*
X6900000Y-52600000D01*
D10*
X35350000Y-65300000D02*
X35350000Y-64700000D01*
X23450000Y-101950000D02*
X23450000Y-101550000D01*
D11*
X31400000Y-99025000D02*
X32700000Y-99025000D01*
X32700000Y-99025000D02*
X32700000Y-96575000D01*
X32700000Y-96575000D02*
X31400000Y-96575000D01*
X31400000Y-96575000D02*
X31400000Y-99025000D01*
D10*
X12525000Y-50650000D02*
G75*
G03*
X12525000Y-50650000I-75000J0D01*
G01*
X12450000Y-41250000D02*
X12450000Y-40900000D01*
X23850000Y-19700000D02*
X23850000Y-16850000D01*
D12*
X13200000Y-7350000D02*
X12946000Y-6842000D01*
D10*
X49075000Y-98450000D02*
X48525000Y-98450000D01*
X29300000Y-45500000D02*
X29500000Y-45500000D01*
X25725000Y-71250000D02*
G75*
G03*
X25725000Y-71250000I-75000J0D01*
G01*
D12*
X13454000Y-6842000D02*
X12946000Y-6842000D01*
D10*
X50250000Y-46450000D02*
X50250000Y-46650000D01*
X9600000Y-51950000D02*
X9900000Y-51950000D01*
X10500000Y-41900000D02*
X10800000Y-41900000D01*
D11*
X44800000Y-47650000D02*
X44800000Y-46050000D01*
D10*
X38950000Y-65800000D02*
X38250000Y-65800000D01*
X43350000Y-119550000D02*
X42800000Y-119550000D01*
X48450000Y-53250000D02*
X48450000Y-54450000D01*
X7400000Y-13800000D02*
X7700000Y-13800000D01*
X7700000Y-13800000D02*
X7700000Y-14250000D01*
X20200000Y-113950000D02*
X20200000Y-113350000D01*
X22150000Y-13200000D02*
X22150000Y-13400000D01*
X51050000Y-26850000D02*
X51050000Y-26400000D01*
D11*
X6900000Y-52600000D02*
X6100000Y-52600000D01*
D10*
X50250000Y-38050000D02*
X50250000Y-40500000D01*
G36*
X55800000Y-19525000D02*
G01*
X55275000Y-19525000D01*
X55550000Y-19050000D01*
X55800000Y-19525000D01*
G37*
X55800000Y-19525000D02*
X55275000Y-19525000D01*
X55550000Y-19050000D01*
X55800000Y-19525000D01*
X25050000Y-113350000D02*
X25450000Y-113350000D01*
X51800000Y-26400000D02*
X51050000Y-26400000D01*
X9375000Y-53350000D02*
G75*
G03*
X9375000Y-53350000I-75000J0D01*
G01*
X43350000Y-67450000D02*
X43350000Y-68900000D01*
X20200000Y-19600000D02*
X20200000Y-19375000D01*
X43350000Y-86275000D02*
X42800000Y-86275000D01*
X49025000Y-53250000D02*
X48450000Y-53250000D01*
X51050000Y-32600000D02*
X51050000Y-33000000D01*
X50250000Y-44250000D02*
X50250000Y-45650000D01*
D12*
X13200000Y-7350000D02*
X13454000Y-6842000D01*
D10*
X27200000Y-17700000D02*
X26800000Y-17600000D01*
X48450000Y-68150000D02*
X48450000Y-69350000D01*
X19800000Y-113350000D02*
X20200000Y-113350000D01*
X52400000Y-43650000D02*
X52000000Y-43750000D01*
X52000000Y-45950000D02*
X52400000Y-46050000D01*
X34550000Y-65300000D02*
X35350000Y-65300000D01*
X27200000Y-19800000D02*
X27200000Y-17700000D01*
X38600000Y-84750000D02*
X38600000Y-85200000D01*
X38250000Y-65800000D02*
X38250000Y-66300000D01*
X20300000Y-86800000D02*
X20300000Y-87300000D01*
X24046875Y-16675000D02*
X23853125Y-16825000D01*
X33500000Y-102450000D02*
X46450000Y-102450000D01*
X36150000Y-14050000D02*
X36150000Y-13550000D01*
D11*
X6250000Y-56000000D02*
X7550000Y-56000000D01*
X7550000Y-56000000D02*
X7550000Y-53450000D01*
X7550000Y-53450000D02*
X6250000Y-53450000D01*
X6250000Y-53450000D02*
X6250000Y-56000000D01*
X51550000Y-46050000D02*
X51550000Y-43650000D01*
D10*
X52400000Y-46050000D02*
X52000000Y-45950000D01*
X15350000Y-52800000D02*
X15550000Y-53000000D01*
X48550000Y-90800000D02*
X48550000Y-91900000D01*
X28300000Y-58200000D02*
X27650000Y-58200000D01*
X10800000Y-41900000D02*
X10800000Y-42200000D01*
D11*
X32050000Y-99875000D02*
X32050000Y-99025000D01*
D10*
X50850000Y-46650000D02*
X50250000Y-46650000D01*
X19675000Y-44325000D02*
X19675000Y-44825000D01*
X30400000Y-13250000D02*
X30600000Y-13350000D01*
X49050000Y-61700000D02*
X48500000Y-61700000D01*
X30600000Y-14650000D02*
X30400000Y-14600000D01*
X25050000Y-113950000D02*
X25050000Y-113350000D01*
X48500000Y-108900000D02*
X48500000Y-111900000D01*
X48500000Y-75400000D02*
X48500000Y-76550000D01*
X43350000Y-67425000D02*
X42800000Y-67425000D01*
X16325000Y-72600000D02*
G75*
G03*
X16325000Y-72600000I-75000J0D01*
G01*
D12*
X13200000Y-6148000D02*
X13200000Y-7350000D01*
D11*
X31400000Y-103225000D02*
X32700000Y-103225000D01*
X32700000Y-103225000D02*
X32700000Y-100775000D01*
X32700000Y-100775000D02*
X31400000Y-100775000D01*
X31400000Y-100775000D02*
X31400000Y-103225000D01*
D10*
X15400000Y-113950000D02*
X15400000Y-113350000D01*
X46450000Y-102450000D02*
X46450000Y-108950000D01*
X20475000Y-72150000D02*
X20475000Y-72600000D01*
X16850000Y-101950000D02*
X17000000Y-101800000D01*
D11*
X6275000Y-42750000D02*
X7575000Y-42750000D01*
X7575000Y-42750000D02*
X7575000Y-40200000D01*
X7575000Y-40200000D02*
X6275000Y-40200000D01*
X6275000Y-40200000D02*
X6275000Y-42750000D01*
D10*
X23900000Y-101550000D02*
X23450000Y-101550000D01*
X22850000Y-43000000D02*
X22450000Y-43000000D01*
D11*
X32050000Y-100775000D02*
X32050000Y-99875000D01*
D10*
X38950000Y-103550000D02*
X38550000Y-103550000D01*
X51050000Y-33000000D02*
X51800000Y-33000000D01*
X12750000Y-41250000D02*
X12450000Y-41250000D01*
X48450000Y-98450000D02*
X48400000Y-101350000D01*
X15400000Y-113350000D02*
X15800000Y-113350000D01*
X19175000Y-44325000D02*
X19675000Y-44325000D01*
X19925000Y-72150000D02*
X20475000Y-72150000D01*
X15975000Y-87250000D02*
G75*
G03*
X15975000Y-87250000I-75000J0D01*
G01*
X27650000Y-58200000D02*
X27650000Y-57900000D01*
X30650000Y-113950000D02*
X30650000Y-113350000D01*
X49062500Y-83550000D02*
X48550000Y-83550000D01*
X52400000Y-46050000D02*
X52000000Y-46150000D01*
X22300000Y-60400000D02*
X21850000Y-60400000D01*
X49050000Y-91900000D02*
X48550000Y-91900000D01*
X43350000Y-105125000D02*
X42800000Y-105125000D01*
X22300000Y-60800000D02*
X22300000Y-60400000D01*
D11*
X6925000Y-43600000D02*
X6125000Y-43600000D01*
D10*
X49025000Y-76550000D02*
X48500000Y-76550000D01*
X48550000Y-83550000D02*
X48550000Y-84700000D01*
D11*
X6900000Y-52600000D02*
X6900000Y-51750000D01*
D10*
X38550000Y-103550000D02*
X38550000Y-104000000D01*
X22550000Y-33500000D02*
X22800000Y-33500000D01*
X19650000Y-26825000D02*
X19900000Y-26825000D01*
X19800000Y-86800000D02*
X20300000Y-86800000D01*
D11*
X6925000Y-43600000D02*
X6925000Y-42750000D01*
X44800000Y-46050000D02*
X52400000Y-46050000D01*
D10*
X43350000Y-99200000D02*
X43350000Y-100650000D01*
X43350000Y-118100000D02*
X43350000Y-119550000D01*
X26450000Y-13100000D02*
X26200000Y-13350000D01*
D11*
X6925000Y-44450000D02*
X6925000Y-43600000D01*
D10*
X22450000Y-43000000D02*
X22450000Y-42575000D01*
X19900000Y-26825000D02*
X19900000Y-27225000D01*
X43350000Y-100650000D02*
X42800000Y-100650000D01*
X49050000Y-111900000D02*
X48500000Y-111900000D01*
D13*
X52264285Y-61307142D02*
X52264285Y-61140476D01*
X52526190Y-61069047D02*
X52526190Y-61307142D01*
X52026190Y-61307142D01*
X52026190Y-61069047D01*
D12*
X49024523Y-107516009D02*
X48419761Y-107939342D01*
X49024523Y-108241723D02*
X47754523Y-108241723D01*
X47754523Y-107757914D01*
X47815000Y-107636961D01*
X47875476Y-107576485D01*
X47996428Y-107516009D01*
X48177857Y-107516009D01*
X48298809Y-107576485D01*
X48359285Y-107636961D01*
X48419761Y-107757914D01*
X48419761Y-108241723D01*
X48359285Y-106971723D02*
X48359285Y-106548390D01*
X49024523Y-106366961D02*
X49024523Y-106971723D01*
X47754523Y-106971723D01*
X47754523Y-106366961D01*
X49024523Y-105217914D02*
X49024523Y-105822676D01*
X47754523Y-105822676D01*
X48661666Y-104855057D02*
X48661666Y-104250295D01*
X49024523Y-104976009D02*
X47754523Y-104552676D01*
X49024523Y-104129342D01*
X48419761Y-103464104D02*
X49024523Y-103464104D01*
X47754523Y-103887438D02*
X48419761Y-103464104D01*
X47754523Y-103040771D01*
X48964047Y-102677914D02*
X49024523Y-102496485D01*
X49024523Y-102194104D01*
X48964047Y-102073152D01*
X48903571Y-102012676D01*
X48782619Y-101952200D01*
X48661666Y-101952200D01*
X48540714Y-102012676D01*
X48480238Y-102073152D01*
X48419761Y-102194104D01*
X48359285Y-102436009D01*
X48298809Y-102556961D01*
X48238333Y-102617438D01*
X48117380Y-102677914D01*
X47996428Y-102677914D01*
X47875476Y-102617438D01*
X47815000Y-102556961D01*
X47754523Y-102436009D01*
X47754523Y-102133628D01*
X47815000Y-101952200D01*
D13*
X52050000Y-38469047D02*
X52026190Y-38516666D01*
X52026190Y-38588095D01*
X52050000Y-38659523D01*
X52097619Y-38707142D01*
X52145238Y-38730952D01*
X52240476Y-38754761D01*
X52311904Y-38754761D01*
X52407142Y-38730952D01*
X52454761Y-38707142D01*
X52502380Y-38659523D01*
X52526190Y-38588095D01*
X52526190Y-38540476D01*
X52502380Y-38469047D01*
X52478571Y-38445238D01*
X52311904Y-38445238D01*
X52311904Y-38540476D01*
X52478571Y-86747619D02*
X52502380Y-86771428D01*
X52526190Y-86842857D01*
X52526190Y-86890476D01*
X52502380Y-86961904D01*
X52454761Y-87009523D01*
X52407142Y-87033333D01*
X52311904Y-87057142D01*
X52240476Y-87057142D01*
X52145238Y-87033333D01*
X52097619Y-87009523D01*
X52050000Y-86961904D01*
X52026190Y-86890476D01*
X52026190Y-86842857D01*
X52050000Y-86771428D01*
X52073809Y-86747619D01*
X52526190Y-86295238D02*
X52526190Y-86533333D01*
X52026190Y-86533333D01*
X52526190Y-86128571D02*
X52026190Y-86128571D01*
X52526190Y-85842857D02*
X52240476Y-86057142D01*
X52026190Y-85842857D02*
X52311904Y-86128571D01*
X52026190Y-111495238D02*
X52026190Y-111733333D01*
X52264285Y-111757142D01*
X52240476Y-111733333D01*
X52216666Y-111685714D01*
X52216666Y-111566666D01*
X52240476Y-111519047D01*
X52264285Y-111495238D01*
X52311904Y-111471428D01*
X52430952Y-111471428D01*
X52478571Y-111495238D01*
X52502380Y-111519047D01*
X52526190Y-111566666D01*
X52526190Y-111685714D01*
X52502380Y-111733333D01*
X52478571Y-111757142D01*
X52026190Y-111328571D02*
X52526190Y-111161904D01*
X52026190Y-110995238D01*
D11*
X32385714Y-98291666D02*
X32423809Y-98325000D01*
X32461904Y-98425000D01*
X32461904Y-98491666D01*
X32423809Y-98591666D01*
X32347619Y-98658333D01*
X32271428Y-98691666D01*
X32119047Y-98725000D01*
X32004761Y-98725000D01*
X31852380Y-98691666D01*
X31776190Y-98658333D01*
X31700000Y-98591666D01*
X31661904Y-98491666D01*
X31661904Y-98425000D01*
X31700000Y-98325000D01*
X31738095Y-98291666D01*
X32385714Y-97991666D02*
X32423809Y-97958333D01*
X32461904Y-97991666D01*
X32423809Y-98025000D01*
X32385714Y-97991666D01*
X32461904Y-97991666D01*
X32461904Y-97658333D02*
X31661904Y-97658333D01*
X31661904Y-97391666D01*
X31700000Y-97325000D01*
X31738095Y-97291666D01*
X31814285Y-97258333D01*
X31928571Y-97258333D01*
X32004761Y-97291666D01*
X32042857Y-97325000D01*
X32080952Y-97391666D01*
X32080952Y-97658333D01*
X32385714Y-96958333D02*
X32423809Y-96925000D01*
X32461904Y-96958333D01*
X32423809Y-96991666D01*
X32385714Y-96958333D01*
X32461904Y-96958333D01*
D13*
X52526190Y-106685714D02*
X52288095Y-106852380D01*
X52526190Y-106971428D02*
X52026190Y-106971428D01*
X52026190Y-106780952D01*
X52050000Y-106733333D01*
X52073809Y-106709523D01*
X52121428Y-106685714D01*
X52192857Y-106685714D01*
X52240476Y-106709523D01*
X52264285Y-106733333D01*
X52288095Y-106780952D01*
X52288095Y-106971428D01*
X52526190Y-106233333D02*
X52526190Y-106471428D01*
X52026190Y-106471428D01*
X52026190Y-106114285D02*
X52026190Y-105804761D01*
X52216666Y-105971428D01*
X52216666Y-105900000D01*
X52240476Y-105852380D01*
X52264285Y-105828571D01*
X52311904Y-105804761D01*
X52430952Y-105804761D01*
X52478571Y-105828571D01*
X52502380Y-105852380D01*
X52526190Y-105900000D01*
X52526190Y-106042857D01*
X52502380Y-106090476D01*
X52478571Y-106114285D01*
D11*
X25983333Y-113292857D02*
X26083333Y-113330952D01*
X26116666Y-113369047D01*
X26150000Y-113445238D01*
X26150000Y-113559523D01*
X26116666Y-113635714D01*
X26083333Y-113673809D01*
X26016666Y-113711904D01*
X25750000Y-113711904D01*
X25750000Y-112911904D01*
X25983333Y-112911904D01*
X26050000Y-112950000D01*
X26083333Y-112988095D01*
X26116666Y-113064285D01*
X26116666Y-113140476D01*
X26083333Y-113216666D01*
X26050000Y-113254761D01*
X25983333Y-113292857D01*
X25750000Y-113292857D01*
X26450000Y-113711904D02*
X26450000Y-113178571D01*
X26450000Y-112911904D02*
X26416666Y-112950000D01*
X26450000Y-112988095D01*
X26483333Y-112950000D01*
X26450000Y-112911904D01*
X26450000Y-112988095D01*
X26683333Y-113178571D02*
X26950000Y-113178571D01*
X26783333Y-112911904D02*
X26783333Y-113597619D01*
X26816666Y-113673809D01*
X26883333Y-113711904D01*
X26950000Y-113711904D01*
X27150000Y-113673809D02*
X27250000Y-113711904D01*
X27416666Y-113711904D01*
X27483333Y-113673809D01*
X27516666Y-113635714D01*
X27550000Y-113559523D01*
X27550000Y-113483333D01*
X27516666Y-113407142D01*
X27483333Y-113369047D01*
X27416666Y-113330952D01*
X27283333Y-113292857D01*
X27216666Y-113254761D01*
X27183333Y-113216666D01*
X27150000Y-113140476D01*
X27150000Y-113064285D01*
X27183333Y-112988095D01*
X27216666Y-112950000D01*
X27283333Y-112911904D01*
X27450000Y-112911904D01*
X27550000Y-112950000D01*
X28116666Y-113673809D02*
X28050000Y-113711904D01*
X27916666Y-113711904D01*
X27850000Y-113673809D01*
X27816666Y-113597619D01*
X27816666Y-113292857D01*
X27850000Y-113216666D01*
X27916666Y-113178571D01*
X28050000Y-113178571D01*
X28116666Y-113216666D01*
X28150000Y-113292857D01*
X28150000Y-113369047D01*
X27816666Y-113445238D01*
X28350000Y-113178571D02*
X28616666Y-113178571D01*
X28450000Y-112911904D02*
X28450000Y-113597619D01*
X28483333Y-113673809D01*
X28550000Y-113711904D01*
X28616666Y-113711904D01*
X28750000Y-113178571D02*
X29016666Y-113178571D01*
X28850000Y-112911904D02*
X28850000Y-113597619D01*
X28883333Y-113673809D01*
X28950000Y-113711904D01*
X29016666Y-113711904D01*
X29516666Y-113673809D02*
X29450000Y-113711904D01*
X29316666Y-113711904D01*
X29250000Y-113673809D01*
X29216666Y-113597619D01*
X29216666Y-113292857D01*
X29250000Y-113216666D01*
X29316666Y-113178571D01*
X29450000Y-113178571D01*
X29516666Y-113216666D01*
X29550000Y-113292857D01*
X29550000Y-113369047D01*
X29216666Y-113445238D01*
X29850000Y-113711904D02*
X29850000Y-113178571D01*
X29850000Y-113330952D02*
X29883333Y-113254761D01*
X29916666Y-113216666D01*
X29983333Y-113178571D01*
X30050000Y-113178571D01*
D13*
X52050000Y-28269047D02*
X52026190Y-28316666D01*
X52026190Y-28388095D01*
X52050000Y-28459523D01*
X52097619Y-28507142D01*
X52145238Y-28530952D01*
X52240476Y-28554761D01*
X52311904Y-28554761D01*
X52407142Y-28530952D01*
X52454761Y-28507142D01*
X52502380Y-28459523D01*
X52526190Y-28388095D01*
X52526190Y-28340476D01*
X52502380Y-28269047D01*
X52478571Y-28245238D01*
X52311904Y-28245238D01*
X52311904Y-28340476D01*
X52526190Y-89450000D02*
X52026190Y-89450000D01*
X52026190Y-89330952D01*
X52050000Y-89259523D01*
X52097619Y-89211904D01*
X52145238Y-89188095D01*
X52240476Y-89164285D01*
X52311904Y-89164285D01*
X52407142Y-89188095D01*
X52454761Y-89211904D01*
X52502380Y-89259523D01*
X52526190Y-89330952D01*
X52526190Y-89450000D01*
X52526190Y-88950000D02*
X52026190Y-88950000D01*
X52526190Y-88426190D02*
X52288095Y-88592857D01*
X52526190Y-88711904D02*
X52026190Y-88711904D01*
X52026190Y-88521428D01*
X52050000Y-88473809D01*
X52073809Y-88450000D01*
X52121428Y-88426190D01*
X52192857Y-88426190D01*
X52240476Y-88450000D01*
X52264285Y-88473809D01*
X52288095Y-88521428D01*
X52288095Y-88711904D01*
D12*
X18074523Y-9107619D02*
X16804523Y-9107619D01*
X16804523Y-8623809D01*
X16865000Y-8502857D01*
X16925476Y-8442380D01*
X17046428Y-8381904D01*
X17227857Y-8381904D01*
X17348809Y-8442380D01*
X17409285Y-8502857D01*
X17469761Y-8623809D01*
X17469761Y-9107619D01*
X16804523Y-7958571D02*
X18074523Y-7656190D01*
X17167380Y-7414285D01*
X18074523Y-7172380D01*
X16804523Y-6870000D01*
X18074523Y-5660476D02*
X17469761Y-6083809D01*
X18074523Y-6386190D02*
X16804523Y-6386190D01*
X16804523Y-5902380D01*
X16865000Y-5781428D01*
X16925476Y-5720952D01*
X17046428Y-5660476D01*
X17227857Y-5660476D01*
X17348809Y-5720952D01*
X17409285Y-5781428D01*
X17469761Y-5902380D01*
X17469761Y-6386190D01*
X18014047Y-4209047D02*
X18074523Y-4027619D01*
X18074523Y-3725238D01*
X18014047Y-3604285D01*
X17953571Y-3543809D01*
X17832619Y-3483333D01*
X17711666Y-3483333D01*
X17590714Y-3543809D01*
X17530238Y-3604285D01*
X17469761Y-3725238D01*
X17409285Y-3967142D01*
X17348809Y-4088095D01*
X17288333Y-4148571D01*
X17167380Y-4209047D01*
X17046428Y-4209047D01*
X16925476Y-4148571D01*
X16865000Y-4088095D01*
X16804523Y-3967142D01*
X16804523Y-3664761D01*
X16865000Y-3483333D01*
X16804523Y-3060000D02*
X18074523Y-2757619D01*
X17167380Y-2515714D01*
X18074523Y-2273809D01*
X16804523Y-1971428D01*
D13*
X52526190Y-74350000D02*
X52026190Y-74350000D01*
X52026190Y-74230952D01*
X52050000Y-74159523D01*
X52097619Y-74111904D01*
X52145238Y-74088095D01*
X52240476Y-74064285D01*
X52311904Y-74064285D01*
X52407142Y-74088095D01*
X52454761Y-74111904D01*
X52502380Y-74159523D01*
X52526190Y-74230952D01*
X52526190Y-74350000D01*
X52526190Y-73850000D02*
X52026190Y-73850000D01*
X52526190Y-73326190D02*
X52288095Y-73492857D01*
X52526190Y-73611904D02*
X52026190Y-73611904D01*
X52026190Y-73421428D01*
X52050000Y-73373809D01*
X52073809Y-73350000D01*
X52121428Y-73326190D01*
X52192857Y-73326190D01*
X52240476Y-73350000D01*
X52264285Y-73373809D01*
X52288095Y-73421428D01*
X52288095Y-73611904D01*
D12*
X47855323Y-90521428D02*
X47855323Y-89674761D01*
X49125323Y-90521428D01*
X49125323Y-89674761D01*
X49125323Y-88223333D02*
X47855323Y-88223333D01*
X47855323Y-87920952D01*
X47915800Y-87739523D01*
X48036752Y-87618571D01*
X48157704Y-87558095D01*
X48399609Y-87497619D01*
X48581038Y-87497619D01*
X48822942Y-87558095D01*
X48943895Y-87618571D01*
X49064847Y-87739523D01*
X49125323Y-87920952D01*
X49125323Y-88223333D01*
X49125323Y-86227619D02*
X48520561Y-86650952D01*
X49125323Y-86953333D02*
X47855323Y-86953333D01*
X47855323Y-86469523D01*
X47915800Y-86348571D01*
X47976276Y-86288095D01*
X48097228Y-86227619D01*
X48278657Y-86227619D01*
X48399609Y-86288095D01*
X48460085Y-86348571D01*
X48520561Y-86469523D01*
X48520561Y-86953333D01*
X47855323Y-85864761D02*
X49125323Y-85441428D01*
X47855323Y-85018095D01*
D13*
X40921428Y-115321428D02*
X41350000Y-115321428D01*
X41435714Y-115350000D01*
X41492857Y-115407142D01*
X41521428Y-115492857D01*
X41521428Y-115550000D01*
X41521428Y-114750000D02*
X41521428Y-115035714D01*
X40921428Y-115035714D01*
X41464285Y-114207142D02*
X41492857Y-114235714D01*
X41521428Y-114321428D01*
X41521428Y-114378571D01*
X41492857Y-114464285D01*
X41435714Y-114521428D01*
X41378571Y-114550000D01*
X41264285Y-114578571D01*
X41178571Y-114578571D01*
X41064285Y-114550000D01*
X41007142Y-114521428D01*
X40950000Y-114464285D01*
X40921428Y-114378571D01*
X40921428Y-114321428D01*
X40950000Y-114235714D01*
X40978571Y-114207142D01*
X40921428Y-113778571D02*
X41350000Y-113778571D01*
X41435714Y-113807142D01*
X41492857Y-113864285D01*
X41521428Y-113950000D01*
X41521428Y-114007142D01*
X41521428Y-113207142D02*
X41521428Y-113492857D01*
X40921428Y-113492857D01*
X41464285Y-112664285D02*
X41492857Y-112692857D01*
X41521428Y-112778571D01*
X41521428Y-112835714D01*
X41492857Y-112921428D01*
X41435714Y-112978571D01*
X41378571Y-113007142D01*
X41264285Y-113035714D01*
X41178571Y-113035714D01*
X41064285Y-113007142D01*
X41007142Y-112978571D01*
X40950000Y-112921428D01*
X40921428Y-112835714D01*
X40921428Y-112778571D01*
X40950000Y-112692857D01*
X40978571Y-112664285D01*
X40921428Y-112235714D02*
X41350000Y-112235714D01*
X41435714Y-112264285D01*
X41492857Y-112321428D01*
X41521428Y-112407142D01*
X41521428Y-112464285D01*
X41521428Y-111664285D02*
X41521428Y-111950000D01*
X40921428Y-111950000D01*
X41464285Y-111121428D02*
X41492857Y-111150000D01*
X41521428Y-111235714D01*
X41521428Y-111292857D01*
X41492857Y-111378571D01*
X41435714Y-111435714D01*
X41378571Y-111464285D01*
X41264285Y-111492857D01*
X41178571Y-111492857D01*
X41064285Y-111464285D01*
X41007142Y-111435714D01*
X40950000Y-111378571D01*
X40921428Y-111292857D01*
X40921428Y-111235714D01*
X40950000Y-111150000D01*
X40978571Y-111121428D01*
X40921428Y-110692857D02*
X41350000Y-110692857D01*
X41435714Y-110721428D01*
X41492857Y-110778571D01*
X41521428Y-110864285D01*
X41521428Y-110921428D01*
X41521428Y-110121428D02*
X41521428Y-110407142D01*
X40921428Y-110407142D01*
X41464285Y-109578571D02*
X41492857Y-109607142D01*
X41521428Y-109692857D01*
X41521428Y-109750000D01*
X41492857Y-109835714D01*
X41435714Y-109892857D01*
X41378571Y-109921428D01*
X41264285Y-109950000D01*
X41178571Y-109950000D01*
X41064285Y-109921428D01*
X41007142Y-109892857D01*
X40950000Y-109835714D01*
X40921428Y-109750000D01*
X40921428Y-109692857D01*
X40950000Y-109607142D01*
X40978571Y-109578571D01*
D11*
X7336904Y-46112666D02*
X6955952Y-46346000D01*
X7336904Y-46512666D02*
X6536904Y-46512666D01*
X6536904Y-46246000D01*
X6575000Y-46179333D01*
X6613095Y-46146000D01*
X6689285Y-46112666D01*
X6803571Y-46112666D01*
X6879761Y-46146000D01*
X6917857Y-46179333D01*
X6955952Y-46246000D01*
X6955952Y-46512666D01*
X7336904Y-45479333D02*
X7336904Y-45812666D01*
X6536904Y-45812666D01*
X6955952Y-45112666D02*
X7336904Y-45112666D01*
X6536904Y-45346000D02*
X6955952Y-45112666D01*
X6536904Y-44879333D01*
D13*
X52026190Y-109590476D02*
X52145238Y-109590476D01*
X52097619Y-109709523D02*
X52145238Y-109590476D01*
X52097619Y-109471428D01*
X52240476Y-109661904D02*
X52145238Y-109590476D01*
X52240476Y-109519047D01*
X52526190Y-108995238D02*
X52288095Y-109161904D01*
X52526190Y-109280952D02*
X52026190Y-109280952D01*
X52026190Y-109090476D01*
X52050000Y-109042857D01*
X52073809Y-109019047D01*
X52121428Y-108995238D01*
X52192857Y-108995238D01*
X52240476Y-109019047D01*
X52264285Y-109042857D01*
X52288095Y-109090476D01*
X52288095Y-109280952D01*
X52526190Y-108542857D02*
X52526190Y-108780952D01*
X52026190Y-108780952D01*
X52192857Y-108161904D02*
X52526190Y-108161904D01*
X52002380Y-108280952D02*
X52359523Y-108400000D01*
X52359523Y-108090476D01*
D12*
X49704523Y-43991819D02*
X50974523Y-43568485D01*
X49704523Y-43145152D01*
X50309285Y-42298485D02*
X50309285Y-42721819D01*
X50974523Y-42721819D02*
X49704523Y-42721819D01*
X49704523Y-42117057D01*
X50974523Y-41633247D02*
X49704523Y-41633247D01*
X49704523Y-41330866D01*
X49765000Y-41149438D01*
X49885952Y-41028485D01*
X50006904Y-40968009D01*
X50248809Y-40907533D01*
X50430238Y-40907533D01*
X50672142Y-40968009D01*
X50793095Y-41028485D01*
X50914047Y-41149438D01*
X50974523Y-41330866D01*
X50974523Y-41633247D01*
X43369761Y-98147380D02*
X43974523Y-98147380D01*
X42704523Y-98570714D02*
X43369761Y-98147380D01*
X42704523Y-97724047D01*
X43309285Y-96333095D02*
X43309285Y-95909761D01*
X43974523Y-95728333D02*
X43974523Y-96333095D01*
X42704523Y-96333095D01*
X42704523Y-95728333D01*
X43974523Y-95184047D02*
X42704523Y-95184047D01*
X43974523Y-94458333D01*
X42704523Y-94458333D01*
X43974523Y-93853571D02*
X42704523Y-93853571D01*
X42704523Y-93551190D01*
X42765000Y-93369761D01*
X42885952Y-93248809D01*
X43006904Y-93188333D01*
X43248809Y-93127857D01*
X43430238Y-93127857D01*
X43672142Y-93188333D01*
X43793095Y-93248809D01*
X43914047Y-93369761D01*
X43974523Y-93551190D01*
X43974523Y-93853571D01*
X43914047Y-92644047D02*
X43974523Y-92462619D01*
X43974523Y-92160238D01*
X43914047Y-92039285D01*
X43853571Y-91978809D01*
X43732619Y-91918333D01*
X43611666Y-91918333D01*
X43490714Y-91978809D01*
X43430238Y-92039285D01*
X43369761Y-92160238D01*
X43309285Y-92402142D01*
X43248809Y-92523095D01*
X43188333Y-92583571D01*
X43067380Y-92644047D01*
X42946428Y-92644047D01*
X42825476Y-92583571D01*
X42765000Y-92523095D01*
X42704523Y-92402142D01*
X42704523Y-92099761D01*
X42765000Y-91918333D01*
X42704523Y-91555476D02*
X42704523Y-90829761D01*
X43974523Y-91192619D02*
X42704523Y-91192619D01*
X42704523Y-90164523D02*
X42704523Y-89922619D01*
X42765000Y-89801666D01*
X42885952Y-89680714D01*
X43127857Y-89620238D01*
X43551190Y-89620238D01*
X43793095Y-89680714D01*
X43914047Y-89801666D01*
X43974523Y-89922619D01*
X43974523Y-90164523D01*
X43914047Y-90285476D01*
X43793095Y-90406428D01*
X43551190Y-90466904D01*
X43127857Y-90466904D01*
X42885952Y-90406428D01*
X42765000Y-90285476D01*
X42704523Y-90164523D01*
X43974523Y-89075952D02*
X42704523Y-89075952D01*
X42704523Y-88592142D01*
X42765000Y-88471190D01*
X42825476Y-88410714D01*
X42946428Y-88350238D01*
X43127857Y-88350238D01*
X43248809Y-88410714D01*
X43309285Y-88471190D01*
X43369761Y-88592142D01*
X43369761Y-89075952D01*
D13*
X52026190Y-42123809D02*
X52026190Y-42076190D01*
X52050000Y-42028571D01*
X52073809Y-42004761D01*
X52121428Y-41980952D01*
X52216666Y-41957142D01*
X52335714Y-41957142D01*
X52430952Y-41980952D01*
X52478571Y-42004761D01*
X52502380Y-42028571D01*
X52526190Y-42076190D01*
X52526190Y-42123809D01*
X52502380Y-42171428D01*
X52478571Y-42195238D01*
X52430952Y-42219047D01*
X52335714Y-42242857D01*
X52216666Y-42242857D01*
X52121428Y-42219047D01*
X52073809Y-42195238D01*
X52050000Y-42171428D01*
X52026190Y-42123809D01*
X52335714Y-41742857D02*
X52335714Y-41361904D01*
X52526190Y-40861904D02*
X52526190Y-41147619D01*
X52526190Y-41004761D02*
X52026190Y-41004761D01*
X52097619Y-41052380D01*
X52145238Y-41100000D01*
X52169047Y-41147619D01*
X52026190Y-40552380D02*
X52026190Y-40504761D01*
X52050000Y-40457142D01*
X52073809Y-40433333D01*
X52121428Y-40409523D01*
X52216666Y-40385714D01*
X52335714Y-40385714D01*
X52430952Y-40409523D01*
X52478571Y-40433333D01*
X52502380Y-40457142D01*
X52526190Y-40504761D01*
X52526190Y-40552380D01*
X52502380Y-40600000D01*
X52478571Y-40623809D01*
X52430952Y-40647619D01*
X52335714Y-40671428D01*
X52216666Y-40671428D01*
X52121428Y-40647619D01*
X52073809Y-40623809D01*
X52050000Y-40600000D01*
X52026190Y-40552380D01*
X52026190Y-40242857D02*
X52526190Y-40076190D01*
X52026190Y-39909523D01*
X52026190Y-53845238D02*
X52026190Y-54083333D01*
X52264285Y-54107142D01*
X52240476Y-54083333D01*
X52216666Y-54035714D01*
X52216666Y-53916666D01*
X52240476Y-53869047D01*
X52264285Y-53845238D01*
X52311904Y-53821428D01*
X52430952Y-53821428D01*
X52478571Y-53845238D01*
X52502380Y-53869047D01*
X52526190Y-53916666D01*
X52526190Y-54035714D01*
X52502380Y-54083333D01*
X52478571Y-54107142D01*
X52026190Y-53678571D02*
X52526190Y-53511904D01*
X52026190Y-53345238D01*
D11*
X16316666Y-113292857D02*
X16416666Y-113330952D01*
X16450000Y-113369047D01*
X16483333Y-113445238D01*
X16483333Y-113559523D01*
X16450000Y-113635714D01*
X16416666Y-113673809D01*
X16350000Y-113711904D01*
X16083333Y-113711904D01*
X16083333Y-112911904D01*
X16316666Y-112911904D01*
X16383333Y-112950000D01*
X16416666Y-112988095D01*
X16450000Y-113064285D01*
X16450000Y-113140476D01*
X16416666Y-113216666D01*
X16383333Y-113254761D01*
X16316666Y-113292857D01*
X16083333Y-113292857D01*
X16783333Y-113711904D02*
X16783333Y-113178571D01*
X16783333Y-112911904D02*
X16750000Y-112950000D01*
X16783333Y-112988095D01*
X16816666Y-112950000D01*
X16783333Y-112911904D01*
X16783333Y-112988095D01*
X17016666Y-113178571D02*
X17283333Y-113178571D01*
X17116666Y-112911904D02*
X17116666Y-113597619D01*
X17150000Y-113673809D01*
X17216666Y-113711904D01*
X17283333Y-113711904D01*
X17450000Y-112911904D02*
X17916666Y-112911904D01*
X17450000Y-113711904D01*
X17916666Y-113711904D01*
X18450000Y-113673809D02*
X18383333Y-113711904D01*
X18250000Y-113711904D01*
X18183333Y-113673809D01*
X18150000Y-113597619D01*
X18150000Y-113292857D01*
X18183333Y-113216666D01*
X18250000Y-113178571D01*
X18383333Y-113178571D01*
X18450000Y-113216666D01*
X18483333Y-113292857D01*
X18483333Y-113369047D01*
X18150000Y-113445238D01*
X18783333Y-113711904D02*
X18783333Y-113178571D01*
X18783333Y-113330952D02*
X18816666Y-113254761D01*
X18850000Y-113216666D01*
X18916666Y-113178571D01*
X18983333Y-113178571D01*
X19316666Y-113711904D02*
X19250000Y-113673809D01*
X19216666Y-113635714D01*
X19183333Y-113559523D01*
X19183333Y-113330952D01*
X19216666Y-113254761D01*
X19250000Y-113216666D01*
X19316666Y-113178571D01*
X19416666Y-113178571D01*
X19483333Y-113216666D01*
X19516666Y-113254761D01*
X19550000Y-113330952D01*
X19550000Y-113559523D01*
X19516666Y-113635714D01*
X19483333Y-113673809D01*
X19416666Y-113711904D01*
X19316666Y-113711904D01*
D13*
X48626190Y-39447619D02*
X48126190Y-39447619D01*
X48126190Y-39257142D01*
X48150000Y-39209523D01*
X48173809Y-39185714D01*
X48221428Y-39161904D01*
X48292857Y-39161904D01*
X48340476Y-39185714D01*
X48364285Y-39209523D01*
X48388095Y-39257142D01*
X48388095Y-39447619D01*
X48626190Y-38685714D02*
X48626190Y-38971428D01*
X48626190Y-38828571D02*
X48126190Y-38828571D01*
X48197619Y-38876190D01*
X48245238Y-38923809D01*
X48269047Y-38971428D01*
X48126190Y-38257142D02*
X48126190Y-38352380D01*
X48150000Y-38400000D01*
X48173809Y-38423809D01*
X48245238Y-38471428D01*
X48340476Y-38495238D01*
X48530952Y-38495238D01*
X48578571Y-38471428D01*
X48602380Y-38447619D01*
X48626190Y-38400000D01*
X48626190Y-38304761D01*
X48602380Y-38257142D01*
X48578571Y-38233333D01*
X48530952Y-38209523D01*
X48411904Y-38209523D01*
X48364285Y-38233333D01*
X48340476Y-38257142D01*
X48316666Y-38304761D01*
X48316666Y-38400000D01*
X48340476Y-38447619D01*
X48364285Y-38471428D01*
X48411904Y-38495238D01*
X48126190Y-37923809D02*
X48245238Y-37923809D01*
X48197619Y-38042857D02*
X48245238Y-37923809D01*
X48197619Y-37804761D01*
X48340476Y-37995238D02*
X48245238Y-37923809D01*
X48340476Y-37852380D01*
D11*
X31661904Y-103733333D02*
X31852380Y-103733333D01*
X31776190Y-103900000D02*
X31852380Y-103733333D01*
X31776190Y-103566666D01*
X32004761Y-103833333D02*
X31852380Y-103733333D01*
X32004761Y-103633333D01*
X32461904Y-102366666D02*
X32080952Y-102600000D01*
X32461904Y-102766666D02*
X31661904Y-102766666D01*
X31661904Y-102500000D01*
X31700000Y-102433333D01*
X31738095Y-102400000D01*
X31814285Y-102366666D01*
X31928571Y-102366666D01*
X32004761Y-102400000D01*
X32042857Y-102433333D01*
X32080952Y-102500000D01*
X32080952Y-102766666D01*
X32461904Y-101733333D02*
X32461904Y-102066666D01*
X31661904Y-102066666D01*
X31928571Y-101200000D02*
X32461904Y-101200000D01*
X31623809Y-101366666D02*
X32195238Y-101533333D01*
X32195238Y-101100000D01*
D14*
X16023571Y-21871428D02*
X16080714Y-21800000D01*
X16195000Y-21728571D01*
X16480714Y-21728571D01*
X16595000Y-21800000D01*
X16652142Y-21871428D01*
X16709285Y-22014285D01*
X16709285Y-22157142D01*
X16652142Y-22371428D01*
X15966428Y-23228571D01*
X16709285Y-23228571D01*
X17737857Y-22228571D02*
X17737857Y-23228571D01*
X17452142Y-21657142D02*
X17166428Y-22728571D01*
X17909285Y-22728571D01*
X18195000Y-21728571D02*
X18595000Y-23228571D01*
X18995000Y-21728571D01*
X20252142Y-21657142D02*
X19223571Y-23585714D01*
X21223571Y-21728571D02*
X20652142Y-21728571D01*
X20595000Y-22442857D01*
X20652142Y-22371428D01*
X20766428Y-22300000D01*
X21052142Y-22300000D01*
X21166428Y-22371428D01*
X21223571Y-22442857D01*
X21280714Y-22585714D01*
X21280714Y-22942857D01*
X21223571Y-23085714D01*
X21166428Y-23157142D01*
X21052142Y-23228571D01*
X20766428Y-23228571D01*
X20652142Y-23157142D01*
X20595000Y-23085714D01*
X21737857Y-22800000D02*
X22309285Y-22800000D01*
X21623571Y-23228571D02*
X22023571Y-21728571D01*
X22423571Y-23228571D01*
X23737857Y-23228571D02*
X23737857Y-21728571D01*
X24309285Y-23228571D02*
X24309285Y-21728571D01*
X24995000Y-23228571D01*
X24995000Y-21728571D01*
D13*
X52478571Y-56497619D02*
X52502380Y-56521428D01*
X52526190Y-56592857D01*
X52526190Y-56640476D01*
X52502380Y-56711904D01*
X52454761Y-56759523D01*
X52407142Y-56783333D01*
X52311904Y-56807142D01*
X52240476Y-56807142D01*
X52145238Y-56783333D01*
X52097619Y-56759523D01*
X52050000Y-56711904D01*
X52026190Y-56640476D01*
X52026190Y-56592857D01*
X52050000Y-56521428D01*
X52073809Y-56497619D01*
X52526190Y-56045238D02*
X52526190Y-56283333D01*
X52026190Y-56283333D01*
X52526190Y-55878571D02*
X52026190Y-55878571D01*
X52526190Y-55592857D02*
X52240476Y-55807142D01*
X52026190Y-55592857D02*
X52311904Y-55878571D01*
D12*
X42704523Y-117420714D02*
X42704523Y-116574047D01*
X43974523Y-117420714D01*
X43974523Y-116574047D01*
X43309285Y-115122619D02*
X43309285Y-114699285D01*
X43974523Y-114517857D02*
X43974523Y-115122619D01*
X42704523Y-115122619D01*
X42704523Y-114517857D01*
X43974523Y-113973571D02*
X42704523Y-113973571D01*
X43974523Y-113247857D01*
X42704523Y-113247857D01*
X43974523Y-112643095D02*
X42704523Y-112643095D01*
X42704523Y-112340714D01*
X42765000Y-112159285D01*
X42885952Y-112038333D01*
X43006904Y-111977857D01*
X43248809Y-111917380D01*
X43430238Y-111917380D01*
X43672142Y-111977857D01*
X43793095Y-112038333D01*
X43914047Y-112159285D01*
X43974523Y-112340714D01*
X43974523Y-112643095D01*
X43914047Y-111433571D02*
X43974523Y-111252142D01*
X43974523Y-110949761D01*
X43914047Y-110828809D01*
X43853571Y-110768333D01*
X43732619Y-110707857D01*
X43611666Y-110707857D01*
X43490714Y-110768333D01*
X43430238Y-110828809D01*
X43369761Y-110949761D01*
X43309285Y-111191666D01*
X43248809Y-111312619D01*
X43188333Y-111373095D01*
X43067380Y-111433571D01*
X42946428Y-111433571D01*
X42825476Y-111373095D01*
X42765000Y-111312619D01*
X42704523Y-111191666D01*
X42704523Y-110889285D01*
X42765000Y-110707857D01*
X42704523Y-110345000D02*
X42704523Y-109619285D01*
X43974523Y-109982142D02*
X42704523Y-109982142D01*
X42704523Y-108954047D02*
X42704523Y-108712142D01*
X42765000Y-108591190D01*
X42885952Y-108470238D01*
X43127857Y-108409761D01*
X43551190Y-108409761D01*
X43793095Y-108470238D01*
X43914047Y-108591190D01*
X43974523Y-108712142D01*
X43974523Y-108954047D01*
X43914047Y-109075000D01*
X43793095Y-109195952D01*
X43551190Y-109256428D01*
X43127857Y-109256428D01*
X42885952Y-109195952D01*
X42765000Y-109075000D01*
X42704523Y-108954047D01*
X43974523Y-107865476D02*
X42704523Y-107865476D01*
X42704523Y-107381666D01*
X42765000Y-107260714D01*
X42825476Y-107200238D01*
X42946428Y-107139761D01*
X43127857Y-107139761D01*
X43248809Y-107200238D01*
X43309285Y-107260714D01*
X43369761Y-107381666D01*
X43369761Y-107865476D01*
X48495561Y-74748095D02*
X49100323Y-74748095D01*
X47830323Y-75171428D02*
X48495561Y-74748095D01*
X47830323Y-74324761D01*
X49100323Y-72933809D02*
X47830323Y-72933809D01*
X47830323Y-72631428D01*
X47890800Y-72450000D01*
X48011752Y-72329047D01*
X48132704Y-72268571D01*
X48374609Y-72208095D01*
X48556038Y-72208095D01*
X48797942Y-72268571D01*
X48918895Y-72329047D01*
X49039847Y-72450000D01*
X49100323Y-72631428D01*
X49100323Y-72933809D01*
X49100323Y-70938095D02*
X48495561Y-71361428D01*
X49100323Y-71663809D02*
X47830323Y-71663809D01*
X47830323Y-71180000D01*
X47890800Y-71059047D01*
X47951276Y-70998571D01*
X48072228Y-70938095D01*
X48253657Y-70938095D01*
X48374609Y-70998571D01*
X48435085Y-71059047D01*
X48495561Y-71180000D01*
X48495561Y-71663809D01*
X47830323Y-70575238D02*
X49100323Y-70151904D01*
X47830323Y-69728571D01*
D11*
X7311904Y-51383333D02*
X6511904Y-51383333D01*
X6511904Y-51116666D01*
X6550000Y-51050000D01*
X6588095Y-51016666D01*
X6664285Y-50983333D01*
X6778571Y-50983333D01*
X6854761Y-51016666D01*
X6892857Y-51050000D01*
X6930952Y-51116666D01*
X6930952Y-51383333D01*
X7311904Y-50316666D02*
X7311904Y-50716666D01*
X7311904Y-50516666D02*
X6511904Y-50516666D01*
X6626190Y-50583333D01*
X6702380Y-50650000D01*
X6740476Y-50716666D01*
X6511904Y-49716666D02*
X6511904Y-49850000D01*
X6550000Y-49916666D01*
X6588095Y-49950000D01*
X6702380Y-50016666D01*
X6854761Y-50050000D01*
X7159523Y-50050000D01*
X7235714Y-50016666D01*
X7273809Y-49983333D01*
X7311904Y-49916666D01*
X7311904Y-49783333D01*
X7273809Y-49716666D01*
X7235714Y-49683333D01*
X7159523Y-49650000D01*
X6969047Y-49650000D01*
X6892857Y-49683333D01*
X6854761Y-49716666D01*
X6816666Y-49783333D01*
X6816666Y-49916666D01*
X6854761Y-49983333D01*
X6892857Y-50016666D01*
X6969047Y-50050000D01*
X6511904Y-48716666D02*
X6702380Y-48716666D01*
X6626190Y-48883333D02*
X6702380Y-48716666D01*
X6626190Y-48550000D01*
X6854761Y-48816666D02*
X6702380Y-48716666D01*
X6854761Y-48616666D01*
X45083333Y-60650000D02*
X45116666Y-60550000D01*
X45116666Y-60383333D01*
X45083333Y-60316666D01*
X45050000Y-60283333D01*
X44983333Y-60250000D01*
X44916666Y-60250000D01*
X44850000Y-60283333D01*
X44816666Y-60316666D01*
X44783333Y-60383333D01*
X44750000Y-60516666D01*
X44716666Y-60583333D01*
X44683333Y-60616666D01*
X44616666Y-60650000D01*
X44550000Y-60650000D01*
X44483333Y-60616666D01*
X44450000Y-60583333D01*
X44416666Y-60516666D01*
X44416666Y-60350000D01*
X44450000Y-60250000D01*
X45116666Y-59950000D02*
X44416666Y-59950000D01*
X44416666Y-59683333D01*
X44450000Y-59616666D01*
X44483333Y-59583333D01*
X44550000Y-59550000D01*
X44650000Y-59550000D01*
X44716666Y-59583333D01*
X44750000Y-59616666D01*
X44783333Y-59683333D01*
X44783333Y-59950000D01*
X45116666Y-59250000D02*
X44416666Y-59250000D01*
X45116666Y-58916666D02*
X44416666Y-58916666D01*
X45116666Y-58516666D01*
X44416666Y-58516666D01*
X45116666Y-58183333D02*
X44416666Y-58183333D01*
X44416666Y-58016666D01*
X44450000Y-57916666D01*
X44516666Y-57850000D01*
X44583333Y-57816666D01*
X44716666Y-57783333D01*
X44816666Y-57783333D01*
X44950000Y-57816666D01*
X45016666Y-57850000D01*
X45083333Y-57916666D01*
X45116666Y-58016666D01*
X45116666Y-58183333D01*
X45116666Y-57150000D02*
X45116666Y-57483333D01*
X44416666Y-57483333D01*
X44750000Y-56916666D02*
X44750000Y-56683333D01*
X45116666Y-56583333D02*
X45116666Y-56916666D01*
X44416666Y-56916666D01*
X44416666Y-56583333D01*
X45116666Y-55350000D02*
X44783333Y-55583333D01*
X45116666Y-55750000D02*
X44416666Y-55750000D01*
X44416666Y-55483333D01*
X44450000Y-55416666D01*
X44483333Y-55383333D01*
X44550000Y-55350000D01*
X44650000Y-55350000D01*
X44716666Y-55383333D01*
X44750000Y-55416666D01*
X44783333Y-55483333D01*
X44783333Y-55750000D01*
X44750000Y-55050000D02*
X44750000Y-54816666D01*
X45116666Y-54716666D02*
X45116666Y-55050000D01*
X44416666Y-55050000D01*
X44416666Y-54716666D01*
X45116666Y-54083333D02*
X45116666Y-54416666D01*
X44416666Y-54416666D01*
X44916666Y-53883333D02*
X44916666Y-53550000D01*
X45116666Y-53950000D02*
X44416666Y-53716666D01*
X45116666Y-53483333D01*
X44783333Y-53116666D02*
X45116666Y-53116666D01*
X44416666Y-53350000D02*
X44783333Y-53116666D01*
X44416666Y-52883333D01*
X45116666Y-51750000D02*
X45116666Y-52150000D01*
X45116666Y-51950000D02*
X44416666Y-51950000D01*
X44516666Y-52016666D01*
X44583333Y-52083333D01*
X44616666Y-52150000D01*
X44416666Y-51316666D02*
X44416666Y-51250000D01*
X44450000Y-51183333D01*
X44483333Y-51150000D01*
X44550000Y-51116666D01*
X44683333Y-51083333D01*
X44850000Y-51083333D01*
X44983333Y-51116666D01*
X45050000Y-51150000D01*
X45083333Y-51183333D01*
X45116666Y-51250000D01*
X45116666Y-51316666D01*
X45083333Y-51383333D01*
X45050000Y-51416666D01*
X44983333Y-51450000D01*
X44850000Y-51483333D01*
X44683333Y-51483333D01*
X44550000Y-51450000D01*
X44483333Y-51416666D01*
X44450000Y-51383333D01*
X44416666Y-51316666D01*
X44916666Y-50816666D02*
X44916666Y-50483333D01*
X45116666Y-50883333D02*
X44416666Y-50650000D01*
X45116666Y-50416666D01*
X45116666Y-49650000D02*
X44416666Y-49650000D01*
X45116666Y-49250000D01*
X44416666Y-49250000D01*
X44916666Y-48950000D02*
X44916666Y-48616666D01*
X45116666Y-49016666D02*
X44416666Y-48783333D01*
X45116666Y-48550000D01*
X44416666Y-48383333D02*
X45116666Y-47916666D01*
X44416666Y-47916666D02*
X45116666Y-48383333D01*
D13*
X52264285Y-76457142D02*
X52264285Y-76290476D01*
X52526190Y-76219047D02*
X52526190Y-76457142D01*
X52026190Y-76457142D01*
X52026190Y-76219047D01*
D11*
X7311904Y-55729333D02*
X6511904Y-55729333D01*
X6511904Y-55462666D01*
X6550000Y-55396000D01*
X6588095Y-55362666D01*
X6664285Y-55329333D01*
X6778571Y-55329333D01*
X6854761Y-55362666D01*
X6892857Y-55396000D01*
X6930952Y-55462666D01*
X6930952Y-55729333D01*
X6511904Y-55096000D02*
X7311904Y-54929333D01*
X6740476Y-54796000D01*
X7311904Y-54662666D01*
X6511904Y-54496000D01*
X7311904Y-54229333D02*
X6511904Y-54229333D01*
X7083333Y-53996000D01*
X6511904Y-53762666D01*
X7311904Y-53762666D01*
D13*
X52526190Y-59200000D02*
X52026190Y-59200000D01*
X52026190Y-59080952D01*
X52050000Y-59009523D01*
X52097619Y-58961904D01*
X52145238Y-58938095D01*
X52240476Y-58914285D01*
X52311904Y-58914285D01*
X52407142Y-58938095D01*
X52454761Y-58961904D01*
X52502380Y-59009523D01*
X52526190Y-59080952D01*
X52526190Y-59200000D01*
X52526190Y-58700000D02*
X52026190Y-58700000D01*
X52526190Y-58176190D02*
X52288095Y-58342857D01*
X52526190Y-58461904D02*
X52026190Y-58461904D01*
X52026190Y-58271428D01*
X52050000Y-58223809D01*
X52073809Y-58200000D01*
X52121428Y-58176190D01*
X52192857Y-58176190D01*
X52240476Y-58200000D01*
X52264285Y-58223809D01*
X52288095Y-58271428D01*
X52288095Y-58461904D01*
X52264285Y-91557142D02*
X52264285Y-91390476D01*
X52526190Y-91319047D02*
X52526190Y-91557142D01*
X52026190Y-91557142D01*
X52026190Y-91319047D01*
D12*
X7442857Y-4202142D02*
X7404761Y-4249761D01*
X7290476Y-4297380D01*
X7214285Y-4297380D01*
X7100000Y-4249761D01*
X7023809Y-4154523D01*
X6985714Y-4059285D01*
X6947619Y-3868809D01*
X6947619Y-3725952D01*
X6985714Y-3535476D01*
X7023809Y-3440238D01*
X7100000Y-3345000D01*
X7214285Y-3297380D01*
X7290476Y-3297380D01*
X7404761Y-3345000D01*
X7442857Y-3392619D01*
X7785714Y-4297380D02*
X7785714Y-3297380D01*
X7785714Y-3773571D02*
X8242857Y-3773571D01*
X8242857Y-4297380D02*
X8242857Y-3297380D01*
X8585714Y-4011666D02*
X8966666Y-4011666D01*
X8509523Y-4297380D02*
X8776190Y-3297380D01*
X9042857Y-4297380D01*
X9766666Y-4297380D02*
X9500000Y-3821190D01*
X9309523Y-4297380D02*
X9309523Y-3297380D01*
X9614285Y-3297380D01*
X9690476Y-3345000D01*
X9728571Y-3392619D01*
X9766666Y-3487857D01*
X9766666Y-3630714D01*
X9728571Y-3725952D01*
X9690476Y-3773571D01*
X9614285Y-3821190D01*
X9309523Y-3821190D01*
X10528571Y-3345000D02*
X10452380Y-3297380D01*
X10338095Y-3297380D01*
X10223809Y-3345000D01*
X10147619Y-3440238D01*
X10109523Y-3535476D01*
X10071428Y-3725952D01*
X10071428Y-3868809D01*
X10109523Y-4059285D01*
X10147619Y-4154523D01*
X10223809Y-4249761D01*
X10338095Y-4297380D01*
X10414285Y-4297380D01*
X10528571Y-4249761D01*
X10566666Y-4202142D01*
X10566666Y-3868809D01*
X10414285Y-3868809D01*
X10909523Y-3773571D02*
X11176190Y-3773571D01*
X11290476Y-4297380D02*
X10909523Y-4297380D01*
X10909523Y-3297380D01*
X11290476Y-3297380D01*
X12242857Y-4297380D02*
X12242857Y-3297380D01*
X12547619Y-3297380D01*
X12623809Y-3345000D01*
X12661904Y-3392619D01*
X12700000Y-3487857D01*
X12700000Y-3630714D01*
X12661904Y-3725952D01*
X12623809Y-3773571D01*
X12547619Y-3821190D01*
X12242857Y-3821190D01*
X13042857Y-3297380D02*
X13042857Y-4106904D01*
X13080952Y-4202142D01*
X13119047Y-4249761D01*
X13195238Y-4297380D01*
X13347619Y-4297380D01*
X13423809Y-4249761D01*
X13461904Y-4202142D01*
X13500000Y-4106904D01*
X13500000Y-3297380D01*
X13880952Y-4297380D02*
X13880952Y-3297380D01*
X14147619Y-4011666D01*
X14414285Y-3297380D01*
X14414285Y-4297380D01*
X14795238Y-4297380D02*
X14795238Y-3297380D01*
X15100000Y-3297380D01*
X15176190Y-3345000D01*
X15214285Y-3392619D01*
X15252380Y-3487857D01*
X15252380Y-3630714D01*
X15214285Y-3725952D01*
X15176190Y-3773571D01*
X15100000Y-3821190D01*
X14795238Y-3821190D01*
X8566666Y-4907380D02*
X8719047Y-4907380D01*
X8795238Y-4955000D01*
X8871428Y-5050238D01*
X8909523Y-5240714D01*
X8909523Y-5574047D01*
X8871428Y-5764523D01*
X8795238Y-5859761D01*
X8719047Y-5907380D01*
X8566666Y-5907380D01*
X8490476Y-5859761D01*
X8414285Y-5764523D01*
X8376190Y-5574047D01*
X8376190Y-5240714D01*
X8414285Y-5050238D01*
X8490476Y-4955000D01*
X8566666Y-4907380D01*
X9138095Y-4907380D02*
X9404761Y-5907380D01*
X9671428Y-4907380D01*
X9938095Y-5383571D02*
X10204761Y-5383571D01*
X10319047Y-5907380D02*
X9938095Y-5907380D01*
X9938095Y-4907380D01*
X10319047Y-4907380D01*
X11119047Y-5907380D02*
X10852380Y-5431190D01*
X10661904Y-5907380D02*
X10661904Y-4907380D01*
X10966666Y-4907380D01*
X11042857Y-4955000D01*
X11080952Y-5002619D01*
X11119047Y-5097857D01*
X11119047Y-5240714D01*
X11080952Y-5335952D01*
X11042857Y-5383571D01*
X10966666Y-5431190D01*
X10661904Y-5431190D01*
X11919047Y-5907380D02*
X11652380Y-5431190D01*
X11461904Y-5907380D02*
X11461904Y-4907380D01*
X11766666Y-4907380D01*
X11842857Y-4955000D01*
X11880952Y-5002619D01*
X11919047Y-5097857D01*
X11919047Y-5240714D01*
X11880952Y-5335952D01*
X11842857Y-5383571D01*
X11766666Y-5431190D01*
X11461904Y-5431190D01*
X12261904Y-5907380D02*
X12261904Y-4907380D01*
X12642857Y-5907380D02*
X12642857Y-4907380D01*
X12833333Y-4907380D01*
X12947619Y-4955000D01*
X13023809Y-5050238D01*
X13061904Y-5145476D01*
X13100000Y-5335952D01*
X13100000Y-5478809D01*
X13061904Y-5669285D01*
X13023809Y-5764523D01*
X12947619Y-5859761D01*
X12833333Y-5907380D01*
X12642857Y-5907380D01*
X13442857Y-5383571D02*
X13709523Y-5383571D01*
X13823809Y-5907380D02*
X13442857Y-5907380D01*
X13442857Y-4907380D01*
X13823809Y-4907380D01*
D13*
X52026190Y-68995238D02*
X52026190Y-69233333D01*
X52264285Y-69257142D01*
X52240476Y-69233333D01*
X52216666Y-69185714D01*
X52216666Y-69066666D01*
X52240476Y-69019047D01*
X52264285Y-68995238D01*
X52311904Y-68971428D01*
X52430952Y-68971428D01*
X52478571Y-68995238D01*
X52502380Y-69019047D01*
X52526190Y-69066666D01*
X52526190Y-69185714D01*
X52502380Y-69233333D01*
X52478571Y-69257142D01*
X52026190Y-68828571D02*
X52526190Y-68661904D01*
X52026190Y-68495238D01*
X52050000Y-98719047D02*
X52026190Y-98766666D01*
X52026190Y-98838095D01*
X52050000Y-98909523D01*
X52097619Y-98957142D01*
X52145238Y-98980952D01*
X52240476Y-99004761D01*
X52311904Y-99004761D01*
X52407142Y-98980952D01*
X52454761Y-98957142D01*
X52502380Y-98909523D01*
X52526190Y-98838095D01*
X52526190Y-98790476D01*
X52502380Y-98719047D01*
X52478571Y-98695238D01*
X52311904Y-98695238D01*
X52311904Y-98790476D01*
D12*
X47855323Y-60321428D02*
X49125323Y-59474761D01*
X47855323Y-59474761D02*
X49125323Y-60321428D01*
X49125323Y-58023333D02*
X47855323Y-58023333D01*
X47855323Y-57720952D01*
X47915800Y-57539523D01*
X48036752Y-57418571D01*
X48157704Y-57358095D01*
X48399609Y-57297619D01*
X48581038Y-57297619D01*
X48822942Y-57358095D01*
X48943895Y-57418571D01*
X49064847Y-57539523D01*
X49125323Y-57720952D01*
X49125323Y-58023333D01*
X49125323Y-56027619D02*
X48520561Y-56450952D01*
X49125323Y-56753333D02*
X47855323Y-56753333D01*
X47855323Y-56269523D01*
X47915800Y-56148571D01*
X47976276Y-56088095D01*
X48097228Y-56027619D01*
X48278657Y-56027619D01*
X48399609Y-56088095D01*
X48460085Y-56148571D01*
X48520561Y-56269523D01*
X48520561Y-56753333D01*
X47855323Y-55664761D02*
X49125323Y-55241428D01*
X47855323Y-54818095D01*
D11*
X7336904Y-42383333D02*
X6536904Y-42383333D01*
X6536904Y-42116666D01*
X6575000Y-42050000D01*
X6613095Y-42016666D01*
X6689285Y-41983333D01*
X6803571Y-41983333D01*
X6879761Y-42016666D01*
X6917857Y-42050000D01*
X6955952Y-42116666D01*
X6955952Y-42383333D01*
X7336904Y-41316666D02*
X7336904Y-41716666D01*
X7336904Y-41516666D02*
X6536904Y-41516666D01*
X6651190Y-41583333D01*
X6727380Y-41650000D01*
X6765476Y-41716666D01*
X6536904Y-41083333D02*
X6536904Y-40616666D01*
X7336904Y-40916666D01*
X6536904Y-39716666D02*
X6727380Y-39716666D01*
X6651190Y-39883333D02*
X6727380Y-39716666D01*
X6651190Y-39550000D01*
X6879761Y-39816666D02*
X6727380Y-39716666D01*
X6879761Y-39616666D01*
D13*
X52478571Y-71647619D02*
X52502380Y-71671428D01*
X52526190Y-71742857D01*
X52526190Y-71790476D01*
X52502380Y-71861904D01*
X52454761Y-71909523D01*
X52407142Y-71933333D01*
X52311904Y-71957142D01*
X52240476Y-71957142D01*
X52145238Y-71933333D01*
X52097619Y-71909523D01*
X52050000Y-71861904D01*
X52026190Y-71790476D01*
X52026190Y-71742857D01*
X52050000Y-71671428D01*
X52073809Y-71647619D01*
X52526190Y-71195238D02*
X52526190Y-71433333D01*
X52026190Y-71433333D01*
X52526190Y-71028571D02*
X52026190Y-71028571D01*
X52526190Y-70742857D02*
X52240476Y-70957142D01*
X52026190Y-70742857D02*
X52311904Y-71028571D01*
X48626190Y-36197619D02*
X48126190Y-36197619D01*
X48126190Y-36007142D01*
X48150000Y-35959523D01*
X48173809Y-35935714D01*
X48221428Y-35911904D01*
X48292857Y-35911904D01*
X48340476Y-35935714D01*
X48364285Y-35959523D01*
X48388095Y-36007142D01*
X48388095Y-36197619D01*
X48626190Y-35435714D02*
X48626190Y-35721428D01*
X48626190Y-35578571D02*
X48126190Y-35578571D01*
X48197619Y-35626190D01*
X48245238Y-35673809D01*
X48269047Y-35721428D01*
X48126190Y-35269047D02*
X48126190Y-34935714D01*
X48626190Y-35150000D01*
X48126190Y-34673809D02*
X48245238Y-34673809D01*
X48197619Y-34792857D02*
X48245238Y-34673809D01*
X48197619Y-34554761D01*
X48340476Y-34745238D02*
X48245238Y-34673809D01*
X48340476Y-34602380D01*
D12*
X50309285Y-32060952D02*
X50309285Y-31637619D01*
X50974523Y-31456190D02*
X50974523Y-32060952D01*
X49704523Y-32060952D01*
X49704523Y-31456190D01*
X50914047Y-30972380D02*
X50974523Y-30790952D01*
X50974523Y-30488571D01*
X50914047Y-30367619D01*
X50853571Y-30307142D01*
X50732619Y-30246666D01*
X50611666Y-30246666D01*
X50490714Y-30307142D01*
X50430238Y-30367619D01*
X50369761Y-30488571D01*
X50309285Y-30730476D01*
X50248809Y-30851428D01*
X50188333Y-30911904D01*
X50067380Y-30972380D01*
X49946428Y-30972380D01*
X49825476Y-30911904D01*
X49765000Y-30851428D01*
X49704523Y-30730476D01*
X49704523Y-30428095D01*
X49765000Y-30246666D01*
X49704523Y-29883809D02*
X49704523Y-29158095D01*
X50974523Y-29520952D02*
X49704523Y-29520952D01*
X49704523Y-28492857D02*
X49704523Y-28250952D01*
X49765000Y-28130000D01*
X49885952Y-28009047D01*
X50127857Y-27948571D01*
X50551190Y-27948571D01*
X50793095Y-28009047D01*
X50914047Y-28130000D01*
X50974523Y-28250952D01*
X50974523Y-28492857D01*
X50914047Y-28613809D01*
X50793095Y-28734761D01*
X50551190Y-28795238D01*
X50127857Y-28795238D01*
X49885952Y-28734761D01*
X49765000Y-28613809D01*
X49704523Y-28492857D01*
X50974523Y-27404285D02*
X49704523Y-27404285D01*
X49704523Y-26920476D01*
X49765000Y-26799523D01*
X49825476Y-26739047D01*
X49946428Y-26678571D01*
X50127857Y-26678571D01*
X50248809Y-26739047D01*
X50309285Y-26799523D01*
X50369761Y-26920476D01*
X50369761Y-27404285D01*
D11*
X55163095Y-24170238D02*
X55125000Y-24132142D01*
X55086904Y-24055952D01*
X55086904Y-23865476D01*
X55125000Y-23789285D01*
X55163095Y-23751190D01*
X55239285Y-23713095D01*
X55315476Y-23713095D01*
X55429761Y-23751190D01*
X55886904Y-24208333D01*
X55886904Y-23713095D01*
X55353571Y-23027380D02*
X55886904Y-23027380D01*
X55048809Y-23217857D02*
X55620238Y-23408333D01*
X55620238Y-22913095D01*
X55086904Y-22722619D02*
X55886904Y-22455952D01*
X55086904Y-22189285D01*
X55048809Y-21351190D02*
X56077380Y-22036904D01*
X55086904Y-20703571D02*
X55086904Y-21084523D01*
X55467857Y-21122619D01*
X55429761Y-21084523D01*
X55391666Y-21008333D01*
X55391666Y-20817857D01*
X55429761Y-20741666D01*
X55467857Y-20703571D01*
X55544047Y-20665476D01*
X55734523Y-20665476D01*
X55810714Y-20703571D01*
X55848809Y-20741666D01*
X55886904Y-20817857D01*
X55886904Y-21008333D01*
X55848809Y-21084523D01*
X55810714Y-21122619D01*
X55658333Y-20360714D02*
X55658333Y-19979761D01*
X55886904Y-20436904D02*
X55086904Y-20170238D01*
X55886904Y-19903571D01*
D13*
X52026190Y-84095238D02*
X52026190Y-84333333D01*
X52264285Y-84357142D01*
X52240476Y-84333333D01*
X52216666Y-84285714D01*
X52216666Y-84166666D01*
X52240476Y-84119047D01*
X52264285Y-84095238D01*
X52311904Y-84071428D01*
X52430952Y-84071428D01*
X52478571Y-84095238D01*
X52502380Y-84119047D01*
X52526190Y-84166666D01*
X52526190Y-84285714D01*
X52502380Y-84333333D01*
X52478571Y-84357142D01*
X52026190Y-83928571D02*
X52526190Y-83761904D01*
X52026190Y-83595238D01*
D12*
X42654523Y-79670714D02*
X43924523Y-78824047D01*
X42654523Y-78824047D02*
X43924523Y-79670714D01*
X43259285Y-77372619D02*
X43259285Y-76949285D01*
X43924523Y-76767857D02*
X43924523Y-77372619D01*
X42654523Y-77372619D01*
X42654523Y-76767857D01*
X43924523Y-76223571D02*
X42654523Y-76223571D01*
X43924523Y-75497857D01*
X42654523Y-75497857D01*
X43924523Y-74893095D02*
X42654523Y-74893095D01*
X42654523Y-74590714D01*
X42715000Y-74409285D01*
X42835952Y-74288333D01*
X42956904Y-74227857D01*
X43198809Y-74167380D01*
X43380238Y-74167380D01*
X43622142Y-74227857D01*
X43743095Y-74288333D01*
X43864047Y-74409285D01*
X43924523Y-74590714D01*
X43924523Y-74893095D01*
X43864047Y-73683571D02*
X43924523Y-73502142D01*
X43924523Y-73199761D01*
X43864047Y-73078809D01*
X43803571Y-73018333D01*
X43682619Y-72957857D01*
X43561666Y-72957857D01*
X43440714Y-73018333D01*
X43380238Y-73078809D01*
X43319761Y-73199761D01*
X43259285Y-73441666D01*
X43198809Y-73562619D01*
X43138333Y-73623095D01*
X43017380Y-73683571D01*
X42896428Y-73683571D01*
X42775476Y-73623095D01*
X42715000Y-73562619D01*
X42654523Y-73441666D01*
X42654523Y-73139285D01*
X42715000Y-72957857D01*
X42654523Y-72595000D02*
X42654523Y-71869285D01*
X43924523Y-72232142D02*
X42654523Y-72232142D01*
X42654523Y-71204047D02*
X42654523Y-70962142D01*
X42715000Y-70841190D01*
X42835952Y-70720238D01*
X43077857Y-70659761D01*
X43501190Y-70659761D01*
X43743095Y-70720238D01*
X43864047Y-70841190D01*
X43924523Y-70962142D01*
X43924523Y-71204047D01*
X43864047Y-71325000D01*
X43743095Y-71445952D01*
X43501190Y-71506428D01*
X43077857Y-71506428D01*
X42835952Y-71445952D01*
X42715000Y-71325000D01*
X42654523Y-71204047D01*
X43924523Y-70115476D02*
X42654523Y-70115476D01*
X42654523Y-69631666D01*
X42715000Y-69510714D01*
X42775476Y-69450238D01*
X42896428Y-69389761D01*
X43077857Y-69389761D01*
X43198809Y-69450238D01*
X43259285Y-69510714D01*
X43319761Y-69631666D01*
X43319761Y-70115476D01*
D13*
X52526190Y-31292857D02*
X52026190Y-31292857D01*
X52526190Y-31007142D01*
X52026190Y-31007142D01*
X52478571Y-30483333D02*
X52502380Y-30507142D01*
X52526190Y-30578571D01*
X52526190Y-30626190D01*
X52502380Y-30697619D01*
X52454761Y-30745238D01*
X52407142Y-30769047D01*
X52311904Y-30792857D01*
X52240476Y-30792857D01*
X52145238Y-30769047D01*
X52097619Y-30745238D01*
X52050000Y-30697619D01*
X52026190Y-30626190D01*
X52026190Y-30578571D01*
X52050000Y-30507142D01*
X52073809Y-30483333D01*
X52526190Y-102173809D02*
X52288095Y-102340476D01*
X52526190Y-102459523D02*
X52026190Y-102459523D01*
X52026190Y-102269047D01*
X52050000Y-102221428D01*
X52073809Y-102197619D01*
X52121428Y-102173809D01*
X52192857Y-102173809D01*
X52240476Y-102197619D01*
X52264285Y-102221428D01*
X52288095Y-102269047D01*
X52288095Y-102459523D01*
X52526190Y-101721428D02*
X52526190Y-101959523D01*
X52026190Y-101959523D01*
X52526190Y-101292857D02*
X52526190Y-101578571D01*
X52526190Y-101435714D02*
X52026190Y-101435714D01*
X52097619Y-101483333D01*
X52145238Y-101530952D01*
X52169047Y-101578571D01*
X52002380Y-100721428D02*
X52645238Y-101150000D01*
X52264285Y-100554761D02*
X52264285Y-100388095D01*
X52526190Y-100316666D02*
X52526190Y-100554761D01*
X52026190Y-100554761D01*
X52026190Y-100316666D01*
X52526190Y-104235714D02*
X52288095Y-104402380D01*
X52526190Y-104521428D02*
X52026190Y-104521428D01*
X52026190Y-104330952D01*
X52050000Y-104283333D01*
X52073809Y-104259523D01*
X52121428Y-104235714D01*
X52192857Y-104235714D01*
X52240476Y-104259523D01*
X52264285Y-104283333D01*
X52288095Y-104330952D01*
X52288095Y-104521428D01*
X52526190Y-103783333D02*
X52526190Y-104021428D01*
X52026190Y-104021428D01*
X52073809Y-103640476D02*
X52050000Y-103616666D01*
X52026190Y-103569047D01*
X52026190Y-103450000D01*
X52050000Y-103402380D01*
X52073809Y-103378571D01*
X52121428Y-103354761D01*
X52169047Y-103354761D01*
X52240476Y-103378571D01*
X52526190Y-103664285D01*
X52526190Y-103354761D01*
D15*
%TO.C,D15*%
X49981428Y-53171428D02*
X49981428Y-52571428D01*
X50124285Y-52571428D01*
X50210000Y-52600000D01*
X50267142Y-52657142D01*
X50295714Y-52714285D01*
X50324285Y-52828571D01*
X50324285Y-52914285D01*
X50295714Y-53028571D01*
X50267142Y-53085714D01*
X50210000Y-53142857D01*
X50124285Y-53171428D01*
X49981428Y-53171428D01*
X50895714Y-53171428D02*
X50552857Y-53171428D01*
X50724285Y-53171428D02*
X50724285Y-52571428D01*
X50667142Y-52657142D01*
X50610000Y-52714285D01*
X50552857Y-52742857D01*
X51438571Y-52571428D02*
X51152857Y-52571428D01*
X51124285Y-52857142D01*
X51152857Y-52828571D01*
X51210000Y-52800000D01*
X51352857Y-52800000D01*
X51410000Y-52828571D01*
X51438571Y-52857142D01*
X51467142Y-52914285D01*
X51467142Y-53057142D01*
X51438571Y-53114285D01*
X51410000Y-53142857D01*
X51352857Y-53171428D01*
X51210000Y-53171428D01*
X51152857Y-53142857D01*
X51124285Y-53114285D01*
D11*
%TO.C,C10*%
X23475000Y-43275000D02*
X23441666Y-43308333D01*
X23341666Y-43341666D01*
X23275000Y-43341666D01*
X23175000Y-43308333D01*
X23108333Y-43241666D01*
X23075000Y-43175000D01*
X23041666Y-43041666D01*
X23041666Y-42941666D01*
X23075000Y-42808333D01*
X23108333Y-42741666D01*
X23175000Y-42675000D01*
X23275000Y-42641666D01*
X23341666Y-42641666D01*
X23441666Y-42675000D01*
X23475000Y-42708333D01*
X24141666Y-43341666D02*
X23741666Y-43341666D01*
X23941666Y-43341666D02*
X23941666Y-42641666D01*
X23875000Y-42741666D01*
X23808333Y-42808333D01*
X23741666Y-42841666D01*
X24575000Y-42641666D02*
X24641666Y-42641666D01*
X24708333Y-42675000D01*
X24741666Y-42708333D01*
X24775000Y-42775000D01*
X24808333Y-42908333D01*
X24808333Y-43075000D01*
X24775000Y-43208333D01*
X24741666Y-43275000D01*
X24708333Y-43308333D01*
X24641666Y-43341666D01*
X24575000Y-43341666D01*
X24508333Y-43308333D01*
X24475000Y-43275000D01*
X24441666Y-43208333D01*
X24408333Y-43075000D01*
X24408333Y-42908333D01*
X24441666Y-42775000D01*
X24475000Y-42708333D01*
X24508333Y-42675000D01*
X24575000Y-42641666D01*
%TO.C,C1*%
X20033333Y-20350000D02*
X20000000Y-20383333D01*
X19900000Y-20416666D01*
X19833333Y-20416666D01*
X19733333Y-20383333D01*
X19666666Y-20316666D01*
X19633333Y-20250000D01*
X19600000Y-20116666D01*
X19600000Y-20016666D01*
X19633333Y-19883333D01*
X19666666Y-19816666D01*
X19733333Y-19750000D01*
X19833333Y-19716666D01*
X19900000Y-19716666D01*
X20000000Y-19750000D01*
X20033333Y-19783333D01*
X20700000Y-20416666D02*
X20300000Y-20416666D01*
X20500000Y-20416666D02*
X20500000Y-19716666D01*
X20433333Y-19816666D01*
X20366666Y-19883333D01*
X20300000Y-19916666D01*
D15*
%TO.C,D13*%
X49961428Y-58191428D02*
X49961428Y-57591428D01*
X50104285Y-57591428D01*
X50190000Y-57620000D01*
X50247142Y-57677142D01*
X50275714Y-57734285D01*
X50304285Y-57848571D01*
X50304285Y-57934285D01*
X50275714Y-58048571D01*
X50247142Y-58105714D01*
X50190000Y-58162857D01*
X50104285Y-58191428D01*
X49961428Y-58191428D01*
X50875714Y-58191428D02*
X50532857Y-58191428D01*
X50704285Y-58191428D02*
X50704285Y-57591428D01*
X50647142Y-57677142D01*
X50590000Y-57734285D01*
X50532857Y-57762857D01*
X51075714Y-57591428D02*
X51447142Y-57591428D01*
X51247142Y-57820000D01*
X51332857Y-57820000D01*
X51390000Y-57848571D01*
X51418571Y-57877142D01*
X51447142Y-57934285D01*
X51447142Y-58077142D01*
X51418571Y-58134285D01*
X51390000Y-58162857D01*
X51332857Y-58191428D01*
X51161428Y-58191428D01*
X51104285Y-58162857D01*
X51075714Y-58134285D01*
D11*
%TO.C,J12*%
X39383333Y-103166666D02*
X39383333Y-103666666D01*
X39350000Y-103766666D01*
X39283333Y-103833333D01*
X39183333Y-103866666D01*
X39116666Y-103866666D01*
X40083333Y-103866666D02*
X39683333Y-103866666D01*
X39883333Y-103866666D02*
X39883333Y-103166666D01*
X39816666Y-103266666D01*
X39750000Y-103333333D01*
X39683333Y-103366666D01*
X40350000Y-103233333D02*
X40383333Y-103200000D01*
X40450000Y-103166666D01*
X40616666Y-103166666D01*
X40683333Y-103200000D01*
X40716666Y-103233333D01*
X40750000Y-103300000D01*
X40750000Y-103366666D01*
X40716666Y-103466666D01*
X40316666Y-103866666D01*
X40750000Y-103866666D01*
%TO.C,RN1*%
X15326666Y-68696666D02*
X15093333Y-68363333D01*
X14926666Y-68696666D02*
X14926666Y-67996666D01*
X15193333Y-67996666D01*
X15260000Y-68030000D01*
X15293333Y-68063333D01*
X15326666Y-68130000D01*
X15326666Y-68230000D01*
X15293333Y-68296666D01*
X15260000Y-68330000D01*
X15193333Y-68363333D01*
X14926666Y-68363333D01*
X15626666Y-68696666D02*
X15626666Y-67996666D01*
X16026666Y-68696666D01*
X16026666Y-67996666D01*
X16726666Y-68696666D02*
X16326666Y-68696666D01*
X16526666Y-68696666D02*
X16526666Y-67996666D01*
X16460000Y-68096666D01*
X16393333Y-68163333D01*
X16326666Y-68196666D01*
%TO.C,R13*%
X13850000Y-52716666D02*
X13616666Y-52383333D01*
X13450000Y-52716666D02*
X13450000Y-52016666D01*
X13716666Y-52016666D01*
X13783333Y-52050000D01*
X13816666Y-52083333D01*
X13850000Y-52150000D01*
X13850000Y-52250000D01*
X13816666Y-52316666D01*
X13783333Y-52350000D01*
X13716666Y-52383333D01*
X13450000Y-52383333D01*
X14516666Y-52716666D02*
X14116666Y-52716666D01*
X14316666Y-52716666D02*
X14316666Y-52016666D01*
X14250000Y-52116666D01*
X14183333Y-52183333D01*
X14116666Y-52216666D01*
X14750000Y-52016666D02*
X15183333Y-52016666D01*
X14950000Y-52283333D01*
X15050000Y-52283333D01*
X15116666Y-52316666D01*
X15150000Y-52350000D01*
X15183333Y-52416666D01*
X15183333Y-52583333D01*
X15150000Y-52650000D01*
X15116666Y-52683333D01*
X15050000Y-52716666D01*
X14850000Y-52716666D01*
X14783333Y-52683333D01*
X14750000Y-52650000D01*
%TO.C,R6*%
X27083333Y-20666666D02*
X26850000Y-20333333D01*
X26683333Y-20666666D02*
X26683333Y-19966666D01*
X26950000Y-19966666D01*
X27016666Y-20000000D01*
X27050000Y-20033333D01*
X27083333Y-20100000D01*
X27083333Y-20200000D01*
X27050000Y-20266666D01*
X27016666Y-20300000D01*
X26950000Y-20333333D01*
X26683333Y-20333333D01*
X27683333Y-19966666D02*
X27550000Y-19966666D01*
X27483333Y-20000000D01*
X27450000Y-20033333D01*
X27383333Y-20133333D01*
X27350000Y-20266666D01*
X27350000Y-20533333D01*
X27383333Y-20600000D01*
X27416666Y-20633333D01*
X27483333Y-20666666D01*
X27616666Y-20666666D01*
X27683333Y-20633333D01*
X27716666Y-20600000D01*
X27750000Y-20533333D01*
X27750000Y-20366666D01*
X27716666Y-20300000D01*
X27683333Y-20266666D01*
X27616666Y-20233333D01*
X27483333Y-20233333D01*
X27416666Y-20266666D01*
X27383333Y-20300000D01*
X27350000Y-20366666D01*
%TO.C,JP4*%
X8666666Y-8766666D02*
X8666666Y-9266666D01*
X8633333Y-9366666D01*
X8566666Y-9433333D01*
X8466666Y-9466666D01*
X8400000Y-9466666D01*
X9000000Y-9466666D02*
X9000000Y-8766666D01*
X9266666Y-8766666D01*
X9333333Y-8800000D01*
X9366666Y-8833333D01*
X9400000Y-8900000D01*
X9400000Y-9000000D01*
X9366666Y-9066666D01*
X9333333Y-9100000D01*
X9266666Y-9133333D01*
X9000000Y-9133333D01*
X10000000Y-9000000D02*
X10000000Y-9466666D01*
X9833333Y-8733333D02*
X9666666Y-9233333D01*
X10100000Y-9233333D01*
%TO.C,J3*%
X55415666Y-7168666D02*
X55415666Y-7668666D01*
X55382333Y-7768666D01*
X55315666Y-7835333D01*
X55215666Y-7868666D01*
X55149000Y-7868666D01*
X55682333Y-7168666D02*
X56115666Y-7168666D01*
X55882333Y-7435333D01*
X55982333Y-7435333D01*
X56049000Y-7468666D01*
X56082333Y-7502000D01*
X56115666Y-7568666D01*
X56115666Y-7735333D01*
X56082333Y-7802000D01*
X56049000Y-7835333D01*
X55982333Y-7868666D01*
X55782333Y-7868666D01*
X55715666Y-7835333D01*
X55682333Y-7802000D01*
%TO.C,J2*%
X26166666Y-8436666D02*
X26166666Y-8936666D01*
X26133333Y-9036666D01*
X26066666Y-9103333D01*
X25966666Y-9136666D01*
X25900000Y-9136666D01*
X26466666Y-8503333D02*
X26500000Y-8470000D01*
X26566666Y-8436666D01*
X26733333Y-8436666D01*
X26800000Y-8470000D01*
X26833333Y-8503333D01*
X26866666Y-8570000D01*
X26866666Y-8636666D01*
X26833333Y-8736666D01*
X26433333Y-9136666D01*
X26866666Y-9136666D01*
D15*
%TO.C,D8*%
X50337142Y-108346428D02*
X50337142Y-107746428D01*
X50480000Y-107746428D01*
X50565714Y-107775000D01*
X50622857Y-107832142D01*
X50651428Y-107889285D01*
X50680000Y-108003571D01*
X50680000Y-108089285D01*
X50651428Y-108203571D01*
X50622857Y-108260714D01*
X50565714Y-108317857D01*
X50480000Y-108346428D01*
X50337142Y-108346428D01*
X51022857Y-108003571D02*
X50965714Y-107975000D01*
X50937142Y-107946428D01*
X50908571Y-107889285D01*
X50908571Y-107860714D01*
X50937142Y-107803571D01*
X50965714Y-107775000D01*
X51022857Y-107746428D01*
X51137142Y-107746428D01*
X51194285Y-107775000D01*
X51222857Y-107803571D01*
X51251428Y-107860714D01*
X51251428Y-107889285D01*
X51222857Y-107946428D01*
X51194285Y-107975000D01*
X51137142Y-108003571D01*
X51022857Y-108003571D01*
X50965714Y-108032142D01*
X50937142Y-108060714D01*
X50908571Y-108117857D01*
X50908571Y-108232142D01*
X50937142Y-108289285D01*
X50965714Y-108317857D01*
X51022857Y-108346428D01*
X51137142Y-108346428D01*
X51194285Y-108317857D01*
X51222857Y-108289285D01*
X51251428Y-108232142D01*
X51251428Y-108117857D01*
X51222857Y-108060714D01*
X51194285Y-108032142D01*
X51137142Y-108003571D01*
D11*
%TO.C,RV1*%
X20983333Y-59116666D02*
X20750000Y-58783333D01*
X20583333Y-59116666D02*
X20583333Y-58416666D01*
X20850000Y-58416666D01*
X20916666Y-58450000D01*
X20950000Y-58483333D01*
X20983333Y-58550000D01*
X20983333Y-58650000D01*
X20950000Y-58716666D01*
X20916666Y-58750000D01*
X20850000Y-58783333D01*
X20583333Y-58783333D01*
X21183333Y-58416666D02*
X21416666Y-59116666D01*
X21650000Y-58416666D01*
X22250000Y-59116666D02*
X21850000Y-59116666D01*
X22050000Y-59116666D02*
X22050000Y-58416666D01*
X21983333Y-58516666D01*
X21916666Y-58583333D01*
X21850000Y-58616666D01*
%TO.C,J14*%
X52632233Y-33777466D02*
X52632233Y-34277466D01*
X52598900Y-34377466D01*
X52532233Y-34444133D01*
X52432233Y-34477466D01*
X52365566Y-34477466D01*
X53332233Y-34477466D02*
X52932233Y-34477466D01*
X53132233Y-34477466D02*
X53132233Y-33777466D01*
X53065566Y-33877466D01*
X52998900Y-33944133D01*
X52932233Y-33977466D01*
X53932233Y-34010800D02*
X53932233Y-34477466D01*
X53765566Y-33744133D02*
X53598900Y-34244133D01*
X54032233Y-34244133D01*
%TO.C,R16*%
X23500000Y-44366666D02*
X23266666Y-44033333D01*
X23100000Y-44366666D02*
X23100000Y-43666666D01*
X23366666Y-43666666D01*
X23433333Y-43700000D01*
X23466666Y-43733333D01*
X23500000Y-43800000D01*
X23500000Y-43900000D01*
X23466666Y-43966666D01*
X23433333Y-44000000D01*
X23366666Y-44033333D01*
X23100000Y-44033333D01*
X24166666Y-44366666D02*
X23766666Y-44366666D01*
X23966666Y-44366666D02*
X23966666Y-43666666D01*
X23900000Y-43766666D01*
X23833333Y-43833333D01*
X23766666Y-43866666D01*
X24766666Y-43666666D02*
X24633333Y-43666666D01*
X24566666Y-43700000D01*
X24533333Y-43733333D01*
X24466666Y-43833333D01*
X24433333Y-43966666D01*
X24433333Y-44233333D01*
X24466666Y-44300000D01*
X24500000Y-44333333D01*
X24566666Y-44366666D01*
X24700000Y-44366666D01*
X24766666Y-44333333D01*
X24800000Y-44300000D01*
X24833333Y-44233333D01*
X24833333Y-44066666D01*
X24800000Y-44000000D01*
X24766666Y-43966666D01*
X24700000Y-43933333D01*
X24566666Y-43933333D01*
X24500000Y-43966666D01*
X24466666Y-44000000D01*
X24433333Y-44066666D01*
%TO.C,U5*%
X18416666Y-86516666D02*
X18416666Y-87083333D01*
X18450000Y-87150000D01*
X18483333Y-87183333D01*
X18550000Y-87216666D01*
X18683333Y-87216666D01*
X18750000Y-87183333D01*
X18783333Y-87150000D01*
X18816666Y-87083333D01*
X18816666Y-86516666D01*
X19483333Y-86516666D02*
X19150000Y-86516666D01*
X19116666Y-86850000D01*
X19150000Y-86816666D01*
X19216666Y-86783333D01*
X19383333Y-86783333D01*
X19450000Y-86816666D01*
X19483333Y-86850000D01*
X19516666Y-86916666D01*
X19516666Y-87083333D01*
X19483333Y-87150000D01*
X19450000Y-87183333D01*
X19383333Y-87216666D01*
X19216666Y-87216666D01*
X19150000Y-87183333D01*
X19116666Y-87150000D01*
D15*
%TO.C,D14*%
X49961428Y-55641428D02*
X49961428Y-55041428D01*
X50104285Y-55041428D01*
X50190000Y-55070000D01*
X50247142Y-55127142D01*
X50275714Y-55184285D01*
X50304285Y-55298571D01*
X50304285Y-55384285D01*
X50275714Y-55498571D01*
X50247142Y-55555714D01*
X50190000Y-55612857D01*
X50104285Y-55641428D01*
X49961428Y-55641428D01*
X50875714Y-55641428D02*
X50532857Y-55641428D01*
X50704285Y-55641428D02*
X50704285Y-55041428D01*
X50647142Y-55127142D01*
X50590000Y-55184285D01*
X50532857Y-55212857D01*
X51390000Y-55241428D02*
X51390000Y-55641428D01*
X51247142Y-55012857D02*
X51104285Y-55441428D01*
X51475714Y-55441428D01*
D11*
%TO.C,RN6*%
X47066666Y-67441666D02*
X46833333Y-67108333D01*
X46666666Y-67441666D02*
X46666666Y-66741666D01*
X46933333Y-66741666D01*
X47000000Y-66775000D01*
X47033333Y-66808333D01*
X47066666Y-66875000D01*
X47066666Y-66975000D01*
X47033333Y-67041666D01*
X47000000Y-67075000D01*
X46933333Y-67108333D01*
X46666666Y-67108333D01*
X47366666Y-67441666D02*
X47366666Y-66741666D01*
X47766666Y-67441666D01*
X47766666Y-66741666D01*
X48400000Y-66741666D02*
X48266666Y-66741666D01*
X48200000Y-66775000D01*
X48166666Y-66808333D01*
X48100000Y-66908333D01*
X48066666Y-67041666D01*
X48066666Y-67308333D01*
X48100000Y-67375000D01*
X48133333Y-67408333D01*
X48200000Y-67441666D01*
X48333333Y-67441666D01*
X48400000Y-67408333D01*
X48433333Y-67375000D01*
X48466666Y-67308333D01*
X48466666Y-67141666D01*
X48433333Y-67075000D01*
X48400000Y-67041666D01*
X48333333Y-67008333D01*
X48200000Y-67008333D01*
X48133333Y-67041666D01*
X48100000Y-67075000D01*
X48066666Y-67141666D01*
%TO.C,U1*%
X18016666Y-43966666D02*
X18016666Y-44533333D01*
X18050000Y-44600000D01*
X18083333Y-44633333D01*
X18150000Y-44666666D01*
X18283333Y-44666666D01*
X18350000Y-44633333D01*
X18383333Y-44600000D01*
X18416666Y-44533333D01*
X18416666Y-43966666D01*
X19116666Y-44666666D02*
X18716666Y-44666666D01*
X18916666Y-44666666D02*
X18916666Y-43966666D01*
X18850000Y-44066666D01*
X18783333Y-44133333D01*
X18716666Y-44166666D01*
%TO.C,R7*%
X30908333Y-17866666D02*
X30675000Y-17533333D01*
X30508333Y-17866666D02*
X30508333Y-17166666D01*
X30775000Y-17166666D01*
X30841666Y-17200000D01*
X30875000Y-17233333D01*
X30908333Y-17300000D01*
X30908333Y-17400000D01*
X30875000Y-17466666D01*
X30841666Y-17500000D01*
X30775000Y-17533333D01*
X30508333Y-17533333D01*
X31141666Y-17166666D02*
X31608333Y-17166666D01*
X31308333Y-17866666D01*
D15*
%TO.C,D11*%
X50051428Y-100846428D02*
X50051428Y-100246428D01*
X50194285Y-100246428D01*
X50280000Y-100275000D01*
X50337142Y-100332142D01*
X50365714Y-100389285D01*
X50394285Y-100503571D01*
X50394285Y-100589285D01*
X50365714Y-100703571D01*
X50337142Y-100760714D01*
X50280000Y-100817857D01*
X50194285Y-100846428D01*
X50051428Y-100846428D01*
X50965714Y-100846428D02*
X50622857Y-100846428D01*
X50794285Y-100846428D02*
X50794285Y-100246428D01*
X50737142Y-100332142D01*
X50680000Y-100389285D01*
X50622857Y-100417857D01*
X51537142Y-100846428D02*
X51194285Y-100846428D01*
X51365714Y-100846428D02*
X51365714Y-100246428D01*
X51308571Y-100332142D01*
X51251428Y-100389285D01*
X51194285Y-100417857D01*
D11*
%TO.C,R12*%
X20950000Y-33816666D02*
X20716666Y-33483333D01*
X20550000Y-33816666D02*
X20550000Y-33116666D01*
X20816666Y-33116666D01*
X20883333Y-33150000D01*
X20916666Y-33183333D01*
X20950000Y-33250000D01*
X20950000Y-33350000D01*
X20916666Y-33416666D01*
X20883333Y-33450000D01*
X20816666Y-33483333D01*
X20550000Y-33483333D01*
X21616666Y-33816666D02*
X21216666Y-33816666D01*
X21416666Y-33816666D02*
X21416666Y-33116666D01*
X21350000Y-33216666D01*
X21283333Y-33283333D01*
X21216666Y-33316666D01*
X21883333Y-33183333D02*
X21916666Y-33150000D01*
X21983333Y-33116666D01*
X22150000Y-33116666D01*
X22216666Y-33150000D01*
X22250000Y-33183333D01*
X22283333Y-33250000D01*
X22283333Y-33316666D01*
X22250000Y-33416666D01*
X21850000Y-33816666D01*
X22283333Y-33816666D01*
%TO.C,R5*%
X31208333Y-13016666D02*
X30975000Y-12683333D01*
X30808333Y-13016666D02*
X30808333Y-12316666D01*
X31075000Y-12316666D01*
X31141666Y-12350000D01*
X31175000Y-12383333D01*
X31208333Y-12450000D01*
X31208333Y-12550000D01*
X31175000Y-12616666D01*
X31141666Y-12650000D01*
X31075000Y-12683333D01*
X30808333Y-12683333D01*
X31841666Y-12316666D02*
X31508333Y-12316666D01*
X31475000Y-12650000D01*
X31508333Y-12616666D01*
X31575000Y-12583333D01*
X31741666Y-12583333D01*
X31808333Y-12616666D01*
X31841666Y-12650000D01*
X31875000Y-12716666D01*
X31875000Y-12883333D01*
X31841666Y-12950000D01*
X31808333Y-12983333D01*
X31741666Y-13016666D01*
X31575000Y-13016666D01*
X31508333Y-12983333D01*
X31475000Y-12950000D01*
D15*
%TO.C,D21*%
X49961428Y-88361428D02*
X49961428Y-87761428D01*
X50104285Y-87761428D01*
X50190000Y-87790000D01*
X50247142Y-87847142D01*
X50275714Y-87904285D01*
X50304285Y-88018571D01*
X50304285Y-88104285D01*
X50275714Y-88218571D01*
X50247142Y-88275714D01*
X50190000Y-88332857D01*
X50104285Y-88361428D01*
X49961428Y-88361428D01*
X50532857Y-87818571D02*
X50561428Y-87790000D01*
X50618571Y-87761428D01*
X50761428Y-87761428D01*
X50818571Y-87790000D01*
X50847142Y-87818571D01*
X50875714Y-87875714D01*
X50875714Y-87932857D01*
X50847142Y-88018571D01*
X50504285Y-88361428D01*
X50875714Y-88361428D01*
X51447142Y-88361428D02*
X51104285Y-88361428D01*
X51275714Y-88361428D02*
X51275714Y-87761428D01*
X51218571Y-87847142D01*
X51161428Y-87904285D01*
X51104285Y-87932857D01*
D11*
%TO.C,JP1*%
X29485666Y-95041666D02*
X29485666Y-95541666D01*
X29452333Y-95641666D01*
X29385666Y-95708333D01*
X29285666Y-95741666D01*
X29219000Y-95741666D01*
X29819000Y-95741666D02*
X29819000Y-95041666D01*
X30085666Y-95041666D01*
X30152333Y-95075000D01*
X30185666Y-95108333D01*
X30219000Y-95175000D01*
X30219000Y-95275000D01*
X30185666Y-95341666D01*
X30152333Y-95375000D01*
X30085666Y-95408333D01*
X29819000Y-95408333D01*
X30885666Y-95741666D02*
X30485666Y-95741666D01*
X30685666Y-95741666D02*
X30685666Y-95041666D01*
X30619000Y-95141666D01*
X30552333Y-95208333D01*
X30485666Y-95241666D01*
%TO.C,C11*%
X17180000Y-50880000D02*
X17213333Y-50913333D01*
X17246666Y-51013333D01*
X17246666Y-51080000D01*
X17213333Y-51180000D01*
X17146666Y-51246666D01*
X17080000Y-51280000D01*
X16946666Y-51313333D01*
X16846666Y-51313333D01*
X16713333Y-51280000D01*
X16646666Y-51246666D01*
X16580000Y-51180000D01*
X16546666Y-51080000D01*
X16546666Y-51013333D01*
X16580000Y-50913333D01*
X16613333Y-50880000D01*
X17246666Y-50213333D02*
X17246666Y-50613333D01*
X17246666Y-50413333D02*
X16546666Y-50413333D01*
X16646666Y-50480000D01*
X16713333Y-50546666D01*
X16746666Y-50613333D01*
X17246666Y-49546666D02*
X17246666Y-49946666D01*
X17246666Y-49746666D02*
X16546666Y-49746666D01*
X16646666Y-49813333D01*
X16713333Y-49880000D01*
X16746666Y-49946666D01*
%TO.C,R14*%
X3050000Y-59241666D02*
X2816666Y-58908333D01*
X2650000Y-59241666D02*
X2650000Y-58541666D01*
X2916666Y-58541666D01*
X2983333Y-58575000D01*
X3016666Y-58608333D01*
X3050000Y-58675000D01*
X3050000Y-58775000D01*
X3016666Y-58841666D01*
X2983333Y-58875000D01*
X2916666Y-58908333D01*
X2650000Y-58908333D01*
X3716666Y-59241666D02*
X3316666Y-59241666D01*
X3516666Y-59241666D02*
X3516666Y-58541666D01*
X3450000Y-58641666D01*
X3383333Y-58708333D01*
X3316666Y-58741666D01*
X4316666Y-58775000D02*
X4316666Y-59241666D01*
X4150000Y-58508333D02*
X3983333Y-59008333D01*
X4416666Y-59008333D01*
%TO.C,L1*%
X41883333Y-39191666D02*
X41550000Y-39191666D01*
X41550000Y-38491666D01*
X42483333Y-39191666D02*
X42083333Y-39191666D01*
X42283333Y-39191666D02*
X42283333Y-38491666D01*
X42216666Y-38591666D01*
X42150000Y-38658333D01*
X42083333Y-38691666D01*
%TO.C,J16*%
X32336666Y-117900666D02*
X32836666Y-117900666D01*
X32936666Y-117934000D01*
X33003333Y-118000666D01*
X33036666Y-118100666D01*
X33036666Y-118167333D01*
X33036666Y-117200666D02*
X33036666Y-117600666D01*
X33036666Y-117400666D02*
X32336666Y-117400666D01*
X32436666Y-117467333D01*
X32503333Y-117534000D01*
X32536666Y-117600666D01*
X32336666Y-116600666D02*
X32336666Y-116734000D01*
X32370000Y-116800666D01*
X32403333Y-116834000D01*
X32503333Y-116900666D01*
X32636666Y-116934000D01*
X32903333Y-116934000D01*
X32970000Y-116900666D01*
X33003333Y-116867333D01*
X33036666Y-116800666D01*
X33036666Y-116667333D01*
X33003333Y-116600666D01*
X32970000Y-116567333D01*
X32903333Y-116534000D01*
X32736666Y-116534000D01*
X32670000Y-116567333D01*
X32636666Y-116600666D01*
X32603333Y-116667333D01*
X32603333Y-116800666D01*
X32636666Y-116867333D01*
X32670000Y-116900666D01*
X32736666Y-116934000D01*
%TO.C,J9*%
X53018666Y-79404666D02*
X53018666Y-79904666D01*
X52985333Y-80004666D01*
X52918666Y-80071333D01*
X52818666Y-80104666D01*
X52752000Y-80104666D01*
X53385333Y-80104666D02*
X53518666Y-80104666D01*
X53585333Y-80071333D01*
X53618666Y-80038000D01*
X53685333Y-79938000D01*
X53718666Y-79804666D01*
X53718666Y-79538000D01*
X53685333Y-79471333D01*
X53652000Y-79438000D01*
X53585333Y-79404666D01*
X53452000Y-79404666D01*
X53385333Y-79438000D01*
X53352000Y-79471333D01*
X53318666Y-79538000D01*
X53318666Y-79704666D01*
X53352000Y-79771333D01*
X53385333Y-79804666D01*
X53452000Y-79838000D01*
X53585333Y-79838000D01*
X53652000Y-79804666D01*
X53685333Y-79771333D01*
X53718666Y-79704666D01*
%TO.C,Q2*%
X36083333Y-15133333D02*
X36016666Y-15100000D01*
X35950000Y-15033333D01*
X35850000Y-14933333D01*
X35783333Y-14900000D01*
X35716666Y-14900000D01*
X35750000Y-15066666D02*
X35683333Y-15033333D01*
X35616666Y-14966666D01*
X35583333Y-14833333D01*
X35583333Y-14600000D01*
X35616666Y-14466666D01*
X35683333Y-14400000D01*
X35750000Y-14366666D01*
X35883333Y-14366666D01*
X35950000Y-14400000D01*
X36016666Y-14466666D01*
X36050000Y-14600000D01*
X36050000Y-14833333D01*
X36016666Y-14966666D01*
X35950000Y-15033333D01*
X35883333Y-15066666D01*
X35750000Y-15066666D01*
X36316666Y-14433333D02*
X36350000Y-14400000D01*
X36416666Y-14366666D01*
X36583333Y-14366666D01*
X36650000Y-14400000D01*
X36683333Y-14433333D01*
X36716666Y-14500000D01*
X36716666Y-14566666D01*
X36683333Y-14666666D01*
X36283333Y-15066666D01*
X36716666Y-15066666D01*
%TO.C,R8*%
X30908333Y-16366666D02*
X30675000Y-16033333D01*
X30508333Y-16366666D02*
X30508333Y-15666666D01*
X30775000Y-15666666D01*
X30841666Y-15700000D01*
X30875000Y-15733333D01*
X30908333Y-15800000D01*
X30908333Y-15900000D01*
X30875000Y-15966666D01*
X30841666Y-16000000D01*
X30775000Y-16033333D01*
X30508333Y-16033333D01*
X31308333Y-15966666D02*
X31241666Y-15933333D01*
X31208333Y-15900000D01*
X31175000Y-15833333D01*
X31175000Y-15800000D01*
X31208333Y-15733333D01*
X31241666Y-15700000D01*
X31308333Y-15666666D01*
X31441666Y-15666666D01*
X31508333Y-15700000D01*
X31541666Y-15733333D01*
X31575000Y-15800000D01*
X31575000Y-15833333D01*
X31541666Y-15900000D01*
X31508333Y-15933333D01*
X31441666Y-15966666D01*
X31308333Y-15966666D01*
X31241666Y-16000000D01*
X31208333Y-16033333D01*
X31175000Y-16100000D01*
X31175000Y-16233333D01*
X31208333Y-16300000D01*
X31241666Y-16333333D01*
X31308333Y-16366666D01*
X31441666Y-16366666D01*
X31508333Y-16333333D01*
X31541666Y-16300000D01*
X31575000Y-16233333D01*
X31575000Y-16100000D01*
X31541666Y-16033333D01*
X31508333Y-16000000D01*
X31441666Y-15966666D01*
%TO.C,D2*%
X26183333Y-12916666D02*
X26183333Y-12216666D01*
X26350000Y-12216666D01*
X26450000Y-12250000D01*
X26516666Y-12316666D01*
X26550000Y-12383333D01*
X26583333Y-12516666D01*
X26583333Y-12616666D01*
X26550000Y-12750000D01*
X26516666Y-12816666D01*
X26450000Y-12883333D01*
X26350000Y-12916666D01*
X26183333Y-12916666D01*
X26850000Y-12283333D02*
X26883333Y-12250000D01*
X26950000Y-12216666D01*
X27116666Y-12216666D01*
X27183333Y-12250000D01*
X27216666Y-12283333D01*
X27250000Y-12350000D01*
X27250000Y-12416666D01*
X27216666Y-12516666D01*
X26816666Y-12916666D01*
X27250000Y-12916666D01*
%TO.C,D1*%
X21583333Y-20366666D02*
X21583333Y-19666666D01*
X21750000Y-19666666D01*
X21850000Y-19700000D01*
X21916666Y-19766666D01*
X21950000Y-19833333D01*
X21983333Y-19966666D01*
X21983333Y-20066666D01*
X21950000Y-20200000D01*
X21916666Y-20266666D01*
X21850000Y-20333333D01*
X21750000Y-20366666D01*
X21583333Y-20366666D01*
X22650000Y-20366666D02*
X22250000Y-20366666D01*
X22450000Y-20366666D02*
X22450000Y-19666666D01*
X22383333Y-19766666D01*
X22316666Y-19833333D01*
X22250000Y-19866666D01*
%TO.C,J13*%
X45183333Y-41416666D02*
X45183333Y-41916666D01*
X45150000Y-42016666D01*
X45083333Y-42083333D01*
X44983333Y-42116666D01*
X44916666Y-42116666D01*
X45883333Y-42116666D02*
X45483333Y-42116666D01*
X45683333Y-42116666D02*
X45683333Y-41416666D01*
X45616666Y-41516666D01*
X45550000Y-41583333D01*
X45483333Y-41616666D01*
X46116666Y-41416666D02*
X46550000Y-41416666D01*
X46316666Y-41683333D01*
X46416666Y-41683333D01*
X46483333Y-41716666D01*
X46516666Y-41750000D01*
X46550000Y-41816666D01*
X46550000Y-41983333D01*
X46516666Y-42050000D01*
X46483333Y-42083333D01*
X46416666Y-42116666D01*
X46216666Y-42116666D01*
X46150000Y-42083333D01*
X46116666Y-42050000D01*
D15*
%TO.C,D17*%
X49961428Y-73409428D02*
X49961428Y-72809428D01*
X50104285Y-72809428D01*
X50190000Y-72838000D01*
X50247142Y-72895142D01*
X50275714Y-72952285D01*
X50304285Y-73066571D01*
X50304285Y-73152285D01*
X50275714Y-73266571D01*
X50247142Y-73323714D01*
X50190000Y-73380857D01*
X50104285Y-73409428D01*
X49961428Y-73409428D01*
X50875714Y-73409428D02*
X50532857Y-73409428D01*
X50704285Y-73409428D02*
X50704285Y-72809428D01*
X50647142Y-72895142D01*
X50590000Y-72952285D01*
X50532857Y-72980857D01*
X51075714Y-72809428D02*
X51475714Y-72809428D01*
X51218571Y-73409428D01*
D11*
%TO.C,J11*%
X61384166Y-88266666D02*
X61884166Y-88266666D01*
X61984166Y-88300000D01*
X62050833Y-88366666D01*
X62084166Y-88466666D01*
X62084166Y-88533333D01*
X62084166Y-87566666D02*
X62084166Y-87966666D01*
X62084166Y-87766666D02*
X61384166Y-87766666D01*
X61484166Y-87833333D01*
X61550833Y-87900000D01*
X61584166Y-87966666D01*
X62084166Y-86900000D02*
X62084166Y-87300000D01*
X62084166Y-87100000D02*
X61384166Y-87100000D01*
X61484166Y-87166666D01*
X61550833Y-87233333D01*
X61584166Y-87300000D01*
%TO.C,R17*%
X27266666Y-43850000D02*
X26933333Y-44083333D01*
X27266666Y-44250000D02*
X26566666Y-44250000D01*
X26566666Y-43983333D01*
X26600000Y-43916666D01*
X26633333Y-43883333D01*
X26700000Y-43850000D01*
X26800000Y-43850000D01*
X26866666Y-43883333D01*
X26900000Y-43916666D01*
X26933333Y-43983333D01*
X26933333Y-44250000D01*
X27266666Y-43183333D02*
X27266666Y-43583333D01*
X27266666Y-43383333D02*
X26566666Y-43383333D01*
X26666666Y-43450000D01*
X26733333Y-43516666D01*
X26766666Y-43583333D01*
X26566666Y-42950000D02*
X26566666Y-42483333D01*
X27266666Y-42783333D01*
%TO.C,C4*%
X13383333Y-41500000D02*
X13350000Y-41533333D01*
X13250000Y-41566666D01*
X13183333Y-41566666D01*
X13083333Y-41533333D01*
X13016666Y-41466666D01*
X12983333Y-41400000D01*
X12950000Y-41266666D01*
X12950000Y-41166666D01*
X12983333Y-41033333D01*
X13016666Y-40966666D01*
X13083333Y-40900000D01*
X13183333Y-40866666D01*
X13250000Y-40866666D01*
X13350000Y-40900000D01*
X13383333Y-40933333D01*
X13983333Y-41100000D02*
X13983333Y-41566666D01*
X13816666Y-40833333D02*
X13650000Y-41333333D01*
X14083333Y-41333333D01*
%TO.C,LF1*%
X29058333Y-58591666D02*
X28725000Y-58591666D01*
X28725000Y-57891666D01*
X29525000Y-58225000D02*
X29291666Y-58225000D01*
X29291666Y-58591666D02*
X29291666Y-57891666D01*
X29625000Y-57891666D01*
X30258333Y-58591666D02*
X29858333Y-58591666D01*
X30058333Y-58591666D02*
X30058333Y-57891666D01*
X29991666Y-57991666D01*
X29925000Y-58058333D01*
X29858333Y-58091666D01*
%TO.C,D6*%
X47566666Y-29691666D02*
X46866666Y-29691666D01*
X46866666Y-29525000D01*
X46900000Y-29425000D01*
X46966666Y-29358333D01*
X47033333Y-29325000D01*
X47166666Y-29291666D01*
X47266666Y-29291666D01*
X47400000Y-29325000D01*
X47466666Y-29358333D01*
X47533333Y-29425000D01*
X47566666Y-29525000D01*
X47566666Y-29691666D01*
X46866666Y-28691666D02*
X46866666Y-28825000D01*
X46900000Y-28891666D01*
X46933333Y-28925000D01*
X47033333Y-28991666D01*
X47166666Y-29025000D01*
X47433333Y-29025000D01*
X47500000Y-28991666D01*
X47533333Y-28958333D01*
X47566666Y-28891666D01*
X47566666Y-28758333D01*
X47533333Y-28691666D01*
X47500000Y-28658333D01*
X47433333Y-28625000D01*
X47266666Y-28625000D01*
X47200000Y-28658333D01*
X47166666Y-28691666D01*
X47133333Y-28758333D01*
X47133333Y-28891666D01*
X47166666Y-28958333D01*
X47200000Y-28991666D01*
X47266666Y-29025000D01*
D15*
%TO.C,D22*%
X49961428Y-85881428D02*
X49961428Y-85281428D01*
X50104285Y-85281428D01*
X50190000Y-85310000D01*
X50247142Y-85367142D01*
X50275714Y-85424285D01*
X50304285Y-85538571D01*
X50304285Y-85624285D01*
X50275714Y-85738571D01*
X50247142Y-85795714D01*
X50190000Y-85852857D01*
X50104285Y-85881428D01*
X49961428Y-85881428D01*
X50532857Y-85338571D02*
X50561428Y-85310000D01*
X50618571Y-85281428D01*
X50761428Y-85281428D01*
X50818571Y-85310000D01*
X50847142Y-85338571D01*
X50875714Y-85395714D01*
X50875714Y-85452857D01*
X50847142Y-85538571D01*
X50504285Y-85881428D01*
X50875714Y-85881428D01*
X51104285Y-85338571D02*
X51132857Y-85310000D01*
X51190000Y-85281428D01*
X51332857Y-85281428D01*
X51390000Y-85310000D01*
X51418571Y-85338571D01*
X51447142Y-85395714D01*
X51447142Y-85452857D01*
X51418571Y-85538571D01*
X51075714Y-85881428D01*
X51447142Y-85881428D01*
D11*
%TO.C,C8*%
X16960000Y-29966666D02*
X16993333Y-30000000D01*
X17026666Y-30100000D01*
X17026666Y-30166666D01*
X16993333Y-30266666D01*
X16926666Y-30333333D01*
X16860000Y-30366666D01*
X16726666Y-30400000D01*
X16626666Y-30400000D01*
X16493333Y-30366666D01*
X16426666Y-30333333D01*
X16360000Y-30266666D01*
X16326666Y-30166666D01*
X16326666Y-30100000D01*
X16360000Y-30000000D01*
X16393333Y-29966666D01*
X16626666Y-29566666D02*
X16593333Y-29633333D01*
X16560000Y-29666666D01*
X16493333Y-29700000D01*
X16460000Y-29700000D01*
X16393333Y-29666666D01*
X16360000Y-29633333D01*
X16326666Y-29566666D01*
X16326666Y-29433333D01*
X16360000Y-29366666D01*
X16393333Y-29333333D01*
X16460000Y-29300000D01*
X16493333Y-29300000D01*
X16560000Y-29333333D01*
X16593333Y-29366666D01*
X16626666Y-29433333D01*
X16626666Y-29566666D01*
X16660000Y-29633333D01*
X16693333Y-29666666D01*
X16760000Y-29700000D01*
X16893333Y-29700000D01*
X16960000Y-29666666D01*
X16993333Y-29633333D01*
X17026666Y-29566666D01*
X17026666Y-29433333D01*
X16993333Y-29366666D01*
X16960000Y-29333333D01*
X16893333Y-29300000D01*
X16760000Y-29300000D01*
X16693333Y-29333333D01*
X16660000Y-29366666D01*
X16626666Y-29433333D01*
%TO.C,J6*%
X53018666Y-64216666D02*
X53018666Y-64716666D01*
X52985333Y-64816666D01*
X52918666Y-64883333D01*
X52818666Y-64916666D01*
X52752000Y-64916666D01*
X53652000Y-64216666D02*
X53518666Y-64216666D01*
X53452000Y-64250000D01*
X53418666Y-64283333D01*
X53352000Y-64383333D01*
X53318666Y-64516666D01*
X53318666Y-64783333D01*
X53352000Y-64850000D01*
X53385333Y-64883333D01*
X53452000Y-64916666D01*
X53585333Y-64916666D01*
X53652000Y-64883333D01*
X53685333Y-64850000D01*
X53718666Y-64783333D01*
X53718666Y-64616666D01*
X53685333Y-64550000D01*
X53652000Y-64516666D01*
X53585333Y-64483333D01*
X53452000Y-64483333D01*
X53385333Y-64516666D01*
X53352000Y-64550000D01*
X53318666Y-64616666D01*
D15*
%TO.C,D9*%
X50314642Y-105891428D02*
X50314642Y-105291428D01*
X50457500Y-105291428D01*
X50543214Y-105320000D01*
X50600357Y-105377142D01*
X50628928Y-105434285D01*
X50657500Y-105548571D01*
X50657500Y-105634285D01*
X50628928Y-105748571D01*
X50600357Y-105805714D01*
X50543214Y-105862857D01*
X50457500Y-105891428D01*
X50314642Y-105891428D01*
X50943214Y-105891428D02*
X51057500Y-105891428D01*
X51114642Y-105862857D01*
X51143214Y-105834285D01*
X51200357Y-105748571D01*
X51228928Y-105634285D01*
X51228928Y-105405714D01*
X51200357Y-105348571D01*
X51171785Y-105320000D01*
X51114642Y-105291428D01*
X51000357Y-105291428D01*
X50943214Y-105320000D01*
X50914642Y-105348571D01*
X50886071Y-105405714D01*
X50886071Y-105548571D01*
X50914642Y-105605714D01*
X50943214Y-105634285D01*
X51000357Y-105662857D01*
X51114642Y-105662857D01*
X51171785Y-105634285D01*
X51200357Y-105605714D01*
X51228928Y-105548571D01*
%TO.C,D12*%
X49981428Y-62351428D02*
X49981428Y-61751428D01*
X50124285Y-61751428D01*
X50210000Y-61780000D01*
X50267142Y-61837142D01*
X50295714Y-61894285D01*
X50324285Y-62008571D01*
X50324285Y-62094285D01*
X50295714Y-62208571D01*
X50267142Y-62265714D01*
X50210000Y-62322857D01*
X50124285Y-62351428D01*
X49981428Y-62351428D01*
X50895714Y-62351428D02*
X50552857Y-62351428D01*
X50724285Y-62351428D02*
X50724285Y-61751428D01*
X50667142Y-61837142D01*
X50610000Y-61894285D01*
X50552857Y-61922857D01*
X51124285Y-61808571D02*
X51152857Y-61780000D01*
X51210000Y-61751428D01*
X51352857Y-61751428D01*
X51410000Y-61780000D01*
X51438571Y-61808571D01*
X51467142Y-61865714D01*
X51467142Y-61922857D01*
X51438571Y-62008571D01*
X51095714Y-62351428D01*
X51467142Y-62351428D01*
D11*
%TO.C,J5*%
X53921666Y-114316666D02*
X53921666Y-114816666D01*
X53888333Y-114916666D01*
X53821666Y-114983333D01*
X53721666Y-115016666D01*
X53655000Y-115016666D01*
X54588333Y-114316666D02*
X54255000Y-114316666D01*
X54221666Y-114650000D01*
X54255000Y-114616666D01*
X54321666Y-114583333D01*
X54488333Y-114583333D01*
X54555000Y-114616666D01*
X54588333Y-114650000D01*
X54621666Y-114716666D01*
X54621666Y-114883333D01*
X54588333Y-114950000D01*
X54555000Y-114983333D01*
X54488333Y-115016666D01*
X54321666Y-115016666D01*
X54255000Y-114983333D01*
X54221666Y-114950000D01*
%TO.C,RN3*%
X27566666Y-109806666D02*
X27333333Y-109473333D01*
X27166666Y-109806666D02*
X27166666Y-109106666D01*
X27433333Y-109106666D01*
X27500000Y-109140000D01*
X27533333Y-109173333D01*
X27566666Y-109240000D01*
X27566666Y-109340000D01*
X27533333Y-109406666D01*
X27500000Y-109440000D01*
X27433333Y-109473333D01*
X27166666Y-109473333D01*
X27866666Y-109806666D02*
X27866666Y-109106666D01*
X28266666Y-109806666D01*
X28266666Y-109106666D01*
X28533333Y-109106666D02*
X28966666Y-109106666D01*
X28733333Y-109373333D01*
X28833333Y-109373333D01*
X28900000Y-109406666D01*
X28933333Y-109440000D01*
X28966666Y-109506666D01*
X28966666Y-109673333D01*
X28933333Y-109740000D01*
X28900000Y-109773333D01*
X28833333Y-109806666D01*
X28633333Y-109806666D01*
X28566666Y-109773333D01*
X28533333Y-109740000D01*
%TO.C,K1*%
X33219333Y-65722666D02*
X33219333Y-65022666D01*
X33619333Y-65722666D02*
X33319333Y-65322666D01*
X33619333Y-65022666D02*
X33219333Y-65422666D01*
X34286000Y-65722666D02*
X33886000Y-65722666D01*
X34086000Y-65722666D02*
X34086000Y-65022666D01*
X34019333Y-65122666D01*
X33952666Y-65189333D01*
X33886000Y-65222666D01*
%TO.C,RN2*%
X15326666Y-109766666D02*
X15093333Y-109433333D01*
X14926666Y-109766666D02*
X14926666Y-109066666D01*
X15193333Y-109066666D01*
X15260000Y-109100000D01*
X15293333Y-109133333D01*
X15326666Y-109200000D01*
X15326666Y-109300000D01*
X15293333Y-109366666D01*
X15260000Y-109400000D01*
X15193333Y-109433333D01*
X14926666Y-109433333D01*
X15626666Y-109766666D02*
X15626666Y-109066666D01*
X16026666Y-109766666D01*
X16026666Y-109066666D01*
X16326666Y-109133333D02*
X16360000Y-109100000D01*
X16426666Y-109066666D01*
X16593333Y-109066666D01*
X16660000Y-109100000D01*
X16693333Y-109133333D01*
X16726666Y-109200000D01*
X16726666Y-109266666D01*
X16693333Y-109366666D01*
X16293333Y-109766666D01*
X16726666Y-109766666D01*
%TO.C,C16*%
X29269000Y-85200000D02*
X29235666Y-85233333D01*
X29135666Y-85266666D01*
X29069000Y-85266666D01*
X28969000Y-85233333D01*
X28902333Y-85166666D01*
X28869000Y-85100000D01*
X28835666Y-84966666D01*
X28835666Y-84866666D01*
X28869000Y-84733333D01*
X28902333Y-84666666D01*
X28969000Y-84600000D01*
X29069000Y-84566666D01*
X29135666Y-84566666D01*
X29235666Y-84600000D01*
X29269000Y-84633333D01*
X29935666Y-85266666D02*
X29535666Y-85266666D01*
X29735666Y-85266666D02*
X29735666Y-84566666D01*
X29669000Y-84666666D01*
X29602333Y-84733333D01*
X29535666Y-84766666D01*
X30535666Y-84566666D02*
X30402333Y-84566666D01*
X30335666Y-84600000D01*
X30302333Y-84633333D01*
X30235666Y-84733333D01*
X30202333Y-84866666D01*
X30202333Y-85133333D01*
X30235666Y-85200000D01*
X30269000Y-85233333D01*
X30335666Y-85266666D01*
X30469000Y-85266666D01*
X30535666Y-85233333D01*
X30569000Y-85200000D01*
X30602333Y-85133333D01*
X30602333Y-84966666D01*
X30569000Y-84900000D01*
X30535666Y-84866666D01*
X30469000Y-84833333D01*
X30335666Y-84833333D01*
X30269000Y-84866666D01*
X30235666Y-84900000D01*
X30202333Y-84966666D01*
%TO.C,C2*%
X23583333Y-20600000D02*
X23550000Y-20633333D01*
X23450000Y-20666666D01*
X23383333Y-20666666D01*
X23283333Y-20633333D01*
X23216666Y-20566666D01*
X23183333Y-20500000D01*
X23150000Y-20366666D01*
X23150000Y-20266666D01*
X23183333Y-20133333D01*
X23216666Y-20066666D01*
X23283333Y-20000000D01*
X23383333Y-19966666D01*
X23450000Y-19966666D01*
X23550000Y-20000000D01*
X23583333Y-20033333D01*
X23850000Y-20033333D02*
X23883333Y-20000000D01*
X23950000Y-19966666D01*
X24116666Y-19966666D01*
X24183333Y-20000000D01*
X24216666Y-20033333D01*
X24250000Y-20100000D01*
X24250000Y-20166666D01*
X24216666Y-20266666D01*
X23816666Y-20666666D01*
X24250000Y-20666666D01*
%TO.C,Q3*%
X28233333Y-28894166D02*
X28200000Y-28960833D01*
X28133333Y-29027500D01*
X28033333Y-29127500D01*
X28000000Y-29194166D01*
X28000000Y-29260833D01*
X28166666Y-29227500D02*
X28133333Y-29294166D01*
X28066666Y-29360833D01*
X27933333Y-29394166D01*
X27700000Y-29394166D01*
X27566666Y-29360833D01*
X27500000Y-29294166D01*
X27466666Y-29227500D01*
X27466666Y-29094166D01*
X27500000Y-29027500D01*
X27566666Y-28960833D01*
X27700000Y-28927500D01*
X27933333Y-28927500D01*
X28066666Y-28960833D01*
X28133333Y-29027500D01*
X28166666Y-29094166D01*
X28166666Y-29227500D01*
X27466666Y-28694166D02*
X27466666Y-28260833D01*
X27733333Y-28494166D01*
X27733333Y-28394166D01*
X27766666Y-28327500D01*
X27800000Y-28294166D01*
X27866666Y-28260833D01*
X28033333Y-28260833D01*
X28100000Y-28294166D01*
X28133333Y-28327500D01*
X28166666Y-28394166D01*
X28166666Y-28594166D01*
X28133333Y-28660833D01*
X28100000Y-28694166D01*
%TO.C,J10*%
X39233333Y-84416666D02*
X39233333Y-84916666D01*
X39200000Y-85016666D01*
X39133333Y-85083333D01*
X39033333Y-85116666D01*
X38966666Y-85116666D01*
X39933333Y-85116666D02*
X39533333Y-85116666D01*
X39733333Y-85116666D02*
X39733333Y-84416666D01*
X39666666Y-84516666D01*
X39600000Y-84583333D01*
X39533333Y-84616666D01*
X40366666Y-84416666D02*
X40433333Y-84416666D01*
X40500000Y-84450000D01*
X40533333Y-84483333D01*
X40566666Y-84550000D01*
X40600000Y-84683333D01*
X40600000Y-84850000D01*
X40566666Y-84983333D01*
X40533333Y-85050000D01*
X40500000Y-85083333D01*
X40433333Y-85116666D01*
X40366666Y-85116666D01*
X40300000Y-85083333D01*
X40266666Y-85050000D01*
X40233333Y-84983333D01*
X40200000Y-84850000D01*
X40200000Y-84683333D01*
X40233333Y-84550000D01*
X40266666Y-84483333D01*
X40300000Y-84450000D01*
X40366666Y-84416666D01*
%TO.C,C5*%
X14483333Y-43200000D02*
X14450000Y-43233333D01*
X14350000Y-43266666D01*
X14283333Y-43266666D01*
X14183333Y-43233333D01*
X14116666Y-43166666D01*
X14083333Y-43100000D01*
X14050000Y-42966666D01*
X14050000Y-42866666D01*
X14083333Y-42733333D01*
X14116666Y-42666666D01*
X14183333Y-42600000D01*
X14283333Y-42566666D01*
X14350000Y-42566666D01*
X14450000Y-42600000D01*
X14483333Y-42633333D01*
X15116666Y-42566666D02*
X14783333Y-42566666D01*
X14750000Y-42900000D01*
X14783333Y-42866666D01*
X14850000Y-42833333D01*
X15016666Y-42833333D01*
X15083333Y-42866666D01*
X15116666Y-42900000D01*
X15150000Y-42966666D01*
X15150000Y-43133333D01*
X15116666Y-43200000D01*
X15083333Y-43233333D01*
X15016666Y-43266666D01*
X14850000Y-43266666D01*
X14783333Y-43233333D01*
X14750000Y-43200000D01*
%TO.C,J1*%
X6466666Y-13416666D02*
X6466666Y-13916666D01*
X6433333Y-14016666D01*
X6366666Y-14083333D01*
X6266666Y-14116666D01*
X6200000Y-14116666D01*
X7166666Y-14116666D02*
X6766666Y-14116666D01*
X6966666Y-14116666D02*
X6966666Y-13416666D01*
X6900000Y-13516666D01*
X6833333Y-13583333D01*
X6766666Y-13616666D01*
D15*
%TO.C,D18*%
X49961428Y-70911428D02*
X49961428Y-70311428D01*
X50104285Y-70311428D01*
X50190000Y-70340000D01*
X50247142Y-70397142D01*
X50275714Y-70454285D01*
X50304285Y-70568571D01*
X50304285Y-70654285D01*
X50275714Y-70768571D01*
X50247142Y-70825714D01*
X50190000Y-70882857D01*
X50104285Y-70911428D01*
X49961428Y-70911428D01*
X50875714Y-70911428D02*
X50532857Y-70911428D01*
X50704285Y-70911428D02*
X50704285Y-70311428D01*
X50647142Y-70397142D01*
X50590000Y-70454285D01*
X50532857Y-70482857D01*
X51218571Y-70568571D02*
X51161428Y-70540000D01*
X51132857Y-70511428D01*
X51104285Y-70454285D01*
X51104285Y-70425714D01*
X51132857Y-70368571D01*
X51161428Y-70340000D01*
X51218571Y-70311428D01*
X51332857Y-70311428D01*
X51390000Y-70340000D01*
X51418571Y-70368571D01*
X51447142Y-70425714D01*
X51447142Y-70454285D01*
X51418571Y-70511428D01*
X51390000Y-70540000D01*
X51332857Y-70568571D01*
X51218571Y-70568571D01*
X51161428Y-70597142D01*
X51132857Y-70625714D01*
X51104285Y-70682857D01*
X51104285Y-70797142D01*
X51132857Y-70854285D01*
X51161428Y-70882857D01*
X51218571Y-70911428D01*
X51332857Y-70911428D01*
X51390000Y-70882857D01*
X51418571Y-70854285D01*
X51447142Y-70797142D01*
X51447142Y-70682857D01*
X51418571Y-70625714D01*
X51390000Y-70597142D01*
X51332857Y-70568571D01*
%TO.C,D16*%
X49961428Y-75791428D02*
X49961428Y-75191428D01*
X50104285Y-75191428D01*
X50190000Y-75220000D01*
X50247142Y-75277142D01*
X50275714Y-75334285D01*
X50304285Y-75448571D01*
X50304285Y-75534285D01*
X50275714Y-75648571D01*
X50247142Y-75705714D01*
X50190000Y-75762857D01*
X50104285Y-75791428D01*
X49961428Y-75791428D01*
X50875714Y-75791428D02*
X50532857Y-75791428D01*
X50704285Y-75791428D02*
X50704285Y-75191428D01*
X50647142Y-75277142D01*
X50590000Y-75334285D01*
X50532857Y-75362857D01*
X51390000Y-75191428D02*
X51275714Y-75191428D01*
X51218571Y-75220000D01*
X51190000Y-75248571D01*
X51132857Y-75334285D01*
X51104285Y-75448571D01*
X51104285Y-75677142D01*
X51132857Y-75734285D01*
X51161428Y-75762857D01*
X51218571Y-75791428D01*
X51332857Y-75791428D01*
X51390000Y-75762857D01*
X51418571Y-75734285D01*
X51447142Y-75677142D01*
X51447142Y-75534285D01*
X51418571Y-75477142D01*
X51390000Y-75448571D01*
X51332857Y-75420000D01*
X51218571Y-75420000D01*
X51161428Y-75448571D01*
X51132857Y-75477142D01*
X51104285Y-75534285D01*
D11*
%TO.C,JP2*%
X2216666Y-53183333D02*
X2716666Y-53183333D01*
X2816666Y-53216666D01*
X2883333Y-53283333D01*
X2916666Y-53383333D01*
X2916666Y-53450000D01*
X2916666Y-52850000D02*
X2216666Y-52850000D01*
X2216666Y-52583333D01*
X2250000Y-52516666D01*
X2283333Y-52483333D01*
X2350000Y-52450000D01*
X2450000Y-52450000D01*
X2516666Y-52483333D01*
X2550000Y-52516666D01*
X2583333Y-52583333D01*
X2583333Y-52850000D01*
X2283333Y-52183333D02*
X2250000Y-52150000D01*
X2216666Y-52083333D01*
X2216666Y-51916666D01*
X2250000Y-51850000D01*
X2283333Y-51816666D01*
X2350000Y-51783333D01*
X2416666Y-51783333D01*
X2516666Y-51816666D01*
X2916666Y-52216666D01*
X2916666Y-51783333D01*
%TO.C,C14*%
X16550000Y-71050000D02*
X16583333Y-71083333D01*
X16616666Y-71183333D01*
X16616666Y-71250000D01*
X16583333Y-71350000D01*
X16516666Y-71416666D01*
X16450000Y-71450000D01*
X16316666Y-71483333D01*
X16216666Y-71483333D01*
X16083333Y-71450000D01*
X16016666Y-71416666D01*
X15950000Y-71350000D01*
X15916666Y-71250000D01*
X15916666Y-71183333D01*
X15950000Y-71083333D01*
X15983333Y-71050000D01*
X16616666Y-70383333D02*
X16616666Y-70783333D01*
X16616666Y-70583333D02*
X15916666Y-70583333D01*
X16016666Y-70650000D01*
X16083333Y-70716666D01*
X16116666Y-70783333D01*
X16150000Y-69783333D02*
X16616666Y-69783333D01*
X15883333Y-69950000D02*
X16383333Y-70116666D01*
X16383333Y-69683333D01*
%TO.C,R9*%
X31208333Y-14116666D02*
X30975000Y-13783333D01*
X30808333Y-14116666D02*
X30808333Y-13416666D01*
X31075000Y-13416666D01*
X31141666Y-13450000D01*
X31175000Y-13483333D01*
X31208333Y-13550000D01*
X31208333Y-13650000D01*
X31175000Y-13716666D01*
X31141666Y-13750000D01*
X31075000Y-13783333D01*
X30808333Y-13783333D01*
X31541666Y-14116666D02*
X31675000Y-14116666D01*
X31741666Y-14083333D01*
X31775000Y-14050000D01*
X31841666Y-13950000D01*
X31875000Y-13816666D01*
X31875000Y-13550000D01*
X31841666Y-13483333D01*
X31808333Y-13450000D01*
X31741666Y-13416666D01*
X31608333Y-13416666D01*
X31541666Y-13450000D01*
X31508333Y-13483333D01*
X31475000Y-13550000D01*
X31475000Y-13716666D01*
X31508333Y-13783333D01*
X31541666Y-13816666D01*
X31608333Y-13850000D01*
X31741666Y-13850000D01*
X31808333Y-13816666D01*
X31841666Y-13783333D01*
X31875000Y-13716666D01*
%TO.C,Q4*%
X28433333Y-45858333D02*
X28366666Y-45825000D01*
X28300000Y-45758333D01*
X28200000Y-45658333D01*
X28133333Y-45625000D01*
X28066666Y-45625000D01*
X28100000Y-45791666D02*
X28033333Y-45758333D01*
X27966666Y-45691666D01*
X27933333Y-45558333D01*
X27933333Y-45325000D01*
X27966666Y-45191666D01*
X28033333Y-45125000D01*
X28100000Y-45091666D01*
X28233333Y-45091666D01*
X28300000Y-45125000D01*
X28366666Y-45191666D01*
X28400000Y-45325000D01*
X28400000Y-45558333D01*
X28366666Y-45691666D01*
X28300000Y-45758333D01*
X28233333Y-45791666D01*
X28100000Y-45791666D01*
X29000000Y-45325000D02*
X29000000Y-45791666D01*
X28833333Y-45058333D02*
X28666666Y-45558333D01*
X29100000Y-45558333D01*
%TO.C,J7*%
X39566666Y-65566666D02*
X39566666Y-66066666D01*
X39533333Y-66166666D01*
X39466666Y-66233333D01*
X39366666Y-66266666D01*
X39300000Y-66266666D01*
X39833333Y-65566666D02*
X40300000Y-65566666D01*
X40000000Y-66266666D01*
%TO.C,C6*%
X8683333Y-52200000D02*
X8650000Y-52233333D01*
X8550000Y-52266666D01*
X8483333Y-52266666D01*
X8383333Y-52233333D01*
X8316666Y-52166666D01*
X8283333Y-52100000D01*
X8250000Y-51966666D01*
X8250000Y-51866666D01*
X8283333Y-51733333D01*
X8316666Y-51666666D01*
X8383333Y-51600000D01*
X8483333Y-51566666D01*
X8550000Y-51566666D01*
X8650000Y-51600000D01*
X8683333Y-51633333D01*
X9283333Y-51566666D02*
X9150000Y-51566666D01*
X9083333Y-51600000D01*
X9050000Y-51633333D01*
X8983333Y-51733333D01*
X8950000Y-51866666D01*
X8950000Y-52133333D01*
X8983333Y-52200000D01*
X9016666Y-52233333D01*
X9083333Y-52266666D01*
X9216666Y-52266666D01*
X9283333Y-52233333D01*
X9316666Y-52200000D01*
X9350000Y-52133333D01*
X9350000Y-51966666D01*
X9316666Y-51900000D01*
X9283333Y-51866666D01*
X9216666Y-51833333D01*
X9083333Y-51833333D01*
X9016666Y-51866666D01*
X8983333Y-51900000D01*
X8950000Y-51966666D01*
%TO.C,R2*%
X30466666Y-74266666D02*
X30133333Y-74500000D01*
X30466666Y-74666666D02*
X29766666Y-74666666D01*
X29766666Y-74400000D01*
X29800000Y-74333333D01*
X29833333Y-74300000D01*
X29900000Y-74266666D01*
X30000000Y-74266666D01*
X30066666Y-74300000D01*
X30100000Y-74333333D01*
X30133333Y-74400000D01*
X30133333Y-74666666D01*
X29833333Y-74000000D02*
X29800000Y-73966666D01*
X29766666Y-73900000D01*
X29766666Y-73733333D01*
X29800000Y-73666666D01*
X29833333Y-73633333D01*
X29900000Y-73600000D01*
X29966666Y-73600000D01*
X30066666Y-73633333D01*
X30466666Y-74033333D01*
X30466666Y-73600000D01*
%TO.C,RN4*%
X27566666Y-68766666D02*
X27333333Y-68433333D01*
X27166666Y-68766666D02*
X27166666Y-68066666D01*
X27433333Y-68066666D01*
X27500000Y-68100000D01*
X27533333Y-68133333D01*
X27566666Y-68200000D01*
X27566666Y-68300000D01*
X27533333Y-68366666D01*
X27500000Y-68400000D01*
X27433333Y-68433333D01*
X27166666Y-68433333D01*
X27866666Y-68766666D02*
X27866666Y-68066666D01*
X28266666Y-68766666D01*
X28266666Y-68066666D01*
X28900000Y-68300000D02*
X28900000Y-68766666D01*
X28733333Y-68033333D02*
X28566666Y-68533333D01*
X29000000Y-68533333D01*
%TO.C,C15*%
X27069000Y-70950000D02*
X27035666Y-70983333D01*
X26935666Y-71016666D01*
X26869000Y-71016666D01*
X26769000Y-70983333D01*
X26702333Y-70916666D01*
X26669000Y-70850000D01*
X26635666Y-70716666D01*
X26635666Y-70616666D01*
X26669000Y-70483333D01*
X26702333Y-70416666D01*
X26769000Y-70350000D01*
X26869000Y-70316666D01*
X26935666Y-70316666D01*
X27035666Y-70350000D01*
X27069000Y-70383333D01*
X27735666Y-71016666D02*
X27335666Y-71016666D01*
X27535666Y-71016666D02*
X27535666Y-70316666D01*
X27469000Y-70416666D01*
X27402333Y-70483333D01*
X27335666Y-70516666D01*
X28369000Y-70316666D02*
X28035666Y-70316666D01*
X28002333Y-70650000D01*
X28035666Y-70616666D01*
X28102333Y-70583333D01*
X28269000Y-70583333D01*
X28335666Y-70616666D01*
X28369000Y-70650000D01*
X28402333Y-70716666D01*
X28402333Y-70883333D01*
X28369000Y-70950000D01*
X28335666Y-70983333D01*
X28269000Y-71016666D01*
X28102333Y-71016666D01*
X28035666Y-70983333D01*
X28002333Y-70950000D01*
%TO.C,C9*%
X22033333Y-25650000D02*
X22000000Y-25683333D01*
X21900000Y-25716666D01*
X21833333Y-25716666D01*
X21733333Y-25683333D01*
X21666666Y-25616666D01*
X21633333Y-25550000D01*
X21600000Y-25416666D01*
X21600000Y-25316666D01*
X21633333Y-25183333D01*
X21666666Y-25116666D01*
X21733333Y-25050000D01*
X21833333Y-25016666D01*
X21900000Y-25016666D01*
X22000000Y-25050000D01*
X22033333Y-25083333D01*
X22366666Y-25716666D02*
X22500000Y-25716666D01*
X22566666Y-25683333D01*
X22600000Y-25650000D01*
X22666666Y-25550000D01*
X22700000Y-25416666D01*
X22700000Y-25150000D01*
X22666666Y-25083333D01*
X22633333Y-25050000D01*
X22566666Y-25016666D01*
X22433333Y-25016666D01*
X22366666Y-25050000D01*
X22333333Y-25083333D01*
X22300000Y-25150000D01*
X22300000Y-25316666D01*
X22333333Y-25383333D01*
X22366666Y-25416666D01*
X22433333Y-25450000D01*
X22566666Y-25450000D01*
X22633333Y-25416666D01*
X22666666Y-25383333D01*
X22700000Y-25316666D01*
%TO.C,RN8*%
X47016666Y-97716666D02*
X46783333Y-97383333D01*
X46616666Y-97716666D02*
X46616666Y-97016666D01*
X46883333Y-97016666D01*
X46950000Y-97050000D01*
X46983333Y-97083333D01*
X47016666Y-97150000D01*
X47016666Y-97250000D01*
X46983333Y-97316666D01*
X46950000Y-97350000D01*
X46883333Y-97383333D01*
X46616666Y-97383333D01*
X47316666Y-97716666D02*
X47316666Y-97016666D01*
X47716666Y-97716666D01*
X47716666Y-97016666D01*
X48150000Y-97316666D02*
X48083333Y-97283333D01*
X48050000Y-97250000D01*
X48016666Y-97183333D01*
X48016666Y-97150000D01*
X48050000Y-97083333D01*
X48083333Y-97050000D01*
X48150000Y-97016666D01*
X48283333Y-97016666D01*
X48350000Y-97050000D01*
X48383333Y-97083333D01*
X48416666Y-97150000D01*
X48416666Y-97183333D01*
X48383333Y-97250000D01*
X48350000Y-97283333D01*
X48283333Y-97316666D01*
X48150000Y-97316666D01*
X48083333Y-97350000D01*
X48050000Y-97383333D01*
X48016666Y-97450000D01*
X48016666Y-97583333D01*
X48050000Y-97650000D01*
X48083333Y-97683333D01*
X48150000Y-97716666D01*
X48283333Y-97716666D01*
X48350000Y-97683333D01*
X48383333Y-97650000D01*
X48416666Y-97583333D01*
X48416666Y-97450000D01*
X48383333Y-97383333D01*
X48350000Y-97350000D01*
X48283333Y-97316666D01*
%TO.C,C12*%
X5700000Y-59200000D02*
X5666666Y-59233333D01*
X5566666Y-59266666D01*
X5500000Y-59266666D01*
X5400000Y-59233333D01*
X5333333Y-59166666D01*
X5300000Y-59100000D01*
X5266666Y-58966666D01*
X5266666Y-58866666D01*
X5300000Y-58733333D01*
X5333333Y-58666666D01*
X5400000Y-58600000D01*
X5500000Y-58566666D01*
X5566666Y-58566666D01*
X5666666Y-58600000D01*
X5700000Y-58633333D01*
X6366666Y-59266666D02*
X5966666Y-59266666D01*
X6166666Y-59266666D02*
X6166666Y-58566666D01*
X6100000Y-58666666D01*
X6033333Y-58733333D01*
X5966666Y-58766666D01*
X6633333Y-58633333D02*
X6666666Y-58600000D01*
X6733333Y-58566666D01*
X6900000Y-58566666D01*
X6966666Y-58600000D01*
X7000000Y-58633333D01*
X7033333Y-58700000D01*
X7033333Y-58766666D01*
X7000000Y-58866666D01*
X6600000Y-59266666D01*
X7033333Y-59266666D01*
%TO.C,U6*%
X20466666Y-60066666D02*
X20466666Y-60633333D01*
X20500000Y-60700000D01*
X20533333Y-60733333D01*
X20600000Y-60766666D01*
X20733333Y-60766666D01*
X20800000Y-60733333D01*
X20833333Y-60700000D01*
X20866666Y-60633333D01*
X20866666Y-60066666D01*
X21500000Y-60066666D02*
X21366666Y-60066666D01*
X21300000Y-60100000D01*
X21266666Y-60133333D01*
X21200000Y-60233333D01*
X21166666Y-60366666D01*
X21166666Y-60633333D01*
X21200000Y-60700000D01*
X21233333Y-60733333D01*
X21300000Y-60766666D01*
X21433333Y-60766666D01*
X21500000Y-60733333D01*
X21533333Y-60700000D01*
X21566666Y-60633333D01*
X21566666Y-60466666D01*
X21533333Y-60400000D01*
X21500000Y-60366666D01*
X21433333Y-60333333D01*
X21300000Y-60333333D01*
X21233333Y-60366666D01*
X21200000Y-60400000D01*
X21166666Y-60466666D01*
%TO.C,R3*%
X25233333Y-20566666D02*
X25000000Y-20233333D01*
X24833333Y-20566666D02*
X24833333Y-19866666D01*
X25100000Y-19866666D01*
X25166666Y-19900000D01*
X25200000Y-19933333D01*
X25233333Y-20000000D01*
X25233333Y-20100000D01*
X25200000Y-20166666D01*
X25166666Y-20200000D01*
X25100000Y-20233333D01*
X24833333Y-20233333D01*
X25466666Y-19866666D02*
X25900000Y-19866666D01*
X25666666Y-20133333D01*
X25766666Y-20133333D01*
X25833333Y-20166666D01*
X25866666Y-20200000D01*
X25900000Y-20266666D01*
X25900000Y-20433333D01*
X25866666Y-20500000D01*
X25833333Y-20533333D01*
X25766666Y-20566666D01*
X25566666Y-20566666D01*
X25500000Y-20533333D01*
X25466666Y-20500000D01*
D15*
%TO.C,D19*%
X49981428Y-68396428D02*
X49981428Y-67796428D01*
X50124285Y-67796428D01*
X50210000Y-67825000D01*
X50267142Y-67882142D01*
X50295714Y-67939285D01*
X50324285Y-68053571D01*
X50324285Y-68139285D01*
X50295714Y-68253571D01*
X50267142Y-68310714D01*
X50210000Y-68367857D01*
X50124285Y-68396428D01*
X49981428Y-68396428D01*
X50895714Y-68396428D02*
X50552857Y-68396428D01*
X50724285Y-68396428D02*
X50724285Y-67796428D01*
X50667142Y-67882142D01*
X50610000Y-67939285D01*
X50552857Y-67967857D01*
X51181428Y-68396428D02*
X51295714Y-68396428D01*
X51352857Y-68367857D01*
X51381428Y-68339285D01*
X51438571Y-68253571D01*
X51467142Y-68139285D01*
X51467142Y-67910714D01*
X51438571Y-67853571D01*
X51410000Y-67825000D01*
X51352857Y-67796428D01*
X51238571Y-67796428D01*
X51181428Y-67825000D01*
X51152857Y-67853571D01*
X51124285Y-67910714D01*
X51124285Y-68053571D01*
X51152857Y-68110714D01*
X51181428Y-68139285D01*
X51238571Y-68167857D01*
X51352857Y-68167857D01*
X51410000Y-68139285D01*
X51438571Y-68110714D01*
X51467142Y-68053571D01*
D11*
%TO.C,J4*%
X6366666Y-113666666D02*
X6366666Y-114166666D01*
X6333333Y-114266666D01*
X6266666Y-114333333D01*
X6166666Y-114366666D01*
X6100000Y-114366666D01*
X7000000Y-113900000D02*
X7000000Y-114366666D01*
X6833333Y-113633333D02*
X6666666Y-114133333D01*
X7100000Y-114133333D01*
%TO.C,J17*%
X22291666Y-117716666D02*
X22791666Y-117716666D01*
X22891666Y-117750000D01*
X22958333Y-117816666D01*
X22991666Y-117916666D01*
X22991666Y-117983333D01*
X22991666Y-117016666D02*
X22991666Y-117416666D01*
X22991666Y-117216666D02*
X22291666Y-117216666D01*
X22391666Y-117283333D01*
X22458333Y-117350000D01*
X22491666Y-117416666D01*
X22291666Y-116783333D02*
X22291666Y-116316666D01*
X22991666Y-116616666D01*
%TO.C,D4*%
X18716666Y-14866666D02*
X18016666Y-14866666D01*
X18016666Y-14700000D01*
X18050000Y-14600000D01*
X18116666Y-14533333D01*
X18183333Y-14500000D01*
X18316666Y-14466666D01*
X18416666Y-14466666D01*
X18550000Y-14500000D01*
X18616666Y-14533333D01*
X18683333Y-14600000D01*
X18716666Y-14700000D01*
X18716666Y-14866666D01*
X18250000Y-13866666D02*
X18716666Y-13866666D01*
X17983333Y-14033333D02*
X18483333Y-14200000D01*
X18483333Y-13766666D01*
%TO.C,RN5*%
X47116666Y-117366666D02*
X46883333Y-117033333D01*
X46716666Y-117366666D02*
X46716666Y-116666666D01*
X46983333Y-116666666D01*
X47050000Y-116700000D01*
X47083333Y-116733333D01*
X47116666Y-116800000D01*
X47116666Y-116900000D01*
X47083333Y-116966666D01*
X47050000Y-117000000D01*
X46983333Y-117033333D01*
X46716666Y-117033333D01*
X47416666Y-117366666D02*
X47416666Y-116666666D01*
X47816666Y-117366666D01*
X47816666Y-116666666D01*
X48483333Y-116666666D02*
X48150000Y-116666666D01*
X48116666Y-117000000D01*
X48150000Y-116966666D01*
X48216666Y-116933333D01*
X48383333Y-116933333D01*
X48450000Y-116966666D01*
X48483333Y-117000000D01*
X48516666Y-117066666D01*
X48516666Y-117233333D01*
X48483333Y-117300000D01*
X48450000Y-117333333D01*
X48383333Y-117366666D01*
X48216666Y-117366666D01*
X48150000Y-117333333D01*
X48116666Y-117300000D01*
%TO.C,D3*%
X8783333Y-12466666D02*
X8783333Y-11766666D01*
X8950000Y-11766666D01*
X9050000Y-11800000D01*
X9116666Y-11866666D01*
X9150000Y-11933333D01*
X9183333Y-12066666D01*
X9183333Y-12166666D01*
X9150000Y-12300000D01*
X9116666Y-12366666D01*
X9050000Y-12433333D01*
X8950000Y-12466666D01*
X8783333Y-12466666D01*
X9416666Y-11766666D02*
X9850000Y-11766666D01*
X9616666Y-12033333D01*
X9716666Y-12033333D01*
X9783333Y-12066666D01*
X9816666Y-12100000D01*
X9850000Y-12166666D01*
X9850000Y-12333333D01*
X9816666Y-12400000D01*
X9783333Y-12433333D01*
X9716666Y-12466666D01*
X9516666Y-12466666D01*
X9450000Y-12433333D01*
X9416666Y-12400000D01*
%TO.C,J8*%
X52918666Y-49040666D02*
X52918666Y-49540666D01*
X52885333Y-49640666D01*
X52818666Y-49707333D01*
X52718666Y-49740666D01*
X52652000Y-49740666D01*
X53352000Y-49340666D02*
X53285333Y-49307333D01*
X53252000Y-49274000D01*
X53218666Y-49207333D01*
X53218666Y-49174000D01*
X53252000Y-49107333D01*
X53285333Y-49074000D01*
X53352000Y-49040666D01*
X53485333Y-49040666D01*
X53552000Y-49074000D01*
X53585333Y-49107333D01*
X53618666Y-49174000D01*
X53618666Y-49207333D01*
X53585333Y-49274000D01*
X53552000Y-49307333D01*
X53485333Y-49340666D01*
X53352000Y-49340666D01*
X53285333Y-49374000D01*
X53252000Y-49407333D01*
X53218666Y-49474000D01*
X53218666Y-49607333D01*
X53252000Y-49674000D01*
X53285333Y-49707333D01*
X53352000Y-49740666D01*
X53485333Y-49740666D01*
X53552000Y-49707333D01*
X53585333Y-49674000D01*
X53618666Y-49607333D01*
X53618666Y-49474000D01*
X53585333Y-49407333D01*
X53552000Y-49374000D01*
X53485333Y-49340666D01*
%TO.C,R15*%
X18326666Y-57600000D02*
X17993333Y-57833333D01*
X18326666Y-58000000D02*
X17626666Y-58000000D01*
X17626666Y-57733333D01*
X17660000Y-57666666D01*
X17693333Y-57633333D01*
X17760000Y-57600000D01*
X17860000Y-57600000D01*
X17926666Y-57633333D01*
X17960000Y-57666666D01*
X17993333Y-57733333D01*
X17993333Y-58000000D01*
X18326666Y-56933333D02*
X18326666Y-57333333D01*
X18326666Y-57133333D02*
X17626666Y-57133333D01*
X17726666Y-57200000D01*
X17793333Y-57266666D01*
X17826666Y-57333333D01*
X17626666Y-56300000D02*
X17626666Y-56633333D01*
X17960000Y-56666666D01*
X17926666Y-56633333D01*
X17893333Y-56566666D01*
X17893333Y-56400000D01*
X17926666Y-56333333D01*
X17960000Y-56300000D01*
X18026666Y-56266666D01*
X18193333Y-56266666D01*
X18260000Y-56300000D01*
X18293333Y-56333333D01*
X18326666Y-56400000D01*
X18326666Y-56566666D01*
X18293333Y-56633333D01*
X18260000Y-56666666D01*
%TO.C,D7*%
X29253333Y-41616666D02*
X29253333Y-40916666D01*
X29420000Y-40916666D01*
X29520000Y-40950000D01*
X29586666Y-41016666D01*
X29620000Y-41083333D01*
X29653333Y-41216666D01*
X29653333Y-41316666D01*
X29620000Y-41450000D01*
X29586666Y-41516666D01*
X29520000Y-41583333D01*
X29420000Y-41616666D01*
X29253333Y-41616666D01*
X29886666Y-40916666D02*
X30353333Y-40916666D01*
X30053333Y-41616666D01*
%TO.C,C3*%
X30908333Y-19150000D02*
X30875000Y-19183333D01*
X30775000Y-19216666D01*
X30708333Y-19216666D01*
X30608333Y-19183333D01*
X30541666Y-19116666D01*
X30508333Y-19050000D01*
X30475000Y-18916666D01*
X30475000Y-18816666D01*
X30508333Y-18683333D01*
X30541666Y-18616666D01*
X30608333Y-18550000D01*
X30708333Y-18516666D01*
X30775000Y-18516666D01*
X30875000Y-18550000D01*
X30908333Y-18583333D01*
X31141666Y-18516666D02*
X31575000Y-18516666D01*
X31341666Y-18783333D01*
X31441666Y-18783333D01*
X31508333Y-18816666D01*
X31541666Y-18850000D01*
X31575000Y-18916666D01*
X31575000Y-19083333D01*
X31541666Y-19150000D01*
X31508333Y-19183333D01*
X31441666Y-19216666D01*
X31241666Y-19216666D01*
X31175000Y-19183333D01*
X31141666Y-19150000D01*
%TO.C,U3*%
X11316666Y-58516666D02*
X11316666Y-59083333D01*
X11350000Y-59150000D01*
X11383333Y-59183333D01*
X11450000Y-59216666D01*
X11583333Y-59216666D01*
X11650000Y-59183333D01*
X11683333Y-59150000D01*
X11716666Y-59083333D01*
X11716666Y-58516666D01*
X11983333Y-58516666D02*
X12416666Y-58516666D01*
X12183333Y-58783333D01*
X12283333Y-58783333D01*
X12350000Y-58816666D01*
X12383333Y-58850000D01*
X12416666Y-58916666D01*
X12416666Y-59083333D01*
X12383333Y-59150000D01*
X12350000Y-59183333D01*
X12283333Y-59216666D01*
X12083333Y-59216666D01*
X12016666Y-59183333D01*
X11983333Y-59150000D01*
%TO.C,U2*%
X18391666Y-26391666D02*
X18391666Y-26958333D01*
X18425000Y-27025000D01*
X18458333Y-27058333D01*
X18525000Y-27091666D01*
X18658333Y-27091666D01*
X18725000Y-27058333D01*
X18758333Y-27025000D01*
X18791666Y-26958333D01*
X18791666Y-26391666D01*
X19091666Y-26458333D02*
X19125000Y-26425000D01*
X19191666Y-26391666D01*
X19358333Y-26391666D01*
X19425000Y-26425000D01*
X19458333Y-26458333D01*
X19491666Y-26525000D01*
X19491666Y-26591666D01*
X19458333Y-26691666D01*
X19058333Y-27091666D01*
X19491666Y-27091666D01*
%TO.C,Q1*%
X23533333Y-12083333D02*
X23466666Y-12050000D01*
X23400000Y-11983333D01*
X23300000Y-11883333D01*
X23233333Y-11850000D01*
X23166666Y-11850000D01*
X23200000Y-12016666D02*
X23133333Y-11983333D01*
X23066666Y-11916666D01*
X23033333Y-11783333D01*
X23033333Y-11550000D01*
X23066666Y-11416666D01*
X23133333Y-11350000D01*
X23200000Y-11316666D01*
X23333333Y-11316666D01*
X23400000Y-11350000D01*
X23466666Y-11416666D01*
X23500000Y-11550000D01*
X23500000Y-11783333D01*
X23466666Y-11916666D01*
X23400000Y-11983333D01*
X23333333Y-12016666D01*
X23200000Y-12016666D01*
X24166666Y-12016666D02*
X23766666Y-12016666D01*
X23966666Y-12016666D02*
X23966666Y-11316666D01*
X23900000Y-11416666D01*
X23833333Y-11483333D01*
X23766666Y-11516666D01*
D15*
%TO.C,D20*%
X49961428Y-90891428D02*
X49961428Y-90291428D01*
X50104285Y-90291428D01*
X50190000Y-90320000D01*
X50247142Y-90377142D01*
X50275714Y-90434285D01*
X50304285Y-90548571D01*
X50304285Y-90634285D01*
X50275714Y-90748571D01*
X50247142Y-90805714D01*
X50190000Y-90862857D01*
X50104285Y-90891428D01*
X49961428Y-90891428D01*
X50532857Y-90348571D02*
X50561428Y-90320000D01*
X50618571Y-90291428D01*
X50761428Y-90291428D01*
X50818571Y-90320000D01*
X50847142Y-90348571D01*
X50875714Y-90405714D01*
X50875714Y-90462857D01*
X50847142Y-90548571D01*
X50504285Y-90891428D01*
X50875714Y-90891428D01*
X51247142Y-90291428D02*
X51304285Y-90291428D01*
X51361428Y-90320000D01*
X51390000Y-90348571D01*
X51418571Y-90405714D01*
X51447142Y-90520000D01*
X51447142Y-90662857D01*
X51418571Y-90777142D01*
X51390000Y-90834285D01*
X51361428Y-90862857D01*
X51304285Y-90891428D01*
X51247142Y-90891428D01*
X51190000Y-90862857D01*
X51161428Y-90834285D01*
X51132857Y-90777142D01*
X51104285Y-90662857D01*
X51104285Y-90520000D01*
X51132857Y-90405714D01*
X51161428Y-90348571D01*
X51190000Y-90320000D01*
X51247142Y-90291428D01*
D11*
%TO.C,U7*%
X24216666Y-101216666D02*
X24216666Y-101783333D01*
X24250000Y-101850000D01*
X24283333Y-101883333D01*
X24350000Y-101916666D01*
X24483333Y-101916666D01*
X24550000Y-101883333D01*
X24583333Y-101850000D01*
X24616666Y-101783333D01*
X24616666Y-101216666D01*
X24883333Y-101216666D02*
X25350000Y-101216666D01*
X25050000Y-101916666D01*
D15*
%TO.C,D23*%
X49981428Y-83396428D02*
X49981428Y-82796428D01*
X50124285Y-82796428D01*
X50210000Y-82825000D01*
X50267142Y-82882142D01*
X50295714Y-82939285D01*
X50324285Y-83053571D01*
X50324285Y-83139285D01*
X50295714Y-83253571D01*
X50267142Y-83310714D01*
X50210000Y-83367857D01*
X50124285Y-83396428D01*
X49981428Y-83396428D01*
X50552857Y-82853571D02*
X50581428Y-82825000D01*
X50638571Y-82796428D01*
X50781428Y-82796428D01*
X50838571Y-82825000D01*
X50867142Y-82853571D01*
X50895714Y-82910714D01*
X50895714Y-82967857D01*
X50867142Y-83053571D01*
X50524285Y-83396428D01*
X50895714Y-83396428D01*
X51095714Y-82796428D02*
X51467142Y-82796428D01*
X51267142Y-83025000D01*
X51352857Y-83025000D01*
X51410000Y-83053571D01*
X51438571Y-83082142D01*
X51467142Y-83139285D01*
X51467142Y-83282142D01*
X51438571Y-83339285D01*
X51410000Y-83367857D01*
X51352857Y-83396428D01*
X51181428Y-83396428D01*
X51124285Y-83367857D01*
X51095714Y-83339285D01*
D11*
%TO.C,R10*%
X22516666Y-14950000D02*
X22183333Y-15183333D01*
X22516666Y-15350000D02*
X21816666Y-15350000D01*
X21816666Y-15083333D01*
X21850000Y-15016666D01*
X21883333Y-14983333D01*
X21950000Y-14950000D01*
X22050000Y-14950000D01*
X22116666Y-14983333D01*
X22150000Y-15016666D01*
X22183333Y-15083333D01*
X22183333Y-15350000D01*
X22516666Y-14283333D02*
X22516666Y-14683333D01*
X22516666Y-14483333D02*
X21816666Y-14483333D01*
X21916666Y-14550000D01*
X21983333Y-14616666D01*
X22016666Y-14683333D01*
X21816666Y-13850000D02*
X21816666Y-13783333D01*
X21850000Y-13716666D01*
X21883333Y-13683333D01*
X21950000Y-13650000D01*
X22083333Y-13616666D01*
X22250000Y-13616666D01*
X22383333Y-13650000D01*
X22450000Y-13683333D01*
X22483333Y-13716666D01*
X22516666Y-13783333D01*
X22516666Y-13850000D01*
X22483333Y-13916666D01*
X22450000Y-13950000D01*
X22383333Y-13983333D01*
X22250000Y-14016666D01*
X22083333Y-14016666D01*
X21950000Y-13983333D01*
X21883333Y-13950000D01*
X21850000Y-13916666D01*
X21816666Y-13850000D01*
%TO.C,RN7*%
X47066666Y-82716666D02*
X46833333Y-82383333D01*
X46666666Y-82716666D02*
X46666666Y-82016666D01*
X46933333Y-82016666D01*
X47000000Y-82050000D01*
X47033333Y-82083333D01*
X47066666Y-82150000D01*
X47066666Y-82250000D01*
X47033333Y-82316666D01*
X47000000Y-82350000D01*
X46933333Y-82383333D01*
X46666666Y-82383333D01*
X47366666Y-82716666D02*
X47366666Y-82016666D01*
X47766666Y-82716666D01*
X47766666Y-82016666D01*
X48033333Y-82016666D02*
X48500000Y-82016666D01*
X48200000Y-82716666D01*
%TO.C,C13*%
X17025000Y-101600000D02*
X16991666Y-101633333D01*
X16891666Y-101666666D01*
X16825000Y-101666666D01*
X16725000Y-101633333D01*
X16658333Y-101566666D01*
X16625000Y-101500000D01*
X16591666Y-101366666D01*
X16591666Y-101266666D01*
X16625000Y-101133333D01*
X16658333Y-101066666D01*
X16725000Y-101000000D01*
X16825000Y-100966666D01*
X16891666Y-100966666D01*
X16991666Y-101000000D01*
X17025000Y-101033333D01*
X17691666Y-101666666D02*
X17291666Y-101666666D01*
X17491666Y-101666666D02*
X17491666Y-100966666D01*
X17425000Y-101066666D01*
X17358333Y-101133333D01*
X17291666Y-101166666D01*
X17925000Y-100966666D02*
X18358333Y-100966666D01*
X18125000Y-101233333D01*
X18225000Y-101233333D01*
X18291666Y-101266666D01*
X18325000Y-101300000D01*
X18358333Y-101366666D01*
X18358333Y-101533333D01*
X18325000Y-101600000D01*
X18291666Y-101633333D01*
X18225000Y-101666666D01*
X18025000Y-101666666D01*
X17958333Y-101633333D01*
X17925000Y-101600000D01*
%TO.C,D5*%
X20866666Y-14866666D02*
X20166666Y-14866666D01*
X20166666Y-14700000D01*
X20200000Y-14600000D01*
X20266666Y-14533333D01*
X20333333Y-14500000D01*
X20466666Y-14466666D01*
X20566666Y-14466666D01*
X20700000Y-14500000D01*
X20766666Y-14533333D01*
X20833333Y-14600000D01*
X20866666Y-14700000D01*
X20866666Y-14866666D01*
X20166666Y-13833333D02*
X20166666Y-14166666D01*
X20500000Y-14200000D01*
X20466666Y-14166666D01*
X20433333Y-14100000D01*
X20433333Y-13933333D01*
X20466666Y-13866666D01*
X20500000Y-13833333D01*
X20566666Y-13800000D01*
X20733333Y-13800000D01*
X20800000Y-13833333D01*
X20833333Y-13866666D01*
X20866666Y-13933333D01*
X20866666Y-14100000D01*
X20833333Y-14166666D01*
X20800000Y-14200000D01*
%TO.C,R11*%
X26790000Y-34966666D02*
X26556666Y-34633333D01*
X26390000Y-34966666D02*
X26390000Y-34266666D01*
X26656666Y-34266666D01*
X26723333Y-34300000D01*
X26756666Y-34333333D01*
X26790000Y-34400000D01*
X26790000Y-34500000D01*
X26756666Y-34566666D01*
X26723333Y-34600000D01*
X26656666Y-34633333D01*
X26390000Y-34633333D01*
X27456666Y-34966666D02*
X27056666Y-34966666D01*
X27256666Y-34966666D02*
X27256666Y-34266666D01*
X27190000Y-34366666D01*
X27123333Y-34433333D01*
X27056666Y-34466666D01*
X28123333Y-34966666D02*
X27723333Y-34966666D01*
X27923333Y-34966666D02*
X27923333Y-34266666D01*
X27856666Y-34366666D01*
X27790000Y-34433333D01*
X27723333Y-34466666D01*
%TO.C,U4*%
X18566666Y-71866666D02*
X18566666Y-72433333D01*
X18600000Y-72500000D01*
X18633333Y-72533333D01*
X18700000Y-72566666D01*
X18833333Y-72566666D01*
X18900000Y-72533333D01*
X18933333Y-72500000D01*
X18966666Y-72433333D01*
X18966666Y-71866666D01*
X19600000Y-72100000D02*
X19600000Y-72566666D01*
X19433333Y-71833333D02*
X19266666Y-72333333D01*
X19700000Y-72333333D01*
%TO.C,R4*%
X31208333Y-15166666D02*
X30975000Y-14833333D01*
X30808333Y-15166666D02*
X30808333Y-14466666D01*
X31075000Y-14466666D01*
X31141666Y-14500000D01*
X31175000Y-14533333D01*
X31208333Y-14600000D01*
X31208333Y-14700000D01*
X31175000Y-14766666D01*
X31141666Y-14800000D01*
X31075000Y-14833333D01*
X30808333Y-14833333D01*
X31808333Y-14700000D02*
X31808333Y-15166666D01*
X31641666Y-14433333D02*
X31475000Y-14933333D01*
X31908333Y-14933333D01*
%TO.C,C7*%
X9733333Y-42150000D02*
X9700000Y-42183333D01*
X9600000Y-42216666D01*
X9533333Y-42216666D01*
X9433333Y-42183333D01*
X9366666Y-42116666D01*
X9333333Y-42050000D01*
X9300000Y-41916666D01*
X9300000Y-41816666D01*
X9333333Y-41683333D01*
X9366666Y-41616666D01*
X9433333Y-41550000D01*
X9533333Y-41516666D01*
X9600000Y-41516666D01*
X9700000Y-41550000D01*
X9733333Y-41583333D01*
X9966666Y-41516666D02*
X10433333Y-41516666D01*
X10133333Y-42216666D01*
D15*
%TO.C,D10*%
X50031428Y-103331428D02*
X50031428Y-102731428D01*
X50174285Y-102731428D01*
X50260000Y-102760000D01*
X50317142Y-102817142D01*
X50345714Y-102874285D01*
X50374285Y-102988571D01*
X50374285Y-103074285D01*
X50345714Y-103188571D01*
X50317142Y-103245714D01*
X50260000Y-103302857D01*
X50174285Y-103331428D01*
X50031428Y-103331428D01*
X50945714Y-103331428D02*
X50602857Y-103331428D01*
X50774285Y-103331428D02*
X50774285Y-102731428D01*
X50717142Y-102817142D01*
X50660000Y-102874285D01*
X50602857Y-102902857D01*
X51317142Y-102731428D02*
X51374285Y-102731428D01*
X51431428Y-102760000D01*
X51460000Y-102788571D01*
X51488571Y-102845714D01*
X51517142Y-102960000D01*
X51517142Y-103102857D01*
X51488571Y-103217142D01*
X51460000Y-103274285D01*
X51431428Y-103302857D01*
X51374285Y-103331428D01*
X51317142Y-103331428D01*
X51260000Y-103302857D01*
X51231428Y-103274285D01*
X51202857Y-103217142D01*
X51174285Y-103102857D01*
X51174285Y-102960000D01*
X51202857Y-102845714D01*
X51231428Y-102788571D01*
X51260000Y-102760000D01*
X51317142Y-102731428D01*
D11*
%TO.C,JP3*%
X2216666Y-44183333D02*
X2716666Y-44183333D01*
X2816666Y-44216666D01*
X2883333Y-44283333D01*
X2916666Y-44383333D01*
X2916666Y-44450000D01*
X2916666Y-43850000D02*
X2216666Y-43850000D01*
X2216666Y-43583333D01*
X2250000Y-43516666D01*
X2283333Y-43483333D01*
X2350000Y-43450000D01*
X2450000Y-43450000D01*
X2516666Y-43483333D01*
X2550000Y-43516666D01*
X2583333Y-43583333D01*
X2583333Y-43850000D01*
X2216666Y-43216666D02*
X2216666Y-42783333D01*
X2483333Y-43016666D01*
X2483333Y-42916666D01*
X2516666Y-42850000D01*
X2550000Y-42816666D01*
X2616666Y-42783333D01*
X2783333Y-42783333D01*
X2850000Y-42816666D01*
X2883333Y-42850000D01*
X2916666Y-42916666D01*
X2916666Y-43116666D01*
X2883333Y-43183333D01*
X2850000Y-43216666D01*
D13*
%TO.C,D15*%
X49820000Y-53750000D02*
G75*
G03*
X49820000Y-53750000I-50000J0D01*
G01*
D15*
%TO.C,C10*%
X19265000Y-42360000D02*
X19265000Y-40010000D01*
X25020563Y-42360000D02*
X19265000Y-42360000D01*
X26085000Y-41295563D02*
X25020563Y-42360000D01*
X19265000Y-35540000D02*
X19265000Y-37890000D01*
X26085000Y-41295563D02*
X26085000Y-40010000D01*
X25020563Y-35540000D02*
X19265000Y-35540000D01*
X26718750Y-41191250D02*
X26718750Y-40403750D01*
X27112500Y-40797500D02*
X26325000Y-40797500D01*
X26085000Y-36604437D02*
X26085000Y-37890000D01*
X26085000Y-36604437D02*
X25020563Y-35540000D01*
D10*
X26750000Y-37550000D02*
G75*
G03*
X26750000Y-37550000I-75000J0D01*
G01*
D15*
%TO.C,C1*%
X20660000Y-18040580D02*
X20660000Y-17759420D01*
X19640000Y-18040580D02*
X19640000Y-17759420D01*
D13*
%TO.C,D13*%
X51680000Y-58750000D02*
G75*
G03*
X51680000Y-58750000I-50000J0D01*
G01*
D15*
%TO.C,J12*%
X34801000Y-120225000D02*
X35111000Y-120225000D01*
X41891000Y-118805000D02*
X42391000Y-118805000D01*
X42391000Y-104355000D02*
X42391000Y-105775000D01*
X42391000Y-118805000D02*
X42391000Y-120225000D01*
X35111000Y-104355000D02*
X34801000Y-104355000D01*
X42391000Y-105775000D02*
X41891000Y-105775000D01*
X34801000Y-104355000D02*
X34801000Y-120225000D01*
X41891000Y-105775000D02*
X41891000Y-118805000D01*
X42391000Y-120225000D02*
X36631000Y-120225000D01*
X36631000Y-104355000D02*
X42391000Y-104355000D01*
%TO.C,RN1*%
X16300000Y-64420000D02*
X15300000Y-64420000D01*
X16300000Y-67780000D02*
X15300000Y-67780000D01*
%TO.C,R13*%
X15827500Y-53262742D02*
X15827500Y-53737258D01*
X16872500Y-53262742D02*
X16872500Y-53737258D01*
%TO.C,R6*%
X25587258Y-18072500D02*
X25112742Y-18072500D01*
X25587258Y-17027500D02*
X25112742Y-17027500D01*
%TO.C,JP4*%
X10630000Y-10480000D02*
X10630000Y-7820000D01*
X15830000Y-7880000D02*
X13230000Y-7880000D01*
X15830000Y-7880000D02*
X15830000Y-7820000D01*
X15830000Y-7820000D02*
X10630000Y-7820000D01*
X15830000Y-9150000D02*
X15830000Y-10480000D01*
X13230000Y-7880000D02*
X13230000Y-10480000D01*
X13230000Y-10480000D02*
X10630000Y-10480000D01*
X15830000Y-10480000D02*
X14500000Y-10480000D01*
%TO.C,J3*%
X56325000Y-9700000D02*
X55325000Y-9700000D01*
X48375000Y-8350000D02*
X48375000Y-18630000D01*
X52835000Y-17115000D02*
X52776000Y-17055000D01*
X56385000Y-8350000D02*
X47815000Y-8350000D01*
X56325000Y-12200000D02*
X55325000Y-12200000D01*
X53010000Y-16941000D02*
X52970000Y-16901000D01*
X49475000Y-8350000D02*
X49475000Y-18630000D01*
X56325000Y-14780000D02*
X56325000Y-17280000D01*
X56325000Y-14780000D02*
X55325000Y-14780000D01*
X56325000Y-9700000D02*
X56325000Y-12200000D01*
X56325000Y-17280000D02*
X55325000Y-17280000D01*
X47815000Y-8350000D02*
X47815000Y-18630000D01*
X54475000Y-8350000D02*
X54475000Y-18630000D01*
X48315000Y-8110000D02*
X47575000Y-8110000D01*
X51075000Y-15006000D02*
X51015000Y-14946000D01*
X55325000Y-9700000D02*
X55325000Y-12200000D01*
X56385000Y-8350000D02*
X56385000Y-18630000D01*
X55325000Y-14780000D02*
X55325000Y-17280000D01*
X56385000Y-18630000D02*
X47815000Y-18630000D01*
X47575000Y-8110000D02*
X47575000Y-8610000D01*
X50880000Y-15160000D02*
X50840000Y-15120000D01*
X52553000Y-9664000D02*
G75*
G03*
X51298254Y-9663389I-627999J-1285999D01*
G01*
X50639000Y-10322000D02*
G75*
G03*
X50494060Y-10974280I1286000J-628000D01*
G01*
X51298000Y-12236000D02*
G75*
G03*
X52552362Y-12235823I627000J1286006D01*
G01*
X50495000Y-10950000D02*
G75*
G03*
X50639725Y-11576871I1430001J1D01*
G01*
X53210999Y-11577000D02*
G75*
G03*
X53210823Y-10322638I-1286099J627000D01*
G01*
X53355000Y-16030000D02*
G75*
G03*
X53355000Y-16030000I-1430000J0D01*
G01*
%TO.C,J2*%
X27165000Y-540000D02*
X28585000Y-540000D01*
X28585000Y-540000D02*
X28585000Y-6300000D01*
X18715000Y-8130000D02*
X28585000Y-8130000D01*
X18715000Y-7820000D02*
X18715000Y-8130000D01*
X20135000Y-1040000D02*
X27165000Y-1040000D01*
X18715000Y-6300000D02*
X18715000Y-540000D01*
X27165000Y-1040000D02*
X27165000Y-540000D01*
X20135000Y-540000D02*
X20135000Y-1040000D01*
X28585000Y-8130000D02*
X28585000Y-7820000D01*
X18715000Y-540000D02*
X20135000Y-540000D01*
D13*
%TO.C,D8*%
X49890000Y-108900000D02*
G75*
G03*
X49890000Y-108900000I-50000J0D01*
G01*
D15*
%TO.C,RV1*%
X23770000Y-57620000D02*
X23439000Y-57620000D01*
X19360000Y-57620000D02*
X19030000Y-57620000D01*
X19030000Y-57620000D02*
X19030000Y-52880000D01*
X23770000Y-57620000D02*
X23770000Y-52880000D01*
X21659000Y-57620000D02*
X21140000Y-57620000D01*
X23770000Y-52880000D02*
X22640000Y-52880000D01*
X20160000Y-52880000D02*
X19030000Y-52880000D01*
%TO.C,J14*%
X59390000Y-32290000D02*
X54390000Y-32290000D01*
X52190000Y-33510000D02*
X52190000Y-32290000D01*
X59390000Y-33510000D02*
X59390000Y-32290000D01*
X54390000Y-29570000D02*
X54390000Y-29730000D01*
X58890000Y-28400000D02*
X58810000Y-28720000D01*
X55390000Y-30580000D02*
X58810000Y-30580000D01*
X59390000Y-25790000D02*
X59390000Y-27010000D01*
X52190000Y-27010000D02*
X52190000Y-25790000D01*
X52190000Y-25790000D02*
X60610000Y-25790000D01*
X60610000Y-33510000D02*
X52190000Y-33510000D01*
X58890000Y-30900000D02*
X58810000Y-31220000D01*
X58810000Y-31220000D02*
X55390000Y-31220000D01*
X60610000Y-25790000D02*
X60610000Y-33510000D01*
X55390000Y-27010000D02*
X55390000Y-32290000D01*
X52190000Y-32290000D02*
X54390000Y-32290000D01*
X58810000Y-28080000D02*
X58890000Y-28400000D01*
X54390000Y-32290000D02*
X54390000Y-33510000D01*
X55390000Y-28080000D02*
X58810000Y-28080000D01*
X55390000Y-31220000D02*
X55390000Y-30900000D01*
X55390000Y-28720000D02*
X55390000Y-28400000D01*
X58810000Y-28720000D02*
X55390000Y-28720000D01*
X55390000Y-30900000D02*
X55390000Y-30580000D01*
X54390000Y-27010000D02*
X54390000Y-25790000D01*
X54390000Y-27010000D02*
X52190000Y-27010000D01*
X58810000Y-30580000D02*
X58890000Y-30900000D01*
X55390000Y-28400000D02*
X55390000Y-28080000D01*
X59390000Y-27010000D02*
X54390000Y-27010000D01*
%TO.C,R16*%
X24627500Y-46317258D02*
X24627500Y-45842742D01*
X25672500Y-46317258D02*
X25672500Y-45842742D01*
%TO.C,U5*%
X25688560Y-100502440D02*
X25688560Y-100267440D01*
X25688560Y-87482440D02*
X25688560Y-87717440D01*
X17968560Y-87717440D02*
X16153560Y-87717440D01*
X21828560Y-100502440D02*
X17968560Y-100502440D01*
X17968560Y-87482440D02*
X17968560Y-87717440D01*
X21828560Y-100502440D02*
X25688560Y-100502440D01*
X17968560Y-100502440D02*
X17968560Y-100267440D01*
X21828560Y-87482440D02*
X17968560Y-87482440D01*
X21828560Y-87482440D02*
X25688560Y-87482440D01*
D13*
%TO.C,D14*%
X51680000Y-56200000D02*
G75*
G03*
X51680000Y-56200000I-50000J0D01*
G01*
D15*
%TO.C,RN6*%
X47050000Y-66580000D02*
X48050000Y-66580000D01*
X47050000Y-63220000D02*
X48050000Y-63220000D01*
%TO.C,U1*%
X17680000Y-51828000D02*
X16180000Y-51828000D01*
X16180000Y-51828000D02*
X16180000Y-51558000D01*
X16180000Y-51558000D02*
X15080000Y-51558000D01*
X16180000Y-45198000D02*
X13350000Y-45198000D01*
X16180000Y-44928000D02*
X16180000Y-45198000D01*
X17680000Y-44928000D02*
X16180000Y-44928000D01*
%TO.C,R7*%
X29162258Y-17027500D02*
X28687742Y-17027500D01*
X29162258Y-18072500D02*
X28687742Y-18072500D01*
D13*
%TO.C,D11*%
X49890000Y-101400000D02*
G75*
G03*
X49890000Y-101400000I-50000J0D01*
G01*
D15*
%TO.C,R12*%
X24437258Y-34022500D02*
X23962742Y-34022500D01*
X24437258Y-32977500D02*
X23962742Y-32977500D01*
%TO.C,R5*%
X28687742Y-11027500D02*
X29162258Y-11027500D01*
X28687742Y-12072500D02*
X29162258Y-12072500D01*
D13*
%TO.C,D21*%
X51680000Y-88920000D02*
G75*
G03*
X51680000Y-88920000I-50000J0D01*
G01*
D15*
%TO.C,JP1*%
X30949000Y-101180000D02*
X30949000Y-96040000D01*
X30949000Y-101180000D02*
X28289000Y-101180000D01*
X28289000Y-101180000D02*
X28289000Y-96040000D01*
X30949000Y-102450000D02*
X30949000Y-103780000D01*
X30949000Y-103780000D02*
X29619000Y-103780000D01*
X30949000Y-96040000D02*
X28289000Y-96040000D01*
%TO.C,C11*%
X17390000Y-53640580D02*
X17390000Y-53359420D01*
X18410000Y-53640580D02*
X18410000Y-53359420D01*
%TO.C,R14*%
X3237258Y-57327500D02*
X2762742Y-57327500D01*
X3237258Y-58372500D02*
X2762742Y-58372500D01*
%TO.C,L1*%
X42550000Y-38100000D02*
X39550000Y-38100000D01*
X42550000Y-25500000D02*
X42550000Y-38100000D01*
X29950000Y-38100000D02*
X29950000Y-25500000D01*
X29950000Y-25500000D02*
X32950000Y-25500000D01*
X39550000Y-25500000D02*
X42550000Y-25500000D01*
X32950000Y-38100000D02*
X29950000Y-38100000D01*
%TO.C,J16*%
X27060000Y-119680000D02*
X27060000Y-120280000D01*
X32070000Y-119250000D02*
X32070000Y-115250000D01*
X31780000Y-120280000D02*
X31780000Y-114260000D01*
X31200000Y-120280000D02*
X31200000Y-119680000D01*
X23940000Y-120280000D02*
X31780000Y-120280000D01*
X24520000Y-119680000D02*
X24520000Y-120280000D01*
X26120000Y-120280000D02*
X26120000Y-119680000D01*
X26120000Y-119680000D02*
X24520000Y-119680000D01*
X30400000Y-115260000D02*
X30150000Y-115790000D01*
X30150000Y-115790000D02*
X25570000Y-115790000D01*
X25570000Y-115790000D02*
X25320000Y-115260000D01*
X31780000Y-114260000D02*
X23940000Y-114260000D01*
X28660000Y-120280000D02*
X28660000Y-119680000D01*
X30400000Y-115260000D02*
X25320000Y-115260000D01*
X25570000Y-114260000D02*
X25570000Y-115260000D01*
X25320000Y-115260000D02*
X25320000Y-114260000D01*
X30400000Y-114260000D02*
X30400000Y-115260000D01*
X23940000Y-114260000D02*
X23940000Y-120280000D01*
X31200000Y-119680000D02*
X29600000Y-119680000D01*
X28660000Y-119680000D02*
X27060000Y-119680000D01*
X30150000Y-114260000D02*
X30150000Y-115260000D01*
X29600000Y-119680000D02*
X29600000Y-120280000D01*
%TO.C,J9*%
X59380000Y-67460000D02*
X54380000Y-67460000D01*
X54380000Y-77740000D02*
X54380000Y-78960000D01*
X55380000Y-76030000D02*
X58800000Y-76030000D01*
X54380000Y-72520000D02*
X54380000Y-72680000D01*
X58800000Y-69170000D02*
X55380000Y-69170000D01*
X54380000Y-75020000D02*
X54380000Y-75180000D01*
X52180000Y-77740000D02*
X54380000Y-77740000D01*
X54380000Y-67460000D02*
X54380000Y-66240000D01*
X55380000Y-71030000D02*
X58800000Y-71030000D01*
X55380000Y-71670000D02*
X55380000Y-71350000D01*
X58800000Y-71670000D02*
X55380000Y-71670000D01*
X52180000Y-66240000D02*
X60600000Y-66240000D01*
X55380000Y-73850000D02*
X55380000Y-73530000D01*
X54380000Y-70020000D02*
X54380000Y-70180000D01*
X59380000Y-78960000D02*
X59380000Y-77740000D01*
X59380000Y-66240000D02*
X59380000Y-67460000D01*
X60600000Y-78960000D02*
X52180000Y-78960000D01*
X55380000Y-68530000D02*
X58800000Y-68530000D01*
X55380000Y-76670000D02*
X55380000Y-76350000D01*
X55380000Y-73530000D02*
X58800000Y-73530000D01*
X55380000Y-76350000D02*
X55380000Y-76030000D01*
X55380000Y-71350000D02*
X55380000Y-71030000D01*
X52180000Y-67460000D02*
X52180000Y-66240000D01*
X58800000Y-76670000D02*
X55380000Y-76670000D01*
X59380000Y-77740000D02*
X54380000Y-77740000D01*
X55380000Y-69170000D02*
X55380000Y-68850000D01*
X58800000Y-74170000D02*
X55380000Y-74170000D01*
X60600000Y-66240000D02*
X60600000Y-78960000D01*
X58800000Y-73530000D02*
X58880000Y-73850000D01*
X58880000Y-68850000D02*
X58800000Y-69170000D01*
X55380000Y-67460000D02*
X55380000Y-77740000D01*
X58880000Y-71350000D02*
X58800000Y-71670000D01*
X58880000Y-76350000D02*
X58800000Y-76670000D01*
X58880000Y-73850000D02*
X58800000Y-74170000D01*
X55380000Y-74170000D02*
X55380000Y-73850000D01*
X58800000Y-68530000D02*
X58880000Y-68850000D01*
X58800000Y-71030000D02*
X58880000Y-71350000D01*
X55380000Y-68850000D02*
X55380000Y-68530000D01*
X52180000Y-78960000D02*
X52180000Y-77740000D01*
X58800000Y-76030000D02*
X58880000Y-76350000D01*
X54380000Y-67460000D02*
X52180000Y-67460000D01*
%TO.C,Q2*%
X30975000Y-10600000D02*
X30975000Y-12100000D01*
X41375000Y-12100000D02*
X39565000Y-12100000D01*
X41375000Y-10600000D02*
X41375000Y-12100000D01*
X30975000Y-12100000D02*
X32785000Y-12100000D01*
X39565000Y-12100000D02*
X39565000Y-13200000D01*
X32785000Y-12100000D02*
X32785000Y-17225000D01*
%TO.C,R8*%
X28687742Y-16572500D02*
X29162258Y-16572500D01*
X28687742Y-15527500D02*
X29162258Y-15527500D01*
%TO.C,D2*%
X26850000Y-15200000D02*
X26850000Y-13500000D01*
X26850000Y-15200000D02*
X24300000Y-15200000D01*
X26850000Y-13500000D02*
X24300000Y-13500000D01*
D10*
X23825000Y-14350000D02*
G75*
G03*
X23825000Y-14350000I-75000J0D01*
G01*
D15*
%TO.C,D1*%
X21200000Y-16400000D02*
X21200000Y-18950000D01*
X22900000Y-16400000D02*
X22900000Y-18950000D01*
X22900000Y-16400000D02*
X21200000Y-16400000D01*
D10*
X22125000Y-19500000D02*
G75*
G03*
X22125000Y-19500000I-75000J0D01*
G01*
D15*
%TO.C,J13*%
X47560000Y-33190000D02*
X43540000Y-33190000D01*
X47860000Y-41210000D02*
X47860000Y-38710000D01*
X46060000Y-39910000D02*
X47560000Y-39910000D01*
X45250000Y-33690000D02*
X45250000Y-33190000D01*
X46060000Y-40910000D02*
X46060000Y-39910000D01*
X45250000Y-40410000D02*
X44040000Y-40410000D01*
X43540000Y-40910000D02*
X47560000Y-40910000D01*
X44040000Y-40410000D02*
X44040000Y-33690000D01*
X44040000Y-33690000D02*
X45250000Y-33690000D01*
X45250000Y-40910000D02*
X45250000Y-40410000D01*
X45360000Y-41210000D02*
X47860000Y-41210000D01*
X43540000Y-33190000D02*
X43540000Y-40910000D01*
X46060000Y-34190000D02*
X47560000Y-34190000D01*
X46060000Y-33190000D02*
X46060000Y-34190000D01*
X47560000Y-40910000D02*
X47560000Y-33190000D01*
D13*
%TO.C,D17*%
X51680000Y-73968000D02*
G75*
G03*
X51680000Y-73968000I-50000J0D01*
G01*
D15*
%TO.C,J11*%
X55457500Y-91770000D02*
X55457500Y-91450000D01*
X55457500Y-89270000D02*
X55457500Y-88950000D01*
X58957500Y-88950000D02*
X58877500Y-89270000D01*
X59457500Y-81340000D02*
X59457500Y-82560000D01*
X55457500Y-88950000D02*
X55457500Y-88630000D01*
X58877500Y-86130000D02*
X58957500Y-86450000D01*
X52257500Y-81340000D02*
X60677500Y-81340000D01*
X55457500Y-82560000D02*
X55457500Y-92840000D01*
X59457500Y-92840000D02*
X54457500Y-92840000D01*
X54457500Y-85120000D02*
X54457500Y-85280000D01*
X52257500Y-94060000D02*
X52257500Y-92840000D01*
X60677500Y-81340000D02*
X60677500Y-94060000D01*
X54457500Y-87620000D02*
X54457500Y-87780000D01*
X55457500Y-86450000D02*
X55457500Y-86130000D01*
X54457500Y-90120000D02*
X54457500Y-90280000D01*
X58957500Y-91450000D02*
X58877500Y-91770000D01*
X55457500Y-91450000D02*
X55457500Y-91130000D01*
X58877500Y-88630000D02*
X58957500Y-88950000D01*
X54457500Y-92840000D02*
X54457500Y-94060000D01*
X55457500Y-86770000D02*
X55457500Y-86450000D01*
X59457500Y-82560000D02*
X54457500Y-82560000D01*
X60677500Y-94060000D02*
X52257500Y-94060000D01*
X55457500Y-86130000D02*
X58877500Y-86130000D01*
X58877500Y-83630000D02*
X58957500Y-83950000D01*
X59457500Y-94060000D02*
X59457500Y-92840000D01*
X54457500Y-82560000D02*
X54457500Y-81340000D01*
X58877500Y-86770000D02*
X55457500Y-86770000D01*
X52257500Y-92840000D02*
X54457500Y-92840000D01*
X52257500Y-82560000D02*
X52257500Y-81340000D01*
X54457500Y-82560000D02*
X52257500Y-82560000D01*
X55457500Y-84270000D02*
X55457500Y-83950000D01*
X55457500Y-88630000D02*
X58877500Y-88630000D01*
X58957500Y-83950000D02*
X58877500Y-84270000D01*
X58877500Y-89270000D02*
X55457500Y-89270000D01*
X58877500Y-84270000D02*
X55457500Y-84270000D01*
X58877500Y-91130000D02*
X58957500Y-91450000D01*
X55457500Y-91130000D02*
X58877500Y-91130000D01*
X58957500Y-86450000D02*
X58877500Y-86770000D01*
X58877500Y-91770000D02*
X55457500Y-91770000D01*
X55457500Y-83630000D02*
X58877500Y-83630000D01*
X55457500Y-83950000D02*
X55457500Y-83630000D01*
%TO.C,R17*%
X27372500Y-45862742D02*
X27372500Y-46337258D01*
X26327500Y-45862742D02*
X26327500Y-46337258D01*
%TO.C,C4*%
X17900000Y-38810000D02*
X16900000Y-38810000D01*
X7940000Y-31940000D02*
X7940000Y-34790000D01*
X16660000Y-33004437D02*
X16660000Y-34790000D01*
X15595563Y-40660000D02*
X7940000Y-40660000D01*
X16660000Y-39595563D02*
X15595563Y-40660000D01*
X7940000Y-40660000D02*
X7940000Y-37810000D01*
X15595563Y-31940000D02*
X7940000Y-31940000D01*
X17400000Y-39310000D02*
X17400000Y-38310000D01*
X16660000Y-39595563D02*
X16660000Y-37810000D01*
X16660000Y-33004437D02*
X15595563Y-31940000D01*
D10*
X17475000Y-34300000D02*
G75*
G03*
X17475000Y-34300000I-75000J0D01*
G01*
D15*
%TO.C,LF1*%
X31450000Y-57528000D02*
X31450000Y-47928000D01*
X25050000Y-47928000D02*
X25050000Y-57528000D01*
X30450000Y-57528000D02*
X31450000Y-57528000D01*
X31450000Y-47928000D02*
X30450000Y-47928000D01*
X26050000Y-47928000D02*
X25050000Y-47928000D01*
X27850000Y-47928000D02*
X28650000Y-47928000D01*
X27850000Y-57528000D02*
X28650000Y-57528000D01*
%TO.C,D6*%
X43250000Y-25800000D02*
X43250000Y-31200000D01*
X46550000Y-25800000D02*
X43250000Y-25800000D01*
X46550000Y-25800000D02*
X46550000Y-31200000D01*
D10*
X44975000Y-32700000D02*
G75*
G03*
X44975000Y-32700000I-75000J0D01*
G01*
D13*
%TO.C,D22*%
X51680000Y-86440000D02*
G75*
G03*
X51680000Y-86440000I-50000J0D01*
G01*
D15*
%TO.C,C8*%
X18260000Y-29709420D02*
X18260000Y-29990580D01*
X17240000Y-29709420D02*
X17240000Y-29990580D01*
%TO.C,J6*%
X59380000Y-62612000D02*
X54380000Y-62612000D01*
X55380000Y-52332000D02*
X55380000Y-62612000D01*
X54380000Y-59892000D02*
X54380000Y-60052000D01*
X59380000Y-52332000D02*
X54380000Y-52332000D01*
X58800000Y-60902000D02*
X58880000Y-61222000D01*
X60600000Y-63832000D02*
X52180000Y-63832000D01*
X59380000Y-63832000D02*
X59380000Y-62612000D01*
X54380000Y-57392000D02*
X54380000Y-57552000D01*
X55380000Y-55902000D02*
X58800000Y-55902000D01*
X54380000Y-52332000D02*
X54380000Y-51112000D01*
X55380000Y-59042000D02*
X55380000Y-58722000D01*
X58800000Y-54042000D02*
X55380000Y-54042000D01*
X55380000Y-61222000D02*
X55380000Y-60902000D01*
X55380000Y-61542000D02*
X55380000Y-61222000D01*
X58880000Y-53722000D02*
X58800000Y-54042000D01*
X55380000Y-58402000D02*
X58800000Y-58402000D01*
X55380000Y-53722000D02*
X55380000Y-53402000D01*
X58880000Y-56222000D02*
X58800000Y-56542000D01*
X55380000Y-60902000D02*
X58800000Y-60902000D01*
X55380000Y-56222000D02*
X55380000Y-55902000D01*
X58800000Y-58402000D02*
X58880000Y-58722000D01*
X58880000Y-58722000D02*
X58800000Y-59042000D01*
X55380000Y-58722000D02*
X55380000Y-58402000D01*
X52180000Y-52332000D02*
X52180000Y-51112000D01*
X54380000Y-54892000D02*
X54380000Y-55052000D01*
X58800000Y-56542000D02*
X55380000Y-56542000D01*
X58880000Y-61222000D02*
X58800000Y-61542000D01*
X55380000Y-53402000D02*
X58800000Y-53402000D01*
X55380000Y-54042000D02*
X55380000Y-53722000D01*
X58800000Y-53402000D02*
X58880000Y-53722000D01*
X58800000Y-61542000D02*
X55380000Y-61542000D01*
X54380000Y-52332000D02*
X52180000Y-52332000D01*
X59380000Y-51112000D02*
X59380000Y-52332000D01*
X52180000Y-51112000D02*
X60600000Y-51112000D01*
X52180000Y-62612000D02*
X54380000Y-62612000D01*
X55380000Y-56542000D02*
X55380000Y-56222000D01*
X52180000Y-63832000D02*
X52180000Y-62612000D01*
X60600000Y-51112000D02*
X60600000Y-63832000D01*
X58800000Y-59042000D02*
X55380000Y-59042000D01*
X54380000Y-62612000D02*
X54380000Y-63832000D01*
X58800000Y-55902000D02*
X58880000Y-56222000D01*
D13*
%TO.C,D9*%
X51747500Y-106450000D02*
G75*
G03*
X51747500Y-106450000I-50000J0D01*
G01*
%TO.C,D12*%
X49820000Y-61250000D02*
G75*
G03*
X49820000Y-61250000I-50000J0D01*
G01*
D15*
%TO.C,J5*%
X60600000Y-114006000D02*
X52180000Y-114006000D01*
X58800000Y-101076000D02*
X58880000Y-101396000D01*
X55380000Y-101716000D02*
X55380000Y-101396000D01*
X54380000Y-112786000D02*
X54380000Y-114006000D01*
X55380000Y-101076000D02*
X58800000Y-101076000D01*
X54380000Y-107566000D02*
X54380000Y-107726000D01*
X55380000Y-111396000D02*
X55380000Y-111076000D01*
X55380000Y-99216000D02*
X55380000Y-98896000D01*
X54380000Y-110066000D02*
X54380000Y-110226000D01*
X55380000Y-106076000D02*
X58800000Y-106076000D01*
X60600000Y-96286000D02*
X60600000Y-114006000D01*
X58800000Y-106716000D02*
X55380000Y-106716000D01*
X58880000Y-98896000D02*
X58800000Y-99216000D01*
X55380000Y-108576000D02*
X58800000Y-108576000D01*
X54380000Y-105066000D02*
X54380000Y-105226000D01*
X58880000Y-108896000D02*
X58800000Y-109216000D01*
X52180000Y-112786000D02*
X54380000Y-112786000D01*
X54380000Y-100066000D02*
X54380000Y-100226000D01*
X58880000Y-111396000D02*
X58800000Y-111716000D01*
X58800000Y-103576000D02*
X58880000Y-103896000D01*
X55380000Y-97506000D02*
X55380000Y-112786000D01*
X55380000Y-98576000D02*
X58800000Y-98576000D01*
X58800000Y-98576000D02*
X58880000Y-98896000D01*
X52180000Y-114006000D02*
X52180000Y-112786000D01*
X55380000Y-106716000D02*
X55380000Y-106396000D01*
X58800000Y-106076000D02*
X58880000Y-106396000D01*
X54380000Y-97506000D02*
X52180000Y-97506000D01*
X58800000Y-99216000D02*
X55380000Y-99216000D01*
X52180000Y-96286000D02*
X60600000Y-96286000D01*
X55380000Y-111716000D02*
X55380000Y-111396000D01*
X58880000Y-103896000D02*
X58800000Y-104216000D01*
X58800000Y-111076000D02*
X58880000Y-111396000D01*
X58800000Y-111716000D02*
X55380000Y-111716000D01*
X59380000Y-114006000D02*
X59380000Y-112786000D01*
X58880000Y-101396000D02*
X58800000Y-101716000D01*
X55380000Y-103896000D02*
X55380000Y-103576000D01*
X58800000Y-104216000D02*
X55380000Y-104216000D01*
X58880000Y-106396000D02*
X58800000Y-106716000D01*
X54380000Y-102566000D02*
X54380000Y-102726000D01*
X59380000Y-97506000D02*
X54380000Y-97506000D01*
X55380000Y-101396000D02*
X55380000Y-101076000D01*
X54380000Y-97506000D02*
X54380000Y-96286000D01*
X55380000Y-108896000D02*
X55380000Y-108576000D01*
X59380000Y-96286000D02*
X59380000Y-97506000D01*
X55380000Y-111076000D02*
X58800000Y-111076000D01*
X58800000Y-108576000D02*
X58880000Y-108896000D01*
X59380000Y-112786000D02*
X54380000Y-112786000D01*
X55380000Y-104216000D02*
X55380000Y-103896000D01*
X55380000Y-109216000D02*
X55380000Y-108896000D01*
X55380000Y-98896000D02*
X55380000Y-98576000D01*
X58800000Y-109216000D02*
X55380000Y-109216000D01*
X52180000Y-97506000D02*
X52180000Y-96286000D01*
X55380000Y-106396000D02*
X55380000Y-106076000D01*
X58800000Y-101716000D02*
X55380000Y-101716000D01*
X55380000Y-103576000D02*
X58800000Y-103576000D01*
%TO.C,RN3*%
X28550000Y-108880000D02*
X27550000Y-108880000D01*
X28550000Y-105520000D02*
X27550000Y-105520000D01*
%TO.C,K1*%
X39230000Y-47635000D02*
X36690000Y-47635000D01*
X32710000Y-43145000D02*
X43710000Y-43145000D01*
X39988000Y-57525000D02*
X40700000Y-57525000D01*
X36690000Y-47635000D02*
X36690000Y-47125000D01*
X34400000Y-47125000D02*
X36690000Y-47125000D01*
X39230000Y-46615000D02*
X39230000Y-47125000D01*
X36690000Y-47125000D02*
X36690000Y-46615000D01*
X34400000Y-58825000D02*
X34400000Y-57779000D01*
X36690000Y-46615000D02*
X39230000Y-46615000D01*
X39230000Y-47125000D02*
X42020000Y-47125000D01*
X42020000Y-47125000D02*
X42020000Y-46225000D01*
X34400000Y-46225000D02*
X34400000Y-47125000D01*
X34146000Y-55493000D02*
X39480000Y-57525000D01*
X32710000Y-43145000D02*
X32710000Y-64285000D01*
X39230000Y-47125000D02*
X39230000Y-47635000D01*
X43710000Y-43145000D02*
X43710000Y-64285000D01*
X37450000Y-46615000D02*
X38460000Y-47635000D01*
X32710000Y-64285000D02*
X43710000Y-64285000D01*
X39988000Y-57525000D02*
G75*
G03*
X39988000Y-57525000I-254000J0D01*
G01*
%TO.C,RN2*%
X16300000Y-108862000D02*
X15300000Y-108862000D01*
X16300000Y-105502000D02*
X15300000Y-105502000D01*
%TO.C,C16*%
X29578420Y-85590000D02*
X29859580Y-85590000D01*
X29578420Y-86610000D02*
X29859580Y-86610000D01*
%TO.C,C2*%
X25490580Y-15540000D02*
X25209420Y-15540000D01*
X25490580Y-16560000D02*
X25209420Y-16560000D01*
%TO.C,Q3*%
X26240000Y-30577500D02*
X26240000Y-29927500D01*
X26240000Y-30577500D02*
X26240000Y-31227500D01*
X29360000Y-30577500D02*
X29360000Y-31227500D01*
X29360000Y-30577500D02*
X29360000Y-28902500D01*
D10*
X28825000Y-28627500D02*
G75*
G03*
X28825000Y-28627500I-75000J0D01*
G01*
D15*
%TO.C,J10*%
X36631000Y-85537000D02*
X42391000Y-85537000D01*
X35111000Y-85537000D02*
X34801000Y-85537000D01*
X42391000Y-99987000D02*
X42391000Y-101407000D01*
X34801000Y-101407000D02*
X35111000Y-101407000D01*
X41891000Y-86957000D02*
X41891000Y-99987000D01*
X42391000Y-85537000D02*
X42391000Y-86957000D01*
X42391000Y-101407000D02*
X36631000Y-101407000D01*
X41891000Y-99987000D02*
X42391000Y-99987000D01*
X42391000Y-86957000D02*
X41891000Y-86957000D01*
X34801000Y-85537000D02*
X34801000Y-101407000D01*
%TO.C,C5*%
X14740580Y-44560000D02*
X14459420Y-44560000D01*
X14740580Y-43540000D02*
X14459420Y-43540000D01*
D16*
%TO.C,J1*%
X950000Y-28950000D02*
X950000Y-30500000D01*
X950000Y-30500000D02*
X2950000Y-30500000D01*
X950000Y-14500000D02*
X950000Y-16050000D01*
X5950000Y-30500000D02*
X10950000Y-30500000D01*
X10950000Y-14500000D02*
X5950000Y-14500000D01*
X2950000Y-14500000D02*
X950000Y-14500000D01*
X950000Y-16050000D02*
X-3050000Y-16050000D01*
X-3050000Y-28950000D02*
X950000Y-28950000D01*
X-3050000Y-16050000D02*
X-3050000Y-28950000D01*
X14350000Y-29150000D02*
X14350000Y-15850000D01*
D13*
%TO.C,D18*%
X51680000Y-71470000D02*
G75*
G03*
X51680000Y-71470000I-50000J0D01*
G01*
%TO.C,D16*%
X51680000Y-76350000D02*
G75*
G03*
X51680000Y-76350000I-50000J0D01*
G01*
D15*
%TO.C,JP2*%
X5930000Y-53880000D02*
X5930000Y-48740000D01*
X5930000Y-48740000D02*
X3270000Y-48740000D01*
X3270000Y-53880000D02*
X3270000Y-48740000D01*
X5930000Y-55150000D02*
X5930000Y-56480000D01*
X5930000Y-53880000D02*
X3270000Y-53880000D01*
X5930000Y-56480000D02*
X4600000Y-56480000D01*
%TO.C,C14*%
X16909000Y-70409420D02*
X16909000Y-70690580D01*
X17929000Y-70409420D02*
X17929000Y-70690580D01*
%TO.C,R9*%
X29162258Y-12527500D02*
X28687742Y-12527500D01*
X29162258Y-13572500D02*
X28687742Y-13572500D01*
%TO.C,Q4*%
X30276000Y-47026000D02*
X29626000Y-47026000D01*
X30276000Y-47026000D02*
X30926000Y-47026000D01*
X30276000Y-43906000D02*
X28601000Y-43906000D01*
X30276000Y-43906000D02*
X30926000Y-43906000D01*
D10*
X28401000Y-44516000D02*
G75*
G03*
X28401000Y-44516000I-75000J0D01*
G01*
D15*
%TO.C,J7*%
X34801000Y-82611000D02*
X35111000Y-82611000D01*
X35111000Y-66741000D02*
X34801000Y-66741000D01*
X41891000Y-81191000D02*
X42391000Y-81191000D01*
X42391000Y-68161000D02*
X41891000Y-68161000D01*
X41891000Y-68161000D02*
X41891000Y-81191000D01*
X42391000Y-81191000D02*
X42391000Y-82611000D01*
X42391000Y-66741000D02*
X42391000Y-68161000D01*
X34801000Y-66741000D02*
X34801000Y-82611000D01*
X42391000Y-82611000D02*
X36631000Y-82611000D01*
X36631000Y-66741000D02*
X42391000Y-66741000D01*
%TO.C,C6*%
X11540580Y-52510000D02*
X11259420Y-52510000D01*
X11540580Y-51490000D02*
X11259420Y-51490000D01*
%TO.C,R2*%
X29572500Y-74387258D02*
X29572500Y-73912742D01*
X28527500Y-74387258D02*
X28527500Y-73912742D01*
%TO.C,RN4*%
X27550000Y-67780000D02*
X28550000Y-67780000D01*
X27550000Y-64420000D02*
X28550000Y-64420000D01*
%TO.C,C15*%
X27378420Y-71340000D02*
X27659580Y-71340000D01*
X27378420Y-72360000D02*
X27659580Y-72360000D01*
%TO.C,C9*%
X22009420Y-27010000D02*
X22290580Y-27010000D01*
X22009420Y-25990000D02*
X22290580Y-25990000D01*
%TO.C,RN8*%
X47000000Y-93470000D02*
X48000000Y-93470000D01*
X47000000Y-96830000D02*
X48000000Y-96830000D01*
%TO.C,C12*%
X6009420Y-57340000D02*
X6290580Y-57340000D01*
X6009420Y-58360000D02*
X6290580Y-58360000D01*
%TO.C,U6*%
X21954000Y-71120000D02*
X20004000Y-71120000D01*
X21954000Y-61000000D02*
X20004000Y-61000000D01*
X21954000Y-71120000D02*
X25404000Y-71120000D01*
X21954000Y-61000000D02*
X23904000Y-61000000D01*
%TO.C,R3*%
X25587258Y-19572500D02*
X25112742Y-19572500D01*
X25587258Y-18527500D02*
X25112742Y-18527500D01*
D13*
%TO.C,D19*%
X49820000Y-68950000D02*
G75*
G03*
X49820000Y-68950000I-50000J0D01*
G01*
D15*
%TO.C,J4*%
X13525656Y-69885000D02*
X13958669Y-69635000D01*
X13064331Y-113115000D02*
X724331Y-113115000D01*
X724331Y-59895000D02*
X13064331Y-59895000D01*
X13064331Y-59895000D02*
X13064331Y-113115000D01*
X13958669Y-70135000D02*
X13525656Y-69885000D01*
X13958669Y-69635000D02*
X13958669Y-70135000D01*
%TO.C,J17*%
X16070000Y-120280000D02*
X16070000Y-119680000D01*
X15520000Y-115790000D02*
X15270000Y-115260000D01*
X20350000Y-115260000D02*
X20100000Y-115790000D01*
X20100000Y-115790000D02*
X15520000Y-115790000D01*
X22020000Y-119250000D02*
X22020000Y-115250000D01*
X18610000Y-119680000D02*
X17010000Y-119680000D01*
X14470000Y-119680000D02*
X14470000Y-120280000D01*
X15520000Y-114260000D02*
X15520000Y-115260000D01*
X15270000Y-115260000D02*
X15270000Y-114260000D01*
X20100000Y-114260000D02*
X20100000Y-115260000D01*
X17010000Y-119680000D02*
X17010000Y-120280000D01*
X21730000Y-120280000D02*
X21730000Y-114260000D01*
X13890000Y-120280000D02*
X21730000Y-120280000D01*
X21150000Y-119680000D02*
X19550000Y-119680000D01*
X21150000Y-120280000D02*
X21150000Y-119680000D01*
X16070000Y-119680000D02*
X14470000Y-119680000D01*
X19550000Y-119680000D02*
X19550000Y-120280000D01*
X20350000Y-115260000D02*
X15270000Y-115260000D01*
X13890000Y-114260000D02*
X13890000Y-120280000D01*
X21730000Y-114260000D02*
X13890000Y-114260000D01*
X18610000Y-120280000D02*
X18610000Y-119680000D01*
X20350000Y-114260000D02*
X20350000Y-115260000D01*
%TO.C,D4*%
X19250000Y-10300000D02*
X17550000Y-10300000D01*
X19250000Y-10300000D02*
X19250000Y-12850000D01*
X17550000Y-10300000D02*
X17550000Y-12850000D01*
D10*
X18475000Y-13400000D02*
G75*
G03*
X18475000Y-13400000I-75000J0D01*
G01*
D15*
%TO.C,RN5*%
X47050000Y-116480000D02*
X48050000Y-116480000D01*
X47050000Y-113120000D02*
X48050000Y-113120000D01*
%TO.C,D3*%
X13253000Y-11215000D02*
X10703000Y-11215000D01*
X13253000Y-12915000D02*
X13253000Y-11215000D01*
X13253000Y-12915000D02*
X10703000Y-12915000D01*
D10*
X10228000Y-12065000D02*
G75*
G03*
X10228000Y-12065000I-75000J0D01*
G01*
D15*
%TO.C,J8*%
X55380000Y-41420000D02*
X55380000Y-41100000D01*
X60600000Y-35990000D02*
X60600000Y-48710000D01*
X59380000Y-37210000D02*
X54380000Y-37210000D01*
X55380000Y-43920000D02*
X55380000Y-43600000D01*
X58800000Y-41420000D02*
X55380000Y-41420000D01*
X55380000Y-43280000D02*
X58800000Y-43280000D01*
X55380000Y-43600000D02*
X55380000Y-43280000D01*
X59380000Y-47490000D02*
X54380000Y-47490000D01*
X54380000Y-42270000D02*
X54380000Y-42430000D01*
X58800000Y-45780000D02*
X58880000Y-46100000D01*
X58880000Y-46100000D02*
X58800000Y-46420000D01*
X58880000Y-41100000D02*
X58800000Y-41420000D01*
X55380000Y-46420000D02*
X55380000Y-46100000D01*
X55380000Y-38280000D02*
X58800000Y-38280000D01*
X52180000Y-48710000D02*
X52180000Y-47490000D01*
X55380000Y-46100000D02*
X55380000Y-45780000D01*
X52180000Y-35990000D02*
X60600000Y-35990000D01*
X58800000Y-46420000D02*
X55380000Y-46420000D01*
X55380000Y-37210000D02*
X55380000Y-47490000D01*
X52180000Y-47490000D02*
X54380000Y-47490000D01*
X58880000Y-43600000D02*
X58800000Y-43920000D01*
X55380000Y-38920000D02*
X55380000Y-38600000D01*
X58800000Y-40780000D02*
X58880000Y-41100000D01*
X55380000Y-45780000D02*
X58800000Y-45780000D01*
X58800000Y-43920000D02*
X55380000Y-43920000D01*
X59380000Y-35990000D02*
X59380000Y-37210000D01*
X58800000Y-38280000D02*
X58880000Y-38600000D01*
X54380000Y-47490000D02*
X54380000Y-48710000D01*
X59380000Y-48710000D02*
X59380000Y-47490000D01*
X58880000Y-38600000D02*
X58800000Y-38920000D01*
X54380000Y-37210000D02*
X54380000Y-35990000D01*
X58800000Y-43280000D02*
X58880000Y-43600000D01*
X55380000Y-40780000D02*
X58800000Y-40780000D01*
X58800000Y-38920000D02*
X55380000Y-38920000D01*
X55380000Y-41100000D02*
X55380000Y-40780000D01*
X54380000Y-37210000D02*
X52180000Y-37210000D01*
X54380000Y-44770000D02*
X54380000Y-44930000D01*
X55380000Y-38600000D02*
X55380000Y-38280000D01*
X52180000Y-37210000D02*
X52180000Y-35990000D01*
X54380000Y-39770000D02*
X54380000Y-39930000D01*
X60600000Y-48710000D02*
X52180000Y-48710000D01*
%TO.C,R15*%
X17362500Y-57387258D02*
X17362500Y-56912742D01*
X16317500Y-57387258D02*
X16317500Y-56912742D01*
%TO.C,D7*%
X28268000Y-41822000D02*
X28268000Y-43522000D01*
X28268000Y-43522000D02*
X30818000Y-43522000D01*
X28268000Y-41822000D02*
X30818000Y-41822000D01*
D10*
X31443000Y-42672000D02*
G75*
G03*
X31443000Y-42672000I-75000J0D01*
G01*
D15*
%TO.C,C3*%
X28784420Y-19560000D02*
X29065580Y-19560000D01*
X28784420Y-18540000D02*
X29065580Y-18540000D01*
%TO.C,U3*%
X11830000Y-58248000D02*
X13780000Y-58248000D01*
X11830000Y-53128000D02*
X13780000Y-53128000D01*
X11830000Y-58248000D02*
X9880000Y-58248000D01*
X11830000Y-53128000D02*
X8380000Y-53128000D01*
%TO.C,U2*%
X22200000Y-32560000D02*
X24150000Y-32560000D01*
X22200000Y-27440000D02*
X24150000Y-27440000D01*
X22200000Y-32560000D02*
X20250000Y-32560000D01*
X22200000Y-27440000D02*
X18750000Y-27440000D01*
%TO.C,Q1*%
X24961000Y-10090000D02*
X25611000Y-10090000D01*
X24961000Y-10090000D02*
X23286000Y-10090000D01*
X24961000Y-13210000D02*
X25611000Y-13210000D01*
X24961000Y-13210000D02*
X24311000Y-13210000D01*
D10*
X23086000Y-10700000D02*
G75*
G03*
X23086000Y-10700000I-75000J0D01*
G01*
D13*
%TO.C,D20*%
X51680000Y-91450000D02*
G75*
G03*
X51680000Y-91450000I-50000J0D01*
G01*
D15*
%TO.C,U7*%
X21954000Y-112242000D02*
X20004000Y-112242000D01*
X21954000Y-102122000D02*
X23904000Y-102122000D01*
X21954000Y-112242000D02*
X25404000Y-112242000D01*
X21954000Y-102122000D02*
X20004000Y-102122000D01*
D13*
%TO.C,D23*%
X49820000Y-83950000D02*
G75*
G03*
X49820000Y-83950000I-50000J0D01*
G01*
D15*
%TO.C,R10*%
X21677500Y-11512742D02*
X21677500Y-11987258D01*
X22722500Y-11512742D02*
X22722500Y-11987258D01*
%TO.C,RN7*%
X47050000Y-81830000D02*
X48050000Y-81830000D01*
X47050000Y-78470000D02*
X48050000Y-78470000D01*
%TO.C,C13*%
X16709580Y-102090000D02*
X16428420Y-102090000D01*
X16709580Y-103110000D02*
X16428420Y-103110000D01*
%TO.C,D5*%
X21300000Y-10300000D02*
X19600000Y-10300000D01*
X19600000Y-10300000D02*
X19600000Y-12850000D01*
X21300000Y-10300000D02*
X21300000Y-12850000D01*
D10*
X20525000Y-13400000D02*
G75*
G03*
X20525000Y-13400000I-75000J0D01*
G01*
D15*
%TO.C,R11*%
X27012742Y-34022500D02*
X27487258Y-34022500D01*
X27012742Y-32977500D02*
X27487258Y-32977500D01*
%TO.C,U4*%
X18218560Y-73046440D02*
X16403560Y-73046440D01*
X22078560Y-72811440D02*
X25938560Y-72811440D01*
X25938560Y-85831440D02*
X25938560Y-85596440D01*
X22078560Y-85831440D02*
X18218560Y-85831440D01*
X25938560Y-72811440D02*
X25938560Y-73046440D01*
X22078560Y-85831440D02*
X25938560Y-85831440D01*
X22078560Y-72811440D02*
X18218560Y-72811440D01*
X18218560Y-72811440D02*
X18218560Y-73046440D01*
X18218560Y-85831440D02*
X18218560Y-85596440D01*
%TO.C,R4*%
X28687742Y-15072500D02*
X29162258Y-15072500D01*
X28687742Y-14027500D02*
X29162258Y-14027500D01*
%TO.C,C7*%
X8340000Y-43050000D02*
X8340000Y-51110000D01*
X8340000Y-51110000D02*
X12860000Y-51110000D01*
X12860000Y-51110000D02*
X12860000Y-43050000D01*
D13*
%TO.C,D10*%
X51750000Y-103890000D02*
G75*
G03*
X51750000Y-103890000I-50000J0D01*
G01*
D15*
%TO.C,JP3*%
X3320000Y-39745000D02*
X4650000Y-39745000D01*
X3320000Y-42345000D02*
X3320000Y-47485000D01*
X3320000Y-42345000D02*
X5980000Y-42345000D01*
X3320000Y-41075000D02*
X3320000Y-39745000D01*
X5980000Y-42345000D02*
X5980000Y-47485000D01*
X3320000Y-47485000D02*
X5980000Y-47485000D01*
%TD*%
M02*
