%TF.GenerationSoftware,KiCad,Pcbnew,(6.0.4-0)*%
%TF.CreationDate,2022-05-22T20:42:40+12:00*%
%TF.ProjectId,controller,636f6e74-726f-46c6-9c65-722e6b696361,1.0*%
%TF.SameCoordinates,PX4900f70PY2ebae40*%
%TF.FileFunction,Soldermask,Top*%
%TF.FilePolarity,Negative*%
%FSLAX46Y46*%
G04 Gerber Fmt 4.6, Leading zero omitted, Abs format (unit mm)*
G04 Created by KiCad (PCBNEW (6.0.4-0)) date 2022-05-22 20:42:40*
%MOMM*%
%LPD*%
G01*
G04 APERTURE LIST*
G04 Aperture macros list*
%AMRoundRect*
0 Rectangle with rounded corners*
0 $1 Rounding radius*
0 $2 $3 $4 $5 $6 $7 $8 $9 X,Y pos of 4 corners*
0 Add a 4 corners polygon primitive as box body*
4,1,4,$2,$3,$4,$5,$6,$7,$8,$9,$2,$3,0*
0 Add four circle primitives for the rounded corners*
1,1,$1+$1,$2,$3*
1,1,$1+$1,$4,$5*
1,1,$1+$1,$6,$7*
1,1,$1+$1,$8,$9*
0 Add four rect primitives between the rounded corners*
20,1,$1+$1,$2,$3,$4,$5,0*
20,1,$1+$1,$4,$5,$6,$7,0*
20,1,$1+$1,$6,$7,$8,$9,0*
20,1,$1+$1,$8,$9,$2,$3,0*%
G04 Aperture macros list end*
%ADD10RoundRect,0.147500X0.147500X0.172500X-0.147500X0.172500X-0.147500X-0.172500X0.147500X-0.172500X0*%
%ADD11RoundRect,0.250000X1.500000X0.550000X-1.500000X0.550000X-1.500000X-0.550000X1.500000X-0.550000X0*%
%ADD12RoundRect,0.225000X0.250000X-0.225000X0.250000X0.225000X-0.250000X0.225000X-0.250000X-0.225000X0*%
%ADD13RoundRect,0.147500X-0.147500X-0.172500X0.147500X-0.172500X0.147500X0.172500X-0.147500X0.172500X0*%
%ADD14C,1.000000*%
%ADD15RoundRect,0.250001X-0.499999X0.499999X-0.499999X-0.499999X0.499999X-0.499999X0.499999X0.499999X0*%
%ADD16C,1.500000*%
%ADD17R,0.800000X0.500000*%
%ADD18R,0.800000X0.400000*%
%ADD19RoundRect,0.200000X-0.275000X0.200000X-0.275000X-0.200000X0.275000X-0.200000X0.275000X0.200000X0*%
%ADD20RoundRect,0.200000X0.200000X0.275000X-0.200000X0.275000X-0.200000X-0.275000X0.200000X-0.275000X0*%
%ADD21R,1.700000X1.700000*%
%ADD22O,1.700000X1.700000*%
%ADD23R,2.100000X2.100000*%
%ADD24C,2.100000*%
%ADD25RoundRect,0.250001X-0.499999X-0.499999X0.499999X-0.499999X0.499999X0.499999X-0.499999X0.499999X0*%
%ADD26R,1.300000X2.000000*%
%ADD27R,2.000000X2.000000*%
%ADD28RoundRect,0.250000X-0.750000X0.600000X-0.750000X-0.600000X0.750000X-0.600000X0.750000X0.600000X0*%
%ADD29O,2.000000X1.700000*%
%ADD30RoundRect,0.200000X0.275000X-0.200000X0.275000X0.200000X-0.275000X0.200000X-0.275000X-0.200000X0*%
%ADD31RoundRect,0.150000X-0.875000X-0.150000X0.875000X-0.150000X0.875000X0.150000X-0.875000X0.150000X0*%
%ADD32R,2.200000X1.200000*%
%ADD33R,6.400000X5.800000*%
%ADD34RoundRect,0.200000X-0.200000X-0.275000X0.200000X-0.275000X0.200000X0.275000X-0.200000X0.275000X0*%
%ADD35R,5.400000X2.900000*%
%ADD36RoundRect,0.250000X0.620000X0.845000X-0.620000X0.845000X-0.620000X-0.845000X0.620000X-0.845000X0*%
%ADD37O,1.740000X2.190000*%
%ADD38RoundRect,0.250000X-0.725000X0.600000X-0.725000X-0.600000X0.725000X-0.600000X0.725000X0.600000X0*%
%ADD39O,1.950000X1.700000*%
%ADD40R,1.100000X4.600000*%
%ADD41R,10.800000X9.400000*%
%ADD42R,0.600000X0.450000*%
%ADD43R,0.450000X0.600000*%
%ADD44RoundRect,0.250000X0.750000X-0.600000X0.750000X0.600000X-0.750000X0.600000X-0.750000X-0.600000X0*%
%ADD45C,5.500000*%
%ADD46RoundRect,0.250000X1.950000X1.000000X-1.950000X1.000000X-1.950000X-1.000000X1.950000X-1.000000X0*%
%ADD47R,1.200000X2.000000*%
%ADD48R,1.800000X2.500000*%
%ADD49RoundRect,0.225000X-0.250000X0.225000X-0.250000X-0.225000X0.250000X-0.225000X0.250000X0.225000X0*%
%ADD50C,2.300000*%
%ADD51R,2.300000X2.300000*%
%ADD52RoundRect,0.225000X-0.225000X-0.250000X0.225000X-0.250000X0.225000X0.250000X-0.225000X0.250000X0*%
%ADD53RoundRect,0.225000X0.225000X0.250000X-0.225000X0.250000X-0.225000X-0.250000X0.225000X-0.250000X0*%
%ADD54RoundRect,0.150000X-0.150000X0.587500X-0.150000X-0.587500X0.150000X-0.587500X0.150000X0.587500X0*%
%ADD55C,2.200000*%
%ADD56C,1.700000*%
%ADD57O,3.200000X1.600000*%
%ADD58O,1.750000X3.500000*%
%ADD59RoundRect,0.150000X-0.587500X-0.150000X0.587500X-0.150000X0.587500X0.150000X-0.587500X0.150000X0*%
%ADD60C,1.448000*%
%ADD61RoundRect,0.150000X0.725000X0.150000X-0.725000X0.150000X-0.725000X-0.150000X0.725000X-0.150000X0*%
%ADD62C,4.000000*%
%ADD63R,1.600000X1.600000*%
%ADD64C,1.600000*%
%ADD65RoundRect,0.150000X-0.825000X-0.150000X0.825000X-0.150000X0.825000X0.150000X-0.825000X0.150000X0*%
%ADD66RoundRect,0.250000X1.025000X-0.787500X1.025000X0.787500X-1.025000X0.787500X-1.025000X-0.787500X0*%
G04 APERTURE END LIST*
D10*
%TO.C,D15*%
X51185000Y-53750000D03*
X50215000Y-53750000D03*
%TD*%
D11*
%TO.C,C10*%
X25375000Y-38950000D03*
X19975000Y-38950000D03*
%TD*%
D12*
%TO.C,C1*%
X20150000Y-18675000D03*
X20150000Y-17125000D03*
%TD*%
D13*
%TO.C,D13*%
X50215000Y-58750000D03*
X51185000Y-58750000D03*
%TD*%
D14*
%TO.C,J12*%
X35871000Y-104790000D03*
X35871000Y-119790000D03*
D15*
X39811000Y-107790000D03*
D16*
X39811000Y-110790000D03*
X39811000Y-113790000D03*
X39811000Y-116790000D03*
X36811000Y-107790000D03*
X36811000Y-110790000D03*
X36811000Y-113790000D03*
X36811000Y-116790000D03*
%TD*%
D17*
%TO.C,RN1*%
X14900000Y-64900000D03*
D18*
X14900000Y-65700000D03*
X14900000Y-66500000D03*
D17*
X14900000Y-67300000D03*
X16700000Y-67300000D03*
D18*
X16700000Y-66500000D03*
X16700000Y-65700000D03*
D17*
X16700000Y-64900000D03*
%TD*%
D19*
%TO.C,R13*%
X16350000Y-52675000D03*
X16350000Y-54325000D03*
%TD*%
D20*
%TO.C,R6*%
X26175000Y-17550000D03*
X24525000Y-17550000D03*
%TD*%
D21*
%TO.C,JP4*%
X14500000Y-9150000D03*
D22*
X11960000Y-9150000D03*
%TD*%
D23*
%TO.C,J3*%
X51925000Y-10950000D03*
D24*
X51925000Y-16030000D03*
%TD*%
D14*
%TO.C,J2*%
X28150000Y-7060000D03*
X19150000Y-7060000D03*
D25*
X22150000Y-3120000D03*
D16*
X25150000Y-3120000D03*
X22150000Y-6120000D03*
X25150000Y-6120000D03*
%TD*%
D10*
%TO.C,D8*%
X51255000Y-108900000D03*
X50285000Y-108900000D03*
%TD*%
D26*
%TO.C,RV1*%
X20250000Y-57250000D03*
D27*
X21400000Y-53250000D03*
D26*
X22550000Y-57250000D03*
%TD*%
D28*
%TO.C,J14*%
X53800000Y-28400000D03*
D29*
X53800000Y-30900000D03*
%TD*%
D30*
%TO.C,R16*%
X25150000Y-46905000D03*
X25150000Y-45255000D03*
%TD*%
D31*
%TO.C,U5*%
X17178560Y-88277440D03*
X17178560Y-89547440D03*
X17178560Y-90817440D03*
X17178560Y-92087440D03*
X17178560Y-93357440D03*
X17178560Y-94627440D03*
X17178560Y-95897440D03*
X17178560Y-97167440D03*
X17178560Y-98437440D03*
X17178560Y-99707440D03*
X26478560Y-99707440D03*
X26478560Y-98437440D03*
X26478560Y-97167440D03*
X26478560Y-95897440D03*
X26478560Y-94627440D03*
X26478560Y-93357440D03*
X26478560Y-92087440D03*
X26478560Y-90817440D03*
X26478560Y-89547440D03*
X26478560Y-88277440D03*
%TD*%
D13*
%TO.C,D14*%
X50215000Y-56200000D03*
X51185000Y-56200000D03*
%TD*%
D17*
%TO.C,RN6*%
X48450000Y-66100000D03*
D18*
X48450000Y-65300000D03*
X48450000Y-64500000D03*
D17*
X48450000Y-63700000D03*
X46650000Y-63700000D03*
D18*
X46650000Y-64500000D03*
X46650000Y-65300000D03*
D17*
X46650000Y-66100000D03*
%TD*%
D32*
%TO.C,U1*%
X14450000Y-46098000D03*
D33*
X20750000Y-48378000D03*
D32*
X14450000Y-50658000D03*
%TD*%
D20*
%TO.C,R7*%
X29750000Y-17550000D03*
X28100000Y-17550000D03*
%TD*%
D10*
%TO.C,D11*%
X51255000Y-101400000D03*
X50285000Y-101400000D03*
%TD*%
D20*
%TO.C,R12*%
X25025000Y-33500000D03*
X23375000Y-33500000D03*
%TD*%
D34*
%TO.C,R5*%
X28100000Y-11550000D03*
X29750000Y-11550000D03*
%TD*%
D13*
%TO.C,D21*%
X50215000Y-88920000D03*
X51185000Y-88920000D03*
%TD*%
D21*
%TO.C,JP1*%
X29619000Y-102450000D03*
D22*
X29619000Y-99910000D03*
X29619000Y-97370000D03*
%TD*%
D12*
%TO.C,C11*%
X17900000Y-54275000D03*
X17900000Y-52725000D03*
%TD*%
D20*
%TO.C,R14*%
X3825000Y-57850000D03*
X2175000Y-57850000D03*
%TD*%
D35*
%TO.C,L1*%
X36250000Y-26850000D03*
X36250000Y-36750000D03*
%TD*%
D36*
%TO.C,J16*%
X30400000Y-117250000D03*
D37*
X27860000Y-117250000D03*
X25320000Y-117250000D03*
%TD*%
D38*
%TO.C,J9*%
X53790000Y-68850000D03*
D39*
X53790000Y-71350000D03*
X53790000Y-73850000D03*
X53790000Y-76350000D03*
%TD*%
D40*
%TO.C,Q2*%
X33635000Y-14925000D03*
D41*
X36175000Y-5775000D03*
D40*
X38715000Y-14925000D03*
%TD*%
D34*
%TO.C,R8*%
X28100000Y-16050000D03*
X29750000Y-16050000D03*
%TD*%
D42*
%TO.C,D2*%
X26400000Y-14350000D03*
X24300000Y-14350000D03*
%TD*%
D43*
%TO.C,D1*%
X22050000Y-16850000D03*
X22050000Y-18950000D03*
%TD*%
D44*
%TO.C,J13*%
X45250000Y-38300000D03*
D29*
X45250000Y-35800000D03*
%TD*%
D13*
%TO.C,D17*%
X50215000Y-73968000D03*
X51185000Y-73968000D03*
%TD*%
D38*
%TO.C,J11*%
X53867500Y-83950000D03*
D39*
X53867500Y-86450000D03*
X53867500Y-88950000D03*
X53867500Y-91450000D03*
%TD*%
D19*
%TO.C,R17*%
X26850000Y-45275000D03*
X26850000Y-46925000D03*
%TD*%
D45*
%TO.C,H4*%
X54000000Y-119000000D03*
%TD*%
D46*
%TO.C,C4*%
X16000000Y-36300000D03*
X8600000Y-36300000D03*
%TD*%
D47*
%TO.C,LF1*%
X26980000Y-56478000D03*
X29520000Y-56478000D03*
X29520000Y-48978000D03*
X26980000Y-48978000D03*
%TD*%
D48*
%TO.C,D6*%
X44900000Y-27200000D03*
X44900000Y-31200000D03*
%TD*%
D13*
%TO.C,D22*%
X50215000Y-86440000D03*
X51185000Y-86440000D03*
%TD*%
D49*
%TO.C,C8*%
X17750000Y-29075000D03*
X17750000Y-30625000D03*
%TD*%
D38*
%TO.C,J6*%
X53790000Y-53722000D03*
D39*
X53790000Y-56222000D03*
X53790000Y-58722000D03*
X53790000Y-61222000D03*
%TD*%
D13*
%TO.C,D9*%
X50282500Y-106450000D03*
X51252500Y-106450000D03*
%TD*%
D10*
%TO.C,D12*%
X51185000Y-61250000D03*
X50215000Y-61250000D03*
%TD*%
D38*
%TO.C,J5*%
X53790000Y-98896000D03*
D39*
X53790000Y-101396000D03*
X53790000Y-103896000D03*
X53790000Y-106396000D03*
X53790000Y-108896000D03*
X53790000Y-111396000D03*
%TD*%
D17*
%TO.C,RN3*%
X27150000Y-106000000D03*
D18*
X27150000Y-106800000D03*
X27150000Y-107600000D03*
D17*
X27150000Y-108400000D03*
X28950000Y-108400000D03*
D18*
X28950000Y-107600000D03*
X28950000Y-106800000D03*
D17*
X28950000Y-106000000D03*
%TD*%
D50*
%TO.C,K1*%
X42020000Y-44825000D03*
X42000000Y-57525000D03*
X34400000Y-60065000D03*
D51*
X34400000Y-44825000D03*
%TD*%
D17*
%TO.C,RN2*%
X14900000Y-105982000D03*
D18*
X14900000Y-106782000D03*
X14900000Y-107582000D03*
D17*
X14900000Y-108382000D03*
X16700000Y-108382000D03*
D18*
X16700000Y-107582000D03*
X16700000Y-106782000D03*
D17*
X16700000Y-105982000D03*
%TD*%
D52*
%TO.C,C16*%
X28944000Y-86100000D03*
X30494000Y-86100000D03*
%TD*%
D53*
%TO.C,C2*%
X26125000Y-16050000D03*
X24575000Y-16050000D03*
%TD*%
D54*
%TO.C,Q3*%
X28750000Y-29640000D03*
X26850000Y-29640000D03*
X27800000Y-31515000D03*
%TD*%
D14*
%TO.C,J10*%
X35871000Y-100972000D03*
X35871000Y-85972000D03*
D15*
X39811000Y-88972000D03*
D16*
X39811000Y-91972000D03*
X39811000Y-94972000D03*
X39811000Y-97972000D03*
X36811000Y-88972000D03*
X36811000Y-91972000D03*
X36811000Y-94972000D03*
X36811000Y-97972000D03*
%TD*%
D53*
%TO.C,C5*%
X15375000Y-44050000D03*
X13825000Y-44050000D03*
%TD*%
D55*
%TO.C,J1*%
X4450000Y-30300000D03*
D56*
X4450000Y-25000000D03*
D55*
X4450000Y-14700000D03*
D56*
X4450000Y-20000000D03*
D57*
X11600000Y-25400000D03*
X7950000Y-25000000D03*
X7950000Y-20000000D03*
X11600000Y-19600000D03*
X12950000Y-14700000D03*
D58*
X2450000Y-22500000D03*
D57*
X12950000Y-30300000D03*
%TD*%
D13*
%TO.C,D18*%
X50215000Y-71470000D03*
X51185000Y-71470000D03*
%TD*%
%TO.C,D16*%
X50215000Y-76350000D03*
X51185000Y-76350000D03*
%TD*%
D21*
%TO.C,JP2*%
X4600000Y-55150000D03*
D22*
X4600000Y-52610000D03*
X4600000Y-50070000D03*
%TD*%
D49*
%TO.C,C14*%
X17419000Y-69775000D03*
X17419000Y-71325000D03*
%TD*%
D20*
%TO.C,R9*%
X29750000Y-13050000D03*
X28100000Y-13050000D03*
%TD*%
D59*
%TO.C,Q4*%
X29338500Y-44516000D03*
X29338500Y-46416000D03*
X31213500Y-45466000D03*
%TD*%
D14*
%TO.C,J7*%
X35871000Y-67176000D03*
X35871000Y-82176000D03*
D15*
X39811000Y-70176000D03*
D16*
X39811000Y-73176000D03*
X39811000Y-76176000D03*
X39811000Y-79176000D03*
X36811000Y-70176000D03*
X36811000Y-73176000D03*
X36811000Y-76176000D03*
X36811000Y-79176000D03*
%TD*%
D60*
%TO.C,TH2*%
X48710000Y-119380000D03*
%TD*%
D53*
%TO.C,C6*%
X12175000Y-52000000D03*
X10625000Y-52000000D03*
%TD*%
D30*
%TO.C,R2*%
X29050000Y-74975000D03*
X29050000Y-73325000D03*
%TD*%
D17*
%TO.C,RN4*%
X28950000Y-67300000D03*
D18*
X28950000Y-66500000D03*
X28950000Y-65700000D03*
D17*
X28950000Y-64900000D03*
X27150000Y-64900000D03*
D18*
X27150000Y-65700000D03*
X27150000Y-66500000D03*
D17*
X27150000Y-67300000D03*
%TD*%
D52*
%TO.C,C15*%
X26744000Y-71850000D03*
X28294000Y-71850000D03*
%TD*%
%TO.C,C9*%
X21375000Y-26500000D03*
X22925000Y-26500000D03*
%TD*%
D17*
%TO.C,RN8*%
X48400000Y-96350000D03*
D18*
X48400000Y-95550000D03*
X48400000Y-94750000D03*
D17*
X48400000Y-93950000D03*
X46600000Y-93950000D03*
D18*
X46600000Y-94750000D03*
X46600000Y-95550000D03*
D17*
X46600000Y-96350000D03*
%TD*%
D52*
%TO.C,C12*%
X5375000Y-57850000D03*
X6925000Y-57850000D03*
%TD*%
D61*
%TO.C,U6*%
X24529000Y-70505000D03*
X24529000Y-69235000D03*
X24529000Y-67965000D03*
X24529000Y-66695000D03*
X24529000Y-65425000D03*
X24529000Y-64155000D03*
X24529000Y-62885000D03*
X24529000Y-61615000D03*
X19379000Y-61615000D03*
X19379000Y-62885000D03*
X19379000Y-64155000D03*
X19379000Y-65425000D03*
X19379000Y-66695000D03*
X19379000Y-67965000D03*
X19379000Y-69235000D03*
X19379000Y-70505000D03*
%TD*%
D20*
%TO.C,R3*%
X26175000Y-19050000D03*
X24525000Y-19050000D03*
%TD*%
D10*
%TO.C,D19*%
X51185000Y-68950000D03*
X50215000Y-68950000D03*
%TD*%
D62*
%TO.C,J4*%
X9784331Y-110055000D03*
X9784331Y-62955000D03*
D63*
X11204331Y-69885000D03*
D64*
X11204331Y-72655000D03*
X11204331Y-75425000D03*
X11204331Y-78195000D03*
X11204331Y-80965000D03*
X11204331Y-83735000D03*
X11204331Y-86505000D03*
X11204331Y-89275000D03*
X11204331Y-92045000D03*
X11204331Y-94815000D03*
X11204331Y-97585000D03*
X11204331Y-100355000D03*
X11204331Y-103125000D03*
X8364331Y-71270000D03*
X8364331Y-74040000D03*
X8364331Y-76810000D03*
X8364331Y-79580000D03*
X8364331Y-82350000D03*
X8364331Y-85120000D03*
X8364331Y-87890000D03*
X8364331Y-90660000D03*
X8364331Y-93430000D03*
X8364331Y-96200000D03*
X8364331Y-98970000D03*
X8364331Y-101740000D03*
%TD*%
D36*
%TO.C,J17*%
X20350000Y-117250000D03*
D37*
X17810000Y-117250000D03*
X15270000Y-117250000D03*
%TD*%
D43*
%TO.C,D4*%
X18400000Y-10750000D03*
X18400000Y-12850000D03*
%TD*%
D45*
%TO.C,H1*%
X3000000Y-3000000D03*
%TD*%
D17*
%TO.C,RN5*%
X48450000Y-116000000D03*
D18*
X48450000Y-115200000D03*
X48450000Y-114400000D03*
D17*
X48450000Y-113600000D03*
X46650000Y-113600000D03*
D18*
X46650000Y-114400000D03*
X46650000Y-115200000D03*
D17*
X46650000Y-116000000D03*
%TD*%
D42*
%TO.C,D3*%
X12803000Y-12065000D03*
X10703000Y-12065000D03*
%TD*%
D38*
%TO.C,J8*%
X53790000Y-38600000D03*
D39*
X53790000Y-41100000D03*
X53790000Y-43600000D03*
X53790000Y-46100000D03*
%TD*%
D45*
%TO.C,H3*%
X3000000Y-119000000D03*
%TD*%
D30*
%TO.C,R15*%
X16840000Y-57975000D03*
X16840000Y-56325000D03*
%TD*%
D42*
%TO.C,D7*%
X28718000Y-42672000D03*
X30818000Y-42672000D03*
%TD*%
D52*
%TO.C,C3*%
X28150000Y-19050000D03*
X29700000Y-19050000D03*
%TD*%
D65*
%TO.C,U3*%
X9355000Y-53783000D03*
X9355000Y-55053000D03*
X9355000Y-56323000D03*
X9355000Y-57593000D03*
X14305000Y-57593000D03*
X14305000Y-56323000D03*
X14305000Y-55053000D03*
X14305000Y-53783000D03*
%TD*%
%TO.C,U2*%
X19725000Y-28095000D03*
X19725000Y-29365000D03*
X19725000Y-30635000D03*
X19725000Y-31905000D03*
X24675000Y-31905000D03*
X24675000Y-30635000D03*
X24675000Y-29365000D03*
X24675000Y-28095000D03*
%TD*%
D59*
%TO.C,Q1*%
X24023500Y-10700000D03*
X24023500Y-12600000D03*
X25898500Y-11650000D03*
%TD*%
D13*
%TO.C,D20*%
X50215000Y-91450000D03*
X51185000Y-91450000D03*
%TD*%
D61*
%TO.C,U7*%
X24529000Y-111627000D03*
X24529000Y-110357000D03*
X24529000Y-109087000D03*
X24529000Y-107817000D03*
X24529000Y-106547000D03*
X24529000Y-105277000D03*
X24529000Y-104007000D03*
X24529000Y-102737000D03*
X19379000Y-102737000D03*
X19379000Y-104007000D03*
X19379000Y-105277000D03*
X19379000Y-106547000D03*
X19379000Y-107817000D03*
X19379000Y-109087000D03*
X19379000Y-110357000D03*
X19379000Y-111627000D03*
%TD*%
D10*
%TO.C,D23*%
X51185000Y-83950000D03*
X50215000Y-83950000D03*
%TD*%
D19*
%TO.C,R10*%
X22200000Y-10925000D03*
X22200000Y-12575000D03*
%TD*%
D17*
%TO.C,RN7*%
X48450000Y-81350000D03*
D18*
X48450000Y-80550000D03*
X48450000Y-79750000D03*
D17*
X48450000Y-78950000D03*
X46650000Y-78950000D03*
D18*
X46650000Y-79750000D03*
X46650000Y-80550000D03*
D17*
X46650000Y-81350000D03*
%TD*%
D53*
%TO.C,C13*%
X17344000Y-102600000D03*
X15794000Y-102600000D03*
%TD*%
D60*
%TO.C,TH3*%
X1720000Y-63500000D03*
%TD*%
D43*
%TO.C,D5*%
X20450000Y-10750000D03*
X20450000Y-12850000D03*
%TD*%
D45*
%TO.C,H2*%
X54000000Y-3000000D03*
%TD*%
D34*
%TO.C,R11*%
X26425000Y-33500000D03*
X28075000Y-33500000D03*
%TD*%
D31*
%TO.C,U4*%
X17428560Y-73606440D03*
X17428560Y-74876440D03*
X17428560Y-76146440D03*
X17428560Y-77416440D03*
X17428560Y-78686440D03*
X17428560Y-79956440D03*
X17428560Y-81226440D03*
X17428560Y-82496440D03*
X17428560Y-83766440D03*
X17428560Y-85036440D03*
X26728560Y-85036440D03*
X26728560Y-83766440D03*
X26728560Y-82496440D03*
X26728560Y-81226440D03*
X26728560Y-79956440D03*
X26728560Y-78686440D03*
X26728560Y-77416440D03*
X26728560Y-76146440D03*
X26728560Y-74876440D03*
X26728560Y-73606440D03*
%TD*%
D34*
%TO.C,R4*%
X28100000Y-14550000D03*
X29750000Y-14550000D03*
%TD*%
D66*
%TO.C,C7*%
X10600000Y-49812500D03*
X10600000Y-43587500D03*
%TD*%
D13*
%TO.C,D10*%
X50285000Y-103890000D03*
X51255000Y-103890000D03*
%TD*%
D21*
%TO.C,JP3*%
X4650000Y-41075000D03*
D22*
X4650000Y-43615000D03*
X4650000Y-46155000D03*
%TD*%
M02*
