M48
; DRILL file {KiCad (6.0.4-0)} date Sunday, 22 May 2022 at 08:42:49 pm
; FORMAT={-:-/ absolute / metric / decimal}
; #@! TF.CreationDate,2022-05-22T20:42:49+12:00
; #@! TF.GenerationSoftware,Kicad,Pcbnew,(6.0.4-0)
; #@! TF.FileFunction,MixedPlating,1,2
FMAT,2
METRIC
; #@! TA.AperFunction,Plated,PTH,ViaDrill
T1C0.300
; #@! TA.AperFunction,Plated,PTH,ViaDrill
T2C0.600
; #@! TA.AperFunction,Plated,PTH,ComponentDrill
T3C0.600
; #@! TA.AperFunction,Plated,PTH,ComponentDrill
T4C0.950
; #@! TA.AperFunction,Plated,PTH,ComponentDrill
T5C1.000
; #@! TA.AperFunction,Plated,PTH,ComponentDrill
T6C1.100
; #@! TA.AperFunction,Plated,PTH,ComponentDrill
T7C1.190
; #@! TA.AperFunction,Plated,PTH,ComponentDrill
T8C1.300
; #@! TA.AperFunction,Plated,PTH,ComponentDrill
T9C3.200
; #@! TA.AperFunction,NonPlated,NPTH,ComponentDrill
T10C1.000
; #@! TA.AperFunction,NonPlated,NPTH,ComponentDrill
T11C1.152
; #@! TA.AperFunction,NonPlated,NPTH,ComponentDrill
T12C1.700
; #@! TA.AperFunction,NonPlated,NPTH,ComponentDrill
T13C2.200
%
G90
G05
T1
X1.0Y-14.0
X1.0Y-31.0
X1.0Y-54.0
X1.0Y-66.0
X1.0Y-78.0
X1.0Y-90.0
X1.0Y-102.0
X1.0Y-114.0
X1.05Y-44.35
X2.3Y-59.05
X2.95Y-54.25
X3.0Y-49.75
X3.15Y-56.45
X4.842Y-80.831
X4.85Y-72.6
X4.85Y-87.9
X4.85Y-66.65
X5.475Y-48.1
X5.5Y-51.35
X5.75Y-88.6
X5.8Y-36.3
X6.35Y-38.2
X6.4Y-34.4
X6.5Y-80.845
X6.7Y-66.65
X6.7Y-75.35
X7.9Y-57.85
X8.026Y-54.418
X8.349Y-40.099
X8.425Y-17.05
X8.6Y-34.4
X8.6Y-38.2
X8.65Y-50.75
X8.85Y-43.6
X9.505Y-78.203
X9.7Y-70.4
X9.7Y-72.25
X9.85Y-76.05
X10.75Y-38.2
X10.8Y-34.4
X10.85Y-57.6
X10.95Y-53.65
X11.0Y-1.0
X11.0Y-55.2
X11.0Y-121.0
X11.05Y-10.8
X11.3Y-36.3
X11.349Y-40.099
X11.7Y-96.25
X12.5Y-43.0
X12.5Y-57.6
X12.5Y-87.4
X12.6Y-94.3
X12.75Y-69.3
X12.8Y-54.6
X12.85Y-10.8
X13.55Y-103.95
X13.75Y-67.6
X13.8Y-27.6
X13.95Y-17.75
X13.95Y-91.25
X14.0Y-71.85
X14.1Y-34.35
X14.3Y-38.25
X14.3Y-40.15
X14.5Y-109.374
X14.55Y-88.15
X14.6Y-90.46
X15.034Y-73.416
X15.2Y-18.85
X15.45Y-94.3
X15.5Y-90.0
X15.75Y-99.7
X15.75Y-105.1
X15.8Y-101.6
X15.9Y-72.15
X16.025Y-19.8
X16.1Y-104.255
X16.4Y-10.8
X16.45Y-17.75
X16.52Y-63.72
X16.55Y-43.55
X16.75Y-47.75
X16.85Y-58.85
X16.95Y-87.3
X17.25Y-19.85
X17.25Y-27.4
X17.35Y-40.3
X17.35Y-68.2
X17.45Y-109.35
X17.6Y-104.8
X18.04Y-61.62
X18.15Y-46.125
X18.15Y-47.625
X18.15Y-49.1
X18.15Y-50.65
X18.35Y-30.65
X18.6Y-33.75
X18.9Y-37.05
X18.95Y-17.75
X19.0Y-58.1
X19.2Y-1.0
X19.35Y-71.35
X19.4Y-13.85
X19.4Y-51.95
X19.45Y-74.65
X19.475Y-46.125
X19.475Y-47.625
X19.475Y-49.1
X19.475Y-50.65
X19.5Y-54.0
X19.558Y-33.158
X19.95Y-40.3
X20.1Y-15.9
X20.1Y-25.05
X20.45Y-9.875
X20.5Y-35.8
X20.6Y-55.4
X20.75Y-46.125
X20.75Y-47.625
X20.75Y-49.1
X20.75Y-50.65
X20.769Y-61.6
X20.85Y-91.25
X20.85Y-97.2
X20.85Y-101.7
X20.85Y-111.6
X20.9Y-80.591
X20.9Y-86.975
X20.9Y-93.0
X20.9Y-104.95
X20.9Y-109.4
X20.919Y-74.65
X20.95Y-89.2
X21.042Y-34.642
X21.05Y-30.65
X21.069Y-72.375
X21.84Y-43.0
X22.0Y-18.0
X22.05Y-34.25
X22.05Y-46.125
X22.05Y-47.625
X22.05Y-49.1
X22.05Y-50.65
X22.1Y-38.9
X22.192Y-9.949
X22.6Y-7.8
X22.7Y-72.35
X22.85Y-37.85
X22.85Y-89.2
X22.85Y-91.25
X22.85Y-118.5
X22.869Y-97.2
X22.9Y-74.65
X22.9Y-80.55
X22.9Y-86.975
X22.9Y-93.0
X22.9Y-101.7
X22.9Y-106.55
X22.9Y-109.1
X22.9Y-111.65
X22.931Y-104.0
X23.0Y-35.1
X23.0Y-121.0
X23.05Y-40.2
X23.069Y-62.9
X23.069Y-65.4
X23.119Y-67.95
X23.2Y-15.15
X23.25Y-13.6
X23.292Y-30.667
X23.3Y-52.4
X23.325Y-17.55
X23.35Y-46.125
X23.35Y-47.625
X23.35Y-49.1
X23.35Y-50.65
X23.35Y-70.5
X23.375Y-19.35
X23.63Y-44.83
X23.65Y-16.05
X23.85Y-76.1
X24.4Y-7.8
X24.55Y-74.85
X24.55Y-89.6
X24.65Y-115.4
X24.7Y-93.15
X24.7Y-99.25
X25.0Y-92.106
X25.15Y-59.83
X25.25Y-76.85
X25.35Y-44.0
X25.67Y-56.43
X25.675Y-48.975
X25.9Y-63.0
X25.9Y-111.6
X25.95Y-72.7
X26.0Y-67.4
X26.0Y-69.85
X26.1Y-86.2
X26.2Y-64.3
X26.525Y-31.1
X26.7Y-116.15
X26.96Y-58.34
X26.98Y-54.36
X27.23Y-51.46
X27.23Y-61.59
X27.4Y-6.0
X27.45Y-72.725
X27.6Y-1.0
X27.7Y-30.0
X27.85Y-87.25
X28.0Y-47.3
X28.05Y-92.7
X28.05Y-105.05
X28.25Y-56.41
X28.25Y-95.3
X28.35Y-10.4
X28.8Y-110.25
X28.8Y-111.675
X28.9Y-31.14
X28.92Y-20.01
X29.3Y-34.65
X29.73Y-87.24
X29.75Y-92.7
X29.84Y-53.98
X29.95Y-68.2
X30.0Y-66.55
X30.07Y-58.29
X30.1Y-76.1
X30.13Y-75.05
X30.13Y-80.92
X30.3Y-47.3
X30.4Y-107.15
X30.55Y-96.4
X30.64Y-110.09
X31.25Y-2.85
X31.25Y-4.45
X31.25Y-6.05
X31.25Y-7.65
X31.25Y-9.25
X31.323Y-80.023
X32.04Y-74.83
X32.1Y-43.725
X32.1Y-65.4
X32.1Y-66.95
X32.1Y-85.35
X32.1Y-90.5
X32.15Y-51.6
X32.15Y-53.98
X32.15Y-55.625
X32.15Y-57.35
X32.25Y-70.2
X32.25Y-83.15
X32.33Y-111.81
X32.35Y-15.7
X32.4Y-12.95
X32.4Y-14.2
X32.4Y-95.3
X32.45Y-47.85
X32.45Y-103.65
X32.85Y-2.85
X32.85Y-4.45
X32.85Y-6.05
X32.85Y-7.65
X32.85Y-9.25
X33.05Y-20.0
X33.25Y-106.3
X33.305Y-103.055
X33.35Y-48.75
X33.45Y-97.6
X33.5Y-107.4
X33.5Y-109.9
X33.7Y-101.9
X33.71Y-46.68
X33.75Y-55.6
X33.95Y-57.35
X33.98Y-62.48
X34.09Y-53.94
X34.3Y-112.8
X34.45Y-2.85
X34.45Y-4.45
X34.45Y-6.05
X34.45Y-7.65
X34.45Y-9.25
X34.49Y-73.94
X34.5Y-40.2
X34.51Y-67.36
X34.51Y-71.23
X34.55Y-47.53
X34.98Y-12.41
X35.0Y-121.0
X35.15Y-17.57
X35.3Y-116.65
X35.5Y-87.1
X35.5Y-90.5
X35.5Y-94.0
X35.55Y-106.85
X35.67Y-52.43
X35.78Y-55.6
X35.78Y-57.35
X36.05Y-2.85
X36.05Y-4.45
X36.05Y-6.05
X36.05Y-7.65
X36.05Y-9.25
X36.059Y-78.059
X36.1Y-24.5
X36.2Y-38.9
X36.2Y-39.95
X36.2Y-40.9
X36.2Y-46.6
X36.23Y-43.86
X36.49Y-63.96
X37.1Y-105.1
X37.15Y-15.29
X37.2Y-100.25
X37.225Y-119.675
X37.45Y-12.41
X37.45Y-68.9
X37.45Y-83.05
X37.45Y-85.3
X37.51Y-64.95
X37.65Y-2.85
X37.65Y-4.45
X37.65Y-6.05
X37.65Y-7.65
X37.65Y-9.25
X38.31Y-49.81
X38.35Y-99.0
X38.6Y-39.95
X38.65Y-40.85
X38.75Y-38.9
X38.75Y-43.85
X38.957Y-78.075
X39.05Y-83.05
X39.05Y-90.55
X39.25Y-2.85
X39.25Y-4.45
X39.25Y-6.05
X39.25Y-7.65
X39.25Y-9.25
X39.3Y-21.4
X39.3Y-24.5
X39.4Y-86.65
X39.5Y-41.5
X39.5Y-67.1
X39.51Y-52.33
X39.52Y-55.76
X39.52Y-58.73
X39.75Y-32.25
X39.75Y-35.7
X39.8Y-48.25
X39.95Y-101.7
X40.12Y-62.11
X40.85Y-2.85
X40.85Y-4.45
X40.85Y-6.05
X40.85Y-7.65
X40.85Y-9.25
X40.85Y-39.15
X40.95Y-105.15
X41.1Y-72.5
X41.3Y-50.5
X41.3Y-53.85
X41.3Y-77.675
X41.375Y-90.0
X41.375Y-106.85
X41.45Y-68.9
X41.45Y-96.0
X41.9Y-81.925
X41.9Y-85.95
X42.05Y-102.9
X42.27Y-64.16
X43.05Y-36.9
X43.2Y-48.59
X43.28Y-56.05
X43.3Y-51.83
X43.6Y-31.2
X43.75Y-41.45
X44.125Y-39.8
X44.4Y-105.2
X44.5Y-97.05
X44.5Y-102.9
X44.55Y-111.6
X44.7Y-106.85
X44.74Y-69.89
X44.75Y-73.45
X44.75Y-76.55
X44.9Y-29.2
X44.93Y-61.49
X44.93Y-66.89
X45.0Y-82.025
X45.05Y-86.9
X45.05Y-89.35
X45.2Y-46.45
X45.5Y-43.15
X45.66Y-49.56
X45.69Y-53.66
X45.8Y-112.6
X45.85Y-109.55
X46.15Y-77.75
X46.2Y-68.55
X46.25Y-31.2
X46.25Y-34.5
X46.3Y-116.95
X46.6Y-93.05
X46.65Y-87.05
X46.65Y-111.4
X47.0Y-44.65
X47.0Y-121.0
X47.05Y-41.7
X47.2Y-104.75
X47.24Y-47.99
X47.25Y-69.9
X47.25Y-109.55
X47.3Y-55.575
X47.35Y-77.6
X47.55Y-62.7
X47.55Y-67.65
X47.55Y-93.05
X47.55Y-98.2
X47.85Y-73.45
X47.9Y-84.25
X48.0Y-110.25
X48.1Y-52.5
X48.35Y-77.25
X48.35Y-89.35
X48.5Y-93.1
X48.69Y-46.54
X48.7Y-29.6
X48.7Y-34.15
X48.725Y-25.275
X48.75Y-83.05
X48.9Y-39.75
X49.05Y-42.7
X49.1Y-62.35
X49.16Y-112.58
X49.3Y-84.85
X49.3Y-110.08
X49.5Y-54.95
X49.5Y-102.925
X49.5Y-104.8
X49.528Y-101.978
X49.55Y-90.55
X49.58Y-115.63
X49.6Y-57.15
X49.6Y-65.65
X49.6Y-70.05
X49.7Y-59.75
X49.85Y-80.7
X49.95Y-8.975
X49.95Y-10.925
X49.95Y-12.825
X49.95Y-14.325
X49.95Y-16.05
X49.95Y-17.7
X50.35Y-79.35
X50.73Y-44.43
X50.975Y-67.375
X51.15Y-94.2
X51.225Y-14.325
X51.225Y-17.7
X51.25Y-8.975
X51.25Y-12.825
X51.6Y-63.625
X51.625Y-40.025
X51.78Y-113.4
X51.85Y-52.45
X51.85Y-54.9
X51.95Y-82.75
X52.1Y-70.05
X52.2Y-60.45
X52.3Y-42.8
X52.307Y-37.7
X52.65Y-8.975
X52.65Y-12.825
X52.65Y-14.325
X52.65Y-17.7
X52.75Y-48.3
X53.925Y-8.975
X53.925Y-10.925
X53.925Y-12.825
X53.925Y-14.325
X53.95Y-16.05
X53.975Y-17.675
X54.0Y-81.9
X54.35Y-25.225
X54.475Y-79.625
X56.2Y-26.4
X56.2Y-34.8
X56.2Y-50.0
X56.2Y-65.0
X56.2Y-80.2
X56.2Y-95.2
X56.2Y-115.0
T2
X16.65Y-46.1
X29.65Y-1.25
X29.65Y-2.85
X29.65Y-4.45
X29.65Y-6.05
X29.65Y-7.65
X29.65Y-9.25
X31.25Y-1.25
X31.25Y-10.85
X32.85Y-1.25
X32.85Y-10.85
X34.05Y-49.95
X34.45Y-1.25
X34.45Y-10.85
X34.9Y-50.8
X35.8Y-48.2
X36.05Y-1.25
X36.05Y-10.85
X36.6Y-49.0
X37.65Y-1.25
X37.65Y-10.85
X39.25Y-1.25
X39.25Y-10.85
X40.85Y-1.25
X40.85Y-10.85
X40.85Y-12.45
X40.85Y-14.05
X40.85Y-15.65
X40.85Y-17.25
X40.85Y-18.85
X40.85Y-20.45
X40.85Y-22.05
X40.85Y-23.65
X42.45Y-1.25
X42.45Y-2.85
X42.45Y-4.45
X42.45Y-6.05
X42.45Y-7.65
X42.45Y-9.25
X42.45Y-10.85
X42.45Y-12.45
X42.45Y-14.05
X42.45Y-15.65
X42.45Y-17.25
X42.45Y-18.85
X42.45Y-20.45
X42.45Y-22.05
X42.45Y-23.65
X44.05Y-1.25
X44.05Y-2.85
X44.05Y-4.45
X44.05Y-6.05
X44.05Y-7.65
X44.05Y-9.25
X44.05Y-10.85
X44.05Y-12.45
X44.05Y-14.05
X44.05Y-15.65
X44.05Y-17.25
X44.05Y-18.85
X44.05Y-20.45
X44.05Y-22.05
X44.05Y-23.65
X44.35Y-42.65
X45.65Y-1.25
X45.65Y-2.85
X45.65Y-4.45
X45.65Y-6.05
X45.65Y-7.65
X45.65Y-9.25
X45.65Y-10.85
X45.65Y-12.45
X45.65Y-14.05
X45.65Y-15.65
X45.65Y-17.25
X45.65Y-18.85
X45.65Y-20.45
X45.65Y-22.05
X45.65Y-23.65
X47.25Y-9.25
X47.25Y-10.85
X47.25Y-12.45
X47.25Y-14.05
X47.25Y-15.65
X47.25Y-17.25
X47.25Y-18.85
X47.25Y-20.45
X47.25Y-22.05
X47.25Y-23.65
X50.275Y-20.475
X50.275Y-22.075
X50.275Y-23.675
X51.875Y-20.475
X51.875Y-22.075
X51.875Y-23.675
X53.475Y-20.475
X53.475Y-22.075
X53.475Y-23.675
T4
X53.79Y-38.6
X53.79Y-41.1
X53.79Y-43.6
X53.79Y-46.1
X53.79Y-53.722
X53.79Y-56.222
X53.79Y-58.722
X53.79Y-61.222
X53.79Y-68.85
X53.79Y-71.35
X53.79Y-73.85
X53.79Y-76.35
X53.79Y-98.896
X53.79Y-101.396
X53.79Y-103.896
X53.79Y-106.396
X53.79Y-108.896
X53.79Y-111.396
X53.867Y-83.95
X53.867Y-86.45
X53.867Y-88.95
X53.867Y-91.45
T5
X4.6Y-50.07
X4.6Y-52.61
X4.6Y-55.15
X4.65Y-41.075
X4.65Y-43.615
X4.65Y-46.155
X8.364Y-71.27
X8.364Y-74.04
X8.364Y-76.81
X8.364Y-79.58
X8.364Y-82.35
X8.364Y-85.12
X8.364Y-87.89
X8.364Y-90.66
X8.364Y-93.43
X8.364Y-96.2
X8.364Y-98.97
X8.364Y-101.74
X11.204Y-69.885
X11.204Y-72.655
X11.204Y-75.425
X11.204Y-78.195
X11.204Y-80.965
X11.204Y-83.735
X11.204Y-86.505
X11.204Y-89.275
X11.204Y-92.045
X11.204Y-94.815
X11.204Y-97.585
X11.204Y-100.355
X11.204Y-103.125
X11.96Y-9.15
X14.5Y-9.15
X22.15Y-3.12
X22.15Y-6.12
X25.15Y-3.12
X25.15Y-6.12
X29.619Y-97.37
X29.619Y-99.91
X29.619Y-102.45
X36.811Y-70.176
X36.811Y-73.176
X36.811Y-76.176
X36.811Y-79.176
X36.811Y-88.972
X36.811Y-91.972
X36.811Y-94.972
X36.811Y-97.972
X36.811Y-107.79
X36.811Y-110.79
X36.811Y-113.79
X36.811Y-116.79
X39.811Y-70.176
X39.811Y-73.176
X39.811Y-76.176
X39.811Y-79.176
X39.811Y-88.972
X39.811Y-91.972
X39.811Y-94.972
X39.811Y-97.972
X39.811Y-107.79
X39.811Y-110.79
X39.811Y-113.79
X39.811Y-116.79
X45.25Y-35.8
X45.25Y-38.3
X53.8Y-28.4
X53.8Y-30.9
T6
X51.925Y-10.95
X51.925Y-16.03
T7
X15.27Y-117.25
X17.81Y-117.25
X20.35Y-117.25
X25.32Y-117.25
X27.86Y-117.25
X30.4Y-117.25
T8
X34.4Y-44.825
X34.4Y-60.065
X42.0Y-57.525
X42.02Y-44.825
T9
X3.0Y-3.0
X3.0Y-119.0
X9.784Y-62.955
X9.784Y-110.055
X54.0Y-3.0
X54.0Y-119.0
T10
X19.15Y-7.06
X28.15Y-7.06
X35.871Y-67.176
X35.871Y-82.176
X35.871Y-85.972
X35.871Y-100.972
X35.871Y-104.79
X35.871Y-119.79
T11
X1.72Y-63.5
X48.71Y-119.38
T12
X4.45Y-20.0
X4.45Y-25.0
T13
X4.45Y-14.7
X4.45Y-30.3
T3
G00X9.0Y-20.0
M15
G01X6.9Y-20.0
M16
G05
G00X9.0Y-25.0
M15
G01X6.9Y-25.0
M16
G05
G00X12.65Y-19.6
M15
G01X10.55Y-19.6
M16
G05
G00X12.65Y-25.4
M15
G01X10.55Y-25.4
M16
G05
G00X14.0Y-14.7
M15
G01X11.9Y-14.7
M16
G05
G00X14.0Y-30.3
M15
G01X11.9Y-30.3
M16
G05
T5
G00X2.45Y-21.9
M15
G01X2.45Y-23.1
M16
G05
T0
M30
