M48
; DRILL file {KiCad (6.0.11-0)} date Monday, 03 July 2023 at 01:35:30 pm
; FORMAT={-:-/ absolute / metric / decimal}
; #@! TF.CreationDate,2023-07-03T13:35:30+12:00
; #@! TF.GenerationSoftware,Kicad,Pcbnew,(6.0.11-0)
; #@! TF.FileFunction,MixedPlating,1,2
FMAT,2
METRIC
; #@! TA.AperFunction,Plated,PTH,ComponentDrill
T1C1.000
; #@! TA.AperFunction,Plated,PTH,ComponentDrill
T2C1.300
; #@! TA.AperFunction,NonPlated,NPTH,ComponentDrill
T3C1.000
; #@! TA.AperFunction,NonPlated,NPTH,ComponentDrill
T4C5.000
%
G90
G05
T1
X-25.111Y25.346
X-25.111Y22.346
X-22.111Y25.346
X-22.111Y22.346
X-7.68Y25.346
X-7.68Y22.346
X-4.68Y25.346
X-4.68Y22.346
X3.71Y25.346
X3.71Y22.346
X6.71Y25.346
X6.71Y22.346
X26.289Y25.346
X26.289Y22.346
X29.289Y25.346
X29.289Y22.346
T2
X-31.451Y15.911
X-26.371Y15.911
X-21.291Y15.911
X-16.211Y15.911
X-3.19Y15.881
X1.89Y15.881
X6.97Y15.881
X12.05Y15.881
X19.949Y15.911
X25.029Y15.911
X30.109Y15.911
X35.189Y15.911
T3
X-28.111Y26.286
X-19.111Y26.286
X-10.68Y26.286
X-1.68Y26.286
X0.71Y26.286
X9.71Y26.286
X23.289Y26.286
X32.289Y26.286
T4
X0.0Y40.0
X0.0Y0.0
T0
M30
