G04 #@! TF.GenerationSoftware,KiCad,Pcbnew,(6.0.11-0)*
G04 #@! TF.CreationDate,2023-07-03T13:35:27+12:00*
G04 #@! TF.ProjectId,molex-adapter,6d6f6c65-782d-4616-9461-707465722e6b,rev?*
G04 #@! TF.SameCoordinates,PX7f50c60PY69db9c0*
G04 #@! TF.FileFunction,Copper,L1,Top*
G04 #@! TF.FilePolarity,Positive*
%FSLAX46Y46*%
G04 Gerber Fmt 4.6, Leading zero omitted, Abs format (unit mm)*
G04 Created by KiCad (PCBNEW (6.0.11-0)) date 2023-07-03 13:35:27*
%MOMM*%
%LPD*%
G01*
G04 APERTURE LIST*
G04 Aperture macros list*
%AMRoundRect*
0 Rectangle with rounded corners*
0 $1 Rounding radius*
0 $2 $3 $4 $5 $6 $7 $8 $9 X,Y pos of 4 corners*
0 Add a 4 corners polygon primitive as box body*
4,1,4,$2,$3,$4,$5,$6,$7,$8,$9,$2,$3,0*
0 Add four circle primitives for the rounded corners*
1,1,$1+$1,$2,$3*
1,1,$1+$1,$4,$5*
1,1,$1+$1,$6,$7*
1,1,$1+$1,$8,$9*
0 Add four rect primitives between the rounded corners*
20,1,$1+$1,$2,$3,$4,$5,0*
20,1,$1+$1,$4,$5,$6,$7,0*
20,1,$1+$1,$6,$7,$8,$9,0*
20,1,$1+$1,$8,$9,$2,$3,0*%
G04 Aperture macros list end*
G04 #@! TA.AperFunction,ComponentPad*
%ADD10RoundRect,0.250001X0.499999X0.499999X-0.499999X0.499999X-0.499999X-0.499999X0.499999X-0.499999X0*%
G04 #@! TD*
G04 #@! TA.AperFunction,ComponentPad*
%ADD11C,1.500000*%
G04 #@! TD*
G04 #@! TA.AperFunction,ComponentPad*
%ADD12R,2.600000X2.600000*%
G04 #@! TD*
G04 #@! TA.AperFunction,ComponentPad*
%ADD13C,2.600000*%
G04 #@! TD*
G04 #@! TA.AperFunction,Conductor*
%ADD14C,1.500000*%
G04 #@! TD*
G04 APERTURE END LIST*
D10*
G04 #@! TO.P,J2,1*
G04 #@! TO.N,b2*
X6710000Y22345661D03*
D11*
G04 #@! TO.P,J2,2*
G04 #@! TO.N,b1*
X3710000Y22345661D03*
G04 #@! TO.P,J2,3*
G04 #@! TO.N,b3*
X6710000Y25345661D03*
G04 #@! TO.P,J2,4*
G04 #@! TO.N,b4*
X3710000Y25345661D03*
G04 #@! TD*
D10*
G04 #@! TO.P,J1,1*
G04 #@! TO.N,c1*
X29289339Y22345661D03*
D11*
G04 #@! TO.P,J1,2*
G04 #@! TO.N,c2*
X26289339Y22345661D03*
G04 #@! TO.P,J1,3*
G04 #@! TO.N,c3*
X29289339Y25345661D03*
G04 #@! TO.P,J1,4*
G04 #@! TO.N,c4*
X26289339Y25345661D03*
G04 #@! TD*
D12*
G04 #@! TO.P,J1,1*
G04 #@! TO.N,c4*
X19949339Y15910661D03*
D13*
G04 #@! TO.P,J1,2*
G04 #@! TO.N,c3*
X25029339Y15910661D03*
G04 #@! TO.P,J1,3*
G04 #@! TO.N,c2*
X30109339Y15910661D03*
G04 #@! TO.P,J1,4*
G04 #@! TO.N,c1*
X35189339Y15910661D03*
G04 #@! TD*
D12*
G04 #@! TO.P,J1,1*
G04 #@! TO.N,a4*
X-31450661Y15910661D03*
D13*
G04 #@! TO.P,J1,2*
G04 #@! TO.N,a3*
X-26370661Y15910661D03*
G04 #@! TO.P,J1,3*
G04 #@! TO.N,a2*
X-21290661Y15910661D03*
G04 #@! TO.P,J1,4*
G04 #@! TO.N,a1*
X-16210661Y15910661D03*
G04 #@! TD*
D10*
G04 #@! TO.P,J1,1*
G04 #@! TO.N,b2*
X-4680000Y22345661D03*
D11*
G04 #@! TO.P,J1,2*
G04 #@! TO.N,b1*
X-7680000Y22345661D03*
G04 #@! TO.P,J1,3*
G04 #@! TO.N,b4*
X-4680000Y25345661D03*
G04 #@! TO.P,J1,4*
G04 #@! TO.N,b3*
X-7680000Y25345661D03*
G04 #@! TD*
D12*
G04 #@! TO.P,J1,1*
G04 #@! TO.N,b1*
X-3190000Y15880662D03*
D13*
G04 #@! TO.P,J1,2*
G04 #@! TO.N,b2*
X1890000Y15880662D03*
G04 #@! TO.P,J1,3*
G04 #@! TO.N,b3*
X6970000Y15880662D03*
G04 #@! TO.P,J1,4*
G04 #@! TO.N,b4*
X12050000Y15880662D03*
G04 #@! TD*
D10*
G04 #@! TO.P,J1,1*
G04 #@! TO.N,a1*
X-22110661Y22345661D03*
D11*
G04 #@! TO.P,J1,2*
G04 #@! TO.N,a2*
X-25110661Y22345661D03*
G04 #@! TO.P,J1,3*
G04 #@! TO.N,a3*
X-22110661Y25345661D03*
G04 #@! TO.P,J1,4*
G04 #@! TO.N,a4*
X-25110661Y25345661D03*
G04 #@! TD*
D14*
G04 #@! TO.N,c1*
X34999339Y15910661D02*
X29289339Y21620661D01*
X35189339Y15910661D02*
X34999339Y15910661D01*
X29289339Y21620661D02*
X29289339Y22345661D01*
G04 #@! TO.N,b1*
X-3190000Y17900000D02*
X-5635661Y20345661D01*
X-3190000Y15880662D02*
X-3190000Y17800000D01*
X-5635661Y20345661D02*
X-6815661Y20345661D01*
X-3190000Y15880662D02*
X-3190000Y17900000D01*
X1355661Y22345661D02*
X3710000Y22345661D01*
X-7680000Y21210000D02*
X-7680000Y22345661D01*
X-3190000Y17800000D02*
X1355661Y22345661D01*
X-6815661Y20345661D02*
X-7680000Y21210000D01*
G04 #@! TO.N,b2*
X1890000Y15880662D02*
X2020001Y15880662D01*
X6710000Y20570661D02*
X6710000Y22345661D01*
X2020001Y15880662D02*
X6710000Y20570661D01*
G04 #@! TO.N,b3*
X6710000Y25345661D02*
X7454339Y25345661D01*
X9550000Y23250000D02*
X9550000Y18460662D01*
X9550000Y18460662D02*
X6970000Y15880662D01*
X7454339Y25345661D02*
X9550000Y23250000D01*
G04 #@! TO.N,b4*
X-4680000Y25345661D02*
X-4084339Y24750000D01*
X-4084339Y24750000D02*
X3114339Y24750000D01*
X3114339Y24750000D02*
X3710000Y25345661D01*
G04 #@! TO.N,a1*
X-16400661Y15910661D02*
X-22110661Y21620661D01*
X-16210661Y15910661D02*
X-16400661Y15910661D01*
X-22110661Y21620661D02*
X-22110661Y22345661D01*
G04 #@! TO.N,a2*
X-21290661Y15910661D02*
X-21290661Y16200661D01*
X-21290661Y16200661D02*
X-25110661Y20020661D01*
X-25110661Y20020661D02*
X-25110661Y22345661D01*
G04 #@! TO.N,a4*
X-27600661Y23560661D02*
X-25815661Y25345661D01*
X-27600661Y19760661D02*
X-27600661Y23560661D01*
X-25815661Y25345661D02*
X-25110661Y25345661D01*
X-31450661Y15910661D02*
X-27600661Y19760661D01*
G04 #@! TO.N,c4*
X23799339Y19760661D02*
X23799339Y23560661D01*
X19949339Y15910661D02*
X23799339Y19760661D01*
X25584339Y25345661D02*
X26289339Y25345661D01*
X23799339Y23560661D02*
X25584339Y25345661D01*
G04 #@! TO.N,c2*
X26289339Y20020661D02*
X26289339Y22345661D01*
X30109339Y15910661D02*
X30109339Y16200661D01*
X30109339Y16200661D02*
X26289339Y20020661D01*
G04 #@! TD*
M02*
