%TF.GenerationSoftware,KiCad,Pcbnew,(6.0.4-0)*%
%TF.CreationDate,2022-05-12T09:35:13+12:00*%
%TF.ProjectId,controller,636f6e74-726f-46c6-9c65-722e6b696361,0.9*%
%TF.SameCoordinates,PX490d2c0PY2ebae40*%
%TF.FileFunction,Soldermask,Bot*%
%TF.FilePolarity,Negative*%
%FSLAX46Y46*%
G04 Gerber Fmt 4.6, Leading zero omitted, Abs format (unit mm)*
G04 Created by KiCad (PCBNEW (6.0.4-0)) date 2022-05-12 09:35:13*
%MOMM*%
%LPD*%
G01*
G04 APERTURE LIST*
G04 Aperture macros list*
%AMRoundRect*
0 Rectangle with rounded corners*
0 $1 Rounding radius*
0 $2 $3 $4 $5 $6 $7 $8 $9 X,Y pos of 4 corners*
0 Add a 4 corners polygon primitive as box body*
4,1,4,$2,$3,$4,$5,$6,$7,$8,$9,$2,$3,0*
0 Add four circle primitives for the rounded corners*
1,1,$1+$1,$2,$3*
1,1,$1+$1,$4,$5*
1,1,$1+$1,$6,$7*
1,1,$1+$1,$8,$9*
0 Add four rect primitives between the rounded corners*
20,1,$1+$1,$2,$3,$4,$5,0*
20,1,$1+$1,$4,$5,$6,$7,0*
20,1,$1+$1,$6,$7,$8,$9,0*
20,1,$1+$1,$8,$9,$2,$3,0*%
G04 Aperture macros list end*
%ADD10C,1.000000*%
%ADD11RoundRect,0.250001X-0.499999X0.499999X-0.499999X-0.499999X0.499999X-0.499999X0.499999X0.499999X0*%
%ADD12C,1.500000*%
%ADD13R,1.700000X1.700000*%
%ADD14O,1.700000X1.700000*%
%ADD15R,2.100000X2.100000*%
%ADD16C,2.100000*%
%ADD17RoundRect,0.250001X0.499999X0.499999X-0.499999X0.499999X-0.499999X-0.499999X0.499999X-0.499999X0*%
%ADD18RoundRect,0.250000X-0.725000X0.600000X-0.725000X-0.600000X0.725000X-0.600000X0.725000X0.600000X0*%
%ADD19O,1.950000X1.700000*%
%ADD20RoundRect,0.250000X0.620000X0.845000X-0.620000X0.845000X-0.620000X-0.845000X0.620000X-0.845000X0*%
%ADD21O,1.740000X2.190000*%
%ADD22C,5.500000*%
%ADD23C,2.300000*%
%ADD24R,2.300000X2.300000*%
%ADD25C,1.700000*%
%ADD26C,2.200000*%
%ADD27O,3.200000X1.600000*%
%ADD28O,1.750000X3.500000*%
%ADD29C,4.000000*%
%ADD30R,1.600000X1.600000*%
%ADD31C,1.600000*%
G04 APERTURE END LIST*
D10*
%TO.C,J10*%
X35821000Y-104790000D03*
X35821000Y-119790000D03*
D11*
X39761000Y-107790000D03*
D12*
X39761000Y-110790000D03*
X39761000Y-113790000D03*
X39761000Y-116790000D03*
X36761000Y-107790000D03*
X36761000Y-110790000D03*
X36761000Y-113790000D03*
X36761000Y-116790000D03*
%TD*%
D13*
%TO.C,JP1*%
X13057000Y-9674000D03*
D14*
X15597000Y-9674000D03*
%TD*%
D15*
%TO.C,J4*%
X48876000Y-11198000D03*
D16*
X48876000Y-16278000D03*
%TD*%
D10*
%TO.C,J3*%
X19025000Y-3194000D03*
X28025000Y-3194000D03*
D17*
X25025000Y-7134000D03*
D12*
X22025000Y-7134000D03*
X25025000Y-4134000D03*
X22025000Y-4134000D03*
%TD*%
D18*
%TO.C,J15*%
X50084000Y-83948000D03*
D19*
X50084000Y-86448000D03*
X50084000Y-88948000D03*
X50084000Y-91448000D03*
%TD*%
D20*
%TO.C,J11*%
X30480000Y-117116000D03*
D21*
X27940000Y-117116000D03*
X25400000Y-117116000D03*
%TD*%
D18*
%TO.C,J14*%
X50038000Y-68962000D03*
D19*
X50038000Y-71462000D03*
X50038000Y-73962000D03*
X50038000Y-76462000D03*
%TD*%
D22*
%TO.C,H4*%
X50400000Y-118000000D03*
%TD*%
D13*
%TO.C,JP2*%
X17837200Y-42998800D03*
D14*
X20377200Y-42998800D03*
%TD*%
D18*
%TO.C,J13*%
X50038000Y-53722000D03*
D19*
X50038000Y-56222000D03*
X50038000Y-58722000D03*
X50038000Y-61222000D03*
%TD*%
D18*
%TO.C,J7*%
X49992000Y-98896000D03*
D19*
X49992000Y-101396000D03*
X49992000Y-103896000D03*
X49992000Y-106396000D03*
X49992000Y-108896000D03*
X49992000Y-111396000D03*
%TD*%
D15*
%TO.C,J5*%
X48876000Y-25067000D03*
D16*
X48876000Y-30147000D03*
%TD*%
D23*
%TO.C,K1*%
X41920000Y-44719000D03*
X41900000Y-57419000D03*
X34300000Y-59959000D03*
D24*
X34300000Y-44719000D03*
%TD*%
D10*
%TO.C,J9*%
X35821000Y-100972000D03*
X35821000Y-85972000D03*
D11*
X39761000Y-88972000D03*
D12*
X39761000Y-91972000D03*
X39761000Y-94972000D03*
X39761000Y-97972000D03*
X36761000Y-88972000D03*
X36761000Y-91972000D03*
X36761000Y-94972000D03*
X36761000Y-97972000D03*
%TD*%
D25*
%TO.C,J2*%
X4400000Y-20000000D03*
D26*
X4400000Y-30300000D03*
X4400000Y-14700000D03*
D25*
X4400000Y-25000000D03*
D27*
X11550000Y-25400000D03*
X7900000Y-25000000D03*
X7900000Y-20000000D03*
X11550000Y-19600000D03*
X12900000Y-14700000D03*
D28*
X2400000Y-22500000D03*
D27*
X12900000Y-30300000D03*
%TD*%
D10*
%TO.C,J8*%
X35821000Y-67176000D03*
X35821000Y-82176000D03*
D11*
X39761000Y-70176000D03*
D12*
X39761000Y-73176000D03*
X39761000Y-76176000D03*
X39761000Y-79176000D03*
X36761000Y-70176000D03*
X36761000Y-73176000D03*
X36761000Y-76176000D03*
X36761000Y-79176000D03*
%TD*%
D29*
%TO.C,J6*%
X9734331Y-110055000D03*
X9734331Y-62955000D03*
D30*
X11154331Y-69885000D03*
D31*
X11154331Y-72655000D03*
X11154331Y-75425000D03*
X11154331Y-78195000D03*
X11154331Y-80965000D03*
X11154331Y-83735000D03*
X11154331Y-86505000D03*
X11154331Y-89275000D03*
X11154331Y-92045000D03*
X11154331Y-94815000D03*
X11154331Y-97585000D03*
X11154331Y-100355000D03*
X11154331Y-103125000D03*
X8314331Y-71270000D03*
X8314331Y-74040000D03*
X8314331Y-76810000D03*
X8314331Y-79580000D03*
X8314331Y-82350000D03*
X8314331Y-85120000D03*
X8314331Y-87890000D03*
X8314331Y-90660000D03*
X8314331Y-93430000D03*
X8314331Y-96200000D03*
X8314331Y-98970000D03*
X8314331Y-101740000D03*
%TD*%
D20*
%TO.C,J12*%
X20682000Y-117116000D03*
D21*
X18142000Y-117116000D03*
X15602000Y-117116000D03*
%TD*%
D22*
%TO.C,H1*%
X3156000Y-3070000D03*
%TD*%
D18*
%TO.C,J16*%
X50038000Y-38676000D03*
D19*
X50038000Y-41176000D03*
X50038000Y-43676000D03*
X50038000Y-46176000D03*
%TD*%
D22*
%TO.C,H3*%
X3156000Y-118000000D03*
%TD*%
%TO.C,H2*%
X50400000Y-3048000D03*
%TD*%
M02*
