%TF.GenerationSoftware,KiCad,Pcbnew,(6.0.4-0)*%
%TF.CreationDate,2022-05-12T09:35:13+12:00*%
%TF.ProjectId,controller,636f6e74-726f-46c6-9c65-722e6b696361,0.9*%
%TF.SameCoordinates,PX490d2c0PY2ebae40*%
%TF.FileFunction,Soldermask,Top*%
%TF.FilePolarity,Negative*%
%FSLAX46Y46*%
G04 Gerber Fmt 4.6, Leading zero omitted, Abs format (unit mm)*
G04 Created by KiCad (PCBNEW (6.0.4-0)) date 2022-05-12 09:35:13*
%MOMM*%
%LPD*%
G01*
G04 APERTURE LIST*
G04 Aperture macros list*
%AMRoundRect*
0 Rectangle with rounded corners*
0 $1 Rounding radius*
0 $2 $3 $4 $5 $6 $7 $8 $9 X,Y pos of 4 corners*
0 Add a 4 corners polygon primitive as box body*
4,1,4,$2,$3,$4,$5,$6,$7,$8,$9,$2,$3,0*
0 Add four circle primitives for the rounded corners*
1,1,$1+$1,$2,$3*
1,1,$1+$1,$4,$5*
1,1,$1+$1,$6,$7*
1,1,$1+$1,$8,$9*
0 Add four rect primitives between the rounded corners*
20,1,$1+$1,$2,$3,$4,$5,0*
20,1,$1+$1,$4,$5,$6,$7,0*
20,1,$1+$1,$6,$7,$8,$9,0*
20,1,$1+$1,$8,$9,$2,$3,0*%
%AMFreePoly0*
4,1,22,0.550000,-0.750000,0.000000,-0.750000,0.000000,-0.745033,-0.079941,-0.743568,-0.215256,-0.701293,-0.333266,-0.622738,-0.424486,-0.514219,-0.481581,-0.384460,-0.499164,-0.250000,-0.500000,-0.250000,-0.500000,0.250000,-0.499164,0.250000,-0.499963,0.256109,-0.478152,0.396186,-0.417904,0.524511,-0.324060,0.630769,-0.204165,0.706417,-0.067858,0.745374,0.000000,0.744959,0.000000,0.750000,
0.550000,0.750000,0.550000,-0.750000,0.550000,-0.750000,$1*%
%AMFreePoly1*
4,1,20,0.000000,0.744959,0.073905,0.744508,0.209726,0.703889,0.328688,0.626782,0.421226,0.519385,0.479903,0.390333,0.500000,0.250000,0.500000,-0.250000,0.499851,-0.262216,0.476331,-0.402017,0.414519,-0.529596,0.319384,-0.634700,0.198574,-0.708877,0.061801,-0.746166,0.000000,-0.745033,0.000000,-0.750000,-0.550000,-0.750000,-0.550000,0.750000,0.000000,0.750000,0.000000,0.744959,
0.000000,0.744959,$1*%
G04 Aperture macros list end*
%ADD10RoundRect,0.250000X1.500000X0.550000X-1.500000X0.550000X-1.500000X-0.550000X1.500000X-0.550000X0*%
%ADD11RoundRect,0.225000X-0.225000X-0.250000X0.225000X-0.250000X0.225000X0.250000X-0.225000X0.250000X0*%
%ADD12C,1.000000*%
%ADD13RoundRect,0.250001X-0.499999X0.499999X-0.499999X-0.499999X0.499999X-0.499999X0.499999X0.499999X0*%
%ADD14C,1.500000*%
%ADD15R,0.900000X0.900000*%
%ADD16R,1.700000X1.700000*%
%ADD17O,1.700000X1.700000*%
%ADD18R,2.100000X2.100000*%
%ADD19C,2.100000*%
%ADD20RoundRect,0.250001X0.499999X0.499999X-0.499999X0.499999X-0.499999X-0.499999X0.499999X-0.499999X0*%
%ADD21R,1.600000X1.300000*%
%ADD22R,1.600000X2.000000*%
%ADD23RoundRect,0.200000X0.200000X0.275000X-0.200000X0.275000X-0.200000X-0.275000X0.200000X-0.275000X0*%
%ADD24RoundRect,0.150000X-0.875000X-0.150000X0.875000X-0.150000X0.875000X0.150000X-0.875000X0.150000X0*%
%ADD25RoundRect,0.250000X-0.725000X0.600000X-0.725000X-0.600000X0.725000X-0.600000X0.725000X0.600000X0*%
%ADD26O,1.950000X1.700000*%
%ADD27R,2.200000X1.200000*%
%ADD28R,6.400000X5.800000*%
%ADD29RoundRect,0.200000X0.275000X-0.200000X0.275000X0.200000X-0.275000X0.200000X-0.275000X-0.200000X0*%
%ADD30RoundRect,0.225000X0.225000X0.250000X-0.225000X0.250000X-0.225000X-0.250000X0.225000X-0.250000X0*%
%ADD31R,2.900000X5.400000*%
%ADD32RoundRect,0.250000X0.620000X0.845000X-0.620000X0.845000X-0.620000X-0.845000X0.620000X-0.845000X0*%
%ADD33O,1.740000X2.190000*%
%ADD34R,1.100000X4.600000*%
%ADD35R,10.800000X9.400000*%
%ADD36R,1.000000X1.000000*%
%ADD37RoundRect,0.200000X-0.275000X0.200000X-0.275000X-0.200000X0.275000X-0.200000X0.275000X0.200000X0*%
%ADD38C,5.500000*%
%ADD39RoundRect,0.250000X1.950000X1.000000X-1.950000X1.000000X-1.950000X-1.000000X1.950000X-1.000000X0*%
%ADD40R,1.200000X2.000000*%
%ADD41R,2.500000X1.800000*%
%ADD42RoundRect,0.225000X-0.250000X0.225000X-0.250000X-0.225000X0.250000X-0.225000X0.250000X0.225000X0*%
%ADD43C,2.300000*%
%ADD44R,2.300000X2.300000*%
%ADD45C,1.700000*%
%ADD46C,2.200000*%
%ADD47O,3.200000X1.600000*%
%ADD48O,1.750000X3.500000*%
%ADD49RoundRect,0.150000X-0.587500X-0.150000X0.587500X-0.150000X0.587500X0.150000X-0.587500X0.150000X0*%
%ADD50RoundRect,0.150000X0.725000X0.150000X-0.725000X0.150000X-0.725000X-0.150000X0.725000X-0.150000X0*%
%ADD51C,4.000000*%
%ADD52R,1.600000X1.600000*%
%ADD53C,1.600000*%
%ADD54RoundRect,0.200000X-0.200000X-0.275000X0.200000X-0.275000X0.200000X0.275000X-0.200000X0.275000X0*%
%ADD55RoundRect,0.150000X-0.825000X-0.150000X0.825000X-0.150000X0.825000X0.150000X-0.825000X0.150000X0*%
%ADD56FreePoly0,270.000000*%
%ADD57R,1.500000X1.000000*%
%ADD58FreePoly1,270.000000*%
G04 APERTURE END LIST*
D10*
%TO.C,C6*%
X38768000Y-38862000D03*
X33368000Y-38862000D03*
%TD*%
D11*
%TO.C,C3*%
X20925000Y-13000000D03*
X22475000Y-13000000D03*
%TD*%
D12*
%TO.C,J10*%
X35821000Y-104790000D03*
X35821000Y-119790000D03*
D13*
X39761000Y-107790000D03*
D14*
X39761000Y-110790000D03*
X39761000Y-113790000D03*
X39761000Y-116790000D03*
X36761000Y-107790000D03*
X36761000Y-110790000D03*
X36761000Y-113790000D03*
X36761000Y-116790000D03*
%TD*%
D15*
%TO.C,RN2*%
X14581000Y-64110000D03*
X14581000Y-65450000D03*
X14581000Y-66770000D03*
X14581000Y-68110000D03*
X17581000Y-68110000D03*
X17581000Y-66770000D03*
X17581000Y-65450000D03*
X17581000Y-64110000D03*
%TD*%
D16*
%TO.C,JP1*%
X13057000Y-9674000D03*
D17*
X15597000Y-9674000D03*
%TD*%
D18*
%TO.C,J4*%
X48876000Y-11198000D03*
D19*
X48876000Y-16278000D03*
%TD*%
D12*
%TO.C,J3*%
X19025000Y-3194000D03*
X28025000Y-3194000D03*
D20*
X25025000Y-7134000D03*
D14*
X22025000Y-7134000D03*
X25025000Y-4134000D03*
X22025000Y-4134000D03*
%TD*%
D21*
%TO.C,RV1*%
X19140000Y-53828000D03*
D22*
X22040000Y-55078000D03*
D21*
X19140000Y-56328000D03*
%TD*%
D23*
%TO.C,R7*%
X24701000Y-43688000D03*
X23051000Y-43688000D03*
%TD*%
D24*
%TO.C,U3*%
X17509560Y-88277440D03*
X17509560Y-89547440D03*
X17509560Y-90817440D03*
X17509560Y-92087440D03*
X17509560Y-93357440D03*
X17509560Y-94627440D03*
X17509560Y-95897440D03*
X17509560Y-97167440D03*
X17509560Y-98437440D03*
X17509560Y-99707440D03*
X26809560Y-99707440D03*
X26809560Y-98437440D03*
X26809560Y-97167440D03*
X26809560Y-95897440D03*
X26809560Y-94627440D03*
X26809560Y-93357440D03*
X26809560Y-92087440D03*
X26809560Y-90817440D03*
X26809560Y-89547440D03*
X26809560Y-88277440D03*
%TD*%
D25*
%TO.C,J15*%
X50084000Y-83948000D03*
D26*
X50084000Y-86448000D03*
X50084000Y-88948000D03*
X50084000Y-91448000D03*
%TD*%
D27*
%TO.C,U6*%
X14240000Y-46098000D03*
D28*
X20540000Y-48378000D03*
D27*
X14240000Y-50658000D03*
%TD*%
D23*
%TO.C,R4*%
X25725000Y-35300000D03*
X24075000Y-35300000D03*
%TD*%
D29*
%TO.C,R5*%
X29826000Y-13039000D03*
X29826000Y-11389000D03*
%TD*%
D30*
%TO.C,C10*%
X11465000Y-50678000D03*
X9915000Y-50678000D03*
%TD*%
D23*
%TO.C,R9*%
X16427000Y-58950000D03*
X14777000Y-58950000D03*
%TD*%
D31*
%TO.C,L1*%
X30850000Y-28450000D03*
X40750000Y-28450000D03*
%TD*%
D32*
%TO.C,J11*%
X30480000Y-117116000D03*
D33*
X27940000Y-117116000D03*
X25400000Y-117116000D03*
%TD*%
D25*
%TO.C,J14*%
X50038000Y-68962000D03*
D26*
X50038000Y-71462000D03*
X50038000Y-73962000D03*
X50038000Y-76462000D03*
%TD*%
D34*
%TO.C,Q2*%
X33885000Y-14925000D03*
D35*
X36425000Y-5775000D03*
D34*
X38965000Y-14925000D03*
%TD*%
D36*
%TO.C,D2*%
X26175000Y-14800000D03*
X23675000Y-14800000D03*
%TD*%
%TO.C,D1*%
X21700000Y-14750000D03*
X21700000Y-17250000D03*
%TD*%
D23*
%TO.C,R2*%
X25750000Y-16600000D03*
X24100000Y-16600000D03*
%TD*%
D37*
%TO.C,R8*%
X26162000Y-44895000D03*
X26162000Y-46545000D03*
%TD*%
D38*
%TO.C,H4*%
X50400000Y-118000000D03*
%TD*%
D39*
%TO.C,C1*%
X16700000Y-36598000D03*
X9300000Y-36598000D03*
%TD*%
D40*
%TO.C,LF1*%
X26310000Y-56478000D03*
X28850000Y-56478000D03*
X28850000Y-48978000D03*
X26310000Y-48978000D03*
%TD*%
D41*
%TO.C,D3*%
X28800000Y-38200000D03*
X24800000Y-38200000D03*
%TD*%
D16*
%TO.C,JP2*%
X17837200Y-42998800D03*
D17*
X20377200Y-42998800D03*
%TD*%
D42*
%TO.C,C2*%
X18700000Y-28425000D03*
X18700000Y-29975000D03*
%TD*%
D25*
%TO.C,J13*%
X50038000Y-53722000D03*
D26*
X50038000Y-56222000D03*
X50038000Y-58722000D03*
X50038000Y-61222000D03*
%TD*%
D25*
%TO.C,J7*%
X49992000Y-98896000D03*
D26*
X49992000Y-101396000D03*
X49992000Y-103896000D03*
X49992000Y-106396000D03*
X49992000Y-108896000D03*
X49992000Y-111396000D03*
%TD*%
D15*
%TO.C,RN3*%
X27389000Y-104910000D03*
X27389000Y-106250000D03*
X27389000Y-107570000D03*
X27389000Y-108910000D03*
X30389000Y-108910000D03*
X30389000Y-107570000D03*
X30389000Y-106250000D03*
X30389000Y-104910000D03*
%TD*%
D18*
%TO.C,J5*%
X48876000Y-25067000D03*
D19*
X48876000Y-30147000D03*
%TD*%
D43*
%TO.C,K1*%
X41920000Y-44719000D03*
X41900000Y-57419000D03*
X34300000Y-59959000D03*
D44*
X34300000Y-44719000D03*
%TD*%
D15*
%TO.C,RN1*%
X14573000Y-105182000D03*
X14573000Y-106522000D03*
X14573000Y-107842000D03*
X14573000Y-109182000D03*
X17573000Y-109182000D03*
X17573000Y-107842000D03*
X17573000Y-106522000D03*
X17573000Y-105182000D03*
%TD*%
D30*
%TO.C,C4*%
X25700000Y-18100000D03*
X24150000Y-18100000D03*
%TD*%
D12*
%TO.C,J9*%
X35821000Y-100972000D03*
X35821000Y-85972000D03*
D13*
X39761000Y-88972000D03*
D14*
X39761000Y-91972000D03*
X39761000Y-94972000D03*
X39761000Y-97972000D03*
X36761000Y-88972000D03*
X36761000Y-91972000D03*
X36761000Y-94972000D03*
X36761000Y-97972000D03*
%TD*%
D30*
%TO.C,C7*%
X11465000Y-46078000D03*
X9915000Y-46078000D03*
%TD*%
D45*
%TO.C,J2*%
X4400000Y-20000000D03*
D46*
X4400000Y-30300000D03*
X4400000Y-14700000D03*
D45*
X4400000Y-25000000D03*
D47*
X11550000Y-25400000D03*
X7900000Y-25000000D03*
X7900000Y-20000000D03*
X11550000Y-19600000D03*
X12900000Y-14700000D03*
D48*
X2400000Y-22500000D03*
D47*
X12900000Y-30300000D03*
%TD*%
D49*
%TO.C,Q3*%
X29288500Y-44516000D03*
X29288500Y-46416000D03*
X31163500Y-45466000D03*
%TD*%
D12*
%TO.C,J8*%
X35821000Y-67176000D03*
X35821000Y-82176000D03*
D13*
X39761000Y-70176000D03*
D14*
X39761000Y-73176000D03*
X39761000Y-76176000D03*
X39761000Y-79176000D03*
X36761000Y-70176000D03*
X36761000Y-73176000D03*
X36761000Y-76176000D03*
X36761000Y-79176000D03*
%TD*%
D15*
%TO.C,RN4*%
X30681000Y-67360000D03*
X30681000Y-66020000D03*
X30681000Y-64700000D03*
X30681000Y-63360000D03*
X27681000Y-63360000D03*
X27681000Y-64700000D03*
X27681000Y-66020000D03*
X27681000Y-67360000D03*
%TD*%
D11*
%TO.C,C5*%
X24325000Y-26400000D03*
X25875000Y-26400000D03*
%TD*%
D42*
%TO.C,C9*%
X14586000Y-60461000D03*
X14586000Y-62011000D03*
%TD*%
D50*
%TO.C,U7*%
X24860000Y-70505000D03*
X24860000Y-69235000D03*
X24860000Y-67965000D03*
X24860000Y-66695000D03*
X24860000Y-65425000D03*
X24860000Y-64155000D03*
X24860000Y-62885000D03*
X24860000Y-61615000D03*
X19710000Y-61615000D03*
X19710000Y-62885000D03*
X19710000Y-64155000D03*
X19710000Y-65425000D03*
X19710000Y-66695000D03*
X19710000Y-67965000D03*
X19710000Y-69235000D03*
X19710000Y-70505000D03*
%TD*%
D51*
%TO.C,J6*%
X9734331Y-110055000D03*
X9734331Y-62955000D03*
D52*
X11154331Y-69885000D03*
D53*
X11154331Y-72655000D03*
X11154331Y-75425000D03*
X11154331Y-78195000D03*
X11154331Y-80965000D03*
X11154331Y-83735000D03*
X11154331Y-86505000D03*
X11154331Y-89275000D03*
X11154331Y-92045000D03*
X11154331Y-94815000D03*
X11154331Y-97585000D03*
X11154331Y-100355000D03*
X11154331Y-103125000D03*
X8314331Y-71270000D03*
X8314331Y-74040000D03*
X8314331Y-76810000D03*
X8314331Y-79580000D03*
X8314331Y-82350000D03*
X8314331Y-85120000D03*
X8314331Y-87890000D03*
X8314331Y-90660000D03*
X8314331Y-93430000D03*
X8314331Y-96200000D03*
X8314331Y-98970000D03*
X8314331Y-101740000D03*
%TD*%
D32*
%TO.C,J12*%
X20682000Y-117116000D03*
D33*
X18142000Y-117116000D03*
X15602000Y-117116000D03*
%TD*%
D54*
%TO.C,R1*%
X22100000Y-11250000D03*
X23750000Y-11250000D03*
%TD*%
D38*
%TO.C,H1*%
X3156000Y-3070000D03*
%TD*%
D25*
%TO.C,J16*%
X50038000Y-38676000D03*
D26*
X50038000Y-41176000D03*
X50038000Y-43676000D03*
X50038000Y-46176000D03*
%TD*%
D38*
%TO.C,H3*%
X3156000Y-118000000D03*
%TD*%
D29*
%TO.C,R10*%
X16790000Y-57003000D03*
X16790000Y-55353000D03*
%TD*%
D36*
%TO.C,D4*%
X30968000Y-41910000D03*
X28468000Y-41910000D03*
%TD*%
D55*
%TO.C,U4*%
X9305000Y-53183000D03*
X9305000Y-54453000D03*
X9305000Y-55723000D03*
X9305000Y-56993000D03*
X14255000Y-56993000D03*
X14255000Y-55723000D03*
X14255000Y-54453000D03*
X14255000Y-53183000D03*
%TD*%
%TO.C,U1*%
X20925000Y-28095000D03*
X20925000Y-29365000D03*
X20925000Y-30635000D03*
X20925000Y-31905000D03*
X25875000Y-31905000D03*
X25875000Y-30635000D03*
X25875000Y-29365000D03*
X25875000Y-28095000D03*
%TD*%
D49*
%TO.C,Q1*%
X25587500Y-11100000D03*
X25587500Y-13000000D03*
X27462500Y-12050000D03*
%TD*%
D50*
%TO.C,U5*%
X24860000Y-111627000D03*
X24860000Y-110357000D03*
X24860000Y-109087000D03*
X24860000Y-107817000D03*
X24860000Y-106547000D03*
X24860000Y-105277000D03*
X24860000Y-104007000D03*
X24860000Y-102737000D03*
X19710000Y-102737000D03*
X19710000Y-104007000D03*
X19710000Y-105277000D03*
X19710000Y-106547000D03*
X19710000Y-107817000D03*
X19710000Y-109087000D03*
X19710000Y-110357000D03*
X19710000Y-111627000D03*
%TD*%
D38*
%TO.C,H2*%
X50400000Y-3048000D03*
%TD*%
D54*
%TO.C,R3*%
X24075000Y-33700000D03*
X25725000Y-33700000D03*
%TD*%
D24*
%TO.C,U2*%
X17759560Y-73606440D03*
X17759560Y-74876440D03*
X17759560Y-76146440D03*
X17759560Y-77416440D03*
X17759560Y-78686440D03*
X17759560Y-79956440D03*
X17759560Y-81226440D03*
X17759560Y-82496440D03*
X17759560Y-83766440D03*
X17759560Y-85036440D03*
X27059560Y-85036440D03*
X27059560Y-83766440D03*
X27059560Y-82496440D03*
X27059560Y-81226440D03*
X27059560Y-79956440D03*
X27059560Y-78686440D03*
X27059560Y-77416440D03*
X27059560Y-76146440D03*
X27059560Y-74876440D03*
X27059560Y-73606440D03*
%TD*%
D54*
%TO.C,R6*%
X27675000Y-15008000D03*
X29325000Y-15008000D03*
%TD*%
D30*
%TO.C,C8*%
X11465000Y-48978000D03*
X9915000Y-48978000D03*
%TD*%
D56*
%TO.C,JP3*%
X30588000Y-89400000D03*
D57*
X30588000Y-90700000D03*
D58*
X30588000Y-92000000D03*
%TD*%
M02*
