M48
; DRILL file {KiCad (6.0.4-0)} date Thursday, 12 May 2022 at 09:35:28 am
; FORMAT={-:-/ absolute / metric / decimal}
; #@! TF.CreationDate,2022-05-12T09:35:28+12:00
; #@! TF.GenerationSoftware,Kicad,Pcbnew,(6.0.4-0)
; #@! TF.FileFunction,MixedPlating,1,2
FMAT,2
METRIC
; #@! TA.AperFunction,Plated,PTH,ViaDrill
T1C0.300
; #@! TA.AperFunction,Plated,PTH,ViaDrill
T2C0.400
; #@! TA.AperFunction,Plated,PTH,ViaDrill
T3C0.600
; #@! TA.AperFunction,Plated,PTH,ComponentDrill
T4C0.600
; #@! TA.AperFunction,Plated,PTH,ComponentDrill
T5C0.950
; #@! TA.AperFunction,Plated,PTH,ComponentDrill
T6C1.000
; #@! TA.AperFunction,Plated,PTH,ComponentDrill
T7C1.100
; #@! TA.AperFunction,Plated,PTH,ComponentDrill
T8C1.190
; #@! TA.AperFunction,Plated,PTH,ComponentDrill
T9C1.300
; #@! TA.AperFunction,Plated,PTH,ComponentDrill
T10C3.200
; #@! TA.AperFunction,NonPlated,NPTH,ComponentDrill
T11C1.000
; #@! TA.AperFunction,NonPlated,NPTH,ComponentDrill
T12C1.700
; #@! TA.AperFunction,NonPlated,NPTH,ComponentDrill
T13C2.200
%
G90
G05
T1
X1.175Y-114.373
X1.244Y-31.1
X1.244Y-51.076
X1.276Y-75.714
X1.276Y-97.304
X1.327Y-6.7
X1.327Y-13.9
X6.458Y-72.564
X6.61Y-120.062
X6.712Y-1.2
X7.271Y-44.726
X7.271Y-52.041
X7.271Y-56.969
X9.15Y-69.415
X9.404Y-72.666
X11.03Y-57.426
X12.402Y-87.855
X12.503Y-44.675
X12.503Y-102.282
X12.503Y-104.111
X12.554Y-39.798
X12.554Y-54.886
X12.554Y-68.094
X12.706Y-75.46
X12.808Y-49.298
X12.808Y-52.092
X12.91Y-94.459
X13.316Y-63.014
X13.621Y-90.7
X13.621Y-111.02
X13.621Y-117.167
X13.926Y-7.388
X14.84Y-77.594
X14.881Y-88.61
X14.931Y-90.46
X15.551Y-94.459
X15.602Y-43.202
X15.704Y-60.728
X15.805Y-85.112
X16.081Y-68.11
X16.11Y-64.132
X16.11Y-66.824
X16.123Y-105.16
X16.123Y-107.86
X16.135Y-106.522
X16.173Y-109.16
X16.364Y-39.9
X16.821Y-101.927
X16.872Y-111.782
X17.075Y-114.678
X17.126Y-71.142
X17.634Y-57.934
X17.634Y-59.458
X18.447Y-58.442
X19.2Y-31.9
X19.412Y-72.158
X19.412Y-75.46
X19.412Y-84.35
X20.05Y-35.75
X20.072Y-89.582
X20.174Y-99.59
X20.428Y-55.089
X21.241Y-87.093
X21.495Y-75.46
X21.698Y-104.416
X21.698Y-109.75
X22.104Y-42.491
X22.816Y-57.324
X22.9Y-29.0
X22.968Y-113.306
X22.968Y-115.948
X22.968Y-117.878
X23.4Y-17.4
X23.73Y-53.565
X23.832Y-87.093
X24.086Y-89.582
X24.086Y-93.494
X24.1Y-30.8
X24.238Y-76.12
X24.238Y-99.59
X24.695Y-47.317
X24.695Y-51.228
X25.203Y-91.919
X26.016Y-1.2
X26.524Y-118.996
X27.5Y-17.6
X27.54Y-58.442
X27.591Y-43.558
X27.9Y-30.7
X28.048Y-112.29
X28.861Y-85.925
X28.861Y-104.924
X29.115Y-75.866
X29.166Y-63.471
X29.166Y-115.033
X29.216Y-67.332
X29.369Y-95.475
X29.42Y-101.266
X30.08Y-52.6
X30.182Y-82.318
X30.588Y-55.14
X30.588Y-87.652
X30.842Y-80.083
X31.502Y-103.451
X32.112Y-110.004
X32.2Y-33.25
X32.4Y-1.8
X32.4Y-3.8
X32.4Y-5.8
X32.4Y-7.8
X32.4Y-9.8
X33.128Y-47.114
X33.128Y-49.806
X33.3Y-26.0
X33.382Y-89.532
X33.382Y-91.97
X33.382Y-94.967
X33.382Y-106.804
X33.4Y-30.4
X33.433Y-82.318
X33.433Y-101.571
X33.484Y-77.441
X33.484Y-80.083
X33.636Y-85.925
X33.941Y-120.062
X34.4Y-1.8
X34.4Y-3.8
X34.4Y-5.8
X34.4Y-7.8
X34.4Y-9.8
X34.906Y-52.6
X35.719Y-80.337
X35.8Y-26.0
X35.8Y-33.25
X36.278Y-99.59
X36.4Y-1.8
X36.4Y-3.8
X36.4Y-5.8
X36.4Y-7.8
X36.4Y-9.8
X36.786Y-54.632
X36.989Y-45.59
X37.1Y-30.2
X37.243Y-82.318
X37.243Y-85.976
X37.649Y-120.062
X37.852Y-49.857
X37.954Y-68.602
X37.954Y-103.908
X38.208Y-100.352
X38.208Y-101.876
X38.208Y-115.287
X38.4Y-1.8
X38.4Y-3.8
X38.4Y-5.8
X38.4Y-7.8
X38.4Y-9.8
X38.4Y-26.0
X38.564Y-56.461
X38.818Y-36.598
X39.1Y-32.1
X39.376Y-82.318
X39.376Y-87.093
X39.681Y-51.736
X39.732Y-40.459
X39.935Y-58.798
X40.342Y-47.469
X40.4Y-1.8
X40.4Y-3.8
X40.4Y-5.8
X40.4Y-7.8
X40.4Y-9.8
X40.596Y-101.876
X41.307Y-89.633
X41.459Y-91.97
X41.459Y-106.092
X41.459Y-110.969
X41.459Y-113.458
X41.51Y-95.729
X41.561Y-53.514
X42.221Y-5.51
X42.221Y-7.21
X42.221Y-8.81
X42.221Y-49.196
X42.374Y-36.598
X42.729Y-70.38
X43.085Y-85.976
X43.186Y-76.171
X43.491Y-104.111
X43.542Y-29.74
X43.898Y-7.185
X43.925Y-8.821
X43.925Y-10.521
X44.101Y-51.025
X44.558Y-68.551
X44.609Y-46.758
X44.609Y-56.918
X44.609Y-62.76
X44.812Y-95.78
X44.812Y-100.86
X45.117Y-91.97
X45.625Y-8.81
X45.625Y-10.521
X45.625Y-12.163
X45.93Y-83.842
X46.082Y-41.729
X46.082Y-44.269
X46.488Y-48.587
X46.895Y-113.458
X46.895Y-120.029
X47.149Y-36.598
X47.657Y-39.951
X47.657Y-106.092
X47.758Y-76.527
X48.114Y-54.954
X48.317Y-102.638
X48.317Y-110.207
X50.654Y-50.382
X51.365Y-94.764
X51.518Y-87.652
X52.381Y-36.598
X52.432Y-54.192
X52.432Y-112.104
X52.432Y-114.644
T2
X29.521Y-73.631
T3
X12.402Y-82.318
X20.174Y-14.246
T5
X49.992Y-98.896
X49.992Y-101.396
X49.992Y-103.896
X49.992Y-106.396
X49.992Y-108.896
X49.992Y-111.396
X50.038Y-38.676
X50.038Y-41.176
X50.038Y-43.676
X50.038Y-46.176
X50.038Y-53.722
X50.038Y-56.222
X50.038Y-58.722
X50.038Y-61.222
X50.038Y-68.962
X50.038Y-71.462
X50.038Y-73.962
X50.038Y-76.462
X50.084Y-83.948
X50.084Y-86.448
X50.084Y-88.948
X50.084Y-91.448
T6
X8.314Y-71.27
X8.314Y-74.04
X8.314Y-76.81
X8.314Y-79.58
X8.314Y-82.35
X8.314Y-85.12
X8.314Y-87.89
X8.314Y-90.66
X8.314Y-93.43
X8.314Y-96.2
X8.314Y-98.97
X8.314Y-101.74
X11.154Y-69.885
X11.154Y-72.655
X11.154Y-75.425
X11.154Y-78.195
X11.154Y-80.965
X11.154Y-83.735
X11.154Y-86.505
X11.154Y-89.275
X11.154Y-92.045
X11.154Y-94.815
X11.154Y-97.585
X11.154Y-100.355
X11.154Y-103.125
X13.057Y-9.674
X15.597Y-9.674
X17.837Y-42.999
X20.377Y-42.999
X22.025Y-4.134
X22.025Y-7.134
X25.025Y-4.134
X25.025Y-7.134
X36.761Y-70.176
X36.761Y-73.176
X36.761Y-76.176
X36.761Y-79.176
X36.761Y-88.972
X36.761Y-91.972
X36.761Y-94.972
X36.761Y-97.972
X36.761Y-107.79
X36.761Y-110.79
X36.761Y-113.79
X36.761Y-116.79
X39.761Y-70.176
X39.761Y-73.176
X39.761Y-76.176
X39.761Y-79.176
X39.761Y-88.972
X39.761Y-91.972
X39.761Y-94.972
X39.761Y-97.972
X39.761Y-107.79
X39.761Y-110.79
X39.761Y-113.79
X39.761Y-116.79
T7
X48.876Y-11.198
X48.876Y-16.278
X48.876Y-25.067
X48.876Y-30.147
T8
X15.602Y-117.116
X18.142Y-117.116
X20.682Y-117.116
X25.4Y-117.116
X27.94Y-117.116
X30.48Y-117.116
T9
X34.3Y-44.719
X34.3Y-59.959
X41.9Y-57.419
X41.92Y-44.719
T10
X3.156Y-3.07
X3.156Y-118.0
X9.734Y-62.955
X9.734Y-110.055
X50.4Y-3.048
X50.4Y-118.0
T11
X19.025Y-3.194
X28.025Y-3.194
X35.821Y-67.176
X35.821Y-82.176
X35.821Y-85.972
X35.821Y-100.972
X35.821Y-104.79
X35.821Y-119.79
T12
X4.4Y-20.0
X4.4Y-25.0
T13
X4.4Y-14.7
X4.4Y-30.3
T4
G00X8.95Y-20.0
M15
G01X6.85Y-20.0
M16
G05
G00X8.95Y-25.0
M15
G01X6.85Y-25.0
M16
G05
G00X12.6Y-19.6
M15
G01X10.5Y-19.6
M16
G05
G00X12.6Y-25.4
M15
G01X10.5Y-25.4
M16
G05
G00X13.95Y-14.7
M15
G01X11.85Y-14.7
M16
G05
G00X13.95Y-30.3
M15
G01X11.85Y-30.3
M16
G05
T6
G00X2.4Y-21.9
M15
G01X2.4Y-23.1
M16
G05
T0
M30
