%TF.GenerationSoftware,KiCad,Pcbnew,(6.0.1-0)*%
%TF.CreationDate,2022-06-06T20:51:42+12:00*%
%TF.ProjectId,controller,636f6e74-726f-46c6-9c65-722e6b696361,2.0*%
%TF.SameCoordinates,PX324e6b0PYa469d80*%
%TF.FileFunction,Legend,Top*%
%TF.FilePolarity,Positive*%
%FSLAX46Y46*%
G04 Gerber Fmt 4.6, Leading zero omitted, Abs format (unit mm)*
G04 Created by KiCad (PCBNEW (6.0.1-0)) date 2022-06-06 20:51:42*
%MOMM*%
%LPD*%
G01*
G04 APERTURE LIST*
G04 Aperture macros list*
%AMRoundRect*
0 Rectangle with rounded corners*
0 $1 Rounding radius*
0 $2 $3 $4 $5 $6 $7 $8 $9 X,Y pos of 4 corners*
0 Add a 4 corners polygon primitive as box body*
4,1,4,$2,$3,$4,$5,$6,$7,$8,$9,$2,$3,0*
0 Add four circle primitives for the rounded corners*
1,1,$1+$1,$2,$3*
1,1,$1+$1,$4,$5*
1,1,$1+$1,$6,$7*
1,1,$1+$1,$8,$9*
0 Add four rect primitives between the rounded corners*
20,1,$1+$1,$2,$3,$4,$5,0*
20,1,$1+$1,$4,$5,$6,$7,0*
20,1,$1+$1,$6,$7,$8,$9,0*
20,1,$1+$1,$8,$9,$2,$3,0*%
G04 Aperture macros list end*
%ADD10C,0.100000*%
%ADD11C,0.150000*%
%ADD12C,0.080000*%
%ADD13C,0.200000*%
%ADD14C,0.125000*%
%ADD15C,0.250000*%
%ADD16C,0.120000*%
%ADD17C,0.127000*%
%ADD18R,1.700000X1.700000*%
%ADD19O,1.700000X1.700000*%
%ADD20R,5.400000X2.900000*%
%ADD21RoundRect,0.147500X-0.172500X0.147500X-0.172500X-0.147500X0.172500X-0.147500X0.172500X0.147500X0*%
%ADD22RoundRect,0.225000X0.225000X0.250000X-0.225000X0.250000X-0.225000X-0.250000X0.225000X-0.250000X0*%
%ADD23RoundRect,0.147500X0.172500X-0.147500X0.172500X0.147500X-0.172500X0.147500X-0.172500X-0.147500X0*%
%ADD24RoundRect,0.225000X-0.225000X-0.250000X0.225000X-0.250000X0.225000X0.250000X-0.225000X0.250000X0*%
%ADD25C,1.000000*%
%ADD26RoundRect,0.250001X-0.499999X0.499999X-0.499999X-0.499999X0.499999X-0.499999X0.499999X0.499999X0*%
%ADD27C,1.500000*%
%ADD28R,0.800000X0.500000*%
%ADD29R,0.800000X0.400000*%
%ADD30RoundRect,0.200000X-0.275000X0.200000X-0.275000X-0.200000X0.275000X-0.200000X0.275000X0.200000X0*%
%ADD31RoundRect,0.200000X0.200000X0.275000X-0.200000X0.275000X-0.200000X-0.275000X0.200000X-0.275000X0*%
%ADD32RoundRect,0.200000X-0.200000X-0.275000X0.200000X-0.275000X0.200000X0.275000X-0.200000X0.275000X0*%
%ADD33R,2.100000X2.100000*%
%ADD34C,2.100000*%
%ADD35R,0.600000X0.700000*%
%ADD36RoundRect,0.250001X-0.499999X-0.499999X0.499999X-0.499999X0.499999X0.499999X-0.499999X0.499999X0*%
%ADD37R,1.300000X2.000000*%
%ADD38R,2.000000X2.000000*%
%ADD39C,1.100000*%
%ADD40R,2.200000X2.200000*%
%ADD41C,2.200000*%
%ADD42RoundRect,0.200000X0.275000X-0.200000X0.275000X0.200000X-0.275000X0.200000X-0.275000X-0.200000X0*%
%ADD43C,1.448000*%
%ADD44RoundRect,0.150000X-0.875000X-0.150000X0.875000X-0.150000X0.875000X0.150000X-0.875000X0.150000X0*%
%ADD45RoundRect,0.150000X0.587500X0.150000X-0.587500X0.150000X-0.587500X-0.150000X0.587500X-0.150000X0*%
%ADD46R,2.200000X1.200000*%
%ADD47R,6.400000X5.800000*%
%ADD48R,0.700000X0.600000*%
%ADD49RoundRect,0.225000X0.250000X-0.225000X0.250000X0.225000X-0.250000X0.225000X-0.250000X-0.225000X0*%
%ADD50RoundRect,0.250000X0.620000X0.845000X-0.620000X0.845000X-0.620000X-0.845000X0.620000X-0.845000X0*%
%ADD51O,1.740000X2.190000*%
%ADD52R,1.100000X4.600000*%
%ADD53R,10.800000X9.400000*%
%ADD54C,5.500000*%
%ADD55RoundRect,0.250000X-1.000000X1.950000X-1.000000X-1.950000X1.000000X-1.950000X1.000000X1.950000X0*%
%ADD56R,2.000000X1.200000*%
%ADD57C,2.300000*%
%ADD58R,2.300000X2.300000*%
%ADD59RoundRect,0.225000X-0.250000X0.225000X-0.250000X-0.225000X0.250000X-0.225000X0.250000X0.225000X0*%
%ADD60C,1.700000*%
%ADD61O,3.200000X1.600000*%
%ADD62O,1.750000X3.500000*%
%ADD63RoundRect,0.250000X1.500000X0.550000X-1.500000X0.550000X-1.500000X-0.550000X1.500000X-0.550000X0*%
%ADD64RoundRect,0.150000X-0.587500X-0.150000X0.587500X-0.150000X0.587500X0.150000X-0.587500X0.150000X0*%
%ADD65RoundRect,0.250000X-0.325000X-0.650000X0.325000X-0.650000X0.325000X0.650000X-0.325000X0.650000X0*%
%ADD66RoundRect,0.150000X0.725000X0.150000X-0.725000X0.150000X-0.725000X-0.150000X0.725000X-0.150000X0*%
%ADD67C,4.000000*%
%ADD68R,1.600000X1.600000*%
%ADD69C,1.600000*%
%ADD70RoundRect,0.150000X-0.825000X-0.150000X0.825000X-0.150000X0.825000X0.150000X-0.825000X0.150000X0*%
%ADD71R,0.600000X0.450000*%
%ADD72RoundRect,0.250000X1.025000X-0.787500X1.025000X0.787500X-1.025000X0.787500X-1.025000X-0.787500X0*%
%ADD73R,2.500000X1.800000*%
G04 APERTURE END LIST*
D10*
X11250000Y75250000D02*
X12550000Y75250000D01*
X12550000Y75250000D02*
X12550000Y77800000D01*
X12550000Y77800000D02*
X11250000Y77800000D01*
X11250000Y77800000D02*
X11250000Y75250000D01*
X51450000Y17900000D02*
X54700000Y17900000D01*
X48350000Y46550000D02*
X48350000Y45100000D01*
X35250000Y13650000D02*
X35650000Y13650000D01*
X54300000Y58850000D02*
X53750000Y58850000D01*
X37050000Y27125000D02*
X36100000Y27125000D01*
X48350000Y45100000D02*
X47800000Y45100000D01*
D11*
X28475000Y15550000D02*
G75*
G03*
X28475000Y15550000I-75000J0D01*
G01*
D10*
X48350000Y40700000D02*
X48350000Y39250000D01*
X43500000Y64650000D02*
X44150000Y64650000D01*
D11*
X58250000Y35500000D02*
X57850000Y35500000D01*
D10*
X53750000Y66450000D02*
X53750000Y65300000D01*
X11275000Y80000000D02*
X12575000Y80000000D01*
X12575000Y80000000D02*
X12575000Y82550000D01*
X12575000Y82550000D02*
X11275000Y82550000D01*
X11275000Y82550000D02*
X11275000Y80000000D01*
X48350000Y21850000D02*
X48350000Y20400000D01*
X11900000Y73550000D02*
X11900000Y74400000D01*
X27550000Y25050000D02*
X27550000Y25450000D01*
X36400000Y23750000D02*
X37700000Y23750000D01*
X37700000Y23750000D02*
X37700000Y26200000D01*
X37700000Y26200000D02*
X36400000Y26200000D01*
X36400000Y26200000D02*
X36400000Y23750000D01*
D11*
X17675000Y76150000D02*
G75*
G03*
X17675000Y76150000I-75000J0D01*
G01*
D10*
X34200000Y98100000D02*
X34200000Y97800000D01*
X54325000Y28550000D02*
X53775000Y28550000D01*
X31350000Y79250000D02*
X31450000Y79450000D01*
D11*
X28425000Y56350000D02*
G75*
G03*
X28425000Y56350000I-75000J0D01*
G01*
D10*
X14650000Y75000000D02*
X14950000Y75000000D01*
X48350000Y7450000D02*
X47800000Y7450000D01*
X53700000Y73750000D02*
X53700000Y72550000D01*
X25200000Y13050000D02*
X25200000Y13650000D01*
X58100000Y78200000D02*
X57800000Y78200000D01*
X56050000Y96250000D02*
X56050000Y96700000D01*
X11900000Y74400000D02*
X11100000Y74400000D01*
X30050000Y13650000D02*
X30450000Y13650000D01*
X56800000Y96700000D02*
X56050000Y96700000D01*
D11*
X58250000Y15400000D02*
X57850000Y15400000D01*
X58250000Y20500000D02*
X57850000Y20500000D01*
X15675000Y72900000D02*
G75*
G03*
X15675000Y72900000I-75000J0D01*
G01*
X58250000Y17900000D02*
X57850000Y17900000D01*
D10*
X36150000Y98500000D02*
X36300000Y98500000D01*
X57300000Y85850000D02*
X57300000Y85750000D01*
X38950000Y24600000D02*
X38950000Y29150000D01*
D11*
X34375000Y96950000D02*
G75*
G03*
X34375000Y96950000I-75000J0D01*
G01*
D10*
X48350000Y59550000D02*
X48350000Y58100000D01*
X48350000Y40725000D02*
X47800000Y40725000D01*
X54275000Y73750000D02*
X53700000Y73750000D01*
X56050000Y91400000D02*
X56050000Y91000000D01*
X44300000Y87200000D02*
X44100000Y87200000D01*
D11*
X42350000Y102400000D02*
X42700000Y102400000D01*
D10*
X43250000Y42250000D02*
X43250000Y41900000D01*
D11*
X21700000Y114250000D02*
X20953593Y114406621D01*
X20953593Y114406621D02*
X21143593Y114756621D01*
X21143593Y114756621D02*
X21700000Y114250000D01*
G36*
X21700000Y114250000D02*
G01*
X20953593Y114406621D01*
X21143593Y114756621D01*
X21700000Y114250000D01*
G37*
X21700000Y114250000D02*
X20953593Y114406621D01*
X21143593Y114756621D01*
X21700000Y114250000D01*
D10*
X53750000Y58850000D02*
X53750000Y57650000D01*
X24800000Y13650000D02*
X25200000Y13650000D01*
D11*
X58250000Y38050000D02*
X57850000Y38050000D01*
D10*
X43950000Y61075000D02*
X43550000Y61075000D01*
X44150000Y67200000D02*
X43500000Y67200000D01*
X58100000Y85850000D02*
X57300000Y85850000D01*
X26342409Y40200000D02*
X26342409Y39700000D01*
X38950000Y24600000D02*
X51450000Y24550000D01*
X35000000Y20350000D02*
X34900000Y20475000D01*
D11*
X58250000Y68250000D02*
X57850000Y68250000D01*
D10*
X41150000Y112950000D02*
X41150000Y113450000D01*
D11*
X55100000Y99400000D02*
X55400000Y99400000D01*
D10*
X11250000Y71000000D02*
X12550000Y71000000D01*
X12550000Y71000000D02*
X12550000Y73550000D01*
X12550000Y73550000D02*
X11250000Y73550000D01*
X11250000Y73550000D02*
X11250000Y71000000D01*
X58100000Y83250000D02*
X57300000Y83250000D01*
X20550000Y74150000D02*
X20700000Y74000000D01*
X53750000Y36200000D02*
X53750000Y35100000D01*
D11*
X58250000Y28100000D02*
X57850000Y28100000D01*
D10*
X37050000Y27125000D02*
X37050000Y27975000D01*
D11*
X55100000Y101900000D02*
X55400000Y101900000D01*
D10*
X31750000Y91550000D02*
X31900000Y91550000D01*
X54300000Y65300000D02*
X53750000Y65300000D01*
X20775000Y79650000D02*
X21025000Y79650000D01*
D11*
X58250000Y53100000D02*
X57850000Y53100000D01*
X58250000Y58159059D02*
X57850000Y58159059D01*
D10*
X30050000Y13050000D02*
X30050000Y13650000D01*
D11*
X58250000Y25600000D02*
X57850000Y25600000D01*
D10*
X53750000Y17300000D02*
X53750000Y15100000D01*
X29450000Y82250000D02*
X29550000Y82150000D01*
D11*
X58250000Y70809231D02*
X57850000Y70809231D01*
D10*
X53800000Y51600000D02*
X53800000Y50450000D01*
X48350000Y59575000D02*
X47800000Y59575000D01*
D11*
X23825000Y53100000D02*
G75*
G03*
X23825000Y53100000I-75000J0D01*
G01*
D10*
X18650000Y115800000D02*
X21700000Y114250000D01*
X36400000Y28000000D02*
X37700000Y28000000D01*
X37700000Y28000000D02*
X37700000Y30450000D01*
X37700000Y30450000D02*
X36400000Y30450000D01*
X36400000Y30450000D02*
X36400000Y28000000D01*
X20400000Y13050000D02*
X20400000Y13650000D01*
X18000000Y78650000D02*
X18150000Y78650000D01*
X51450000Y24550000D02*
X51450000Y17900000D01*
X43550000Y61075000D02*
X43550000Y60725000D01*
X26517409Y54850000D02*
X26517409Y54400000D01*
D11*
X58250000Y55659231D02*
X57850000Y55659231D01*
D10*
X11275000Y84250000D02*
X12575000Y84250000D01*
X12575000Y84250000D02*
X12575000Y86800000D01*
X12575000Y86800000D02*
X11275000Y86800000D01*
X11275000Y86800000D02*
X11275000Y84250000D01*
X28000000Y25450000D02*
X27550000Y25450000D01*
X37050000Y26225000D02*
X37050000Y27125000D01*
D11*
X58250000Y73309059D02*
X57850000Y73309059D01*
X58250000Y65700000D02*
X57850000Y65700000D01*
D10*
X43500000Y67200000D02*
X43500000Y64650000D01*
X43650000Y23450000D02*
X43250000Y23450000D01*
X56050000Y91000000D02*
X56800000Y91000000D01*
X53700000Y28550000D02*
X53650000Y25650000D01*
X56100000Y86200000D02*
X56100000Y87800000D01*
X58100000Y80750000D02*
X57800000Y80750000D01*
X20400000Y13650000D02*
X20800000Y13650000D01*
X33800000Y98100000D02*
X34200000Y98100000D01*
X25967409Y54850000D02*
X26517409Y54850000D01*
D11*
X42700000Y102400000D02*
X42700000Y102100000D01*
X23575000Y38450000D02*
G75*
G03*
X23575000Y38450000I-75000J0D01*
G01*
X58250000Y23000000D02*
X57850000Y23000000D01*
D10*
X38950000Y29150000D02*
X38000000Y29150000D01*
D11*
X58250000Y43109059D02*
X57850000Y43109059D01*
D10*
X35650000Y13050000D02*
X35650000Y13650000D01*
X59562500Y76150000D02*
X56600000Y76150000D01*
X54262500Y43450000D02*
X53750000Y43450000D01*
X29900000Y86150000D02*
X29750000Y86050000D01*
X27300000Y66600000D02*
X26850000Y66600000D01*
X54250000Y35100000D02*
X53750000Y35100000D01*
X48350000Y21875000D02*
X47800000Y21875000D01*
X27300000Y66200000D02*
X27300000Y66600000D01*
X59150000Y87800000D02*
X56100000Y87800000D01*
X11925000Y83400000D02*
X11125000Y83400000D01*
X54325000Y50450000D02*
X53800000Y50450000D01*
X57300000Y83250000D02*
X57300000Y83350000D01*
X53750000Y43450000D02*
X53750000Y42300000D01*
X11900000Y74400000D02*
X11900000Y75250000D01*
X43250000Y23450000D02*
X43250000Y23100000D01*
X43650000Y42250000D02*
X43250000Y42250000D01*
D11*
X58250000Y50550000D02*
X57850000Y50550000D01*
X58250000Y40609231D02*
X57850000Y40609231D01*
D10*
X25842409Y40200000D02*
X26342409Y40200000D01*
X11925000Y83400000D02*
X11925000Y84250000D01*
X48350000Y27800000D02*
X48350000Y26350000D01*
X48350000Y8900000D02*
X48350000Y7450000D01*
X57300000Y80150000D02*
X57300000Y80350000D01*
X11925000Y82550000D02*
X11925000Y83400000D01*
D11*
X54700000Y17900000D02*
X53950000Y17700000D01*
X53950000Y17700000D02*
X53950000Y18100000D01*
X53950000Y18100000D02*
X54700000Y17900000D01*
G36*
X54700000Y17900000D02*
G01*
X53950000Y17700000D01*
X53950000Y18100000D01*
X54700000Y17900000D01*
G37*
X54700000Y17900000D02*
X53950000Y17700000D01*
X53950000Y18100000D01*
X54700000Y17900000D01*
D10*
X48350000Y26350000D02*
X47800000Y26350000D01*
X54300000Y15100000D02*
X53750000Y15100000D01*
D11*
X50052380Y48821548D02*
X50052380Y48916786D01*
X50100000Y49012024D01*
X50147619Y49059643D01*
X50242857Y49107262D01*
X50433333Y49154881D01*
X50671428Y49154881D01*
X50861904Y49107262D01*
X50957142Y49059643D01*
X51004761Y49012024D01*
X51052380Y48916786D01*
X51052380Y48821548D01*
X51004761Y48726310D01*
X50957142Y48678691D01*
X50861904Y48631072D01*
X50671428Y48583453D01*
X50433333Y48583453D01*
X50242857Y48631072D01*
X50147619Y48678691D01*
X50100000Y48726310D01*
X50052380Y48821548D01*
X50052380Y49440596D02*
X51052380Y49773929D01*
X50052380Y50107262D01*
D10*
X40528963Y66533334D02*
X40528963Y67233334D01*
X40695629Y67233334D01*
X40795629Y67200000D01*
X40862296Y67133334D01*
X40895629Y67066667D01*
X40928963Y66933334D01*
X40928963Y66833334D01*
X40895629Y66700000D01*
X40862296Y66633334D01*
X40795629Y66566667D01*
X40695629Y66533334D01*
X40528963Y66533334D01*
X41595629Y67200000D02*
X41528963Y67233334D01*
X41428963Y67233334D01*
X41328963Y67200000D01*
X41262296Y67133334D01*
X41228963Y67066667D01*
X41195629Y66933334D01*
X41195629Y66833334D01*
X41228963Y66700000D01*
X41262296Y66633334D01*
X41328963Y66566667D01*
X41428963Y66533334D01*
X41495629Y66533334D01*
X41595629Y66566667D01*
X41628963Y66600000D01*
X41628963Y66833334D01*
X41495629Y66833334D01*
X41928963Y66533334D02*
X41928963Y67233334D01*
X42328963Y66533334D01*
X42328963Y67233334D01*
X42662296Y66533334D02*
X42662296Y67233334D01*
X42828963Y67233334D01*
X42928963Y67200000D01*
X42995629Y67133334D01*
X43028963Y67066667D01*
X43062296Y66933334D01*
X43062296Y66833334D01*
X43028963Y66700000D01*
X42995629Y66633334D01*
X42928963Y66566667D01*
X42828963Y66533334D01*
X42662296Y66533334D01*
D12*
X57264285Y65330953D02*
X57264285Y65497620D01*
X57526190Y65569048D02*
X57526190Y65330953D01*
X57026190Y65330953D01*
X57026190Y65569048D01*
X57526190Y65783334D02*
X57026190Y65783334D01*
X57526190Y66069048D01*
X57026190Y66069048D01*
D13*
X54274523Y19483991D02*
X53669761Y19060658D01*
X54274523Y18758277D02*
X53004523Y18758277D01*
X53004523Y19242086D01*
X53065000Y19363039D01*
X53125476Y19423515D01*
X53246428Y19483991D01*
X53427857Y19483991D01*
X53548809Y19423515D01*
X53609285Y19363039D01*
X53669761Y19242086D01*
X53669761Y18758277D01*
X53609285Y20028277D02*
X53609285Y20451610D01*
X54274523Y20633039D02*
X54274523Y20028277D01*
X53004523Y20028277D01*
X53004523Y20633039D01*
X54274523Y21782086D02*
X54274523Y21177324D01*
X53004523Y21177324D01*
X53911666Y22144943D02*
X53911666Y22749705D01*
X54274523Y22023991D02*
X53004523Y22447324D01*
X54274523Y22870658D01*
X53669761Y23535896D02*
X54274523Y23535896D01*
X53004523Y23112562D02*
X53669761Y23535896D01*
X53004523Y23959229D01*
X54214047Y24322086D02*
X54274523Y24503515D01*
X54274523Y24805896D01*
X54214047Y24926848D01*
X54153571Y24987324D01*
X54032619Y25047800D01*
X53911666Y25047800D01*
X53790714Y24987324D01*
X53730238Y24926848D01*
X53669761Y24805896D01*
X53609285Y24563991D01*
X53548809Y24443039D01*
X53488333Y24382562D01*
X53367380Y24322086D01*
X53246428Y24322086D01*
X53125476Y24382562D01*
X53065000Y24443039D01*
X53004523Y24563991D01*
X53004523Y24866372D01*
X53065000Y25047800D01*
D12*
X57050000Y78330953D02*
X57026190Y78283334D01*
X57026190Y78211905D01*
X57050000Y78140477D01*
X57097619Y78092858D01*
X57145238Y78069048D01*
X57240476Y78045239D01*
X57311904Y78045239D01*
X57407142Y78069048D01*
X57454761Y78092858D01*
X57502380Y78140477D01*
X57526190Y78211905D01*
X57526190Y78259524D01*
X57502380Y78330953D01*
X57478571Y78354762D01*
X57311904Y78354762D01*
X57311904Y78259524D01*
D11*
X50052380Y33671548D02*
X50052380Y33766786D01*
X50100000Y33862024D01*
X50147619Y33909643D01*
X50242857Y33957262D01*
X50433333Y34004881D01*
X50671428Y34004881D01*
X50861904Y33957262D01*
X50957142Y33909643D01*
X51004761Y33862024D01*
X51052380Y33766786D01*
X51052380Y33671548D01*
X51004761Y33576310D01*
X50957142Y33528691D01*
X50861904Y33481072D01*
X50671428Y33433453D01*
X50433333Y33433453D01*
X50242857Y33481072D01*
X50147619Y33528691D01*
X50100000Y33576310D01*
X50052380Y33671548D01*
X50052380Y34290596D02*
X51052380Y34623929D01*
X50052380Y34957262D01*
D12*
X57026190Y15504762D02*
X57026190Y15266667D01*
X57264285Y15242858D01*
X57240476Y15266667D01*
X57216666Y15314286D01*
X57216666Y15433334D01*
X57240476Y15480953D01*
X57264285Y15504762D01*
X57311904Y15528572D01*
X57430952Y15528572D01*
X57478571Y15504762D01*
X57502380Y15480953D01*
X57526190Y15433334D01*
X57526190Y15314286D01*
X57502380Y15266667D01*
X57478571Y15242858D01*
X57026190Y15671429D02*
X57526190Y15838096D01*
X57026190Y16004762D01*
D14*
X37385714Y24483334D02*
X37423809Y24450000D01*
X37461904Y24350000D01*
X37461904Y24283334D01*
X37423809Y24183334D01*
X37347619Y24116667D01*
X37271428Y24083334D01*
X37119047Y24050000D01*
X37004761Y24050000D01*
X36852380Y24083334D01*
X36776190Y24116667D01*
X36700000Y24183334D01*
X36661904Y24283334D01*
X36661904Y24350000D01*
X36700000Y24450000D01*
X36738095Y24483334D01*
X37385714Y24783334D02*
X37423809Y24816667D01*
X37461904Y24783334D01*
X37423809Y24750000D01*
X37385714Y24783334D01*
X37461904Y24783334D01*
X37461904Y25116667D02*
X36661904Y25116667D01*
X36661904Y25383334D01*
X36700000Y25450000D01*
X36738095Y25483334D01*
X36814285Y25516667D01*
X36928571Y25516667D01*
X37004761Y25483334D01*
X37042857Y25450000D01*
X37080952Y25383334D01*
X37080952Y25116667D01*
X37385714Y25816667D02*
X37423809Y25850000D01*
X37461904Y25816667D01*
X37423809Y25783334D01*
X37385714Y25816667D01*
X37461904Y25816667D01*
X30983333Y13707143D02*
X31083333Y13669048D01*
X31116666Y13630953D01*
X31150000Y13554762D01*
X31150000Y13440477D01*
X31116666Y13364286D01*
X31083333Y13326191D01*
X31016666Y13288096D01*
X30750000Y13288096D01*
X30750000Y14088096D01*
X30983333Y14088096D01*
X31050000Y14050000D01*
X31083333Y14011905D01*
X31116666Y13935715D01*
X31116666Y13859524D01*
X31083333Y13783334D01*
X31050000Y13745239D01*
X30983333Y13707143D01*
X30750000Y13707143D01*
X31450000Y13288096D02*
X31450000Y13821429D01*
X31450000Y14088096D02*
X31416666Y14050000D01*
X31450000Y14011905D01*
X31483333Y14050000D01*
X31450000Y14088096D01*
X31450000Y14011905D01*
X31683333Y13821429D02*
X31950000Y13821429D01*
X31783333Y14088096D02*
X31783333Y13402381D01*
X31816666Y13326191D01*
X31883333Y13288096D01*
X31950000Y13288096D01*
X32150000Y13326191D02*
X32250000Y13288096D01*
X32416666Y13288096D01*
X32483333Y13326191D01*
X32516666Y13364286D01*
X32550000Y13440477D01*
X32550000Y13516667D01*
X32516666Y13592858D01*
X32483333Y13630953D01*
X32416666Y13669048D01*
X32283333Y13707143D01*
X32216666Y13745239D01*
X32183333Y13783334D01*
X32150000Y13859524D01*
X32150000Y13935715D01*
X32183333Y14011905D01*
X32216666Y14050000D01*
X32283333Y14088096D01*
X32450000Y14088096D01*
X32550000Y14050000D01*
X33116666Y13326191D02*
X33050000Y13288096D01*
X32916666Y13288096D01*
X32850000Y13326191D01*
X32816666Y13402381D01*
X32816666Y13707143D01*
X32850000Y13783334D01*
X32916666Y13821429D01*
X33050000Y13821429D01*
X33116666Y13783334D01*
X33150000Y13707143D01*
X33150000Y13630953D01*
X32816666Y13554762D01*
X33350000Y13821429D02*
X33616666Y13821429D01*
X33450000Y14088096D02*
X33450000Y13402381D01*
X33483333Y13326191D01*
X33550000Y13288096D01*
X33616666Y13288096D01*
X33750000Y13821429D02*
X34016666Y13821429D01*
X33850000Y14088096D02*
X33850000Y13402381D01*
X33883333Y13326191D01*
X33950000Y13288096D01*
X34016666Y13288096D01*
X34516666Y13326191D02*
X34450000Y13288096D01*
X34316666Y13288096D01*
X34250000Y13326191D01*
X34216666Y13402381D01*
X34216666Y13707143D01*
X34250000Y13783334D01*
X34316666Y13821429D01*
X34450000Y13821429D01*
X34516666Y13783334D01*
X34550000Y13707143D01*
X34550000Y13630953D01*
X34216666Y13554762D01*
X34850000Y13288096D02*
X34850000Y13821429D01*
X34850000Y13669048D02*
X34883333Y13745239D01*
X34916666Y13783334D01*
X34983333Y13821429D01*
X35050000Y13821429D01*
D12*
X57526190Y83897620D02*
X57288095Y83730953D01*
X57526190Y83611905D02*
X57026190Y83611905D01*
X57026190Y83802381D01*
X57050000Y83850000D01*
X57073809Y83873810D01*
X57121428Y83897620D01*
X57192857Y83897620D01*
X57240476Y83873810D01*
X57264285Y83850000D01*
X57288095Y83802381D01*
X57288095Y83611905D01*
X57264285Y84111905D02*
X57264285Y84278572D01*
X57526190Y84350000D02*
X57526190Y84111905D01*
X57026190Y84111905D01*
X57026190Y84350000D01*
X57526190Y84802381D02*
X57526190Y84564286D01*
X57026190Y84564286D01*
X57383333Y84945239D02*
X57383333Y85183334D01*
X57526190Y84897620D02*
X57026190Y85064286D01*
X57526190Y85230953D01*
X57288095Y85492858D02*
X57526190Y85492858D01*
X57026190Y85326191D02*
X57288095Y85492858D01*
X57026190Y85659524D01*
X57050000Y94905953D02*
X57026190Y94858334D01*
X57026190Y94786905D01*
X57050000Y94715477D01*
X57097619Y94667858D01*
X57145238Y94644048D01*
X57240476Y94620239D01*
X57311904Y94620239D01*
X57407142Y94644048D01*
X57454761Y94667858D01*
X57502380Y94715477D01*
X57526190Y94786905D01*
X57526190Y94834524D01*
X57502380Y94905953D01*
X57478571Y94929762D01*
X57311904Y94929762D01*
X57311904Y94834524D01*
D11*
X50052380Y59211786D02*
X50052380Y58735596D01*
X50528571Y58687977D01*
X50480952Y58735596D01*
X50433333Y58830834D01*
X50433333Y59068929D01*
X50480952Y59164167D01*
X50528571Y59211786D01*
X50623809Y59259405D01*
X50861904Y59259405D01*
X50957142Y59211786D01*
X51004761Y59164167D01*
X51052380Y59068929D01*
X51052380Y58830834D01*
X51004761Y58735596D01*
X50957142Y58687977D01*
X50052380Y59545120D02*
X51052380Y59878453D01*
X50052380Y60211786D01*
X50052380Y63821548D02*
X50052380Y63916786D01*
X50100000Y64012024D01*
X50147619Y64059643D01*
X50242857Y64107262D01*
X50433333Y64154881D01*
X50671428Y64154881D01*
X50861904Y64107262D01*
X50957142Y64059643D01*
X51004761Y64012024D01*
X51052380Y63916786D01*
X51052380Y63821548D01*
X51004761Y63726310D01*
X50957142Y63678691D01*
X50861904Y63631072D01*
X50671428Y63583453D01*
X50433333Y63583453D01*
X50242857Y63631072D01*
X50147619Y63678691D01*
X50100000Y63726310D01*
X50052380Y63821548D01*
X50052380Y64440596D02*
X51052380Y64773929D01*
X50052380Y65107262D01*
D12*
X57264285Y35130953D02*
X57264285Y35297620D01*
X57526190Y35369048D02*
X57526190Y35130953D01*
X57026190Y35130953D01*
X57026190Y35369048D01*
X57526190Y35583334D02*
X57026190Y35583334D01*
X57526190Y35869048D01*
X57026190Y35869048D01*
D11*
X22902380Y119638096D02*
X21902380Y119638096D01*
X21902380Y120019048D01*
X21950000Y120114286D01*
X21997619Y120161905D01*
X22092857Y120209524D01*
X22235714Y120209524D01*
X22330952Y120161905D01*
X22378571Y120114286D01*
X22426190Y120019048D01*
X22426190Y119638096D01*
X21902380Y120542858D02*
X22902380Y120780953D01*
X22188095Y120971429D01*
X22902380Y121161905D01*
X21902380Y121400000D01*
X22902380Y122352381D02*
X22426190Y122019048D01*
X22902380Y121780953D02*
X21902380Y121780953D01*
X21902380Y122161905D01*
X21950000Y122257143D01*
X21997619Y122304762D01*
X22092857Y122352381D01*
X22235714Y122352381D01*
X22330952Y122304762D01*
X22378571Y122257143D01*
X22426190Y122161905D01*
X22426190Y121780953D01*
X22854761Y123495239D02*
X22902380Y123638096D01*
X22902380Y123876191D01*
X22854761Y123971429D01*
X22807142Y124019048D01*
X22711904Y124066667D01*
X22616666Y124066667D01*
X22521428Y124019048D01*
X22473809Y123971429D01*
X22426190Y123876191D01*
X22378571Y123685715D01*
X22330952Y123590477D01*
X22283333Y123542858D01*
X22188095Y123495239D01*
X22092857Y123495239D01*
X21997619Y123542858D01*
X21950000Y123590477D01*
X21902380Y123685715D01*
X21902380Y123923810D01*
X21950000Y124066667D01*
X21902380Y124400000D02*
X22902380Y124638096D01*
X22188095Y124828572D01*
X22902380Y125019048D01*
X21902380Y125257143D01*
D12*
X57526190Y37550000D02*
X57026190Y37550000D01*
X57026190Y37669048D01*
X57050000Y37740477D01*
X57097619Y37788096D01*
X57145238Y37811905D01*
X57240476Y37835715D01*
X57311904Y37835715D01*
X57407142Y37811905D01*
X57454761Y37788096D01*
X57502380Y37740477D01*
X57526190Y37669048D01*
X57526190Y37550000D01*
X57526190Y38050000D02*
X57026190Y38050000D01*
X57526190Y38573810D02*
X57288095Y38407143D01*
X57526190Y38288096D02*
X57026190Y38288096D01*
X57026190Y38478572D01*
X57050000Y38526191D01*
X57073809Y38550000D01*
X57121428Y38573810D01*
X57192857Y38573810D01*
X57240476Y38550000D01*
X57264285Y38526191D01*
X57288095Y38478572D01*
X57288095Y38288096D01*
D11*
X50052380Y44061786D02*
X50052380Y43585596D01*
X50528571Y43537977D01*
X50480952Y43585596D01*
X50433333Y43680834D01*
X50433333Y43918929D01*
X50480952Y44014167D01*
X50528571Y44061786D01*
X50623809Y44109405D01*
X50861904Y44109405D01*
X50957142Y44061786D01*
X51004761Y44014167D01*
X51052380Y43918929D01*
X51052380Y43680834D01*
X51004761Y43585596D01*
X50957142Y43537977D01*
X50052380Y44395120D02*
X51052380Y44728453D01*
X50052380Y45061786D01*
D13*
X53055323Y36478572D02*
X53055323Y37325239D01*
X54325323Y36478572D01*
X54325323Y37325239D01*
X54325323Y38776667D02*
X53055323Y38776667D01*
X53055323Y39079048D01*
X53115800Y39260477D01*
X53236752Y39381429D01*
X53357704Y39441905D01*
X53599609Y39502381D01*
X53781038Y39502381D01*
X54022942Y39441905D01*
X54143895Y39381429D01*
X54264847Y39260477D01*
X54325323Y39079048D01*
X54325323Y38776667D01*
X54325323Y40772381D02*
X53720561Y40349048D01*
X54325323Y40046667D02*
X53055323Y40046667D01*
X53055323Y40530477D01*
X53115800Y40651429D01*
X53176276Y40711905D01*
X53297228Y40772381D01*
X53478657Y40772381D01*
X53599609Y40711905D01*
X53660085Y40651429D01*
X53720561Y40530477D01*
X53720561Y40046667D01*
X53055323Y41135239D02*
X54325323Y41558572D01*
X53055323Y41981905D01*
D10*
X12291666Y80887334D02*
X11958333Y80654000D01*
X12291666Y80487334D02*
X11591666Y80487334D01*
X11591666Y80754000D01*
X11625000Y80820667D01*
X11658333Y80854000D01*
X11725000Y80887334D01*
X11825000Y80887334D01*
X11891666Y80854000D01*
X11925000Y80820667D01*
X11958333Y80754000D01*
X11958333Y80487334D01*
X12291666Y81520667D02*
X12291666Y81187334D01*
X11591666Y81187334D01*
X11958333Y81887334D02*
X12291666Y81887334D01*
X11591666Y81654000D02*
X11958333Y81887334D01*
X11591666Y82120667D01*
D12*
X57526190Y20314286D02*
X57288095Y20147620D01*
X57526190Y20028572D02*
X57026190Y20028572D01*
X57026190Y20219048D01*
X57050000Y20266667D01*
X57073809Y20290477D01*
X57121428Y20314286D01*
X57192857Y20314286D01*
X57240476Y20290477D01*
X57264285Y20266667D01*
X57288095Y20219048D01*
X57288095Y20028572D01*
X57526190Y20766667D02*
X57526190Y20528572D01*
X57026190Y20528572D01*
X57026190Y20885715D02*
X57026190Y21195239D01*
X57216666Y21028572D01*
X57216666Y21100000D01*
X57240476Y21147620D01*
X57264285Y21171429D01*
X57311904Y21195239D01*
X57430952Y21195239D01*
X57478571Y21171429D01*
X57502380Y21147620D01*
X57526190Y21100000D01*
X57526190Y20957143D01*
X57502380Y20909524D01*
X57478571Y20885715D01*
D13*
X56097380Y89395477D02*
X56520714Y88125477D01*
X56944047Y89395477D01*
X57790714Y88790715D02*
X57367380Y88790715D01*
X57367380Y88125477D02*
X57367380Y89395477D01*
X57972142Y89395477D01*
X58455952Y88125477D02*
X58455952Y89395477D01*
X58758333Y89395477D01*
X58939761Y89335000D01*
X59060714Y89214048D01*
X59121190Y89093096D01*
X59181666Y88851191D01*
X59181666Y88669762D01*
X59121190Y88427858D01*
X59060714Y88306905D01*
X58939761Y88185953D01*
X58758333Y88125477D01*
X58455952Y88125477D01*
X48369761Y28852620D02*
X48974523Y28852620D01*
X47704523Y28429286D02*
X48369761Y28852620D01*
X47704523Y29275953D01*
X48309285Y30666905D02*
X48309285Y31090239D01*
X48974523Y31271667D02*
X48974523Y30666905D01*
X47704523Y30666905D01*
X47704523Y31271667D01*
X48974523Y31815953D02*
X47704523Y31815953D01*
X48974523Y32541667D01*
X47704523Y32541667D01*
X48974523Y33146429D02*
X47704523Y33146429D01*
X47704523Y33448810D01*
X47765000Y33630239D01*
X47885952Y33751191D01*
X48006904Y33811667D01*
X48248809Y33872143D01*
X48430238Y33872143D01*
X48672142Y33811667D01*
X48793095Y33751191D01*
X48914047Y33630239D01*
X48974523Y33448810D01*
X48974523Y33146429D01*
X48914047Y34355953D02*
X48974523Y34537381D01*
X48974523Y34839762D01*
X48914047Y34960715D01*
X48853571Y35021191D01*
X48732619Y35081667D01*
X48611666Y35081667D01*
X48490714Y35021191D01*
X48430238Y34960715D01*
X48369761Y34839762D01*
X48309285Y34597858D01*
X48248809Y34476905D01*
X48188333Y34416429D01*
X48067380Y34355953D01*
X47946428Y34355953D01*
X47825476Y34416429D01*
X47765000Y34476905D01*
X47704523Y34597858D01*
X47704523Y34900239D01*
X47765000Y35081667D01*
X47704523Y35444524D02*
X47704523Y36170239D01*
X48974523Y35807381D02*
X47704523Y35807381D01*
X47704523Y36835477D02*
X47704523Y37077381D01*
X47765000Y37198334D01*
X47885952Y37319286D01*
X48127857Y37379762D01*
X48551190Y37379762D01*
X48793095Y37319286D01*
X48914047Y37198334D01*
X48974523Y37077381D01*
X48974523Y36835477D01*
X48914047Y36714524D01*
X48793095Y36593572D01*
X48551190Y36533096D01*
X48127857Y36533096D01*
X47885952Y36593572D01*
X47765000Y36714524D01*
X47704523Y36835477D01*
X48974523Y37924048D02*
X47704523Y37924048D01*
X47704523Y38407858D01*
X47765000Y38528810D01*
X47825476Y38589286D01*
X47946428Y38649762D01*
X48127857Y38649762D01*
X48248809Y38589286D01*
X48309285Y38528810D01*
X48369761Y38407858D01*
X48369761Y37924048D01*
D12*
X57026190Y79795239D02*
X57026190Y79842858D01*
X57050000Y79890477D01*
X57073809Y79914286D01*
X57121428Y79938096D01*
X57216666Y79961905D01*
X57335714Y79961905D01*
X57430952Y79938096D01*
X57478571Y79914286D01*
X57502380Y79890477D01*
X57526190Y79842858D01*
X57526190Y79795239D01*
X57502380Y79747620D01*
X57478571Y79723810D01*
X57430952Y79700000D01*
X57335714Y79676191D01*
X57216666Y79676191D01*
X57121428Y79700000D01*
X57073809Y79723810D01*
X57050000Y79747620D01*
X57026190Y79795239D01*
X57526190Y80819048D02*
X57526190Y80533334D01*
X57526190Y80676191D02*
X57026190Y80676191D01*
X57097619Y80628572D01*
X57145238Y80580953D01*
X57169047Y80533334D01*
X57026190Y81128572D02*
X57026190Y81176191D01*
X57050000Y81223810D01*
X57073809Y81247620D01*
X57121428Y81271429D01*
X57216666Y81295239D01*
X57335714Y81295239D01*
X57430952Y81271429D01*
X57478571Y81247620D01*
X57502380Y81223810D01*
X57526190Y81176191D01*
X57526190Y81128572D01*
X57502380Y81080953D01*
X57478571Y81057143D01*
X57430952Y81033334D01*
X57335714Y81009524D01*
X57216666Y81009524D01*
X57121428Y81033334D01*
X57073809Y81057143D01*
X57050000Y81080953D01*
X57026190Y81128572D01*
X57026190Y81438096D02*
X57526190Y81604762D01*
X57026190Y81771429D01*
D11*
X48552380Y72661786D02*
X48552380Y72185596D01*
X49028571Y72137977D01*
X48980952Y72185596D01*
X48933333Y72280834D01*
X48933333Y72518929D01*
X48980952Y72614167D01*
X49028571Y72661786D01*
X49123809Y72709405D01*
X49361904Y72709405D01*
X49457142Y72661786D01*
X49504761Y72614167D01*
X49552380Y72518929D01*
X49552380Y72280834D01*
X49504761Y72185596D01*
X49457142Y72137977D01*
X48552380Y72995120D02*
X49552380Y73328453D01*
X48552380Y73661786D01*
D12*
X57478571Y72907143D02*
X57502380Y72883334D01*
X57526190Y72811905D01*
X57526190Y72764286D01*
X57502380Y72692858D01*
X57454761Y72645239D01*
X57407142Y72621429D01*
X57311904Y72597620D01*
X57240476Y72597620D01*
X57145238Y72621429D01*
X57097619Y72645239D01*
X57050000Y72692858D01*
X57026190Y72764286D01*
X57026190Y72811905D01*
X57050000Y72883334D01*
X57073809Y72907143D01*
X57026190Y73216667D02*
X57026190Y73311905D01*
X57050000Y73359524D01*
X57097619Y73407143D01*
X57192857Y73430953D01*
X57359523Y73430953D01*
X57454761Y73407143D01*
X57502380Y73359524D01*
X57526190Y73311905D01*
X57526190Y73216667D01*
X57502380Y73169048D01*
X57454761Y73121429D01*
X57359523Y73097620D01*
X57192857Y73097620D01*
X57097619Y73121429D01*
X57050000Y73169048D01*
X57026190Y73216667D01*
X57526190Y73645239D02*
X57026190Y73645239D01*
X57383333Y73811905D01*
X57026190Y73978572D01*
X57526190Y73978572D01*
D14*
X21316666Y13707143D02*
X21416666Y13669048D01*
X21450000Y13630953D01*
X21483333Y13554762D01*
X21483333Y13440477D01*
X21450000Y13364286D01*
X21416666Y13326191D01*
X21350000Y13288096D01*
X21083333Y13288096D01*
X21083333Y14088096D01*
X21316666Y14088096D01*
X21383333Y14050000D01*
X21416666Y14011905D01*
X21450000Y13935715D01*
X21450000Y13859524D01*
X21416666Y13783334D01*
X21383333Y13745239D01*
X21316666Y13707143D01*
X21083333Y13707143D01*
X21783333Y13288096D02*
X21783333Y13821429D01*
X21783333Y14088096D02*
X21750000Y14050000D01*
X21783333Y14011905D01*
X21816666Y14050000D01*
X21783333Y14088096D01*
X21783333Y14011905D01*
X22016666Y13821429D02*
X22283333Y13821429D01*
X22116666Y14088096D02*
X22116666Y13402381D01*
X22150000Y13326191D01*
X22216666Y13288096D01*
X22283333Y13288096D01*
X22450000Y14088096D02*
X22916666Y14088096D01*
X22450000Y13288096D01*
X22916666Y13288096D01*
X23450000Y13326191D02*
X23383333Y13288096D01*
X23250000Y13288096D01*
X23183333Y13326191D01*
X23150000Y13402381D01*
X23150000Y13707143D01*
X23183333Y13783334D01*
X23250000Y13821429D01*
X23383333Y13821429D01*
X23450000Y13783334D01*
X23483333Y13707143D01*
X23483333Y13630953D01*
X23150000Y13554762D01*
X23783333Y13288096D02*
X23783333Y13821429D01*
X23783333Y13669048D02*
X23816666Y13745239D01*
X23850000Y13783334D01*
X23916666Y13821429D01*
X23983333Y13821429D01*
X24316666Y13288096D02*
X24250000Y13326191D01*
X24216666Y13364286D01*
X24183333Y13440477D01*
X24183333Y13669048D01*
X24216666Y13745239D01*
X24250000Y13783334D01*
X24316666Y13821429D01*
X24416666Y13821429D01*
X24483333Y13783334D01*
X24516666Y13745239D01*
X24550000Y13669048D01*
X24550000Y13440477D01*
X24516666Y13364286D01*
X24483333Y13326191D01*
X24416666Y13288096D01*
X24316666Y13288096D01*
D10*
X56000000Y99033334D02*
X56000000Y99733334D01*
X56266666Y99733334D01*
X56333333Y99700000D01*
X56366666Y99666667D01*
X56400000Y99600000D01*
X56400000Y99500000D01*
X56366666Y99433334D01*
X56333333Y99400000D01*
X56266666Y99366667D01*
X56000000Y99366667D01*
X57066666Y99033334D02*
X56666666Y99033334D01*
X56866666Y99033334D02*
X56866666Y99733334D01*
X56800000Y99633334D01*
X56733333Y99566667D01*
X56666666Y99533334D01*
X57666666Y99733334D02*
X57533333Y99733334D01*
X57466666Y99700000D01*
X57433333Y99666667D01*
X57366666Y99566667D01*
X57333333Y99433334D01*
X57333333Y99166667D01*
X57366666Y99100000D01*
X57400000Y99066667D01*
X57466666Y99033334D01*
X57600000Y99033334D01*
X57666666Y99066667D01*
X57700000Y99100000D01*
X57733333Y99166667D01*
X57733333Y99333334D01*
X57700000Y99400000D01*
X57666666Y99433334D01*
X57600000Y99466667D01*
X57466666Y99466667D01*
X57400000Y99433334D01*
X57366666Y99400000D01*
X57333333Y99333334D01*
D14*
X37461904Y28897917D02*
X37080952Y28664584D01*
X37461904Y28497917D02*
X36661904Y28497917D01*
X36661904Y28764584D01*
X36700000Y28831250D01*
X36738095Y28864584D01*
X36814285Y28897917D01*
X36928571Y28897917D01*
X37004761Y28864584D01*
X37042857Y28831250D01*
X37080952Y28764584D01*
X37080952Y28497917D01*
X37461904Y29531250D02*
X37461904Y29197917D01*
X36661904Y29197917D01*
X36928571Y30064584D02*
X37461904Y30064584D01*
X36623809Y29897917D02*
X37195238Y29731250D01*
X37195238Y30164584D01*
X36661904Y31064584D02*
X36852380Y31064584D01*
X36776190Y30897917D02*
X36852380Y31064584D01*
X36776190Y31231250D01*
X37004761Y30964584D02*
X36852380Y31064584D01*
X37004761Y31164584D01*
D15*
X20196428Y99685715D02*
X20125000Y99742858D01*
X20053571Y99857143D01*
X20053571Y100142858D01*
X20125000Y100257143D01*
X20196428Y100314286D01*
X20339285Y100371429D01*
X20482142Y100371429D01*
X20696428Y100314286D01*
X21553571Y99628572D01*
X21553571Y100371429D01*
X20553571Y101400000D02*
X21553571Y101400000D01*
X19982142Y101114286D02*
X21053571Y100828572D01*
X21053571Y101571429D01*
X20053571Y101857143D02*
X21553571Y102257143D01*
X20053571Y102657143D01*
X19982142Y103914286D02*
X21910714Y102885715D01*
X20053571Y104885715D02*
X20053571Y104314286D01*
X20767857Y104257143D01*
X20696428Y104314286D01*
X20625000Y104428572D01*
X20625000Y104714286D01*
X20696428Y104828572D01*
X20767857Y104885715D01*
X20910714Y104942858D01*
X21267857Y104942858D01*
X21410714Y104885715D01*
X21482142Y104828572D01*
X21553571Y104714286D01*
X21553571Y104428572D01*
X21482142Y104314286D01*
X21410714Y104257143D01*
X21125000Y105400000D02*
X21125000Y105971429D01*
X21553571Y105285715D02*
X20053571Y105685715D01*
X21553571Y106085715D01*
X21553571Y107400000D02*
X20053571Y107400000D01*
X21553571Y107971429D02*
X20053571Y107971429D01*
X21553571Y108657143D01*
X20053571Y108657143D01*
D12*
X57478571Y70502381D02*
X57502380Y70478572D01*
X57526190Y70407143D01*
X57526190Y70359524D01*
X57502380Y70288096D01*
X57454761Y70240477D01*
X57407142Y70216667D01*
X57311904Y70192858D01*
X57240476Y70192858D01*
X57145238Y70216667D01*
X57097619Y70240477D01*
X57050000Y70288096D01*
X57026190Y70359524D01*
X57026190Y70407143D01*
X57050000Y70478572D01*
X57073809Y70502381D01*
X57526190Y70954762D02*
X57526190Y70716667D01*
X57026190Y70716667D01*
X57526190Y71121429D02*
X57026190Y71121429D01*
X57526190Y71407143D02*
X57240476Y71192858D01*
X57026190Y71407143D02*
X57311904Y71121429D01*
D13*
X47704523Y9579286D02*
X47704523Y10425953D01*
X48974523Y9579286D01*
X48974523Y10425953D01*
X48309285Y11877381D02*
X48309285Y12300715D01*
X48974523Y12482143D02*
X48974523Y11877381D01*
X47704523Y11877381D01*
X47704523Y12482143D01*
X48974523Y13026429D02*
X47704523Y13026429D01*
X48974523Y13752143D01*
X47704523Y13752143D01*
X48974523Y14356905D02*
X47704523Y14356905D01*
X47704523Y14659286D01*
X47765000Y14840715D01*
X47885952Y14961667D01*
X48006904Y15022143D01*
X48248809Y15082620D01*
X48430238Y15082620D01*
X48672142Y15022143D01*
X48793095Y14961667D01*
X48914047Y14840715D01*
X48974523Y14659286D01*
X48974523Y14356905D01*
X48914047Y15566429D02*
X48974523Y15747858D01*
X48974523Y16050239D01*
X48914047Y16171191D01*
X48853571Y16231667D01*
X48732619Y16292143D01*
X48611666Y16292143D01*
X48490714Y16231667D01*
X48430238Y16171191D01*
X48369761Y16050239D01*
X48309285Y15808334D01*
X48248809Y15687381D01*
X48188333Y15626905D01*
X48067380Y15566429D01*
X47946428Y15566429D01*
X47825476Y15626905D01*
X47765000Y15687381D01*
X47704523Y15808334D01*
X47704523Y16110715D01*
X47765000Y16292143D01*
X47704523Y16655000D02*
X47704523Y17380715D01*
X48974523Y17017858D02*
X47704523Y17017858D01*
X47704523Y18045953D02*
X47704523Y18287858D01*
X47765000Y18408810D01*
X47885952Y18529762D01*
X48127857Y18590239D01*
X48551190Y18590239D01*
X48793095Y18529762D01*
X48914047Y18408810D01*
X48974523Y18287858D01*
X48974523Y18045953D01*
X48914047Y17925000D01*
X48793095Y17804048D01*
X48551190Y17743572D01*
X48127857Y17743572D01*
X47885952Y17804048D01*
X47765000Y17925000D01*
X47704523Y18045953D01*
X48974523Y19134524D02*
X47704523Y19134524D01*
X47704523Y19618334D01*
X47765000Y19739286D01*
X47825476Y19799762D01*
X47946428Y19860239D01*
X48127857Y19860239D01*
X48248809Y19799762D01*
X48309285Y19739286D01*
X48369761Y19618334D01*
X48369761Y19134524D01*
X53795561Y52251905D02*
X54400323Y52251905D01*
X53130323Y51828572D02*
X53795561Y52251905D01*
X53130323Y52675239D01*
X54400323Y54066191D02*
X53130323Y54066191D01*
X53130323Y54368572D01*
X53190800Y54550000D01*
X53311752Y54670953D01*
X53432704Y54731429D01*
X53674609Y54791905D01*
X53856038Y54791905D01*
X54097942Y54731429D01*
X54218895Y54670953D01*
X54339847Y54550000D01*
X54400323Y54368572D01*
X54400323Y54066191D01*
X54400323Y56061905D02*
X53795561Y55638572D01*
X54400323Y55336191D02*
X53130323Y55336191D01*
X53130323Y55820000D01*
X53190800Y55940953D01*
X53251276Y56001429D01*
X53372228Y56061905D01*
X53553657Y56061905D01*
X53674609Y56001429D01*
X53735085Y55940953D01*
X53795561Y55820000D01*
X53795561Y55336191D01*
X53130323Y56424762D02*
X54400323Y56848096D01*
X53130323Y57271429D01*
D10*
X12266666Y75616667D02*
X11566666Y75616667D01*
X11566666Y75883334D01*
X11600000Y75950000D01*
X11633333Y75983334D01*
X11700000Y76016667D01*
X11800000Y76016667D01*
X11866666Y75983334D01*
X11900000Y75950000D01*
X11933333Y75883334D01*
X11933333Y75616667D01*
X12266666Y76683334D02*
X12266666Y76283334D01*
X12266666Y76483334D02*
X11566666Y76483334D01*
X11666666Y76416667D01*
X11733333Y76350000D01*
X11766666Y76283334D01*
X11566666Y77283334D02*
X11566666Y77150000D01*
X11600000Y77083334D01*
X11633333Y77050000D01*
X11733333Y76983334D01*
X11866666Y76950000D01*
X12133333Y76950000D01*
X12200000Y76983334D01*
X12233333Y77016667D01*
X12266666Y77083334D01*
X12266666Y77216667D01*
X12233333Y77283334D01*
X12200000Y77316667D01*
X12133333Y77350000D01*
X11966666Y77350000D01*
X11900000Y77316667D01*
X11866666Y77283334D01*
X11833333Y77216667D01*
X11833333Y77083334D01*
X11866666Y77016667D01*
X11900000Y76983334D01*
X11966666Y76950000D01*
X11566666Y78283334D02*
X11733333Y78283334D01*
X11666666Y78116667D02*
X11733333Y78283334D01*
X11666666Y78450000D01*
X11866666Y78183334D02*
X11733333Y78283334D01*
X11866666Y78383334D01*
D12*
X57264285Y50180953D02*
X57264285Y50347620D01*
X57526190Y50419048D02*
X57526190Y50180953D01*
X57026190Y50180953D01*
X57026190Y50419048D01*
X57526190Y50633334D02*
X57026190Y50633334D01*
X57526190Y50919048D01*
X57026190Y50919048D01*
D10*
X60283333Y88483334D02*
X60150000Y88483334D01*
X60083333Y88450000D01*
X60050000Y88416667D01*
X59983333Y88316667D01*
X59950000Y88183334D01*
X59950000Y87916667D01*
X59983333Y87850000D01*
X60016666Y87816667D01*
X60083333Y87783334D01*
X60216666Y87783334D01*
X60283333Y87816667D01*
X60316666Y87850000D01*
X60350000Y87916667D01*
X60350000Y88083334D01*
X60316666Y88150000D01*
X60283333Y88183334D01*
X60216666Y88216667D01*
X60083333Y88216667D01*
X60016666Y88183334D01*
X59983333Y88150000D01*
X59950000Y88083334D01*
X60616666Y87983334D02*
X60950000Y87983334D01*
X60550000Y87783334D02*
X60783333Y88483334D01*
X61016666Y87783334D01*
X61783333Y87783334D02*
X61783333Y88483334D01*
X62016666Y87983334D01*
X62250000Y88483334D01*
X62250000Y87783334D01*
X62550000Y87983334D02*
X62883333Y87983334D01*
X62483333Y87783334D02*
X62716666Y88483334D01*
X62950000Y87783334D01*
X63116666Y88483334D02*
X63583333Y87783334D01*
X63583333Y88483334D02*
X63116666Y87783334D01*
X40545629Y64783334D02*
X40878963Y64783334D01*
X40478963Y64583334D02*
X40712296Y65283334D01*
X40945629Y64583334D01*
X41545629Y65250000D02*
X41478963Y65283334D01*
X41378963Y65283334D01*
X41278963Y65250000D01*
X41212296Y65183334D01*
X41178963Y65116667D01*
X41145629Y64983334D01*
X41145629Y64883334D01*
X41178963Y64750000D01*
X41212296Y64683334D01*
X41278963Y64616667D01*
X41378963Y64583334D01*
X41445629Y64583334D01*
X41545629Y64616667D01*
X41578963Y64650000D01*
X41578963Y64883334D01*
X41445629Y64883334D01*
X41878963Y64583334D02*
X41878963Y65283334D01*
X42278963Y64583334D01*
X42278963Y65283334D01*
X42612296Y64583334D02*
X42612296Y65283334D01*
X42778963Y65283334D01*
X42878963Y65250000D01*
X42945629Y65183334D01*
X42978963Y65116667D01*
X43012296Y64983334D01*
X43012296Y64883334D01*
X42978963Y64750000D01*
X42945629Y64683334D01*
X42878963Y64616667D01*
X42778963Y64583334D01*
X42612296Y64583334D01*
D12*
X57478571Y42707143D02*
X57502380Y42683334D01*
X57526190Y42611905D01*
X57526190Y42564286D01*
X57502380Y42492858D01*
X57454761Y42445239D01*
X57407142Y42421429D01*
X57311904Y42397620D01*
X57240476Y42397620D01*
X57145238Y42421429D01*
X57097619Y42445239D01*
X57050000Y42492858D01*
X57026190Y42564286D01*
X57026190Y42611905D01*
X57050000Y42683334D01*
X57073809Y42707143D01*
X57026190Y43016667D02*
X57026190Y43111905D01*
X57050000Y43159524D01*
X57097619Y43207143D01*
X57192857Y43230953D01*
X57359523Y43230953D01*
X57454761Y43207143D01*
X57502380Y43159524D01*
X57526190Y43111905D01*
X57526190Y43016667D01*
X57502380Y42969048D01*
X57454761Y42921429D01*
X57359523Y42897620D01*
X57192857Y42897620D01*
X57097619Y42921429D01*
X57050000Y42969048D01*
X57026190Y43016667D01*
X57526190Y43445239D02*
X57026190Y43445239D01*
X57383333Y43611905D01*
X57026190Y43778572D01*
X57526190Y43778572D01*
D10*
X12266666Y71270667D02*
X11566666Y71270667D01*
X11566666Y71537334D01*
X11600000Y71604000D01*
X11633333Y71637334D01*
X11700000Y71670667D01*
X11800000Y71670667D01*
X11866666Y71637334D01*
X11900000Y71604000D01*
X11933333Y71537334D01*
X11933333Y71270667D01*
X11566666Y71904000D02*
X12266666Y72070667D01*
X11766666Y72204000D01*
X12266666Y72337334D01*
X11566666Y72504000D01*
X12266666Y72770667D02*
X11566666Y72770667D01*
X12066666Y73004000D01*
X11566666Y73237334D01*
X12266666Y73237334D01*
D12*
X57526190Y67750000D02*
X57026190Y67750000D01*
X57026190Y67869048D01*
X57050000Y67940477D01*
X57097619Y67988096D01*
X57145238Y68011905D01*
X57240476Y68035715D01*
X57311904Y68035715D01*
X57407142Y68011905D01*
X57454761Y67988096D01*
X57502380Y67940477D01*
X57526190Y67869048D01*
X57526190Y67750000D01*
X57526190Y68250000D02*
X57026190Y68250000D01*
X57526190Y68773810D02*
X57288095Y68607143D01*
X57526190Y68488096D02*
X57026190Y68488096D01*
X57026190Y68678572D01*
X57050000Y68726191D01*
X57073809Y68750000D01*
X57121428Y68773810D01*
X57192857Y68773810D01*
X57240476Y68750000D01*
X57264285Y68726191D01*
X57288095Y68678572D01*
X57288095Y68488096D01*
X57478571Y57757143D02*
X57502380Y57733334D01*
X57526190Y57661905D01*
X57526190Y57614286D01*
X57502380Y57542858D01*
X57454761Y57495239D01*
X57407142Y57471429D01*
X57311904Y57447620D01*
X57240476Y57447620D01*
X57145238Y57471429D01*
X57097619Y57495239D01*
X57050000Y57542858D01*
X57026190Y57614286D01*
X57026190Y57661905D01*
X57050000Y57733334D01*
X57073809Y57757143D01*
X57026190Y58066667D02*
X57026190Y58161905D01*
X57050000Y58209524D01*
X57097619Y58257143D01*
X57192857Y58280953D01*
X57359523Y58280953D01*
X57454761Y58257143D01*
X57502380Y58209524D01*
X57526190Y58161905D01*
X57526190Y58066667D01*
X57502380Y58019048D01*
X57454761Y57971429D01*
X57359523Y57947620D01*
X57192857Y57947620D01*
X57097619Y57971429D01*
X57050000Y58019048D01*
X57026190Y58066667D01*
X57526190Y58495239D02*
X57026190Y58495239D01*
X57383333Y58661905D01*
X57026190Y58828572D01*
X57526190Y58828572D01*
D11*
X11892857Y116947858D02*
X11854761Y116900239D01*
X11740476Y116852620D01*
X11664285Y116852620D01*
X11550000Y116900239D01*
X11473809Y116995477D01*
X11435714Y117090715D01*
X11397619Y117281191D01*
X11397619Y117424048D01*
X11435714Y117614524D01*
X11473809Y117709762D01*
X11550000Y117805000D01*
X11664285Y117852620D01*
X11740476Y117852620D01*
X11854761Y117805000D01*
X11892857Y117757381D01*
X12235714Y116852620D02*
X12235714Y117852620D01*
X12235714Y117376429D02*
X12692857Y117376429D01*
X12692857Y116852620D02*
X12692857Y117852620D01*
X13035714Y117138334D02*
X13416666Y117138334D01*
X12959523Y116852620D02*
X13226190Y117852620D01*
X13492857Y116852620D01*
X14216666Y116852620D02*
X13950000Y117328810D01*
X13759523Y116852620D02*
X13759523Y117852620D01*
X14064285Y117852620D01*
X14140476Y117805000D01*
X14178571Y117757381D01*
X14216666Y117662143D01*
X14216666Y117519286D01*
X14178571Y117424048D01*
X14140476Y117376429D01*
X14064285Y117328810D01*
X13759523Y117328810D01*
X14978571Y117805000D02*
X14902380Y117852620D01*
X14788095Y117852620D01*
X14673809Y117805000D01*
X14597619Y117709762D01*
X14559523Y117614524D01*
X14521428Y117424048D01*
X14521428Y117281191D01*
X14559523Y117090715D01*
X14597619Y116995477D01*
X14673809Y116900239D01*
X14788095Y116852620D01*
X14864285Y116852620D01*
X14978571Y116900239D01*
X15016666Y116947858D01*
X15016666Y117281191D01*
X14864285Y117281191D01*
X15359523Y117376429D02*
X15626190Y117376429D01*
X15740476Y116852620D02*
X15359523Y116852620D01*
X15359523Y117852620D01*
X15740476Y117852620D01*
X16692857Y116852620D02*
X16692857Y117852620D01*
X16997619Y117852620D01*
X17073809Y117805000D01*
X17111904Y117757381D01*
X17150000Y117662143D01*
X17150000Y117519286D01*
X17111904Y117424048D01*
X17073809Y117376429D01*
X16997619Y117328810D01*
X16692857Y117328810D01*
X17492857Y117852620D02*
X17492857Y117043096D01*
X17530952Y116947858D01*
X17569047Y116900239D01*
X17645238Y116852620D01*
X17797619Y116852620D01*
X17873809Y116900239D01*
X17911904Y116947858D01*
X17950000Y117043096D01*
X17950000Y117852620D01*
X18330952Y116852620D02*
X18330952Y117852620D01*
X18597619Y117138334D01*
X18864285Y117852620D01*
X18864285Y116852620D01*
X19245238Y116852620D02*
X19245238Y117852620D01*
X19550000Y117852620D01*
X19626190Y117805000D01*
X19664285Y117757381D01*
X19702380Y117662143D01*
X19702380Y117519286D01*
X19664285Y117424048D01*
X19626190Y117376429D01*
X19550000Y117328810D01*
X19245238Y117328810D01*
X13016666Y116242620D02*
X13169047Y116242620D01*
X13245238Y116195000D01*
X13321428Y116099762D01*
X13359523Y115909286D01*
X13359523Y115575953D01*
X13321428Y115385477D01*
X13245238Y115290239D01*
X13169047Y115242620D01*
X13016666Y115242620D01*
X12940476Y115290239D01*
X12864285Y115385477D01*
X12826190Y115575953D01*
X12826190Y115909286D01*
X12864285Y116099762D01*
X12940476Y116195000D01*
X13016666Y116242620D01*
X13588095Y116242620D02*
X13854761Y115242620D01*
X14121428Y116242620D01*
X14388095Y115766429D02*
X14654761Y115766429D01*
X14769047Y115242620D02*
X14388095Y115242620D01*
X14388095Y116242620D01*
X14769047Y116242620D01*
X15569047Y115242620D02*
X15302380Y115718810D01*
X15111904Y115242620D02*
X15111904Y116242620D01*
X15416666Y116242620D01*
X15492857Y116195000D01*
X15530952Y116147381D01*
X15569047Y116052143D01*
X15569047Y115909286D01*
X15530952Y115814048D01*
X15492857Y115766429D01*
X15416666Y115718810D01*
X15111904Y115718810D01*
X16369047Y115242620D02*
X16102380Y115718810D01*
X15911904Y115242620D02*
X15911904Y116242620D01*
X16216666Y116242620D01*
X16292857Y116195000D01*
X16330952Y116147381D01*
X16369047Y116052143D01*
X16369047Y115909286D01*
X16330952Y115814048D01*
X16292857Y115766429D01*
X16216666Y115718810D01*
X15911904Y115718810D01*
X16711904Y115242620D02*
X16711904Y116242620D01*
X17092857Y115242620D02*
X17092857Y116242620D01*
X17283333Y116242620D01*
X17397619Y116195000D01*
X17473809Y116099762D01*
X17511904Y116004524D01*
X17550000Y115814048D01*
X17550000Y115671191D01*
X17511904Y115480715D01*
X17473809Y115385477D01*
X17397619Y115290239D01*
X17283333Y115242620D01*
X17092857Y115242620D01*
X17892857Y115766429D02*
X18159523Y115766429D01*
X18273809Y115242620D02*
X17892857Y115242620D01*
X17892857Y116242620D01*
X18273809Y116242620D01*
D12*
X57526190Y52600000D02*
X57026190Y52600000D01*
X57026190Y52719048D01*
X57050000Y52790477D01*
X57097619Y52838096D01*
X57145238Y52861905D01*
X57240476Y52885715D01*
X57311904Y52885715D01*
X57407142Y52861905D01*
X57454761Y52838096D01*
X57502380Y52790477D01*
X57526190Y52719048D01*
X57526190Y52600000D01*
X57526190Y53100000D02*
X57026190Y53100000D01*
X57526190Y53623810D02*
X57288095Y53457143D01*
X57526190Y53338096D02*
X57026190Y53338096D01*
X57026190Y53528572D01*
X57050000Y53576191D01*
X57073809Y53600000D01*
X57121428Y53623810D01*
X57192857Y53623810D01*
X57240476Y53600000D01*
X57264285Y53576191D01*
X57288095Y53528572D01*
X57288095Y53338096D01*
X57050000Y28280953D02*
X57026190Y28233334D01*
X57026190Y28161905D01*
X57050000Y28090477D01*
X57097619Y28042858D01*
X57145238Y28019048D01*
X57240476Y27995239D01*
X57311904Y27995239D01*
X57407142Y28019048D01*
X57454761Y28042858D01*
X57502380Y28090477D01*
X57526190Y28161905D01*
X57526190Y28209524D01*
X57502380Y28280953D01*
X57478571Y28304762D01*
X57311904Y28304762D01*
X57311904Y28209524D01*
D13*
X53105323Y66678572D02*
X54375323Y67525239D01*
X53105323Y67525239D02*
X54375323Y66678572D01*
X54375323Y68976667D02*
X53105323Y68976667D01*
X53105323Y69279048D01*
X53165800Y69460477D01*
X53286752Y69581429D01*
X53407704Y69641905D01*
X53649609Y69702381D01*
X53831038Y69702381D01*
X54072942Y69641905D01*
X54193895Y69581429D01*
X54314847Y69460477D01*
X54375323Y69279048D01*
X54375323Y68976667D01*
X54375323Y70972381D02*
X53770561Y70549048D01*
X54375323Y70246667D02*
X53105323Y70246667D01*
X53105323Y70730477D01*
X53165800Y70851429D01*
X53226276Y70911905D01*
X53347228Y70972381D01*
X53528657Y70972381D01*
X53649609Y70911905D01*
X53710085Y70851429D01*
X53770561Y70730477D01*
X53770561Y70246667D01*
X53105323Y71335239D02*
X54375323Y71758572D01*
X53105323Y72181905D01*
D14*
X60588095Y107800000D02*
X60492857Y107847620D01*
X60350000Y107847620D01*
X60207142Y107800000D01*
X60111904Y107704762D01*
X60064285Y107609524D01*
X60016666Y107419048D01*
X60016666Y107276191D01*
X60064285Y107085715D01*
X60111904Y106990477D01*
X60207142Y106895239D01*
X60350000Y106847620D01*
X60445238Y106847620D01*
X60588095Y106895239D01*
X60635714Y106942858D01*
X60635714Y107276191D01*
X60445238Y107276191D01*
X61064285Y106847620D02*
X61064285Y107847620D01*
X61635714Y106847620D01*
X61635714Y107847620D01*
X62111904Y106847620D02*
X62111904Y107847620D01*
X62350000Y107847620D01*
X62492857Y107800000D01*
X62588095Y107704762D01*
X62635714Y107609524D01*
X62683333Y107419048D01*
X62683333Y107276191D01*
X62635714Y107085715D01*
X62588095Y106990477D01*
X62492857Y106895239D01*
X62350000Y106847620D01*
X62111904Y106847620D01*
D12*
X57526190Y17623810D02*
X57288095Y17457143D01*
X57526190Y17338096D02*
X57026190Y17338096D01*
X57026190Y17528572D01*
X57050000Y17576191D01*
X57073809Y17600000D01*
X57121428Y17623810D01*
X57192857Y17623810D01*
X57240476Y17600000D01*
X57264285Y17576191D01*
X57288095Y17528572D01*
X57288095Y17338096D01*
X57526190Y18076191D02*
X57526190Y17838096D01*
X57026190Y17838096D01*
X57192857Y18457143D02*
X57526190Y18457143D01*
X57002380Y18338096D02*
X57359523Y18219048D01*
X57359523Y18528572D01*
X57026190Y18790477D02*
X57145238Y18790477D01*
X57097619Y18671429D02*
X57145238Y18790477D01*
X57097619Y18909524D01*
X57240476Y18719048D02*
X57145238Y18790477D01*
X57240476Y18861905D01*
D10*
X54094047Y97766667D02*
X54248809Y97766667D01*
X54186904Y97600000D02*
X54248809Y97766667D01*
X54186904Y97933334D01*
X54372619Y97666667D02*
X54248809Y97766667D01*
X54372619Y97866667D01*
X54094047Y98400000D02*
X54558333Y98400000D01*
X54651190Y98366667D01*
X54713095Y98300000D01*
X54744047Y98200000D01*
X54744047Y98133334D01*
X54744047Y98733334D02*
X54094047Y98733334D01*
X54094047Y99000000D01*
X54125000Y99066667D01*
X54155952Y99100000D01*
X54217857Y99133334D01*
X54310714Y99133334D01*
X54372619Y99100000D01*
X54403571Y99066667D01*
X54434523Y99000000D01*
X54434523Y98733334D01*
X54155952Y99400000D02*
X54125000Y99433334D01*
X54094047Y99500000D01*
X54094047Y99666667D01*
X54125000Y99733334D01*
X54155952Y99766667D01*
X54217857Y99800000D01*
X54279761Y99800000D01*
X54372619Y99766667D01*
X54744047Y99366667D01*
X54744047Y99800000D01*
X54094047Y100733334D02*
X54248809Y100733334D01*
X54186904Y100566667D02*
X54248809Y100733334D01*
X54186904Y100900000D01*
X54372619Y100633334D02*
X54248809Y100733334D01*
X54372619Y100833334D01*
X54094047Y101366667D02*
X54558333Y101366667D01*
X54651190Y101333334D01*
X54713095Y101266667D01*
X54744047Y101166667D01*
X54744047Y101100000D01*
X54744047Y101700000D02*
X54094047Y101700000D01*
X54094047Y101966667D01*
X54125000Y102033334D01*
X54155952Y102066667D01*
X54217857Y102100000D01*
X54310714Y102100000D01*
X54372619Y102066667D01*
X54403571Y102033334D01*
X54434523Y101966667D01*
X54434523Y101700000D01*
X54094047Y102333334D02*
X54094047Y102766667D01*
X54341666Y102533334D01*
X54341666Y102633334D01*
X54372619Y102700000D01*
X54403571Y102733334D01*
X54465476Y102766667D01*
X54620238Y102766667D01*
X54682142Y102733334D01*
X54713095Y102700000D01*
X54744047Y102633334D01*
X54744047Y102433334D01*
X54713095Y102366667D01*
X54682142Y102333334D01*
D12*
X57478571Y40302381D02*
X57502380Y40278572D01*
X57526190Y40207143D01*
X57526190Y40159524D01*
X57502380Y40088096D01*
X57454761Y40040477D01*
X57407142Y40016667D01*
X57311904Y39992858D01*
X57240476Y39992858D01*
X57145238Y40016667D01*
X57097619Y40040477D01*
X57050000Y40088096D01*
X57026190Y40159524D01*
X57026190Y40207143D01*
X57050000Y40278572D01*
X57073809Y40302381D01*
X57526190Y40754762D02*
X57526190Y40516667D01*
X57026190Y40516667D01*
X57526190Y40921429D02*
X57026190Y40921429D01*
X57526190Y41207143D02*
X57240476Y40992858D01*
X57026190Y41207143D02*
X57311904Y40921429D01*
D10*
X12291666Y84616667D02*
X11591666Y84616667D01*
X11591666Y84883334D01*
X11625000Y84950000D01*
X11658333Y84983334D01*
X11725000Y85016667D01*
X11825000Y85016667D01*
X11891666Y84983334D01*
X11925000Y84950000D01*
X11958333Y84883334D01*
X11958333Y84616667D01*
X12291666Y85683334D02*
X12291666Y85283334D01*
X12291666Y85483334D02*
X11591666Y85483334D01*
X11691666Y85416667D01*
X11758333Y85350000D01*
X11791666Y85283334D01*
X11591666Y85916667D02*
X11591666Y86383334D01*
X12291666Y86083334D01*
X11591666Y87283334D02*
X11758333Y87283334D01*
X11691666Y87116667D02*
X11758333Y87283334D01*
X11691666Y87450000D01*
X11891666Y87183334D02*
X11758333Y87283334D01*
X11891666Y87383334D01*
X56000000Y101583334D02*
X56000000Y102283334D01*
X56266666Y102283334D01*
X56333333Y102250000D01*
X56366666Y102216667D01*
X56400000Y102150000D01*
X56400000Y102050000D01*
X56366666Y101983334D01*
X56333333Y101950000D01*
X56266666Y101916667D01*
X56000000Y101916667D01*
X57066666Y101583334D02*
X56666666Y101583334D01*
X56866666Y101583334D02*
X56866666Y102283334D01*
X56800000Y102183334D01*
X56733333Y102116667D01*
X56666666Y102083334D01*
X57300000Y102283334D02*
X57766666Y102283334D01*
X57466666Y101583334D01*
D13*
X55309285Y92004286D02*
X55309285Y92427620D01*
X55974523Y92609048D02*
X55974523Y92004286D01*
X54704523Y92004286D01*
X54704523Y92609048D01*
X55914047Y93092858D02*
X55974523Y93274286D01*
X55974523Y93576667D01*
X55914047Y93697620D01*
X55853571Y93758096D01*
X55732619Y93818572D01*
X55611666Y93818572D01*
X55490714Y93758096D01*
X55430238Y93697620D01*
X55369761Y93576667D01*
X55309285Y93334762D01*
X55248809Y93213810D01*
X55188333Y93153334D01*
X55067380Y93092858D01*
X54946428Y93092858D01*
X54825476Y93153334D01*
X54765000Y93213810D01*
X54704523Y93334762D01*
X54704523Y93637143D01*
X54765000Y93818572D01*
X54704523Y94181429D02*
X54704523Y94907143D01*
X55974523Y94544286D02*
X54704523Y94544286D01*
X55974523Y95330477D02*
X54704523Y95330477D01*
X54704523Y95814286D01*
X54765000Y95935239D01*
X54825476Y95995715D01*
X54946428Y96056191D01*
X55127857Y96056191D01*
X55248809Y95995715D01*
X55309285Y95935239D01*
X55369761Y95814286D01*
X55369761Y95330477D01*
D14*
X58302380Y119528572D02*
X59064285Y119528572D01*
X58683333Y119147620D02*
X58683333Y119909524D01*
X59492857Y120052381D02*
X59540476Y120100000D01*
X59635714Y120147620D01*
X59873809Y120147620D01*
X59969047Y120100000D01*
X60016666Y120052381D01*
X60064285Y119957143D01*
X60064285Y119861905D01*
X60016666Y119719048D01*
X59445238Y119147620D01*
X60064285Y119147620D01*
X60921428Y119814286D02*
X60921428Y119147620D01*
X60683333Y120195239D02*
X60445238Y119480953D01*
X61064285Y119480953D01*
X61302380Y120147620D02*
X61635714Y119147620D01*
X61969047Y120147620D01*
X63540476Y120147620D02*
X63064285Y120147620D01*
X63016666Y119671429D01*
X63064285Y119719048D01*
X63159523Y119766667D01*
X63397619Y119766667D01*
X63492857Y119719048D01*
X63540476Y119671429D01*
X63588095Y119576191D01*
X63588095Y119338096D01*
X63540476Y119242858D01*
X63492857Y119195239D01*
X63397619Y119147620D01*
X63159523Y119147620D01*
X63064285Y119195239D01*
X63016666Y119242858D01*
X63969047Y119433334D02*
X64445238Y119433334D01*
X63873809Y119147620D02*
X64207142Y120147620D01*
X64540476Y119147620D01*
D13*
X47654523Y47329286D02*
X48924523Y48175953D01*
X47654523Y48175953D02*
X48924523Y47329286D01*
X48259285Y49627381D02*
X48259285Y50050715D01*
X48924523Y50232143D02*
X48924523Y49627381D01*
X47654523Y49627381D01*
X47654523Y50232143D01*
X48924523Y50776429D02*
X47654523Y50776429D01*
X48924523Y51502143D01*
X47654523Y51502143D01*
X48924523Y52106905D02*
X47654523Y52106905D01*
X47654523Y52409286D01*
X47715000Y52590715D01*
X47835952Y52711667D01*
X47956904Y52772143D01*
X48198809Y52832620D01*
X48380238Y52832620D01*
X48622142Y52772143D01*
X48743095Y52711667D01*
X48864047Y52590715D01*
X48924523Y52409286D01*
X48924523Y52106905D01*
X48864047Y53316429D02*
X48924523Y53497858D01*
X48924523Y53800239D01*
X48864047Y53921191D01*
X48803571Y53981667D01*
X48682619Y54042143D01*
X48561666Y54042143D01*
X48440714Y53981667D01*
X48380238Y53921191D01*
X48319761Y53800239D01*
X48259285Y53558334D01*
X48198809Y53437381D01*
X48138333Y53376905D01*
X48017380Y53316429D01*
X47896428Y53316429D01*
X47775476Y53376905D01*
X47715000Y53437381D01*
X47654523Y53558334D01*
X47654523Y53860715D01*
X47715000Y54042143D01*
X47654523Y54405000D02*
X47654523Y55130715D01*
X48924523Y54767858D02*
X47654523Y54767858D01*
X47654523Y55795953D02*
X47654523Y56037858D01*
X47715000Y56158810D01*
X47835952Y56279762D01*
X48077857Y56340239D01*
X48501190Y56340239D01*
X48743095Y56279762D01*
X48864047Y56158810D01*
X48924523Y56037858D01*
X48924523Y55795953D01*
X48864047Y55675000D01*
X48743095Y55554048D01*
X48501190Y55493572D01*
X48077857Y55493572D01*
X47835952Y55554048D01*
X47715000Y55675000D01*
X47654523Y55795953D01*
X48924523Y56884524D02*
X47654523Y56884524D01*
X47654523Y57368334D01*
X47715000Y57489286D01*
X47775476Y57549762D01*
X47896428Y57610239D01*
X48077857Y57610239D01*
X48198809Y57549762D01*
X48259285Y57489286D01*
X48319761Y57368334D01*
X48319761Y56884524D01*
D12*
X57526190Y91882143D02*
X57026190Y91882143D01*
X57526190Y92167858D01*
X57026190Y92167858D01*
X57478571Y92691667D02*
X57502380Y92667858D01*
X57526190Y92596429D01*
X57526190Y92548810D01*
X57502380Y92477381D01*
X57454761Y92429762D01*
X57407142Y92405953D01*
X57311904Y92382143D01*
X57240476Y92382143D01*
X57145238Y92405953D01*
X57097619Y92429762D01*
X57050000Y92477381D01*
X57026190Y92548810D01*
X57026190Y92596429D01*
X57050000Y92667858D01*
X57073809Y92691667D01*
X57478571Y55352381D02*
X57502380Y55328572D01*
X57526190Y55257143D01*
X57526190Y55209524D01*
X57502380Y55138096D01*
X57454761Y55090477D01*
X57407142Y55066667D01*
X57311904Y55042858D01*
X57240476Y55042858D01*
X57145238Y55066667D01*
X57097619Y55090477D01*
X57050000Y55138096D01*
X57026190Y55209524D01*
X57026190Y55257143D01*
X57050000Y55328572D01*
X57073809Y55352381D01*
X57526190Y55804762D02*
X57526190Y55566667D01*
X57026190Y55566667D01*
X57526190Y55971429D02*
X57026190Y55971429D01*
X57526190Y56257143D02*
X57240476Y56042858D01*
X57026190Y56257143D02*
X57311904Y55971429D01*
X57526190Y24826191D02*
X57288095Y24659524D01*
X57526190Y24540477D02*
X57026190Y24540477D01*
X57026190Y24730953D01*
X57050000Y24778572D01*
X57073809Y24802381D01*
X57121428Y24826191D01*
X57192857Y24826191D01*
X57240476Y24802381D01*
X57264285Y24778572D01*
X57288095Y24730953D01*
X57288095Y24540477D01*
X57526190Y25278572D02*
X57526190Y25040477D01*
X57026190Y25040477D01*
X57526190Y25707143D02*
X57526190Y25421429D01*
X57526190Y25564286D02*
X57026190Y25564286D01*
X57097619Y25516667D01*
X57145238Y25469048D01*
X57169047Y25421429D01*
X57002380Y26278572D02*
X57645238Y25850000D01*
X57264285Y26445239D02*
X57264285Y26611905D01*
X57526190Y26683334D02*
X57526190Y26445239D01*
X57026190Y26445239D01*
X57026190Y26683334D01*
X57526190Y22764286D02*
X57288095Y22597620D01*
X57526190Y22478572D02*
X57026190Y22478572D01*
X57026190Y22669048D01*
X57050000Y22716667D01*
X57073809Y22740477D01*
X57121428Y22764286D01*
X57192857Y22764286D01*
X57240476Y22740477D01*
X57264285Y22716667D01*
X57288095Y22669048D01*
X57288095Y22478572D01*
X57526190Y23216667D02*
X57526190Y22978572D01*
X57026190Y22978572D01*
X57073809Y23359524D02*
X57050000Y23383334D01*
X57026190Y23430953D01*
X57026190Y23550000D01*
X57050000Y23597620D01*
X57073809Y23621429D01*
X57121428Y23645239D01*
X57169047Y23645239D01*
X57240476Y23621429D01*
X57526190Y23335715D01*
X57526190Y23645239D01*
D10*
%TO.C,JP7*%
X52221428Y33616667D02*
X52650000Y33616667D01*
X52735714Y33583334D01*
X52792857Y33516667D01*
X52821428Y33416667D01*
X52821428Y33350000D01*
X52821428Y33950000D02*
X52221428Y33950000D01*
X52221428Y34216667D01*
X52250000Y34283334D01*
X52278571Y34316667D01*
X52335714Y34350000D01*
X52421428Y34350000D01*
X52478571Y34316667D01*
X52507142Y34283334D01*
X52535714Y34216667D01*
X52535714Y33950000D01*
X52221428Y34583334D02*
X52221428Y35050000D01*
X52821428Y34750000D01*
%TO.C,L1*%
X41583333Y102128572D02*
X41250000Y102128572D01*
X41250000Y102728572D01*
X42183333Y102128572D02*
X41783333Y102128572D01*
X41983333Y102128572D02*
X41983333Y102728572D01*
X41916666Y102642858D01*
X41850000Y102585715D01*
X41783333Y102557143D01*
%TO.C,C8*%
X30883333Y91335715D02*
X30850000Y91307143D01*
X30750000Y91278572D01*
X30683333Y91278572D01*
X30583333Y91307143D01*
X30516666Y91364286D01*
X30483333Y91421429D01*
X30450000Y91535715D01*
X30450000Y91621429D01*
X30483333Y91735715D01*
X30516666Y91792858D01*
X30583333Y91850000D01*
X30683333Y91878572D01*
X30750000Y91878572D01*
X30850000Y91850000D01*
X30883333Y91821429D01*
X31283333Y91621429D02*
X31216666Y91650000D01*
X31183333Y91678572D01*
X31150000Y91735715D01*
X31150000Y91764286D01*
X31183333Y91821429D01*
X31216666Y91850000D01*
X31283333Y91878572D01*
X31416666Y91878572D01*
X31483333Y91850000D01*
X31516666Y91821429D01*
X31550000Y91764286D01*
X31550000Y91735715D01*
X31516666Y91678572D01*
X31483333Y91650000D01*
X31416666Y91621429D01*
X31283333Y91621429D01*
X31216666Y91592858D01*
X31183333Y91564286D01*
X31150000Y91507143D01*
X31150000Y91392858D01*
X31183333Y91335715D01*
X31216666Y91307143D01*
X31283333Y91278572D01*
X31416666Y91278572D01*
X31483333Y91307143D01*
X31516666Y91335715D01*
X31550000Y91392858D01*
X31550000Y91507143D01*
X31516666Y91564286D01*
X31483333Y91592858D01*
X31416666Y91621429D01*
%TO.C,C1*%
X38383333Y21635715D02*
X38350000Y21607143D01*
X38250000Y21578572D01*
X38183333Y21578572D01*
X38083333Y21607143D01*
X38016666Y21664286D01*
X37983333Y21721429D01*
X37950000Y21835715D01*
X37950000Y21921429D01*
X37983333Y22035715D01*
X38016666Y22092858D01*
X38083333Y22150000D01*
X38183333Y22178572D01*
X38250000Y22178572D01*
X38350000Y22150000D01*
X38383333Y22121429D01*
X39050000Y21578572D02*
X38650000Y21578572D01*
X38850000Y21578572D02*
X38850000Y22178572D01*
X38783333Y22092858D01*
X38716666Y22035715D01*
X38650000Y22007143D01*
%TO.C,J12*%
X44233333Y23778572D02*
X44233333Y23350000D01*
X44200000Y23264286D01*
X44133333Y23207143D01*
X44033333Y23178572D01*
X43966666Y23178572D01*
X44933333Y23178572D02*
X44533333Y23178572D01*
X44733333Y23178572D02*
X44733333Y23778572D01*
X44666666Y23692858D01*
X44600000Y23635715D01*
X44533333Y23607143D01*
X45200000Y23721429D02*
X45233333Y23750000D01*
X45300000Y23778572D01*
X45466666Y23778572D01*
X45533333Y23750000D01*
X45566666Y23721429D01*
X45600000Y23664286D01*
X45600000Y23607143D01*
X45566666Y23521429D01*
X45166666Y23178572D01*
X45600000Y23178572D01*
%TO.C,RN1*%
X20301666Y58223572D02*
X20068333Y58509286D01*
X19901666Y58223572D02*
X19901666Y58823572D01*
X20168333Y58823572D01*
X20235000Y58795000D01*
X20268333Y58766429D01*
X20301666Y58709286D01*
X20301666Y58623572D01*
X20268333Y58566429D01*
X20235000Y58537858D01*
X20168333Y58509286D01*
X19901666Y58509286D01*
X20601666Y58223572D02*
X20601666Y58823572D01*
X21001666Y58223572D01*
X21001666Y58823572D01*
X21701666Y58223572D02*
X21301666Y58223572D01*
X21501666Y58223572D02*
X21501666Y58823572D01*
X21435000Y58737858D01*
X21368333Y58680715D01*
X21301666Y58652143D01*
%TO.C,R13*%
X19150000Y74328572D02*
X18916666Y74614286D01*
X18750000Y74328572D02*
X18750000Y74928572D01*
X19016666Y74928572D01*
X19083333Y74900000D01*
X19116666Y74871429D01*
X19150000Y74814286D01*
X19150000Y74728572D01*
X19116666Y74671429D01*
X19083333Y74642858D01*
X19016666Y74614286D01*
X18750000Y74614286D01*
X19816666Y74328572D02*
X19416666Y74328572D01*
X19616666Y74328572D02*
X19616666Y74928572D01*
X19550000Y74842858D01*
X19483333Y74785715D01*
X19416666Y74757143D01*
X20050000Y74928572D02*
X20483333Y74928572D01*
X20250000Y74700000D01*
X20350000Y74700000D01*
X20416666Y74671429D01*
X20450000Y74642858D01*
X20483333Y74585715D01*
X20483333Y74442858D01*
X20450000Y74385715D01*
X20416666Y74357143D01*
X20350000Y74328572D01*
X20150000Y74328572D01*
X20083333Y74357143D01*
X20050000Y74385715D01*
%TO.C,R12*%
X37400000Y90078572D02*
X37166666Y90364286D01*
X37000000Y90078572D02*
X37000000Y90678572D01*
X37266666Y90678572D01*
X37333333Y90650000D01*
X37366666Y90621429D01*
X37400000Y90564286D01*
X37400000Y90478572D01*
X37366666Y90421429D01*
X37333333Y90392858D01*
X37266666Y90364286D01*
X37000000Y90364286D01*
X38066666Y90078572D02*
X37666666Y90078572D01*
X37866666Y90078572D02*
X37866666Y90678572D01*
X37800000Y90592858D01*
X37733333Y90535715D01*
X37666666Y90507143D01*
X38333333Y90621429D02*
X38366666Y90650000D01*
X38433333Y90678572D01*
X38600000Y90678572D01*
X38666666Y90650000D01*
X38700000Y90621429D01*
X38733333Y90564286D01*
X38733333Y90507143D01*
X38700000Y90421429D01*
X38300000Y90078572D01*
X38733333Y90078572D01*
%TO.C,R6*%
X31433333Y111728572D02*
X31200000Y112014286D01*
X31033333Y111728572D02*
X31033333Y112328572D01*
X31300000Y112328572D01*
X31366666Y112300000D01*
X31400000Y112271429D01*
X31433333Y112214286D01*
X31433333Y112128572D01*
X31400000Y112071429D01*
X31366666Y112042858D01*
X31300000Y112014286D01*
X31033333Y112014286D01*
X32033333Y112328572D02*
X31900000Y112328572D01*
X31833333Y112300000D01*
X31800000Y112271429D01*
X31733333Y112185715D01*
X31700000Y112071429D01*
X31700000Y111842858D01*
X31733333Y111785715D01*
X31766666Y111757143D01*
X31833333Y111728572D01*
X31966666Y111728572D01*
X32033333Y111757143D01*
X32066666Y111785715D01*
X32100000Y111842858D01*
X32100000Y111985715D01*
X32066666Y112042858D01*
X32033333Y112071429D01*
X31966666Y112100000D01*
X31833333Y112100000D01*
X31766666Y112071429D01*
X31733333Y112042858D01*
X31700000Y111985715D01*
%TO.C,JP4*%
X22566666Y114478572D02*
X22566666Y114050000D01*
X22533333Y113964286D01*
X22466666Y113907143D01*
X22366666Y113878572D01*
X22300000Y113878572D01*
X22900000Y113878572D02*
X22900000Y114478572D01*
X23166666Y114478572D01*
X23233333Y114450000D01*
X23266666Y114421429D01*
X23300000Y114364286D01*
X23300000Y114278572D01*
X23266666Y114221429D01*
X23233333Y114192858D01*
X23166666Y114164286D01*
X22900000Y114164286D01*
X23900000Y114278572D02*
X23900000Y113878572D01*
X23733333Y114507143D02*
X23566666Y114078572D01*
X24000000Y114078572D01*
%TO.C,J3*%
X56591666Y107828572D02*
X56591666Y107400000D01*
X56558333Y107314286D01*
X56491666Y107257143D01*
X56391666Y107228572D01*
X56325000Y107228572D01*
X56858333Y107828572D02*
X57291666Y107828572D01*
X57058333Y107600000D01*
X57158333Y107600000D01*
X57225000Y107571429D01*
X57258333Y107542858D01*
X57291666Y107485715D01*
X57291666Y107342858D01*
X57258333Y107285715D01*
X57225000Y107257143D01*
X57158333Y107228572D01*
X56958333Y107228572D01*
X56891666Y107257143D01*
X56858333Y107285715D01*
%TO.C,D3*%
X24833333Y109228572D02*
X24833333Y109828572D01*
X25000000Y109828572D01*
X25100000Y109800000D01*
X25166666Y109742858D01*
X25200000Y109685715D01*
X25233333Y109571429D01*
X25233333Y109485715D01*
X25200000Y109371429D01*
X25166666Y109314286D01*
X25100000Y109257143D01*
X25000000Y109228572D01*
X24833333Y109228572D01*
X25466666Y109828572D02*
X25900000Y109828572D01*
X25666666Y109600000D01*
X25766666Y109600000D01*
X25833333Y109571429D01*
X25866666Y109542858D01*
X25900000Y109485715D01*
X25900000Y109342858D01*
X25866666Y109285715D01*
X25833333Y109257143D01*
X25766666Y109228572D01*
X25566666Y109228572D01*
X25500000Y109257143D01*
X25466666Y109285715D01*
%TO.C,J2*%
X31166666Y118508572D02*
X31166666Y118080000D01*
X31133333Y117994286D01*
X31066666Y117937143D01*
X30966666Y117908572D01*
X30900000Y117908572D01*
X31466666Y118451429D02*
X31500000Y118480000D01*
X31566666Y118508572D01*
X31733333Y118508572D01*
X31800000Y118480000D01*
X31833333Y118451429D01*
X31866666Y118394286D01*
X31866666Y118337143D01*
X31833333Y118251429D01*
X31433333Y117908572D01*
X31866666Y117908572D01*
%TO.C,RV1*%
X25983333Y67928572D02*
X25750000Y68214286D01*
X25583333Y67928572D02*
X25583333Y68528572D01*
X25850000Y68528572D01*
X25916666Y68500000D01*
X25950000Y68471429D01*
X25983333Y68414286D01*
X25983333Y68328572D01*
X25950000Y68271429D01*
X25916666Y68242858D01*
X25850000Y68214286D01*
X25583333Y68214286D01*
X26183333Y68528572D02*
X26416666Y67928572D01*
X26650000Y68528572D01*
X27250000Y67928572D02*
X26850000Y67928572D01*
X27050000Y67928572D02*
X27050000Y68528572D01*
X26983333Y68442858D01*
X26916666Y68385715D01*
X26850000Y68357143D01*
%TO.C,J14*%
X62633333Y90078572D02*
X62633333Y89650000D01*
X62600000Y89564286D01*
X62533333Y89507143D01*
X62433333Y89478572D01*
X62366666Y89478572D01*
X63333333Y89478572D02*
X62933333Y89478572D01*
X63133333Y89478572D02*
X63133333Y90078572D01*
X63066666Y89992858D01*
X63000000Y89935715D01*
X62933333Y89907143D01*
X63933333Y89878572D02*
X63933333Y89478572D01*
X63766666Y90107143D02*
X63600000Y89678572D01*
X64033333Y89678572D01*
%TO.C,R17*%
X29421428Y82800000D02*
X29135714Y82566667D01*
X29421428Y82400000D02*
X28821428Y82400000D01*
X28821428Y82666667D01*
X28850000Y82733334D01*
X28878571Y82766667D01*
X28935714Y82800000D01*
X29021428Y82800000D01*
X29078571Y82766667D01*
X29107142Y82733334D01*
X29135714Y82666667D01*
X29135714Y82400000D01*
X29421428Y83466667D02*
X29421428Y83066667D01*
X29421428Y83266667D02*
X28821428Y83266667D01*
X28907142Y83200000D01*
X28964285Y83133334D01*
X28992857Y83066667D01*
X28821428Y83700000D02*
X28821428Y84166667D01*
X29421428Y83866667D01*
%TO.C,TH1*%
X24671428Y121600000D02*
X24671428Y122000000D01*
X25271428Y121800000D02*
X24671428Y121800000D01*
X25271428Y122233334D02*
X24671428Y122233334D01*
X24957142Y122233334D02*
X24957142Y122633334D01*
X25271428Y122633334D02*
X24671428Y122633334D01*
X25271428Y123333334D02*
X25271428Y122933334D01*
X25271428Y123133334D02*
X24671428Y123133334D01*
X24757142Y123066667D01*
X24814285Y123000000D01*
X24842857Y122933334D01*
%TO.C,U5*%
X24459075Y40428572D02*
X24459075Y39942858D01*
X24492409Y39885715D01*
X24525742Y39857143D01*
X24592409Y39828572D01*
X24725742Y39828572D01*
X24792409Y39857143D01*
X24825742Y39885715D01*
X24859075Y39942858D01*
X24859075Y40428572D01*
X25525742Y40428572D02*
X25192409Y40428572D01*
X25159075Y40142858D01*
X25192409Y40171429D01*
X25259075Y40200000D01*
X25425742Y40200000D01*
X25492409Y40171429D01*
X25525742Y40142858D01*
X25559075Y40085715D01*
X25559075Y39942858D01*
X25525742Y39885715D01*
X25492409Y39857143D01*
X25425742Y39828572D01*
X25259075Y39828572D01*
X25192409Y39857143D01*
X25159075Y39885715D01*
%TO.C,Q4*%
X27233333Y83571429D02*
X27166666Y83600000D01*
X27100000Y83657143D01*
X27000000Y83742858D01*
X26933333Y83771429D01*
X26866666Y83771429D01*
X26900000Y83628572D02*
X26833333Y83657143D01*
X26766666Y83714286D01*
X26733333Y83828572D01*
X26733333Y84028572D01*
X26766666Y84142858D01*
X26833333Y84200000D01*
X26900000Y84228572D01*
X27033333Y84228572D01*
X27100000Y84200000D01*
X27166666Y84142858D01*
X27200000Y84028572D01*
X27200000Y83828572D01*
X27166666Y83714286D01*
X27100000Y83657143D01*
X27033333Y83628572D01*
X26900000Y83628572D01*
X27800000Y84028572D02*
X27800000Y83628572D01*
X27633333Y84257143D02*
X27466666Y83828572D01*
X27900000Y83828572D01*
%TO.C,RN6*%
X54496666Y59958572D02*
X54263333Y60244286D01*
X54096666Y59958572D02*
X54096666Y60558572D01*
X54363333Y60558572D01*
X54430000Y60530000D01*
X54463333Y60501429D01*
X54496666Y60444286D01*
X54496666Y60358572D01*
X54463333Y60301429D01*
X54430000Y60272858D01*
X54363333Y60244286D01*
X54096666Y60244286D01*
X54796666Y59958572D02*
X54796666Y60558572D01*
X55196666Y59958572D01*
X55196666Y60558572D01*
X55830000Y60558572D02*
X55696666Y60558572D01*
X55630000Y60530000D01*
X55596666Y60501429D01*
X55530000Y60415715D01*
X55496666Y60301429D01*
X55496666Y60072858D01*
X55530000Y60015715D01*
X55563333Y59987143D01*
X55630000Y59958572D01*
X55763333Y59958572D01*
X55830000Y59987143D01*
X55863333Y60015715D01*
X55896666Y60072858D01*
X55896666Y60215715D01*
X55863333Y60272858D01*
X55830000Y60301429D01*
X55763333Y60330000D01*
X55630000Y60330000D01*
X55563333Y60301429D01*
X55530000Y60272858D01*
X55496666Y60215715D01*
%TO.C,U1*%
X19516666Y79928572D02*
X19516666Y79442858D01*
X19550000Y79385715D01*
X19583333Y79357143D01*
X19650000Y79328572D01*
X19783333Y79328572D01*
X19850000Y79357143D01*
X19883333Y79385715D01*
X19916666Y79442858D01*
X19916666Y79928572D01*
X20616666Y79328572D02*
X20216666Y79328572D01*
X20416666Y79328572D02*
X20416666Y79928572D01*
X20350000Y79842858D01*
X20283333Y79785715D01*
X20216666Y79757143D01*
%TO.C,R7*%
X35933333Y109178572D02*
X35700000Y109464286D01*
X35533333Y109178572D02*
X35533333Y109778572D01*
X35800000Y109778572D01*
X35866666Y109750000D01*
X35900000Y109721429D01*
X35933333Y109664286D01*
X35933333Y109578572D01*
X35900000Y109521429D01*
X35866666Y109492858D01*
X35800000Y109464286D01*
X35533333Y109464286D01*
X36166666Y109778572D02*
X36633333Y109778572D01*
X36333333Y109178572D01*
%TO.C,D5*%
X25171428Y116783334D02*
X24571428Y116783334D01*
X24571428Y116950000D01*
X24600000Y117050000D01*
X24657142Y117116667D01*
X24714285Y117150000D01*
X24828571Y117183334D01*
X24914285Y117183334D01*
X25028571Y117150000D01*
X25085714Y117116667D01*
X25142857Y117050000D01*
X25171428Y116950000D01*
X25171428Y116783334D01*
X24571428Y117816667D02*
X24571428Y117483334D01*
X24857142Y117450000D01*
X24828571Y117483334D01*
X24800000Y117550000D01*
X24800000Y117716667D01*
X24828571Y117783334D01*
X24857142Y117816667D01*
X24914285Y117850000D01*
X25057142Y117850000D01*
X25114285Y117816667D01*
X25142857Y117783334D01*
X25171428Y117716667D01*
X25171428Y117550000D01*
X25142857Y117483334D01*
X25114285Y117450000D01*
%TO.C,R5*%
X33833333Y116228572D02*
X33600000Y116514286D01*
X33433333Y116228572D02*
X33433333Y116828572D01*
X33700000Y116828572D01*
X33766666Y116800000D01*
X33800000Y116771429D01*
X33833333Y116714286D01*
X33833333Y116628572D01*
X33800000Y116571429D01*
X33766666Y116542858D01*
X33700000Y116514286D01*
X33433333Y116514286D01*
X34466666Y116828572D02*
X34133333Y116828572D01*
X34100000Y116542858D01*
X34133333Y116571429D01*
X34200000Y116600000D01*
X34366666Y116600000D01*
X34433333Y116571429D01*
X34466666Y116542858D01*
X34500000Y116485715D01*
X34500000Y116342858D01*
X34466666Y116285715D01*
X34433333Y116257143D01*
X34366666Y116228572D01*
X34200000Y116228572D01*
X34133333Y116257143D01*
X34100000Y116285715D01*
%TO.C,JP1*%
X32171428Y24616667D02*
X32600000Y24616667D01*
X32685714Y24583334D01*
X32742857Y24516667D01*
X32771428Y24416667D01*
X32771428Y24350000D01*
X32771428Y24950000D02*
X32171428Y24950000D01*
X32171428Y25216667D01*
X32200000Y25283334D01*
X32228571Y25316667D01*
X32285714Y25350000D01*
X32371428Y25350000D01*
X32428571Y25316667D01*
X32457142Y25283334D01*
X32485714Y25216667D01*
X32485714Y24950000D01*
X32771428Y26016667D02*
X32771428Y25616667D01*
X32771428Y25816667D02*
X32171428Y25816667D01*
X32257142Y25750000D01*
X32314285Y25683334D01*
X32342857Y25616667D01*
%TO.C,C12*%
X22500000Y71485715D02*
X22466666Y71457143D01*
X22366666Y71428572D01*
X22300000Y71428572D01*
X22200000Y71457143D01*
X22133333Y71514286D01*
X22100000Y71571429D01*
X22066666Y71685715D01*
X22066666Y71771429D01*
X22100000Y71885715D01*
X22133333Y71942858D01*
X22200000Y72000000D01*
X22300000Y72028572D01*
X22366666Y72028572D01*
X22466666Y72000000D01*
X22500000Y71971429D01*
X23166666Y71428572D02*
X22766666Y71428572D01*
X22966666Y71428572D02*
X22966666Y72028572D01*
X22900000Y71942858D01*
X22833333Y71885715D01*
X22766666Y71857143D01*
X23433333Y71971429D02*
X23466666Y72000000D01*
X23533333Y72028572D01*
X23700000Y72028572D01*
X23766666Y72000000D01*
X23800000Y71971429D01*
X23833333Y71914286D01*
X23833333Y71857143D01*
X23800000Y71771429D01*
X23400000Y71428572D01*
X23833333Y71428572D01*
%TO.C,R14*%
X10650000Y67778572D02*
X10416666Y68064286D01*
X10250000Y67778572D02*
X10250000Y68378572D01*
X10516666Y68378572D01*
X10583333Y68350000D01*
X10616666Y68321429D01*
X10650000Y68264286D01*
X10650000Y68178572D01*
X10616666Y68121429D01*
X10583333Y68092858D01*
X10516666Y68064286D01*
X10250000Y68064286D01*
X11316666Y67778572D02*
X10916666Y67778572D01*
X11116666Y67778572D02*
X11116666Y68378572D01*
X11050000Y68292858D01*
X10983333Y68235715D01*
X10916666Y68207143D01*
X11916666Y68178572D02*
X11916666Y67778572D01*
X11750000Y68407143D02*
X11583333Y67978572D01*
X12016666Y67978572D01*
%TO.C,JP8*%
X47646428Y65266667D02*
X48075000Y65266667D01*
X48160714Y65233334D01*
X48217857Y65166667D01*
X48246428Y65066667D01*
X48246428Y65000000D01*
X48246428Y65600000D02*
X47646428Y65600000D01*
X47646428Y65866667D01*
X47675000Y65933334D01*
X47703571Y65966667D01*
X47760714Y66000000D01*
X47846428Y66000000D01*
X47903571Y65966667D01*
X47932142Y65933334D01*
X47960714Y65866667D01*
X47960714Y65600000D01*
X47903571Y66400000D02*
X47875000Y66333334D01*
X47846428Y66300000D01*
X47789285Y66266667D01*
X47760714Y66266667D01*
X47703571Y66300000D01*
X47675000Y66333334D01*
X47646428Y66400000D01*
X47646428Y66533334D01*
X47675000Y66600000D01*
X47703571Y66633334D01*
X47760714Y66666667D01*
X47789285Y66666667D01*
X47846428Y66633334D01*
X47875000Y66600000D01*
X47903571Y66533334D01*
X47903571Y66400000D01*
X47932142Y66333334D01*
X47960714Y66300000D01*
X48017857Y66266667D01*
X48132142Y66266667D01*
X48189285Y66300000D01*
X48217857Y66333334D01*
X48246428Y66400000D01*
X48246428Y66533334D01*
X48217857Y66600000D01*
X48189285Y66633334D01*
X48132142Y66666667D01*
X48017857Y66666667D01*
X47960714Y66633334D01*
X47932142Y66600000D01*
X47903571Y66533334D01*
%TO.C,J16*%
X37391428Y9099334D02*
X37820000Y9099334D01*
X37905714Y9066000D01*
X37962857Y8999334D01*
X37991428Y8899334D01*
X37991428Y8832667D01*
X37991428Y9799334D02*
X37991428Y9399334D01*
X37991428Y9599334D02*
X37391428Y9599334D01*
X37477142Y9532667D01*
X37534285Y9466000D01*
X37562857Y9399334D01*
X37391428Y10399334D02*
X37391428Y10266000D01*
X37420000Y10199334D01*
X37448571Y10166000D01*
X37534285Y10099334D01*
X37648571Y10066000D01*
X37877142Y10066000D01*
X37934285Y10099334D01*
X37962857Y10132667D01*
X37991428Y10199334D01*
X37991428Y10332667D01*
X37962857Y10399334D01*
X37934285Y10432667D01*
X37877142Y10466000D01*
X37734285Y10466000D01*
X37677142Y10432667D01*
X37648571Y10399334D01*
X37620000Y10332667D01*
X37620000Y10199334D01*
X37648571Y10132667D01*
X37677142Y10099334D01*
X37734285Y10066000D01*
%TO.C,J9*%
X61316666Y48228572D02*
X61316666Y47800000D01*
X61283333Y47714286D01*
X61216666Y47657143D01*
X61116666Y47628572D01*
X61050000Y47628572D01*
X61683333Y47628572D02*
X61816666Y47628572D01*
X61883333Y47657143D01*
X61916666Y47685715D01*
X61983333Y47771429D01*
X62016666Y47885715D01*
X62016666Y48114286D01*
X61983333Y48171429D01*
X61950000Y48200000D01*
X61883333Y48228572D01*
X61750000Y48228572D01*
X61683333Y48200000D01*
X61650000Y48171429D01*
X61616666Y48114286D01*
X61616666Y47971429D01*
X61650000Y47914286D01*
X61683333Y47885715D01*
X61750000Y47857143D01*
X61883333Y47857143D01*
X61950000Y47885715D01*
X61983333Y47914286D01*
X62016666Y47971429D01*
%TO.C,Q2*%
X41083333Y111921429D02*
X41016666Y111950000D01*
X40950000Y112007143D01*
X40850000Y112092858D01*
X40783333Y112121429D01*
X40716666Y112121429D01*
X40750000Y111978572D02*
X40683333Y112007143D01*
X40616666Y112064286D01*
X40583333Y112178572D01*
X40583333Y112378572D01*
X40616666Y112492858D01*
X40683333Y112550000D01*
X40750000Y112578572D01*
X40883333Y112578572D01*
X40950000Y112550000D01*
X41016666Y112492858D01*
X41050000Y112378572D01*
X41050000Y112178572D01*
X41016666Y112064286D01*
X40950000Y112007143D01*
X40883333Y111978572D01*
X40750000Y111978572D01*
X41316666Y112521429D02*
X41350000Y112550000D01*
X41416666Y112578572D01*
X41583333Y112578572D01*
X41650000Y112550000D01*
X41683333Y112521429D01*
X41716666Y112464286D01*
X41716666Y112407143D01*
X41683333Y112321429D01*
X41283333Y111978572D01*
X41716666Y111978572D01*
%TO.C,R8*%
X35933333Y110678572D02*
X35700000Y110964286D01*
X35533333Y110678572D02*
X35533333Y111278572D01*
X35800000Y111278572D01*
X35866666Y111250000D01*
X35900000Y111221429D01*
X35933333Y111164286D01*
X35933333Y111078572D01*
X35900000Y111021429D01*
X35866666Y110992858D01*
X35800000Y110964286D01*
X35533333Y110964286D01*
X36333333Y111021429D02*
X36266666Y111050000D01*
X36233333Y111078572D01*
X36200000Y111135715D01*
X36200000Y111164286D01*
X36233333Y111221429D01*
X36266666Y111250000D01*
X36333333Y111278572D01*
X36466666Y111278572D01*
X36533333Y111250000D01*
X36566666Y111221429D01*
X36600000Y111164286D01*
X36600000Y111135715D01*
X36566666Y111078572D01*
X36533333Y111050000D01*
X36466666Y111021429D01*
X36333333Y111021429D01*
X36266666Y110992858D01*
X36233333Y110964286D01*
X36200000Y110907143D01*
X36200000Y110792858D01*
X36233333Y110735715D01*
X36266666Y110707143D01*
X36333333Y110678572D01*
X36466666Y110678572D01*
X36533333Y110707143D01*
X36566666Y110735715D01*
X36600000Y110792858D01*
X36600000Y110907143D01*
X36566666Y110964286D01*
X36533333Y110992858D01*
X36466666Y111021429D01*
%TO.C,D1*%
X38571428Y18883334D02*
X37971428Y18883334D01*
X37971428Y19050000D01*
X38000000Y19150000D01*
X38057142Y19216667D01*
X38114285Y19250000D01*
X38228571Y19283334D01*
X38314285Y19283334D01*
X38428571Y19250000D01*
X38485714Y19216667D01*
X38542857Y19150000D01*
X38571428Y19050000D01*
X38571428Y18883334D01*
X38571428Y19950000D02*
X38571428Y19550000D01*
X38571428Y19750000D02*
X37971428Y19750000D01*
X38057142Y19683334D01*
X38114285Y19616667D01*
X38142857Y19550000D01*
%TO.C,J13*%
X62633333Y97478572D02*
X62633333Y97050000D01*
X62600000Y96964286D01*
X62533333Y96907143D01*
X62433333Y96878572D01*
X62366666Y96878572D01*
X63333333Y96878572D02*
X62933333Y96878572D01*
X63133333Y96878572D02*
X63133333Y97478572D01*
X63066666Y97392858D01*
X63000000Y97335715D01*
X62933333Y97307143D01*
X63566666Y97478572D02*
X64000000Y97478572D01*
X63766666Y97250000D01*
X63866666Y97250000D01*
X63933333Y97221429D01*
X63966666Y97192858D01*
X64000000Y97135715D01*
X64000000Y96992858D01*
X63966666Y96935715D01*
X63933333Y96907143D01*
X63866666Y96878572D01*
X63666666Y96878572D01*
X63600000Y96907143D01*
X63566666Y96935715D01*
%TO.C,C9*%
X35283333Y98285715D02*
X35250000Y98257143D01*
X35150000Y98228572D01*
X35083333Y98228572D01*
X34983333Y98257143D01*
X34916666Y98314286D01*
X34883333Y98371429D01*
X34850000Y98485715D01*
X34850000Y98571429D01*
X34883333Y98685715D01*
X34916666Y98742858D01*
X34983333Y98800000D01*
X35083333Y98828572D01*
X35150000Y98828572D01*
X35250000Y98800000D01*
X35283333Y98771429D01*
X35616666Y98228572D02*
X35750000Y98228572D01*
X35816666Y98257143D01*
X35850000Y98285715D01*
X35916666Y98371429D01*
X35950000Y98485715D01*
X35950000Y98714286D01*
X35916666Y98771429D01*
X35883333Y98800000D01*
X35816666Y98828572D01*
X35683333Y98828572D01*
X35616666Y98800000D01*
X35583333Y98771429D01*
X35550000Y98714286D01*
X35550000Y98571429D01*
X35583333Y98514286D01*
X35616666Y98485715D01*
X35683333Y98457143D01*
X35816666Y98457143D01*
X35883333Y98485715D01*
X35916666Y98514286D01*
X35950000Y98571429D01*
%TO.C,J11*%
X60983333Y33228572D02*
X60983333Y32800000D01*
X60950000Y32714286D01*
X60883333Y32657143D01*
X60783333Y32628572D01*
X60716666Y32628572D01*
X61683333Y32628572D02*
X61283333Y32628572D01*
X61483333Y32628572D02*
X61483333Y33228572D01*
X61416666Y33142858D01*
X61350000Y33085715D01*
X61283333Y33057143D01*
X62350000Y32628572D02*
X61950000Y32628572D01*
X62150000Y32628572D02*
X62150000Y33228572D01*
X62083333Y33142858D01*
X62016666Y33085715D01*
X61950000Y33057143D01*
%TO.C,R18*%
X30750000Y78528572D02*
X30516666Y78814286D01*
X30350000Y78528572D02*
X30350000Y79128572D01*
X30616666Y79128572D01*
X30683333Y79100000D01*
X30716666Y79071429D01*
X30750000Y79014286D01*
X30750000Y78928572D01*
X30716666Y78871429D01*
X30683333Y78842858D01*
X30616666Y78814286D01*
X30350000Y78814286D01*
X31416666Y78528572D02*
X31016666Y78528572D01*
X31216666Y78528572D02*
X31216666Y79128572D01*
X31150000Y79042858D01*
X31083333Y78985715D01*
X31016666Y78957143D01*
X31816666Y78871429D02*
X31750000Y78900000D01*
X31716666Y78928572D01*
X31683333Y78985715D01*
X31683333Y79014286D01*
X31716666Y79071429D01*
X31750000Y79100000D01*
X31816666Y79128572D01*
X31950000Y79128572D01*
X32016666Y79100000D01*
X32050000Y79071429D01*
X32083333Y79014286D01*
X32083333Y78985715D01*
X32050000Y78928572D01*
X32016666Y78900000D01*
X31950000Y78871429D01*
X31816666Y78871429D01*
X31750000Y78842858D01*
X31716666Y78814286D01*
X31683333Y78757143D01*
X31683333Y78642858D01*
X31716666Y78585715D01*
X31750000Y78557143D01*
X31816666Y78528572D01*
X31950000Y78528572D01*
X32016666Y78557143D01*
X32050000Y78585715D01*
X32083333Y78642858D01*
X32083333Y78757143D01*
X32050000Y78814286D01*
X32016666Y78842858D01*
X31950000Y78871429D01*
%TO.C,JP5*%
X52221428Y64066667D02*
X52650000Y64066667D01*
X52735714Y64033334D01*
X52792857Y63966667D01*
X52821428Y63866667D01*
X52821428Y63800000D01*
X52821428Y64400000D02*
X52221428Y64400000D01*
X52221428Y64666667D01*
X52250000Y64733334D01*
X52278571Y64766667D01*
X52335714Y64800000D01*
X52421428Y64800000D01*
X52478571Y64766667D01*
X52507142Y64733334D01*
X52535714Y64666667D01*
X52535714Y64400000D01*
X52221428Y65433334D02*
X52221428Y65100000D01*
X52507142Y65066667D01*
X52478571Y65100000D01*
X52450000Y65166667D01*
X52450000Y65333334D01*
X52478571Y65400000D01*
X52507142Y65433334D01*
X52564285Y65466667D01*
X52707142Y65466667D01*
X52764285Y65433334D01*
X52792857Y65400000D01*
X52821428Y65333334D01*
X52821428Y65166667D01*
X52792857Y65100000D01*
X52764285Y65066667D01*
%TO.C,C4*%
X23808333Y92885715D02*
X23775000Y92857143D01*
X23675000Y92828572D01*
X23608333Y92828572D01*
X23508333Y92857143D01*
X23441666Y92914286D01*
X23408333Y92971429D01*
X23375000Y93085715D01*
X23375000Y93171429D01*
X23408333Y93285715D01*
X23441666Y93342858D01*
X23508333Y93400000D01*
X23608333Y93428572D01*
X23675000Y93428572D01*
X23775000Y93400000D01*
X23808333Y93371429D01*
X24408333Y93228572D02*
X24408333Y92828572D01*
X24241666Y93457143D02*
X24075000Y93028572D01*
X24508333Y93028572D01*
%TO.C,LF1*%
X34633333Y66978572D02*
X34300000Y66978572D01*
X34300000Y67578572D01*
X35100000Y67292858D02*
X34866666Y67292858D01*
X34866666Y66978572D02*
X34866666Y67578572D01*
X35200000Y67578572D01*
X35833333Y66978572D02*
X35433333Y66978572D01*
X35633333Y66978572D02*
X35633333Y67578572D01*
X35566666Y67492858D01*
X35500000Y67435715D01*
X35433333Y67407143D01*
%TO.C,J6*%
X61266666Y63378572D02*
X61266666Y62950000D01*
X61233333Y62864286D01*
X61166666Y62807143D01*
X61066666Y62778572D01*
X61000000Y62778572D01*
X61900000Y63378572D02*
X61766666Y63378572D01*
X61700000Y63350000D01*
X61666666Y63321429D01*
X61600000Y63235715D01*
X61566666Y63121429D01*
X61566666Y62892858D01*
X61600000Y62835715D01*
X61633333Y62807143D01*
X61700000Y62778572D01*
X61833333Y62778572D01*
X61900000Y62807143D01*
X61933333Y62835715D01*
X61966666Y62892858D01*
X61966666Y63035715D01*
X61933333Y63092858D01*
X61900000Y63121429D01*
X61833333Y63150000D01*
X61700000Y63150000D01*
X61633333Y63121429D01*
X61600000Y63092858D01*
X61566666Y63035715D01*
%TO.C,J5*%
X61316666Y13128572D02*
X61316666Y12700000D01*
X61283333Y12614286D01*
X61216666Y12557143D01*
X61116666Y12528572D01*
X61050000Y12528572D01*
X61983333Y13128572D02*
X61650000Y13128572D01*
X61616666Y12842858D01*
X61650000Y12871429D01*
X61716666Y12900000D01*
X61883333Y12900000D01*
X61950000Y12871429D01*
X61983333Y12842858D01*
X62016666Y12785715D01*
X62016666Y12642858D01*
X61983333Y12585715D01*
X61950000Y12557143D01*
X61883333Y12528572D01*
X61716666Y12528572D01*
X61650000Y12557143D01*
X61616666Y12585715D01*
%TO.C,RN3*%
X32566666Y17253572D02*
X32333333Y17539286D01*
X32166666Y17253572D02*
X32166666Y17853572D01*
X32433333Y17853572D01*
X32500000Y17825000D01*
X32533333Y17796429D01*
X32566666Y17739286D01*
X32566666Y17653572D01*
X32533333Y17596429D01*
X32500000Y17567858D01*
X32433333Y17539286D01*
X32166666Y17539286D01*
X32866666Y17253572D02*
X32866666Y17853572D01*
X33266666Y17253572D01*
X33266666Y17853572D01*
X33533333Y17853572D02*
X33966666Y17853572D01*
X33733333Y17625000D01*
X33833333Y17625000D01*
X33900000Y17596429D01*
X33933333Y17567858D01*
X33966666Y17510715D01*
X33966666Y17367858D01*
X33933333Y17310715D01*
X33900000Y17282143D01*
X33833333Y17253572D01*
X33633333Y17253572D01*
X33566666Y17282143D01*
X33533333Y17310715D01*
%TO.C,K1*%
X46233333Y73928572D02*
X46233333Y74528572D01*
X46633333Y73928572D02*
X46333333Y74271429D01*
X46633333Y74528572D02*
X46233333Y74185715D01*
X47300000Y73928572D02*
X46900000Y73928572D01*
X47100000Y73928572D02*
X47100000Y74528572D01*
X47033333Y74442858D01*
X46966666Y74385715D01*
X46900000Y74357143D01*
%TO.C,RN2*%
X20326666Y17289558D02*
X20093333Y17575272D01*
X19926666Y17289558D02*
X19926666Y17889558D01*
X20193333Y17889558D01*
X20260000Y17860986D01*
X20293333Y17832415D01*
X20326666Y17775272D01*
X20326666Y17689558D01*
X20293333Y17632415D01*
X20260000Y17603844D01*
X20193333Y17575272D01*
X19926666Y17575272D01*
X20626666Y17289558D02*
X20626666Y17889558D01*
X21026666Y17289558D01*
X21026666Y17889558D01*
X21326666Y17832415D02*
X21360000Y17860986D01*
X21426666Y17889558D01*
X21593333Y17889558D01*
X21660000Y17860986D01*
X21693333Y17832415D01*
X21726666Y17775272D01*
X21726666Y17718129D01*
X21693333Y17632415D01*
X21293333Y17289558D01*
X21726666Y17289558D01*
%TO.C,C17*%
X35164285Y37475000D02*
X35192857Y37441667D01*
X35221428Y37341667D01*
X35221428Y37275000D01*
X35192857Y37175000D01*
X35135714Y37108334D01*
X35078571Y37075000D01*
X34964285Y37041667D01*
X34878571Y37041667D01*
X34764285Y37075000D01*
X34707142Y37108334D01*
X34650000Y37175000D01*
X34621428Y37275000D01*
X34621428Y37341667D01*
X34650000Y37441667D01*
X34678571Y37475000D01*
X35221428Y38141667D02*
X35221428Y37741667D01*
X35221428Y37941667D02*
X34621428Y37941667D01*
X34707142Y37875000D01*
X34764285Y37808334D01*
X34792857Y37741667D01*
X34621428Y38375000D02*
X34621428Y38841667D01*
X35221428Y38541667D01*
%TO.C,C2*%
X36033333Y16035715D02*
X36000000Y16007143D01*
X35900000Y15978572D01*
X35833333Y15978572D01*
X35733333Y16007143D01*
X35666666Y16064286D01*
X35633333Y16121429D01*
X35600000Y16235715D01*
X35600000Y16321429D01*
X35633333Y16435715D01*
X35666666Y16492858D01*
X35733333Y16550000D01*
X35833333Y16578572D01*
X35900000Y16578572D01*
X36000000Y16550000D01*
X36033333Y16521429D01*
X36300000Y16521429D02*
X36333333Y16550000D01*
X36400000Y16578572D01*
X36566666Y16578572D01*
X36633333Y16550000D01*
X36666666Y16521429D01*
X36700000Y16464286D01*
X36700000Y16407143D01*
X36666666Y16321429D01*
X36266666Y15978572D01*
X36700000Y15978572D01*
%TO.C,J10*%
X44233333Y42578572D02*
X44233333Y42150000D01*
X44200000Y42064286D01*
X44133333Y42007143D01*
X44033333Y41978572D01*
X43966666Y41978572D01*
X44933333Y41978572D02*
X44533333Y41978572D01*
X44733333Y41978572D02*
X44733333Y42578572D01*
X44666666Y42492858D01*
X44600000Y42435715D01*
X44533333Y42407143D01*
X45366666Y42578572D02*
X45433333Y42578572D01*
X45500000Y42550000D01*
X45533333Y42521429D01*
X45566666Y42464286D01*
X45600000Y42350000D01*
X45600000Y42207143D01*
X45566666Y42092858D01*
X45533333Y42035715D01*
X45500000Y42007143D01*
X45433333Y41978572D01*
X45366666Y41978572D01*
X45300000Y42007143D01*
X45266666Y42035715D01*
X45233333Y42092858D01*
X45200000Y42207143D01*
X45200000Y42350000D01*
X45233333Y42464286D01*
X45266666Y42521429D01*
X45300000Y42550000D01*
X45366666Y42578572D01*
%TO.C,C5*%
X19483333Y83835715D02*
X19450000Y83807143D01*
X19350000Y83778572D01*
X19283333Y83778572D01*
X19183333Y83807143D01*
X19116666Y83864286D01*
X19083333Y83921429D01*
X19050000Y84035715D01*
X19050000Y84121429D01*
X19083333Y84235715D01*
X19116666Y84292858D01*
X19183333Y84350000D01*
X19283333Y84378572D01*
X19350000Y84378572D01*
X19450000Y84350000D01*
X19483333Y84321429D01*
X20116666Y84378572D02*
X19783333Y84378572D01*
X19750000Y84092858D01*
X19783333Y84121429D01*
X19850000Y84150000D01*
X20016666Y84150000D01*
X20083333Y84121429D01*
X20116666Y84092858D01*
X20150000Y84035715D01*
X20150000Y83892858D01*
X20116666Y83835715D01*
X20083333Y83807143D01*
X20016666Y83778572D01*
X19850000Y83778572D01*
X19783333Y83807143D01*
X19750000Y83835715D01*
%TO.C,J1*%
X13166666Y95978572D02*
X13166666Y95550000D01*
X13133333Y95464286D01*
X13066666Y95407143D01*
X12966666Y95378572D01*
X12900000Y95378572D01*
X13866666Y95378572D02*
X13466666Y95378572D01*
X13666666Y95378572D02*
X13666666Y95978572D01*
X13600000Y95892858D01*
X13533333Y95835715D01*
X13466666Y95807143D01*
%TO.C,R16*%
X22271428Y83750000D02*
X21985714Y83516667D01*
X22271428Y83350000D02*
X21671428Y83350000D01*
X21671428Y83616667D01*
X21700000Y83683334D01*
X21728571Y83716667D01*
X21785714Y83750000D01*
X21871428Y83750000D01*
X21928571Y83716667D01*
X21957142Y83683334D01*
X21985714Y83616667D01*
X21985714Y83350000D01*
X22271428Y84416667D02*
X22271428Y84016667D01*
X22271428Y84216667D02*
X21671428Y84216667D01*
X21757142Y84150000D01*
X21814285Y84083334D01*
X21842857Y84016667D01*
X21671428Y85016667D02*
X21671428Y84883334D01*
X21700000Y84816667D01*
X21728571Y84783334D01*
X21814285Y84716667D01*
X21928571Y84683334D01*
X22157142Y84683334D01*
X22214285Y84716667D01*
X22242857Y84750000D01*
X22271428Y84816667D01*
X22271428Y84950000D01*
X22242857Y85016667D01*
X22214285Y85050000D01*
X22157142Y85083334D01*
X22014285Y85083334D01*
X21957142Y85050000D01*
X21928571Y85016667D01*
X21900000Y84950000D01*
X21900000Y84816667D01*
X21928571Y84750000D01*
X21957142Y84716667D01*
X22014285Y84683334D01*
%TO.C,C11*%
X28400000Y85485715D02*
X28366666Y85457143D01*
X28266666Y85428572D01*
X28200000Y85428572D01*
X28100000Y85457143D01*
X28033333Y85514286D01*
X28000000Y85571429D01*
X27966666Y85685715D01*
X27966666Y85771429D01*
X28000000Y85885715D01*
X28033333Y85942858D01*
X28100000Y86000000D01*
X28200000Y86028572D01*
X28266666Y86028572D01*
X28366666Y86000000D01*
X28400000Y85971429D01*
X29066666Y85428572D02*
X28666666Y85428572D01*
X28866666Y85428572D02*
X28866666Y86028572D01*
X28800000Y85942858D01*
X28733333Y85885715D01*
X28666666Y85857143D01*
X29733333Y85428572D02*
X29333333Y85428572D01*
X29533333Y85428572D02*
X29533333Y86028572D01*
X29466666Y85942858D01*
X29400000Y85885715D01*
X29333333Y85857143D01*
%TO.C,JP6*%
X52221428Y48566667D02*
X52650000Y48566667D01*
X52735714Y48533334D01*
X52792857Y48466667D01*
X52821428Y48366667D01*
X52821428Y48300000D01*
X52821428Y48900000D02*
X52221428Y48900000D01*
X52221428Y49166667D01*
X52250000Y49233334D01*
X52278571Y49266667D01*
X52335714Y49300000D01*
X52421428Y49300000D01*
X52478571Y49266667D01*
X52507142Y49233334D01*
X52535714Y49166667D01*
X52535714Y48900000D01*
X52221428Y49900000D02*
X52221428Y49766667D01*
X52250000Y49700000D01*
X52278571Y49666667D01*
X52364285Y49600000D01*
X52478571Y49566667D01*
X52707142Y49566667D01*
X52764285Y49600000D01*
X52792857Y49633334D01*
X52821428Y49700000D01*
X52821428Y49833334D01*
X52792857Y49900000D01*
X52764285Y49933334D01*
X52707142Y49966667D01*
X52564285Y49966667D01*
X52507142Y49933334D01*
X52478571Y49900000D01*
X52450000Y49833334D01*
X52450000Y49700000D01*
X52478571Y49633334D01*
X52507142Y49600000D01*
X52564285Y49566667D01*
%TO.C,JP2*%
X7271428Y73816667D02*
X7700000Y73816667D01*
X7785714Y73783334D01*
X7842857Y73716667D01*
X7871428Y73616667D01*
X7871428Y73550000D01*
X7871428Y74150000D02*
X7271428Y74150000D01*
X7271428Y74416667D01*
X7300000Y74483334D01*
X7328571Y74516667D01*
X7385714Y74550000D01*
X7471428Y74550000D01*
X7528571Y74516667D01*
X7557142Y74483334D01*
X7585714Y74416667D01*
X7585714Y74150000D01*
X7328571Y74816667D02*
X7300000Y74850000D01*
X7271428Y74916667D01*
X7271428Y75083334D01*
X7300000Y75150000D01*
X7328571Y75183334D01*
X7385714Y75216667D01*
X7442857Y75216667D01*
X7528571Y75183334D01*
X7871428Y74783334D01*
X7871428Y75216667D01*
%TO.C,C15*%
X21514285Y55555000D02*
X21542857Y55521667D01*
X21571428Y55421667D01*
X21571428Y55355000D01*
X21542857Y55255000D01*
X21485714Y55188334D01*
X21428571Y55155000D01*
X21314285Y55121667D01*
X21228571Y55121667D01*
X21114285Y55155000D01*
X21057142Y55188334D01*
X21000000Y55255000D01*
X20971428Y55355000D01*
X20971428Y55421667D01*
X21000000Y55521667D01*
X21028571Y55555000D01*
X21571428Y56221667D02*
X21571428Y55821667D01*
X21571428Y56021667D02*
X20971428Y56021667D01*
X21057142Y55955000D01*
X21114285Y55888334D01*
X21142857Y55821667D01*
X20971428Y56855000D02*
X20971428Y56521667D01*
X21257142Y56488334D01*
X21228571Y56521667D01*
X21200000Y56588334D01*
X21200000Y56755000D01*
X21228571Y56821667D01*
X21257142Y56855000D01*
X21314285Y56888334D01*
X21457142Y56888334D01*
X21514285Y56855000D01*
X21542857Y56821667D01*
X21571428Y56755000D01*
X21571428Y56588334D01*
X21542857Y56521667D01*
X21514285Y56488334D01*
%TO.C,D4*%
X26721428Y116783334D02*
X26121428Y116783334D01*
X26121428Y116950000D01*
X26150000Y117050000D01*
X26207142Y117116667D01*
X26264285Y117150000D01*
X26378571Y117183334D01*
X26464285Y117183334D01*
X26578571Y117150000D01*
X26635714Y117116667D01*
X26692857Y117050000D01*
X26721428Y116950000D01*
X26721428Y116783334D01*
X26321428Y117783334D02*
X26721428Y117783334D01*
X26092857Y117616667D02*
X26521428Y117450000D01*
X26521428Y117883334D01*
%TO.C,R9*%
X35933333Y113678572D02*
X35700000Y113964286D01*
X35533333Y113678572D02*
X35533333Y114278572D01*
X35800000Y114278572D01*
X35866666Y114250000D01*
X35900000Y114221429D01*
X35933333Y114164286D01*
X35933333Y114078572D01*
X35900000Y114021429D01*
X35866666Y113992858D01*
X35800000Y113964286D01*
X35533333Y113964286D01*
X36266666Y113678572D02*
X36400000Y113678572D01*
X36466666Y113707143D01*
X36500000Y113735715D01*
X36566666Y113821429D01*
X36600000Y113935715D01*
X36600000Y114164286D01*
X36566666Y114221429D01*
X36533333Y114250000D01*
X36466666Y114278572D01*
X36333333Y114278572D01*
X36266666Y114250000D01*
X36233333Y114221429D01*
X36200000Y114164286D01*
X36200000Y114021429D01*
X36233333Y113964286D01*
X36266666Y113935715D01*
X36333333Y113907143D01*
X36466666Y113907143D01*
X36533333Y113935715D01*
X36566666Y113964286D01*
X36600000Y114021429D01*
%TO.C,Q5*%
X33083333Y80762429D02*
X33016666Y80791000D01*
X32950000Y80848143D01*
X32850000Y80933858D01*
X32783333Y80962429D01*
X32716666Y80962429D01*
X32750000Y80819572D02*
X32683333Y80848143D01*
X32616666Y80905286D01*
X32583333Y81019572D01*
X32583333Y81219572D01*
X32616666Y81333858D01*
X32683333Y81391000D01*
X32750000Y81419572D01*
X32883333Y81419572D01*
X32950000Y81391000D01*
X33016666Y81333858D01*
X33050000Y81219572D01*
X33050000Y81019572D01*
X33016666Y80905286D01*
X32950000Y80848143D01*
X32883333Y80819572D01*
X32750000Y80819572D01*
X33683333Y81419572D02*
X33350000Y81419572D01*
X33316666Y81133858D01*
X33350000Y81162429D01*
X33416666Y81191000D01*
X33583333Y81191000D01*
X33650000Y81162429D01*
X33683333Y81133858D01*
X33716666Y81076715D01*
X33716666Y80933858D01*
X33683333Y80876715D01*
X33650000Y80848143D01*
X33583333Y80819572D01*
X33416666Y80819572D01*
X33350000Y80848143D01*
X33316666Y80876715D01*
%TO.C,J7*%
X44566666Y61328572D02*
X44566666Y60900000D01*
X44533333Y60814286D01*
X44466666Y60757143D01*
X44366666Y60728572D01*
X44300000Y60728572D01*
X44833333Y61328572D02*
X45300000Y61328572D01*
X45000000Y60728572D01*
%TO.C,TH3*%
X41900000Y8278572D02*
X42300000Y8278572D01*
X42100000Y7678572D02*
X42100000Y8278572D01*
X42533333Y7678572D02*
X42533333Y8278572D01*
X42533333Y7992858D02*
X42933333Y7992858D01*
X42933333Y7678572D02*
X42933333Y8278572D01*
X43200000Y8278572D02*
X43633333Y8278572D01*
X43400000Y8050000D01*
X43500000Y8050000D01*
X43566666Y8021429D01*
X43600000Y7992858D01*
X43633333Y7935715D01*
X43633333Y7792858D01*
X43600000Y7735715D01*
X43566666Y7707143D01*
X43500000Y7678572D01*
X43300000Y7678572D01*
X43233333Y7707143D01*
X43200000Y7735715D01*
%TO.C,C10*%
X47425000Y86985715D02*
X47391666Y86957143D01*
X47291666Y86928572D01*
X47225000Y86928572D01*
X47125000Y86957143D01*
X47058333Y87014286D01*
X47025000Y87071429D01*
X46991666Y87185715D01*
X46991666Y87271429D01*
X47025000Y87385715D01*
X47058333Y87442858D01*
X47125000Y87500000D01*
X47225000Y87528572D01*
X47291666Y87528572D01*
X47391666Y87500000D01*
X47425000Y87471429D01*
X48091666Y86928572D02*
X47691666Y86928572D01*
X47891666Y86928572D02*
X47891666Y87528572D01*
X47825000Y87442858D01*
X47758333Y87385715D01*
X47691666Y87357143D01*
X48525000Y87528572D02*
X48591666Y87528572D01*
X48658333Y87500000D01*
X48691666Y87471429D01*
X48725000Y87414286D01*
X48758333Y87300000D01*
X48758333Y87157143D01*
X48725000Y87042858D01*
X48691666Y86985715D01*
X48658333Y86957143D01*
X48591666Y86928572D01*
X48525000Y86928572D01*
X48458333Y86957143D01*
X48425000Y86985715D01*
X48391666Y87042858D01*
X48358333Y87157143D01*
X48358333Y87300000D01*
X48391666Y87414286D01*
X48425000Y87471429D01*
X48458333Y87500000D01*
X48525000Y87528572D01*
%TO.C,Q3*%
X26310833Y89921429D02*
X26244166Y89950000D01*
X26177500Y90007143D01*
X26077500Y90092858D01*
X26010833Y90121429D01*
X25944166Y90121429D01*
X25977500Y89978572D02*
X25910833Y90007143D01*
X25844166Y90064286D01*
X25810833Y90178572D01*
X25810833Y90378572D01*
X25844166Y90492858D01*
X25910833Y90550000D01*
X25977500Y90578572D01*
X26110833Y90578572D01*
X26177500Y90550000D01*
X26244166Y90492858D01*
X26277500Y90378572D01*
X26277500Y90178572D01*
X26244166Y90064286D01*
X26177500Y90007143D01*
X26110833Y89978572D01*
X25977500Y89978572D01*
X26510833Y90578572D02*
X26944166Y90578572D01*
X26710833Y90350000D01*
X26810833Y90350000D01*
X26877500Y90321429D01*
X26910833Y90292858D01*
X26944166Y90235715D01*
X26944166Y90092858D01*
X26910833Y90035715D01*
X26877500Y90007143D01*
X26810833Y89978572D01*
X26610833Y89978572D01*
X26544166Y90007143D01*
X26510833Y90035715D01*
%TO.C,C6*%
X13733333Y74785715D02*
X13700000Y74757143D01*
X13600000Y74728572D01*
X13533333Y74728572D01*
X13433333Y74757143D01*
X13366666Y74814286D01*
X13333333Y74871429D01*
X13300000Y74985715D01*
X13300000Y75071429D01*
X13333333Y75185715D01*
X13366666Y75242858D01*
X13433333Y75300000D01*
X13533333Y75328572D01*
X13600000Y75328572D01*
X13700000Y75300000D01*
X13733333Y75271429D01*
X14333333Y75328572D02*
X14200000Y75328572D01*
X14133333Y75300000D01*
X14100000Y75271429D01*
X14033333Y75185715D01*
X14000000Y75071429D01*
X14000000Y74842858D01*
X14033333Y74785715D01*
X14066666Y74757143D01*
X14133333Y74728572D01*
X14266666Y74728572D01*
X14333333Y74757143D01*
X14366666Y74785715D01*
X14400000Y74842858D01*
X14400000Y74985715D01*
X14366666Y75042858D01*
X14333333Y75071429D01*
X14266666Y75100000D01*
X14133333Y75100000D01*
X14066666Y75071429D01*
X14033333Y75042858D01*
X14000000Y74985715D01*
%TO.C,R11*%
X28000000Y88678572D02*
X27766666Y88964286D01*
X27600000Y88678572D02*
X27600000Y89278572D01*
X27866666Y89278572D01*
X27933333Y89250000D01*
X27966666Y89221429D01*
X28000000Y89164286D01*
X28000000Y89078572D01*
X27966666Y89021429D01*
X27933333Y88992858D01*
X27866666Y88964286D01*
X27600000Y88964286D01*
X28666666Y88678572D02*
X28266666Y88678572D01*
X28466666Y88678572D02*
X28466666Y89278572D01*
X28400000Y89192858D01*
X28333333Y89135715D01*
X28266666Y89107143D01*
X29333333Y88678572D02*
X28933333Y88678572D01*
X29133333Y88678572D02*
X29133333Y89278572D01*
X29066666Y89192858D01*
X29000000Y89135715D01*
X28933333Y89107143D01*
%TO.C,R2*%
X35521428Y52983334D02*
X35235714Y52750000D01*
X35521428Y52583334D02*
X34921428Y52583334D01*
X34921428Y52850000D01*
X34950000Y52916667D01*
X34978571Y52950000D01*
X35035714Y52983334D01*
X35121428Y52983334D01*
X35178571Y52950000D01*
X35207142Y52916667D01*
X35235714Y52850000D01*
X35235714Y52583334D01*
X34978571Y53250000D02*
X34950000Y53283334D01*
X34921428Y53350000D01*
X34921428Y53516667D01*
X34950000Y53583334D01*
X34978571Y53616667D01*
X35035714Y53650000D01*
X35092857Y53650000D01*
X35178571Y53616667D01*
X35521428Y53216667D01*
X35521428Y53650000D01*
%TO.C,RN4*%
X32566666Y58232666D02*
X32333333Y58518380D01*
X32166666Y58232666D02*
X32166666Y58832666D01*
X32433333Y58832666D01*
X32500000Y58804094D01*
X32533333Y58775523D01*
X32566666Y58718380D01*
X32566666Y58632666D01*
X32533333Y58575523D01*
X32500000Y58546952D01*
X32433333Y58518380D01*
X32166666Y58518380D01*
X32866666Y58232666D02*
X32866666Y58832666D01*
X33266666Y58232666D01*
X33266666Y58832666D01*
X33900000Y58632666D02*
X33900000Y58232666D01*
X33733333Y58861237D02*
X33566666Y58432666D01*
X34000000Y58432666D01*
%TO.C,C16*%
X31850000Y54785715D02*
X31816666Y54757143D01*
X31716666Y54728572D01*
X31650000Y54728572D01*
X31550000Y54757143D01*
X31483333Y54814286D01*
X31450000Y54871429D01*
X31416666Y54985715D01*
X31416666Y55071429D01*
X31450000Y55185715D01*
X31483333Y55242858D01*
X31550000Y55300000D01*
X31650000Y55328572D01*
X31716666Y55328572D01*
X31816666Y55300000D01*
X31850000Y55271429D01*
X32516666Y54728572D02*
X32116666Y54728572D01*
X32316666Y54728572D02*
X32316666Y55328572D01*
X32250000Y55242858D01*
X32183333Y55185715D01*
X32116666Y55157143D01*
X33116666Y55328572D02*
X32983333Y55328572D01*
X32916666Y55300000D01*
X32883333Y55271429D01*
X32816666Y55185715D01*
X32783333Y55071429D01*
X32783333Y54842858D01*
X32816666Y54785715D01*
X32850000Y54757143D01*
X32916666Y54728572D01*
X33050000Y54728572D01*
X33116666Y54757143D01*
X33150000Y54785715D01*
X33183333Y54842858D01*
X33183333Y54985715D01*
X33150000Y55042858D01*
X33116666Y55071429D01*
X33050000Y55100000D01*
X32916666Y55100000D01*
X32850000Y55071429D01*
X32816666Y55042858D01*
X32783333Y54985715D01*
%TO.C,RN7*%
X54421666Y44878572D02*
X54188333Y45164286D01*
X54021666Y44878572D02*
X54021666Y45478572D01*
X54288333Y45478572D01*
X54355000Y45450000D01*
X54388333Y45421429D01*
X54421666Y45364286D01*
X54421666Y45278572D01*
X54388333Y45221429D01*
X54355000Y45192858D01*
X54288333Y45164286D01*
X54021666Y45164286D01*
X54721666Y44878572D02*
X54721666Y45478572D01*
X55121666Y44878572D01*
X55121666Y45478572D01*
X55388333Y45478572D02*
X55855000Y45478572D01*
X55555000Y44878572D01*
%TO.C,C13*%
X19900000Y66235715D02*
X19866666Y66207143D01*
X19766666Y66178572D01*
X19700000Y66178572D01*
X19600000Y66207143D01*
X19533333Y66264286D01*
X19500000Y66321429D01*
X19466666Y66435715D01*
X19466666Y66521429D01*
X19500000Y66635715D01*
X19533333Y66692858D01*
X19600000Y66750000D01*
X19700000Y66778572D01*
X19766666Y66778572D01*
X19866666Y66750000D01*
X19900000Y66721429D01*
X20566666Y66178572D02*
X20166666Y66178572D01*
X20366666Y66178572D02*
X20366666Y66778572D01*
X20300000Y66692858D01*
X20233333Y66635715D01*
X20166666Y66607143D01*
X20800000Y66778572D02*
X21233333Y66778572D01*
X21000000Y66550000D01*
X21100000Y66550000D01*
X21166666Y66521429D01*
X21200000Y66492858D01*
X21233333Y66435715D01*
X21233333Y66292858D01*
X21200000Y66235715D01*
X21166666Y66207143D01*
X21100000Y66178572D01*
X20900000Y66178572D01*
X20833333Y66207143D01*
X20800000Y66235715D01*
%TO.C,U6*%
X25466666Y66483572D02*
X25466666Y65997858D01*
X25500000Y65940715D01*
X25533333Y65912143D01*
X25600000Y65883572D01*
X25733333Y65883572D01*
X25800000Y65912143D01*
X25833333Y65940715D01*
X25866666Y65997858D01*
X25866666Y66483572D01*
X26500000Y66483572D02*
X26366666Y66483572D01*
X26300000Y66455000D01*
X26266666Y66426429D01*
X26200000Y66340715D01*
X26166666Y66226429D01*
X26166666Y65997858D01*
X26200000Y65940715D01*
X26233333Y65912143D01*
X26300000Y65883572D01*
X26433333Y65883572D01*
X26500000Y65912143D01*
X26533333Y65940715D01*
X26566666Y65997858D01*
X26566666Y66140715D01*
X26533333Y66197858D01*
X26500000Y66226429D01*
X26433333Y66255000D01*
X26300000Y66255000D01*
X26233333Y66226429D01*
X26200000Y66197858D01*
X26166666Y66140715D01*
%TO.C,R3*%
X31433333Y110178572D02*
X31200000Y110464286D01*
X31033333Y110178572D02*
X31033333Y110778572D01*
X31300000Y110778572D01*
X31366666Y110750000D01*
X31400000Y110721429D01*
X31433333Y110664286D01*
X31433333Y110578572D01*
X31400000Y110521429D01*
X31366666Y110492858D01*
X31300000Y110464286D01*
X31033333Y110464286D01*
X31666666Y110778572D02*
X32100000Y110778572D01*
X31866666Y110550000D01*
X31966666Y110550000D01*
X32033333Y110521429D01*
X32066666Y110492858D01*
X32100000Y110435715D01*
X32100000Y110292858D01*
X32066666Y110235715D01*
X32033333Y110207143D01*
X31966666Y110178572D01*
X31766666Y110178572D01*
X31700000Y110207143D01*
X31666666Y110235715D01*
%TO.C,J4*%
X10712335Y13313572D02*
X10712335Y12885000D01*
X10679002Y12799286D01*
X10612335Y12742143D01*
X10512335Y12713572D01*
X10445669Y12713572D01*
X11345669Y13113572D02*
X11345669Y12713572D01*
X11179002Y13342143D02*
X11012335Y12913572D01*
X11445669Y12913572D01*
%TO.C,U2*%
X32466666Y98628572D02*
X32466666Y98142858D01*
X32500000Y98085715D01*
X32533333Y98057143D01*
X32600000Y98028572D01*
X32733333Y98028572D01*
X32800000Y98057143D01*
X32833333Y98085715D01*
X32866666Y98142858D01*
X32866666Y98628572D01*
X33166666Y98571429D02*
X33200000Y98600000D01*
X33266666Y98628572D01*
X33433333Y98628572D01*
X33500000Y98600000D01*
X33533333Y98571429D01*
X33566666Y98514286D01*
X33566666Y98457143D01*
X33533333Y98371429D01*
X33133333Y98028572D01*
X33566666Y98028572D01*
%TO.C,D2*%
X34583333Y20578572D02*
X34583333Y21178572D01*
X34750000Y21178572D01*
X34850000Y21150000D01*
X34916666Y21092858D01*
X34950000Y21035715D01*
X34983333Y20921429D01*
X34983333Y20835715D01*
X34950000Y20721429D01*
X34916666Y20664286D01*
X34850000Y20607143D01*
X34750000Y20578572D01*
X34583333Y20578572D01*
X35250000Y21121429D02*
X35283333Y21150000D01*
X35350000Y21178572D01*
X35516666Y21178572D01*
X35583333Y21150000D01*
X35616666Y21121429D01*
X35650000Y21064286D01*
X35650000Y21007143D01*
X35616666Y20921429D01*
X35216666Y20578572D01*
X35650000Y20578572D01*
%TO.C,J17*%
X27346428Y9283334D02*
X27775000Y9283334D01*
X27860714Y9250000D01*
X27917857Y9183334D01*
X27946428Y9083334D01*
X27946428Y9016667D01*
X27946428Y9983334D02*
X27946428Y9583334D01*
X27946428Y9783334D02*
X27346428Y9783334D01*
X27432142Y9716667D01*
X27489285Y9650000D01*
X27517857Y9583334D01*
X27346428Y10216667D02*
X27346428Y10683334D01*
X27946428Y10383334D01*
%TO.C,RN5*%
X54616666Y10478572D02*
X54383333Y10764286D01*
X54216666Y10478572D02*
X54216666Y11078572D01*
X54483333Y11078572D01*
X54550000Y11050000D01*
X54583333Y11021429D01*
X54616666Y10964286D01*
X54616666Y10878572D01*
X54583333Y10821429D01*
X54550000Y10792858D01*
X54483333Y10764286D01*
X54216666Y10764286D01*
X54916666Y10478572D02*
X54916666Y11078572D01*
X55316666Y10478572D01*
X55316666Y11078572D01*
X55983333Y11078572D02*
X55650000Y11078572D01*
X55616666Y10792858D01*
X55650000Y10821429D01*
X55716666Y10850000D01*
X55883333Y10850000D01*
X55950000Y10821429D01*
X55983333Y10792858D01*
X56016666Y10735715D01*
X56016666Y10592858D01*
X55983333Y10535715D01*
X55950000Y10507143D01*
X55883333Y10478572D01*
X55716666Y10478572D01*
X55650000Y10507143D01*
X55616666Y10535715D01*
%TO.C,J8*%
X61216666Y75881408D02*
X61216666Y75452836D01*
X61183333Y75367122D01*
X61116666Y75309979D01*
X61016666Y75281408D01*
X60950000Y75281408D01*
X61650000Y75624265D02*
X61583333Y75652836D01*
X61550000Y75681408D01*
X61516666Y75738551D01*
X61516666Y75767122D01*
X61550000Y75824265D01*
X61583333Y75852836D01*
X61650000Y75881408D01*
X61783333Y75881408D01*
X61850000Y75852836D01*
X61883333Y75824265D01*
X61916666Y75767122D01*
X61916666Y75738551D01*
X61883333Y75681408D01*
X61850000Y75652836D01*
X61783333Y75624265D01*
X61650000Y75624265D01*
X61583333Y75595694D01*
X61550000Y75567122D01*
X61516666Y75509979D01*
X61516666Y75395694D01*
X61550000Y75338551D01*
X61583333Y75309979D01*
X61650000Y75281408D01*
X61783333Y75281408D01*
X61850000Y75309979D01*
X61883333Y75338551D01*
X61916666Y75395694D01*
X61916666Y75509979D01*
X61883333Y75567122D01*
X61850000Y75595694D01*
X61783333Y75624265D01*
%TO.C,R15*%
X23321428Y69400000D02*
X23035714Y69166667D01*
X23321428Y69000000D02*
X22721428Y69000000D01*
X22721428Y69266667D01*
X22750000Y69333334D01*
X22778571Y69366667D01*
X22835714Y69400000D01*
X22921428Y69400000D01*
X22978571Y69366667D01*
X23007142Y69333334D01*
X23035714Y69266667D01*
X23035714Y69000000D01*
X23321428Y70066667D02*
X23321428Y69666667D01*
X23321428Y69866667D02*
X22721428Y69866667D01*
X22807142Y69800000D01*
X22864285Y69733334D01*
X22892857Y69666667D01*
X22721428Y70700000D02*
X22721428Y70366667D01*
X23007142Y70333334D01*
X22978571Y70366667D01*
X22950000Y70433334D01*
X22950000Y70600000D01*
X22978571Y70666667D01*
X23007142Y70700000D01*
X23064285Y70733334D01*
X23207142Y70733334D01*
X23264285Y70700000D01*
X23292857Y70666667D01*
X23321428Y70600000D01*
X23321428Y70433334D01*
X23292857Y70366667D01*
X23264285Y70333334D01*
%TO.C,D7*%
X35133333Y76728572D02*
X35133333Y77328572D01*
X35300000Y77328572D01*
X35400000Y77300000D01*
X35466666Y77242858D01*
X35500000Y77185715D01*
X35533333Y77071429D01*
X35533333Y76985715D01*
X35500000Y76871429D01*
X35466666Y76814286D01*
X35400000Y76757143D01*
X35300000Y76728572D01*
X35133333Y76728572D01*
X35766666Y77328572D02*
X36233333Y77328572D01*
X35933333Y76728572D01*
%TO.C,C3*%
X35908333Y107735715D02*
X35875000Y107707143D01*
X35775000Y107678572D01*
X35708333Y107678572D01*
X35608333Y107707143D01*
X35541666Y107764286D01*
X35508333Y107821429D01*
X35475000Y107935715D01*
X35475000Y108021429D01*
X35508333Y108135715D01*
X35541666Y108192858D01*
X35608333Y108250000D01*
X35708333Y108278572D01*
X35775000Y108278572D01*
X35875000Y108250000D01*
X35908333Y108221429D01*
X36141666Y108278572D02*
X36575000Y108278572D01*
X36341666Y108050000D01*
X36441666Y108050000D01*
X36508333Y108021429D01*
X36541666Y107992858D01*
X36575000Y107935715D01*
X36575000Y107792858D01*
X36541666Y107735715D01*
X36508333Y107707143D01*
X36441666Y107678572D01*
X36241666Y107678572D01*
X36175000Y107707143D01*
X36141666Y107735715D01*
%TO.C,U3*%
X16316666Y68428572D02*
X16316666Y67942858D01*
X16350000Y67885715D01*
X16383333Y67857143D01*
X16450000Y67828572D01*
X16583333Y67828572D01*
X16650000Y67857143D01*
X16683333Y67885715D01*
X16716666Y67942858D01*
X16716666Y68428572D01*
X16983333Y68428572D02*
X17416666Y68428572D01*
X17183333Y68200000D01*
X17283333Y68200000D01*
X17350000Y68171429D01*
X17383333Y68142858D01*
X17416666Y68085715D01*
X17416666Y67942858D01*
X17383333Y67885715D01*
X17350000Y67857143D01*
X17283333Y67828572D01*
X17083333Y67828572D01*
X17016666Y67857143D01*
X16983333Y67885715D01*
%TO.C,Q1*%
X28522333Y114221429D02*
X28455666Y114250000D01*
X28389000Y114307143D01*
X28289000Y114392858D01*
X28222333Y114421429D01*
X28155666Y114421429D01*
X28189000Y114278572D02*
X28122333Y114307143D01*
X28055666Y114364286D01*
X28022333Y114478572D01*
X28022333Y114678572D01*
X28055666Y114792858D01*
X28122333Y114850000D01*
X28189000Y114878572D01*
X28322333Y114878572D01*
X28389000Y114850000D01*
X28455666Y114792858D01*
X28489000Y114678572D01*
X28489000Y114478572D01*
X28455666Y114364286D01*
X28389000Y114307143D01*
X28322333Y114278572D01*
X28189000Y114278572D01*
X29155666Y114278572D02*
X28755666Y114278572D01*
X28955666Y114278572D02*
X28955666Y114878572D01*
X28889000Y114792858D01*
X28822333Y114735715D01*
X28755666Y114707143D01*
%TO.C,U7*%
X28316666Y25728572D02*
X28316666Y25242858D01*
X28350000Y25185715D01*
X28383333Y25157143D01*
X28450000Y25128572D01*
X28583333Y25128572D01*
X28650000Y25157143D01*
X28683333Y25185715D01*
X28716666Y25242858D01*
X28716666Y25728572D01*
X28983333Y25728572D02*
X29450000Y25728572D01*
X29150000Y25128572D01*
%TO.C,R10*%
X21521428Y89600000D02*
X21235714Y89366667D01*
X21521428Y89200000D02*
X20921428Y89200000D01*
X20921428Y89466667D01*
X20950000Y89533334D01*
X20978571Y89566667D01*
X21035714Y89600000D01*
X21121428Y89600000D01*
X21178571Y89566667D01*
X21207142Y89533334D01*
X21235714Y89466667D01*
X21235714Y89200000D01*
X21521428Y90266667D02*
X21521428Y89866667D01*
X21521428Y90066667D02*
X20921428Y90066667D01*
X21007142Y90000000D01*
X21064285Y89933334D01*
X21092857Y89866667D01*
X20921428Y90700000D02*
X20921428Y90766667D01*
X20950000Y90833334D01*
X20978571Y90866667D01*
X21035714Y90900000D01*
X21150000Y90933334D01*
X21292857Y90933334D01*
X21407142Y90900000D01*
X21464285Y90866667D01*
X21492857Y90833334D01*
X21521428Y90766667D01*
X21521428Y90700000D01*
X21492857Y90633334D01*
X21464285Y90600000D01*
X21407142Y90566667D01*
X21292857Y90533334D01*
X21150000Y90533334D01*
X21035714Y90566667D01*
X20978571Y90600000D01*
X20950000Y90633334D01*
X20921428Y90700000D01*
%TO.C,RN8*%
X54441666Y29773572D02*
X54208333Y30059286D01*
X54041666Y29773572D02*
X54041666Y30373572D01*
X54308333Y30373572D01*
X54375000Y30345000D01*
X54408333Y30316429D01*
X54441666Y30259286D01*
X54441666Y30173572D01*
X54408333Y30116429D01*
X54375000Y30087858D01*
X54308333Y30059286D01*
X54041666Y30059286D01*
X54741666Y29773572D02*
X54741666Y30373572D01*
X55141666Y29773572D01*
X55141666Y30373572D01*
X55575000Y30116429D02*
X55508333Y30145000D01*
X55475000Y30173572D01*
X55441666Y30230715D01*
X55441666Y30259286D01*
X55475000Y30316429D01*
X55508333Y30345000D01*
X55575000Y30373572D01*
X55708333Y30373572D01*
X55775000Y30345000D01*
X55808333Y30316429D01*
X55841666Y30259286D01*
X55841666Y30230715D01*
X55808333Y30173572D01*
X55775000Y30145000D01*
X55708333Y30116429D01*
X55575000Y30116429D01*
X55508333Y30087858D01*
X55475000Y30059286D01*
X55441666Y30002143D01*
X55441666Y29887858D01*
X55475000Y29830715D01*
X55508333Y29802143D01*
X55575000Y29773572D01*
X55708333Y29773572D01*
X55775000Y29802143D01*
X55808333Y29830715D01*
X55841666Y29887858D01*
X55841666Y30002143D01*
X55808333Y30059286D01*
X55775000Y30087858D01*
X55708333Y30116429D01*
%TO.C,C14*%
X21489285Y23350000D02*
X21517857Y23316667D01*
X21546428Y23216667D01*
X21546428Y23150000D01*
X21517857Y23050000D01*
X21460714Y22983334D01*
X21403571Y22950000D01*
X21289285Y22916667D01*
X21203571Y22916667D01*
X21089285Y22950000D01*
X21032142Y22983334D01*
X20975000Y23050000D01*
X20946428Y23150000D01*
X20946428Y23216667D01*
X20975000Y23316667D01*
X21003571Y23350000D01*
X21546428Y24016667D02*
X21546428Y23616667D01*
X21546428Y23816667D02*
X20946428Y23816667D01*
X21032142Y23750000D01*
X21089285Y23683334D01*
X21117857Y23616667D01*
X21146428Y24616667D02*
X21546428Y24616667D01*
X20917857Y24450000D02*
X21346428Y24283334D01*
X21346428Y24716667D01*
%TO.C,TH2*%
X9350000Y64328572D02*
X9750000Y64328572D01*
X9550000Y63728572D02*
X9550000Y64328572D01*
X9983333Y63728572D02*
X9983333Y64328572D01*
X9983333Y64042858D02*
X10383333Y64042858D01*
X10383333Y63728572D02*
X10383333Y64328572D01*
X10683333Y64271429D02*
X10716666Y64300000D01*
X10783333Y64328572D01*
X10950000Y64328572D01*
X11016666Y64300000D01*
X11050000Y64271429D01*
X11083333Y64214286D01*
X11083333Y64157143D01*
X11050000Y64071429D01*
X10650000Y63728572D01*
X11083333Y63728572D01*
%TO.C,U4*%
X24609075Y55078572D02*
X24609075Y54592858D01*
X24642409Y54535715D01*
X24675742Y54507143D01*
X24742409Y54478572D01*
X24875742Y54478572D01*
X24942409Y54507143D01*
X24975742Y54535715D01*
X25009075Y54592858D01*
X25009075Y55078572D01*
X25642409Y54878572D02*
X25642409Y54478572D01*
X25475742Y55107143D02*
X25309075Y54678572D01*
X25742409Y54678572D01*
%TO.C,R4*%
X35933333Y112178572D02*
X35700000Y112464286D01*
X35533333Y112178572D02*
X35533333Y112778572D01*
X35800000Y112778572D01*
X35866666Y112750000D01*
X35900000Y112721429D01*
X35933333Y112664286D01*
X35933333Y112578572D01*
X35900000Y112521429D01*
X35866666Y112492858D01*
X35800000Y112464286D01*
X35533333Y112464286D01*
X36533333Y112578572D02*
X36533333Y112178572D01*
X36366666Y112807143D02*
X36200000Y112378572D01*
X36633333Y112378572D01*
%TO.C,C7*%
X18914285Y78533334D02*
X18942857Y78500000D01*
X18971428Y78400000D01*
X18971428Y78333334D01*
X18942857Y78233334D01*
X18885714Y78166667D01*
X18828571Y78133334D01*
X18714285Y78100000D01*
X18628571Y78100000D01*
X18514285Y78133334D01*
X18457142Y78166667D01*
X18400000Y78233334D01*
X18371428Y78333334D01*
X18371428Y78400000D01*
X18400000Y78500000D01*
X18428571Y78533334D01*
X18371428Y78766667D02*
X18371428Y79233334D01*
X18971428Y78933334D01*
%TO.C,D6*%
X35383333Y102978572D02*
X35383333Y103578572D01*
X35550000Y103578572D01*
X35650000Y103550000D01*
X35716666Y103492858D01*
X35750000Y103435715D01*
X35783333Y103321429D01*
X35783333Y103235715D01*
X35750000Y103121429D01*
X35716666Y103064286D01*
X35650000Y103007143D01*
X35550000Y102978572D01*
X35383333Y102978572D01*
X36383333Y103578572D02*
X36250000Y103578572D01*
X36183333Y103550000D01*
X36150000Y103521429D01*
X36083333Y103435715D01*
X36050000Y103321429D01*
X36050000Y103092858D01*
X36083333Y103035715D01*
X36116666Y103007143D01*
X36183333Y102978572D01*
X36316666Y102978572D01*
X36383333Y103007143D01*
X36416666Y103035715D01*
X36450000Y103092858D01*
X36450000Y103235715D01*
X36416666Y103292858D01*
X36383333Y103321429D01*
X36316666Y103350000D01*
X36183333Y103350000D01*
X36116666Y103321429D01*
X36083333Y103292858D01*
X36050000Y103235715D01*
%TO.C,JP3*%
X7271428Y82816667D02*
X7700000Y82816667D01*
X7785714Y82783334D01*
X7842857Y82716667D01*
X7871428Y82616667D01*
X7871428Y82550000D01*
X7871428Y83150000D02*
X7271428Y83150000D01*
X7271428Y83416667D01*
X7300000Y83483334D01*
X7328571Y83516667D01*
X7385714Y83550000D01*
X7471428Y83550000D01*
X7528571Y83516667D01*
X7557142Y83483334D01*
X7585714Y83416667D01*
X7585714Y83150000D01*
X7271428Y83783334D02*
X7271428Y84216667D01*
X7500000Y83983334D01*
X7500000Y84083334D01*
X7528571Y84150000D01*
X7557142Y84183334D01*
X7614285Y84216667D01*
X7757142Y84216667D01*
X7814285Y84183334D01*
X7842857Y84150000D01*
X7871428Y84083334D01*
X7871428Y83883334D01*
X7842857Y83816667D01*
X7814285Y83783334D01*
D16*
%TO.C,JP7*%
X52480000Y37995000D02*
X52480000Y43135000D01*
X52480000Y37995000D02*
X49820000Y37995000D01*
X49820000Y37995000D02*
X49820000Y43135000D01*
X52480000Y36725000D02*
X52480000Y35395000D01*
X52480000Y35395000D02*
X51150000Y35395000D01*
X52480000Y43135000D02*
X49820000Y43135000D01*
%TO.C,L1*%
X52400000Y88950000D02*
X49400000Y88950000D01*
X52400000Y101550000D02*
X52400000Y88950000D01*
X39800000Y88950000D02*
X39800000Y101550000D01*
X39800000Y101550000D02*
X42800000Y101550000D01*
X49400000Y101550000D02*
X52400000Y101550000D01*
X42800000Y88950000D02*
X39800000Y88950000D01*
D10*
%TO.C,D15*%
X55475000Y70000000D02*
G75*
G03*
X55475000Y70000000I-50000J0D01*
G01*
D16*
%TO.C,C8*%
X33440580Y92060000D02*
X33159420Y92060000D01*
X33440580Y91040000D02*
X33159420Y91040000D01*
D10*
%TO.C,D34*%
X55820000Y36425000D02*
G75*
G03*
X55820000Y36425000I-50000J0D01*
G01*
D16*
%TO.C,C1*%
X36309420Y21340000D02*
X36590580Y21340000D01*
X36309420Y22360000D02*
X36590580Y22360000D01*
D10*
%TO.C,D13*%
X55475000Y72500000D02*
G75*
G03*
X55475000Y72500000I-50000J0D01*
G01*
D16*
%TO.C,J12*%
X39801000Y6775000D02*
X40111000Y6775000D01*
X46891000Y8195000D02*
X47391000Y8195000D01*
X47391000Y22645000D02*
X47391000Y21225000D01*
X47391000Y8195000D02*
X47391000Y6775000D01*
X40111000Y22645000D02*
X39801000Y22645000D01*
X47391000Y21225000D02*
X46891000Y21225000D01*
X39801000Y22645000D02*
X39801000Y6775000D01*
X46891000Y21225000D02*
X46891000Y8195000D01*
X47391000Y6775000D02*
X41631000Y6775000D01*
X41631000Y22645000D02*
X47391000Y22645000D01*
%TO.C,RN1*%
X21275000Y62430000D02*
X20275000Y62430000D01*
X21275000Y59070000D02*
X20275000Y59070000D01*
%TO.C,R13*%
X20827500Y73737258D02*
X20827500Y73262742D01*
X21872500Y73737258D02*
X21872500Y73262742D01*
D10*
%TO.C,D24*%
X55825000Y53950000D02*
G75*
G03*
X55825000Y53950000I-50000J0D01*
G01*
D16*
%TO.C,R12*%
X37987258Y90977500D02*
X37512742Y90977500D01*
X37987258Y92022500D02*
X37512742Y92022500D01*
%TO.C,R6*%
X29262742Y112522500D02*
X29737258Y112522500D01*
X29262742Y111477500D02*
X29737258Y111477500D01*
%TO.C,JP4*%
X22255000Y110920000D02*
X22255000Y113580000D01*
X27455000Y113520000D02*
X24855000Y113520000D01*
X27455000Y113520000D02*
X27455000Y113580000D01*
X27455000Y113580000D02*
X22255000Y113580000D01*
X27455000Y112250000D02*
X27455000Y110920000D01*
X24855000Y113520000D02*
X24855000Y110920000D01*
X24855000Y110920000D02*
X22255000Y110920000D01*
X27455000Y110920000D02*
X26125000Y110920000D01*
%TO.C,J3*%
X64850000Y117300000D02*
X63850000Y117300000D01*
X56900000Y118650000D02*
X56900000Y108370000D01*
X61360000Y109885000D02*
X61301000Y109945000D01*
X64910000Y118650000D02*
X56340000Y118650000D01*
X64850000Y114800000D02*
X63850000Y114800000D01*
X61535000Y110059000D02*
X61495000Y110099000D01*
X58000000Y118650000D02*
X58000000Y108370000D01*
X64850000Y112220000D02*
X64850000Y109720000D01*
X64850000Y112220000D02*
X63850000Y112220000D01*
X64850000Y117300000D02*
X64850000Y114800000D01*
X64850000Y109720000D02*
X63850000Y109720000D01*
X56340000Y118650000D02*
X56340000Y108370000D01*
X63000000Y118650000D02*
X63000000Y108370000D01*
X56840000Y118890000D02*
X56100000Y118890000D01*
X59600000Y111994000D02*
X59540000Y112054000D01*
X63850000Y117300000D02*
X63850000Y114800000D01*
X64910000Y118650000D02*
X64910000Y108370000D01*
X63850000Y112220000D02*
X63850000Y109720000D01*
X64910000Y108370000D02*
X56340000Y108370000D01*
X56100000Y118890000D02*
X56100000Y118390000D01*
X59405000Y111840000D02*
X59365000Y111880000D01*
X61078000Y117336000D02*
G75*
G03*
X59823254Y117336611I-627999J-1285999D01*
G01*
X59164000Y116678000D02*
G75*
G03*
X59019060Y116025720I1286011J-628002D01*
G01*
X59823000Y114764000D02*
G75*
G03*
X61077362Y114764177I627000J1286006D01*
G01*
X59020000Y116050000D02*
G75*
G03*
X59164725Y115423129I1430001J1D01*
G01*
X61736000Y115423000D02*
G75*
G03*
X61735823Y116677362I-1286105J627000D01*
G01*
X61880000Y110970000D02*
G75*
G03*
X61880000Y110970000I-1430000J0D01*
G01*
%TO.C,D3*%
X22700000Y110100000D02*
X24550000Y110100000D01*
X24550000Y108900000D02*
X24550000Y110100000D01*
X22700000Y108900000D02*
X24550000Y108900000D01*
%TO.C,J2*%
X32165000Y126460000D02*
X33585000Y126460000D01*
X33585000Y126460000D02*
X33585000Y120700000D01*
X23715000Y118870000D02*
X33585000Y118870000D01*
X23715000Y119180000D02*
X23715000Y118870000D01*
X25135000Y125960000D02*
X32165000Y125960000D01*
X23715000Y120700000D02*
X23715000Y126460000D01*
X32165000Y125960000D02*
X32165000Y126460000D01*
X25135000Y126460000D02*
X25135000Y125960000D01*
X33585000Y118870000D02*
X33585000Y119180000D01*
X23715000Y126460000D02*
X25135000Y126460000D01*
D10*
%TO.C,D8*%
X56150000Y17300000D02*
G75*
G03*
X56150000Y17300000I-50000J0D01*
G01*
D16*
%TO.C,RV1*%
X28770000Y69380000D02*
X28439000Y69380000D01*
X24360000Y69380000D02*
X24030000Y69380000D01*
X24030000Y69380000D02*
X24030000Y74120000D01*
X28770000Y69380000D02*
X28770000Y74120000D01*
X26659000Y69380000D02*
X26140000Y69380000D01*
X28770000Y74120000D02*
X27640000Y74120000D01*
X25160000Y74120000D02*
X24030000Y74120000D01*
%TO.C,J14*%
X64150000Y95380000D02*
X64150000Y96150000D01*
X64210000Y90250000D02*
X64950000Y90250000D01*
X64710000Y90490000D02*
X64710000Y91260000D01*
X58390000Y90490000D02*
X58390000Y96150000D01*
X58850000Y90490000D02*
X58850000Y96150000D01*
X58390000Y90490000D02*
X64710000Y90490000D01*
X58390000Y96150000D02*
X64710000Y96150000D01*
X64150000Y90490000D02*
X64150000Y91260000D01*
X64710000Y95380000D02*
X64710000Y96150000D01*
X64150000Y92840000D02*
X64150000Y93800000D01*
X64950000Y90250000D02*
X64950000Y90750000D01*
X64710000Y92840000D02*
X64710000Y93800000D01*
%TO.C,R17*%
X29727500Y80662742D02*
X29727500Y81137258D01*
X30772500Y80662742D02*
X30772500Y81137258D01*
%TO.C,U5*%
X30688560Y26497560D02*
X30688560Y26732560D01*
X30688560Y39517560D02*
X30688560Y39282560D01*
X22968560Y39282560D02*
X21153560Y39282560D01*
X26828560Y26497560D02*
X22968560Y26497560D01*
X22968560Y39517560D02*
X22968560Y39282560D01*
X26828560Y26497560D02*
X30688560Y26497560D01*
X22968560Y26497560D02*
X22968560Y26732560D01*
X26828560Y39517560D02*
X22968560Y39517560D01*
X26828560Y39517560D02*
X30688560Y39517560D01*
D10*
%TO.C,D29*%
X55500000Y42330000D02*
G75*
G03*
X55500000Y42330000I-50000J0D01*
G01*
%TO.C,D14*%
X55800000Y71600000D02*
G75*
G03*
X55800000Y71600000I-50000J0D01*
G01*
D16*
%TO.C,Q4*%
X25950000Y82390000D02*
X25300000Y82390000D01*
X25950000Y85510000D02*
X26600000Y85510000D01*
X25950000Y82390000D02*
X27625000Y82390000D01*
X25950000Y85510000D02*
X25300000Y85510000D01*
D11*
X27975000Y83000000D02*
G75*
G03*
X27975000Y83000000I-75000J0D01*
G01*
D16*
%TO.C,RN6*%
X55400000Y64130000D02*
X54400000Y64130000D01*
X55400000Y60770000D02*
X54400000Y60770000D01*
%TO.C,U1*%
X22680000Y75172000D02*
X21180000Y75172000D01*
X21180000Y75172000D02*
X21180000Y75442000D01*
X21180000Y75442000D02*
X20080000Y75442000D01*
X21180000Y81802000D02*
X18350000Y81802000D01*
X21180000Y82072000D02*
X21180000Y81802000D01*
X22680000Y82072000D02*
X21180000Y82072000D01*
D10*
%TO.C,D27*%
X55500000Y49862500D02*
G75*
G03*
X55500000Y49862500I-50000J0D01*
G01*
D16*
%TO.C,R7*%
X34162258Y109972500D02*
X33687742Y109972500D01*
X34162258Y108927500D02*
X33687742Y108927500D01*
%TO.C,D5*%
X24250000Y114700000D02*
X24250000Y116550000D01*
X25450000Y116550000D02*
X24250000Y116550000D01*
X25450000Y114700000D02*
X25450000Y116550000D01*
D10*
%TO.C,D11*%
X56050000Y24800000D02*
G75*
G03*
X56050000Y24800000I-50000J0D01*
G01*
D16*
%TO.C,R5*%
X33687742Y115972500D02*
X34162258Y115972500D01*
X33687742Y114927500D02*
X34162258Y114927500D01*
D10*
%TO.C,D21*%
X55500000Y57350000D02*
G75*
G03*
X55500000Y57350000I-50000J0D01*
G01*
D16*
%TO.C,JP1*%
X33289000Y23190000D02*
X35949000Y23190000D01*
X35949000Y28330000D02*
X35949000Y23190000D01*
X33289000Y28330000D02*
X33289000Y23190000D01*
X33289000Y30930000D02*
X34619000Y30930000D01*
X33289000Y28330000D02*
X35949000Y28330000D01*
X33289000Y29600000D02*
X33289000Y30930000D01*
%TO.C,C12*%
X22390000Y73359420D02*
X22390000Y73640580D01*
X23410000Y73359420D02*
X23410000Y73640580D01*
%TO.C,R14*%
X11337258Y69672500D02*
X10862742Y69672500D01*
X11337258Y68627500D02*
X10862742Y68627500D01*
%TO.C,JP8*%
X47180000Y68545000D02*
X44520000Y68545000D01*
X47180000Y65945000D02*
X47180000Y68545000D01*
X44520000Y65945000D02*
X44520000Y68545000D01*
X47180000Y64675000D02*
X47180000Y63345000D01*
X47180000Y65945000D02*
X44520000Y65945000D01*
X47180000Y63345000D02*
X45850000Y63345000D01*
%TO.C,J16*%
X32060000Y7320000D02*
X32060000Y6720000D01*
X37070000Y7750000D02*
X37070000Y11750000D01*
X36780000Y6720000D02*
X36780000Y12740000D01*
X36200000Y6720000D02*
X36200000Y7320000D01*
X28940000Y6720000D02*
X36780000Y6720000D01*
X29520000Y7320000D02*
X29520000Y6720000D01*
X31120000Y6720000D02*
X31120000Y7320000D01*
X31120000Y7320000D02*
X29520000Y7320000D01*
X35400000Y11740000D02*
X35150000Y11210000D01*
X35150000Y11210000D02*
X30570000Y11210000D01*
X30570000Y11210000D02*
X30320000Y11740000D01*
X36780000Y12740000D02*
X28940000Y12740000D01*
X33660000Y6720000D02*
X33660000Y7320000D01*
X35400000Y11740000D02*
X30320000Y11740000D01*
X30570000Y12740000D02*
X30570000Y11740000D01*
X30320000Y11740000D02*
X30320000Y12740000D01*
X35400000Y12740000D02*
X35400000Y11740000D01*
X28940000Y12740000D02*
X28940000Y6720000D01*
X36200000Y7320000D02*
X34600000Y7320000D01*
X33660000Y7320000D02*
X32060000Y7320000D01*
X35150000Y12740000D02*
X35150000Y11740000D01*
X34600000Y7320000D02*
X34600000Y6720000D01*
%TO.C,J9*%
X58390000Y59700000D02*
X64710000Y59700000D01*
X64710000Y48960000D02*
X64710000Y59700000D01*
X58390000Y48960000D02*
X64710000Y48960000D01*
X64150000Y48960000D02*
X64150000Y59700000D01*
X64210000Y48720000D02*
X64950000Y48720000D01*
X64950000Y48720000D02*
X64950000Y49220000D01*
X58850000Y48960000D02*
X58850000Y59700000D01*
X58390000Y48960000D02*
X58390000Y59700000D01*
%TO.C,Q2*%
X35975000Y116400000D02*
X35975000Y114900000D01*
X46375000Y114900000D02*
X44565000Y114900000D01*
X46375000Y116400000D02*
X46375000Y114900000D01*
X35975000Y114900000D02*
X37785000Y114900000D01*
X44565000Y114900000D02*
X44565000Y113800000D01*
X37785000Y114900000D02*
X37785000Y109775000D01*
%TO.C,R8*%
X33687742Y110427500D02*
X34162258Y110427500D01*
X33687742Y111472500D02*
X34162258Y111472500D01*
%TO.C,D1*%
X36550000Y18700000D02*
X36550000Y20550000D01*
X37750000Y18700000D02*
X37750000Y20550000D01*
X37750000Y20550000D02*
X36550000Y20550000D01*
%TO.C,J13*%
X64950000Y97560000D02*
X64950000Y98060000D01*
X64710000Y102690000D02*
X64710000Y103460000D01*
X58390000Y97800000D02*
X64710000Y97800000D01*
X64150000Y100150000D02*
X64150000Y101110000D01*
X64710000Y100150000D02*
X64710000Y101110000D01*
X58850000Y97800000D02*
X58850000Y103460000D01*
X64150000Y97800000D02*
X64150000Y98570000D01*
X64150000Y102690000D02*
X64150000Y103460000D01*
X64710000Y97800000D02*
X64710000Y98570000D01*
X64210000Y97560000D02*
X64950000Y97560000D01*
X58390000Y103460000D02*
X64710000Y103460000D01*
X58390000Y97800000D02*
X58390000Y103460000D01*
%TO.C,C9*%
X37609420Y99010000D02*
X37890580Y99010000D01*
X37609420Y97990000D02*
X37890580Y97990000D01*
D10*
%TO.C,D35*%
X55500000Y34820000D02*
G75*
G03*
X55500000Y34820000I-50000J0D01*
G01*
%TO.C,D17*%
X55475000Y67500000D02*
G75*
G03*
X55475000Y67500000I-50000J0D01*
G01*
D16*
%TO.C,J11*%
X58390000Y33935000D02*
X58390000Y44675000D01*
X64150000Y33935000D02*
X64150000Y44675000D01*
X58390000Y33935000D02*
X64710000Y33935000D01*
X64210000Y33695000D02*
X64950000Y33695000D01*
X58390000Y44675000D02*
X64710000Y44675000D01*
X64950000Y33695000D02*
X64950000Y34195000D01*
X58850000Y33935000D02*
X58850000Y44675000D01*
X64710000Y33935000D02*
X64710000Y44675000D01*
%TO.C,R18*%
X32322500Y81137258D02*
X32322500Y80662742D01*
X31277500Y81137258D02*
X31277500Y80662742D01*
%TO.C,JP5*%
X52530000Y73385000D02*
X49870000Y73385000D01*
X52530000Y68245000D02*
X49870000Y68245000D01*
X52530000Y68245000D02*
X52530000Y73385000D01*
X49870000Y68245000D02*
X49870000Y73385000D01*
X52530000Y65645000D02*
X51200000Y65645000D01*
X52530000Y66975000D02*
X52530000Y65645000D01*
D10*
%TO.C,D33*%
X55500000Y37325000D02*
G75*
G03*
X55500000Y37325000I-50000J0D01*
G01*
D16*
%TO.C,C4*%
X29760000Y103300000D02*
X28760000Y103300000D01*
X30045563Y102560000D02*
X28260000Y102560000D01*
X23454437Y102560000D02*
X25240000Y102560000D01*
X23454437Y102560000D02*
X22390000Y101495563D01*
X22390000Y101495563D02*
X22390000Y93840000D01*
X31110000Y93840000D02*
X28260000Y93840000D01*
X29260000Y103800000D02*
X29260000Y102800000D01*
X22390000Y93840000D02*
X25240000Y93840000D01*
X30045563Y102560000D02*
X31110000Y101495563D01*
X31110000Y101495563D02*
X31110000Y93840000D01*
D11*
X25275000Y101800000D02*
G75*
G03*
X25275000Y101800000I-75000J0D01*
G01*
D16*
%TO.C,LF1*%
X39800000Y74200000D02*
X30200000Y74200000D01*
X30200000Y67800000D02*
X39800000Y67800000D01*
X39800000Y73200000D02*
X39800000Y74200000D01*
X30200000Y74200000D02*
X30200000Y73200000D01*
X30200000Y68800000D02*
X30200000Y67800000D01*
X30200000Y70600000D02*
X30200000Y71400000D01*
X39800000Y70600000D02*
X39800000Y71400000D01*
D10*
%TO.C,D23*%
X55500000Y54850000D02*
G75*
G03*
X55500000Y54850000I-50000J0D01*
G01*
D16*
%TO.C,J6*%
X64210000Y63870000D02*
X64950000Y63870000D01*
X64710000Y64110000D02*
X64710000Y74850000D01*
X64150000Y64110000D02*
X64150000Y74850000D01*
X58390000Y64110000D02*
X58390000Y74850000D01*
X64950000Y63870000D02*
X64950000Y64370000D01*
X58850000Y64110000D02*
X58850000Y74850000D01*
X58390000Y64110000D02*
X64710000Y64110000D01*
X58390000Y74850000D02*
X64710000Y74850000D01*
D10*
%TO.C,D9*%
X56050000Y19775000D02*
G75*
G03*
X56050000Y19775000I-50000J0D01*
G01*
%TO.C,D12*%
X55800000Y74100000D02*
G75*
G03*
X55800000Y74100000I-50000J0D01*
G01*
D16*
%TO.C,J5*%
X64150000Y13840000D02*
X64150000Y29660000D01*
X58390000Y13840000D02*
X64710000Y13840000D01*
X64210000Y13600000D02*
X64950000Y13600000D01*
X64950000Y13600000D02*
X64950000Y14100000D01*
X58390000Y29660000D02*
X64710000Y29660000D01*
X58850000Y13840000D02*
X58850000Y29660000D01*
X58390000Y13840000D02*
X58390000Y29660000D01*
X64710000Y13840000D02*
X64710000Y29660000D01*
%TO.C,RN3*%
X33550000Y18120000D02*
X32550000Y18120000D01*
X33550000Y21480000D02*
X32550000Y21480000D01*
%TO.C,K1*%
X51100000Y82950000D02*
X50767800Y83100000D01*
X41290000Y79745000D02*
X42310000Y80755000D01*
X56375000Y74760000D02*
X56375000Y85760000D01*
X51100000Y82950000D02*
X50400000Y82950000D01*
D11*
X51850000Y79500000D02*
X51200000Y83350000D01*
D16*
X52717800Y82950000D02*
X53750000Y82950000D01*
X41800000Y81750000D02*
X41800000Y84070000D01*
X37820000Y74760000D02*
X56375000Y74760000D01*
X41800000Y76450000D02*
X41800000Y78750000D01*
X51900000Y77900000D02*
X51900000Y78982800D01*
X52717800Y82950000D02*
X53050000Y83100000D01*
X51100000Y82950000D02*
X50767800Y82800000D01*
X37820000Y74760000D02*
X37820000Y85760000D01*
X37820000Y85760000D02*
X56375000Y85760000D01*
X52717800Y82950000D02*
X53050000Y82800000D01*
X41800000Y84075000D02*
X41150000Y84075000D01*
X41150000Y76450000D02*
X41800000Y76450000D01*
X41300000Y81750000D02*
X42300000Y81750000D01*
X42300000Y81750000D02*
X42300000Y78750000D01*
X42300000Y78750000D02*
X41300000Y78750000D01*
X41300000Y78750000D02*
X41300000Y81750000D01*
X52154000Y79250000D02*
G75*
G03*
X52154000Y79250000I-254000J0D01*
G01*
%TO.C,RN2*%
X21300000Y18138000D02*
X20300000Y18138000D01*
X21300000Y21498000D02*
X20300000Y21498000D01*
%TO.C,C17*%
X34310000Y38065580D02*
X34310000Y37784420D01*
X33290000Y38065580D02*
X33290000Y37784420D01*
%TO.C,C2*%
X36234420Y16840000D02*
X36515580Y16840000D01*
X36234420Y17860000D02*
X36515580Y17860000D01*
D10*
%TO.C,D32*%
X55825000Y38925000D02*
G75*
G03*
X55825000Y38925000I-50000J0D01*
G01*
D16*
%TO.C,J10*%
X41631000Y41463000D02*
X47391000Y41463000D01*
X40111000Y41463000D02*
X39801000Y41463000D01*
X47391000Y27013000D02*
X47391000Y25593000D01*
X39801000Y25593000D02*
X40111000Y25593000D01*
X46891000Y40043000D02*
X46891000Y27013000D01*
X47391000Y41463000D02*
X47391000Y40043000D01*
X47391000Y25593000D02*
X41631000Y25593000D01*
X46891000Y27013000D02*
X47391000Y27013000D01*
X47391000Y40043000D02*
X46891000Y40043000D01*
X39801000Y41463000D02*
X39801000Y25593000D01*
%TO.C,C5*%
X19740580Y82440000D02*
X19459420Y82440000D01*
X19740580Y83460000D02*
X19459420Y83460000D01*
D17*
%TO.C,J1*%
X6150000Y98050000D02*
X6150000Y96500000D01*
X6150000Y96500000D02*
X8150000Y96500000D01*
X6150000Y112500000D02*
X6150000Y110950000D01*
X11150000Y96500000D02*
X16150000Y96500000D01*
X16150000Y112500000D02*
X11150000Y112500000D01*
X8150000Y112500000D02*
X6150000Y112500000D01*
X6150000Y110950000D02*
X2150000Y110950000D01*
X2150000Y98050000D02*
X6150000Y98050000D01*
X2150000Y110950000D02*
X2150000Y98050000D01*
X19550000Y97850000D02*
X19550000Y111150000D01*
D10*
%TO.C,D18*%
X55800000Y66600000D02*
G75*
G03*
X55800000Y66600000I-50000J0D01*
G01*
%TO.C,D16*%
X55800000Y69100000D02*
G75*
G03*
X55800000Y69100000I-50000J0D01*
G01*
D16*
%TO.C,R16*%
X22602500Y84437258D02*
X22602500Y83962742D01*
X23647500Y84437258D02*
X23647500Y83962742D01*
D10*
%TO.C,D30*%
X55825000Y41410000D02*
G75*
G03*
X55825000Y41410000I-50000J0D01*
G01*
D16*
%TO.C,C11*%
X36960000Y84854437D02*
X35895563Y83790000D01*
X37625000Y88487500D02*
X37625000Y89275000D01*
X36960000Y89545563D02*
X35895563Y90610000D01*
X38018750Y88881250D02*
X37231250Y88881250D01*
X30140000Y83790000D02*
X30140000Y86140000D01*
X30140000Y90610000D02*
X30140000Y88260000D01*
X36960000Y84854437D02*
X36960000Y86140000D01*
X35895563Y90610000D02*
X30140000Y90610000D01*
X35895563Y83790000D02*
X30140000Y83790000D01*
X36960000Y89545563D02*
X36960000Y88260000D01*
D11*
X36275000Y88300000D02*
G75*
G03*
X36275000Y88300000I-75000J0D01*
G01*
D16*
%TO.C,JP6*%
X52480000Y58255000D02*
X49820000Y58255000D01*
X49820000Y53115000D02*
X49820000Y58255000D01*
X52480000Y53115000D02*
X49820000Y53115000D01*
X52480000Y50515000D02*
X51150000Y50515000D01*
X52480000Y53115000D02*
X52480000Y58255000D01*
X52480000Y51845000D02*
X52480000Y50515000D01*
%TO.C,JP2*%
X10930000Y73120000D02*
X10930000Y78260000D01*
X10930000Y78260000D02*
X8270000Y78260000D01*
X8270000Y73120000D02*
X8270000Y78260000D01*
X10930000Y71850000D02*
X10930000Y70520000D01*
X10930000Y73120000D02*
X8270000Y73120000D01*
X10930000Y70520000D02*
X9600000Y70520000D01*
%TO.C,C15*%
X21909000Y56195580D02*
X21909000Y55914420D01*
X22929000Y56195580D02*
X22929000Y55914420D01*
%TO.C,D4*%
X27000000Y116550000D02*
X25800000Y116550000D01*
X27000000Y114700000D02*
X27000000Y116550000D01*
X25800000Y114700000D02*
X25800000Y116550000D01*
D10*
%TO.C,D28*%
X55825000Y43930000D02*
G75*
G03*
X55825000Y43930000I-50000J0D01*
G01*
D16*
%TO.C,R9*%
X34162258Y114472500D02*
X33687742Y114472500D01*
X34162258Y113427500D02*
X33687742Y113427500D01*
%TO.C,Q5*%
X34500000Y79540000D02*
X33850000Y79540000D01*
X34500000Y79540000D02*
X35150000Y79540000D01*
X34500000Y82660000D02*
X32825000Y82660000D01*
X34500000Y82660000D02*
X35150000Y82660000D01*
D11*
X32625000Y82050000D02*
G75*
G03*
X32625000Y82050000I-75000J0D01*
G01*
D16*
%TO.C,J7*%
X39801000Y44389000D02*
X40111000Y44389000D01*
X40111000Y60259000D02*
X39801000Y60259000D01*
X46891000Y45809000D02*
X47391000Y45809000D01*
X47391000Y58839000D02*
X46891000Y58839000D01*
X46891000Y58839000D02*
X46891000Y45809000D01*
X47391000Y45809000D02*
X47391000Y44389000D01*
X47391000Y60259000D02*
X47391000Y58839000D01*
X39801000Y60259000D02*
X39801000Y44389000D01*
X47391000Y44389000D02*
X41631000Y44389000D01*
X41631000Y60259000D02*
X47391000Y60259000D01*
%TO.C,C10*%
X43863748Y86265000D02*
X45286252Y86265000D01*
X43863748Y88085000D02*
X45286252Y88085000D01*
%TO.C,Q3*%
X25000000Y91810000D02*
X25650000Y91810000D01*
X25000000Y91810000D02*
X24350000Y91810000D01*
X25000000Y88690000D02*
X24350000Y88690000D01*
X25000000Y88690000D02*
X26675000Y88690000D01*
D11*
X27025000Y89300000D02*
G75*
G03*
X27025000Y89300000I-75000J0D01*
G01*
D16*
%TO.C,C6*%
X16540580Y74490000D02*
X16259420Y74490000D01*
X16540580Y75510000D02*
X16259420Y75510000D01*
%TO.C,R11*%
X28687258Y90722500D02*
X28212742Y90722500D01*
X28687258Y89677500D02*
X28212742Y89677500D01*
%TO.C,R2*%
X34572500Y52862742D02*
X34572500Y53337258D01*
X33527500Y52862742D02*
X33527500Y53337258D01*
%TO.C,RN4*%
X32550000Y59070000D02*
X33550000Y59070000D01*
X32550000Y62430000D02*
X33550000Y62430000D01*
%TO.C,C16*%
X32159420Y56610000D02*
X32440580Y56610000D01*
X32159420Y55590000D02*
X32440580Y55590000D01*
%TO.C,RN7*%
X55400000Y45645000D02*
X54400000Y45645000D01*
X55400000Y49005000D02*
X54400000Y49005000D01*
%TO.C,C13*%
X20209420Y68060000D02*
X20490580Y68060000D01*
X20209420Y67040000D02*
X20490580Y67040000D01*
%TO.C,U6*%
X26954000Y55485000D02*
X25004000Y55485000D01*
X26954000Y65605000D02*
X25004000Y65605000D01*
X26954000Y55485000D02*
X30404000Y55485000D01*
X26954000Y65605000D02*
X28904000Y65605000D01*
%TO.C,R3*%
X29287742Y110972500D02*
X29762258Y110972500D01*
X29287742Y109927500D02*
X29762258Y109927500D01*
D10*
%TO.C,D19*%
X55475000Y65000000D02*
G75*
G03*
X55475000Y65000000I-50000J0D01*
G01*
D16*
%TO.C,J4*%
X17871325Y57150000D02*
X18304338Y57400000D01*
X17410000Y13920000D02*
X5070000Y13920000D01*
X5070000Y67140000D02*
X17410000Y67140000D01*
X17410000Y67140000D02*
X17410000Y13920000D01*
X18304338Y56900000D02*
X17871325Y57150000D01*
X18304338Y57400000D02*
X18304338Y56900000D01*
%TO.C,U2*%
X35550000Y92440000D02*
X37500000Y92440000D01*
X35550000Y97560000D02*
X37500000Y97560000D01*
X35550000Y92440000D02*
X33600000Y92440000D01*
X35550000Y97560000D02*
X32100000Y97560000D01*
D10*
%TO.C,D26*%
X55825000Y51462500D02*
G75*
G03*
X55825000Y51462500I-50000J0D01*
G01*
D16*
%TO.C,D2*%
X35075000Y20100000D02*
X35075000Y18250000D01*
X36275000Y20100000D02*
X36275000Y18250000D01*
X35075000Y18250000D02*
X36275000Y18250000D01*
%TO.C,J17*%
X21070000Y6720000D02*
X21070000Y7320000D01*
X20520000Y11210000D02*
X20270000Y11740000D01*
X25350000Y11740000D02*
X25100000Y11210000D01*
X25100000Y11210000D02*
X20520000Y11210000D01*
X27020000Y7750000D02*
X27020000Y11750000D01*
X23610000Y7320000D02*
X22010000Y7320000D01*
X19470000Y7320000D02*
X19470000Y6720000D01*
X20520000Y12740000D02*
X20520000Y11740000D01*
X20270000Y11740000D02*
X20270000Y12740000D01*
X25100000Y12740000D02*
X25100000Y11740000D01*
X22010000Y7320000D02*
X22010000Y6720000D01*
X26730000Y6720000D02*
X26730000Y12740000D01*
X18890000Y6720000D02*
X26730000Y6720000D01*
X26150000Y7320000D02*
X24550000Y7320000D01*
X26150000Y6720000D02*
X26150000Y7320000D01*
X21070000Y7320000D02*
X19470000Y7320000D01*
X24550000Y7320000D02*
X24550000Y6720000D01*
X25350000Y11740000D02*
X20270000Y11740000D01*
X18890000Y12740000D02*
X18890000Y6720000D01*
X26730000Y12740000D02*
X18890000Y12740000D01*
X23610000Y6720000D02*
X23610000Y7320000D01*
X25350000Y12740000D02*
X25350000Y11740000D01*
%TO.C,RN5*%
X54550000Y11320000D02*
X55550000Y11320000D01*
X54550000Y14680000D02*
X55550000Y14680000D01*
D10*
%TO.C,D31*%
X55500000Y39810000D02*
G75*
G03*
X55500000Y39810000I-50000J0D01*
G01*
D16*
%TO.C,J8*%
X58365000Y76602836D02*
X58365000Y87342836D01*
X64185000Y76362836D02*
X64925000Y76362836D01*
X64125000Y76602836D02*
X64125000Y87342836D01*
X64925000Y76362836D02*
X64925000Y76862836D01*
X58365000Y76602836D02*
X64685000Y76602836D01*
X58365000Y87342836D02*
X64685000Y87342836D01*
X64685000Y76602836D02*
X64685000Y87342836D01*
X58825000Y76602836D02*
X58825000Y87342836D01*
%TO.C,R15*%
X22362500Y69612742D02*
X22362500Y70087258D01*
X21317500Y69612742D02*
X21317500Y70087258D01*
%TO.C,D7*%
X37100000Y77500000D02*
X34550000Y77500000D01*
X37100000Y79200000D02*
X34550000Y79200000D01*
X37100000Y77500000D02*
X37100000Y79200000D01*
D11*
X34725000Y77725000D02*
G75*
G03*
X34725000Y77725000I-75000J0D01*
G01*
D16*
%TO.C,C3*%
X33784420Y107440000D02*
X34065580Y107440000D01*
X33784420Y108460000D02*
X34065580Y108460000D01*
%TO.C,U3*%
X16830000Y68752000D02*
X18780000Y68752000D01*
X16830000Y73872000D02*
X18780000Y73872000D01*
X16830000Y68752000D02*
X14880000Y68752000D01*
X16830000Y73872000D02*
X13380000Y73872000D01*
%TO.C,Q1*%
X29950000Y116110000D02*
X30600000Y116110000D01*
X29950000Y116110000D02*
X28275000Y116110000D01*
X29950000Y112990000D02*
X30600000Y112990000D01*
X29950000Y112990000D02*
X29300000Y112990000D01*
D11*
X28075000Y115500000D02*
G75*
G03*
X28075000Y115500000I-75000J0D01*
G01*
D10*
%TO.C,D20*%
X55825000Y58950000D02*
G75*
G03*
X55825000Y58950000I-50000J0D01*
G01*
D16*
%TO.C,U7*%
X26954000Y14758000D02*
X25004000Y14758000D01*
X26954000Y24878000D02*
X28904000Y24878000D01*
X26954000Y14758000D02*
X30404000Y14758000D01*
X26954000Y24878000D02*
X25004000Y24878000D01*
D10*
%TO.C,D22*%
X55825000Y56450000D02*
G75*
G03*
X55825000Y56450000I-50000J0D01*
G01*
D16*
%TO.C,R10*%
X22822500Y89812742D02*
X22822500Y90287258D01*
X21777500Y89812742D02*
X21777500Y90287258D01*
%TO.C,RN8*%
X55400000Y33980000D02*
X54400000Y33980000D01*
X55400000Y30620000D02*
X54400000Y30620000D01*
%TO.C,C14*%
X22935000Y23634420D02*
X22935000Y23915580D01*
X21915000Y23634420D02*
X21915000Y23915580D01*
%TO.C,U4*%
X23218560Y53953560D02*
X21403560Y53953560D01*
X27078560Y54188560D02*
X30938560Y54188560D01*
X30938560Y41168560D02*
X30938560Y41403560D01*
X27078560Y41168560D02*
X23218560Y41168560D01*
X30938560Y54188560D02*
X30938560Y53953560D01*
X27078560Y41168560D02*
X30938560Y41168560D01*
X27078560Y54188560D02*
X23218560Y54188560D01*
X23218560Y54188560D02*
X23218560Y53953560D01*
X23218560Y41168560D02*
X23218560Y41403560D01*
%TO.C,R4*%
X33687742Y111927500D02*
X34162258Y111927500D01*
X33687742Y112972500D02*
X34162258Y112972500D01*
%TO.C,C7*%
X13340000Y83950000D02*
X13340000Y75890000D01*
X13340000Y75890000D02*
X17860000Y75890000D01*
X17860000Y75890000D02*
X17860000Y83950000D01*
%TO.C,D6*%
X39300000Y102700000D02*
X33900000Y102700000D01*
X39300000Y99400000D02*
X39300000Y102700000D01*
X39300000Y99400000D02*
X33900000Y99400000D01*
D11*
X34025000Y99675000D02*
G75*
G03*
X34025000Y99675000I-75000J0D01*
G01*
D10*
%TO.C,D10*%
X56050000Y22310000D02*
G75*
G03*
X56050000Y22310000I-50000J0D01*
G01*
%TO.C,D25*%
X55500000Y52350000D02*
G75*
G03*
X55500000Y52350000I-50000J0D01*
G01*
D16*
%TO.C,JP3*%
X8320000Y87255000D02*
X9650000Y87255000D01*
X8320000Y84655000D02*
X8320000Y79515000D01*
X8320000Y84655000D02*
X10980000Y84655000D01*
X8320000Y85925000D02*
X8320000Y87255000D01*
X10980000Y84655000D02*
X10980000Y79515000D01*
X8320000Y79515000D02*
X10980000Y79515000D01*
%TD*%
%LPC*%
D18*
%TO.C,JP7*%
X51150000Y36725000D03*
D19*
X51150000Y39265000D03*
X51150000Y41805000D03*
%TD*%
D20*
%TO.C,L1*%
X46100000Y100200000D03*
X46100000Y90300000D03*
%TD*%
D21*
%TO.C,D15*%
X55025000Y71285000D03*
X55025000Y70315000D03*
%TD*%
D22*
%TO.C,C8*%
X34075000Y91550000D03*
X32525000Y91550000D03*
%TD*%
D23*
%TO.C,D34*%
X56170000Y35140000D03*
X56170000Y36110000D03*
%TD*%
D24*
%TO.C,C1*%
X35675000Y21850000D03*
X37225000Y21850000D03*
%TD*%
D21*
%TO.C,D13*%
X55025000Y73785000D03*
X55025000Y72815000D03*
%TD*%
D25*
%TO.C,J12*%
X40871000Y22210000D03*
X40871000Y7210000D03*
D26*
X44811000Y19210000D03*
D27*
X44811000Y16210000D03*
X44811000Y13210000D03*
X44811000Y10210000D03*
X41811000Y19210000D03*
X41811000Y16210000D03*
X41811000Y13210000D03*
X41811000Y10210000D03*
%TD*%
D28*
%TO.C,RN1*%
X19875000Y61950000D03*
D29*
X19875000Y61150000D03*
X19875000Y60350000D03*
D28*
X19875000Y59550000D03*
X21675000Y59550000D03*
D29*
X21675000Y60350000D03*
X21675000Y61150000D03*
D28*
X21675000Y61950000D03*
%TD*%
D30*
%TO.C,R13*%
X21350000Y74325000D03*
X21350000Y72675000D03*
%TD*%
D23*
%TO.C,D24*%
X56175000Y52665000D03*
X56175000Y53635000D03*
%TD*%
D31*
%TO.C,R12*%
X38575000Y91500000D03*
X36925000Y91500000D03*
%TD*%
D32*
%TO.C,R6*%
X28675000Y112000000D03*
X30325000Y112000000D03*
%TD*%
D18*
%TO.C,JP4*%
X26125000Y112250000D03*
D19*
X23585000Y112250000D03*
%TD*%
D33*
%TO.C,J3*%
X60450000Y116050000D03*
D34*
X60450000Y110970000D03*
%TD*%
D35*
%TO.C,D3*%
X24100000Y109500000D03*
X22700000Y109500000D03*
%TD*%
D25*
%TO.C,J2*%
X33150000Y119940000D03*
X24150000Y119940000D03*
D36*
X27150000Y123880000D03*
D27*
X30150000Y123880000D03*
X27150000Y120880000D03*
X30150000Y120880000D03*
%TD*%
D21*
%TO.C,D8*%
X55700000Y18585000D03*
X55700000Y17615000D03*
%TD*%
D37*
%TO.C,RV1*%
X25250000Y69750000D03*
D38*
X26400000Y73750000D03*
D37*
X27550000Y69750000D03*
%TD*%
D39*
%TO.C,J14*%
X64090000Y94590000D03*
X64090000Y92050000D03*
D40*
X61550000Y92050000D03*
D41*
X61550000Y94590000D03*
%TD*%
D42*
%TO.C,R17*%
X30250000Y80075000D03*
X30250000Y81725000D03*
%TD*%
D43*
%TO.C,TH1*%
X24700000Y124500000D03*
%TD*%
D44*
%TO.C,U5*%
X22178560Y38722560D03*
X22178560Y37452560D03*
X22178560Y36182560D03*
X22178560Y34912560D03*
X22178560Y33642560D03*
X22178560Y32372560D03*
X22178560Y31102560D03*
X22178560Y29832560D03*
X22178560Y28562560D03*
X22178560Y27292560D03*
X31478560Y27292560D03*
X31478560Y28562560D03*
X31478560Y29832560D03*
X31478560Y31102560D03*
X31478560Y32372560D03*
X31478560Y33642560D03*
X31478560Y34912560D03*
X31478560Y36182560D03*
X31478560Y37452560D03*
X31478560Y38722560D03*
%TD*%
D21*
%TO.C,D29*%
X55050000Y43615000D03*
X55050000Y42645000D03*
%TD*%
D23*
%TO.C,D14*%
X56150000Y70315000D03*
X56150000Y71285000D03*
%TD*%
D45*
%TO.C,Q4*%
X26887500Y83000000D03*
X26887500Y84900000D03*
X25012500Y83950000D03*
%TD*%
D28*
%TO.C,RN6*%
X54000000Y63650000D03*
D29*
X54000000Y62850000D03*
X54000000Y62050000D03*
D28*
X54000000Y61250000D03*
X55800000Y61250000D03*
D29*
X55800000Y62050000D03*
X55800000Y62850000D03*
D28*
X55800000Y63650000D03*
%TD*%
D46*
%TO.C,U1*%
X19450000Y80902000D03*
D47*
X25750000Y78622000D03*
D46*
X19450000Y76342000D03*
%TD*%
D21*
%TO.C,D27*%
X55050000Y51147500D03*
X55050000Y50177500D03*
%TD*%
D31*
%TO.C,R7*%
X34750000Y109450000D03*
X33100000Y109450000D03*
%TD*%
D48*
%TO.C,D5*%
X24850000Y116100000D03*
X24850000Y114700000D03*
%TD*%
D21*
%TO.C,D11*%
X55600000Y26085000D03*
X55600000Y25115000D03*
%TD*%
D32*
%TO.C,R5*%
X33100000Y115450000D03*
X34750000Y115450000D03*
%TD*%
D21*
%TO.C,D21*%
X55050000Y58635000D03*
X55050000Y57665000D03*
%TD*%
D18*
%TO.C,JP1*%
X34619000Y29600000D03*
D19*
X34619000Y27060000D03*
X34619000Y24520000D03*
%TD*%
D49*
%TO.C,C12*%
X22900000Y72725000D03*
X22900000Y74275000D03*
%TD*%
D31*
%TO.C,R14*%
X11925000Y69150000D03*
X10275000Y69150000D03*
%TD*%
D18*
%TO.C,JP8*%
X45850000Y64675000D03*
D19*
X45850000Y67215000D03*
%TD*%
D50*
%TO.C,J16*%
X35400000Y9750000D03*
D51*
X32860000Y9750000D03*
X30320000Y9750000D03*
%TD*%
D40*
%TO.C,J9*%
X61550000Y50520000D03*
D41*
X61550000Y53060000D03*
X61550000Y55600000D03*
X61550000Y58140000D03*
%TD*%
D52*
%TO.C,Q2*%
X38635000Y112075000D03*
D53*
X41175000Y121225000D03*
D52*
X43715000Y112075000D03*
%TD*%
D32*
%TO.C,R8*%
X33100000Y110950000D03*
X34750000Y110950000D03*
%TD*%
D48*
%TO.C,D1*%
X37150000Y20100000D03*
X37150000Y18700000D03*
%TD*%
D39*
%TO.C,J13*%
X64090000Y101900000D03*
X64090000Y99360000D03*
D40*
X61550000Y99360000D03*
D41*
X61550000Y101900000D03*
%TD*%
D24*
%TO.C,C9*%
X36975000Y98500000D03*
X38525000Y98500000D03*
%TD*%
D21*
%TO.C,D35*%
X55050000Y36105000D03*
X55050000Y35135000D03*
%TD*%
%TO.C,D17*%
X55025000Y68785000D03*
X55025000Y67815000D03*
%TD*%
D40*
%TO.C,J11*%
X61550000Y35495000D03*
D41*
X61550000Y38035000D03*
X61550000Y40575000D03*
X61550000Y43115000D03*
%TD*%
D30*
%TO.C,R18*%
X31800000Y81725000D03*
X31800000Y80075000D03*
%TD*%
D18*
%TO.C,JP5*%
X51200000Y66975000D03*
D19*
X51200000Y69515000D03*
X51200000Y72055000D03*
%TD*%
D21*
%TO.C,D33*%
X55050000Y38610000D03*
X55050000Y37640000D03*
%TD*%
D54*
%TO.C,H4*%
X62500000Y8000000D03*
%TD*%
D55*
%TO.C,C4*%
X26750000Y101900000D03*
X26750000Y94500000D03*
%TD*%
D56*
%TO.C,LF1*%
X38750000Y69730000D03*
X38750000Y72270000D03*
X31250000Y72270000D03*
X31250000Y69730000D03*
%TD*%
D21*
%TO.C,D23*%
X55050000Y56135000D03*
X55050000Y55165000D03*
%TD*%
D40*
%TO.C,J6*%
X61550000Y65670000D03*
D41*
X61550000Y68210000D03*
X61550000Y70750000D03*
X61550000Y73290000D03*
%TD*%
D21*
%TO.C,D9*%
X55600000Y21060000D03*
X55600000Y20090000D03*
%TD*%
D23*
%TO.C,D12*%
X56150000Y72815000D03*
X56150000Y73785000D03*
%TD*%
D40*
%TO.C,J5*%
X61550000Y15400000D03*
D41*
X61550000Y17940000D03*
X61550000Y20480000D03*
X61550000Y23020000D03*
X61550000Y25560000D03*
X61550000Y28100000D03*
%TD*%
D28*
%TO.C,RN3*%
X32150000Y21000000D03*
D29*
X32150000Y20200000D03*
X32150000Y19400000D03*
D28*
X32150000Y18600000D03*
X33950000Y18600000D03*
D29*
X33950000Y19400000D03*
X33950000Y20200000D03*
D28*
X33950000Y21000000D03*
%TD*%
D57*
%TO.C,K1*%
X39500000Y84070000D03*
X54740000Y84050000D03*
X52200000Y76450000D03*
D58*
X39500000Y76450000D03*
%TD*%
D28*
%TO.C,RN2*%
X19900000Y21018000D03*
D29*
X19900000Y20218000D03*
X19900000Y19418000D03*
D28*
X19900000Y18618000D03*
X21700000Y18618000D03*
D29*
X21700000Y19418000D03*
X21700000Y20218000D03*
D28*
X21700000Y21018000D03*
%TD*%
D59*
%TO.C,C17*%
X33800000Y38700000D03*
X33800000Y37150000D03*
%TD*%
D24*
%TO.C,C2*%
X35600000Y17350000D03*
X37150000Y17350000D03*
%TD*%
D23*
%TO.C,D32*%
X56175000Y37640000D03*
X56175000Y38610000D03*
%TD*%
D25*
%TO.C,J10*%
X40871000Y26028000D03*
X40871000Y41028000D03*
D26*
X44811000Y38028000D03*
D27*
X44811000Y35028000D03*
X44811000Y32028000D03*
X44811000Y29028000D03*
X41811000Y38028000D03*
X41811000Y35028000D03*
X41811000Y32028000D03*
X41811000Y29028000D03*
%TD*%
D22*
%TO.C,C5*%
X20375000Y82950000D03*
X18825000Y82950000D03*
%TD*%
D41*
%TO.C,J1*%
X9650000Y96700000D03*
D60*
X9650000Y102000000D03*
D41*
X9650000Y112300000D03*
D60*
X9650000Y107000000D03*
D61*
X16800000Y101600000D03*
X13150000Y102000000D03*
X13150000Y107000000D03*
X16800000Y107400000D03*
X18150000Y112300000D03*
D62*
X7650000Y104500000D03*
D61*
X18150000Y96700000D03*
%TD*%
D23*
%TO.C,D18*%
X56150000Y65315000D03*
X56150000Y66285000D03*
%TD*%
%TO.C,D16*%
X56150000Y67815000D03*
X56150000Y68785000D03*
%TD*%
D30*
%TO.C,R16*%
X23125000Y85025000D03*
X23125000Y83375000D03*
%TD*%
D23*
%TO.C,D30*%
X56175000Y40125000D03*
X56175000Y41095000D03*
%TD*%
D63*
%TO.C,C11*%
X36250000Y87200000D03*
X30850000Y87200000D03*
%TD*%
D18*
%TO.C,JP6*%
X51150000Y51845000D03*
D19*
X51150000Y54385000D03*
X51150000Y56925000D03*
%TD*%
D18*
%TO.C,JP2*%
X9600000Y71850000D03*
D19*
X9600000Y74390000D03*
X9600000Y76930000D03*
%TD*%
D59*
%TO.C,C15*%
X22419000Y56830000D03*
X22419000Y55280000D03*
%TD*%
D48*
%TO.C,D4*%
X26400000Y116100000D03*
X26400000Y114700000D03*
%TD*%
D23*
%TO.C,D28*%
X56175000Y42645000D03*
X56175000Y43615000D03*
%TD*%
D31*
%TO.C,R9*%
X34750000Y113950000D03*
X33100000Y113950000D03*
%TD*%
D64*
%TO.C,Q5*%
X33562500Y82050000D03*
X33562500Y80150000D03*
X35437500Y81100000D03*
%TD*%
D25*
%TO.C,J7*%
X40871000Y59824000D03*
X40871000Y44824000D03*
D26*
X44811000Y56824000D03*
D27*
X44811000Y53824000D03*
X44811000Y50824000D03*
X44811000Y47824000D03*
X41811000Y56824000D03*
X41811000Y53824000D03*
X41811000Y50824000D03*
X41811000Y47824000D03*
%TD*%
D43*
%TO.C,TH3*%
X45000000Y8000000D03*
%TD*%
D65*
%TO.C,C10*%
X43100000Y87175000D03*
X46050000Y87175000D03*
%TD*%
D45*
%TO.C,Q3*%
X25937500Y89300000D03*
X25937500Y91200000D03*
X24062500Y90250000D03*
%TD*%
D22*
%TO.C,C6*%
X17175000Y75000000D03*
X15625000Y75000000D03*
%TD*%
D31*
%TO.C,R11*%
X29275000Y90200000D03*
X27625000Y90200000D03*
%TD*%
D42*
%TO.C,R2*%
X34050000Y52275000D03*
X34050000Y53925000D03*
%TD*%
D28*
%TO.C,RN4*%
X33950000Y59550000D03*
D29*
X33950000Y60350000D03*
X33950000Y61150000D03*
D28*
X33950000Y61950000D03*
X32150000Y61950000D03*
D29*
X32150000Y61150000D03*
X32150000Y60350000D03*
D28*
X32150000Y59550000D03*
%TD*%
D24*
%TO.C,C16*%
X31525000Y56100000D03*
X33075000Y56100000D03*
%TD*%
D28*
%TO.C,RN7*%
X54000000Y48525000D03*
D29*
X54000000Y47725000D03*
X54000000Y46925000D03*
D28*
X54000000Y46125000D03*
X55800000Y46125000D03*
D29*
X55800000Y46925000D03*
X55800000Y47725000D03*
D28*
X55800000Y48525000D03*
%TD*%
D24*
%TO.C,C13*%
X19575000Y67550000D03*
X21125000Y67550000D03*
%TD*%
D66*
%TO.C,U6*%
X29529000Y56100000D03*
X29529000Y57370000D03*
X29529000Y58640000D03*
X29529000Y59910000D03*
X29529000Y61180000D03*
X29529000Y62450000D03*
X29529000Y63720000D03*
X29529000Y64990000D03*
X24379000Y64990000D03*
X24379000Y63720000D03*
X24379000Y62450000D03*
X24379000Y61180000D03*
X24379000Y59910000D03*
X24379000Y58640000D03*
X24379000Y57370000D03*
X24379000Y56100000D03*
%TD*%
D32*
%TO.C,R3*%
X28700000Y110450000D03*
X30350000Y110450000D03*
%TD*%
D21*
%TO.C,D19*%
X55025000Y66285000D03*
X55025000Y65315000D03*
%TD*%
D67*
%TO.C,J4*%
X14130000Y16980000D03*
X14130000Y64080000D03*
D68*
X15550000Y57150000D03*
D69*
X15550000Y54380000D03*
X15550000Y51610000D03*
X15550000Y48840000D03*
X15550000Y46070000D03*
X15550000Y43300000D03*
X15550000Y40530000D03*
X15550000Y37760000D03*
X15550000Y34990000D03*
X15550000Y32220000D03*
X15550000Y29450000D03*
X15550000Y26680000D03*
X15550000Y23910000D03*
X12710000Y55765000D03*
X12710000Y52995000D03*
X12710000Y50225000D03*
X12710000Y47455000D03*
X12710000Y44685000D03*
X12710000Y41915000D03*
X12710000Y39145000D03*
X12710000Y36375000D03*
X12710000Y33605000D03*
X12710000Y30835000D03*
X12710000Y28065000D03*
X12710000Y25295000D03*
%TD*%
D70*
%TO.C,U2*%
X33075000Y96905000D03*
X33075000Y95635000D03*
X33075000Y94365000D03*
X33075000Y93095000D03*
X38025000Y93095000D03*
X38025000Y94365000D03*
X38025000Y95635000D03*
X38025000Y96905000D03*
%TD*%
D23*
%TO.C,D26*%
X56175000Y50177500D03*
X56175000Y51147500D03*
%TD*%
D48*
%TO.C,D2*%
X35675000Y18700000D03*
X35675000Y20100000D03*
%TD*%
D50*
%TO.C,J17*%
X25350000Y9750000D03*
D51*
X22810000Y9750000D03*
X20270000Y9750000D03*
%TD*%
D54*
%TO.C,H1*%
X8000000Y124000000D03*
%TD*%
D28*
%TO.C,RN5*%
X55950000Y11800000D03*
D29*
X55950000Y12600000D03*
X55950000Y13400000D03*
D28*
X55950000Y14200000D03*
X54150000Y14200000D03*
D29*
X54150000Y13400000D03*
X54150000Y12600000D03*
D28*
X54150000Y11800000D03*
%TD*%
D21*
%TO.C,D31*%
X55050000Y41095000D03*
X55050000Y40125000D03*
%TD*%
D40*
%TO.C,J8*%
X61525000Y78162836D03*
D41*
X61525000Y80702836D03*
X61525000Y83242836D03*
X61525000Y85782836D03*
%TD*%
D54*
%TO.C,H3*%
X8000000Y8000000D03*
%TD*%
D42*
%TO.C,R15*%
X21840000Y69025000D03*
X21840000Y70675000D03*
%TD*%
D71*
%TO.C,D7*%
X36650000Y78350000D03*
X34550000Y78350000D03*
%TD*%
D24*
%TO.C,C3*%
X33150000Y107950000D03*
X34700000Y107950000D03*
%TD*%
D70*
%TO.C,U3*%
X14355000Y73217000D03*
X14355000Y71947000D03*
X14355000Y70677000D03*
X14355000Y69407000D03*
X19305000Y69407000D03*
X19305000Y70677000D03*
X19305000Y71947000D03*
X19305000Y73217000D03*
%TD*%
D64*
%TO.C,Q1*%
X29012500Y115500000D03*
X29012500Y113600000D03*
X30887500Y114550000D03*
%TD*%
D23*
%TO.C,D20*%
X56175000Y57665000D03*
X56175000Y58635000D03*
%TD*%
D66*
%TO.C,U7*%
X29529000Y15373000D03*
X29529000Y16643000D03*
X29529000Y17913000D03*
X29529000Y19183000D03*
X29529000Y20453000D03*
X29529000Y21723000D03*
X29529000Y22993000D03*
X29529000Y24263000D03*
X24379000Y24263000D03*
X24379000Y22993000D03*
X24379000Y21723000D03*
X24379000Y20453000D03*
X24379000Y19183000D03*
X24379000Y17913000D03*
X24379000Y16643000D03*
X24379000Y15373000D03*
%TD*%
D23*
%TO.C,D22*%
X56175000Y55165000D03*
X56175000Y56135000D03*
%TD*%
D42*
%TO.C,R10*%
X22300000Y89225000D03*
X22300000Y90875000D03*
%TD*%
D28*
%TO.C,RN8*%
X54000000Y33500000D03*
D29*
X54000000Y32700000D03*
X54000000Y31900000D03*
D28*
X54000000Y31100000D03*
X55800000Y31100000D03*
D29*
X55800000Y31900000D03*
X55800000Y32700000D03*
D28*
X55800000Y33500000D03*
%TD*%
D49*
%TO.C,C14*%
X22425000Y23000000D03*
X22425000Y24550000D03*
%TD*%
D43*
%TO.C,TH2*%
X7500000Y64000000D03*
%TD*%
D54*
%TO.C,H2*%
X62500000Y124000000D03*
%TD*%
D44*
%TO.C,U4*%
X22428560Y53393560D03*
X22428560Y52123560D03*
X22428560Y50853560D03*
X22428560Y49583560D03*
X22428560Y48313560D03*
X22428560Y47043560D03*
X22428560Y45773560D03*
X22428560Y44503560D03*
X22428560Y43233560D03*
X22428560Y41963560D03*
X31728560Y41963560D03*
X31728560Y43233560D03*
X31728560Y44503560D03*
X31728560Y45773560D03*
X31728560Y47043560D03*
X31728560Y48313560D03*
X31728560Y49583560D03*
X31728560Y50853560D03*
X31728560Y52123560D03*
X31728560Y53393560D03*
%TD*%
D32*
%TO.C,R4*%
X33100000Y112450000D03*
X34750000Y112450000D03*
%TD*%
D72*
%TO.C,C7*%
X15600000Y77187500D03*
X15600000Y83412500D03*
%TD*%
D73*
%TO.C,D6*%
X37900000Y101050000D03*
X33900000Y101050000D03*
%TD*%
D21*
%TO.C,D10*%
X55600000Y23595000D03*
X55600000Y22625000D03*
%TD*%
%TO.C,D25*%
X55050000Y53635000D03*
X55050000Y52665000D03*
%TD*%
D18*
%TO.C,JP3*%
X9650000Y85925000D03*
D19*
X9650000Y83385000D03*
X9650000Y80845000D03*
%TD*%
M02*
