%TF.GenerationSoftware,KiCad,Pcbnew,(6.0.1-0)*%
%TF.CreationDate,2022-06-06T20:51:42+12:00*%
%TF.ProjectId,controller,636f6e74-726f-46c6-9c65-722e6b696361,2.0*%
%TF.SameCoordinates,PX324e6b0PYa469d80*%
%TF.FileFunction,Soldermask,Bot*%
%TF.FilePolarity,Negative*%
%FSLAX46Y46*%
G04 Gerber Fmt 4.6, Leading zero omitted, Abs format (unit mm)*
G04 Created by KiCad (PCBNEW (6.0.1-0)) date 2022-06-06 20:51:42*
%MOMM*%
%LPD*%
G01*
G04 APERTURE LIST*
G04 Aperture macros list*
%AMRoundRect*
0 Rectangle with rounded corners*
0 $1 Rounding radius*
0 $2 $3 $4 $5 $6 $7 $8 $9 X,Y pos of 4 corners*
0 Add a 4 corners polygon primitive as box body*
4,1,4,$2,$3,$4,$5,$6,$7,$8,$9,$2,$3,0*
0 Add four circle primitives for the rounded corners*
1,1,$1+$1,$2,$3*
1,1,$1+$1,$4,$5*
1,1,$1+$1,$6,$7*
1,1,$1+$1,$8,$9*
0 Add four rect primitives between the rounded corners*
20,1,$1+$1,$2,$3,$4,$5,0*
20,1,$1+$1,$4,$5,$6,$7,0*
20,1,$1+$1,$6,$7,$8,$9,0*
20,1,$1+$1,$8,$9,$2,$3,0*%
G04 Aperture macros list end*
%ADD10R,1.700000X1.700000*%
%ADD11O,1.700000X1.700000*%
%ADD12C,1.000000*%
%ADD13RoundRect,0.250001X-0.499999X0.499999X-0.499999X-0.499999X0.499999X-0.499999X0.499999X0.499999X0*%
%ADD14C,1.500000*%
%ADD15R,2.100000X2.100000*%
%ADD16C,2.100000*%
%ADD17RoundRect,0.250001X-0.499999X-0.499999X0.499999X-0.499999X0.499999X0.499999X-0.499999X0.499999X0*%
%ADD18C,1.100000*%
%ADD19R,2.200000X2.200000*%
%ADD20C,2.200000*%
%ADD21C,1.448000*%
%ADD22RoundRect,0.250000X0.620000X0.845000X-0.620000X0.845000X-0.620000X-0.845000X0.620000X-0.845000X0*%
%ADD23O,1.740000X2.190000*%
%ADD24C,5.500000*%
%ADD25C,2.300000*%
%ADD26R,2.300000X2.300000*%
%ADD27C,1.700000*%
%ADD28O,3.200000X1.600000*%
%ADD29O,1.750000X3.500000*%
%ADD30C,4.000000*%
%ADD31R,1.600000X1.600000*%
%ADD32C,1.600000*%
G04 APERTURE END LIST*
D10*
%TO.C,JP7*%
X51150000Y36725000D03*
D11*
X51150000Y39265000D03*
X51150000Y41805000D03*
%TD*%
D12*
%TO.C,J12*%
X40871000Y22210000D03*
X40871000Y7210000D03*
D13*
X44811000Y19210000D03*
D14*
X44811000Y16210000D03*
X44811000Y13210000D03*
X44811000Y10210000D03*
X41811000Y19210000D03*
X41811000Y16210000D03*
X41811000Y13210000D03*
X41811000Y10210000D03*
%TD*%
D10*
%TO.C,JP4*%
X26125000Y112250000D03*
D11*
X23585000Y112250000D03*
%TD*%
D15*
%TO.C,J3*%
X60450000Y116050000D03*
D16*
X60450000Y110970000D03*
%TD*%
D12*
%TO.C,J2*%
X33150000Y119940000D03*
X24150000Y119940000D03*
D17*
X27150000Y123880000D03*
D14*
X30150000Y123880000D03*
X27150000Y120880000D03*
X30150000Y120880000D03*
%TD*%
D18*
%TO.C,J14*%
X64090000Y94590000D03*
X64090000Y92050000D03*
D19*
X61550000Y92050000D03*
D20*
X61550000Y94590000D03*
%TD*%
D21*
%TO.C,TH1*%
X24700000Y124500000D03*
%TD*%
D10*
%TO.C,JP1*%
X34619000Y29600000D03*
D11*
X34619000Y27060000D03*
X34619000Y24520000D03*
%TD*%
D10*
%TO.C,JP8*%
X45850000Y64675000D03*
D11*
X45850000Y67215000D03*
%TD*%
D22*
%TO.C,J16*%
X35400000Y9750000D03*
D23*
X32860000Y9750000D03*
X30320000Y9750000D03*
%TD*%
D19*
%TO.C,J9*%
X61550000Y50520000D03*
D20*
X61550000Y53060000D03*
X61550000Y55600000D03*
X61550000Y58140000D03*
%TD*%
D18*
%TO.C,J13*%
X64090000Y101900000D03*
X64090000Y99360000D03*
D19*
X61550000Y99360000D03*
D20*
X61550000Y101900000D03*
%TD*%
D19*
%TO.C,J11*%
X61550000Y35495000D03*
D20*
X61550000Y38035000D03*
X61550000Y40575000D03*
X61550000Y43115000D03*
%TD*%
D10*
%TO.C,JP5*%
X51200000Y66975000D03*
D11*
X51200000Y69515000D03*
X51200000Y72055000D03*
%TD*%
D24*
%TO.C,H4*%
X62500000Y8000000D03*
%TD*%
D19*
%TO.C,J6*%
X61550000Y65670000D03*
D20*
X61550000Y68210000D03*
X61550000Y70750000D03*
X61550000Y73290000D03*
%TD*%
D19*
%TO.C,J5*%
X61550000Y15400000D03*
D20*
X61550000Y17940000D03*
X61550000Y20480000D03*
X61550000Y23020000D03*
X61550000Y25560000D03*
X61550000Y28100000D03*
%TD*%
D25*
%TO.C,K1*%
X39500000Y84070000D03*
X54740000Y84050000D03*
X52200000Y76450000D03*
D26*
X39500000Y76450000D03*
%TD*%
D12*
%TO.C,J10*%
X40871000Y26028000D03*
X40871000Y41028000D03*
D13*
X44811000Y38028000D03*
D14*
X44811000Y35028000D03*
X44811000Y32028000D03*
X44811000Y29028000D03*
X41811000Y38028000D03*
X41811000Y35028000D03*
X41811000Y32028000D03*
X41811000Y29028000D03*
%TD*%
D20*
%TO.C,J1*%
X9650000Y96700000D03*
D27*
X9650000Y102000000D03*
D20*
X9650000Y112300000D03*
D27*
X9650000Y107000000D03*
D28*
X16800000Y101600000D03*
X13150000Y102000000D03*
X13150000Y107000000D03*
X16800000Y107400000D03*
X18150000Y112300000D03*
D29*
X7650000Y104500000D03*
D28*
X18150000Y96700000D03*
%TD*%
D10*
%TO.C,JP6*%
X51150000Y51845000D03*
D11*
X51150000Y54385000D03*
X51150000Y56925000D03*
%TD*%
D10*
%TO.C,JP2*%
X9600000Y71850000D03*
D11*
X9600000Y74390000D03*
X9600000Y76930000D03*
%TD*%
D12*
%TO.C,J7*%
X40871000Y59824000D03*
X40871000Y44824000D03*
D13*
X44811000Y56824000D03*
D14*
X44811000Y53824000D03*
X44811000Y50824000D03*
X44811000Y47824000D03*
X41811000Y56824000D03*
X41811000Y53824000D03*
X41811000Y50824000D03*
X41811000Y47824000D03*
%TD*%
D21*
%TO.C,TH3*%
X45000000Y8000000D03*
%TD*%
D30*
%TO.C,J4*%
X14130000Y16980000D03*
X14130000Y64080000D03*
D31*
X15550000Y57150000D03*
D32*
X15550000Y54380000D03*
X15550000Y51610000D03*
X15550000Y48840000D03*
X15550000Y46070000D03*
X15550000Y43300000D03*
X15550000Y40530000D03*
X15550000Y37760000D03*
X15550000Y34990000D03*
X15550000Y32220000D03*
X15550000Y29450000D03*
X15550000Y26680000D03*
X15550000Y23910000D03*
X12710000Y55765000D03*
X12710000Y52995000D03*
X12710000Y50225000D03*
X12710000Y47455000D03*
X12710000Y44685000D03*
X12710000Y41915000D03*
X12710000Y39145000D03*
X12710000Y36375000D03*
X12710000Y33605000D03*
X12710000Y30835000D03*
X12710000Y28065000D03*
X12710000Y25295000D03*
%TD*%
D22*
%TO.C,J17*%
X25350000Y9750000D03*
D23*
X22810000Y9750000D03*
X20270000Y9750000D03*
%TD*%
D24*
%TO.C,H1*%
X8000000Y124000000D03*
%TD*%
D19*
%TO.C,J8*%
X61525000Y78162836D03*
D20*
X61525000Y80702836D03*
X61525000Y83242836D03*
X61525000Y85782836D03*
%TD*%
D24*
%TO.C,H3*%
X8000000Y8000000D03*
%TD*%
D21*
%TO.C,TH2*%
X7500000Y64000000D03*
%TD*%
D24*
%TO.C,H2*%
X62500000Y124000000D03*
%TD*%
D10*
%TO.C,JP3*%
X9650000Y85925000D03*
D11*
X9650000Y83385000D03*
X9650000Y80845000D03*
%TD*%
M02*
