%TF.GenerationSoftware,KiCad,Pcbnew,(6.0.1-0)*%
%TF.CreationDate,2022-06-06T20:39:39+12:00*%
%TF.ProjectId,controller,636f6e74-726f-46c6-9c65-722e6b696361,2.0*%
%TF.SameCoordinates,PX324e6b0PYa469d80*%
%TF.FileFunction,Other,Comment*%
%FSLAX46Y46*%
G04 Gerber Fmt 4.6, Leading zero omitted, Abs format (unit mm)*
G04 Created by KiCad (PCBNEW (6.0.1-0)) date 2022-06-06 20:39:39*
%MOMM*%
%LPD*%
G01*
G04 APERTURE LIST*
%ADD10C,0.150000*%
G04 APERTURE END LIST*
D10*
X40211927Y70862944D02*
X39976225Y70627241D01*
X40346614Y70256852D02*
X39639508Y70963959D01*
X39976225Y71300676D01*
X41255752Y71165989D02*
X40885362Y71536379D01*
X40784347Y71570050D01*
X40683332Y71536379D01*
X40548645Y71401692D01*
X40514973Y71300676D01*
X41222080Y71199661D02*
X41188408Y71098646D01*
X41020049Y70930287D01*
X40919034Y70896615D01*
X40818019Y70930287D01*
X40750675Y70997631D01*
X40717004Y71098646D01*
X40750675Y71199661D01*
X40919034Y71368020D01*
X40952706Y71469035D01*
X41592469Y71502707D02*
X41121065Y71974112D01*
X41255752Y71839425D02*
X41222080Y71940440D01*
X41222080Y72007783D01*
X41255752Y72108799D01*
X41323095Y72176142D01*
X42030202Y71940440D02*
X41558798Y72411844D01*
X41693485Y72277157D02*
X41659813Y72378173D01*
X41659813Y72445516D01*
X41693485Y72546531D01*
X41760828Y72613875D01*
X42770981Y72681218D02*
X42400591Y73051608D01*
X42299576Y73085279D01*
X42198561Y73051608D01*
X42063874Y72916921D01*
X42030202Y72815905D01*
X42737309Y72714890D02*
X42703637Y72613875D01*
X42535278Y72445516D01*
X42434263Y72411844D01*
X42333248Y72445516D01*
X42265904Y72512860D01*
X42232233Y72613875D01*
X42265904Y72714890D01*
X42434263Y72883249D01*
X42467935Y72984264D01*
X43410744Y73320982D02*
X42703637Y74028088D01*
X43377072Y73354653D02*
X43343400Y73253638D01*
X43208713Y73118951D01*
X43107698Y73085279D01*
X43040355Y73085279D01*
X42939339Y73118951D01*
X42737309Y73320982D01*
X42703637Y73421997D01*
X42703637Y73489340D01*
X42737309Y73590356D01*
X42871996Y73725043D01*
X42973011Y73758714D01*
X44050507Y73960745D02*
X43680118Y74331134D01*
X43579103Y74364806D01*
X43478087Y74331134D01*
X43343400Y74196447D01*
X43309729Y74095432D01*
X44016835Y73994417D02*
X43983164Y73893401D01*
X43814805Y73725043D01*
X43713790Y73691371D01*
X43612774Y73725043D01*
X43545431Y73792386D01*
X43511759Y73893401D01*
X43545431Y73994417D01*
X43713790Y74162775D01*
X43747461Y74263791D01*
X43848477Y74701523D02*
X44488240Y74398478D01*
X44185194Y75038241D02*
X44488240Y74398478D01*
X44589255Y74162775D01*
X44589255Y74095432D01*
X44555583Y73994417D01*
X45397377Y75374958D02*
X45498392Y75408630D01*
X45633079Y75543317D01*
X45666751Y75644332D01*
X45633079Y75745348D01*
X45599408Y75779019D01*
X45498392Y75812691D01*
X45397377Y75779019D01*
X45296362Y75678004D01*
X45195347Y75644332D01*
X45094331Y75678004D01*
X45060660Y75711676D01*
X45026988Y75812691D01*
X45060660Y75913706D01*
X45161675Y76014722D01*
X45262690Y76048393D01*
X46037140Y75947378D02*
X45330034Y76654485D01*
X46340186Y76250424D02*
X45969797Y76620813D01*
X45868782Y76654485D01*
X45767766Y76620813D01*
X45666751Y76519798D01*
X45633079Y76418783D01*
X45633079Y76351439D01*
X46676904Y76587141D02*
X46205499Y77058546D01*
X45969797Y77294248D02*
X45969797Y77226905D01*
X46037140Y77226905D01*
X46037140Y77294248D01*
X45969797Y77294248D01*
X46037140Y77226905D01*
X47249324Y77226905D02*
X47215652Y77125889D01*
X47080965Y76991202D01*
X46979950Y76957531D01*
X46878934Y76991202D01*
X46609560Y77260576D01*
X46575888Y77361592D01*
X46609560Y77462607D01*
X46744247Y77597294D01*
X46845263Y77630966D01*
X46946278Y77597294D01*
X47013621Y77529951D01*
X46744247Y77125889D01*
X47720728Y77630966D02*
X47619713Y77597294D01*
X47518698Y77630966D01*
X46912606Y78237057D01*
X48293148Y78203386D02*
X47586041Y78910492D01*
X48259476Y78237057D02*
X48225804Y78136042D01*
X48091117Y78001355D01*
X47990102Y77967683D01*
X47922759Y77967683D01*
X47821743Y78001355D01*
X47619713Y78203386D01*
X47586041Y78304401D01*
X47586041Y78371744D01*
X47619713Y78472760D01*
X47754400Y78607447D01*
X47855415Y78641118D01*
%TO.C,H4*%
X65250000Y8000000D02*
G75*
G03*
X65250000Y8000000I-2750000J0D01*
G01*
%TO.C,H1*%
X10750000Y124000000D02*
G75*
G03*
X10750000Y124000000I-2750000J0D01*
G01*
%TO.C,H3*%
X10750000Y8000000D02*
G75*
G03*
X10750000Y8000000I-2750000J0D01*
G01*
%TO.C,H2*%
X65250000Y124000000D02*
G75*
G03*
X65250000Y124000000I-2750000J0D01*
G01*
%TD*%
M02*
