%TF.GenerationSoftware,KiCad,Pcbnew,(6.0.1-0)*%
%TF.CreationDate,2022-06-06T20:51:42+12:00*%
%TF.ProjectId,controller,636f6e74-726f-46c6-9c65-722e6b696361,2.0*%
%TF.SameCoordinates,PX324e6b0PYa469d80*%
%TF.FileFunction,Legend,Bot*%
%TF.FilePolarity,Positive*%
%FSLAX46Y46*%
G04 Gerber Fmt 4.6, Leading zero omitted, Abs format (unit mm)*
G04 Created by KiCad (PCBNEW (6.0.1-0)) date 2022-06-06 20:51:42*
%MOMM*%
%LPD*%
G01*
G04 APERTURE LIST*
G04 Aperture macros list*
%AMRoundRect*
0 Rectangle with rounded corners*
0 $1 Rounding radius*
0 $2 $3 $4 $5 $6 $7 $8 $9 X,Y pos of 4 corners*
0 Add a 4 corners polygon primitive as box body*
4,1,4,$2,$3,$4,$5,$6,$7,$8,$9,$2,$3,0*
0 Add four circle primitives for the rounded corners*
1,1,$1+$1,$2,$3*
1,1,$1+$1,$4,$5*
1,1,$1+$1,$6,$7*
1,1,$1+$1,$8,$9*
0 Add four rect primitives between the rounded corners*
20,1,$1+$1,$2,$3,$4,$5,0*
20,1,$1+$1,$4,$5,$6,$7,0*
20,1,$1+$1,$6,$7,$8,$9,0*
20,1,$1+$1,$8,$9,$2,$3,0*%
G04 Aperture macros list end*
%ADD10C,0.100000*%
%ADD11C,0.200000*%
%ADD12C,0.150000*%
%ADD13C,0.130000*%
%ADD14C,0.125000*%
%ADD15C,0.140000*%
%ADD16C,0.300000*%
%ADD17C,0.120000*%
%ADD18C,0.110000*%
%ADD19R,1.700000X1.700000*%
%ADD20O,1.700000X1.700000*%
%ADD21C,1.000000*%
%ADD22RoundRect,0.250001X-0.499999X0.499999X-0.499999X-0.499999X0.499999X-0.499999X0.499999X0.499999X0*%
%ADD23C,1.500000*%
%ADD24R,2.100000X2.100000*%
%ADD25C,2.100000*%
%ADD26RoundRect,0.250001X-0.499999X-0.499999X0.499999X-0.499999X0.499999X0.499999X-0.499999X0.499999X0*%
%ADD27C,1.100000*%
%ADD28R,2.200000X2.200000*%
%ADD29C,2.200000*%
%ADD30C,1.448000*%
%ADD31RoundRect,0.250000X0.620000X0.845000X-0.620000X0.845000X-0.620000X-0.845000X0.620000X-0.845000X0*%
%ADD32O,1.740000X2.190000*%
%ADD33C,5.500000*%
%ADD34C,2.300000*%
%ADD35R,2.300000X2.300000*%
%ADD36C,1.700000*%
%ADD37O,3.200000X1.600000*%
%ADD38O,1.750000X3.500000*%
%ADD39C,4.000000*%
%ADD40R,1.600000X1.600000*%
%ADD41C,1.600000*%
G04 APERTURE END LIST*
D10*
X9800000Y47450000D02*
X9100000Y47450000D01*
X19516000Y40700000D02*
X19516000Y40350000D01*
X52950000Y69550000D02*
X52950000Y73350000D01*
D11*
X60100000Y94625000D02*
X59450000Y94625000D01*
D10*
X19985000Y26650000D02*
X20335000Y26450000D01*
X19526000Y57300000D02*
X19526000Y56950000D01*
X32158542Y123700000D02*
G75*
G03*
X32158542Y123700000I-333542J0D01*
G01*
X20685000Y32200000D02*
X19985000Y32200000D01*
X11800000Y34975500D02*
X11200000Y34975500D01*
X11800000Y41900500D02*
X12100000Y41899500D01*
X19866000Y34950000D02*
X19516000Y34800000D01*
X52950000Y73350000D02*
X56250000Y73350000D01*
X19166000Y40500000D02*
X19866000Y40500000D01*
X19876000Y54330000D02*
X19526000Y54530000D01*
X11800000Y30800500D02*
X12100000Y30799500D01*
X11800000Y25251000D02*
X12100000Y25250000D01*
X52325000Y54450000D02*
X52900000Y54450000D01*
X24600000Y120875000D02*
X24675000Y121100000D01*
X19516000Y35150000D02*
X19516000Y34800000D01*
D12*
X63500000Y83475000D02*
X63275000Y83375000D01*
X58650000Y80750000D02*
X58150000Y80750000D01*
D10*
X49550000Y73500000D02*
X50150000Y73500000D01*
X24600000Y120875000D02*
X24800000Y120975000D01*
X50150000Y50000000D02*
X49550000Y50000000D01*
X26050000Y123125000D02*
X25450000Y121950000D01*
X16600000Y106100000D02*
X16600000Y102850000D01*
X24750000Y121850000D02*
X24500000Y121850000D01*
X52950000Y58250000D02*
X56250000Y58250000D01*
X49550000Y58400000D02*
X50150000Y58400000D01*
X19516000Y51790000D02*
X19516000Y51440000D01*
X26025000Y122000000D02*
X24900000Y122000000D01*
X24750000Y121850000D02*
X24325000Y121375000D01*
X49550000Y34850000D02*
X49550000Y43250000D01*
D11*
X59365562Y92100000D02*
X59650000Y91975000D01*
D12*
X63881155Y85450000D02*
G75*
G03*
X63881155Y85450000I-206155J0D01*
G01*
D10*
X19166000Y51590000D02*
X19866000Y51590000D01*
X9500000Y53200000D02*
X9500000Y52850000D01*
X19985000Y29400000D02*
X20335000Y29200000D01*
X19866000Y43250000D02*
X19516000Y43100000D01*
X19516000Y37950000D02*
X19516000Y37600000D01*
X19176000Y48800000D02*
X19876000Y48800000D01*
X20335000Y29200000D02*
X20335000Y29550000D01*
X9500000Y55550000D02*
X9500000Y55900000D01*
X25025000Y121350000D02*
X24775000Y121350000D01*
X25450000Y123950000D02*
X25450000Y123125000D01*
X11800000Y39150500D02*
X12100000Y39149500D01*
X19985000Y32200000D02*
X20335000Y32350000D01*
X9850000Y53000000D02*
X9500000Y52850000D01*
X9150000Y53000000D02*
X9850000Y53000000D01*
X19876000Y48800000D02*
X19526000Y48650000D01*
X19526000Y54530000D02*
X19526000Y54180000D01*
X19876000Y48800000D02*
X19526000Y49000000D01*
X11800000Y44650500D02*
X12100000Y44649500D01*
X9100000Y47450000D02*
X9450000Y47250000D01*
X13000000Y104500000D02*
X11650000Y104500000D01*
X50150000Y34850000D02*
X49550000Y34850000D01*
X52950000Y39300000D02*
X52950000Y43100000D01*
X25450000Y121950000D02*
X25400000Y120900000D01*
X19876000Y57100000D02*
X19526000Y56950000D01*
X19985000Y23850000D02*
X20335000Y24000000D01*
X49550000Y43250000D02*
X50150000Y43250000D01*
X16600000Y104500000D02*
X17950000Y104500000D01*
D11*
X59365562Y92100000D02*
X59650000Y92225000D01*
D10*
X19166000Y37750000D02*
X19866000Y37750000D01*
X49550000Y50000000D02*
X49550000Y58400000D01*
X31450000Y123725000D02*
X31175000Y123725000D01*
X19866000Y51590000D02*
X19516000Y51790000D01*
X25400000Y120900000D02*
X26050000Y120900000D01*
X19526000Y49000000D02*
X19526000Y48650000D01*
D12*
X63468845Y85450000D02*
X63000000Y85450000D01*
D10*
X19866000Y37750000D02*
X19516000Y37600000D01*
X9100000Y50200000D02*
X9450000Y50000000D01*
D12*
X63500000Y83475000D02*
X63275000Y83600000D01*
D10*
X19866000Y46050000D02*
X19516000Y46250000D01*
X24850000Y123125000D02*
X25450000Y123125000D01*
X49550000Y65100000D02*
X49550000Y73500000D01*
X11800000Y36350500D02*
X12100000Y36349500D01*
X19866000Y40500000D02*
X19516000Y40700000D01*
X19166000Y46050000D02*
X19866000Y46050000D01*
X25450000Y123950000D02*
X26050000Y123950000D01*
X9100000Y50200000D02*
X9450000Y50350000D01*
X20335000Y32000000D02*
X20335000Y32350000D01*
X19176000Y54330000D02*
X19876000Y54330000D01*
X25025000Y121350000D02*
X24600000Y120875000D01*
D12*
X63725000Y85250000D02*
X64275000Y83400000D01*
D11*
X59150000Y94325000D02*
X59150000Y91875000D01*
D10*
X19866000Y37750000D02*
X19516000Y37950000D01*
X19866000Y51590000D02*
X19516000Y51440000D01*
D12*
X63500000Y83475000D02*
X62987310Y83475000D01*
D10*
X19866000Y43250000D02*
X19516000Y43450000D01*
X49550000Y54450000D02*
X49900000Y54450000D01*
X9450000Y50000000D02*
X9450000Y50350000D01*
X19985000Y32200000D02*
X20335000Y32000000D01*
X11800000Y28050500D02*
X12100000Y28049500D01*
X31491459Y121200000D02*
X31175000Y121200000D01*
X19866000Y34950000D02*
X19516000Y35150000D01*
X25450000Y121950000D02*
X24850000Y123125000D01*
X32158542Y121200000D02*
G75*
G03*
X32158542Y121200000I-333542J0D01*
G01*
X49550000Y39300000D02*
X49900000Y39300000D01*
X50150000Y65100000D02*
X49550000Y65100000D01*
X52950000Y54450000D02*
X52950000Y58250000D01*
X52950000Y43100000D02*
X56250000Y43100000D01*
X19176000Y57100000D02*
X19876000Y57100000D01*
X19516000Y43450000D02*
X19516000Y43100000D01*
X60450000Y118300000D02*
X60450000Y117400000D01*
X19866000Y40500000D02*
X19516000Y40350000D01*
X9150000Y55750000D02*
X9500000Y55900000D01*
X52325000Y69550000D02*
X52900000Y69550000D01*
X24325000Y121375000D02*
X24525000Y121475000D01*
X31950000Y121500000D02*
X32800000Y123900000D01*
X11800000Y44650500D02*
X11800000Y25251000D01*
X9850000Y53000000D02*
X9500000Y53200000D01*
X19985000Y29400000D02*
X20335000Y29550000D01*
X52325000Y39300000D02*
X52900000Y39300000D01*
X24500000Y121850000D02*
X24850000Y122250000D01*
X9800000Y50200000D02*
X9100000Y50200000D01*
D11*
X59450000Y94625000D02*
G75*
G03*
X59450000Y94625000I-300000J0D01*
G01*
D10*
X9150000Y55750000D02*
X9500000Y55550000D01*
X25450000Y123125000D02*
X26050000Y123125000D01*
X24775000Y121350000D02*
X25125000Y121750000D01*
X19876000Y57100000D02*
X19526000Y57300000D01*
X49550000Y69550000D02*
X49900000Y69550000D01*
X9450000Y47250000D02*
X9450000Y47600000D01*
X19516000Y46250000D02*
X19516000Y45900000D01*
X20685000Y29400000D02*
X19985000Y29400000D01*
X19985000Y23850000D02*
X20335000Y23650000D01*
X11800000Y33600500D02*
X12100000Y33599500D01*
X19166000Y34950000D02*
X19866000Y34950000D01*
X20685000Y26650000D02*
X19985000Y26650000D01*
X20685000Y23850000D02*
X19985000Y23850000D01*
X20335000Y26450000D02*
X20335000Y26800000D01*
X19985000Y26650000D02*
X20335000Y26800000D01*
X19876000Y54330000D02*
X19526000Y54180000D01*
X19166000Y43250000D02*
X19866000Y43250000D01*
X13000000Y103250000D02*
X13000000Y105750000D01*
D11*
X59365562Y92100000D02*
X60100000Y92100000D01*
D10*
X9850000Y55750000D02*
X9150000Y55750000D01*
X24325000Y121375000D02*
X24400000Y121600000D01*
X19866000Y46050000D02*
X19516000Y45900000D01*
X20335000Y23650000D02*
X20335000Y24000000D01*
X9100000Y47450000D02*
X9450000Y47600000D01*
D12*
X26704642Y56647620D02*
X27037976Y57123810D01*
X27276071Y56647620D02*
X27276071Y57647620D01*
X26895119Y57647620D01*
X26799880Y57600000D01*
X26752261Y57552381D01*
X26704642Y57457143D01*
X26704642Y57314286D01*
X26752261Y57219048D01*
X26799880Y57171429D01*
X26895119Y57123810D01*
X27276071Y57123810D01*
X25799880Y56647620D02*
X26276071Y56647620D01*
X26276071Y57647620D01*
X25276071Y57123810D02*
X25276071Y56647620D01*
X25609404Y57647620D02*
X25276071Y57123810D01*
X24942738Y57647620D01*
X24180833Y57314286D02*
X24180833Y56647620D01*
X24418928Y57695239D02*
X24657023Y56980953D01*
X24037976Y56980953D01*
X22942738Y57695239D02*
X23799880Y56409524D01*
X22037976Y56742858D02*
X22085595Y56695239D01*
X22228452Y56647620D01*
X22323690Y56647620D01*
X22466547Y56695239D01*
X22561785Y56790477D01*
X22609404Y56885715D01*
X22657023Y57076191D01*
X22657023Y57219048D01*
X22609404Y57409524D01*
X22561785Y57504762D01*
X22466547Y57600000D01*
X22323690Y57647620D01*
X22228452Y57647620D01*
X22085595Y57600000D01*
X22037976Y57552381D01*
X21609404Y56647620D02*
X21609404Y57647620D01*
X21228452Y57647620D01*
X21133214Y57600000D01*
X21085595Y57552381D01*
X21037976Y57457143D01*
X21037976Y57314286D01*
X21085595Y57219048D01*
X21133214Y57171429D01*
X21228452Y57123810D01*
X21609404Y57123810D01*
X18520566Y34497620D02*
X18330090Y34497620D01*
X18234852Y34545239D01*
X18187233Y34592858D01*
X18091995Y34735715D01*
X18044376Y34926191D01*
X18044376Y35307143D01*
X18091995Y35402381D01*
X18139614Y35450000D01*
X18234852Y35497620D01*
X18425328Y35497620D01*
X18520566Y35450000D01*
X18568185Y35402381D01*
X18615804Y35307143D01*
X18615804Y35069048D01*
X18568185Y34973810D01*
X18520566Y34926191D01*
X18425328Y34878572D01*
X18234852Y34878572D01*
X18139614Y34926191D01*
X18091995Y34973810D01*
X18044376Y35069048D01*
X58239404Y91797620D02*
X58239404Y92797620D01*
X57667976Y91797620D01*
X57667976Y92797620D01*
X56620357Y91892858D02*
X56667976Y91845239D01*
X56810833Y91797620D01*
X56906071Y91797620D01*
X57048928Y91845239D01*
X57144166Y91940477D01*
X57191785Y92035715D01*
X57239404Y92226191D01*
X57239404Y92369048D01*
X57191785Y92559524D01*
X57144166Y92654762D01*
X57048928Y92750000D01*
X56906071Y92797620D01*
X56810833Y92797620D01*
X56667976Y92750000D01*
X56620357Y92702381D01*
X59814404Y65821429D02*
X59481071Y65821429D01*
X59338214Y65297620D02*
X59814404Y65297620D01*
X59814404Y66297620D01*
X59338214Y66297620D01*
X58909642Y65297620D02*
X58909642Y66297620D01*
X58338214Y65297620D01*
X58338214Y66297620D01*
X10111904Y35500000D02*
X10207142Y35547620D01*
X10350000Y35547620D01*
X10492857Y35500000D01*
X10588095Y35404762D01*
X10635714Y35309524D01*
X10683333Y35119048D01*
X10683333Y34976191D01*
X10635714Y34785715D01*
X10588095Y34690477D01*
X10492857Y34595239D01*
X10350000Y34547620D01*
X10254761Y34547620D01*
X10111904Y34595239D01*
X10064285Y34642858D01*
X10064285Y34976191D01*
X10254761Y34976191D01*
X9635714Y34547620D02*
X9635714Y35547620D01*
X9064285Y34547620D01*
X9064285Y35547620D01*
X8588095Y34547620D02*
X8588095Y35547620D01*
X8350000Y35547620D01*
X8207142Y35500000D01*
X8111904Y35404762D01*
X8064285Y35309524D01*
X8016666Y35119048D01*
X8016666Y34976191D01*
X8064285Y34785715D01*
X8111904Y34690477D01*
X8207142Y34595239D01*
X8350000Y34547620D01*
X8588095Y34547620D01*
X40609642Y10747620D02*
X39942976Y10747620D01*
X40609642Y9747620D01*
X39942976Y9747620D01*
X25561785Y23397620D02*
X25561785Y24397620D01*
X25180833Y24397620D01*
X25085595Y24350000D01*
X25037976Y24302381D01*
X24990357Y24207143D01*
X24990357Y24064286D01*
X25037976Y23969048D01*
X25085595Y23921429D01*
X25180833Y23873810D01*
X25561785Y23873810D01*
X23990357Y23397620D02*
X24323690Y23873810D01*
X24561785Y23397620D02*
X24561785Y24397620D01*
X24180833Y24397620D01*
X24085595Y24350000D01*
X24037976Y24302381D01*
X23990357Y24207143D01*
X23990357Y24064286D01*
X24037976Y23969048D01*
X24085595Y23921429D01*
X24180833Y23873810D01*
X24561785Y23873810D01*
X23371309Y24397620D02*
X23180833Y24397620D01*
X23085595Y24350000D01*
X22990357Y24254762D01*
X22942738Y24064286D01*
X22942738Y23730953D01*
X22990357Y23540477D01*
X23085595Y23445239D01*
X23180833Y23397620D01*
X23371309Y23397620D01*
X23466547Y23445239D01*
X23561785Y23540477D01*
X23609404Y23730953D01*
X23609404Y24064286D01*
X23561785Y24254762D01*
X23466547Y24350000D01*
X23371309Y24397620D01*
X22180833Y23921429D02*
X22037976Y23873810D01*
X21990357Y23826191D01*
X21942738Y23730953D01*
X21942738Y23588096D01*
X21990357Y23492858D01*
X22037976Y23445239D01*
X22133214Y23397620D01*
X22514166Y23397620D01*
X22514166Y24397620D01*
X22180833Y24397620D01*
X22085595Y24350000D01*
X22037976Y24302381D01*
X21990357Y24207143D01*
X21990357Y24111905D01*
X22037976Y24016667D01*
X22085595Y23969048D01*
X22180833Y23921429D01*
X22514166Y23921429D01*
X21514166Y23921429D02*
X21180833Y23921429D01*
X21037976Y23397620D02*
X21514166Y23397620D01*
X21514166Y24397620D01*
X21037976Y24397620D01*
X36052380Y91164405D02*
X35052380Y91164405D01*
X36052380Y90735834D02*
X35528571Y90735834D01*
X35433333Y90783453D01*
X35385714Y90878691D01*
X35385714Y91021548D01*
X35433333Y91116786D01*
X35480952Y91164405D01*
X35385714Y90402500D02*
X35385714Y90021548D01*
X35052380Y90259643D02*
X35909523Y90259643D01*
X36004761Y90212024D01*
X36052380Y90116786D01*
X36052380Y90021548D01*
X35385714Y89831072D02*
X35385714Y89450120D01*
X35052380Y89688215D02*
X35909523Y89688215D01*
X36004761Y89640596D01*
X36052380Y89545358D01*
X36052380Y89450120D01*
X35385714Y89116786D02*
X36385714Y89116786D01*
X35433333Y89116786D02*
X35385714Y89021548D01*
X35385714Y88831072D01*
X35433333Y88735834D01*
X35480952Y88688215D01*
X35576190Y88640596D01*
X35861904Y88640596D01*
X35957142Y88688215D01*
X36004761Y88735834D01*
X36052380Y88831072D01*
X36052380Y89021548D01*
X36004761Y89116786D01*
X36004761Y88259643D02*
X36052380Y88164405D01*
X36052380Y87973929D01*
X36004761Y87878691D01*
X35909523Y87831072D01*
X35861904Y87831072D01*
X35766666Y87878691D01*
X35719047Y87973929D01*
X35719047Y88116786D01*
X35671428Y88212024D01*
X35576190Y88259643D01*
X35528571Y88259643D01*
X35433333Y88212024D01*
X35385714Y88116786D01*
X35385714Y87973929D01*
X35433333Y87878691D01*
X35957142Y87402500D02*
X36004761Y87354881D01*
X36052380Y87402500D01*
X36004761Y87450120D01*
X35957142Y87402500D01*
X36052380Y87402500D01*
X35433333Y87402500D02*
X35480952Y87354881D01*
X35528571Y87402500D01*
X35480952Y87450120D01*
X35433333Y87402500D01*
X35528571Y87402500D01*
X35004761Y86212024D02*
X36290476Y87069167D01*
X35004761Y85164405D02*
X36290476Y86021548D01*
X35385714Y84402500D02*
X36195238Y84402500D01*
X36290476Y84450120D01*
X36338095Y84497739D01*
X36385714Y84592977D01*
X36385714Y84735834D01*
X36338095Y84831072D01*
X36004761Y84402500D02*
X36052380Y84497739D01*
X36052380Y84688215D01*
X36004761Y84783453D01*
X35957142Y84831072D01*
X35861904Y84878691D01*
X35576190Y84878691D01*
X35480952Y84831072D01*
X35433333Y84783453D01*
X35385714Y84688215D01*
X35385714Y84497739D01*
X35433333Y84402500D01*
X36052380Y83926310D02*
X35385714Y83926310D01*
X35052380Y83926310D02*
X35100000Y83973929D01*
X35147619Y83926310D01*
X35100000Y83878691D01*
X35052380Y83926310D01*
X35147619Y83926310D01*
X35385714Y83592977D02*
X35385714Y83212024D01*
X35052380Y83450120D02*
X35909523Y83450120D01*
X36004761Y83402500D01*
X36052380Y83307262D01*
X36052380Y83212024D01*
X36052380Y82878691D02*
X35052380Y82878691D01*
X36052380Y82450120D02*
X35528571Y82450120D01*
X35433333Y82497739D01*
X35385714Y82592977D01*
X35385714Y82735834D01*
X35433333Y82831072D01*
X35480952Y82878691D01*
X35385714Y81545358D02*
X36052380Y81545358D01*
X35385714Y81973929D02*
X35909523Y81973929D01*
X36004761Y81926310D01*
X36052380Y81831072D01*
X36052380Y81688215D01*
X36004761Y81592977D01*
X35957142Y81545358D01*
X36052380Y81069167D02*
X35052380Y81069167D01*
X35433333Y81069167D02*
X35385714Y80973929D01*
X35385714Y80783453D01*
X35433333Y80688215D01*
X35480952Y80640596D01*
X35576190Y80592977D01*
X35861904Y80592977D01*
X35957142Y80640596D01*
X36004761Y80688215D01*
X36052380Y80783453D01*
X36052380Y80973929D01*
X36004761Y81069167D01*
X35957142Y80164405D02*
X36004761Y80116786D01*
X36052380Y80164405D01*
X36004761Y80212024D01*
X35957142Y80164405D01*
X36052380Y80164405D01*
X36004761Y79259643D02*
X36052380Y79354881D01*
X36052380Y79545358D01*
X36004761Y79640596D01*
X35957142Y79688215D01*
X35861904Y79735834D01*
X35576190Y79735834D01*
X35480952Y79688215D01*
X35433333Y79640596D01*
X35385714Y79545358D01*
X35385714Y79354881D01*
X35433333Y79259643D01*
X36052380Y78688215D02*
X36004761Y78783453D01*
X35957142Y78831072D01*
X35861904Y78878691D01*
X35576190Y78878691D01*
X35480952Y78831072D01*
X35433333Y78783453D01*
X35385714Y78688215D01*
X35385714Y78545358D01*
X35433333Y78450120D01*
X35480952Y78402500D01*
X35576190Y78354881D01*
X35861904Y78354881D01*
X35957142Y78402500D01*
X36004761Y78450120D01*
X36052380Y78545358D01*
X36052380Y78688215D01*
X36052380Y77926310D02*
X35385714Y77926310D01*
X35480952Y77926310D02*
X35433333Y77878691D01*
X35385714Y77783453D01*
X35385714Y77640596D01*
X35433333Y77545358D01*
X35528571Y77497739D01*
X36052380Y77497739D01*
X35528571Y77497739D02*
X35433333Y77450120D01*
X35385714Y77354881D01*
X35385714Y77212024D01*
X35433333Y77116786D01*
X35528571Y77069167D01*
X36052380Y77069167D01*
X35004761Y75878691D02*
X36290476Y76735834D01*
X35385714Y75116786D02*
X36195238Y75116786D01*
X36290476Y75164405D01*
X36338095Y75212024D01*
X36385714Y75307262D01*
X36385714Y75450120D01*
X36338095Y75545358D01*
X36004761Y75116786D02*
X36052380Y75212024D01*
X36052380Y75402501D01*
X36004761Y75497739D01*
X35957142Y75545358D01*
X35861904Y75592977D01*
X35576190Y75592977D01*
X35480952Y75545358D01*
X35433333Y75497739D01*
X35385714Y75402501D01*
X35385714Y75212024D01*
X35433333Y75116786D01*
X36052380Y74640596D02*
X35385714Y74640596D01*
X35576190Y74640596D02*
X35480952Y74592977D01*
X35433333Y74545358D01*
X35385714Y74450120D01*
X35385714Y74354881D01*
X35385714Y73592977D02*
X36052380Y73592977D01*
X35385714Y74021548D02*
X35909523Y74021548D01*
X36004761Y73973929D01*
X36052380Y73878691D01*
X36052380Y73735834D01*
X36004761Y73640596D01*
X35957142Y73592977D01*
X35385714Y73212024D02*
X36052380Y72973929D01*
X35385714Y72735834D01*
X36052380Y72354881D02*
X35385714Y72354881D01*
X35052380Y72354881D02*
X35100000Y72402501D01*
X35147619Y72354881D01*
X35100000Y72307262D01*
X35052380Y72354881D01*
X35147619Y72354881D01*
X35385714Y71878691D02*
X36052380Y71878691D01*
X35480952Y71878691D02*
X35433333Y71831072D01*
X35385714Y71735834D01*
X35385714Y71592977D01*
X35433333Y71497739D01*
X35528571Y71450120D01*
X36052380Y71450120D01*
X35004761Y70259643D02*
X36290476Y71116786D01*
X36004761Y69973929D02*
X36052380Y69878691D01*
X36052380Y69688215D01*
X36004761Y69592977D01*
X35909523Y69545358D01*
X35861904Y69545358D01*
X35766666Y69592977D01*
X35719047Y69688215D01*
X35719047Y69831072D01*
X35671428Y69926310D01*
X35576190Y69973929D01*
X35528571Y69973929D01*
X35433333Y69926310D01*
X35385714Y69831072D01*
X35385714Y69688215D01*
X35433333Y69592977D01*
X36052380Y69116786D02*
X35052380Y69116786D01*
X36052380Y68688215D02*
X35528571Y68688215D01*
X35433333Y68735834D01*
X35385714Y68831072D01*
X35385714Y68973929D01*
X35433333Y69069167D01*
X35480952Y69116786D01*
X36052380Y67783453D02*
X35528571Y67783453D01*
X35433333Y67831072D01*
X35385714Y67926310D01*
X35385714Y68116786D01*
X35433333Y68212024D01*
X36004761Y67783453D02*
X36052380Y67878691D01*
X36052380Y68116786D01*
X36004761Y68212024D01*
X35909523Y68259643D01*
X35814285Y68259643D01*
X35719047Y68212024D01*
X35671428Y68116786D01*
X35671428Y67878691D01*
X35623809Y67783453D01*
X35385714Y67307262D02*
X36385714Y67307262D01*
X35433333Y67307262D02*
X35385714Y67212024D01*
X35385714Y67021548D01*
X35433333Y66926310D01*
X35480952Y66878691D01*
X35576190Y66831072D01*
X35861904Y66831072D01*
X35957142Y66878691D01*
X36004761Y66926310D01*
X36052380Y67021548D01*
X36052380Y67212024D01*
X36004761Y67307262D01*
X36004761Y66021548D02*
X36052380Y66116786D01*
X36052380Y66307262D01*
X36004761Y66402500D01*
X35909523Y66450120D01*
X35528571Y66450120D01*
X35433333Y66402500D01*
X35385714Y66307262D01*
X35385714Y66116786D01*
X35433333Y66021548D01*
X35528571Y65973929D01*
X35623809Y65973929D01*
X35719047Y66450120D01*
X36052380Y65402500D02*
X36004761Y65497739D01*
X35957142Y65545358D01*
X35861904Y65592977D01*
X35576190Y65592977D01*
X35480952Y65545358D01*
X35433333Y65497739D01*
X35385714Y65402500D01*
X35385714Y65259643D01*
X35433333Y65164405D01*
X35480952Y65116786D01*
X35576190Y65069167D01*
X35861904Y65069167D01*
X35957142Y65116786D01*
X36004761Y65164405D01*
X36052380Y65259643D01*
X36052380Y65402500D01*
X36052380Y64640596D02*
X35052380Y64640596D01*
X35671428Y64545358D02*
X36052380Y64259643D01*
X35385714Y64259643D02*
X35766666Y64640596D01*
X36052380Y63688215D02*
X36004761Y63783453D01*
X35957142Y63831072D01*
X35861904Y63878691D01*
X35576190Y63878691D01*
X35480952Y63831072D01*
X35433333Y63783453D01*
X35385714Y63688215D01*
X35385714Y63545358D01*
X35433333Y63450120D01*
X35480952Y63402500D01*
X35576190Y63354881D01*
X35861904Y63354881D01*
X35957142Y63402500D01*
X36004761Y63450120D01*
X36052380Y63545358D01*
X36052380Y63688215D01*
X35671428Y62926310D02*
X35671428Y62164405D01*
X36052380Y61545358D02*
X36004761Y61640596D01*
X35909523Y61688215D01*
X35052380Y61688215D01*
X35385714Y61164405D02*
X36385714Y61164405D01*
X35433333Y61164405D02*
X35385714Y61069167D01*
X35385714Y60878691D01*
X35433333Y60783453D01*
X35480952Y60735834D01*
X35576190Y60688215D01*
X35861904Y60688215D01*
X35957142Y60735834D01*
X36004761Y60783453D01*
X36052380Y60878691D01*
X36052380Y61069167D01*
X36004761Y61164405D01*
X35385714Y60402500D02*
X35385714Y60021548D01*
X35052380Y60259643D02*
X35909523Y60259643D01*
X36004761Y60212024D01*
X36052380Y60116786D01*
X36052380Y60021548D01*
D13*
X40622642Y28778572D02*
X40622642Y29378572D01*
X40279785Y28778572D01*
X40279785Y29378572D01*
X39651214Y28835715D02*
X39679785Y28807143D01*
X39765500Y28778572D01*
X39822642Y28778572D01*
X39908357Y28807143D01*
X39965500Y28864286D01*
X39994071Y28921429D01*
X40022642Y29035715D01*
X40022642Y29121429D01*
X39994071Y29235715D01*
X39965500Y29292858D01*
X39908357Y29350000D01*
X39822642Y29378572D01*
X39765500Y29378572D01*
X39679785Y29350000D01*
X39651214Y29321429D01*
D14*
X27596998Y125089021D02*
X27930331Y125089021D01*
X27930331Y125789021D01*
X27363664Y125455687D02*
X27130331Y125455687D01*
X27030331Y125089021D02*
X27363664Y125089021D01*
X27363664Y125789021D01*
X27030331Y125789021D01*
X26730331Y125089021D02*
X26730331Y125789021D01*
X26563664Y125789021D01*
X26463664Y125755687D01*
X26396998Y125689021D01*
X26363664Y125622354D01*
X26330331Y125489021D01*
X26330331Y125389021D01*
X26363664Y125255687D01*
X26396998Y125189021D01*
X26463664Y125122354D01*
X26563664Y125089021D01*
X26730331Y125089021D01*
D12*
X40514404Y31928572D02*
X39752500Y31928572D01*
X40133452Y31547620D02*
X40133452Y32309524D01*
X38800119Y32547620D02*
X39276309Y32547620D01*
X39323928Y32071429D01*
X39276309Y32119048D01*
X39181071Y32166667D01*
X38942976Y32166667D01*
X38847738Y32119048D01*
X38800119Y32071429D01*
X38752500Y31976191D01*
X38752500Y31738096D01*
X38800119Y31642858D01*
X38847738Y31595239D01*
X38942976Y31547620D01*
X39181071Y31547620D01*
X39276309Y31595239D01*
X39323928Y31642858D01*
X38466785Y32547620D02*
X38133452Y31547620D01*
X37800119Y32547620D01*
X59814404Y50721429D02*
X59481071Y50721429D01*
X59338214Y50197620D02*
X59814404Y50197620D01*
X59814404Y51197620D01*
X59338214Y51197620D01*
X58909642Y50197620D02*
X58909642Y51197620D01*
X58338214Y50197620D01*
X58338214Y51197620D01*
X23657023Y37247620D02*
X23990357Y37723810D01*
X24228452Y37247620D02*
X24228452Y38247620D01*
X23847500Y38247620D01*
X23752261Y38200000D01*
X23704642Y38152381D01*
X23657023Y38057143D01*
X23657023Y37914286D01*
X23704642Y37819048D01*
X23752261Y37771429D01*
X23847500Y37723810D01*
X24228452Y37723810D01*
X22752261Y37247620D02*
X23228452Y37247620D01*
X23228452Y38247620D01*
X22228452Y37723810D02*
X22228452Y37247620D01*
X22561785Y38247620D02*
X22228452Y37723810D01*
X21895119Y38247620D01*
X21609404Y38152381D02*
X21561785Y38200000D01*
X21466547Y38247620D01*
X21228452Y38247620D01*
X21133214Y38200000D01*
X21085595Y38152381D01*
X21037976Y38057143D01*
X21037976Y37961905D01*
X21085595Y37819048D01*
X21657023Y37247620D01*
X21037976Y37247620D01*
X59612023Y77983334D02*
X59135833Y77983334D01*
X59707261Y77697620D02*
X59373928Y78697620D01*
X59040595Y77697620D01*
X58183452Y78650000D02*
X58278690Y78697620D01*
X58421547Y78697620D01*
X58564404Y78650000D01*
X58659642Y78554762D01*
X58707261Y78459524D01*
X58754880Y78269048D01*
X58754880Y78126191D01*
X58707261Y77935715D01*
X58659642Y77840477D01*
X58564404Y77745239D01*
X58421547Y77697620D01*
X58326309Y77697620D01*
X58183452Y77745239D01*
X58135833Y77792858D01*
X58135833Y78126191D01*
X58326309Y78126191D01*
X57707261Y77697620D02*
X57707261Y78697620D01*
X57135833Y77697620D01*
X57135833Y78697620D01*
X56659642Y77697620D02*
X56659642Y78697620D01*
X56421547Y78697620D01*
X56278690Y78650000D01*
X56183452Y78554762D01*
X56135833Y78459524D01*
X56088214Y78269048D01*
X56088214Y78126191D01*
X56135833Y77935715D01*
X56183452Y77840477D01*
X56278690Y77745239D01*
X56421547Y77697620D01*
X56659642Y77697620D01*
X59623928Y55648810D02*
X59623928Y55172620D01*
X59957261Y56172620D02*
X59623928Y55648810D01*
X59290595Y56172620D01*
X58385833Y55267858D02*
X58433452Y55220239D01*
X58576309Y55172620D01*
X58671547Y55172620D01*
X58814404Y55220239D01*
X58909642Y55315477D01*
X58957261Y55410715D01*
X59004880Y55601191D01*
X59004880Y55744048D01*
X58957261Y55934524D01*
X58909642Y56029762D01*
X58814404Y56125000D01*
X58671547Y56172620D01*
X58576309Y56172620D01*
X58433452Y56125000D01*
X58385833Y56077381D01*
X57481071Y55172620D02*
X57957261Y55172620D01*
X57957261Y56172620D01*
X57147738Y55172620D02*
X57147738Y56172620D01*
X56576309Y55172620D02*
X57004880Y55744048D01*
X56576309Y56172620D02*
X57147738Y55601191D01*
D15*
X50611904Y59117191D02*
X50611904Y59498143D01*
X50992857Y59536239D01*
X50954761Y59498143D01*
X50916666Y59421953D01*
X50916666Y59231477D01*
X50954761Y59155286D01*
X50992857Y59117191D01*
X51069047Y59079096D01*
X51259523Y59079096D01*
X51335714Y59117191D01*
X51373809Y59155286D01*
X51411904Y59231477D01*
X51411904Y59421953D01*
X51373809Y59498143D01*
X51335714Y59536239D01*
X50611904Y58850524D02*
X51411904Y58583858D01*
X50611904Y58317191D01*
X50611904Y35166143D02*
X50611904Y35089953D01*
X50650000Y35013762D01*
X50688095Y34975667D01*
X50764285Y34937572D01*
X50916666Y34899477D01*
X51107142Y34899477D01*
X51259523Y34937572D01*
X51335714Y34975667D01*
X51373809Y35013762D01*
X51411904Y35089953D01*
X51411904Y35166143D01*
X51373809Y35242334D01*
X51335714Y35280429D01*
X51259523Y35318524D01*
X51107142Y35356620D01*
X50916666Y35356620D01*
X50764285Y35318524D01*
X50688095Y35280429D01*
X50650000Y35242334D01*
X50611904Y35166143D01*
X50611904Y34670905D02*
X51411904Y34404239D01*
X50611904Y34137572D01*
D12*
X18044376Y56647620D02*
X18615804Y56647620D01*
X18330090Y56647620D02*
X18330090Y57647620D01*
X18425328Y57504762D01*
X18520566Y57409524D01*
X18615804Y57361905D01*
X18980357Y28997620D02*
X19551785Y28997620D01*
X19266071Y28997620D02*
X19266071Y29997620D01*
X19361309Y29854762D01*
X19456547Y29759524D01*
X19551785Y29711905D01*
X18027976Y28997620D02*
X18599404Y28997620D01*
X18313690Y28997620D02*
X18313690Y29997620D01*
X18408928Y29854762D01*
X18504166Y29759524D01*
X18599404Y29711905D01*
D15*
X49135714Y71473810D02*
X49173809Y71511905D01*
X49211904Y71626191D01*
X49211904Y71702381D01*
X49173809Y71816667D01*
X49097619Y71892858D01*
X49021428Y71930953D01*
X48869047Y71969048D01*
X48754761Y71969048D01*
X48602380Y71930953D01*
X48526190Y71892858D01*
X48450000Y71816667D01*
X48411904Y71702381D01*
X48411904Y71626191D01*
X48450000Y71511905D01*
X48488095Y71473810D01*
X48411904Y70978572D02*
X48411904Y70826191D01*
X48450000Y70750000D01*
X48526190Y70673810D01*
X48678571Y70635715D01*
X48945238Y70635715D01*
X49097619Y70673810D01*
X49173809Y70750000D01*
X49211904Y70826191D01*
X49211904Y70978572D01*
X49173809Y71054762D01*
X49097619Y71130953D01*
X48945238Y71169048D01*
X48678571Y71169048D01*
X48526190Y71130953D01*
X48450000Y71054762D01*
X48411904Y70978572D01*
X49211904Y70292858D02*
X48411904Y70292858D01*
X48983333Y70026191D01*
X48411904Y69759524D01*
X49211904Y69759524D01*
X49211904Y69378572D02*
X48411904Y69378572D01*
X48983333Y69111905D01*
X48411904Y68845239D01*
X49211904Y68845239D01*
X48411904Y68311905D02*
X48411904Y68159524D01*
X48450000Y68083334D01*
X48526190Y68007143D01*
X48678571Y67969048D01*
X48945238Y67969048D01*
X49097619Y68007143D01*
X49173809Y68083334D01*
X49211904Y68159524D01*
X49211904Y68311905D01*
X49173809Y68388096D01*
X49097619Y68464286D01*
X48945238Y68502381D01*
X48678571Y68502381D01*
X48526190Y68464286D01*
X48450000Y68388096D01*
X48411904Y68311905D01*
X49211904Y67626191D02*
X48411904Y67626191D01*
X49211904Y67169048D01*
X48411904Y67169048D01*
D12*
X59909642Y71347620D02*
X59242976Y70347620D01*
X59242976Y71347620D02*
X59909642Y70347620D01*
X58290595Y70442858D02*
X58338214Y70395239D01*
X58481071Y70347620D01*
X58576309Y70347620D01*
X58719166Y70395239D01*
X58814404Y70490477D01*
X58862023Y70585715D01*
X58909642Y70776191D01*
X58909642Y70919048D01*
X58862023Y71109524D01*
X58814404Y71204762D01*
X58719166Y71300000D01*
X58576309Y71347620D01*
X58481071Y71347620D01*
X58338214Y71300000D01*
X58290595Y71252381D01*
X57385833Y70347620D02*
X57862023Y70347620D01*
X57862023Y71347620D01*
X57147738Y71347620D02*
X56481071Y70347620D01*
X56481071Y71347620D02*
X57147738Y70347620D01*
D13*
X40622642Y37778572D02*
X40622642Y38378572D01*
X40279785Y37778572D01*
X40279785Y38378572D01*
X39651214Y37835715D02*
X39679785Y37807143D01*
X39765500Y37778572D01*
X39822642Y37778572D01*
X39908357Y37807143D01*
X39965500Y37864286D01*
X39994071Y37921429D01*
X40022642Y38035715D01*
X40022642Y38121429D01*
X39994071Y38235715D01*
X39965500Y38292858D01*
X39908357Y38350000D01*
X39822642Y38378572D01*
X39765500Y38378572D01*
X39679785Y38350000D01*
X39651214Y38321429D01*
D12*
X24085595Y48823810D02*
X24085595Y48347620D01*
X24418928Y49347620D02*
X24085595Y48823810D01*
X23752261Y49347620D01*
X22847500Y48442858D02*
X22895119Y48395239D01*
X23037976Y48347620D01*
X23133214Y48347620D01*
X23276071Y48395239D01*
X23371309Y48490477D01*
X23418928Y48585715D01*
X23466547Y48776191D01*
X23466547Y48919048D01*
X23418928Y49109524D01*
X23371309Y49204762D01*
X23276071Y49300000D01*
X23133214Y49347620D01*
X23037976Y49347620D01*
X22895119Y49300000D01*
X22847500Y49252381D01*
X21942738Y48347620D02*
X22418928Y48347620D01*
X22418928Y49347620D01*
X21609404Y48347620D02*
X21609404Y49347620D01*
X21037976Y48347620D02*
X21466547Y48919048D01*
X21037976Y49347620D02*
X21609404Y48776191D01*
X18990357Y23427620D02*
X19561785Y23427620D01*
X19276071Y23427620D02*
X19276071Y24427620D01*
X19371309Y24284762D01*
X19466547Y24189524D01*
X19561785Y24141905D01*
X18657023Y24427620D02*
X18037976Y24427620D01*
X18371309Y24046667D01*
X18228452Y24046667D01*
X18133214Y23999048D01*
X18085595Y23951429D01*
X18037976Y23856191D01*
X18037976Y23618096D01*
X18085595Y23522858D01*
X18133214Y23475239D01*
X18228452Y23427620D01*
X18514166Y23427620D01*
X18609404Y23475239D01*
X18657023Y23522858D01*
D13*
X40622642Y18978572D02*
X40622642Y19578572D01*
X40279785Y18978572D01*
X40279785Y19578572D01*
X39651214Y19035715D02*
X39679785Y19007143D01*
X39765500Y18978572D01*
X39822642Y18978572D01*
X39908357Y19007143D01*
X39965500Y19064286D01*
X39994071Y19121429D01*
X40022642Y19235715D01*
X40022642Y19321429D01*
X39994071Y19435715D01*
X39965500Y19492858D01*
X39908357Y19550000D01*
X39822642Y19578572D01*
X39765500Y19578572D01*
X39679785Y19550000D01*
X39651214Y19521429D01*
D12*
X18663423Y52117620D02*
X18044376Y52117620D01*
X18377709Y51736667D01*
X18234852Y51736667D01*
X18139614Y51689048D01*
X18091995Y51641429D01*
X18044376Y51546191D01*
X18044376Y51308096D01*
X18091995Y51212858D01*
X18139614Y51165239D01*
X18234852Y51117620D01*
X18520566Y51117620D01*
X18615804Y51165239D01*
X18663423Y51212858D01*
D14*
X27680331Y119750000D02*
X27746998Y119783334D01*
X27846998Y119783334D01*
X27946998Y119750000D01*
X28013664Y119683334D01*
X28046998Y119616667D01*
X28080331Y119483334D01*
X28080331Y119383334D01*
X28046998Y119250000D01*
X28013664Y119183334D01*
X27946998Y119116667D01*
X27846998Y119083334D01*
X27780331Y119083334D01*
X27680331Y119116667D01*
X27646998Y119150000D01*
X27646998Y119383334D01*
X27780331Y119383334D01*
X27346998Y119083334D02*
X27346998Y119783334D01*
X26946998Y119083334D01*
X26946998Y119783334D01*
X26613664Y119083334D02*
X26613664Y119783334D01*
X26446998Y119783334D01*
X26346998Y119750000D01*
X26280331Y119683334D01*
X26246998Y119616667D01*
X26213664Y119483334D01*
X26213664Y119383334D01*
X26246998Y119250000D01*
X26280331Y119183334D01*
X26346998Y119116667D01*
X26446998Y119083334D01*
X26613664Y119083334D01*
D12*
X59242976Y42692858D02*
X59290595Y42645239D01*
X59433452Y42597620D01*
X59528690Y42597620D01*
X59671547Y42645239D01*
X59766785Y42740477D01*
X59814404Y42835715D01*
X59862023Y43026191D01*
X59862023Y43169048D01*
X59814404Y43359524D01*
X59766785Y43454762D01*
X59671547Y43550000D01*
X59528690Y43597620D01*
X59433452Y43597620D01*
X59290595Y43550000D01*
X59242976Y43502381D01*
X58623928Y43597620D02*
X58433452Y43597620D01*
X58338214Y43550000D01*
X58242976Y43454762D01*
X58195357Y43264286D01*
X58195357Y42930953D01*
X58242976Y42740477D01*
X58338214Y42645239D01*
X58433452Y42597620D01*
X58623928Y42597620D01*
X58719166Y42645239D01*
X58814404Y42740477D01*
X58862023Y42930953D01*
X58862023Y43264286D01*
X58814404Y43454762D01*
X58719166Y43550000D01*
X58623928Y43597620D01*
X57766785Y42597620D02*
X57766785Y43597620D01*
X57433452Y42883334D01*
X57100119Y43597620D01*
X57100119Y42597620D01*
X24323690Y32747620D02*
X23657023Y31747620D01*
X23657023Y32747620D02*
X24323690Y31747620D01*
X23276071Y31747620D02*
X23276071Y32747620D01*
X22942738Y32033334D01*
X22609404Y32747620D01*
X22609404Y31747620D01*
X22133214Y31747620D02*
X22133214Y32747620D01*
X21657023Y31747620D02*
X21657023Y32747620D01*
X21085595Y31747620D01*
X21085595Y32747620D01*
X18100995Y46607620D02*
X18577185Y46607620D01*
X18624804Y46131429D01*
X18577185Y46179048D01*
X18481947Y46226667D01*
X18243852Y46226667D01*
X18148614Y46179048D01*
X18100995Y46131429D01*
X18053376Y46036191D01*
X18053376Y45798096D01*
X18100995Y45702858D01*
X18148614Y45655239D01*
X18243852Y45607620D01*
X18481947Y45607620D01*
X18577185Y45655239D01*
X18624804Y45702858D01*
X11156595Y55278620D02*
X11728023Y55278620D01*
X11442309Y55278620D02*
X11442309Y56278620D01*
X11537547Y56135762D01*
X11632785Y56040524D01*
X11728023Y55992905D01*
X10299452Y55945286D02*
X10299452Y55278620D01*
X10537547Y56326239D02*
X10775642Y55611953D01*
X10156595Y55611953D01*
X40514404Y13128572D02*
X39752500Y13128572D01*
X40133452Y12747620D02*
X40133452Y13509524D01*
X38800119Y13747620D02*
X39276309Y13747620D01*
X39323928Y13271429D01*
X39276309Y13319048D01*
X39181071Y13366667D01*
X38942976Y13366667D01*
X38847738Y13319048D01*
X38800119Y13271429D01*
X38752500Y13176191D01*
X38752500Y12938096D01*
X38800119Y12842858D01*
X38847738Y12795239D01*
X38942976Y12747620D01*
X39181071Y12747620D01*
X39276309Y12795239D01*
X39323928Y12842858D01*
X38466785Y13747620D02*
X38133452Y12747620D01*
X37800119Y13747620D01*
X11400000Y103766786D02*
X11447619Y103671548D01*
X11447619Y103528691D01*
X11400000Y103385834D01*
X11304761Y103290596D01*
X11209523Y103242977D01*
X11019047Y103195358D01*
X10876190Y103195358D01*
X10685714Y103242977D01*
X10590476Y103290596D01*
X10495238Y103385834D01*
X10447619Y103528691D01*
X10447619Y103623929D01*
X10495238Y103766786D01*
X10542857Y103814405D01*
X10876190Y103814405D01*
X10876190Y103623929D01*
X10447619Y104242977D02*
X11447619Y104242977D01*
X10447619Y104814405D01*
X11447619Y104814405D01*
X10447619Y105290596D02*
X11447619Y105290596D01*
X11447619Y105528691D01*
X11400000Y105671548D01*
X11304761Y105766786D01*
X11209523Y105814405D01*
X11019047Y105862024D01*
X10876190Y105862024D01*
X10685714Y105814405D01*
X10590476Y105766786D01*
X10495238Y105671548D01*
X10447619Y105528691D01*
X10447619Y105290596D01*
X23752261Y46073810D02*
X23752261Y45597620D01*
X24085595Y46597620D02*
X23752261Y46073810D01*
X23418928Y46597620D01*
X23085595Y45597620D02*
X23085595Y46597620D01*
X22847500Y46597620D01*
X22704642Y46550000D01*
X22609404Y46454762D01*
X22561785Y46359524D01*
X22514166Y46169048D01*
X22514166Y46026191D01*
X22561785Y45835715D01*
X22609404Y45740477D01*
X22704642Y45645239D01*
X22847500Y45597620D01*
X23085595Y45597620D01*
X22085595Y45597620D02*
X22085595Y46597620D01*
X21037976Y45597620D02*
X21371309Y46073810D01*
X21609404Y45597620D02*
X21609404Y46597620D01*
X21228452Y46597620D01*
X21133214Y46550000D01*
X21085595Y46502381D01*
X21037976Y46407143D01*
X21037976Y46264286D01*
X21085595Y46169048D01*
X21133214Y46121429D01*
X21228452Y46073810D01*
X21609404Y46073810D01*
X24133214Y52147620D02*
X23466547Y51147620D01*
X23466547Y52147620D02*
X24133214Y51147620D01*
X23085595Y51147620D02*
X23085595Y52147620D01*
X22847500Y52147620D01*
X22704642Y52100000D01*
X22609404Y52004762D01*
X22561785Y51909524D01*
X22514166Y51719048D01*
X22514166Y51576191D01*
X22561785Y51385715D01*
X22609404Y51290477D01*
X22704642Y51195239D01*
X22847500Y51147620D01*
X23085595Y51147620D01*
X22085595Y51147620D02*
X22085595Y52147620D01*
X21037976Y51147620D02*
X21371309Y51623810D01*
X21609404Y51147620D02*
X21609404Y52147620D01*
X21228452Y52147620D01*
X21133214Y52100000D01*
X21085595Y52052381D01*
X21037976Y51957143D01*
X21037976Y51814286D01*
X21085595Y51719048D01*
X21133214Y51671429D01*
X21228452Y51623810D01*
X21609404Y51623810D01*
X59373928Y81297620D02*
X59278690Y81297620D01*
X59183452Y81250000D01*
X59135833Y81202381D01*
X59088214Y81107143D01*
X59040595Y80916667D01*
X59040595Y80678572D01*
X59088214Y80488096D01*
X59135833Y80392858D01*
X59183452Y80345239D01*
X59278690Y80297620D01*
X59373928Y80297620D01*
X59469166Y80345239D01*
X59516785Y80392858D01*
X59564404Y80488096D01*
X59612023Y80678572D01*
X59612023Y80916667D01*
X59564404Y81107143D01*
X59516785Y81202381D01*
X59469166Y81250000D01*
X59373928Y81297620D01*
X57326309Y80297620D02*
X57897738Y80297620D01*
X57612023Y80297620D02*
X57612023Y81297620D01*
X57707261Y81154762D01*
X57802500Y81059524D01*
X57897738Y81011905D01*
X56707261Y81297620D02*
X56612023Y81297620D01*
X56516785Y81250000D01*
X56469166Y81202381D01*
X56421547Y81107143D01*
X56373928Y80916667D01*
X56373928Y80678572D01*
X56421547Y80488096D01*
X56469166Y80392858D01*
X56516785Y80345239D01*
X56612023Y80297620D01*
X56707261Y80297620D01*
X56802500Y80345239D01*
X56850119Y80392858D01*
X56897738Y80488096D01*
X56945357Y80678572D01*
X56945357Y80916667D01*
X56897738Y81107143D01*
X56850119Y81202381D01*
X56802500Y81250000D01*
X56707261Y81297620D01*
D15*
X50611904Y50316143D02*
X50611904Y50239953D01*
X50650000Y50163762D01*
X50688095Y50125667D01*
X50764285Y50087572D01*
X50916666Y50049477D01*
X51107142Y50049477D01*
X51259523Y50087572D01*
X51335714Y50125667D01*
X51373809Y50163762D01*
X51411904Y50239953D01*
X51411904Y50316143D01*
X51373809Y50392334D01*
X51335714Y50430429D01*
X51259523Y50468524D01*
X51107142Y50506620D01*
X50916666Y50506620D01*
X50764285Y50468524D01*
X50688095Y50430429D01*
X50650000Y50392334D01*
X50611904Y50316143D01*
X50611904Y49820905D02*
X51411904Y49554239D01*
X50611904Y49287572D01*
D12*
X24984780Y13783215D02*
X24937160Y13878453D01*
X24937160Y14021310D01*
X24984780Y14164167D01*
X25080018Y14259405D01*
X25175256Y14307024D01*
X25365732Y14354643D01*
X25508589Y14354643D01*
X25699065Y14307024D01*
X25794303Y14259405D01*
X25889541Y14164167D01*
X25937160Y14021310D01*
X25937160Y13926072D01*
X25889541Y13783215D01*
X25841922Y13735596D01*
X25508589Y13735596D01*
X25508589Y13926072D01*
X25937160Y13307024D02*
X24937160Y13307024D01*
X25937160Y12735596D01*
X24937160Y12735596D01*
X25937160Y12259405D02*
X24937160Y12259405D01*
X24937160Y12021310D01*
X24984780Y11878453D01*
X25080018Y11783215D01*
X25175256Y11735596D01*
X25365732Y11687977D01*
X25508589Y11687977D01*
X25699065Y11735596D01*
X25794303Y11783215D01*
X25889541Y11878453D01*
X25937160Y12021310D01*
X25937160Y12259405D01*
X59864404Y15328572D02*
X59102500Y15328572D01*
X59483452Y14947620D02*
X59483452Y15709524D01*
X58150119Y15947620D02*
X58626309Y15947620D01*
X58673928Y15471429D01*
X58626309Y15519048D01*
X58531071Y15566667D01*
X58292976Y15566667D01*
X58197738Y15519048D01*
X58150119Y15471429D01*
X58102500Y15376191D01*
X58102500Y15138096D01*
X58150119Y15042858D01*
X58197738Y14995239D01*
X58292976Y14947620D01*
X58531071Y14947620D01*
X58626309Y14995239D01*
X58673928Y15042858D01*
X57816785Y15947620D02*
X57483452Y14947620D01*
X57150119Y15947620D01*
D13*
X46920214Y15928572D02*
X46920214Y16528572D01*
X46577357Y15928572D01*
X46577357Y16528572D01*
X45948785Y15985715D02*
X45977357Y15957143D01*
X46063071Y15928572D01*
X46120214Y15928572D01*
X46205928Y15957143D01*
X46263071Y16014286D01*
X46291642Y16071429D01*
X46320214Y16185715D01*
X46320214Y16271429D01*
X46291642Y16385715D01*
X46263071Y16442858D01*
X46205928Y16500000D01*
X46120214Y16528572D01*
X46063071Y16528572D01*
X45977357Y16500000D01*
X45948785Y16471429D01*
D14*
X30683333Y119750000D02*
X30750000Y119783334D01*
X30850000Y119783334D01*
X30950000Y119750000D01*
X31016666Y119683334D01*
X31050000Y119616667D01*
X31083333Y119483334D01*
X31083333Y119383334D01*
X31050000Y119250000D01*
X31016666Y119183334D01*
X30950000Y119116667D01*
X30850000Y119083334D01*
X30783333Y119083334D01*
X30683333Y119116667D01*
X30650000Y119150000D01*
X30650000Y119383334D01*
X30783333Y119383334D01*
X30350000Y119083334D02*
X30350000Y119783334D01*
X29950000Y119083334D01*
X29950000Y119783334D01*
X29616666Y119083334D02*
X29616666Y119783334D01*
X29450000Y119783334D01*
X29350000Y119750000D01*
X29283333Y119683334D01*
X29250000Y119616667D01*
X29216666Y119483334D01*
X29216666Y119383334D01*
X29250000Y119250000D01*
X29283333Y119183334D01*
X29350000Y119116667D01*
X29450000Y119083334D01*
X29616666Y119083334D01*
D12*
X18663423Y41047620D02*
X17996757Y41047620D01*
X18425328Y40047620D01*
X11150595Y46987620D02*
X11722023Y46987620D01*
X11436309Y46987620D02*
X11436309Y47987620D01*
X11531547Y47844762D01*
X11626785Y47749524D01*
X11722023Y47701905D01*
X10817261Y47987620D02*
X10150595Y47987620D01*
X10579166Y46987620D01*
X8314404Y49747620D02*
X8314404Y50747620D01*
X7933452Y50747620D01*
X7838214Y50700000D01*
X7790595Y50652381D01*
X7742976Y50557143D01*
X7742976Y50414286D01*
X7790595Y50319048D01*
X7838214Y50271429D01*
X7933452Y50223810D01*
X8314404Y50223810D01*
X7409642Y50747620D02*
X7171547Y49747620D01*
X6981071Y50461905D01*
X6790595Y49747620D01*
X6552500Y50747620D01*
X6171547Y49747620D02*
X6171547Y50747620D01*
X5838214Y50033334D01*
X5504880Y50747620D01*
X5504880Y49747620D01*
X59242976Y72942858D02*
X59290595Y72895239D01*
X59433452Y72847620D01*
X59528690Y72847620D01*
X59671547Y72895239D01*
X59766785Y72990477D01*
X59814404Y73085715D01*
X59862023Y73276191D01*
X59862023Y73419048D01*
X59814404Y73609524D01*
X59766785Y73704762D01*
X59671547Y73800000D01*
X59528690Y73847620D01*
X59433452Y73847620D01*
X59290595Y73800000D01*
X59242976Y73752381D01*
X58623928Y73847620D02*
X58433452Y73847620D01*
X58338214Y73800000D01*
X58242976Y73704762D01*
X58195357Y73514286D01*
X58195357Y73180953D01*
X58242976Y72990477D01*
X58338214Y72895239D01*
X58433452Y72847620D01*
X58623928Y72847620D01*
X58719166Y72895239D01*
X58814404Y72990477D01*
X58862023Y73180953D01*
X58862023Y73514286D01*
X58814404Y73704762D01*
X58719166Y73800000D01*
X58623928Y73847620D01*
X57766785Y72847620D02*
X57766785Y73847620D01*
X57433452Y73133334D01*
X57100119Y73847620D01*
X57100119Y72847620D01*
D15*
X50611904Y74217191D02*
X50611904Y74598143D01*
X50992857Y74636239D01*
X50954761Y74598143D01*
X50916666Y74521953D01*
X50916666Y74331477D01*
X50954761Y74255286D01*
X50992857Y74217191D01*
X51069047Y74179096D01*
X51259523Y74179096D01*
X51335714Y74217191D01*
X51373809Y74255286D01*
X51411904Y74331477D01*
X51411904Y74521953D01*
X51373809Y74598143D01*
X51335714Y74636239D01*
X50611904Y73950524D02*
X51411904Y73683858D01*
X50611904Y73417191D01*
D13*
X21769047Y124238096D02*
X21769047Y123666667D01*
X21816666Y123552381D01*
X21911904Y123476191D01*
X22054761Y123438096D01*
X22150000Y123438096D01*
X20816666Y123438096D02*
X21292857Y123438096D01*
X21292857Y124238096D01*
X19911904Y123514286D02*
X19959523Y123476191D01*
X20102380Y123438096D01*
X20197619Y123438096D01*
X20340476Y123476191D01*
X20435714Y123552381D01*
X20483333Y123628572D01*
X20530952Y123780953D01*
X20530952Y123895239D01*
X20483333Y124047620D01*
X20435714Y124123810D01*
X20340476Y124200000D01*
X20197619Y124238096D01*
X20102380Y124238096D01*
X19959523Y124200000D01*
X19911904Y124161905D01*
X19197619Y124238096D02*
X19197619Y123666667D01*
X19245238Y123552381D01*
X19340476Y123476191D01*
X19483333Y123438096D01*
X19578571Y123438096D01*
X18245238Y123438096D02*
X18721428Y123438096D01*
X18721428Y124238096D01*
X17340476Y123514286D02*
X17388095Y123476191D01*
X17530952Y123438096D01*
X17626190Y123438096D01*
X17769047Y123476191D01*
X17864285Y123552381D01*
X17911904Y123628572D01*
X17959523Y123780953D01*
X17959523Y123895239D01*
X17911904Y124047620D01*
X17864285Y124123810D01*
X17769047Y124200000D01*
X17626190Y124238096D01*
X17530952Y124238096D01*
X17388095Y124200000D01*
X17340476Y124161905D01*
X16626190Y124238096D02*
X16626190Y123666667D01*
X16673809Y123552381D01*
X16769047Y123476191D01*
X16911904Y123438096D01*
X17007142Y123438096D01*
X15673809Y123438096D02*
X16150000Y123438096D01*
X16150000Y124238096D01*
X14769047Y123514286D02*
X14816666Y123476191D01*
X14959523Y123438096D01*
X15054761Y123438096D01*
X15197619Y123476191D01*
X15292857Y123552381D01*
X15340476Y123628572D01*
X15388095Y123780953D01*
X15388095Y123895239D01*
X15340476Y124047620D01*
X15292857Y124123810D01*
X15197619Y124200000D01*
X15054761Y124238096D01*
X14959523Y124238096D01*
X14816666Y124200000D01*
X14769047Y124161905D01*
X14054761Y124238096D02*
X14054761Y123666667D01*
X14102380Y123552381D01*
X14197619Y123476191D01*
X14340476Y123438096D01*
X14435714Y123438096D01*
X13102380Y123438096D02*
X13578571Y123438096D01*
X13578571Y124238096D01*
X12197619Y123514286D02*
X12245238Y123476191D01*
X12388095Y123438096D01*
X12483333Y123438096D01*
X12626190Y123476191D01*
X12721428Y123552381D01*
X12769047Y123628572D01*
X12816666Y123780953D01*
X12816666Y123895239D01*
X12769047Y124047620D01*
X12721428Y124123810D01*
X12626190Y124200000D01*
X12483333Y124238096D01*
X12388095Y124238096D01*
X12245238Y124200000D01*
X12197619Y124161905D01*
X46920214Y47528572D02*
X46920214Y48128572D01*
X46577357Y47528572D01*
X46577357Y48128572D01*
X45948785Y47585715D02*
X45977357Y47557143D01*
X46063071Y47528572D01*
X46120214Y47528572D01*
X46205928Y47557143D01*
X46263071Y47614286D01*
X46291642Y47671429D01*
X46320214Y47785715D01*
X46320214Y47871429D01*
X46291642Y47985715D01*
X46263071Y48042858D01*
X46205928Y48100000D01*
X46120214Y48128572D01*
X46063071Y48128572D01*
X45977357Y48100000D01*
X45948785Y48071429D01*
D12*
X18916428Y106461905D02*
X18916428Y105700000D01*
X19297380Y106080953D02*
X18535476Y106080953D01*
X18392619Y105271429D02*
X18345000Y105223810D01*
X18297380Y105128572D01*
X18297380Y104890477D01*
X18345000Y104795239D01*
X18392619Y104747620D01*
X18487857Y104700000D01*
X18583095Y104700000D01*
X18725952Y104747620D01*
X19297380Y105319048D01*
X19297380Y104700000D01*
X18630714Y103842858D02*
X19297380Y103842858D01*
X18249761Y104080953D02*
X18964047Y104319048D01*
X18964047Y103700000D01*
X18297380Y103461905D02*
X19297380Y103128572D01*
X18297380Y102795239D01*
X20907380Y105223810D02*
X19907380Y105223810D01*
X20907380Y104747620D02*
X19907380Y104747620D01*
X20907380Y104176191D01*
X19907380Y104176191D01*
X23942738Y29423810D02*
X23942738Y28947620D01*
X24276071Y29947620D02*
X23942738Y29423810D01*
X23609404Y29947620D01*
X23276071Y28947620D02*
X23276071Y29947620D01*
X22942738Y29233334D01*
X22609404Y29947620D01*
X22609404Y28947620D01*
X22133214Y28947620D02*
X22133214Y29947620D01*
X21657023Y28947620D02*
X21657023Y29947620D01*
X21085595Y28947620D01*
X21085595Y29947620D01*
X59623928Y53148810D02*
X59623928Y52672620D01*
X59957261Y53672620D02*
X59623928Y53148810D01*
X59290595Y53672620D01*
X58957261Y52672620D02*
X58957261Y53672620D01*
X58719166Y53672620D01*
X58576309Y53625000D01*
X58481071Y53529762D01*
X58433452Y53434524D01*
X58385833Y53244048D01*
X58385833Y53101191D01*
X58433452Y52910715D01*
X58481071Y52815477D01*
X58576309Y52720239D01*
X58719166Y52672620D01*
X58957261Y52672620D01*
X57957261Y52672620D02*
X57957261Y53672620D01*
X56909642Y52672620D02*
X57242976Y53148810D01*
X57481071Y52672620D02*
X57481071Y53672620D01*
X57100119Y53672620D01*
X57004880Y53625000D01*
X56957261Y53577381D01*
X56909642Y53482143D01*
X56909642Y53339286D01*
X56957261Y53244048D01*
X57004880Y53196429D01*
X57100119Y53148810D01*
X57481071Y53148810D01*
D13*
X46920214Y53528572D02*
X46920214Y54128572D01*
X46577357Y53528572D01*
X46577357Y54128572D01*
X45948785Y53585715D02*
X45977357Y53557143D01*
X46063071Y53528572D01*
X46120214Y53528572D01*
X46205928Y53557143D01*
X46263071Y53614286D01*
X46291642Y53671429D01*
X46320214Y53785715D01*
X46320214Y53871429D01*
X46291642Y53985715D01*
X46263071Y54042858D01*
X46205928Y54100000D01*
X46120214Y54128572D01*
X46063071Y54128572D01*
X45977357Y54100000D01*
X45948785Y54071429D01*
D15*
X50611904Y65416143D02*
X50611904Y65339953D01*
X50650000Y65263762D01*
X50688095Y65225667D01*
X50764285Y65187572D01*
X50916666Y65149477D01*
X51107142Y65149477D01*
X51259523Y65187572D01*
X51335714Y65225667D01*
X51373809Y65263762D01*
X51411904Y65339953D01*
X51411904Y65416143D01*
X51373809Y65492334D01*
X51335714Y65530429D01*
X51259523Y65568524D01*
X51107142Y65606620D01*
X50916666Y65606620D01*
X50764285Y65568524D01*
X50688095Y65530429D01*
X50650000Y65492334D01*
X50611904Y65416143D01*
X50611904Y64920905D02*
X51411904Y64654239D01*
X50611904Y64387572D01*
D12*
X59242976Y20047620D02*
X59576309Y20523810D01*
X59814404Y20047620D02*
X59814404Y21047620D01*
X59433452Y21047620D01*
X59338214Y21000000D01*
X59290595Y20952381D01*
X59242976Y20857143D01*
X59242976Y20714286D01*
X59290595Y20619048D01*
X59338214Y20571429D01*
X59433452Y20523810D01*
X59814404Y20523810D01*
X58338214Y20047620D02*
X58814404Y20047620D01*
X58814404Y21047620D01*
X57814404Y20523810D02*
X57814404Y20047620D01*
X58147738Y21047620D02*
X57814404Y20523810D01*
X57481071Y21047620D01*
X57242976Y21047620D02*
X56623928Y21047620D01*
X56957261Y20666667D01*
X56814404Y20666667D01*
X56719166Y20619048D01*
X56671547Y20571429D01*
X56623928Y20476191D01*
X56623928Y20238096D01*
X56671547Y20142858D01*
X56719166Y20095239D01*
X56814404Y20047620D01*
X57100119Y20047620D01*
X57195357Y20095239D01*
X57242976Y20142858D01*
D15*
X49135714Y41223810D02*
X49173809Y41261905D01*
X49211904Y41376191D01*
X49211904Y41452381D01*
X49173809Y41566667D01*
X49097619Y41642858D01*
X49021428Y41680953D01*
X48869047Y41719048D01*
X48754761Y41719048D01*
X48602380Y41680953D01*
X48526190Y41642858D01*
X48450000Y41566667D01*
X48411904Y41452381D01*
X48411904Y41376191D01*
X48450000Y41261905D01*
X48488095Y41223810D01*
X48411904Y40728572D02*
X48411904Y40576191D01*
X48450000Y40500000D01*
X48526190Y40423810D01*
X48678571Y40385715D01*
X48945238Y40385715D01*
X49097619Y40423810D01*
X49173809Y40500000D01*
X49211904Y40576191D01*
X49211904Y40728572D01*
X49173809Y40804762D01*
X49097619Y40880953D01*
X48945238Y40919048D01*
X48678571Y40919048D01*
X48526190Y40880953D01*
X48450000Y40804762D01*
X48411904Y40728572D01*
X49211904Y40042858D02*
X48411904Y40042858D01*
X48983333Y39776191D01*
X48411904Y39509524D01*
X49211904Y39509524D01*
X49211904Y39128572D02*
X48411904Y39128572D01*
X48983333Y38861905D01*
X48411904Y38595239D01*
X49211904Y38595239D01*
X48411904Y38061905D02*
X48411904Y37909524D01*
X48450000Y37833334D01*
X48526190Y37757143D01*
X48678571Y37719048D01*
X48945238Y37719048D01*
X49097619Y37757143D01*
X49173809Y37833334D01*
X49211904Y37909524D01*
X49211904Y38061905D01*
X49173809Y38138096D01*
X49097619Y38214286D01*
X48945238Y38252381D01*
X48678571Y38252381D01*
X48526190Y38214286D01*
X48450000Y38138096D01*
X48411904Y38061905D01*
X49211904Y37376191D02*
X48411904Y37376191D01*
X49211904Y36919048D01*
X48411904Y36919048D01*
D12*
X11156595Y52508620D02*
X11728023Y52508620D01*
X11442309Y52508620D02*
X11442309Y53508620D01*
X11537547Y53365762D01*
X11632785Y53270524D01*
X11728023Y53222905D01*
X10251833Y53508620D02*
X10728023Y53508620D01*
X10775642Y53032429D01*
X10728023Y53080048D01*
X10632785Y53127667D01*
X10394690Y53127667D01*
X10299452Y53080048D01*
X10251833Y53032429D01*
X10204214Y52937191D01*
X10204214Y52699096D01*
X10251833Y52603858D01*
X10299452Y52556239D01*
X10394690Y52508620D01*
X10632785Y52508620D01*
X10728023Y52556239D01*
X10775642Y52603858D01*
X59242976Y17497620D02*
X59576309Y17973810D01*
X59814404Y17497620D02*
X59814404Y18497620D01*
X59433452Y18497620D01*
X59338214Y18450000D01*
X59290595Y18402381D01*
X59242976Y18307143D01*
X59242976Y18164286D01*
X59290595Y18069048D01*
X59338214Y18021429D01*
X59433452Y17973810D01*
X59814404Y17973810D01*
X58338214Y17497620D02*
X58814404Y17497620D01*
X58814404Y18497620D01*
X57814404Y17973810D02*
X57814404Y17497620D01*
X58147738Y18497620D02*
X57814404Y17973810D01*
X57481071Y18497620D01*
X56719166Y18164286D02*
X56719166Y17497620D01*
X56957261Y18545239D02*
X57195357Y17830953D01*
X56576309Y17830953D01*
D13*
X46920214Y31778572D02*
X46920214Y32378572D01*
X46577357Y31778572D01*
X46577357Y32378572D01*
X45948785Y31835715D02*
X45977357Y31807143D01*
X46063071Y31778572D01*
X46120214Y31778572D01*
X46205928Y31807143D01*
X46263071Y31864286D01*
X46291642Y31921429D01*
X46320214Y32035715D01*
X46320214Y32121429D01*
X46291642Y32235715D01*
X46263071Y32292858D01*
X46205928Y32350000D01*
X46120214Y32378572D01*
X46063071Y32378572D01*
X45977357Y32350000D01*
X45948785Y32321429D01*
D12*
X59242976Y22547620D02*
X59576309Y23023810D01*
X59814404Y22547620D02*
X59814404Y23547620D01*
X59433452Y23547620D01*
X59338214Y23500000D01*
X59290595Y23452381D01*
X59242976Y23357143D01*
X59242976Y23214286D01*
X59290595Y23119048D01*
X59338214Y23071429D01*
X59433452Y23023810D01*
X59814404Y23023810D01*
X58338214Y22547620D02*
X58814404Y22547620D01*
X58814404Y23547620D01*
X57814404Y23023810D02*
X57814404Y22547620D01*
X58147738Y23547620D02*
X57814404Y23023810D01*
X57481071Y23547620D01*
X57195357Y23452381D02*
X57147738Y23500000D01*
X57052500Y23547620D01*
X56814404Y23547620D01*
X56719166Y23500000D01*
X56671547Y23452381D01*
X56623928Y23357143D01*
X56623928Y23261905D01*
X56671547Y23119048D01*
X57242976Y22547620D01*
X56623928Y22547620D01*
X59714404Y101422620D02*
X59714404Y102422620D01*
X59333452Y102422620D01*
X59238214Y102375000D01*
X59190595Y102327381D01*
X59142976Y102232143D01*
X59142976Y102089286D01*
X59190595Y101994048D01*
X59238214Y101946429D01*
X59333452Y101898810D01*
X59714404Y101898810D01*
X58190595Y101422620D02*
X58762023Y101422620D01*
X58476309Y101422620D02*
X58476309Y102422620D01*
X58571547Y102279762D01*
X58666785Y102184524D01*
X58762023Y102136905D01*
X57857261Y102422620D02*
X57190595Y102422620D01*
X57619166Y101422620D01*
D13*
X46920214Y56528572D02*
X46920214Y57128572D01*
X46577357Y56528572D01*
X46577357Y57128572D01*
X45948785Y56585715D02*
X45977357Y56557143D01*
X46063071Y56528572D01*
X46120214Y56528572D01*
X46205928Y56557143D01*
X46263071Y56614286D01*
X46291642Y56671429D01*
X46320214Y56785715D01*
X46320214Y56871429D01*
X46291642Y56985715D01*
X46263071Y57042858D01*
X46205928Y57100000D01*
X46120214Y57128572D01*
X46063071Y57128572D01*
X45977357Y57100000D01*
X45948785Y57071429D01*
D14*
X30743304Y125122354D02*
X30643304Y125089021D01*
X30476637Y125089021D01*
X30409970Y125122354D01*
X30376637Y125155687D01*
X30343304Y125222354D01*
X30343304Y125289021D01*
X30376637Y125355687D01*
X30409970Y125389021D01*
X30476637Y125422354D01*
X30609970Y125455687D01*
X30676637Y125489021D01*
X30709970Y125522354D01*
X30743304Y125589021D01*
X30743304Y125655687D01*
X30709970Y125722354D01*
X30676637Y125755687D01*
X30609970Y125789021D01*
X30443304Y125789021D01*
X30343304Y125755687D01*
X30109970Y125789021D02*
X29943304Y125089021D01*
X29809970Y125589021D01*
X29676637Y125089021D01*
X29509970Y125789021D01*
D12*
X18139614Y49014286D02*
X18139614Y48347620D01*
X18377709Y49395239D02*
X18615804Y48680953D01*
X17996757Y48680953D01*
X20178571Y16307024D02*
X20226190Y16164167D01*
X20273809Y16116548D01*
X20369047Y16068929D01*
X20511904Y16068929D01*
X20607142Y16116548D01*
X20654761Y16164167D01*
X20702380Y16259405D01*
X20702380Y16640358D01*
X19702380Y16640358D01*
X19702380Y16307024D01*
X19750000Y16211786D01*
X19797619Y16164167D01*
X19892857Y16116548D01*
X19988095Y16116548D01*
X20083333Y16164167D01*
X20130952Y16211786D01*
X20178571Y16307024D01*
X20178571Y16640358D01*
X20702380Y15640358D02*
X20035714Y15640358D01*
X19702380Y15640358D02*
X19750000Y15687977D01*
X19797619Y15640358D01*
X19750000Y15592739D01*
X19702380Y15640358D01*
X19797619Y15640358D01*
X20035714Y15307024D02*
X20035714Y14926072D01*
X19702380Y15164167D02*
X20559523Y15164167D01*
X20654761Y15116548D01*
X20702380Y15021310D01*
X20702380Y14926072D01*
X19702380Y14687977D02*
X19702380Y14021310D01*
X20702380Y14687977D01*
X20702380Y14021310D01*
X20654761Y13259405D02*
X20702380Y13354643D01*
X20702380Y13545120D01*
X20654761Y13640358D01*
X20559523Y13687977D01*
X20178571Y13687977D01*
X20083333Y13640358D01*
X20035714Y13545120D01*
X20035714Y13354643D01*
X20083333Y13259405D01*
X20178571Y13211786D01*
X20273809Y13211786D01*
X20369047Y13687977D01*
X20702380Y12783215D02*
X20035714Y12783215D01*
X20226190Y12783215D02*
X20130952Y12735596D01*
X20083333Y12687977D01*
X20035714Y12592739D01*
X20035714Y12497500D01*
X20702380Y12021310D02*
X20654761Y12116548D01*
X20607142Y12164167D01*
X20511904Y12211786D01*
X20226190Y12211786D01*
X20130952Y12164167D01*
X20083333Y12116548D01*
X20035714Y12021310D01*
X20035714Y11878453D01*
X20083333Y11783215D01*
X20130952Y11735596D01*
X20226190Y11687977D01*
X20511904Y11687977D01*
X20607142Y11735596D01*
X20654761Y11783215D01*
X20702380Y11878453D01*
X20702380Y12021310D01*
X32971428Y14307024D02*
X32971428Y13545120D01*
X33352380Y13926072D02*
X32590476Y13926072D01*
X32352380Y12592739D02*
X32352380Y13068929D01*
X32828571Y13116548D01*
X32780952Y13068929D01*
X32733333Y12973691D01*
X32733333Y12735596D01*
X32780952Y12640358D01*
X32828571Y12592739D01*
X32923809Y12545120D01*
X33161904Y12545120D01*
X33257142Y12592739D01*
X33304761Y12640358D01*
X33352380Y12735596D01*
X33352380Y12973691D01*
X33304761Y13068929D01*
X33257142Y13116548D01*
X32352380Y12259405D02*
X33352380Y11926072D01*
X32352380Y11592739D01*
X59909642Y68797620D02*
X59242976Y67797620D01*
X59242976Y68797620D02*
X59909642Y67797620D01*
X58862023Y67797620D02*
X58862023Y68797620D01*
X58623928Y68797620D01*
X58481071Y68750000D01*
X58385833Y68654762D01*
X58338214Y68559524D01*
X58290595Y68369048D01*
X58290595Y68226191D01*
X58338214Y68035715D01*
X58385833Y67940477D01*
X58481071Y67845239D01*
X58623928Y67797620D01*
X58862023Y67797620D01*
X57862023Y67797620D02*
X57862023Y68797620D01*
X56814404Y67797620D02*
X57147738Y68273810D01*
X57385833Y67797620D02*
X57385833Y68797620D01*
X57004880Y68797620D01*
X56909642Y68750000D01*
X56862023Y68702381D01*
X56814404Y68607143D01*
X56814404Y68464286D01*
X56862023Y68369048D01*
X56909642Y68321429D01*
X57004880Y68273810D01*
X57385833Y68273810D01*
X7981071Y47521429D02*
X8314404Y47521429D01*
X8314404Y46997620D02*
X8314404Y47997620D01*
X7838214Y47997620D01*
X7552500Y47997620D02*
X7314404Y46997620D01*
X7123928Y47711905D01*
X6933452Y46997620D01*
X6695357Y47997620D01*
X6314404Y46997620D02*
X6314404Y47997620D01*
X6076309Y47997620D01*
X5933452Y47950000D01*
X5838214Y47854762D01*
X5790595Y47759524D01*
X5742976Y47569048D01*
X5742976Y47426191D01*
X5790595Y47235715D01*
X5838214Y47140477D01*
X5933452Y47045239D01*
X6076309Y46997620D01*
X6314404Y46997620D01*
X24323690Y27197620D02*
X23657023Y27197620D01*
X24323690Y26197620D01*
X23657023Y26197620D01*
X23276071Y26197620D02*
X23276071Y27197620D01*
X22942738Y26483334D01*
X22609404Y27197620D01*
X22609404Y26197620D01*
X22133214Y26197620D02*
X22133214Y27197620D01*
X21657023Y26197620D02*
X21657023Y27197620D01*
X21085595Y26197620D01*
X21085595Y27197620D01*
X46276071Y29123810D02*
X46276071Y28647620D01*
X46609404Y29647620D02*
X46276071Y29123810D01*
X45942738Y29647620D01*
X23657023Y34497620D02*
X23990357Y34973810D01*
X24228452Y34497620D02*
X24228452Y35497620D01*
X23847500Y35497620D01*
X23752261Y35450000D01*
X23704642Y35402381D01*
X23657023Y35307143D01*
X23657023Y35164286D01*
X23704642Y35069048D01*
X23752261Y35021429D01*
X23847500Y34973810D01*
X24228452Y34973810D01*
X22752261Y34497620D02*
X23228452Y34497620D01*
X23228452Y35497620D01*
X22228452Y34973810D02*
X22228452Y34497620D01*
X22561785Y35497620D02*
X22228452Y34973810D01*
X21895119Y35497620D01*
X21657023Y35497620D02*
X21037976Y35497620D01*
X21371309Y35116667D01*
X21228452Y35116667D01*
X21133214Y35069048D01*
X21085595Y35021429D01*
X21037976Y34926191D01*
X21037976Y34688096D01*
X21085595Y34592858D01*
X21133214Y34545239D01*
X21228452Y34497620D01*
X21514166Y34497620D01*
X21609404Y34545239D01*
X21657023Y34592858D01*
D13*
X46920214Y12928572D02*
X46920214Y13528572D01*
X46577357Y12928572D01*
X46577357Y13528572D01*
X45948785Y12985715D02*
X45977357Y12957143D01*
X46063071Y12928572D01*
X46120214Y12928572D01*
X46205928Y12957143D01*
X46263071Y13014286D01*
X46291642Y13071429D01*
X46320214Y13185715D01*
X46320214Y13271429D01*
X46291642Y13385715D01*
X46263071Y13442858D01*
X46205928Y13500000D01*
X46120214Y13528572D01*
X46063071Y13528572D01*
X45977357Y13500000D01*
X45948785Y13471429D01*
D15*
X50611904Y43967191D02*
X50611904Y44348143D01*
X50992857Y44386239D01*
X50954761Y44348143D01*
X50916666Y44271953D01*
X50916666Y44081477D01*
X50954761Y44005286D01*
X50992857Y43967191D01*
X51069047Y43929096D01*
X51259523Y43929096D01*
X51335714Y43967191D01*
X51373809Y44005286D01*
X51411904Y44081477D01*
X51411904Y44271953D01*
X51373809Y44348143D01*
X51335714Y44386239D01*
X50611904Y43700524D02*
X51411904Y43433858D01*
X50611904Y43167191D01*
D12*
X39990595Y16630000D02*
X40085833Y16677620D01*
X40228690Y16677620D01*
X40371547Y16630000D01*
X40466785Y16534762D01*
X40514404Y16439524D01*
X40562023Y16249048D01*
X40562023Y16106191D01*
X40514404Y15915715D01*
X40466785Y15820477D01*
X40371547Y15725239D01*
X40228690Y15677620D01*
X40133452Y15677620D01*
X39990595Y15725239D01*
X39942976Y15772858D01*
X39942976Y16106191D01*
X40133452Y16106191D01*
X39514404Y15677620D02*
X39514404Y16677620D01*
X38942976Y15677620D01*
X38942976Y16677620D01*
X38466785Y15677620D02*
X38466785Y16677620D01*
X38228690Y16677620D01*
X38085833Y16630000D01*
X37990595Y16534762D01*
X37942976Y16439524D01*
X37895357Y16249048D01*
X37895357Y16106191D01*
X37942976Y15915715D01*
X37990595Y15820477D01*
X38085833Y15725239D01*
X38228690Y15677620D01*
X38466785Y15677620D01*
D14*
X34116666Y122083334D02*
X34116666Y122783334D01*
X33716666Y122083334D01*
X33716666Y122783334D01*
X33250000Y122783334D02*
X33116666Y122783334D01*
X33050000Y122750000D01*
X32983333Y122683334D01*
X32950000Y122550000D01*
X32950000Y122316667D01*
X32983333Y122183334D01*
X33050000Y122116667D01*
X33116666Y122083334D01*
X33250000Y122083334D01*
X33316666Y122116667D01*
X33383333Y122183334D01*
X33416666Y122316667D01*
X33416666Y122550000D01*
X33383333Y122683334D01*
X33316666Y122750000D01*
X33250000Y122783334D01*
D12*
X39990595Y35430000D02*
X40085833Y35477620D01*
X40228690Y35477620D01*
X40371547Y35430000D01*
X40466785Y35334762D01*
X40514404Y35239524D01*
X40562023Y35049048D01*
X40562023Y34906191D01*
X40514404Y34715715D01*
X40466785Y34620477D01*
X40371547Y34525239D01*
X40228690Y34477620D01*
X40133452Y34477620D01*
X39990595Y34525239D01*
X39942976Y34572858D01*
X39942976Y34906191D01*
X40133452Y34906191D01*
X39514404Y34477620D02*
X39514404Y35477620D01*
X38942976Y34477620D01*
X38942976Y35477620D01*
X38466785Y34477620D02*
X38466785Y35477620D01*
X38228690Y35477620D01*
X38085833Y35430000D01*
X37990595Y35334762D01*
X37942976Y35239524D01*
X37895357Y35049048D01*
X37895357Y34906191D01*
X37942976Y34715715D01*
X37990595Y34620477D01*
X38085833Y34525239D01*
X38228690Y34477620D01*
X38466785Y34477620D01*
D13*
X46920214Y18928572D02*
X46920214Y19528572D01*
X46577357Y18928572D01*
X46577357Y19528572D01*
X45948785Y18985715D02*
X45977357Y18957143D01*
X46063071Y18928572D01*
X46120214Y18928572D01*
X46205928Y18957143D01*
X46263071Y19014286D01*
X46291642Y19071429D01*
X46320214Y19185715D01*
X46320214Y19271429D01*
X46291642Y19385715D01*
X46263071Y19442858D01*
X46205928Y19500000D01*
X46120214Y19528572D01*
X46063071Y19528572D01*
X45977357Y19500000D01*
X45948785Y19471429D01*
D12*
X59814404Y35609429D02*
X59481071Y35609429D01*
X59338214Y35085620D02*
X59814404Y35085620D01*
X59814404Y36085620D01*
X59338214Y36085620D01*
X58909642Y35085620D02*
X58909642Y36085620D01*
X58338214Y35085620D01*
X58338214Y36085620D01*
X18615804Y54810381D02*
X18568185Y54858000D01*
X18472947Y54905620D01*
X18234852Y54905620D01*
X18139614Y54858000D01*
X18091995Y54810381D01*
X18044376Y54715143D01*
X18044376Y54619905D01*
X18091995Y54477048D01*
X18663423Y53905620D01*
X18044376Y53905620D01*
D13*
X46920214Y34778572D02*
X46920214Y35378572D01*
X46577357Y34778572D01*
X46577357Y35378572D01*
X45948785Y34835715D02*
X45977357Y34807143D01*
X46063071Y34778572D01*
X46120214Y34778572D01*
X46205928Y34807143D01*
X46263071Y34864286D01*
X46291642Y34921429D01*
X46320214Y35035715D01*
X46320214Y35121429D01*
X46291642Y35235715D01*
X46263071Y35292858D01*
X46205928Y35350000D01*
X46120214Y35378572D01*
X46063071Y35378572D01*
X45977357Y35350000D01*
X45948785Y35321429D01*
X46920214Y9928572D02*
X46920214Y10528572D01*
X46577357Y9928572D01*
X46577357Y10528572D01*
X45948785Y9985715D02*
X45977357Y9957143D01*
X46063071Y9928572D01*
X46120214Y9928572D01*
X46205928Y9957143D01*
X46263071Y10014286D01*
X46291642Y10071429D01*
X46320214Y10185715D01*
X46320214Y10271429D01*
X46291642Y10385715D01*
X46263071Y10442858D01*
X46205928Y10500000D01*
X46120214Y10528572D01*
X46063071Y10528572D01*
X45977357Y10500000D01*
X45948785Y10471429D01*
D16*
X34007142Y91019286D02*
X34078571Y90805000D01*
X34078571Y90447858D01*
X34007142Y90305000D01*
X33935714Y90233572D01*
X33792857Y90162143D01*
X33650000Y90162143D01*
X33507142Y90233572D01*
X33435714Y90305000D01*
X33364285Y90447858D01*
X33292857Y90733572D01*
X33221428Y90876429D01*
X33150000Y90947858D01*
X33007142Y91019286D01*
X32864285Y91019286D01*
X32721428Y90947858D01*
X32650000Y90876429D01*
X32578571Y90733572D01*
X32578571Y90376429D01*
X32650000Y90162143D01*
X34078571Y89519286D02*
X32578571Y89519286D01*
X34078571Y88876429D02*
X33292857Y88876429D01*
X33150000Y88947858D01*
X33078571Y89090715D01*
X33078571Y89305000D01*
X33150000Y89447858D01*
X33221428Y89519286D01*
X34078571Y87519286D02*
X33292857Y87519286D01*
X33150000Y87590715D01*
X33078571Y87733572D01*
X33078571Y88019286D01*
X33150000Y88162143D01*
X34007142Y87519286D02*
X34078571Y87662143D01*
X34078571Y88019286D01*
X34007142Y88162143D01*
X33864285Y88233572D01*
X33721428Y88233572D01*
X33578571Y88162143D01*
X33507142Y88019286D01*
X33507142Y87662143D01*
X33435714Y87519286D01*
X33078571Y86805000D02*
X34578571Y86805000D01*
X33150000Y86805000D02*
X33078571Y86662143D01*
X33078571Y86376429D01*
X33150000Y86233572D01*
X33221428Y86162143D01*
X33364285Y86090715D01*
X33792857Y86090715D01*
X33935714Y86162143D01*
X34007142Y86233572D01*
X34078571Y86376429D01*
X34078571Y86662143D01*
X34007142Y86805000D01*
X34007142Y84876429D02*
X34078571Y85019286D01*
X34078571Y85305000D01*
X34007142Y85447858D01*
X33864285Y85519286D01*
X33292857Y85519286D01*
X33150000Y85447858D01*
X33078571Y85305000D01*
X33078571Y85019286D01*
X33150000Y84876429D01*
X33292857Y84805000D01*
X33435714Y84805000D01*
X33578571Y85519286D01*
X34078571Y83947858D02*
X34007142Y84090715D01*
X33935714Y84162143D01*
X33792857Y84233572D01*
X33364285Y84233572D01*
X33221428Y84162143D01*
X33150000Y84090715D01*
X33078571Y83947858D01*
X33078571Y83733572D01*
X33150000Y83590715D01*
X33221428Y83519286D01*
X33364285Y83447858D01*
X33792857Y83447858D01*
X33935714Y83519286D01*
X34007142Y83590715D01*
X34078571Y83733572D01*
X34078571Y83947858D01*
X34078571Y82805000D02*
X32578571Y82805000D01*
X33507142Y82662143D02*
X34078571Y82233572D01*
X33078571Y82233572D02*
X33650000Y82805000D01*
X34078571Y81376429D02*
X34007142Y81519286D01*
X33935714Y81590715D01*
X33792857Y81662143D01*
X33364285Y81662143D01*
X33221428Y81590715D01*
X33150000Y81519286D01*
X33078571Y81376429D01*
X33078571Y81162143D01*
X33150000Y81019286D01*
X33221428Y80947858D01*
X33364285Y80876429D01*
X33792857Y80876429D01*
X33935714Y80947858D01*
X34007142Y81019286D01*
X34078571Y81162143D01*
X34078571Y81376429D01*
X34078571Y78376429D02*
X34078571Y79090715D01*
X32578571Y79090715D01*
X34078571Y77876429D02*
X32578571Y77876429D01*
X32578571Y77305000D01*
X32650000Y77162143D01*
X32721428Y77090715D01*
X32864285Y77019286D01*
X33078571Y77019286D01*
X33221428Y77090715D01*
X33292857Y77162143D01*
X33364285Y77305000D01*
X33364285Y77876429D01*
X32578571Y76590715D02*
X32578571Y75733572D01*
X34078571Y76162143D02*
X32578571Y76162143D01*
X34078571Y74090715D02*
X32578571Y74090715D01*
X33078571Y73376429D02*
X34078571Y73376429D01*
X33221428Y73376429D02*
X33150000Y73305000D01*
X33078571Y73162143D01*
X33078571Y72947858D01*
X33150000Y72805000D01*
X33292857Y72733572D01*
X34078571Y72733572D01*
X33078571Y72233572D02*
X33078571Y71662143D01*
X32578571Y72019286D02*
X33864285Y72019286D01*
X34007142Y71947858D01*
X34078571Y71805000D01*
X34078571Y71662143D01*
X34007142Y70590715D02*
X34078571Y70733572D01*
X34078571Y71019286D01*
X34007142Y71162143D01*
X33864285Y71233572D01*
X33292857Y71233572D01*
X33150000Y71162143D01*
X33078571Y71019286D01*
X33078571Y70733572D01*
X33150000Y70590715D01*
X33292857Y70519286D01*
X33435714Y70519286D01*
X33578571Y71233572D01*
X34078571Y69876429D02*
X33078571Y69876429D01*
X33364285Y69876429D02*
X33221428Y69805000D01*
X33150000Y69733572D01*
X33078571Y69590715D01*
X33078571Y69447858D01*
X33078571Y69162143D02*
X33078571Y68590715D01*
X34078571Y68947858D02*
X32792857Y68947858D01*
X32650000Y68876429D01*
X32578571Y68733572D01*
X32578571Y68590715D01*
X34078571Y67447858D02*
X33292857Y67447858D01*
X33150000Y67519286D01*
X33078571Y67662143D01*
X33078571Y67947858D01*
X33150000Y68090715D01*
X34007142Y67447858D02*
X34078571Y67590715D01*
X34078571Y67947858D01*
X34007142Y68090715D01*
X33864285Y68162143D01*
X33721428Y68162143D01*
X33578571Y68090715D01*
X33507142Y67947858D01*
X33507142Y67590715D01*
X33435714Y67447858D01*
X34007142Y66090715D02*
X34078571Y66233572D01*
X34078571Y66519286D01*
X34007142Y66662143D01*
X33935714Y66733572D01*
X33792857Y66805000D01*
X33364285Y66805000D01*
X33221428Y66733572D01*
X33150000Y66662143D01*
X33078571Y66519286D01*
X33078571Y66233572D01*
X33150000Y66090715D01*
X34007142Y64876429D02*
X34078571Y65019286D01*
X34078571Y65305000D01*
X34007142Y65447858D01*
X33864285Y65519286D01*
X33292857Y65519286D01*
X33150000Y65447858D01*
X33078571Y65305000D01*
X33078571Y65019286D01*
X33150000Y64876429D01*
X33292857Y64805000D01*
X33435714Y64805000D01*
X33578571Y65519286D01*
X33078571Y63162143D02*
X34078571Y62805000D01*
X33078571Y62447858D01*
X32721428Y61947858D02*
X32650000Y61876429D01*
X32578571Y61733572D01*
X32578571Y61376429D01*
X32650000Y61233572D01*
X32721428Y61162143D01*
X32864285Y61090715D01*
X33007142Y61090715D01*
X33221428Y61162143D01*
X34078571Y62019286D01*
X34078571Y61090715D01*
X33935714Y60447858D02*
X34007142Y60376429D01*
X34078571Y60447858D01*
X34007142Y60519286D01*
X33935714Y60447858D01*
X34078571Y60447858D01*
X32578571Y59447858D02*
X32578571Y59305000D01*
X32650000Y59162143D01*
X32721428Y59090715D01*
X32864285Y59019286D01*
X33150000Y58947858D01*
X33507142Y58947858D01*
X33792857Y59019286D01*
X33935714Y59090715D01*
X34007142Y59162143D01*
X34078571Y59305000D01*
X34078571Y59447858D01*
X34007142Y59590715D01*
X33935714Y59662143D01*
X33792857Y59733572D01*
X33507142Y59805000D01*
X33150000Y59805000D01*
X32864285Y59733572D01*
X32721428Y59662143D01*
X32650000Y59590715D01*
X32578571Y59447858D01*
D12*
X64618928Y116277381D02*
X64571309Y116325000D01*
X64476071Y116372620D01*
X64237976Y116372620D01*
X64142738Y116325000D01*
X64095119Y116277381D01*
X64047500Y116182143D01*
X64047500Y116086905D01*
X64095119Y115944048D01*
X64666547Y115372620D01*
X64047500Y115372620D01*
X63190357Y116039286D02*
X63190357Y115372620D01*
X63428452Y116420239D02*
X63666547Y115705953D01*
X63047500Y115705953D01*
X62809404Y116372620D02*
X62476071Y115372620D01*
X62142738Y116372620D01*
X24133214Y41047620D02*
X23466547Y41047620D01*
X24133214Y40047620D01*
X23466547Y40047620D01*
X23085595Y40047620D02*
X23085595Y41047620D01*
X22847500Y41047620D01*
X22704642Y41000000D01*
X22609404Y40904762D01*
X22561785Y40809524D01*
X22514166Y40619048D01*
X22514166Y40476191D01*
X22561785Y40285715D01*
X22609404Y40190477D01*
X22704642Y40095239D01*
X22847500Y40047620D01*
X23085595Y40047620D01*
X22085595Y40047620D02*
X22085595Y41047620D01*
X21037976Y40047620D02*
X21371309Y40523810D01*
X21609404Y40047620D02*
X21609404Y41047620D01*
X21228452Y41047620D01*
X21133214Y41000000D01*
X21085595Y40952381D01*
X21037976Y40857143D01*
X21037976Y40714286D01*
X21085595Y40619048D01*
X21133214Y40571429D01*
X21228452Y40523810D01*
X21609404Y40523810D01*
X24466547Y43797620D02*
X23799880Y43797620D01*
X24466547Y42797620D01*
X23799880Y42797620D01*
X22847500Y42892858D02*
X22895119Y42845239D01*
X23037976Y42797620D01*
X23133214Y42797620D01*
X23276071Y42845239D01*
X23371309Y42940477D01*
X23418928Y43035715D01*
X23466547Y43226191D01*
X23466547Y43369048D01*
X23418928Y43559524D01*
X23371309Y43654762D01*
X23276071Y43750000D01*
X23133214Y43797620D01*
X23037976Y43797620D01*
X22895119Y43750000D01*
X22847500Y43702381D01*
X21942738Y42797620D02*
X22418928Y42797620D01*
X22418928Y43797620D01*
X21609404Y42797620D02*
X21609404Y43797620D01*
X21037976Y42797620D02*
X21466547Y43369048D01*
X21037976Y43797620D02*
X21609404Y43226191D01*
X59381071Y83321429D02*
X59714404Y83321429D01*
X59714404Y82797620D02*
X59714404Y83797620D01*
X59238214Y83797620D01*
X58952500Y83797620D02*
X58714404Y82797620D01*
X58523928Y83511905D01*
X58333452Y82797620D01*
X58095357Y83797620D01*
X57714404Y82797620D02*
X57714404Y83797620D01*
X57476309Y83797620D01*
X57333452Y83750000D01*
X57238214Y83654762D01*
X57190595Y83559524D01*
X57142976Y83369048D01*
X57142976Y83226191D01*
X57190595Y83035715D01*
X57238214Y82940477D01*
X57333452Y82845239D01*
X57476309Y82797620D01*
X57714404Y82797620D01*
X18980357Y31747620D02*
X19551785Y31747620D01*
X19266071Y31747620D02*
X19266071Y32747620D01*
X19361309Y32604762D01*
X19456547Y32509524D01*
X19551785Y32461905D01*
X18361309Y32747620D02*
X18266071Y32747620D01*
X18170833Y32700000D01*
X18123214Y32652381D01*
X18075595Y32557143D01*
X18027976Y32366667D01*
X18027976Y32128572D01*
X18075595Y31938096D01*
X18123214Y31842858D01*
X18170833Y31795239D01*
X18266071Y31747620D01*
X18361309Y31747620D01*
X18456547Y31795239D01*
X18504166Y31842858D01*
X18551785Y31938096D01*
X18599404Y32128572D01*
X18599404Y32366667D01*
X18551785Y32557143D01*
X18504166Y32652381D01*
X18456547Y32700000D01*
X18361309Y32747620D01*
X59242976Y57792858D02*
X59290595Y57745239D01*
X59433452Y57697620D01*
X59528690Y57697620D01*
X59671547Y57745239D01*
X59766785Y57840477D01*
X59814404Y57935715D01*
X59862023Y58126191D01*
X59862023Y58269048D01*
X59814404Y58459524D01*
X59766785Y58554762D01*
X59671547Y58650000D01*
X59528690Y58697620D01*
X59433452Y58697620D01*
X59290595Y58650000D01*
X59242976Y58602381D01*
X58623928Y58697620D02*
X58433452Y58697620D01*
X58338214Y58650000D01*
X58242976Y58554762D01*
X58195357Y58364286D01*
X58195357Y58030953D01*
X58242976Y57840477D01*
X58338214Y57745239D01*
X58433452Y57697620D01*
X58623928Y57697620D01*
X58719166Y57745239D01*
X58814404Y57840477D01*
X58862023Y58030953D01*
X58862023Y58364286D01*
X58814404Y58554762D01*
X58719166Y58650000D01*
X58623928Y58697620D01*
X57766785Y57697620D02*
X57766785Y58697620D01*
X57433452Y57983334D01*
X57100119Y58697620D01*
X57100119Y57697620D01*
X64011904Y111300000D02*
X64107142Y111347620D01*
X64250000Y111347620D01*
X64392857Y111300000D01*
X64488095Y111204762D01*
X64535714Y111109524D01*
X64583333Y110919048D01*
X64583333Y110776191D01*
X64535714Y110585715D01*
X64488095Y110490477D01*
X64392857Y110395239D01*
X64250000Y110347620D01*
X64154761Y110347620D01*
X64011904Y110395239D01*
X63964285Y110442858D01*
X63964285Y110776191D01*
X64154761Y110776191D01*
X63535714Y110347620D02*
X63535714Y111347620D01*
X62964285Y110347620D01*
X62964285Y111347620D01*
X62488095Y110347620D02*
X62488095Y111347620D01*
X62250000Y111347620D01*
X62107142Y111300000D01*
X62011904Y111204762D01*
X61964285Y111109524D01*
X61916666Y110919048D01*
X61916666Y110776191D01*
X61964285Y110585715D01*
X62011904Y110490477D01*
X62107142Y110395239D01*
X62250000Y110347620D01*
X62488095Y110347620D01*
X8314404Y55821429D02*
X7981071Y55821429D01*
X7838214Y55297620D02*
X8314404Y55297620D01*
X8314404Y56297620D01*
X7838214Y56297620D01*
X7409642Y55297620D02*
X7409642Y56297620D01*
X6838214Y55297620D01*
X6838214Y56297620D01*
D15*
X49135714Y56373810D02*
X49173809Y56411905D01*
X49211904Y56526191D01*
X49211904Y56602381D01*
X49173809Y56716667D01*
X49097619Y56792858D01*
X49021428Y56830953D01*
X48869047Y56869048D01*
X48754761Y56869048D01*
X48602380Y56830953D01*
X48526190Y56792858D01*
X48450000Y56716667D01*
X48411904Y56602381D01*
X48411904Y56526191D01*
X48450000Y56411905D01*
X48488095Y56373810D01*
X48411904Y55878572D02*
X48411904Y55726191D01*
X48450000Y55650000D01*
X48526190Y55573810D01*
X48678571Y55535715D01*
X48945238Y55535715D01*
X49097619Y55573810D01*
X49173809Y55650000D01*
X49211904Y55726191D01*
X49211904Y55878572D01*
X49173809Y55954762D01*
X49097619Y56030953D01*
X48945238Y56069048D01*
X48678571Y56069048D01*
X48526190Y56030953D01*
X48450000Y55954762D01*
X48411904Y55878572D01*
X49211904Y55192858D02*
X48411904Y55192858D01*
X48983333Y54926191D01*
X48411904Y54659524D01*
X49211904Y54659524D01*
X49211904Y54278572D02*
X48411904Y54278572D01*
X48983333Y54011905D01*
X48411904Y53745239D01*
X49211904Y53745239D01*
X48411904Y53211905D02*
X48411904Y53059524D01*
X48450000Y52983334D01*
X48526190Y52907143D01*
X48678571Y52869048D01*
X48945238Y52869048D01*
X49097619Y52907143D01*
X49173809Y52983334D01*
X49211904Y53059524D01*
X49211904Y53211905D01*
X49173809Y53288096D01*
X49097619Y53364286D01*
X48945238Y53402381D01*
X48678571Y53402381D01*
X48526190Y53364286D01*
X48450000Y53288096D01*
X48411904Y53211905D01*
X49211904Y52526191D02*
X48411904Y52526191D01*
X49211904Y52069048D01*
X48411904Y52069048D01*
D12*
X18990357Y26197620D02*
X19561785Y26197620D01*
X19276071Y26197620D02*
X19276071Y27197620D01*
X19371309Y27054762D01*
X19466547Y26959524D01*
X19561785Y26911905D01*
X18609404Y27102381D02*
X18561785Y27150000D01*
X18466547Y27197620D01*
X18228452Y27197620D01*
X18133214Y27150000D01*
X18085595Y27102381D01*
X18037976Y27007143D01*
X18037976Y26911905D01*
X18085595Y26769048D01*
X18657023Y26197620D01*
X18037976Y26197620D01*
X24418928Y54897620D02*
X23752261Y53897620D01*
X23752261Y54897620D02*
X24418928Y53897620D01*
X22799880Y53992858D02*
X22847500Y53945239D01*
X22990357Y53897620D01*
X23085595Y53897620D01*
X23228452Y53945239D01*
X23323690Y54040477D01*
X23371309Y54135715D01*
X23418928Y54326191D01*
X23418928Y54469048D01*
X23371309Y54659524D01*
X23323690Y54754762D01*
X23228452Y54850000D01*
X23085595Y54897620D01*
X22990357Y54897620D01*
X22847500Y54850000D01*
X22799880Y54802381D01*
X21895119Y53897620D02*
X22371309Y53897620D01*
X22371309Y54897620D01*
X21657023Y54897620D02*
X20990357Y53897620D01*
X20990357Y54897620D02*
X21657023Y53897620D01*
X18425328Y37869048D02*
X18520566Y37916667D01*
X18568185Y37964286D01*
X18615804Y38059524D01*
X18615804Y38107143D01*
X18568185Y38202381D01*
X18520566Y38250000D01*
X18425328Y38297620D01*
X18234852Y38297620D01*
X18139614Y38250000D01*
X18091995Y38202381D01*
X18044376Y38107143D01*
X18044376Y38059524D01*
X18091995Y37964286D01*
X18139614Y37916667D01*
X18234852Y37869048D01*
X18425328Y37869048D01*
X18520566Y37821429D01*
X18568185Y37773810D01*
X18615804Y37678572D01*
X18615804Y37488096D01*
X18568185Y37392858D01*
X18520566Y37345239D01*
X18425328Y37297620D01*
X18234852Y37297620D01*
X18139614Y37345239D01*
X18091995Y37392858D01*
X18044376Y37488096D01*
X18044376Y37678572D01*
X18091995Y37773810D01*
X18139614Y37821429D01*
X18234852Y37869048D01*
D10*
X64350000Y119691108D02*
X64383333Y119660155D01*
X64483333Y119629203D01*
X64550000Y119629203D01*
X64650000Y119660155D01*
X64716666Y119722060D01*
X64750000Y119783965D01*
X64783333Y119907774D01*
X64783333Y120000631D01*
X64750000Y120124441D01*
X64716666Y120186346D01*
X64650000Y120248250D01*
X64550000Y120279203D01*
X64483333Y120279203D01*
X64383333Y120248250D01*
X64350000Y120217298D01*
X64050000Y119629203D02*
X64050000Y120279203D01*
X64050000Y119969679D02*
X63650000Y119969679D01*
X63650000Y119629203D02*
X63650000Y120279203D01*
X63350000Y119814917D02*
X63016666Y119814917D01*
X63416666Y119629203D02*
X63183333Y120279203D01*
X62950000Y119629203D01*
X62316666Y119629203D02*
X62550000Y119938727D01*
X62716666Y119629203D02*
X62716666Y120279203D01*
X62450000Y120279203D01*
X62383333Y120248250D01*
X62350000Y120217298D01*
X62316666Y120155393D01*
X62316666Y120062536D01*
X62350000Y120000631D01*
X62383333Y119969679D01*
X62450000Y119938727D01*
X62716666Y119938727D01*
X61650000Y120248250D02*
X61716666Y120279203D01*
X61816666Y120279203D01*
X61916666Y120248250D01*
X61983333Y120186346D01*
X62016666Y120124441D01*
X62050000Y120000631D01*
X62050000Y119907774D01*
X62016666Y119783965D01*
X61983333Y119722060D01*
X61916666Y119660155D01*
X61816666Y119629203D01*
X61750000Y119629203D01*
X61650000Y119660155D01*
X61616666Y119691108D01*
X61616666Y119907774D01*
X61750000Y119907774D01*
X61316666Y119969679D02*
X61083333Y119969679D01*
X60983333Y119629203D02*
X61316666Y119629203D01*
X61316666Y120279203D01*
X60983333Y120279203D01*
X60150000Y119629203D02*
X60150000Y120279203D01*
X59883333Y120279203D01*
X59816666Y120248250D01*
X59783333Y120217298D01*
X59750000Y120155393D01*
X59750000Y120062536D01*
X59783333Y120000631D01*
X59816666Y119969679D01*
X59883333Y119938727D01*
X60150000Y119938727D01*
X59450000Y120279203D02*
X59450000Y119753012D01*
X59416666Y119691108D01*
X59383333Y119660155D01*
X59316666Y119629203D01*
X59183333Y119629203D01*
X59116666Y119660155D01*
X59083333Y119691108D01*
X59050000Y119753012D01*
X59050000Y120279203D01*
X58716666Y119629203D02*
X58716666Y120279203D01*
X58483333Y119814917D01*
X58250000Y120279203D01*
X58250000Y119629203D01*
X57916666Y119629203D02*
X57916666Y120279203D01*
X57650000Y120279203D01*
X57583333Y120248250D01*
X57550000Y120217298D01*
X57516666Y120155393D01*
X57516666Y120062536D01*
X57550000Y120000631D01*
X57583333Y119969679D01*
X57650000Y119938727D01*
X57916666Y119938727D01*
X63566666Y118613655D02*
X63466666Y118582703D01*
X63300000Y118582703D01*
X63233333Y118613655D01*
X63200000Y118644608D01*
X63166666Y118706512D01*
X63166666Y118768417D01*
X63200000Y118830322D01*
X63233333Y118861274D01*
X63300000Y118892227D01*
X63433333Y118923179D01*
X63500000Y118954131D01*
X63533333Y118985084D01*
X63566666Y119046989D01*
X63566666Y119108893D01*
X63533333Y119170798D01*
X63500000Y119201750D01*
X63433333Y119232703D01*
X63266666Y119232703D01*
X63166666Y119201750D01*
X62933333Y119232703D02*
X62766666Y118582703D01*
X62633333Y119046989D01*
X62500000Y118582703D01*
X62333333Y119232703D01*
X62066666Y118582703D02*
X62066666Y119232703D01*
X61833333Y119232703D02*
X61433333Y119232703D01*
X61633333Y118582703D02*
X61633333Y119232703D01*
X60800000Y118644608D02*
X60833333Y118613655D01*
X60933333Y118582703D01*
X61000000Y118582703D01*
X61100000Y118613655D01*
X61166666Y118675560D01*
X61200000Y118737465D01*
X61233333Y118861274D01*
X61233333Y118954131D01*
X61200000Y119077941D01*
X61166666Y119139846D01*
X61100000Y119201750D01*
X61000000Y119232703D01*
X60933333Y119232703D01*
X60833333Y119201750D01*
X60800000Y119170798D01*
X60500000Y118582703D02*
X60500000Y119232703D01*
X60500000Y118923179D02*
X60100000Y118923179D01*
X60100000Y118582703D02*
X60100000Y119232703D01*
X59766666Y118923179D02*
X59533333Y118923179D01*
X59433333Y118582703D02*
X59766666Y118582703D01*
X59766666Y119232703D01*
X59433333Y119232703D01*
X59133333Y118582703D02*
X59133333Y119232703D01*
X58966666Y119232703D01*
X58866666Y119201750D01*
X58800000Y119139846D01*
X58766666Y119077941D01*
X58733333Y118954131D01*
X58733333Y118861274D01*
X58766666Y118737465D01*
X58800000Y118675560D01*
X58866666Y118613655D01*
X58966666Y118582703D01*
X59133333Y118582703D01*
D12*
X30278571Y17402262D02*
X30326190Y17259405D01*
X30373809Y17211786D01*
X30469047Y17164167D01*
X30611904Y17164167D01*
X30707142Y17211786D01*
X30754761Y17259405D01*
X30802380Y17354643D01*
X30802380Y17735596D01*
X29802380Y17735596D01*
X29802380Y17402262D01*
X29850000Y17307024D01*
X29897619Y17259405D01*
X29992857Y17211786D01*
X30088095Y17211786D01*
X30183333Y17259405D01*
X30230952Y17307024D01*
X30278571Y17402262D01*
X30278571Y17735596D01*
X30802380Y16735596D02*
X30135714Y16735596D01*
X29802380Y16735596D02*
X29850000Y16783215D01*
X29897619Y16735596D01*
X29850000Y16687977D01*
X29802380Y16735596D01*
X29897619Y16735596D01*
X30135714Y16402262D02*
X30135714Y16021310D01*
X29802380Y16259405D02*
X30659523Y16259405D01*
X30754761Y16211786D01*
X30802380Y16116548D01*
X30802380Y16021310D01*
X30754761Y15735596D02*
X30802380Y15592739D01*
X30802380Y15354643D01*
X30754761Y15259405D01*
X30707142Y15211786D01*
X30611904Y15164167D01*
X30516666Y15164167D01*
X30421428Y15211786D01*
X30373809Y15259405D01*
X30326190Y15354643D01*
X30278571Y15545120D01*
X30230952Y15640358D01*
X30183333Y15687977D01*
X30088095Y15735596D01*
X29992857Y15735596D01*
X29897619Y15687977D01*
X29850000Y15640358D01*
X29802380Y15545120D01*
X29802380Y15307024D01*
X29850000Y15164167D01*
X30754761Y14354643D02*
X30802380Y14449881D01*
X30802380Y14640358D01*
X30754761Y14735596D01*
X30659523Y14783215D01*
X30278571Y14783215D01*
X30183333Y14735596D01*
X30135714Y14640358D01*
X30135714Y14449881D01*
X30183333Y14354643D01*
X30278571Y14307024D01*
X30373809Y14307024D01*
X30469047Y14783215D01*
X30135714Y14021310D02*
X30135714Y13640358D01*
X29802380Y13878453D02*
X30659523Y13878453D01*
X30754761Y13830834D01*
X30802380Y13735596D01*
X30802380Y13640358D01*
X30135714Y13449881D02*
X30135714Y13068929D01*
X29802380Y13307024D02*
X30659523Y13307024D01*
X30754761Y13259405D01*
X30802380Y13164167D01*
X30802380Y13068929D01*
X30754761Y12354643D02*
X30802380Y12449881D01*
X30802380Y12640358D01*
X30754761Y12735596D01*
X30659523Y12783215D01*
X30278571Y12783215D01*
X30183333Y12735596D01*
X30135714Y12640358D01*
X30135714Y12449881D01*
X30183333Y12354643D01*
X30278571Y12307024D01*
X30373809Y12307024D01*
X30469047Y12783215D01*
X30802380Y11878453D02*
X30135714Y11878453D01*
X30326190Y11878453D02*
X30230952Y11830834D01*
X30183333Y11783215D01*
X30135714Y11687977D01*
X30135714Y11592739D01*
X59909642Y38625620D02*
X59242976Y38625620D01*
X59909642Y37625620D01*
X59242976Y37625620D01*
X58862023Y37625620D02*
X58862023Y38625620D01*
X58623928Y38625620D01*
X58481071Y38578000D01*
X58385833Y38482762D01*
X58338214Y38387524D01*
X58290595Y38197048D01*
X58290595Y38054191D01*
X58338214Y37863715D01*
X58385833Y37768477D01*
X58481071Y37673239D01*
X58623928Y37625620D01*
X58862023Y37625620D01*
X57862023Y37625620D02*
X57862023Y38625620D01*
X56814404Y37625620D02*
X57147738Y38101810D01*
X57385833Y37625620D02*
X57385833Y38625620D01*
X57004880Y38625620D01*
X56909642Y38578000D01*
X56862023Y38530381D01*
X56814404Y38435143D01*
X56814404Y38292286D01*
X56862023Y38197048D01*
X56909642Y38149429D01*
X57004880Y38101810D01*
X57385833Y38101810D01*
D17*
X59557714Y76575000D02*
X59586285Y76603572D01*
X59643428Y76689286D01*
X59672000Y76746429D01*
X59700571Y76832143D01*
X59729142Y76975000D01*
X59729142Y77089286D01*
X59700571Y77232143D01*
X59672000Y77317858D01*
X59643428Y77375000D01*
X59586285Y77460715D01*
X59557714Y77489286D01*
X59357714Y76832143D02*
X59272000Y76803572D01*
X59129142Y76803572D01*
X59072000Y76832143D01*
X59043428Y76860715D01*
X59014857Y76917858D01*
X59014857Y76975000D01*
X59043428Y77032143D01*
X59072000Y77060715D01*
X59129142Y77089286D01*
X59243428Y77117858D01*
X59300571Y77146429D01*
X59329142Y77175000D01*
X59357714Y77232143D01*
X59357714Y77289286D01*
X59329142Y77346429D01*
X59300571Y77375000D01*
X59243428Y77403572D01*
X59100571Y77403572D01*
X59014857Y77375000D01*
X58757714Y76803572D02*
X58757714Y77403572D01*
X58757714Y77117858D02*
X58414857Y77117858D01*
X58414857Y76803572D02*
X58414857Y77403572D01*
X58129142Y76803572D02*
X58129142Y77403572D01*
X57843428Y77117858D02*
X57643428Y77117858D01*
X57557714Y76803572D02*
X57843428Y76803572D01*
X57843428Y77403572D01*
X57557714Y77403572D01*
X57014857Y76803572D02*
X57300571Y76803572D01*
X57300571Y77403572D01*
X56814857Y76803572D02*
X56814857Y77403572D01*
X56672000Y77403572D01*
X56586285Y77375000D01*
X56529142Y77317858D01*
X56500571Y77260715D01*
X56472000Y77146429D01*
X56472000Y77060715D01*
X56500571Y76946429D01*
X56529142Y76889286D01*
X56586285Y76832143D01*
X56672000Y76803572D01*
X56814857Y76803572D01*
X56272000Y76575000D02*
X56243428Y76603572D01*
X56186285Y76689286D01*
X56157714Y76746429D01*
X56129142Y76832143D01*
X56100571Y76975000D01*
X56100571Y77089286D01*
X56129142Y77232143D01*
X56157714Y77317858D01*
X56186285Y77375000D01*
X56243428Y77460715D01*
X56272000Y77489286D01*
D12*
X46657023Y51397620D02*
X45990357Y50397620D01*
X45990357Y51397620D02*
X46657023Y50397620D01*
X39990595Y54350000D02*
X40085833Y54397620D01*
X40228690Y54397620D01*
X40371547Y54350000D01*
X40466785Y54254762D01*
X40514404Y54159524D01*
X40562023Y53969048D01*
X40562023Y53826191D01*
X40514404Y53635715D01*
X40466785Y53540477D01*
X40371547Y53445239D01*
X40228690Y53397620D01*
X40133452Y53397620D01*
X39990595Y53445239D01*
X39942976Y53492858D01*
X39942976Y53826191D01*
X40133452Y53826191D01*
X39514404Y53397620D02*
X39514404Y54397620D01*
X38942976Y53397620D01*
X38942976Y54397620D01*
X38466785Y53397620D02*
X38466785Y54397620D01*
X38228690Y54397620D01*
X38085833Y54350000D01*
X37990595Y54254762D01*
X37942976Y54159524D01*
X37895357Y53969048D01*
X37895357Y53826191D01*
X37942976Y53635715D01*
X37990595Y53540477D01*
X38085833Y53445239D01*
X38228690Y53397620D01*
X38466785Y53397620D01*
X59909642Y41097620D02*
X59242976Y41097620D01*
X59909642Y40097620D01*
X59242976Y40097620D01*
X58290595Y40192858D02*
X58338214Y40145239D01*
X58481071Y40097620D01*
X58576309Y40097620D01*
X58719166Y40145239D01*
X58814404Y40240477D01*
X58862023Y40335715D01*
X58909642Y40526191D01*
X58909642Y40669048D01*
X58862023Y40859524D01*
X58814404Y40954762D01*
X58719166Y41050000D01*
X58576309Y41097620D01*
X58481071Y41097620D01*
X58338214Y41050000D01*
X58290595Y41002381D01*
X57385833Y40097620D02*
X57862023Y40097620D01*
X57862023Y41097620D01*
X57052500Y40097620D02*
X57052500Y41097620D01*
X56481071Y40097620D02*
X56909642Y40669048D01*
X56481071Y41097620D02*
X57052500Y40526191D01*
X35000000Y13783215D02*
X34952380Y13878453D01*
X34952380Y14021310D01*
X35000000Y14164167D01*
X35095238Y14259405D01*
X35190476Y14307024D01*
X35380952Y14354643D01*
X35523809Y14354643D01*
X35714285Y14307024D01*
X35809523Y14259405D01*
X35904761Y14164167D01*
X35952380Y14021310D01*
X35952380Y13926072D01*
X35904761Y13783215D01*
X35857142Y13735596D01*
X35523809Y13735596D01*
X35523809Y13926072D01*
X35952380Y13307024D02*
X34952380Y13307024D01*
X35952380Y12735596D01*
X34952380Y12735596D01*
X35952380Y12259405D02*
X34952380Y12259405D01*
X34952380Y12021310D01*
X35000000Y11878453D01*
X35095238Y11783215D01*
X35190476Y11735596D01*
X35380952Y11687977D01*
X35523809Y11687977D01*
X35714285Y11735596D01*
X35809523Y11783215D01*
X35904761Y11878453D01*
X35952380Y12021310D01*
X35952380Y12259405D01*
X59714404Y98897620D02*
X59714404Y99897620D01*
X59333452Y99897620D01*
X59238214Y99850000D01*
X59190595Y99802381D01*
X59142976Y99707143D01*
X59142976Y99564286D01*
X59190595Y99469048D01*
X59238214Y99421429D01*
X59333452Y99373810D01*
X59714404Y99373810D01*
X58190595Y98897620D02*
X58762023Y98897620D01*
X58476309Y98897620D02*
X58476309Y99897620D01*
X58571547Y99754762D01*
X58666785Y99659524D01*
X58762023Y99611905D01*
X57333452Y99897620D02*
X57523928Y99897620D01*
X57619166Y99850000D01*
X57666785Y99802381D01*
X57762023Y99659524D01*
X57809642Y99469048D01*
X57809642Y99088096D01*
X57762023Y98992858D01*
X57714404Y98945239D01*
X57619166Y98897620D01*
X57428690Y98897620D01*
X57333452Y98945239D01*
X57285833Y98992858D01*
X57238214Y99088096D01*
X57238214Y99326191D01*
X57285833Y99421429D01*
X57333452Y99469048D01*
X57428690Y99516667D01*
X57619166Y99516667D01*
X57714404Y99469048D01*
X57762023Y99421429D01*
X57809642Y99326191D01*
D13*
X40622642Y56578572D02*
X40622642Y57178572D01*
X40279785Y56578572D01*
X40279785Y57178572D01*
X39651214Y56635715D02*
X39679785Y56607143D01*
X39765500Y56578572D01*
X39822642Y56578572D01*
X39908357Y56607143D01*
X39965500Y56664286D01*
X39994071Y56721429D01*
X40022642Y56835715D01*
X40022642Y56921429D01*
X39994071Y57035715D01*
X39965500Y57092858D01*
X39908357Y57150000D01*
X39822642Y57178572D01*
X39765500Y57178572D01*
X39679785Y57150000D01*
X39651214Y57121429D01*
D12*
X18148614Y43797620D02*
X18339090Y43797620D01*
X18434328Y43750000D01*
X18481947Y43702381D01*
X18577185Y43559524D01*
X18624804Y43369048D01*
X18624804Y42988096D01*
X18577185Y42892858D01*
X18529566Y42845239D01*
X18434328Y42797620D01*
X18243852Y42797620D01*
X18148614Y42845239D01*
X18100995Y42892858D01*
X18053376Y42988096D01*
X18053376Y43226191D01*
X18100995Y43321429D01*
X18148614Y43369048D01*
X18243852Y43416667D01*
X18434328Y43416667D01*
X18529566Y43369048D01*
X18577185Y43321429D01*
X18624804Y43226191D01*
D13*
X46920214Y37778572D02*
X46920214Y38378572D01*
X46577357Y37778572D01*
X46577357Y38378572D01*
X45948785Y37835715D02*
X45977357Y37807143D01*
X46063071Y37778572D01*
X46120214Y37778572D01*
X46205928Y37807143D01*
X46263071Y37864286D01*
X46291642Y37921429D01*
X46320214Y38035715D01*
X46320214Y38121429D01*
X46291642Y38235715D01*
X46263071Y38292858D01*
X46205928Y38350000D01*
X46120214Y38378572D01*
X46063071Y38378572D01*
X45977357Y38350000D01*
X45948785Y38321429D01*
D12*
X22871428Y14307024D02*
X22871428Y13545120D01*
X23252380Y13926072D02*
X22490476Y13926072D01*
X22252380Y12592739D02*
X22252380Y13068929D01*
X22728571Y13116548D01*
X22680952Y13068929D01*
X22633333Y12973691D01*
X22633333Y12735596D01*
X22680952Y12640358D01*
X22728571Y12592739D01*
X22823809Y12545120D01*
X23061904Y12545120D01*
X23157142Y12592739D01*
X23204761Y12640358D01*
X23252380Y12735596D01*
X23252380Y12973691D01*
X23204761Y13068929D01*
X23157142Y13116548D01*
X22252380Y12259405D02*
X23252380Y11926072D01*
X22252380Y11592739D01*
X59809642Y86297620D02*
X59142976Y85297620D01*
X59142976Y86297620D02*
X59809642Y85297620D01*
X58238214Y86250000D02*
X58333452Y86297620D01*
X58476309Y86297620D01*
X58619166Y86250000D01*
X58714404Y86154762D01*
X58762023Y86059524D01*
X58809642Y85869048D01*
X58809642Y85726191D01*
X58762023Y85535715D01*
X58714404Y85440477D01*
X58619166Y85345239D01*
X58476309Y85297620D01*
X58381071Y85297620D01*
X58238214Y85345239D01*
X58190595Y85392858D01*
X58190595Y85726191D01*
X58381071Y85726191D01*
X57762023Y85297620D02*
X57762023Y86297620D01*
X57190595Y85297620D01*
X57190595Y86297620D01*
X56714404Y85297620D02*
X56714404Y86297620D01*
X56476309Y86297620D01*
X56333452Y86250000D01*
X56238214Y86154762D01*
X56190595Y86059524D01*
X56142976Y85869048D01*
X56142976Y85726191D01*
X56190595Y85535715D01*
X56238214Y85440477D01*
X56333452Y85345239D01*
X56476309Y85297620D01*
X56714404Y85297620D01*
X8314404Y53021429D02*
X7981071Y53021429D01*
X7838214Y52497620D02*
X8314404Y52497620D01*
X8314404Y53497620D01*
X7838214Y53497620D01*
X7457261Y52545239D02*
X7314404Y52497620D01*
X7076309Y52497620D01*
X6981071Y52545239D01*
X6933452Y52592858D01*
X6885833Y52688096D01*
X6885833Y52783334D01*
X6933452Y52878572D01*
X6981071Y52926191D01*
X7076309Y52973810D01*
X7266785Y53021429D01*
X7362023Y53069048D01*
X7409642Y53116667D01*
X7457261Y53211905D01*
X7457261Y53307143D01*
X7409642Y53402381D01*
X7362023Y53450000D01*
X7266785Y53497620D01*
X7028690Y53497620D01*
X6885833Y53450000D01*
X59290595Y28600600D02*
X59385833Y28648220D01*
X59528690Y28648220D01*
X59671547Y28600600D01*
X59766785Y28505362D01*
X59814404Y28410124D01*
X59862023Y28219648D01*
X59862023Y28076791D01*
X59814404Y27886315D01*
X59766785Y27791077D01*
X59671547Y27695839D01*
X59528690Y27648220D01*
X59433452Y27648220D01*
X59290595Y27695839D01*
X59242976Y27743458D01*
X59242976Y28076791D01*
X59433452Y28076791D01*
X58814404Y27648220D02*
X58814404Y28648220D01*
X58242976Y27648220D01*
X58242976Y28648220D01*
X57766785Y27648220D02*
X57766785Y28648220D01*
X57528690Y28648220D01*
X57385833Y28600600D01*
X57290595Y28505362D01*
X57242976Y28410124D01*
X57195357Y28219648D01*
X57195357Y28076791D01*
X57242976Y27886315D01*
X57290595Y27791077D01*
X57385833Y27695839D01*
X57528690Y27648220D01*
X57766785Y27648220D01*
X40514404Y50848572D02*
X39752500Y50848572D01*
X40133452Y50467620D02*
X40133452Y51229524D01*
X38800119Y51467620D02*
X39276309Y51467620D01*
X39323928Y50991429D01*
X39276309Y51039048D01*
X39181071Y51086667D01*
X38942976Y51086667D01*
X38847738Y51039048D01*
X38800119Y50991429D01*
X38752500Y50896191D01*
X38752500Y50658096D01*
X38800119Y50562858D01*
X38847738Y50515239D01*
X38942976Y50467620D01*
X39181071Y50467620D01*
X39276309Y50515239D01*
X39323928Y50562858D01*
X38466785Y51467620D02*
X38133452Y50467620D01*
X37800119Y51467620D01*
X59242976Y25098220D02*
X59576309Y25574410D01*
X59814404Y25098220D02*
X59814404Y26098220D01*
X59433452Y26098220D01*
X59338214Y26050600D01*
X59290595Y26002981D01*
X59242976Y25907743D01*
X59242976Y25764886D01*
X59290595Y25669648D01*
X59338214Y25622029D01*
X59433452Y25574410D01*
X59814404Y25574410D01*
X58338214Y25098220D02*
X58814404Y25098220D01*
X58814404Y26098220D01*
X57814404Y25574410D02*
X57814404Y25098220D01*
X58147738Y26098220D02*
X57814404Y25574410D01*
X57481071Y26098220D01*
X56623928Y25098220D02*
X57195357Y25098220D01*
X56909642Y25098220D02*
X56909642Y26098220D01*
X57004880Y25955362D01*
X57100119Y25860124D01*
X57195357Y25812505D01*
X57766395Y94950000D02*
X57861633Y94997620D01*
X58004490Y94997620D01*
X58147347Y94950000D01*
X58242585Y94854762D01*
X58290204Y94759524D01*
X58337823Y94569048D01*
X58337823Y94426191D01*
X58290204Y94235715D01*
X58242585Y94140477D01*
X58147347Y94045239D01*
X58004490Y93997620D01*
X57909252Y93997620D01*
X57766395Y94045239D01*
X57718776Y94092858D01*
X57718776Y94426191D01*
X57909252Y94426191D01*
X57290204Y93997620D02*
X57290204Y94997620D01*
X56718776Y93997620D01*
X56718776Y94997620D01*
X56242585Y93997620D02*
X56242585Y94997620D01*
X56004490Y94997620D01*
X55861633Y94950000D01*
X55766395Y94854762D01*
X55718776Y94759524D01*
X55671157Y94569048D01*
X55671157Y94426191D01*
X55718776Y94235715D01*
X55766395Y94140477D01*
X55861633Y94045239D01*
X56004490Y93997620D01*
X56242585Y93997620D01*
D13*
X40622642Y47578572D02*
X40622642Y48178572D01*
X40279785Y47578572D01*
X40279785Y48178572D01*
X39651214Y47635715D02*
X39679785Y47607143D01*
X39765500Y47578572D01*
X39822642Y47578572D01*
X39908357Y47607143D01*
X39965500Y47664286D01*
X39994071Y47721429D01*
X40022642Y47835715D01*
X40022642Y47921429D01*
X39994071Y48035715D01*
X39965500Y48092858D01*
X39908357Y48150000D01*
X39822642Y48178572D01*
X39765500Y48178572D01*
X39679785Y48150000D01*
X39651214Y48121429D01*
D12*
X11150595Y49757620D02*
X11722023Y49757620D01*
X11436309Y49757620D02*
X11436309Y50757620D01*
X11531547Y50614762D01*
X11626785Y50519524D01*
X11722023Y50471905D01*
X10293452Y50757620D02*
X10483928Y50757620D01*
X10579166Y50710000D01*
X10626785Y50662381D01*
X10722023Y50519524D01*
X10769642Y50329048D01*
X10769642Y49948096D01*
X10722023Y49852858D01*
X10674404Y49805239D01*
X10579166Y49757620D01*
X10388690Y49757620D01*
X10293452Y49805239D01*
X10245833Y49852858D01*
X10198214Y49948096D01*
X10198214Y50186191D01*
X10245833Y50281429D01*
X10293452Y50329048D01*
X10388690Y50376667D01*
X10579166Y50376667D01*
X10674404Y50329048D01*
X10722023Y50281429D01*
X10769642Y50186191D01*
D18*
X24342000Y58090667D02*
X24375333Y58124000D01*
X24442000Y58224000D01*
X24475333Y58290667D01*
X24508666Y58390667D01*
X24542000Y58557334D01*
X24542000Y58690667D01*
X24508666Y58857334D01*
X24475333Y58957334D01*
X24442000Y59024000D01*
X24375333Y59124000D01*
X24342000Y59157334D01*
X23875333Y59057334D02*
X23875333Y58557334D01*
X23908666Y58457334D01*
X23975333Y58390667D01*
X24075333Y58357334D01*
X24142000Y58357334D01*
X23542000Y58357334D02*
X23542000Y59057334D01*
X23275333Y59057334D01*
X23208666Y59024000D01*
X23175333Y58990667D01*
X23142000Y58924000D01*
X23142000Y58824000D01*
X23175333Y58757334D01*
X23208666Y58724000D01*
X23275333Y58690667D01*
X23542000Y58690667D01*
X22908666Y59057334D02*
X22475333Y59057334D01*
X22708666Y58790667D01*
X22608666Y58790667D01*
X22542000Y58757334D01*
X22508666Y58724000D01*
X22475333Y58657334D01*
X22475333Y58490667D01*
X22508666Y58424000D01*
X22542000Y58390667D01*
X22608666Y58357334D01*
X22808666Y58357334D01*
X22875333Y58390667D01*
X22908666Y58424000D01*
X22242000Y58090667D02*
X22208666Y58124000D01*
X22142000Y58224000D01*
X22108666Y58290667D01*
X22075333Y58390667D01*
X22042000Y58557334D01*
X22042000Y58690667D01*
X22075333Y58857334D01*
X22108666Y58957334D01*
X22142000Y59024000D01*
X22208666Y59124000D01*
X22242000Y59157334D01*
D17*
%TO.C,K1*%
X51900000Y77900000D02*
X51900000Y78982800D01*
X41150000Y84050000D02*
X41800000Y84050000D01*
X51082200Y82950000D02*
X50750000Y83100000D01*
X51082200Y82950000D02*
X50750000Y82800000D01*
X51082200Y82950000D02*
X50400000Y82950000D01*
D12*
X51850000Y79550000D02*
X51200000Y83350000D01*
D17*
X52700000Y82950000D02*
X53032200Y82800000D01*
X41800000Y84050000D02*
X41800000Y81750000D01*
X52700000Y82950000D02*
X53032200Y83100000D01*
X41800000Y78750000D02*
X41800000Y76430000D01*
X41800000Y76425000D02*
X41150000Y76425000D01*
X52700000Y82950000D02*
X53750000Y82950000D01*
X41290000Y80755000D02*
X42310000Y79745000D01*
X41300000Y78750000D02*
X42300000Y78750000D01*
X42300000Y78750000D02*
X42300000Y81750000D01*
X42300000Y81750000D02*
X41300000Y81750000D01*
X41300000Y81750000D02*
X41300000Y78750000D01*
X52154000Y79250000D02*
G75*
G03*
X52154000Y79250000I-254000J0D01*
G01*
%TD*%
%LPC*%
D19*
%TO.C,JP7*%
X51150000Y36725000D03*
D20*
X51150000Y39265000D03*
X51150000Y41805000D03*
%TD*%
D21*
%TO.C,J12*%
X40871000Y22210000D03*
X40871000Y7210000D03*
D22*
X44811000Y19210000D03*
D23*
X44811000Y16210000D03*
X44811000Y13210000D03*
X44811000Y10210000D03*
X41811000Y19210000D03*
X41811000Y16210000D03*
X41811000Y13210000D03*
X41811000Y10210000D03*
%TD*%
D19*
%TO.C,JP4*%
X26125000Y112250000D03*
D20*
X23585000Y112250000D03*
%TD*%
D24*
%TO.C,J3*%
X60450000Y116050000D03*
D25*
X60450000Y110970000D03*
%TD*%
D21*
%TO.C,J2*%
X33150000Y119940000D03*
X24150000Y119940000D03*
D26*
X27150000Y123880000D03*
D23*
X30150000Y123880000D03*
X27150000Y120880000D03*
X30150000Y120880000D03*
%TD*%
D27*
%TO.C,J14*%
X64090000Y94590000D03*
X64090000Y92050000D03*
D28*
X61550000Y92050000D03*
D29*
X61550000Y94590000D03*
%TD*%
D30*
%TO.C,TH1*%
X24700000Y124500000D03*
%TD*%
D19*
%TO.C,JP1*%
X34619000Y29600000D03*
D20*
X34619000Y27060000D03*
X34619000Y24520000D03*
%TD*%
D19*
%TO.C,JP8*%
X45850000Y64675000D03*
D20*
X45850000Y67215000D03*
%TD*%
D31*
%TO.C,J16*%
X35400000Y9750000D03*
D32*
X32860000Y9750000D03*
X30320000Y9750000D03*
%TD*%
D28*
%TO.C,J9*%
X61550000Y50520000D03*
D29*
X61550000Y53060000D03*
X61550000Y55600000D03*
X61550000Y58140000D03*
%TD*%
D27*
%TO.C,J13*%
X64090000Y101900000D03*
X64090000Y99360000D03*
D28*
X61550000Y99360000D03*
D29*
X61550000Y101900000D03*
%TD*%
D28*
%TO.C,J11*%
X61550000Y35495000D03*
D29*
X61550000Y38035000D03*
X61550000Y40575000D03*
X61550000Y43115000D03*
%TD*%
D19*
%TO.C,JP5*%
X51200000Y66975000D03*
D20*
X51200000Y69515000D03*
X51200000Y72055000D03*
%TD*%
D33*
%TO.C,H4*%
X62500000Y8000000D03*
%TD*%
D28*
%TO.C,J6*%
X61550000Y65670000D03*
D29*
X61550000Y68210000D03*
X61550000Y70750000D03*
X61550000Y73290000D03*
%TD*%
D28*
%TO.C,J5*%
X61550000Y15400000D03*
D29*
X61550000Y17940000D03*
X61550000Y20480000D03*
X61550000Y23020000D03*
X61550000Y25560000D03*
X61550000Y28100000D03*
%TD*%
D34*
%TO.C,K1*%
X39500000Y84070000D03*
X54740000Y84050000D03*
X52200000Y76450000D03*
D35*
X39500000Y76450000D03*
%TD*%
D21*
%TO.C,J10*%
X40871000Y26028000D03*
X40871000Y41028000D03*
D22*
X44811000Y38028000D03*
D23*
X44811000Y35028000D03*
X44811000Y32028000D03*
X44811000Y29028000D03*
X41811000Y38028000D03*
X41811000Y35028000D03*
X41811000Y32028000D03*
X41811000Y29028000D03*
%TD*%
D29*
%TO.C,J1*%
X9650000Y96700000D03*
D36*
X9650000Y102000000D03*
D29*
X9650000Y112300000D03*
D36*
X9650000Y107000000D03*
D37*
X16800000Y101600000D03*
X13150000Y102000000D03*
X13150000Y107000000D03*
X16800000Y107400000D03*
X18150000Y112300000D03*
D38*
X7650000Y104500000D03*
D37*
X18150000Y96700000D03*
%TD*%
D19*
%TO.C,JP6*%
X51150000Y51845000D03*
D20*
X51150000Y54385000D03*
X51150000Y56925000D03*
%TD*%
D19*
%TO.C,JP2*%
X9600000Y71850000D03*
D20*
X9600000Y74390000D03*
X9600000Y76930000D03*
%TD*%
D21*
%TO.C,J7*%
X40871000Y59824000D03*
X40871000Y44824000D03*
D22*
X44811000Y56824000D03*
D23*
X44811000Y53824000D03*
X44811000Y50824000D03*
X44811000Y47824000D03*
X41811000Y56824000D03*
X41811000Y53824000D03*
X41811000Y50824000D03*
X41811000Y47824000D03*
%TD*%
D30*
%TO.C,TH3*%
X45000000Y8000000D03*
%TD*%
D39*
%TO.C,J4*%
X14130000Y16980000D03*
X14130000Y64080000D03*
D40*
X15550000Y57150000D03*
D41*
X15550000Y54380000D03*
X15550000Y51610000D03*
X15550000Y48840000D03*
X15550000Y46070000D03*
X15550000Y43300000D03*
X15550000Y40530000D03*
X15550000Y37760000D03*
X15550000Y34990000D03*
X15550000Y32220000D03*
X15550000Y29450000D03*
X15550000Y26680000D03*
X15550000Y23910000D03*
X12710000Y55765000D03*
X12710000Y52995000D03*
X12710000Y50225000D03*
X12710000Y47455000D03*
X12710000Y44685000D03*
X12710000Y41915000D03*
X12710000Y39145000D03*
X12710000Y36375000D03*
X12710000Y33605000D03*
X12710000Y30835000D03*
X12710000Y28065000D03*
X12710000Y25295000D03*
%TD*%
D31*
%TO.C,J17*%
X25350000Y9750000D03*
D32*
X22810000Y9750000D03*
X20270000Y9750000D03*
%TD*%
D33*
%TO.C,H1*%
X8000000Y124000000D03*
%TD*%
D28*
%TO.C,J8*%
X61525000Y78162836D03*
D29*
X61525000Y80702836D03*
X61525000Y83242836D03*
X61525000Y85782836D03*
%TD*%
D33*
%TO.C,H3*%
X8000000Y8000000D03*
%TD*%
D30*
%TO.C,TH2*%
X7500000Y64000000D03*
%TD*%
D33*
%TO.C,H2*%
X62500000Y124000000D03*
%TD*%
D19*
%TO.C,JP3*%
X9650000Y85925000D03*
D20*
X9650000Y83385000D03*
X9650000Y80845000D03*
%TD*%
M02*
