M48
; DRILL file {KiCad (6.0.4-0)} date Saturday, 09 July 2022 at 06:31:14 pm
; FORMAT={-:-/ absolute / metric / decimal}
; #@! TF.CreationDate,2022-07-09T18:31:14+12:00
; #@! TF.GenerationSoftware,Kicad,Pcbnew,(6.0.4-0)
; #@! TF.FileFunction,MixedPlating,1,2
FMAT,2
METRIC
; #@! TA.AperFunction,Plated,PTH,ViaDrill
T1C0.300
; #@! TA.AperFunction,Plated,PTH,ViaDrill
T2C0.600
; #@! TA.AperFunction,Plated,PTH,ComponentDrill
T3C0.600
; #@! TA.AperFunction,Plated,PTH,ComponentDrill
T4C1.000
; #@! TA.AperFunction,Plated,PTH,ComponentDrill
T5C1.100
; #@! TA.AperFunction,Plated,PTH,ComponentDrill
T6C1.190
; #@! TA.AperFunction,Plated,PTH,ComponentDrill
T7C1.300
; #@! TA.AperFunction,Plated,PTH,ComponentDrill
T8C3.200
; #@! TA.AperFunction,NonPlated,NPTH,ComponentDrill
T9C1.000
; #@! TA.AperFunction,NonPlated,NPTH,ComponentDrill
T10C1.100
; #@! TA.AperFunction,NonPlated,NPTH,ComponentDrill
T11C1.152
; #@! TA.AperFunction,NonPlated,NPTH,ComponentDrill
T12C1.700
; #@! TA.AperFunction,NonPlated,NPTH,ComponentDrill
T13C2.200
%
G90
G05
T1
X7.925Y88.3
X7.95Y90.399
X8.4Y84.4
X8.6Y75.6
X8.75Y82.1
X8.95Y90.399
X8.95Y88.3
X10.176Y52.975
X10.325Y88.15
X12.85Y68.65
X13.225Y88.1
X13.8Y83.45
X13.825Y85.95
X14.375Y85.15
X14.525Y75.475
X15.225Y88.1
X15.8Y69.2
X16.1Y71.3
X17.225Y88.1
X17.3Y73.2
X17.4Y83.45
X17.7Y67.5
X18.4Y74.9
X18.9Y68.5
X19.225Y88.1
X20.45Y84.7
X20.55Y22.317
X20.55Y19.8
X20.95Y69.4
X21.225Y88.1
X21.3Y25.25
X21.85Y79.45
X22.15Y67.599
X22.75Y107.7
X22.75Y99.025
X23.225Y88.1
X23.25Y81.0
X23.25Y78.6
X23.25Y76.2
X23.35Y54.95
X23.5Y107.2
X23.5Y99.522
X23.644Y82.114
X23.65Y70.95
X23.725Y27.75
X23.75Y74.3
X24.0Y41.95
X24.15Y67.6
X24.25Y107.7
X24.25Y99.025
X24.45Y72.65
X25.225Y88.1
X25.65Y81.0
X25.65Y78.6
X25.65Y76.2
X25.7Y64.95
X25.7Y56.1
X25.8Y15.35
X26.05Y26.4
X26.101Y37.45
X26.101Y34.25
X26.101Y23.875
X26.15Y67.6
X26.4Y71.5
X27.7Y37.45
X27.7Y34.25
X27.7Y26.4
X27.98Y82.19
X28.1Y72.5
X28.15Y67.6
X28.25Y81.0
X28.25Y78.6
X28.25Y76.2
X29.56Y85.67
X29.67Y78.58
X29.8Y69.7
X30.15Y67.6
X30.65Y84.63
X30.843Y88.6
X31.721Y108.988
X31.85Y92.2
X32.15Y67.6
X32.364Y84.274
X33.1Y57.1
X33.5Y78.55
X33.5Y68.55
X33.8Y36.15
X34.45Y17.6
X34.45Y16.201
X34.6Y94.35
X34.658Y96.458
X34.75Y84.33
X34.75Y75.45
X34.75Y73.45
X34.75Y71.45
X34.75Y69.45
X34.85Y88.6
X34.851Y60.35
X34.851Y59.3
X35.96Y91.69
X36.142Y97.942
X36.25Y124.15
X36.25Y122.55
X36.25Y120.95
X36.25Y119.35
X36.25Y117.75
X36.5Y94.4
X36.55Y89.375
X37.15Y16.3
X37.249Y60.35
X37.249Y59.3
X37.85Y124.15
X37.85Y122.55
X37.85Y120.95
X37.85Y119.35
X37.85Y117.75
X38.2Y89.375
X39.45Y124.15
X39.45Y122.55
X39.45Y120.95
X39.45Y119.35
X39.45Y117.75
X39.55Y90.725
X40.902Y92.073
X41.05Y124.15
X41.05Y122.55
X41.05Y120.95
X41.05Y119.35
X41.05Y117.75
X42.65Y124.15
X42.65Y122.55
X42.65Y120.95
X42.65Y119.35
X42.65Y117.75
X43.7Y77.5
X43.7Y70.35
X44.05Y83.8
X44.25Y124.15
X44.25Y122.55
X44.25Y120.95
X44.25Y119.35
X44.25Y117.75
X45.85Y124.15
X45.85Y122.55
X45.85Y120.95
X45.85Y119.35
X45.85Y117.75
X46.55Y84.075
X48.575Y85.55
X51.025Y86.075
X52.825Y87.875
X54.625Y89.675
X55.02Y64.35
X55.05Y48.95
X55.05Y33.39
X55.6Y72.05
X55.6Y69.475
X55.6Y66.925
X55.6Y56.575
X55.6Y54.0
X55.6Y51.475
X55.65Y41.1
X55.65Y38.55
X55.65Y36.0
X56.425Y91.475
X57.65Y46.44
X57.675Y30.825
X57.7Y61.825
X57.95Y100.925
X57.95Y98.425
X57.95Y95.95
X57.95Y93.45
X58.341Y19.091
X58.349Y47.25
X58.4Y62.7
X58.45Y118.025
X58.45Y116.075
X58.45Y114.175
X58.45Y31.625
X58.716Y21.666
X59.166Y24.216
X59.55Y103.05
X59.75Y118.025
X59.75Y114.175
X61.15Y118.025
X61.15Y114.175
X62.425Y118.025
X62.425Y114.175
T2
X24.7Y94.5
X27.806Y40.38
X28.05Y87.875
X31.925Y101.025
X33.8Y40.36
X36.25Y125.75
X37.1Y85.25
X37.85Y125.75
X37.85Y116.15
X38.95Y56.49
X38.95Y52.39
X38.966Y33.511
X38.97Y17.97
X39.45Y125.75
X39.45Y116.15
X41.05Y125.75
X41.05Y116.15
X41.625Y87.2
X42.65Y125.75
X42.65Y116.15
X43.65Y59.45
X44.25Y125.75
X44.25Y116.15
X45.85Y125.75
X45.85Y116.15
X45.85Y114.55
X45.85Y112.95
X45.85Y111.35
X45.85Y109.75
X45.85Y108.15
X45.85Y106.55
X45.85Y104.95
X45.85Y103.35
X47.45Y125.75
X47.45Y124.15
X47.45Y122.55
X47.45Y120.95
X47.45Y119.35
X47.45Y117.75
X47.45Y116.15
X47.45Y114.55
X47.45Y112.95
X47.45Y111.35
X47.45Y109.75
X47.45Y108.15
X47.45Y106.55
X47.45Y104.95
X47.45Y103.35
X47.9Y23.6
X49.05Y125.75
X49.05Y124.15
X49.05Y122.55
X49.05Y120.95
X49.05Y119.35
X49.05Y117.75
X49.05Y116.15
X49.05Y114.55
X49.05Y112.95
X49.05Y111.35
X49.05Y109.75
X49.05Y108.15
X49.05Y106.55
X49.05Y104.95
X49.05Y103.35
X50.65Y125.75
X50.65Y124.15
X50.65Y122.55
X50.65Y120.95
X50.65Y119.35
X50.65Y117.75
X50.65Y116.15
X50.65Y114.55
X50.65Y112.95
X50.65Y111.35
X50.65Y109.75
X50.65Y108.15
X50.65Y106.55
X50.65Y104.95
X50.65Y103.35
X52.25Y125.75
X52.25Y124.15
X52.25Y122.55
X52.25Y120.95
X52.25Y119.35
X52.25Y117.75
X52.25Y116.15
X52.25Y114.55
X52.25Y112.95
X52.25Y111.35
X52.25Y109.75
X52.25Y108.15
X52.25Y106.55
X52.25Y104.95
X52.25Y103.35
X53.85Y125.75
X53.85Y124.15
X53.85Y122.55
X53.85Y120.95
X53.85Y119.35
X53.85Y117.75
X53.85Y116.15
X53.85Y114.55
X53.85Y112.95
X53.85Y111.35
X53.85Y109.75
X53.85Y108.15
X53.85Y106.55
X53.85Y104.95
X53.85Y103.35
X55.45Y125.75
X55.45Y124.15
X55.45Y122.55
X55.45Y120.95
X55.45Y119.35
X55.45Y117.75
X55.45Y116.15
X55.45Y114.55
X55.45Y112.95
X55.45Y111.35
X55.45Y109.75
X55.45Y108.15
X55.45Y106.55
X55.45Y104.95
X56.25Y15.4
X57.05Y125.75
X57.05Y124.15
X57.05Y122.55
X57.05Y120.95
X57.05Y119.35
T4
X9.6Y76.93
X9.6Y74.39
X9.6Y71.85
X9.65Y85.925
X9.65Y83.385
X9.65Y80.845
X12.71Y55.765
X12.71Y52.995
X12.71Y50.225
X12.71Y47.455
X12.71Y44.685
X12.71Y41.915
X12.71Y39.145
X12.71Y36.375
X12.71Y33.605
X12.71Y30.835
X12.71Y28.065
X12.71Y25.295
X15.55Y57.15
X15.55Y54.38
X15.55Y51.61
X15.55Y48.84
X15.55Y46.07
X15.55Y43.3
X15.55Y40.53
X15.55Y37.76
X15.55Y34.99
X15.55Y32.22
X15.55Y29.45
X15.55Y26.68
X15.55Y23.91
X23.585Y112.25
X26.125Y112.25
X27.15Y123.88
X27.15Y120.88
X30.15Y123.88
X30.15Y120.88
X34.619Y29.6
X34.619Y27.06
X34.619Y24.52
X41.811Y56.824
X41.811Y53.824
X41.811Y50.824
X41.811Y47.824
X41.811Y38.028
X41.811Y35.028
X41.811Y32.028
X41.811Y29.028
X41.811Y19.21
X41.811Y16.21
X41.811Y13.21
X41.811Y10.21
X44.811Y56.824
X44.811Y53.824
X44.811Y50.824
X44.811Y47.824
X44.811Y38.028
X44.811Y35.028
X44.811Y32.028
X44.811Y29.028
X44.811Y19.21
X44.811Y16.21
X44.811Y13.21
X44.811Y10.21
X45.85Y67.215
X45.85Y64.675
X51.15Y56.725
X51.15Y54.185
X51.15Y51.645
X51.15Y41.605
X51.15Y39.065
X51.15Y36.525
X51.2Y72.055
X51.2Y69.515
X51.2Y66.975
T5
X60.45Y116.05
X60.45Y110.97
X61.525Y85.783
X61.525Y83.243
X61.525Y80.703
X61.525Y78.163
X61.55Y101.9
X61.55Y99.36
X61.55Y94.59
X61.55Y92.05
X61.55Y73.3
X61.55Y70.76
X61.55Y68.22
X61.55Y65.68
X61.55Y57.835
X61.55Y55.295
X61.55Y52.755
X61.55Y50.215
X61.55Y42.36
X61.55Y39.82
X61.55Y37.28
X61.55Y34.74
X61.55Y28.1
X61.55Y25.56
X61.55Y23.02
X61.55Y20.48
X61.55Y17.94
X61.55Y15.4
T6
X20.27Y9.75
X22.81Y9.75
X25.35Y9.75
X30.32Y9.75
X32.86Y9.75
X35.4Y9.75
T7
X39.5Y84.07
X39.5Y76.45
X52.2Y76.45
X54.74Y84.05
T8
X8.0Y124.0
X8.0Y8.0
X14.13Y64.08
X14.13Y16.98
X62.5Y124.0
X62.5Y8.0
T9
X24.15Y119.94
X33.15Y119.94
X40.871Y59.824
X40.871Y44.824
X40.871Y41.028
X40.871Y26.028
X40.871Y22.21
X40.871Y7.21
T10
X64.09Y101.9
X64.09Y99.36
X64.09Y94.59
X64.09Y92.05
T11
X7.5Y64.0
X19.81Y122.07
X45.0Y8.0
T12
X9.65Y107.0
X9.65Y102.0
T13
X9.65Y112.3
X9.65Y96.7
T3
X14.2Y107.0G85X12.1Y107.0
G05
X14.2Y102.0G85X12.1Y102.0
G05
X17.85Y107.4G85X15.75Y107.4
G05
X17.85Y101.6G85X15.75Y101.6
G05
X19.2Y112.3G85X17.1Y112.3
G05
X19.2Y96.7G85X17.1Y96.7
G05
T4
X7.65Y105.1G85X7.65Y103.9
G05
T0
M30
