M48
; DRILL file {KiCad (6.0.4-0)} date Wednesday, 20 July 2022 at 02:53:54 pm
; FORMAT={-:-/ absolute / metric / decimal}
; #@! TF.CreationDate,2022-07-20T14:53:54+12:00
; #@! TF.GenerationSoftware,Kicad,Pcbnew,(6.0.4-0)
; #@! TF.FileFunction,MixedPlating,1,2
FMAT,2
METRIC
; #@! TA.AperFunction,Plated,PTH,ComponentDrill
T1C1.000
; #@! TA.AperFunction,Plated,PTH,ComponentDrill
T2C1.100
; #@! TA.AperFunction,Plated,PTH,ComponentDrill
T3C3.200
; #@! TA.AperFunction,NonPlated,NPTH,ComponentDrill
T4C1.000
%
G90
G05
T1
X18.0Y26.8
X18.0Y23.8
X21.0Y26.8
X21.0Y23.8
X36.0Y26.815
X36.0Y23.815
X39.0Y26.815
X39.0Y23.815
X54.0Y26.815
X54.0Y23.815
X57.0Y26.815
X57.0Y23.815
X72.0Y26.815
X72.0Y23.815
X75.0Y26.815
X75.0Y23.815
T2
X15.685Y9.977
X18.225Y9.977
X20.765Y9.977
X23.305Y9.977
X33.685Y10.0
X36.225Y10.0
X38.765Y10.0
X41.305Y10.0
X51.685Y10.0
X54.225Y10.0
X56.765Y10.0
X59.305Y10.0
X69.685Y10.0
X72.225Y10.0
X74.765Y10.0
X77.305Y10.0
T3
X10.0Y27.0
X10.0Y9.8
X46.5Y27.0
X46.5Y9.8
X83.0Y27.0
X83.0Y9.8
T4
X15.0Y22.86
X24.0Y22.86
X33.0Y22.875
X42.0Y22.875
X51.0Y22.875
X60.0Y22.875
X69.0Y22.875
X78.0Y22.875
T0
M30
