%TF.GenerationSoftware,KiCad,Pcbnew,(6.0.4-0)*%
%TF.CreationDate,2022-07-20T14:53:49+12:00*%
%TF.ProjectId,motor-connector,6d6f746f-722d-4636-9f6e-6e6563746f72,rev?*%
%TF.SameCoordinates,PX6516e80PY5a995c0*%
%TF.FileFunction,Soldermask,Top*%
%TF.FilePolarity,Negative*%
%FSLAX46Y46*%
G04 Gerber Fmt 4.6, Leading zero omitted, Abs format (unit mm)*
G04 Created by KiCad (PCBNEW (6.0.4-0)) date 2022-07-20 14:53:49*
%MOMM*%
%LPD*%
G01*
G04 APERTURE LIST*
G04 Aperture macros list*
%AMRoundRect*
0 Rectangle with rounded corners*
0 $1 Rounding radius*
0 $2 $3 $4 $5 $6 $7 $8 $9 X,Y pos of 4 corners*
0 Add a 4 corners polygon primitive as box body*
4,1,4,$2,$3,$4,$5,$6,$7,$8,$9,$2,$3,0*
0 Add four circle primitives for the rounded corners*
1,1,$1+$1,$2,$3*
1,1,$1+$1,$4,$5*
1,1,$1+$1,$6,$7*
1,1,$1+$1,$8,$9*
0 Add four rect primitives between the rounded corners*
20,1,$1+$1,$2,$3,$4,$5,0*
20,1,$1+$1,$4,$5,$6,$7,0*
20,1,$1+$1,$6,$7,$8,$9,0*
20,1,$1+$1,$8,$9,$2,$3,0*%
G04 Aperture macros list end*
%ADD10C,5.600000*%
%ADD11C,1.000000*%
%ADD12RoundRect,0.250001X-0.499999X-0.499999X0.499999X-0.499999X0.499999X0.499999X-0.499999X0.499999X0*%
%ADD13C,1.500000*%
%ADD14R,2.200000X2.200000*%
%ADD15C,2.200000*%
G04 APERTURE END LIST*
D10*
%TO.C,H6*%
X10000000Y9800000D03*
%TD*%
%TO.C,H5*%
X46500000Y9800000D03*
%TD*%
%TO.C,H4*%
X83000000Y9800000D03*
%TD*%
%TO.C,H3*%
X83000000Y27000000D03*
%TD*%
%TO.C,H2*%
X46500000Y27000000D03*
%TD*%
%TO.C,H1*%
X10000000Y27000000D03*
%TD*%
D11*
%TO.C,J7*%
X69000000Y22875000D03*
X78000000Y22875000D03*
D12*
X72000000Y26815000D03*
D13*
X75000000Y26815000D03*
X72000000Y23815000D03*
X75000000Y23815000D03*
%TD*%
D11*
%TO.C,J5*%
X51000000Y22875000D03*
X60000000Y22875000D03*
D12*
X54000000Y26815000D03*
D13*
X57000000Y26815000D03*
X54000000Y23815000D03*
X57000000Y23815000D03*
%TD*%
D11*
%TO.C,J3*%
X33000000Y22875000D03*
X42000000Y22875000D03*
D12*
X36000000Y26815000D03*
D13*
X39000000Y26815000D03*
X36000000Y23815000D03*
X39000000Y23815000D03*
%TD*%
D14*
%TO.C,J8*%
X69685000Y10000000D03*
D15*
X72225000Y10000000D03*
X74765000Y10000000D03*
X77305000Y10000000D03*
%TD*%
D14*
%TO.C,J6*%
X51685000Y10000000D03*
D15*
X54225000Y10000000D03*
X56765000Y10000000D03*
X59305000Y10000000D03*
%TD*%
D14*
%TO.C,J4*%
X33685000Y10000000D03*
D15*
X36225000Y10000000D03*
X38765000Y10000000D03*
X41305000Y10000000D03*
%TD*%
D14*
%TO.C,J2*%
X15685000Y9977500D03*
D15*
X18225000Y9977500D03*
X20765000Y9977500D03*
X23305000Y9977500D03*
%TD*%
D11*
%TO.C,J1*%
X15000000Y22860000D03*
X24000000Y22860000D03*
D12*
X18000000Y26800000D03*
D13*
X21000000Y26800000D03*
X18000000Y23800000D03*
X21000000Y23800000D03*
%TD*%
M02*
