%TF.GenerationSoftware,KiCad,Pcbnew,(6.0.4-0)*%
%TF.CreationDate,2022-07-20T14:53:48+12:00*%
%TF.ProjectId,motor-connector,6d6f746f-722d-4636-9f6e-6e6563746f72,rev?*%
%TF.SameCoordinates,PX6516e80PY5a995c0*%
%TF.FileFunction,Copper,L2,Bot*%
%TF.FilePolarity,Positive*%
%FSLAX46Y46*%
G04 Gerber Fmt 4.6, Leading zero omitted, Abs format (unit mm)*
G04 Created by KiCad (PCBNEW (6.0.4-0)) date 2022-07-20 14:53:48*
%MOMM*%
%LPD*%
G01*
G04 APERTURE LIST*
G04 Aperture macros list*
%AMRoundRect*
0 Rectangle with rounded corners*
0 $1 Rounding radius*
0 $2 $3 $4 $5 $6 $7 $8 $9 X,Y pos of 4 corners*
0 Add a 4 corners polygon primitive as box body*
4,1,4,$2,$3,$4,$5,$6,$7,$8,$9,$2,$3,0*
0 Add four circle primitives for the rounded corners*
1,1,$1+$1,$2,$3*
1,1,$1+$1,$4,$5*
1,1,$1+$1,$6,$7*
1,1,$1+$1,$8,$9*
0 Add four rect primitives between the rounded corners*
20,1,$1+$1,$2,$3,$4,$5,0*
20,1,$1+$1,$4,$5,$6,$7,0*
20,1,$1+$1,$6,$7,$8,$9,0*
20,1,$1+$1,$8,$9,$2,$3,0*%
G04 Aperture macros list end*
%TA.AperFunction,ComponentPad*%
%ADD10C,5.600000*%
%TD*%
%TA.AperFunction,ComponentPad*%
%ADD11RoundRect,0.250001X-0.499999X-0.499999X0.499999X-0.499999X0.499999X0.499999X-0.499999X0.499999X0*%
%TD*%
%TA.AperFunction,ComponentPad*%
%ADD12C,1.500000*%
%TD*%
%TA.AperFunction,ComponentPad*%
%ADD13R,2.200000X2.200000*%
%TD*%
%TA.AperFunction,ComponentPad*%
%ADD14C,2.200000*%
%TD*%
%TA.AperFunction,Conductor*%
%ADD15C,1.000000*%
%TD*%
G04 APERTURE END LIST*
D10*
%TO.P,H6,1,1*%
%TO.N,GND*%
X10000000Y9800000D03*
%TD*%
%TO.P,H5,1,1*%
%TO.N,GND*%
X46500000Y9800000D03*
%TD*%
%TO.P,H4,1,1*%
%TO.N,GND*%
X83000000Y9800000D03*
%TD*%
%TO.P,H3,1,1*%
%TO.N,GND*%
X83000000Y27000000D03*
%TD*%
%TO.P,H2,1,1*%
%TO.N,GND*%
X46500000Y27000000D03*
%TD*%
%TO.P,H1,1,1*%
%TO.N,GND*%
X10000000Y27000000D03*
%TD*%
D11*
%TO.P,J7,1,Pin_1*%
%TO.N,Net-(J7-Pad1)*%
X72000000Y26815000D03*
D12*
%TO.P,J7,2,Pin_2*%
%TO.N,Net-(J7-Pad2)*%
X75000000Y26815000D03*
%TO.P,J7,3,Pin_3*%
%TO.N,Net-(J7-Pad3)*%
X72000000Y23815000D03*
%TO.P,J7,4,Pin_4*%
%TO.N,Net-(J7-Pad4)*%
X75000000Y23815000D03*
%TD*%
D11*
%TO.P,J5,1,Pin_1*%
%TO.N,Net-(J5-Pad1)*%
X54000000Y26815000D03*
D12*
%TO.P,J5,2,Pin_2*%
%TO.N,Net-(J5-Pad2)*%
X57000000Y26815000D03*
%TO.P,J5,3,Pin_3*%
%TO.N,Net-(J5-Pad3)*%
X54000000Y23815000D03*
%TO.P,J5,4,Pin_4*%
%TO.N,Net-(J5-Pad4)*%
X57000000Y23815000D03*
%TD*%
D11*
%TO.P,J3,1,Pin_1*%
%TO.N,Net-(J3-Pad1)*%
X36000000Y26815000D03*
D12*
%TO.P,J3,2,Pin_2*%
%TO.N,Net-(J3-Pad2)*%
X39000000Y26815000D03*
%TO.P,J3,3,Pin_3*%
%TO.N,Net-(J3-Pad3)*%
X36000000Y23815000D03*
%TO.P,J3,4,Pin_4*%
%TO.N,Net-(J3-Pad4)*%
X39000000Y23815000D03*
%TD*%
D13*
%TO.P,J8,1,Pin_1*%
%TO.N,Net-(J7-Pad1)*%
X69685000Y10000000D03*
D14*
%TO.P,J8,2,Pin_2*%
%TO.N,Net-(J7-Pad2)*%
X72225000Y10000000D03*
%TO.P,J8,3,Pin_3*%
%TO.N,Net-(J7-Pad3)*%
X74765000Y10000000D03*
%TO.P,J8,4,Pin_4*%
%TO.N,Net-(J7-Pad4)*%
X77305000Y10000000D03*
%TD*%
D13*
%TO.P,J6,1,Pin_1*%
%TO.N,Net-(J5-Pad1)*%
X51685000Y10000000D03*
D14*
%TO.P,J6,2,Pin_2*%
%TO.N,Net-(J5-Pad2)*%
X54225000Y10000000D03*
%TO.P,J6,3,Pin_3*%
%TO.N,Net-(J5-Pad3)*%
X56765000Y10000000D03*
%TO.P,J6,4,Pin_4*%
%TO.N,Net-(J5-Pad4)*%
X59305000Y10000000D03*
%TD*%
D13*
%TO.P,J4,1,Pin_1*%
%TO.N,Net-(J3-Pad1)*%
X33685000Y10000000D03*
D14*
%TO.P,J4,2,Pin_2*%
%TO.N,Net-(J3-Pad2)*%
X36225000Y10000000D03*
%TO.P,J4,3,Pin_3*%
%TO.N,Net-(J3-Pad3)*%
X38765000Y10000000D03*
%TO.P,J4,4,Pin_4*%
%TO.N,Net-(J3-Pad4)*%
X41305000Y10000000D03*
%TD*%
D13*
%TO.P,J2,1,Pin_1*%
%TO.N,Net-(J1-Pad1)*%
X15685000Y9977500D03*
D14*
%TO.P,J2,2,Pin_2*%
%TO.N,Net-(J1-Pad2)*%
X18225000Y9977500D03*
%TO.P,J2,3,Pin_3*%
%TO.N,Net-(J1-Pad3)*%
X20765000Y9977500D03*
%TO.P,J2,4,Pin_4*%
%TO.N,Net-(J1-Pad4)*%
X23305000Y9977500D03*
%TD*%
D11*
%TO.P,J1,1,Pin_1*%
%TO.N,Net-(J1-Pad1)*%
X18000000Y26800000D03*
D12*
%TO.P,J1,2,Pin_2*%
%TO.N,Net-(J1-Pad2)*%
X21000000Y26800000D03*
%TO.P,J1,3,Pin_3*%
%TO.N,Net-(J1-Pad3)*%
X18000000Y23800000D03*
%TO.P,J1,4,Pin_4*%
%TO.N,Net-(J1-Pad4)*%
X21000000Y23800000D03*
%TD*%
D15*
%TO.N,Net-(J1-Pad1)*%
X18000000Y26800000D02*
X16000000Y26800000D01*
X16000000Y26800000D02*
X13500000Y24300000D01*
X13500000Y16800000D02*
X15685000Y14615000D01*
X13500000Y24300000D02*
X13500000Y16800000D01*
X15685000Y14615000D02*
X15685000Y9977500D01*
%TO.N,Net-(J7-Pad1)*%
X72000000Y26800000D02*
X70000000Y26800000D01*
X70000000Y26800000D02*
X67500000Y24300000D01*
X69685000Y14115000D02*
X69685000Y9977500D01*
X67500000Y24300000D02*
X67500000Y16300000D01*
X67500000Y16300000D02*
X69685000Y14115000D01*
%TO.N,Net-(J5-Pad1)*%
X54000000Y26800000D02*
X52000000Y26800000D01*
X52000000Y26800000D02*
X49500000Y24300000D01*
X51685000Y14615000D02*
X51685000Y9977500D01*
X49500000Y24300000D02*
X49500000Y16800000D01*
X49500000Y16800000D02*
X51685000Y14615000D01*
%TO.N,Net-(J3-Pad1)*%
X36000000Y26800000D02*
X34000000Y26800000D01*
X34000000Y26800000D02*
X31500000Y24300000D01*
X31500000Y24300000D02*
X31500000Y16800000D01*
X31500000Y16800000D02*
X33685000Y14615000D01*
X33685000Y14615000D02*
X33685000Y9977500D01*
%TO.N,Net-(J3-Pad3)*%
X36000000Y23800000D02*
X36000000Y19550000D01*
X36000000Y19550000D02*
X38750000Y16800000D01*
X38750000Y16800000D02*
X38750000Y9992500D01*
%TO.N,Net-(J3-Pad2)*%
X39000000Y26800000D02*
X37500000Y25300000D01*
X37500000Y25300000D02*
X35000000Y25300000D01*
X34250000Y24550000D02*
X34250000Y17550000D01*
X36225000Y15575000D02*
X36225000Y9977500D01*
X35000000Y25300000D02*
X34250000Y24550000D01*
X34250000Y17550000D02*
X36225000Y15575000D01*
%TO.N,Net-(J5-Pad2)*%
X57000000Y26800000D02*
X55500000Y25300000D01*
X55500000Y25300000D02*
X53000000Y25300000D01*
X53000000Y25300000D02*
X52250000Y24550000D01*
X52250000Y24550000D02*
X52250000Y17550000D01*
X52250000Y17550000D02*
X54225000Y15575000D01*
X54225000Y15575000D02*
X54225000Y9977500D01*
%TO.N,Net-(J7-Pad2)*%
X75000000Y26800000D02*
X73500000Y25300000D01*
X73500000Y25300000D02*
X71000000Y25300000D01*
X71000000Y25300000D02*
X70250000Y24550000D01*
X70250000Y24550000D02*
X70250000Y17550000D01*
X70250000Y17550000D02*
X72225000Y15575000D01*
X72225000Y15575000D02*
X72225000Y9977500D01*
%TO.N,Net-(J7-Pad4)*%
X75000000Y20800000D02*
X77305000Y18495000D01*
X77305000Y18495000D02*
X77305000Y9977500D01*
%TO.N,Net-(J7-Pad3)*%
X74765000Y16785000D02*
X74765000Y9977500D01*
%TO.N,Net-(J7-Pad4)*%
X75000000Y23800000D02*
X75000000Y20800000D01*
%TO.N,Net-(J7-Pad3)*%
X72000000Y19550000D02*
X74765000Y16785000D01*
X72000000Y23800000D02*
X72000000Y19550000D01*
%TO.N,Net-(J5-Pad3)*%
X56765000Y16785000D02*
X56765000Y9977500D01*
%TO.N,Net-(J5-Pad4)*%
X57000000Y23800000D02*
X57000000Y20800000D01*
X57000000Y20800000D02*
X59305000Y18495000D01*
X59305000Y18495000D02*
X59305000Y9977500D01*
%TO.N,Net-(J5-Pad3)*%
X54000000Y23800000D02*
X54000000Y19550000D01*
X54000000Y19550000D02*
X56765000Y16785000D01*
%TO.N,Net-(J3-Pad4)*%
X39000000Y20800000D02*
X41305000Y18495000D01*
X41305000Y18495000D02*
X41305000Y9977500D01*
X39000000Y23800000D02*
X39000000Y20800000D01*
%TO.N,Net-(J1-Pad4)*%
X21000000Y23800000D02*
X21000000Y20800000D01*
X21000000Y20800000D02*
X23305000Y18495000D01*
X23305000Y18495000D02*
X23305000Y9977500D01*
%TO.N,Net-(J1-Pad3)*%
X18000000Y23800000D02*
X18000000Y19550000D01*
X18000000Y19550000D02*
X20765000Y16785000D01*
X20765000Y16785000D02*
X20765000Y9977500D01*
%TO.N,Net-(J1-Pad2)*%
X16250000Y17550000D02*
X18250000Y15550000D01*
X21000000Y26800000D02*
X19500000Y25300000D01*
X19500000Y25300000D02*
X17000000Y25300000D01*
X16250000Y24550000D02*
X16250000Y17550000D01*
X17000000Y25300000D02*
X16250000Y24550000D01*
X18250000Y15550000D02*
X18225000Y15525000D01*
X18225000Y15525000D02*
X18225000Y9977500D01*
%TD*%
%TA.AperFunction,Conductor*%
%TO.N,GND*%
G36*
X44752643Y30021498D02*
G01*
X44799136Y29967842D01*
X44809240Y29897568D01*
X44779746Y29832988D01*
X44749228Y29807384D01*
X44650401Y29748237D01*
X44644755Y29744429D01*
X44364408Y29532404D01*
X44359211Y29528013D01*
X44357972Y29526845D01*
X44349950Y29513138D01*
X44349986Y29512296D01*
X44355037Y29504174D01*
X46487190Y27372020D01*
X46501131Y27364408D01*
X46502966Y27364539D01*
X46509580Y27368790D01*
X48642798Y29502009D01*
X48650412Y29515953D01*
X48650344Y29516911D01*
X48645836Y29523728D01*
X48644418Y29524935D01*
X48364813Y29737936D01*
X48359182Y29741763D01*
X48250026Y29807611D01*
X48202029Y29859924D01*
X48189934Y29929883D01*
X48217581Y29995275D01*
X48276193Y30035339D01*
X48315110Y30041500D01*
X81184522Y30041500D01*
X81252643Y30021498D01*
X81299136Y29967842D01*
X81309240Y29897568D01*
X81279746Y29832988D01*
X81249228Y29807384D01*
X81150401Y29748237D01*
X81144755Y29744429D01*
X80864408Y29532404D01*
X80859211Y29528013D01*
X80857972Y29526845D01*
X80849950Y29513138D01*
X80849986Y29512296D01*
X80855037Y29504174D01*
X83000000Y27359210D01*
X85499011Y24860200D01*
X85512605Y24852777D01*
X85522217Y24859477D01*
X85622518Y24976088D01*
X85626676Y24981486D01*
X85761660Y25177890D01*
X85816728Y25222701D01*
X85887281Y25230626D01*
X85950919Y25199150D01*
X85987436Y25138265D01*
X85991500Y25106523D01*
X85991500Y11692849D01*
X85971498Y11624728D01*
X85917842Y11578235D01*
X85847568Y11568131D01*
X85782988Y11597625D01*
X85761164Y11622208D01*
X85640697Y11800138D01*
X85636590Y11805547D01*
X85523565Y11938821D01*
X85510740Y11947257D01*
X85500416Y11941205D01*
X83000000Y9440790D01*
X80856772Y7297561D01*
X80849160Y7283620D01*
X80849238Y7282530D01*
X80851699Y7278793D01*
X81125632Y7068596D01*
X81131262Y7064741D01*
X81168398Y7042162D01*
X81216213Y6989681D01*
X81228065Y6919681D01*
X81200189Y6854385D01*
X81141438Y6814526D01*
X81102939Y6808500D01*
X48400142Y6808500D01*
X48332021Y6828502D01*
X48285528Y6882158D01*
X48275424Y6952432D01*
X48304918Y7017012D01*
X48335816Y7042843D01*
X48339999Y7045326D01*
X48345659Y7049116D01*
X48626732Y7260151D01*
X48631958Y7264536D01*
X48641613Y7273572D01*
X48649682Y7287250D01*
X48649654Y7287976D01*
X48644512Y7296277D01*
X46512810Y9427980D01*
X46498869Y9435592D01*
X46497034Y9435461D01*
X46490420Y9431210D01*
X44356774Y7297563D01*
X44349160Y7283619D01*
X44349237Y7282530D01*
X44351698Y7278794D01*
X44625632Y7068596D01*
X44631262Y7064741D01*
X44668398Y7042162D01*
X44716213Y6989681D01*
X44728065Y6919681D01*
X44700189Y6854385D01*
X44641438Y6814526D01*
X44602939Y6808500D01*
X11900142Y6808500D01*
X11832021Y6828502D01*
X11785528Y6882158D01*
X11775424Y6952432D01*
X11804918Y7017012D01*
X11835816Y7042843D01*
X11839999Y7045326D01*
X11845659Y7049116D01*
X12126732Y7260151D01*
X12131958Y7264536D01*
X12141613Y7273572D01*
X12149682Y7287250D01*
X12149654Y7287976D01*
X12144512Y7296277D01*
X9641921Y9798869D01*
X10364408Y9798869D01*
X10364539Y9797034D01*
X10368790Y9790420D01*
X12499009Y7660202D01*
X12512605Y7652777D01*
X12522218Y7659478D01*
X12622518Y7776088D01*
X12626676Y7781486D01*
X12825762Y8071160D01*
X12829310Y8076971D01*
X12995942Y8386441D01*
X12998849Y8392619D01*
X13131090Y8718287D01*
X13133304Y8724717D01*
X13229598Y9062763D01*
X13231105Y9069393D01*
X13290332Y9415882D01*
X13291112Y9422622D01*
X13312668Y9775075D01*
X13312784Y9778677D01*
X13312853Y9798181D01*
X13312761Y9801806D01*
X13293666Y10154385D01*
X13292931Y10161151D01*
X13236130Y10508015D01*
X13234663Y10514687D01*
X13140736Y10853373D01*
X13138562Y10859837D01*
X13008598Y11186422D01*
X13005742Y11192602D01*
X12841269Y11503237D01*
X12837769Y11509063D01*
X12640697Y11800138D01*
X12636590Y11805547D01*
X12523565Y11938821D01*
X12510740Y11947257D01*
X12500416Y11941205D01*
X10372020Y9812810D01*
X10364408Y9798869D01*
X9641921Y9798869D01*
X9640790Y9800000D01*
X7500990Y11939799D01*
X7487456Y11947189D01*
X7477754Y11940402D01*
X7370430Y11814743D01*
X7366296Y11809336D01*
X7238589Y11622124D01*
X7183677Y11577121D01*
X7113152Y11568950D01*
X7049405Y11600204D01*
X7012675Y11660961D01*
X7008500Y11693128D01*
X7008500Y12313138D01*
X7849950Y12313138D01*
X7849986Y12312296D01*
X7855037Y12304174D01*
X9987190Y10172020D01*
X10001131Y10164408D01*
X10002966Y10164539D01*
X10009580Y10168790D01*
X12142798Y12302009D01*
X12150412Y12315953D01*
X12150344Y12316911D01*
X12145836Y12323728D01*
X12144418Y12324935D01*
X11864813Y12537936D01*
X11859187Y12541760D01*
X11558214Y12723319D01*
X11552202Y12726516D01*
X11233370Y12874513D01*
X11227070Y12877033D01*
X10894129Y12989727D01*
X10887551Y12991563D01*
X10544417Y13067633D01*
X10537678Y13068749D01*
X10188310Y13107320D01*
X10181529Y13107699D01*
X9830015Y13108313D01*
X9823242Y13107958D01*
X9473720Y13070605D01*
X9467010Y13069518D01*
X9123586Y12994639D01*
X9117011Y12992828D01*
X8783683Y12881298D01*
X8777361Y12878795D01*
X8458034Y12731921D01*
X8451991Y12728735D01*
X8150401Y12548237D01*
X8144755Y12544429D01*
X7864408Y12332404D01*
X7859211Y12328013D01*
X7857972Y12326845D01*
X7849950Y12313138D01*
X7008500Y12313138D01*
X7008500Y24483619D01*
X7849160Y24483619D01*
X7849237Y24482530D01*
X7851698Y24478794D01*
X8125632Y24268596D01*
X8131262Y24264741D01*
X8431591Y24082138D01*
X8437593Y24078920D01*
X8755897Y23929816D01*
X8762202Y23927268D01*
X9094743Y23813413D01*
X9101313Y23811554D01*
X9444183Y23734286D01*
X9450912Y23733147D01*
X9800143Y23693357D01*
X9806933Y23692954D01*
X10158419Y23691114D01*
X10165220Y23691446D01*
X10514853Y23727577D01*
X10521581Y23728643D01*
X10865274Y23802324D01*
X10871822Y23804103D01*
X11205549Y23914473D01*
X11211891Y23916959D01*
X11531718Y24062712D01*
X11537777Y24065879D01*
X11839995Y24245324D01*
X11845659Y24249116D01*
X12126732Y24460151D01*
X12131958Y24464536D01*
X12141613Y24473572D01*
X12149682Y24487250D01*
X12149654Y24487976D01*
X12144512Y24496277D01*
X10012810Y26627980D01*
X9998869Y26635592D01*
X9997034Y26635461D01*
X9990420Y26631210D01*
X7856774Y24497563D01*
X7849160Y24483619D01*
X7008500Y24483619D01*
X7008500Y25107359D01*
X7028502Y25175480D01*
X7082158Y25221973D01*
X7152432Y25232077D01*
X7217012Y25202583D01*
X7239082Y25177635D01*
X7352330Y25009104D01*
X7356433Y25003660D01*
X7476425Y24861164D01*
X7489164Y24852721D01*
X7499608Y24858819D01*
X9639659Y26998869D01*
X10364408Y26998869D01*
X10364539Y26997034D01*
X10368790Y26990420D01*
X12499012Y24860199D01*
X12511258Y24853512D01*
X12561460Y24803309D01*
X12576550Y24733935D01*
X12568146Y24699317D01*
X12568558Y24699186D01*
X12568325Y24698452D01*
X12567171Y24695299D01*
X12566832Y24693901D01*
X12564438Y24689437D01*
X12537238Y24600469D01*
X12536918Y24599441D01*
X12508765Y24510694D01*
X12508171Y24505398D01*
X12506613Y24500302D01*
X12499384Y24429131D01*
X12497218Y24407813D01*
X12497089Y24406607D01*
X12491500Y24356773D01*
X12491500Y24353246D01*
X12491445Y24352261D01*
X12490998Y24346581D01*
X12489615Y24332965D01*
X12487392Y24311075D01*
X12486626Y24303538D01*
X12488220Y24286676D01*
X12490941Y24257891D01*
X12491500Y24246033D01*
X12491500Y16861843D01*
X12490763Y16848236D01*
X12486676Y16810612D01*
X12487213Y16804477D01*
X12491050Y16760612D01*
X12491379Y16755786D01*
X12491500Y16753314D01*
X12491500Y16750231D01*
X12491801Y16747163D01*
X12495690Y16707494D01*
X12495812Y16706181D01*
X12503913Y16613587D01*
X12505400Y16608468D01*
X12505920Y16603167D01*
X12532791Y16514166D01*
X12533126Y16513033D01*
X12559091Y16423664D01*
X12561544Y16418932D01*
X12563084Y16413831D01*
X12565978Y16408388D01*
X12606731Y16331740D01*
X12607343Y16330574D01*
X12641079Y16265492D01*
X12650108Y16248074D01*
X12653431Y16243911D01*
X12655934Y16239204D01*
X12714755Y16167082D01*
X12715446Y16166226D01*
X12746738Y16127027D01*
X12749242Y16124523D01*
X12749884Y16123805D01*
X12753585Y16119472D01*
X12780935Y16085938D01*
X12785682Y16082011D01*
X12785684Y16082009D01*
X12816262Y16056713D01*
X12825042Y16048723D01*
X13741907Y15131859D01*
X14639595Y14234171D01*
X14673620Y14171859D01*
X14676500Y14145076D01*
X14676500Y11712000D01*
X14656498Y11643879D01*
X14602842Y11597386D01*
X14550500Y11586000D01*
X14536866Y11586000D01*
X14474684Y11579245D01*
X14338295Y11528115D01*
X14221739Y11440761D01*
X14134385Y11324205D01*
X14083255Y11187816D01*
X14076500Y11125634D01*
X14076500Y8829366D01*
X14083255Y8767184D01*
X14134385Y8630795D01*
X14221739Y8514239D01*
X14338295Y8426885D01*
X14474684Y8375755D01*
X14536866Y8369000D01*
X16833134Y8369000D01*
X16895316Y8375755D01*
X17031705Y8426885D01*
X17148261Y8514239D01*
X17200954Y8584546D01*
X17257813Y8627060D01*
X17328631Y8632085D01*
X17367615Y8616413D01*
X17492498Y8539884D01*
X17497068Y8537991D01*
X17497072Y8537989D01*
X17721836Y8444889D01*
X17726409Y8442995D01*
X17793513Y8426885D01*
X17967784Y8385046D01*
X17967790Y8385045D01*
X17972597Y8383891D01*
X18225000Y8364026D01*
X18477403Y8383891D01*
X18482210Y8385045D01*
X18482216Y8385046D01*
X18656487Y8426885D01*
X18723591Y8442995D01*
X18728164Y8444889D01*
X18952928Y8537989D01*
X18952932Y8537991D01*
X18957502Y8539884D01*
X19173376Y8672172D01*
X19365898Y8836602D01*
X19369106Y8840358D01*
X19369113Y8840365D01*
X19399190Y8875580D01*
X19458641Y8914389D01*
X19529635Y8914895D01*
X19590810Y8875580D01*
X19620887Y8840365D01*
X19620894Y8840358D01*
X19624102Y8836602D01*
X19816624Y8672172D01*
X20032498Y8539884D01*
X20037068Y8537991D01*
X20037072Y8537989D01*
X20261836Y8444889D01*
X20266409Y8442995D01*
X20333513Y8426885D01*
X20507784Y8385046D01*
X20507790Y8385045D01*
X20512597Y8383891D01*
X20765000Y8364026D01*
X21017403Y8383891D01*
X21022210Y8385045D01*
X21022216Y8385046D01*
X21196487Y8426885D01*
X21263591Y8442995D01*
X21268164Y8444889D01*
X21492928Y8537989D01*
X21492932Y8537991D01*
X21497502Y8539884D01*
X21713376Y8672172D01*
X21905898Y8836602D01*
X21909106Y8840358D01*
X21909113Y8840365D01*
X21939190Y8875580D01*
X21998641Y8914389D01*
X22069635Y8914895D01*
X22130810Y8875580D01*
X22160887Y8840365D01*
X22160894Y8840358D01*
X22164102Y8836602D01*
X22356624Y8672172D01*
X22572498Y8539884D01*
X22577068Y8537991D01*
X22577072Y8537989D01*
X22801836Y8444889D01*
X22806409Y8442995D01*
X22873513Y8426885D01*
X23047784Y8385046D01*
X23047790Y8385045D01*
X23052597Y8383891D01*
X23305000Y8364026D01*
X23557403Y8383891D01*
X23562210Y8385045D01*
X23562216Y8385046D01*
X23736487Y8426885D01*
X23803591Y8442995D01*
X23808164Y8444889D01*
X24032928Y8537989D01*
X24032932Y8537991D01*
X24037502Y8539884D01*
X24253376Y8672172D01*
X24445898Y8836602D01*
X24610328Y9029124D01*
X24742616Y9244998D01*
X24753831Y9272072D01*
X24837611Y9474336D01*
X24837612Y9474338D01*
X24839505Y9478909D01*
X24898609Y9725097D01*
X24918474Y9977500D01*
X24898609Y10229903D01*
X24893208Y10252403D01*
X24840660Y10471279D01*
X24839505Y10476091D01*
X24837611Y10480664D01*
X24744511Y10705428D01*
X24744509Y10705432D01*
X24742616Y10710002D01*
X24610328Y10925876D01*
X24445898Y11118398D01*
X24357669Y11193753D01*
X24318860Y11253204D01*
X24313500Y11289564D01*
X24313500Y18433158D01*
X24314237Y18446765D01*
X24317659Y18478263D01*
X24317659Y18478268D01*
X24318324Y18484389D01*
X24313950Y18534391D01*
X24313621Y18539216D01*
X24313500Y18541687D01*
X24313500Y18544769D01*
X24309309Y18587511D01*
X24309187Y18588826D01*
X24301623Y18675281D01*
X24301087Y18681413D01*
X24299600Y18686532D01*
X24299080Y18691833D01*
X24272218Y18780806D01*
X24271862Y18782006D01*
X24245909Y18871337D01*
X24243455Y18876071D01*
X24241916Y18881169D01*
X24198316Y18963169D01*
X24197702Y18964337D01*
X24157726Y19041459D01*
X24157725Y19041460D01*
X24154892Y19046926D01*
X24151569Y19051089D01*
X24149066Y19055796D01*
X24090245Y19127918D01*
X24089554Y19128774D01*
X24058262Y19167973D01*
X24055758Y19170477D01*
X24055116Y19171195D01*
X24051415Y19175528D01*
X24024065Y19209062D01*
X23988737Y19238288D01*
X23979958Y19246277D01*
X22045405Y21180829D01*
X22011380Y21243141D01*
X22008500Y21269924D01*
X22008500Y22867075D01*
X22986645Y22867075D01*
X22987204Y22860935D01*
X23003911Y22677358D01*
X23004570Y22670112D01*
X23060410Y22480381D01*
X23063263Y22474923D01*
X23063265Y22474919D01*
X23110720Y22384147D01*
X23152040Y22305110D01*
X23275968Y22150975D01*
X23280692Y22147011D01*
X23287933Y22140935D01*
X23427474Y22023846D01*
X23432872Y22020879D01*
X23432877Y22020875D01*
X23568107Y21946533D01*
X23600787Y21928567D01*
X23606654Y21926706D01*
X23606656Y21926705D01*
X23752883Y21880319D01*
X23789306Y21868765D01*
X23943227Y21851500D01*
X24049769Y21851500D01*
X24052825Y21851800D01*
X24052832Y21851800D01*
X24120945Y21858479D01*
X24196833Y21865920D01*
X24202734Y21867702D01*
X24202736Y21867702D01*
X24291183Y21894406D01*
X24386169Y21923084D01*
X24560796Y22015934D01*
X24647062Y22086291D01*
X24709287Y22137040D01*
X24709290Y22137043D01*
X24714062Y22140935D01*
X24738753Y22170781D01*
X24836201Y22288575D01*
X24836203Y22288579D01*
X24840130Y22293325D01*
X24934198Y22467299D01*
X24992682Y22656232D01*
X24994786Y22676251D01*
X25012711Y22846796D01*
X25012711Y22846798D01*
X25013355Y22852925D01*
X24995430Y23049888D01*
X24991016Y23064888D01*
X24956151Y23183347D01*
X24939590Y23239619D01*
X24934840Y23248706D01*
X24869737Y23373235D01*
X24847960Y23414890D01*
X24724032Y23569025D01*
X24717727Y23574316D01*
X24578532Y23691114D01*
X24572526Y23696154D01*
X24567128Y23699121D01*
X24567123Y23699125D01*
X24404608Y23788467D01*
X24404609Y23788467D01*
X24399213Y23791433D01*
X24393346Y23793294D01*
X24393344Y23793295D01*
X24216564Y23849373D01*
X24216563Y23849373D01*
X24210694Y23851235D01*
X24056773Y23868500D01*
X23950231Y23868500D01*
X23947175Y23868200D01*
X23947168Y23868200D01*
X23888660Y23862463D01*
X23803167Y23854080D01*
X23797266Y23852298D01*
X23797264Y23852298D01*
X23723947Y23830162D01*
X23613831Y23796916D01*
X23439204Y23704066D01*
X23352938Y23633709D01*
X23290713Y23582960D01*
X23290710Y23582957D01*
X23285938Y23579065D01*
X23282011Y23574318D01*
X23282009Y23574316D01*
X23163799Y23431425D01*
X23163797Y23431421D01*
X23159870Y23426675D01*
X23065802Y23252701D01*
X23007318Y23063768D01*
X23006674Y23057643D01*
X23006674Y23057642D01*
X22987380Y22874065D01*
X22986645Y22867075D01*
X22008500Y22867075D01*
X22008500Y23006433D01*
X22031287Y23078703D01*
X22047516Y23101880D01*
X22094056Y23168347D01*
X22103374Y23188328D01*
X22184795Y23362939D01*
X22187120Y23367924D01*
X22244115Y23580629D01*
X22263307Y23800000D01*
X22244115Y24019371D01*
X22187120Y24232076D01*
X22153797Y24303538D01*
X30486626Y24303538D01*
X30488220Y24286676D01*
X30490941Y24257891D01*
X30491500Y24246033D01*
X30491500Y16861843D01*
X30490763Y16848236D01*
X30486676Y16810612D01*
X30487213Y16804477D01*
X30491050Y16760612D01*
X30491379Y16755786D01*
X30491500Y16753314D01*
X30491500Y16750231D01*
X30491801Y16747163D01*
X30495690Y16707494D01*
X30495812Y16706181D01*
X30503913Y16613587D01*
X30505400Y16608468D01*
X30505920Y16603167D01*
X30532791Y16514166D01*
X30533126Y16513033D01*
X30559091Y16423664D01*
X30561544Y16418932D01*
X30563084Y16413831D01*
X30565978Y16408388D01*
X30606731Y16331740D01*
X30607343Y16330574D01*
X30641079Y16265492D01*
X30650108Y16248074D01*
X30653431Y16243911D01*
X30655934Y16239204D01*
X30714755Y16167082D01*
X30715446Y16166226D01*
X30746738Y16127027D01*
X30749242Y16124523D01*
X30749884Y16123805D01*
X30753585Y16119472D01*
X30780935Y16085938D01*
X30785682Y16082011D01*
X30785684Y16082009D01*
X30816262Y16056713D01*
X30825042Y16048723D01*
X31741907Y15131859D01*
X32639595Y14234171D01*
X32673620Y14171859D01*
X32676500Y14145076D01*
X32676500Y11734500D01*
X32656498Y11666379D01*
X32602842Y11619886D01*
X32550500Y11608500D01*
X32536866Y11608500D01*
X32474684Y11601745D01*
X32338295Y11550615D01*
X32221739Y11463261D01*
X32134385Y11346705D01*
X32083255Y11210316D01*
X32076500Y11148134D01*
X32076500Y8851866D01*
X32083255Y8789684D01*
X32134385Y8653295D01*
X32221739Y8536739D01*
X32338295Y8449385D01*
X32474684Y8398255D01*
X32536866Y8391500D01*
X34833134Y8391500D01*
X34895316Y8398255D01*
X35031705Y8449385D01*
X35148261Y8536739D01*
X35200954Y8607046D01*
X35257813Y8649560D01*
X35328631Y8654585D01*
X35367614Y8638913D01*
X35392588Y8623609D01*
X35492498Y8562384D01*
X35497068Y8560491D01*
X35497072Y8560489D01*
X35608730Y8514239D01*
X35726409Y8465495D01*
X35793513Y8449385D01*
X35967784Y8407546D01*
X35967790Y8407545D01*
X35972597Y8406391D01*
X36225000Y8386526D01*
X36477403Y8406391D01*
X36482210Y8407545D01*
X36482216Y8407546D01*
X36656487Y8449385D01*
X36723591Y8465495D01*
X36841270Y8514239D01*
X36952928Y8560489D01*
X36952932Y8560491D01*
X36957502Y8562384D01*
X37173376Y8694672D01*
X37365898Y8859102D01*
X37369106Y8862858D01*
X37369113Y8862865D01*
X37399190Y8898080D01*
X37458641Y8936889D01*
X37529635Y8937395D01*
X37590810Y8898080D01*
X37620887Y8862865D01*
X37620894Y8862858D01*
X37624102Y8859102D01*
X37816624Y8694672D01*
X38032498Y8562384D01*
X38037068Y8560491D01*
X38037072Y8560489D01*
X38148730Y8514239D01*
X38266409Y8465495D01*
X38333513Y8449385D01*
X38507784Y8407546D01*
X38507790Y8407545D01*
X38512597Y8406391D01*
X38765000Y8386526D01*
X39017403Y8406391D01*
X39022210Y8407545D01*
X39022216Y8407546D01*
X39196487Y8449385D01*
X39263591Y8465495D01*
X39381270Y8514239D01*
X39492928Y8560489D01*
X39492932Y8560491D01*
X39497502Y8562384D01*
X39713376Y8694672D01*
X39905898Y8859102D01*
X39909106Y8862858D01*
X39909113Y8862865D01*
X39939190Y8898080D01*
X39998641Y8936889D01*
X40069635Y8937395D01*
X40130810Y8898080D01*
X40160887Y8862865D01*
X40160894Y8862858D01*
X40164102Y8859102D01*
X40356624Y8694672D01*
X40572498Y8562384D01*
X40577068Y8560491D01*
X40577072Y8560489D01*
X40688730Y8514239D01*
X40806409Y8465495D01*
X40873513Y8449385D01*
X41047784Y8407546D01*
X41047790Y8407545D01*
X41052597Y8406391D01*
X41305000Y8386526D01*
X41557403Y8406391D01*
X41562210Y8407545D01*
X41562216Y8407546D01*
X41736487Y8449385D01*
X41803591Y8465495D01*
X41921270Y8514239D01*
X42032928Y8560489D01*
X42032932Y8560491D01*
X42037502Y8562384D01*
X42253376Y8694672D01*
X42445898Y8859102D01*
X42610328Y9051624D01*
X42742616Y9267498D01*
X42806871Y9422622D01*
X42837611Y9496836D01*
X42837612Y9496838D01*
X42839505Y9501409D01*
X42892052Y9720284D01*
X42897454Y9742784D01*
X42897455Y9742790D01*
X42898609Y9747597D01*
X42903376Y9808168D01*
X43187333Y9808168D01*
X43205117Y9457107D01*
X43205827Y9450351D01*
X43261420Y9103277D01*
X43262859Y9096622D01*
X43355608Y8757590D01*
X43357757Y8751129D01*
X43486581Y8424088D01*
X43489412Y8417905D01*
X43652803Y8106690D01*
X43656286Y8100848D01*
X43852330Y7809104D01*
X43856433Y7803660D01*
X43976425Y7661164D01*
X43989164Y7652721D01*
X43999608Y7658819D01*
X46127980Y9787190D01*
X46134357Y9798869D01*
X46864408Y9798869D01*
X46864539Y9797034D01*
X46868790Y9790420D01*
X48999009Y7660202D01*
X49012605Y7652777D01*
X49022218Y7659478D01*
X49122518Y7776088D01*
X49126676Y7781486D01*
X49325762Y8071160D01*
X49329310Y8076971D01*
X49495942Y8386441D01*
X49498849Y8392619D01*
X49631090Y8718287D01*
X49633304Y8724717D01*
X49729598Y9062763D01*
X49731105Y9069393D01*
X49790332Y9415882D01*
X49791112Y9422622D01*
X49812668Y9775075D01*
X49812784Y9778677D01*
X49812853Y9798181D01*
X49812761Y9801806D01*
X49793666Y10154385D01*
X49792931Y10161151D01*
X49736130Y10508015D01*
X49734663Y10514687D01*
X49640736Y10853373D01*
X49638562Y10859837D01*
X49508598Y11186422D01*
X49505742Y11192602D01*
X49341269Y11503237D01*
X49337769Y11509063D01*
X49140697Y11800138D01*
X49136590Y11805547D01*
X49023565Y11938821D01*
X49010740Y11947257D01*
X49000416Y11941205D01*
X46872020Y9812810D01*
X46864408Y9798869D01*
X46134357Y9798869D01*
X46135592Y9801131D01*
X46135461Y9802966D01*
X46131210Y9809580D01*
X44000992Y11939797D01*
X43987455Y11947189D01*
X43977753Y11940401D01*
X43870430Y11814743D01*
X43866296Y11809336D01*
X43668215Y11518959D01*
X43664697Y11513149D01*
X43499134Y11203078D01*
X43496259Y11196913D01*
X43365155Y10870782D01*
X43362962Y10864342D01*
X43267846Y10525956D01*
X43266363Y10519321D01*
X43208350Y10172646D01*
X43207591Y10165874D01*
X43187357Y9814963D01*
X43187333Y9808168D01*
X42903376Y9808168D01*
X42918474Y10000000D01*
X42898609Y10252403D01*
X42839505Y10498591D01*
X42837611Y10503164D01*
X42744511Y10727928D01*
X42744509Y10727932D01*
X42742616Y10732502D01*
X42610328Y10948376D01*
X42445898Y11140898D01*
X42400163Y11179960D01*
X42357669Y11216253D01*
X42318860Y11275704D01*
X42313500Y11312064D01*
X42313500Y12313138D01*
X44349950Y12313138D01*
X44349986Y12312296D01*
X44355037Y12304174D01*
X46487190Y10172020D01*
X46501131Y10164408D01*
X46502966Y10164539D01*
X46509580Y10168790D01*
X48642798Y12302009D01*
X48650412Y12315953D01*
X48650344Y12316911D01*
X48645836Y12323728D01*
X48644418Y12324935D01*
X48364813Y12537936D01*
X48359187Y12541760D01*
X48058214Y12723319D01*
X48052202Y12726516D01*
X47733370Y12874513D01*
X47727070Y12877033D01*
X47394129Y12989727D01*
X47387551Y12991563D01*
X47044417Y13067633D01*
X47037678Y13068749D01*
X46688310Y13107320D01*
X46681529Y13107699D01*
X46330015Y13108313D01*
X46323242Y13107958D01*
X45973720Y13070605D01*
X45967010Y13069518D01*
X45623586Y12994639D01*
X45617011Y12992828D01*
X45283683Y12881298D01*
X45277361Y12878795D01*
X44958034Y12731921D01*
X44951991Y12728735D01*
X44650401Y12548237D01*
X44644755Y12544429D01*
X44364408Y12332404D01*
X44359211Y12328013D01*
X44357972Y12326845D01*
X44349950Y12313138D01*
X42313500Y12313138D01*
X42313500Y18433158D01*
X42314237Y18446765D01*
X42317659Y18478263D01*
X42317659Y18478268D01*
X42318324Y18484389D01*
X42313950Y18534391D01*
X42313621Y18539216D01*
X42313500Y18541687D01*
X42313500Y18544769D01*
X42309309Y18587511D01*
X42309187Y18588826D01*
X42301623Y18675281D01*
X42301087Y18681413D01*
X42299600Y18686532D01*
X42299080Y18691833D01*
X42272218Y18780806D01*
X42271862Y18782006D01*
X42245909Y18871337D01*
X42243455Y18876071D01*
X42241916Y18881169D01*
X42198316Y18963169D01*
X42197702Y18964337D01*
X42157726Y19041459D01*
X42157725Y19041460D01*
X42154892Y19046926D01*
X42151569Y19051089D01*
X42149066Y19055796D01*
X42090245Y19127918D01*
X42089554Y19128774D01*
X42058262Y19167973D01*
X42055758Y19170477D01*
X42055116Y19171195D01*
X42051415Y19175528D01*
X42024065Y19209062D01*
X41988737Y19238288D01*
X41979958Y19246277D01*
X40045405Y21180829D01*
X40011380Y21243141D01*
X40008500Y21269924D01*
X40008500Y22882075D01*
X40986645Y22882075D01*
X41004570Y22685112D01*
X41006308Y22679206D01*
X41006309Y22679202D01*
X41037249Y22574076D01*
X41060410Y22495381D01*
X41063263Y22489923D01*
X41063265Y22489919D01*
X41071107Y22474919D01*
X41152040Y22320110D01*
X41275968Y22165975D01*
X41280692Y22162011D01*
X41287933Y22155935D01*
X41427474Y22038846D01*
X41432872Y22035879D01*
X41432877Y22035875D01*
X41576180Y21957095D01*
X41600787Y21943567D01*
X41606654Y21941706D01*
X41606656Y21941705D01*
X41719884Y21905787D01*
X41789306Y21883765D01*
X41943227Y21866500D01*
X42049769Y21866500D01*
X42052825Y21866800D01*
X42052832Y21866800D01*
X42111340Y21872537D01*
X42196833Y21880920D01*
X42202734Y21882702D01*
X42202736Y21882702D01*
X42294485Y21910403D01*
X42386169Y21938084D01*
X42560796Y22030934D01*
X42647062Y22101291D01*
X42709287Y22152040D01*
X42709290Y22152043D01*
X42714062Y22155935D01*
X42726344Y22170781D01*
X42836201Y22303575D01*
X42836203Y22303579D01*
X42840130Y22308325D01*
X42934198Y22482299D01*
X42992682Y22671232D01*
X43011134Y22846796D01*
X43012711Y22861796D01*
X43012711Y22861798D01*
X43013355Y22867925D01*
X42997354Y23043749D01*
X42995989Y23058749D01*
X42995988Y23058752D01*
X42995430Y23064888D01*
X42986950Y23093703D01*
X42945745Y23233706D01*
X42939590Y23254619D01*
X42929919Y23273119D01*
X42853290Y23419694D01*
X42847960Y23429890D01*
X42724032Y23584025D01*
X42717727Y23589316D01*
X42701334Y23603071D01*
X42572526Y23711154D01*
X42567128Y23714121D01*
X42567123Y23714125D01*
X42404608Y23803467D01*
X42404609Y23803467D01*
X42399213Y23806433D01*
X42393346Y23808294D01*
X42393344Y23808295D01*
X42216564Y23864373D01*
X42216563Y23864373D01*
X42210694Y23866235D01*
X42056773Y23883500D01*
X41950231Y23883500D01*
X41947175Y23883200D01*
X41947168Y23883200D01*
X41888660Y23877463D01*
X41803167Y23869080D01*
X41797266Y23867298D01*
X41797264Y23867298D01*
X41737894Y23849373D01*
X41613831Y23811916D01*
X41439204Y23719066D01*
X41405339Y23691446D01*
X41290713Y23597960D01*
X41290710Y23597957D01*
X41285938Y23594065D01*
X41282011Y23589318D01*
X41282009Y23589316D01*
X41163799Y23446425D01*
X41163797Y23446421D01*
X41159870Y23441675D01*
X41065802Y23267701D01*
X41007318Y23078768D01*
X41006674Y23072643D01*
X41006674Y23072642D01*
X41004283Y23049888D01*
X40986645Y22882075D01*
X40008500Y22882075D01*
X40008500Y23021433D01*
X40031287Y23093703D01*
X40080398Y23163842D01*
X40094056Y23183347D01*
X40187120Y23382924D01*
X40244115Y23595629D01*
X40263307Y23815000D01*
X40244115Y24034371D01*
X40187120Y24247076D01*
X40122067Y24386584D01*
X40096382Y24441666D01*
X40096379Y24441671D01*
X40094056Y24446653D01*
X40075207Y24473572D01*
X40068171Y24483620D01*
X44349160Y24483620D01*
X44349238Y24482530D01*
X44351699Y24478793D01*
X44625632Y24268596D01*
X44631262Y24264741D01*
X44931591Y24082138D01*
X44937593Y24078920D01*
X45255897Y23929816D01*
X45262202Y23927268D01*
X45594743Y23813413D01*
X45601313Y23811554D01*
X45944183Y23734286D01*
X45950912Y23733147D01*
X46300143Y23693357D01*
X46306933Y23692954D01*
X46658419Y23691114D01*
X46665220Y23691446D01*
X47014853Y23727577D01*
X47021581Y23728643D01*
X47365274Y23802324D01*
X47371822Y23804103D01*
X47705549Y23914473D01*
X47711891Y23916959D01*
X48031718Y24062712D01*
X48037777Y24065879D01*
X48301171Y24222272D01*
X48369957Y24239852D01*
X48437328Y24217453D01*
X48481893Y24162186D01*
X48491500Y24113931D01*
X48491500Y16861843D01*
X48490763Y16848236D01*
X48486676Y16810612D01*
X48487213Y16804477D01*
X48491050Y16760612D01*
X48491379Y16755786D01*
X48491500Y16753314D01*
X48491500Y16750231D01*
X48491801Y16747163D01*
X48495690Y16707494D01*
X48495812Y16706181D01*
X48503913Y16613587D01*
X48505400Y16608468D01*
X48505920Y16603167D01*
X48532791Y16514166D01*
X48533126Y16513033D01*
X48559091Y16423664D01*
X48561544Y16418932D01*
X48563084Y16413831D01*
X48565978Y16408388D01*
X48606731Y16331740D01*
X48607343Y16330574D01*
X48641079Y16265492D01*
X48650108Y16248074D01*
X48653431Y16243911D01*
X48655934Y16239204D01*
X48714755Y16167082D01*
X48715446Y16166226D01*
X48746738Y16127027D01*
X48749242Y16124523D01*
X48749884Y16123805D01*
X48753585Y16119472D01*
X48780935Y16085938D01*
X48785682Y16082011D01*
X48785684Y16082009D01*
X48816262Y16056713D01*
X48825042Y16048723D01*
X49741907Y15131859D01*
X50639595Y14234171D01*
X50673620Y14171859D01*
X50676500Y14145076D01*
X50676500Y11734500D01*
X50656498Y11666379D01*
X50602842Y11619886D01*
X50550500Y11608500D01*
X50536866Y11608500D01*
X50474684Y11601745D01*
X50338295Y11550615D01*
X50221739Y11463261D01*
X50134385Y11346705D01*
X50083255Y11210316D01*
X50076500Y11148134D01*
X50076500Y8851866D01*
X50083255Y8789684D01*
X50134385Y8653295D01*
X50221739Y8536739D01*
X50338295Y8449385D01*
X50474684Y8398255D01*
X50536866Y8391500D01*
X52833134Y8391500D01*
X52895316Y8398255D01*
X53031705Y8449385D01*
X53148261Y8536739D01*
X53200954Y8607046D01*
X53257813Y8649560D01*
X53328631Y8654585D01*
X53367614Y8638913D01*
X53392588Y8623609D01*
X53492498Y8562384D01*
X53497068Y8560491D01*
X53497072Y8560489D01*
X53608730Y8514239D01*
X53726409Y8465495D01*
X53793513Y8449385D01*
X53967784Y8407546D01*
X53967790Y8407545D01*
X53972597Y8406391D01*
X54225000Y8386526D01*
X54477403Y8406391D01*
X54482210Y8407545D01*
X54482216Y8407546D01*
X54656487Y8449385D01*
X54723591Y8465495D01*
X54841270Y8514239D01*
X54952928Y8560489D01*
X54952932Y8560491D01*
X54957502Y8562384D01*
X55173376Y8694672D01*
X55365898Y8859102D01*
X55369106Y8862858D01*
X55369113Y8862865D01*
X55399190Y8898080D01*
X55458641Y8936889D01*
X55529635Y8937395D01*
X55590810Y8898080D01*
X55620887Y8862865D01*
X55620894Y8862858D01*
X55624102Y8859102D01*
X55816624Y8694672D01*
X56032498Y8562384D01*
X56037068Y8560491D01*
X56037072Y8560489D01*
X56148730Y8514239D01*
X56266409Y8465495D01*
X56333513Y8449385D01*
X56507784Y8407546D01*
X56507790Y8407545D01*
X56512597Y8406391D01*
X56765000Y8386526D01*
X57017403Y8406391D01*
X57022210Y8407545D01*
X57022216Y8407546D01*
X57196487Y8449385D01*
X57263591Y8465495D01*
X57381270Y8514239D01*
X57492928Y8560489D01*
X57492932Y8560491D01*
X57497502Y8562384D01*
X57713376Y8694672D01*
X57905898Y8859102D01*
X57909106Y8862858D01*
X57909113Y8862865D01*
X57939190Y8898080D01*
X57998641Y8936889D01*
X58069635Y8937395D01*
X58130810Y8898080D01*
X58160887Y8862865D01*
X58160894Y8862858D01*
X58164102Y8859102D01*
X58356624Y8694672D01*
X58572498Y8562384D01*
X58577068Y8560491D01*
X58577072Y8560489D01*
X58688730Y8514239D01*
X58806409Y8465495D01*
X58873513Y8449385D01*
X59047784Y8407546D01*
X59047790Y8407545D01*
X59052597Y8406391D01*
X59305000Y8386526D01*
X59557403Y8406391D01*
X59562210Y8407545D01*
X59562216Y8407546D01*
X59736487Y8449385D01*
X59803591Y8465495D01*
X59921270Y8514239D01*
X60032928Y8560489D01*
X60032932Y8560491D01*
X60037502Y8562384D01*
X60253376Y8694672D01*
X60445898Y8859102D01*
X60610328Y9051624D01*
X60742616Y9267498D01*
X60806871Y9422622D01*
X60837611Y9496836D01*
X60837612Y9496838D01*
X60839505Y9501409D01*
X60892052Y9720284D01*
X60897454Y9742784D01*
X60897455Y9742790D01*
X60898609Y9747597D01*
X60918474Y10000000D01*
X60898609Y10252403D01*
X60839505Y10498591D01*
X60837611Y10503164D01*
X60744511Y10727928D01*
X60744509Y10727932D01*
X60742616Y10732502D01*
X60610328Y10948376D01*
X60445898Y11140898D01*
X60400163Y11179960D01*
X60357669Y11216253D01*
X60318860Y11275704D01*
X60313500Y11312064D01*
X60313500Y18433158D01*
X60314237Y18446765D01*
X60317659Y18478263D01*
X60317659Y18478268D01*
X60318324Y18484389D01*
X60313950Y18534391D01*
X60313621Y18539216D01*
X60313500Y18541687D01*
X60313500Y18544769D01*
X60309309Y18587511D01*
X60309187Y18588826D01*
X60301623Y18675281D01*
X60301087Y18681413D01*
X60299600Y18686532D01*
X60299080Y18691833D01*
X60272218Y18780806D01*
X60271862Y18782006D01*
X60245909Y18871337D01*
X60243455Y18876071D01*
X60241916Y18881169D01*
X60198316Y18963169D01*
X60197702Y18964337D01*
X60157726Y19041459D01*
X60157725Y19041460D01*
X60154892Y19046926D01*
X60151569Y19051089D01*
X60149066Y19055796D01*
X60090245Y19127918D01*
X60089554Y19128774D01*
X60058262Y19167973D01*
X60055758Y19170477D01*
X60055116Y19171195D01*
X60051415Y19175528D01*
X60024065Y19209062D01*
X59988737Y19238288D01*
X59979958Y19246277D01*
X58045405Y21180829D01*
X58011380Y21243141D01*
X58008500Y21269924D01*
X58008500Y22882075D01*
X58986645Y22882075D01*
X59004570Y22685112D01*
X59006308Y22679206D01*
X59006309Y22679202D01*
X59037249Y22574076D01*
X59060410Y22495381D01*
X59063263Y22489923D01*
X59063265Y22489919D01*
X59071107Y22474919D01*
X59152040Y22320110D01*
X59275968Y22165975D01*
X59280692Y22162011D01*
X59287933Y22155935D01*
X59427474Y22038846D01*
X59432872Y22035879D01*
X59432877Y22035875D01*
X59576180Y21957095D01*
X59600787Y21943567D01*
X59606654Y21941706D01*
X59606656Y21941705D01*
X59719884Y21905787D01*
X59789306Y21883765D01*
X59943227Y21866500D01*
X60049769Y21866500D01*
X60052825Y21866800D01*
X60052832Y21866800D01*
X60111340Y21872537D01*
X60196833Y21880920D01*
X60202734Y21882702D01*
X60202736Y21882702D01*
X60294485Y21910403D01*
X60386169Y21938084D01*
X60560796Y22030934D01*
X60647062Y22101291D01*
X60709287Y22152040D01*
X60709290Y22152043D01*
X60714062Y22155935D01*
X60726344Y22170781D01*
X60836201Y22303575D01*
X60836203Y22303579D01*
X60840130Y22308325D01*
X60934198Y22482299D01*
X60992682Y22671232D01*
X61011134Y22846796D01*
X61012711Y22861796D01*
X61012711Y22861798D01*
X61013355Y22867925D01*
X60997354Y23043749D01*
X60995989Y23058749D01*
X60995988Y23058752D01*
X60995430Y23064888D01*
X60986950Y23093703D01*
X60945745Y23233706D01*
X60939590Y23254619D01*
X60929919Y23273119D01*
X60853290Y23419694D01*
X60847960Y23429890D01*
X60724032Y23584025D01*
X60717727Y23589316D01*
X60701334Y23603071D01*
X60572526Y23711154D01*
X60567128Y23714121D01*
X60567123Y23714125D01*
X60404608Y23803467D01*
X60404609Y23803467D01*
X60399213Y23806433D01*
X60393346Y23808294D01*
X60393344Y23808295D01*
X60216564Y23864373D01*
X60216563Y23864373D01*
X60210694Y23866235D01*
X60056773Y23883500D01*
X59950231Y23883500D01*
X59947175Y23883200D01*
X59947168Y23883200D01*
X59888660Y23877463D01*
X59803167Y23869080D01*
X59797266Y23867298D01*
X59797264Y23867298D01*
X59737894Y23849373D01*
X59613831Y23811916D01*
X59439204Y23719066D01*
X59405339Y23691446D01*
X59290713Y23597960D01*
X59290710Y23597957D01*
X59285938Y23594065D01*
X59282011Y23589318D01*
X59282009Y23589316D01*
X59163799Y23446425D01*
X59163797Y23446421D01*
X59159870Y23441675D01*
X59065802Y23267701D01*
X59007318Y23078768D01*
X59006674Y23072643D01*
X59006674Y23072642D01*
X59004283Y23049888D01*
X58986645Y22882075D01*
X58008500Y22882075D01*
X58008500Y23021433D01*
X58031287Y23093703D01*
X58080398Y23163842D01*
X58094056Y23183347D01*
X58187120Y23382924D01*
X58244115Y23595629D01*
X58263307Y23815000D01*
X58244115Y24034371D01*
X58187120Y24247076D01*
X58160792Y24303538D01*
X66486626Y24303538D01*
X66488220Y24286676D01*
X66490941Y24257891D01*
X66491500Y24246033D01*
X66491500Y16361843D01*
X66490763Y16348236D01*
X66487511Y16318297D01*
X66486676Y16310612D01*
X66487213Y16304477D01*
X66491050Y16260612D01*
X66491379Y16255786D01*
X66491500Y16253314D01*
X66491500Y16250231D01*
X66491801Y16247163D01*
X66495690Y16207494D01*
X66495812Y16206181D01*
X66503913Y16113587D01*
X66505400Y16108468D01*
X66505920Y16103167D01*
X66532791Y16014166D01*
X66533126Y16013033D01*
X66557313Y15929785D01*
X66559091Y15923664D01*
X66561544Y15918932D01*
X66563084Y15913831D01*
X66565978Y15908388D01*
X66606731Y15831740D01*
X66607343Y15830574D01*
X66637280Y15772821D01*
X66650108Y15748074D01*
X66653431Y15743911D01*
X66655934Y15739204D01*
X66714755Y15667082D01*
X66715446Y15666226D01*
X66746738Y15627027D01*
X66749242Y15624523D01*
X66749884Y15623805D01*
X66753585Y15619472D01*
X66780935Y15585938D01*
X66785682Y15582011D01*
X66785684Y15582009D01*
X66816262Y15556713D01*
X66825042Y15548723D01*
X68639595Y13734171D01*
X68673620Y13671859D01*
X68676500Y13645076D01*
X68676500Y11734500D01*
X68656498Y11666379D01*
X68602842Y11619886D01*
X68550500Y11608500D01*
X68536866Y11608500D01*
X68474684Y11601745D01*
X68338295Y11550615D01*
X68221739Y11463261D01*
X68134385Y11346705D01*
X68083255Y11210316D01*
X68076500Y11148134D01*
X68076500Y8851866D01*
X68083255Y8789684D01*
X68134385Y8653295D01*
X68221739Y8536739D01*
X68338295Y8449385D01*
X68474684Y8398255D01*
X68536866Y8391500D01*
X70833134Y8391500D01*
X70895316Y8398255D01*
X71031705Y8449385D01*
X71148261Y8536739D01*
X71200954Y8607046D01*
X71257813Y8649560D01*
X71328631Y8654585D01*
X71367614Y8638913D01*
X71392588Y8623609D01*
X71492498Y8562384D01*
X71497068Y8560491D01*
X71497072Y8560489D01*
X71608730Y8514239D01*
X71726409Y8465495D01*
X71793513Y8449385D01*
X71967784Y8407546D01*
X71967790Y8407545D01*
X71972597Y8406391D01*
X72225000Y8386526D01*
X72477403Y8406391D01*
X72482210Y8407545D01*
X72482216Y8407546D01*
X72656487Y8449385D01*
X72723591Y8465495D01*
X72841270Y8514239D01*
X72952928Y8560489D01*
X72952932Y8560491D01*
X72957502Y8562384D01*
X73173376Y8694672D01*
X73365898Y8859102D01*
X73369106Y8862858D01*
X73369113Y8862865D01*
X73399190Y8898080D01*
X73458641Y8936889D01*
X73529635Y8937395D01*
X73590810Y8898080D01*
X73620887Y8862865D01*
X73620894Y8862858D01*
X73624102Y8859102D01*
X73816624Y8694672D01*
X74032498Y8562384D01*
X74037068Y8560491D01*
X74037072Y8560489D01*
X74148730Y8514239D01*
X74266409Y8465495D01*
X74333513Y8449385D01*
X74507784Y8407546D01*
X74507790Y8407545D01*
X74512597Y8406391D01*
X74765000Y8386526D01*
X75017403Y8406391D01*
X75022210Y8407545D01*
X75022216Y8407546D01*
X75196487Y8449385D01*
X75263591Y8465495D01*
X75381270Y8514239D01*
X75492928Y8560489D01*
X75492932Y8560491D01*
X75497502Y8562384D01*
X75713376Y8694672D01*
X75905898Y8859102D01*
X75909106Y8862858D01*
X75909113Y8862865D01*
X75939190Y8898080D01*
X75998641Y8936889D01*
X76069635Y8937395D01*
X76130810Y8898080D01*
X76160887Y8862865D01*
X76160894Y8862858D01*
X76164102Y8859102D01*
X76356624Y8694672D01*
X76572498Y8562384D01*
X76577068Y8560491D01*
X76577072Y8560489D01*
X76688730Y8514239D01*
X76806409Y8465495D01*
X76873513Y8449385D01*
X77047784Y8407546D01*
X77047790Y8407545D01*
X77052597Y8406391D01*
X77305000Y8386526D01*
X77557403Y8406391D01*
X77562210Y8407545D01*
X77562216Y8407546D01*
X77736487Y8449385D01*
X77803591Y8465495D01*
X77921270Y8514239D01*
X78032928Y8560489D01*
X78032932Y8560491D01*
X78037502Y8562384D01*
X78253376Y8694672D01*
X78445898Y8859102D01*
X78610328Y9051624D01*
X78742616Y9267498D01*
X78806871Y9422622D01*
X78837611Y9496836D01*
X78837612Y9496838D01*
X78839505Y9501409D01*
X78892052Y9720284D01*
X78897454Y9742784D01*
X78897455Y9742790D01*
X78898609Y9747597D01*
X78903376Y9808168D01*
X79687333Y9808168D01*
X79705117Y9457107D01*
X79705827Y9450351D01*
X79761420Y9103277D01*
X79762859Y9096622D01*
X79855608Y8757590D01*
X79857757Y8751129D01*
X79986581Y8424088D01*
X79989412Y8417905D01*
X80152803Y8106690D01*
X80156286Y8100848D01*
X80352330Y7809104D01*
X80356433Y7803660D01*
X80476425Y7661164D01*
X80489164Y7652721D01*
X80499608Y7658819D01*
X82627980Y9787190D01*
X82635592Y9801131D01*
X82635461Y9802966D01*
X82631210Y9809580D01*
X80500992Y11939797D01*
X80487455Y11947189D01*
X80477753Y11940401D01*
X80370430Y11814743D01*
X80366296Y11809336D01*
X80168215Y11518959D01*
X80164697Y11513149D01*
X79999134Y11203078D01*
X79996259Y11196913D01*
X79865155Y10870782D01*
X79862962Y10864342D01*
X79767846Y10525956D01*
X79766363Y10519321D01*
X79708350Y10172646D01*
X79707591Y10165874D01*
X79687357Y9814963D01*
X79687333Y9808168D01*
X78903376Y9808168D01*
X78918474Y10000000D01*
X78898609Y10252403D01*
X78839505Y10498591D01*
X78837611Y10503164D01*
X78744511Y10727928D01*
X78744509Y10727932D01*
X78742616Y10732502D01*
X78610328Y10948376D01*
X78445898Y11140898D01*
X78400163Y11179960D01*
X78357669Y11216253D01*
X78318860Y11275704D01*
X78313500Y11312064D01*
X78313500Y12313138D01*
X80849950Y12313138D01*
X80849986Y12312296D01*
X80855037Y12304174D01*
X82987190Y10172020D01*
X83001131Y10164408D01*
X83002966Y10164539D01*
X83009580Y10168790D01*
X85142798Y12302009D01*
X85150412Y12315953D01*
X85150344Y12316911D01*
X85145836Y12323728D01*
X85144418Y12324935D01*
X84864813Y12537936D01*
X84859187Y12541760D01*
X84558214Y12723319D01*
X84552202Y12726516D01*
X84233370Y12874513D01*
X84227070Y12877033D01*
X83894129Y12989727D01*
X83887551Y12991563D01*
X83544417Y13067633D01*
X83537678Y13068749D01*
X83188310Y13107320D01*
X83181529Y13107699D01*
X82830015Y13108313D01*
X82823242Y13107958D01*
X82473720Y13070605D01*
X82467010Y13069518D01*
X82123586Y12994639D01*
X82117011Y12992828D01*
X81783683Y12881298D01*
X81777361Y12878795D01*
X81458034Y12731921D01*
X81451991Y12728735D01*
X81150401Y12548237D01*
X81144755Y12544429D01*
X80864408Y12332404D01*
X80859211Y12328013D01*
X80857972Y12326845D01*
X80849950Y12313138D01*
X78313500Y12313138D01*
X78313500Y18433158D01*
X78314237Y18446765D01*
X78317659Y18478263D01*
X78317659Y18478268D01*
X78318324Y18484389D01*
X78313950Y18534391D01*
X78313621Y18539216D01*
X78313500Y18541687D01*
X78313500Y18544769D01*
X78309309Y18587511D01*
X78309187Y18588826D01*
X78301623Y18675281D01*
X78301087Y18681413D01*
X78299600Y18686532D01*
X78299080Y18691833D01*
X78272218Y18780806D01*
X78271862Y18782006D01*
X78245909Y18871337D01*
X78243455Y18876071D01*
X78241916Y18881169D01*
X78198316Y18963169D01*
X78197702Y18964337D01*
X78157726Y19041459D01*
X78157725Y19041460D01*
X78154892Y19046926D01*
X78151569Y19051089D01*
X78149066Y19055796D01*
X78090245Y19127918D01*
X78089554Y19128774D01*
X78058262Y19167973D01*
X78055758Y19170477D01*
X78055116Y19171195D01*
X78051415Y19175528D01*
X78024065Y19209062D01*
X77988737Y19238288D01*
X77979958Y19246277D01*
X76045405Y21180829D01*
X76011380Y21243141D01*
X76008500Y21269924D01*
X76008500Y22882075D01*
X76986645Y22882075D01*
X77004570Y22685112D01*
X77006308Y22679206D01*
X77006309Y22679202D01*
X77037249Y22574076D01*
X77060410Y22495381D01*
X77063263Y22489923D01*
X77063265Y22489919D01*
X77071107Y22474919D01*
X77152040Y22320110D01*
X77275968Y22165975D01*
X77280692Y22162011D01*
X77287933Y22155935D01*
X77427474Y22038846D01*
X77432872Y22035879D01*
X77432877Y22035875D01*
X77576180Y21957095D01*
X77600787Y21943567D01*
X77606654Y21941706D01*
X77606656Y21941705D01*
X77719884Y21905787D01*
X77789306Y21883765D01*
X77943227Y21866500D01*
X78049769Y21866500D01*
X78052825Y21866800D01*
X78052832Y21866800D01*
X78111340Y21872537D01*
X78196833Y21880920D01*
X78202734Y21882702D01*
X78202736Y21882702D01*
X78294485Y21910403D01*
X78386169Y21938084D01*
X78560796Y22030934D01*
X78647062Y22101291D01*
X78709287Y22152040D01*
X78709290Y22152043D01*
X78714062Y22155935D01*
X78726344Y22170781D01*
X78836201Y22303575D01*
X78836203Y22303579D01*
X78840130Y22308325D01*
X78934198Y22482299D01*
X78992682Y22671232D01*
X79011134Y22846796D01*
X79012711Y22861796D01*
X79012711Y22861798D01*
X79013355Y22867925D01*
X78997354Y23043749D01*
X78995989Y23058749D01*
X78995988Y23058752D01*
X78995430Y23064888D01*
X78986950Y23093703D01*
X78945745Y23233706D01*
X78939590Y23254619D01*
X78929919Y23273119D01*
X78853290Y23419694D01*
X78847960Y23429890D01*
X78724032Y23584025D01*
X78717727Y23589316D01*
X78701334Y23603071D01*
X78572526Y23711154D01*
X78567128Y23714121D01*
X78567123Y23714125D01*
X78404608Y23803467D01*
X78404609Y23803467D01*
X78399213Y23806433D01*
X78393346Y23808294D01*
X78393344Y23808295D01*
X78216564Y23864373D01*
X78216563Y23864373D01*
X78210694Y23866235D01*
X78056773Y23883500D01*
X77950231Y23883500D01*
X77947175Y23883200D01*
X77947168Y23883200D01*
X77888660Y23877463D01*
X77803167Y23869080D01*
X77797266Y23867298D01*
X77797264Y23867298D01*
X77737894Y23849373D01*
X77613831Y23811916D01*
X77439204Y23719066D01*
X77405339Y23691446D01*
X77290713Y23597960D01*
X77290710Y23597957D01*
X77285938Y23594065D01*
X77282011Y23589318D01*
X77282009Y23589316D01*
X77163799Y23446425D01*
X77163797Y23446421D01*
X77159870Y23441675D01*
X77065802Y23267701D01*
X77007318Y23078768D01*
X77006674Y23072643D01*
X77006674Y23072642D01*
X77004283Y23049888D01*
X76986645Y22882075D01*
X76008500Y22882075D01*
X76008500Y23021433D01*
X76031287Y23093703D01*
X76080398Y23163842D01*
X76094056Y23183347D01*
X76187120Y23382924D01*
X76244115Y23595629D01*
X76263307Y23815000D01*
X76244115Y24034371D01*
X76187120Y24247076D01*
X76122067Y24386584D01*
X76096382Y24441666D01*
X76096379Y24441671D01*
X76094056Y24446653D01*
X76075207Y24473572D01*
X76068172Y24483619D01*
X80849160Y24483619D01*
X80849237Y24482530D01*
X80851698Y24478794D01*
X81125632Y24268596D01*
X81131262Y24264741D01*
X81431591Y24082138D01*
X81437593Y24078920D01*
X81755897Y23929816D01*
X81762202Y23927268D01*
X82094743Y23813413D01*
X82101313Y23811554D01*
X82444183Y23734286D01*
X82450912Y23733147D01*
X82800143Y23693357D01*
X82806933Y23692954D01*
X83158419Y23691114D01*
X83165220Y23691446D01*
X83514853Y23727577D01*
X83521581Y23728643D01*
X83865274Y23802324D01*
X83871822Y23804103D01*
X84205549Y23914473D01*
X84211891Y23916959D01*
X84531718Y24062712D01*
X84537777Y24065879D01*
X84839995Y24245324D01*
X84845659Y24249116D01*
X85126732Y24460151D01*
X85131958Y24464536D01*
X85141613Y24473572D01*
X85149682Y24487250D01*
X85149654Y24487976D01*
X85144512Y24496277D01*
X83012810Y26627980D01*
X82998869Y26635592D01*
X82997034Y26635461D01*
X82990420Y26631210D01*
X80856774Y24497563D01*
X80849160Y24483619D01*
X76068172Y24483619D01*
X75970908Y24622527D01*
X75970906Y24622530D01*
X75967749Y24627038D01*
X75812038Y24782749D01*
X75782676Y24803309D01*
X75712028Y24852777D01*
X75631654Y24909056D01*
X75432076Y25002120D01*
X75219371Y25059115D01*
X75000000Y25078307D01*
X75000166Y25080202D01*
X74940131Y25097830D01*
X74893638Y25151486D01*
X74883534Y25221760D01*
X74913028Y25286340D01*
X74919157Y25292923D01*
X75165100Y25538866D01*
X75221582Y25571477D01*
X75432076Y25627880D01*
X75631654Y25720944D01*
X75732759Y25791739D01*
X75807527Y25844092D01*
X75807529Y25844094D01*
X75812038Y25847251D01*
X75967749Y26002962D01*
X76062999Y26138992D01*
X76090899Y26178838D01*
X76090900Y26178840D01*
X76094056Y26183347D01*
X76096379Y26188329D01*
X76096382Y26188334D01*
X76149980Y26303277D01*
X76187120Y26382924D01*
X76244115Y26595629D01*
X76263307Y26815000D01*
X76246407Y27008168D01*
X79687333Y27008168D01*
X79705117Y26657107D01*
X79705827Y26650351D01*
X79761420Y26303277D01*
X79762859Y26296622D01*
X79855608Y25957590D01*
X79857757Y25951129D01*
X79986581Y25624088D01*
X79989412Y25617905D01*
X80152803Y25306690D01*
X80156286Y25300848D01*
X80352330Y25009104D01*
X80356433Y25003660D01*
X80476425Y24861164D01*
X80489164Y24852721D01*
X80499608Y24858819D01*
X82627980Y26987190D01*
X82635592Y27001131D01*
X82635461Y27002966D01*
X82631210Y27009580D01*
X80500992Y29139797D01*
X80487455Y29147189D01*
X80477753Y29140401D01*
X80370430Y29014743D01*
X80366296Y29009336D01*
X80168215Y28718959D01*
X80164697Y28713149D01*
X79999134Y28403078D01*
X79996259Y28396913D01*
X79865155Y28070782D01*
X79862962Y28064342D01*
X79767846Y27725956D01*
X79766363Y27719321D01*
X79708350Y27372646D01*
X79707591Y27365874D01*
X79687357Y27014963D01*
X79687333Y27008168D01*
X76246407Y27008168D01*
X76244115Y27034371D01*
X76187120Y27247076D01*
X76128566Y27372646D01*
X76096382Y27441666D01*
X76096379Y27441671D01*
X76094056Y27446653D01*
X76024215Y27546396D01*
X75970908Y27622527D01*
X75970906Y27622530D01*
X75967749Y27627038D01*
X75812038Y27782749D01*
X75805472Y27787347D01*
X75732759Y27838261D01*
X75631654Y27909056D01*
X75432076Y28002120D01*
X75219371Y28059115D01*
X75000000Y28078307D01*
X74780629Y28059115D01*
X74567924Y28002120D01*
X74508530Y27974424D01*
X74373334Y27911382D01*
X74373329Y27911379D01*
X74368347Y27909056D01*
X74363840Y27905900D01*
X74363838Y27905899D01*
X74192473Y27785908D01*
X74192470Y27785906D01*
X74187962Y27782749D01*
X74032251Y27627038D01*
X74029094Y27622530D01*
X74029092Y27622527D01*
X73975785Y27546396D01*
X73905944Y27446653D01*
X73903621Y27441671D01*
X73903618Y27441666D01*
X73871434Y27372646D01*
X73812880Y27247076D01*
X73755885Y27034371D01*
X73755406Y27028894D01*
X73755405Y27028887D01*
X73754872Y27022793D01*
X73729007Y26956675D01*
X73718448Y26944683D01*
X73553701Y26779935D01*
X73473596Y26699830D01*
X73411283Y26665805D01*
X73340468Y26670869D01*
X73283632Y26713416D01*
X73258821Y26779936D01*
X73258500Y26788925D01*
X73258500Y27365400D01*
X73250587Y27441666D01*
X73248238Y27464307D01*
X73248237Y27464311D01*
X73247526Y27471165D01*
X73244858Y27479164D01*
X73196554Y27623945D01*
X73191550Y27638945D01*
X73098478Y27789348D01*
X72973303Y27914305D01*
X72967072Y27918146D01*
X72828968Y28003275D01*
X72828966Y28003276D01*
X72822738Y28007115D01*
X72709742Y28044594D01*
X72661389Y28060632D01*
X72661387Y28060632D01*
X72654861Y28062797D01*
X72648025Y28063497D01*
X72648022Y28063498D01*
X72604969Y28067909D01*
X72550400Y28073500D01*
X71449600Y28073500D01*
X71446354Y28073163D01*
X71446350Y28073163D01*
X71350693Y28063238D01*
X71350689Y28063237D01*
X71343835Y28062526D01*
X71337299Y28060345D01*
X71337297Y28060345D01*
X71284385Y28042692D01*
X71176055Y28006550D01*
X71025652Y27913478D01*
X71020479Y27908296D01*
X71020474Y27908292D01*
X70957775Y27845483D01*
X70895493Y27811403D01*
X70868602Y27808500D01*
X70061843Y27808500D01*
X70048236Y27809237D01*
X70016738Y27812659D01*
X70016733Y27812659D01*
X70010612Y27813324D01*
X69984362Y27811027D01*
X69960612Y27808950D01*
X69955786Y27808621D01*
X69953314Y27808500D01*
X69950231Y27808500D01*
X69938262Y27807326D01*
X69907494Y27804310D01*
X69906181Y27804188D01*
X69861916Y27800315D01*
X69813587Y27796087D01*
X69808468Y27794600D01*
X69803167Y27794080D01*
X69714166Y27767209D01*
X69713033Y27766874D01*
X69629586Y27742630D01*
X69629582Y27742628D01*
X69623664Y27740909D01*
X69618932Y27738456D01*
X69613831Y27736916D01*
X69608388Y27734022D01*
X69531740Y27693269D01*
X69530574Y27692657D01*
X69490662Y27671968D01*
X69448074Y27649892D01*
X69443911Y27646569D01*
X69439204Y27644066D01*
X69367082Y27585245D01*
X69366226Y27584554D01*
X69327027Y27553262D01*
X69324523Y27550758D01*
X69323805Y27550116D01*
X69319472Y27546415D01*
X69285938Y27519065D01*
X69282011Y27514318D01*
X69282009Y27514316D01*
X69256713Y27483738D01*
X69248723Y27474958D01*
X66830621Y25056855D01*
X66820478Y25047753D01*
X66790975Y25024032D01*
X66773881Y25003660D01*
X66758709Y24985579D01*
X66755528Y24981931D01*
X66753885Y24980119D01*
X66751691Y24977925D01*
X66724358Y24944651D01*
X66723696Y24943853D01*
X66663846Y24872526D01*
X66661278Y24867856D01*
X66657897Y24863739D01*
X66626860Y24805855D01*
X66614023Y24781914D01*
X66613394Y24780755D01*
X66571538Y24704619D01*
X66571535Y24704611D01*
X66568567Y24699213D01*
X66566955Y24694131D01*
X66564438Y24689437D01*
X66537238Y24600469D01*
X66536918Y24599441D01*
X66508765Y24510694D01*
X66508171Y24505398D01*
X66506613Y24500302D01*
X66499384Y24429131D01*
X66497218Y24407813D01*
X66497089Y24406607D01*
X66491500Y24356773D01*
X66491500Y24353246D01*
X66491445Y24352261D01*
X66490998Y24346581D01*
X66489615Y24332965D01*
X66487392Y24311075D01*
X66486626Y24303538D01*
X58160792Y24303538D01*
X58122067Y24386584D01*
X58096382Y24441666D01*
X58096379Y24441671D01*
X58094056Y24446653D01*
X58075207Y24473572D01*
X57970908Y24622527D01*
X57970906Y24622530D01*
X57967749Y24627038D01*
X57812038Y24782749D01*
X57782676Y24803309D01*
X57712028Y24852777D01*
X57631654Y24909056D01*
X57432076Y25002120D01*
X57219371Y25059115D01*
X57000000Y25078307D01*
X57000166Y25080202D01*
X56940131Y25097830D01*
X56893638Y25151486D01*
X56883534Y25221760D01*
X56913028Y25286340D01*
X56919157Y25292923D01*
X57165100Y25538866D01*
X57221582Y25571477D01*
X57432076Y25627880D01*
X57631654Y25720944D01*
X57732759Y25791739D01*
X57807527Y25844092D01*
X57807529Y25844094D01*
X57812038Y25847251D01*
X57967749Y26002962D01*
X58062999Y26138992D01*
X58090899Y26178838D01*
X58090900Y26178840D01*
X58094056Y26183347D01*
X58096379Y26188329D01*
X58096382Y26188334D01*
X58149980Y26303277D01*
X58187120Y26382924D01*
X58244115Y26595629D01*
X58263307Y26815000D01*
X58244115Y27034371D01*
X58187120Y27247076D01*
X58128566Y27372646D01*
X58096382Y27441666D01*
X58096379Y27441671D01*
X58094056Y27446653D01*
X58024215Y27546396D01*
X57970908Y27622527D01*
X57970906Y27622530D01*
X57967749Y27627038D01*
X57812038Y27782749D01*
X57805472Y27787347D01*
X57732759Y27838261D01*
X57631654Y27909056D01*
X57432076Y28002120D01*
X57219371Y28059115D01*
X57000000Y28078307D01*
X56780629Y28059115D01*
X56567924Y28002120D01*
X56508530Y27974424D01*
X56373334Y27911382D01*
X56373329Y27911379D01*
X56368347Y27909056D01*
X56363840Y27905900D01*
X56363838Y27905899D01*
X56192473Y27785908D01*
X56192470Y27785906D01*
X56187962Y27782749D01*
X56032251Y27627038D01*
X56029094Y27622530D01*
X56029092Y27622527D01*
X55975785Y27546396D01*
X55905944Y27446653D01*
X55903621Y27441671D01*
X55903618Y27441666D01*
X55871434Y27372646D01*
X55812880Y27247076D01*
X55755885Y27034371D01*
X55755406Y27028894D01*
X55755405Y27028887D01*
X55754872Y27022793D01*
X55729007Y26956675D01*
X55718448Y26944683D01*
X55553701Y26779935D01*
X55473596Y26699830D01*
X55411283Y26665805D01*
X55340468Y26670869D01*
X55283632Y26713416D01*
X55258821Y26779936D01*
X55258500Y26788925D01*
X55258500Y27365400D01*
X55250587Y27441666D01*
X55248238Y27464307D01*
X55248237Y27464311D01*
X55247526Y27471165D01*
X55244858Y27479164D01*
X55196554Y27623945D01*
X55191550Y27638945D01*
X55098478Y27789348D01*
X54973303Y27914305D01*
X54967072Y27918146D01*
X54828968Y28003275D01*
X54828966Y28003276D01*
X54822738Y28007115D01*
X54709742Y28044594D01*
X54661389Y28060632D01*
X54661387Y28060632D01*
X54654861Y28062797D01*
X54648025Y28063497D01*
X54648022Y28063498D01*
X54604969Y28067909D01*
X54550400Y28073500D01*
X53449600Y28073500D01*
X53446354Y28073163D01*
X53446350Y28073163D01*
X53350693Y28063238D01*
X53350689Y28063237D01*
X53343835Y28062526D01*
X53337299Y28060345D01*
X53337297Y28060345D01*
X53284385Y28042692D01*
X53176055Y28006550D01*
X53025652Y27913478D01*
X53020479Y27908296D01*
X53020474Y27908292D01*
X52957775Y27845483D01*
X52895493Y27811403D01*
X52868602Y27808500D01*
X52061843Y27808500D01*
X52048236Y27809237D01*
X52016738Y27812659D01*
X52016733Y27812659D01*
X52010612Y27813324D01*
X51984362Y27811027D01*
X51960612Y27808950D01*
X51955786Y27808621D01*
X51953314Y27808500D01*
X51950231Y27808500D01*
X51938262Y27807326D01*
X51907494Y27804310D01*
X51906181Y27804188D01*
X51861916Y27800315D01*
X51813587Y27796087D01*
X51808468Y27794600D01*
X51803167Y27794080D01*
X51714166Y27767209D01*
X51713033Y27766874D01*
X51629586Y27742630D01*
X51629582Y27742628D01*
X51623664Y27740909D01*
X51618932Y27738456D01*
X51613831Y27736916D01*
X51608388Y27734022D01*
X51531740Y27693269D01*
X51530574Y27692657D01*
X51490662Y27671968D01*
X51448074Y27649892D01*
X51443911Y27646569D01*
X51439204Y27644066D01*
X51367082Y27585245D01*
X51366226Y27584554D01*
X51327027Y27553262D01*
X51324523Y27550758D01*
X51323805Y27550116D01*
X51319472Y27546415D01*
X51285938Y27519065D01*
X51282011Y27514318D01*
X51282009Y27514316D01*
X51256713Y27483738D01*
X51248723Y27474958D01*
X49946783Y26173018D01*
X49884471Y26138992D01*
X49813656Y26144057D01*
X49756820Y26186604D01*
X49732009Y26253124D01*
X49733489Y26283343D01*
X49790332Y26615882D01*
X49791112Y26622622D01*
X49812668Y26975075D01*
X49812784Y26978677D01*
X49812853Y26998181D01*
X49812761Y27001806D01*
X49793666Y27354385D01*
X49792931Y27361151D01*
X49736130Y27708015D01*
X49734663Y27714687D01*
X49640736Y28053373D01*
X49638562Y28059837D01*
X49508598Y28386422D01*
X49505742Y28392602D01*
X49341269Y28703237D01*
X49337769Y28709063D01*
X49140697Y29000138D01*
X49136590Y29005547D01*
X49023565Y29138821D01*
X49010740Y29147257D01*
X49000416Y29141205D01*
X46859210Y27000000D01*
X46500000Y26640790D01*
X44356772Y24497561D01*
X44349160Y24483620D01*
X40068171Y24483620D01*
X39970908Y24622527D01*
X39970906Y24622530D01*
X39967749Y24627038D01*
X39812038Y24782749D01*
X39782676Y24803309D01*
X39712028Y24852777D01*
X39631654Y24909056D01*
X39432076Y25002120D01*
X39219371Y25059115D01*
X39000000Y25078307D01*
X39000166Y25080202D01*
X38940131Y25097830D01*
X38893638Y25151486D01*
X38883534Y25221760D01*
X38913028Y25286340D01*
X38919157Y25292923D01*
X39165100Y25538866D01*
X39221582Y25571477D01*
X39432076Y25627880D01*
X39631654Y25720944D01*
X39732759Y25791739D01*
X39807527Y25844092D01*
X39807529Y25844094D01*
X39812038Y25847251D01*
X39967749Y26002962D01*
X40062999Y26138992D01*
X40090899Y26178838D01*
X40090900Y26178840D01*
X40094056Y26183347D01*
X40096379Y26188329D01*
X40096382Y26188334D01*
X40149980Y26303277D01*
X40187120Y26382924D01*
X40244115Y26595629D01*
X40263307Y26815000D01*
X40246407Y27008168D01*
X43187333Y27008168D01*
X43205117Y26657107D01*
X43205827Y26650351D01*
X43261420Y26303277D01*
X43262859Y26296622D01*
X43355608Y25957590D01*
X43357757Y25951129D01*
X43486581Y25624088D01*
X43489412Y25617905D01*
X43652803Y25306690D01*
X43656286Y25300848D01*
X43852330Y25009104D01*
X43856433Y25003660D01*
X43976425Y24861164D01*
X43989164Y24852721D01*
X43999608Y24858819D01*
X46127980Y26987190D01*
X46135592Y27001131D01*
X46135461Y27002966D01*
X46131210Y27009580D01*
X44000992Y29139797D01*
X43987455Y29147189D01*
X43977753Y29140401D01*
X43870430Y29014743D01*
X43866296Y29009336D01*
X43668215Y28718959D01*
X43664697Y28713149D01*
X43499134Y28403078D01*
X43496259Y28396913D01*
X43365155Y28070782D01*
X43362962Y28064342D01*
X43267846Y27725956D01*
X43266363Y27719321D01*
X43208350Y27372646D01*
X43207591Y27365874D01*
X43187357Y27014963D01*
X43187333Y27008168D01*
X40246407Y27008168D01*
X40244115Y27034371D01*
X40187120Y27247076D01*
X40128566Y27372646D01*
X40096382Y27441666D01*
X40096379Y27441671D01*
X40094056Y27446653D01*
X40024215Y27546396D01*
X39970908Y27622527D01*
X39970906Y27622530D01*
X39967749Y27627038D01*
X39812038Y27782749D01*
X39805472Y27787347D01*
X39732759Y27838261D01*
X39631654Y27909056D01*
X39432076Y28002120D01*
X39219371Y28059115D01*
X39000000Y28078307D01*
X38780629Y28059115D01*
X38567924Y28002120D01*
X38508530Y27974424D01*
X38373334Y27911382D01*
X38373329Y27911379D01*
X38368347Y27909056D01*
X38363840Y27905900D01*
X38363838Y27905899D01*
X38192473Y27785908D01*
X38192470Y27785906D01*
X38187962Y27782749D01*
X38032251Y27627038D01*
X38029094Y27622530D01*
X38029092Y27622527D01*
X37975785Y27546396D01*
X37905944Y27446653D01*
X37903621Y27441671D01*
X37903618Y27441666D01*
X37871434Y27372646D01*
X37812880Y27247076D01*
X37755885Y27034371D01*
X37755406Y27028894D01*
X37755405Y27028887D01*
X37754872Y27022793D01*
X37729007Y26956675D01*
X37718448Y26944683D01*
X37553701Y26779935D01*
X37473596Y26699830D01*
X37411283Y26665805D01*
X37340468Y26670869D01*
X37283632Y26713416D01*
X37258821Y26779936D01*
X37258500Y26788925D01*
X37258500Y27365400D01*
X37250587Y27441666D01*
X37248238Y27464307D01*
X37248237Y27464311D01*
X37247526Y27471165D01*
X37244858Y27479164D01*
X37196554Y27623945D01*
X37191550Y27638945D01*
X37098478Y27789348D01*
X36973303Y27914305D01*
X36967072Y27918146D01*
X36828968Y28003275D01*
X36828966Y28003276D01*
X36822738Y28007115D01*
X36709742Y28044594D01*
X36661389Y28060632D01*
X36661387Y28060632D01*
X36654861Y28062797D01*
X36648025Y28063497D01*
X36648022Y28063498D01*
X36604969Y28067909D01*
X36550400Y28073500D01*
X35449600Y28073500D01*
X35446354Y28073163D01*
X35446350Y28073163D01*
X35350693Y28063238D01*
X35350689Y28063237D01*
X35343835Y28062526D01*
X35337299Y28060345D01*
X35337297Y28060345D01*
X35284385Y28042692D01*
X35176055Y28006550D01*
X35025652Y27913478D01*
X35020479Y27908296D01*
X35020474Y27908292D01*
X34957775Y27845483D01*
X34895493Y27811403D01*
X34868602Y27808500D01*
X34061843Y27808500D01*
X34048236Y27809237D01*
X34016738Y27812659D01*
X34016733Y27812659D01*
X34010612Y27813324D01*
X33984362Y27811027D01*
X33960612Y27808950D01*
X33955786Y27808621D01*
X33953314Y27808500D01*
X33950231Y27808500D01*
X33938262Y27807326D01*
X33907494Y27804310D01*
X33906181Y27804188D01*
X33861916Y27800315D01*
X33813587Y27796087D01*
X33808468Y27794600D01*
X33803167Y27794080D01*
X33714166Y27767209D01*
X33713033Y27766874D01*
X33629586Y27742630D01*
X33629582Y27742628D01*
X33623664Y27740909D01*
X33618932Y27738456D01*
X33613831Y27736916D01*
X33608388Y27734022D01*
X33531740Y27693269D01*
X33530574Y27692657D01*
X33490662Y27671968D01*
X33448074Y27649892D01*
X33443911Y27646569D01*
X33439204Y27644066D01*
X33367082Y27585245D01*
X33366226Y27584554D01*
X33327027Y27553262D01*
X33324523Y27550758D01*
X33323805Y27550116D01*
X33319472Y27546415D01*
X33285938Y27519065D01*
X33282011Y27514318D01*
X33282009Y27514316D01*
X33256713Y27483738D01*
X33248723Y27474958D01*
X30830621Y25056855D01*
X30820478Y25047753D01*
X30790975Y25024032D01*
X30773881Y25003660D01*
X30758709Y24985579D01*
X30755528Y24981931D01*
X30753885Y24980119D01*
X30751691Y24977925D01*
X30724358Y24944651D01*
X30723696Y24943853D01*
X30663846Y24872526D01*
X30661278Y24867856D01*
X30657897Y24863739D01*
X30626860Y24805855D01*
X30614023Y24781914D01*
X30613394Y24780755D01*
X30571538Y24704619D01*
X30571535Y24704611D01*
X30568567Y24699213D01*
X30566955Y24694131D01*
X30564438Y24689437D01*
X30537238Y24600469D01*
X30536918Y24599441D01*
X30508765Y24510694D01*
X30508171Y24505398D01*
X30506613Y24500302D01*
X30499384Y24429131D01*
X30497218Y24407813D01*
X30497089Y24406607D01*
X30491500Y24356773D01*
X30491500Y24353246D01*
X30491445Y24352261D01*
X30490998Y24346581D01*
X30489615Y24332965D01*
X30487392Y24311075D01*
X30486626Y24303538D01*
X22153797Y24303538D01*
X22128555Y24357670D01*
X22096382Y24426666D01*
X22096379Y24426671D01*
X22094056Y24431653D01*
X22080396Y24451162D01*
X21970908Y24607527D01*
X21970906Y24607530D01*
X21967749Y24612038D01*
X21812038Y24767749D01*
X21796182Y24778852D01*
X21689556Y24853512D01*
X21631654Y24894056D01*
X21432076Y24987120D01*
X21219371Y25044115D01*
X21000000Y25063307D01*
X20994525Y25062828D01*
X20993254Y25062828D01*
X20925133Y25082830D01*
X20878640Y25136486D01*
X20868536Y25206760D01*
X20898030Y25271340D01*
X20904158Y25277923D01*
X21146643Y25520409D01*
X21213861Y25555400D01*
X21213895Y25555406D01*
X21219371Y25555885D01*
X21224676Y25557306D01*
X21224679Y25557307D01*
X21426765Y25611457D01*
X21426764Y25611457D01*
X21432076Y25612880D01*
X21631654Y25705944D01*
X21812038Y25832251D01*
X21967749Y25987962D01*
X21975524Y25999065D01*
X22090899Y26163838D01*
X22090900Y26163840D01*
X22094056Y26168347D01*
X22096379Y26173329D01*
X22096382Y26173334D01*
X22184795Y26362939D01*
X22187120Y26367924D01*
X22244115Y26580629D01*
X22263307Y26800000D01*
X22244115Y27019371D01*
X22187120Y27232076D01*
X22123435Y27368650D01*
X22096382Y27426666D01*
X22096379Y27426671D01*
X22094056Y27431653D01*
X22072315Y27462703D01*
X21970908Y27607527D01*
X21970906Y27607530D01*
X21967749Y27612038D01*
X21812038Y27767749D01*
X21796182Y27778852D01*
X21701023Y27845483D01*
X21631654Y27894056D01*
X21432076Y27987120D01*
X21219371Y28044115D01*
X21000000Y28063307D01*
X20780629Y28044115D01*
X20567924Y27987120D01*
X20474562Y27943585D01*
X20373334Y27896382D01*
X20373329Y27896379D01*
X20368347Y27894056D01*
X20363840Y27890900D01*
X20363838Y27890899D01*
X20192473Y27770908D01*
X20192470Y27770906D01*
X20187962Y27767749D01*
X20032251Y27612038D01*
X20029094Y27607530D01*
X20029092Y27607527D01*
X19927685Y27462703D01*
X19905944Y27431653D01*
X19903621Y27426671D01*
X19903618Y27426666D01*
X19876565Y27368650D01*
X19812880Y27232076D01*
X19755885Y27019371D01*
X19755406Y27013897D01*
X19755400Y27013862D01*
X19720409Y26946643D01*
X19473595Y26699829D01*
X19411283Y26665803D01*
X19340468Y26670868D01*
X19283632Y26713415D01*
X19258821Y26779935D01*
X19258500Y26788924D01*
X19258500Y27350400D01*
X19257586Y27359210D01*
X19248238Y27449307D01*
X19248237Y27449311D01*
X19247526Y27456165D01*
X19240341Y27477703D01*
X19197027Y27607527D01*
X19191550Y27623945D01*
X19098478Y27774348D01*
X18973303Y27899305D01*
X18962606Y27905899D01*
X18828968Y27988275D01*
X18828966Y27988276D01*
X18822738Y27992115D01*
X18742995Y28018564D01*
X18661389Y28045632D01*
X18661387Y28045632D01*
X18654861Y28047797D01*
X18648025Y28048497D01*
X18648022Y28048498D01*
X18600439Y28053373D01*
X18550400Y28058500D01*
X17449600Y28058500D01*
X17446354Y28058163D01*
X17446350Y28058163D01*
X17350693Y28048238D01*
X17350689Y28048237D01*
X17343835Y28047526D01*
X17337299Y28045345D01*
X17337297Y28045345D01*
X17229615Y28009419D01*
X17176055Y27991550D01*
X17025652Y27898478D01*
X17020479Y27893296D01*
X16972748Y27845482D01*
X16910465Y27811403D01*
X16883575Y27808500D01*
X16061843Y27808500D01*
X16048236Y27809237D01*
X16016738Y27812659D01*
X16016733Y27812659D01*
X16010612Y27813324D01*
X15984362Y27811027D01*
X15960612Y27808950D01*
X15955786Y27808621D01*
X15953314Y27808500D01*
X15950231Y27808500D01*
X15938262Y27807326D01*
X15907494Y27804310D01*
X15906181Y27804188D01*
X15861916Y27800315D01*
X15813587Y27796087D01*
X15808468Y27794600D01*
X15803167Y27794080D01*
X15714166Y27767209D01*
X15713033Y27766874D01*
X15629586Y27742630D01*
X15629582Y27742628D01*
X15623664Y27740909D01*
X15618932Y27738456D01*
X15613831Y27736916D01*
X15608388Y27734022D01*
X15531740Y27693269D01*
X15530574Y27692657D01*
X15490662Y27671968D01*
X15448074Y27649892D01*
X15443911Y27646569D01*
X15439204Y27644066D01*
X15367082Y27585245D01*
X15366226Y27584554D01*
X15327027Y27553262D01*
X15324523Y27550758D01*
X15323805Y27550116D01*
X15319472Y27546415D01*
X15285938Y27519065D01*
X15282011Y27514318D01*
X15282009Y27514316D01*
X15256713Y27483738D01*
X15248723Y27474958D01*
X14043159Y26269393D01*
X13178012Y25404246D01*
X13115700Y25370221D01*
X13044885Y25375285D01*
X12988049Y25417832D01*
X12963238Y25484352D01*
X12977977Y25553076D01*
X12995942Y25586441D01*
X12998849Y25592619D01*
X13131090Y25918287D01*
X13133304Y25924717D01*
X13229598Y26262763D01*
X13231105Y26269393D01*
X13290332Y26615882D01*
X13291112Y26622622D01*
X13312668Y26975075D01*
X13312784Y26978677D01*
X13312853Y26998181D01*
X13312761Y27001806D01*
X13293666Y27354385D01*
X13292931Y27361151D01*
X13236130Y27708015D01*
X13234663Y27714687D01*
X13140736Y28053373D01*
X13138562Y28059837D01*
X13008598Y28386422D01*
X13005742Y28392602D01*
X12841269Y28703237D01*
X12837769Y28709063D01*
X12640697Y29000138D01*
X12636590Y29005547D01*
X12523565Y29138821D01*
X12510740Y29147257D01*
X12500416Y29141205D01*
X10372020Y27012810D01*
X10364408Y26998869D01*
X9639659Y26998869D01*
X10000000Y27359210D01*
X12142800Y29502011D01*
X12150412Y29515952D01*
X12150344Y29516911D01*
X12145834Y29523729D01*
X12144418Y29524935D01*
X11864813Y29737936D01*
X11859182Y29741763D01*
X11750026Y29807611D01*
X11702029Y29859924D01*
X11689934Y29929883D01*
X11717581Y29995275D01*
X11776193Y30035339D01*
X11815110Y30041500D01*
X44684522Y30041500D01*
X44752643Y30021498D01*
G37*
%TD.AperFunction*%
%TD*%
M02*
