%TF.GenerationSoftware,KiCad,Pcbnew,(6.0.4-0)*%
%TF.CreationDate,2022-07-20T14:53:48+12:00*%
%TF.ProjectId,motor-connector,6d6f746f-722d-4636-9f6e-6e6563746f72,rev?*%
%TF.SameCoordinates,PX6516e80PY5a995c0*%
%TF.FileFunction,Legend,Top*%
%TF.FilePolarity,Positive*%
%FSLAX46Y46*%
G04 Gerber Fmt 4.6, Leading zero omitted, Abs format (unit mm)*
G04 Created by KiCad (PCBNEW (6.0.4-0)) date 2022-07-20 14:53:48*
%MOMM*%
%LPD*%
G01*
G04 APERTURE LIST*
%ADD10C,0.150000*%
%ADD11C,0.120000*%
G04 APERTURE END LIST*
D10*
%TO.C,J7*%
X79666666Y23097620D02*
X79666666Y22383334D01*
X79619047Y22240477D01*
X79523809Y22145239D01*
X79380952Y22097620D01*
X79285714Y22097620D01*
X80047619Y23097620D02*
X80714285Y23097620D01*
X80285714Y22097620D01*
%TO.C,J5*%
X61666666Y23097620D02*
X61666666Y22383334D01*
X61619047Y22240477D01*
X61523809Y22145239D01*
X61380952Y22097620D01*
X61285714Y22097620D01*
X62619047Y23097620D02*
X62142857Y23097620D01*
X62095238Y22621429D01*
X62142857Y22669048D01*
X62238095Y22716667D01*
X62476190Y22716667D01*
X62571428Y22669048D01*
X62619047Y22621429D01*
X62666666Y22526191D01*
X62666666Y22288096D01*
X62619047Y22192858D01*
X62571428Y22145239D01*
X62476190Y22097620D01*
X62238095Y22097620D01*
X62142857Y22145239D01*
X62095238Y22192858D01*
%TO.C,J3*%
X43566666Y23097620D02*
X43566666Y22383334D01*
X43519047Y22240477D01*
X43423809Y22145239D01*
X43280952Y22097620D01*
X43185714Y22097620D01*
X43947619Y23097620D02*
X44566666Y23097620D01*
X44233333Y22716667D01*
X44376190Y22716667D01*
X44471428Y22669048D01*
X44519047Y22621429D01*
X44566666Y22526191D01*
X44566666Y22288096D01*
X44519047Y22192858D01*
X44471428Y22145239D01*
X44376190Y22097620D01*
X44090476Y22097620D01*
X43995238Y22145239D01*
X43947619Y22192858D01*
%TO.C,J8*%
X73161666Y14707620D02*
X73161666Y13993334D01*
X73114047Y13850477D01*
X73018809Y13755239D01*
X72875952Y13707620D01*
X72780714Y13707620D01*
X73780714Y14279048D02*
X73685476Y14326667D01*
X73637857Y14374286D01*
X73590238Y14469524D01*
X73590238Y14517143D01*
X73637857Y14612381D01*
X73685476Y14660000D01*
X73780714Y14707620D01*
X73971190Y14707620D01*
X74066428Y14660000D01*
X74114047Y14612381D01*
X74161666Y14517143D01*
X74161666Y14469524D01*
X74114047Y14374286D01*
X74066428Y14326667D01*
X73971190Y14279048D01*
X73780714Y14279048D01*
X73685476Y14231429D01*
X73637857Y14183810D01*
X73590238Y14088572D01*
X73590238Y13898096D01*
X73637857Y13802858D01*
X73685476Y13755239D01*
X73780714Y13707620D01*
X73971190Y13707620D01*
X74066428Y13755239D01*
X74114047Y13802858D01*
X74161666Y13898096D01*
X74161666Y14088572D01*
X74114047Y14183810D01*
X74066428Y14231429D01*
X73971190Y14279048D01*
%TO.C,J6*%
X55161666Y14707620D02*
X55161666Y13993334D01*
X55114047Y13850477D01*
X55018809Y13755239D01*
X54875952Y13707620D01*
X54780714Y13707620D01*
X56066428Y14707620D02*
X55875952Y14707620D01*
X55780714Y14660000D01*
X55733095Y14612381D01*
X55637857Y14469524D01*
X55590238Y14279048D01*
X55590238Y13898096D01*
X55637857Y13802858D01*
X55685476Y13755239D01*
X55780714Y13707620D01*
X55971190Y13707620D01*
X56066428Y13755239D01*
X56114047Y13802858D01*
X56161666Y13898096D01*
X56161666Y14136191D01*
X56114047Y14231429D01*
X56066428Y14279048D01*
X55971190Y14326667D01*
X55780714Y14326667D01*
X55685476Y14279048D01*
X55637857Y14231429D01*
X55590238Y14136191D01*
%TO.C,J4*%
X37161666Y14707620D02*
X37161666Y13993334D01*
X37114047Y13850477D01*
X37018809Y13755239D01*
X36875952Y13707620D01*
X36780714Y13707620D01*
X38066428Y14374286D02*
X38066428Y13707620D01*
X37828333Y14755239D02*
X37590238Y14040953D01*
X38209285Y14040953D01*
%TO.C,J2*%
X19161666Y14685120D02*
X19161666Y13970834D01*
X19114047Y13827977D01*
X19018809Y13732739D01*
X18875952Y13685120D01*
X18780714Y13685120D01*
X19590238Y14589881D02*
X19637857Y14637500D01*
X19733095Y14685120D01*
X19971190Y14685120D01*
X20066428Y14637500D01*
X20114047Y14589881D01*
X20161666Y14494643D01*
X20161666Y14399405D01*
X20114047Y14256548D01*
X19542619Y13685120D01*
X20161666Y13685120D01*
%TO.C,J1*%
X25666666Y23097620D02*
X25666666Y22383334D01*
X25619047Y22240477D01*
X25523809Y22145239D01*
X25380952Y22097620D01*
X25285714Y22097620D01*
X26666666Y22097620D02*
X26095238Y22097620D01*
X26380952Y22097620D02*
X26380952Y23097620D01*
X26285714Y22954762D01*
X26190476Y22859524D01*
X26095238Y22811905D01*
D11*
%TO.C,J7*%
X77015000Y29395000D02*
X78435000Y29395000D01*
X68565000Y29395000D02*
X69985000Y29395000D01*
X68565000Y21805000D02*
X78435000Y21805000D01*
X78435000Y21805000D02*
X78435000Y22115000D01*
X77015000Y28895000D02*
X77015000Y29395000D01*
X68565000Y22115000D02*
X68565000Y21805000D01*
X78435000Y29395000D02*
X78435000Y23635000D01*
X69985000Y29395000D02*
X69985000Y28895000D01*
X69985000Y28895000D02*
X77015000Y28895000D01*
X68565000Y23635000D02*
X68565000Y29395000D01*
%TO.C,J5*%
X59015000Y29395000D02*
X60435000Y29395000D01*
X50565000Y29395000D02*
X51985000Y29395000D01*
X50565000Y21805000D02*
X60435000Y21805000D01*
X60435000Y21805000D02*
X60435000Y22115000D01*
X59015000Y28895000D02*
X59015000Y29395000D01*
X50565000Y22115000D02*
X50565000Y21805000D01*
X60435000Y29395000D02*
X60435000Y23635000D01*
X51985000Y29395000D02*
X51985000Y28895000D01*
X51985000Y28895000D02*
X59015000Y28895000D01*
X50565000Y23635000D02*
X50565000Y29395000D01*
%TO.C,J3*%
X41015000Y29395000D02*
X42435000Y29395000D01*
X32565000Y29395000D02*
X33985000Y29395000D01*
X32565000Y21805000D02*
X42435000Y21805000D01*
X42435000Y21805000D02*
X42435000Y22115000D01*
X41015000Y28895000D02*
X41015000Y29395000D01*
X32565000Y22115000D02*
X32565000Y21805000D01*
X42435000Y29395000D02*
X42435000Y23635000D01*
X33985000Y29395000D02*
X33985000Y28895000D01*
X33985000Y28895000D02*
X41015000Y28895000D01*
X32565000Y23635000D02*
X32565000Y29395000D01*
%TO.C,J8*%
X68125000Y12700000D02*
X78865000Y12700000D01*
X78865000Y13160000D02*
X78865000Y6840000D01*
X68125000Y7400000D02*
X78865000Y7400000D01*
X68125000Y6840000D02*
X78865000Y6840000D01*
X67885000Y7340000D02*
X67885000Y6600000D01*
X68125000Y13160000D02*
X68125000Y6840000D01*
X67885000Y6600000D02*
X68385000Y6600000D01*
X68125000Y13160000D02*
X78865000Y13160000D01*
%TO.C,J6*%
X50125000Y12700000D02*
X60865000Y12700000D01*
X60865000Y13160000D02*
X60865000Y6840000D01*
X50125000Y7400000D02*
X60865000Y7400000D01*
X50125000Y6840000D02*
X60865000Y6840000D01*
X49885000Y7340000D02*
X49885000Y6600000D01*
X50125000Y13160000D02*
X50125000Y6840000D01*
X49885000Y6600000D02*
X50385000Y6600000D01*
X50125000Y13160000D02*
X60865000Y13160000D01*
%TO.C,J4*%
X32125000Y12700000D02*
X42865000Y12700000D01*
X42865000Y13160000D02*
X42865000Y6840000D01*
X32125000Y7400000D02*
X42865000Y7400000D01*
X32125000Y6840000D02*
X42865000Y6840000D01*
X31885000Y7340000D02*
X31885000Y6600000D01*
X32125000Y13160000D02*
X32125000Y6840000D01*
X31885000Y6600000D02*
X32385000Y6600000D01*
X32125000Y13160000D02*
X42865000Y13160000D01*
%TO.C,J2*%
X14125000Y12677500D02*
X24865000Y12677500D01*
X24865000Y13137500D02*
X24865000Y6817500D01*
X14125000Y7377500D02*
X24865000Y7377500D01*
X14125000Y6817500D02*
X24865000Y6817500D01*
X13885000Y7317500D02*
X13885000Y6577500D01*
X14125000Y13137500D02*
X14125000Y6817500D01*
X13885000Y6577500D02*
X14385000Y6577500D01*
X14125000Y13137500D02*
X24865000Y13137500D01*
%TO.C,J1*%
X15985000Y28880000D02*
X23015000Y28880000D01*
X14565000Y23620000D02*
X14565000Y29380000D01*
X14565000Y29380000D02*
X15985000Y29380000D01*
X14565000Y21790000D02*
X24435000Y21790000D01*
X24435000Y21790000D02*
X24435000Y22100000D01*
X15985000Y29380000D02*
X15985000Y28880000D01*
X24435000Y29380000D02*
X24435000Y23620000D01*
X14565000Y22100000D02*
X14565000Y21790000D01*
X23015000Y29380000D02*
X24435000Y29380000D01*
X23015000Y28880000D02*
X23015000Y29380000D01*
%TD*%
M02*
