%TF.GenerationSoftware,KiCad,Pcbnew,(6.0.11-0)*%
%TF.CreationDate,2023-07-12T13:15:56+12:00*%
%TF.ProjectId,controller-lower-cut,636f6e74-726f-46c6-9c65-722d6c6f7765,3.2*%
%TF.SameCoordinates,PX1c9c380PY1312d00*%
%TF.FileFunction,Soldermask,Top*%
%TF.FilePolarity,Negative*%
%FSLAX46Y46*%
G04 Gerber Fmt 4.6, Leading zero omitted, Abs format (unit mm)*
G04 Created by KiCad (PCBNEW (6.0.11-0)) date 2023-07-12 13:15:56*
%MOMM*%
%LPD*%
G01*
G04 APERTURE LIST*
G04 Aperture macros list*
%AMRoundRect*
0 Rectangle with rounded corners*
0 $1 Rounding radius*
0 $2 $3 $4 $5 $6 $7 $8 $9 X,Y pos of 4 corners*
0 Add a 4 corners polygon primitive as box body*
4,1,4,$2,$3,$4,$5,$6,$7,$8,$9,$2,$3,0*
0 Add four circle primitives for the rounded corners*
1,1,$1+$1,$2,$3*
1,1,$1+$1,$4,$5*
1,1,$1+$1,$6,$7*
1,1,$1+$1,$8,$9*
0 Add four rect primitives between the rounded corners*
20,1,$1+$1,$2,$3,$4,$5,0*
20,1,$1+$1,$4,$5,$6,$7,0*
20,1,$1+$1,$6,$7,$8,$9,0*
20,1,$1+$1,$8,$9,$2,$3,0*%
G04 Aperture macros list end*
%ADD10RoundRect,0.225000X0.250000X-0.225000X0.250000X0.225000X-0.250000X0.225000X-0.250000X-0.225000X0*%
%ADD11R,1.700000X1.700000*%
%ADD12O,1.700000X1.700000*%
%ADD13RoundRect,0.200000X0.200000X0.275000X-0.200000X0.275000X-0.200000X-0.275000X0.200000X-0.275000X0*%
%ADD14C,1.000000*%
%ADD15RoundRect,0.250001X0.499999X-0.499999X0.499999X0.499999X-0.499999X0.499999X-0.499999X-0.499999X0*%
%ADD16C,1.500000*%
%ADD17RoundRect,0.200000X0.275000X-0.200000X0.275000X0.200000X-0.275000X0.200000X-0.275000X-0.200000X0*%
%ADD18C,5.500000*%
%ADD19C,2.300000*%
%ADD20R,2.300000X2.300000*%
%ADD21R,2.200000X2.200000*%
%ADD22C,2.200000*%
%ADD23RoundRect,0.250000X-0.620000X-0.845000X0.620000X-0.845000X0.620000X0.845000X-0.620000X0.845000X0*%
%ADD24O,1.740000X2.190000*%
%ADD25RoundRect,0.150000X-0.150000X0.587500X-0.150000X-0.587500X0.150000X-0.587500X0.150000X0.587500X0*%
%ADD26R,0.700000X0.600000*%
%ADD27RoundRect,0.200000X-0.275000X0.200000X-0.275000X-0.200000X0.275000X-0.200000X0.275000X0.200000X0*%
%ADD28R,1.800000X2.500000*%
%ADD29R,1.200000X2.200000*%
%ADD30R,5.800000X6.400000*%
%ADD31RoundRect,0.250000X-0.650000X0.325000X-0.650000X-0.325000X0.650000X-0.325000X0.650000X0.325000X0*%
%ADD32R,2.900000X5.400000*%
%ADD33R,0.600000X0.700000*%
%ADD34RoundRect,0.200000X-0.200000X-0.275000X0.200000X-0.275000X0.200000X0.275000X-0.200000X0.275000X0*%
%ADD35R,2.600000X2.600000*%
%ADD36C,2.600000*%
%ADD37RoundRect,0.250001X-0.499999X-0.499999X0.499999X-0.499999X0.499999X0.499999X-0.499999X0.499999X0*%
%ADD38RoundRect,0.250000X-0.550000X1.500000X-0.550000X-1.500000X0.550000X-1.500000X0.550000X1.500000X0*%
%ADD39RoundRect,0.225000X-0.250000X0.225000X-0.250000X-0.225000X0.250000X-0.225000X0.250000X0.225000X0*%
%ADD40R,0.450000X0.600000*%
%ADD41C,1.100000*%
%ADD42C,1.700000*%
%ADD43O,3.200000X1.600000*%
%ADD44O,1.750000X3.500000*%
%ADD45RoundRect,0.225000X0.225000X0.250000X-0.225000X0.250000X-0.225000X-0.250000X0.225000X-0.250000X0*%
%ADD46RoundRect,0.150000X-0.587500X-0.150000X0.587500X-0.150000X0.587500X0.150000X-0.587500X0.150000X0*%
%ADD47RoundRect,0.150000X0.150000X-0.825000X0.150000X0.825000X-0.150000X0.825000X-0.150000X-0.825000X0*%
%ADD48RoundRect,0.250000X-1.950000X-1.000000X1.950000X-1.000000X1.950000X1.000000X-1.950000X1.000000X0*%
G04 APERTURE END LIST*
D10*
%TO.C,C5*%
X36550000Y-74365000D03*
X36550000Y-72815000D03*
%TD*%
D11*
%TO.C,JP6*%
X45425000Y-43325000D03*
D12*
X45425000Y-40785000D03*
X45425000Y-38245000D03*
%TD*%
D13*
%TO.C,R4*%
X22225000Y-59200000D03*
X20575000Y-59200000D03*
%TD*%
D14*
%TO.C,J12*%
X60525000Y-34550000D03*
X60525000Y-19550000D03*
D15*
X56585000Y-31550000D03*
D16*
X56585000Y-28550000D03*
X56585000Y-25550000D03*
X56585000Y-22550000D03*
X59585000Y-31550000D03*
X59585000Y-28550000D03*
X59585000Y-25550000D03*
X59585000Y-22550000D03*
%TD*%
D11*
%TO.C,JP3*%
X45400000Y-50075000D03*
D12*
X45400000Y-52615000D03*
X45400000Y-55155000D03*
%TD*%
D10*
%TO.C,C2*%
X50100000Y-73967893D03*
X50100000Y-72417893D03*
%TD*%
D17*
%TO.C,R5*%
X65100000Y-79017893D03*
X65100000Y-77367893D03*
%TD*%
D18*
%TO.C,H7*%
X69500000Y-13992893D03*
%TD*%
D19*
%TO.C,K1*%
X37600000Y-33020000D03*
X22360000Y-33000000D03*
X24900000Y-25400000D03*
D20*
X37600000Y-25400000D03*
%TD*%
D21*
%TO.C,J13*%
X79508381Y-28848381D03*
D22*
X79508381Y-31388381D03*
X79508381Y-33928381D03*
X79508381Y-36468381D03*
%TD*%
D23*
%TO.C,J18*%
X66710000Y-58400000D03*
D24*
X69250000Y-58400000D03*
X71790000Y-58400000D03*
%TD*%
D25*
%TO.C,Q4*%
X39500000Y-43019607D03*
X37600000Y-43019607D03*
X38550000Y-44894607D03*
%TD*%
D26*
%TO.C,D2*%
X48200000Y-73992893D03*
X48200000Y-72592893D03*
%TD*%
D11*
%TO.C,JP5*%
X70200000Y-37713380D03*
D12*
X70200000Y-35173380D03*
X70200000Y-32633380D03*
%TD*%
D27*
%TO.C,R8*%
X19000000Y-59075000D03*
X19000000Y-60725000D03*
%TD*%
D11*
%TO.C,JP4*%
X70200000Y-25650000D03*
D12*
X70200000Y-23110000D03*
X70200000Y-20570000D03*
%TD*%
D11*
%TO.C,JP1*%
X67800000Y-76492893D03*
D12*
X67800000Y-73952893D03*
%TD*%
D28*
%TO.C,D6*%
X26900000Y-69610000D03*
X26900000Y-73610000D03*
%TD*%
D14*
%TO.C,J14*%
X60525000Y-53350000D03*
X60525000Y-38350000D03*
D15*
X56585000Y-50350000D03*
D16*
X56585000Y-47350000D03*
X56585000Y-44350000D03*
X56585000Y-41350000D03*
X59585000Y-50350000D03*
X59585000Y-47350000D03*
X59585000Y-44350000D03*
X59585000Y-41350000D03*
%TD*%
D11*
%TO.C,JP2*%
X60725000Y-13800000D03*
D12*
X63265000Y-13800000D03*
%TD*%
D29*
%TO.C,Q2*%
X17370000Y-71300000D03*
D30*
X19650000Y-65000000D03*
D29*
X21930000Y-71300000D03*
%TD*%
D31*
%TO.C,C7*%
X41525000Y-58450000D03*
X41525000Y-61400000D03*
%TD*%
D32*
%TO.C,L1*%
X27600000Y-61410000D03*
X37500000Y-61410000D03*
%TD*%
D33*
%TO.C,D5*%
X47750000Y-82150000D03*
X46350000Y-82150000D03*
%TD*%
D27*
%TO.C,R12*%
X36550000Y-69425000D03*
X36550000Y-71075000D03*
%TD*%
D34*
%TO.C,R7*%
X20575000Y-60700000D03*
X22225000Y-60700000D03*
%TD*%
D35*
%TO.C,J6*%
X78005000Y-79737893D03*
D36*
X78005000Y-74657893D03*
%TD*%
D14*
%TO.C,J5*%
X63300000Y-80832893D03*
X54300000Y-80832893D03*
D37*
X57300000Y-76892893D03*
D16*
X60300000Y-76892893D03*
X57300000Y-79892893D03*
X60300000Y-79892893D03*
%TD*%
D38*
%TO.C,C8*%
X41000000Y-69800000D03*
X41000000Y-75200000D03*
%TD*%
D34*
%TO.C,R9*%
X20575000Y-56200000D03*
X22225000Y-56200000D03*
%TD*%
D39*
%TO.C,C1*%
X44400000Y-65150000D03*
X44400000Y-66700000D03*
%TD*%
D40*
%TO.C,D7*%
X40900000Y-24700000D03*
X40900000Y-26800000D03*
%TD*%
D41*
%TO.C,J8*%
X8160000Y-57930000D03*
X8160000Y-60470000D03*
D21*
X10700000Y-57930000D03*
D22*
X10700000Y-60470000D03*
%TD*%
D17*
%TO.C,R18*%
X40190000Y-41182107D03*
X40190000Y-39532107D03*
%TD*%
D34*
%TO.C,R11*%
X40725000Y-78050000D03*
X42375000Y-78050000D03*
%TD*%
D11*
%TO.C,JP7*%
X45425000Y-33500000D03*
D12*
X45425000Y-30960000D03*
X45425000Y-28420000D03*
%TD*%
D21*
%TO.C,J11*%
X79508381Y-15795001D03*
D22*
X79508381Y-18335001D03*
X79508381Y-20875001D03*
X79508381Y-23415001D03*
%TD*%
D18*
%TO.C,H6*%
X24000000Y-83000000D03*
%TD*%
D17*
%TO.C,R10*%
X44800000Y-82175000D03*
X44800000Y-80525000D03*
%TD*%
D11*
%TO.C,J3*%
X50100000Y-68330000D03*
D12*
X50100000Y-65790000D03*
X50100000Y-63250000D03*
X50100000Y-60710000D03*
X50100000Y-58170000D03*
X50100000Y-55630000D03*
X50100000Y-53090000D03*
X50100000Y-50550000D03*
X50100000Y-48010000D03*
X50100000Y-45470000D03*
X50100000Y-42930000D03*
X50100000Y-40390000D03*
X50100000Y-37850000D03*
X50100000Y-35310000D03*
X50100000Y-32770000D03*
X50100000Y-30230000D03*
X50100000Y-27690000D03*
X50100000Y-25150000D03*
X50100000Y-22610000D03*
X50100000Y-20070000D03*
X50100000Y-17530000D03*
X50100000Y-14990000D03*
X50100000Y-12450000D03*
%TD*%
D34*
%TO.C,R20*%
X35160000Y-37102107D03*
X36810000Y-37102107D03*
%TD*%
D27*
%TO.C,R6*%
X44800000Y-77175000D03*
X44800000Y-78825000D03*
%TD*%
D23*
%TO.C,J19*%
X66710000Y-68000000D03*
D24*
X69250000Y-68000000D03*
X71790000Y-68000000D03*
%TD*%
D33*
%TO.C,D4*%
X47750000Y-80550000D03*
X46350000Y-80550000D03*
%TD*%
D22*
%TO.C,J4*%
X19900000Y-53300000D03*
D42*
X19900000Y-48000000D03*
D22*
X19900000Y-37700000D03*
D42*
X19900000Y-43000000D03*
D43*
X27050000Y-48400000D03*
X23400000Y-48000000D03*
X23400000Y-43000000D03*
X27050000Y-42600000D03*
X28400000Y-37700000D03*
D44*
X17900000Y-45500000D03*
D43*
X28400000Y-53300000D03*
%TD*%
D45*
%TO.C,C3*%
X22175000Y-57700000D03*
X20625000Y-57700000D03*
%TD*%
D26*
%TO.C,D1*%
X45437500Y-71337500D03*
X45437500Y-69937500D03*
%TD*%
D14*
%TO.C,J17*%
X60525000Y-72150000D03*
X60525000Y-57150000D03*
D15*
X56585000Y-69150000D03*
D16*
X56585000Y-66150000D03*
X56585000Y-63150000D03*
X56585000Y-60150000D03*
X59585000Y-69150000D03*
X59585000Y-66150000D03*
X59585000Y-63150000D03*
X59585000Y-60150000D03*
%TD*%
D11*
%TO.C,JP8*%
X70200000Y-48910000D03*
D12*
X70200000Y-46370000D03*
X70200000Y-43830000D03*
%TD*%
D46*
%TO.C,Q1*%
X46762500Y-77050000D03*
X46762500Y-78950000D03*
X48637500Y-78000000D03*
%TD*%
D21*
%TO.C,J15*%
X10700000Y-64620000D03*
D22*
X10700000Y-67160000D03*
X10700000Y-69700000D03*
X10700000Y-72240000D03*
%TD*%
D17*
%TO.C,R2*%
X47425000Y-66750000D03*
X47425000Y-65100000D03*
%TD*%
D13*
%TO.C,R3*%
X48125000Y-75400000D03*
X46475000Y-75400000D03*
%TD*%
D25*
%TO.C,Q5*%
X36900000Y-39019607D03*
X35000000Y-39019607D03*
X35950000Y-40894607D03*
%TD*%
D21*
%TO.C,J16*%
X79508381Y-42145001D03*
D22*
X79508381Y-44685001D03*
X79508381Y-47225001D03*
X79508381Y-49765001D03*
%TD*%
D47*
%TO.C,U1*%
X31045000Y-74434999D03*
X32315000Y-74434999D03*
X33585000Y-74434999D03*
X34855000Y-74434999D03*
X34855000Y-69484999D03*
X33585000Y-69484999D03*
X32315000Y-69484999D03*
X31045000Y-69484999D03*
%TD*%
D25*
%TO.C,Q3*%
X42550000Y-79862500D03*
X40650000Y-79862500D03*
X41600000Y-81737500D03*
%TD*%
D18*
%TO.C,H8*%
X69500000Y-82992893D03*
%TD*%
D21*
%TO.C,J10*%
X79500000Y-55250000D03*
D22*
X79500000Y-57790000D03*
X79500000Y-60330000D03*
X79500000Y-62870000D03*
X79500000Y-65410000D03*
X79500000Y-67950000D03*
%TD*%
D48*
%TO.C,C4*%
X29900000Y-80760000D03*
X37300000Y-80760000D03*
%TD*%
D27*
%TO.C,R19*%
X38550000Y-39532107D03*
X38550000Y-41182107D03*
%TD*%
D10*
%TO.C,C6*%
X29450000Y-70534999D03*
X29450000Y-68984999D03*
%TD*%
D18*
%TO.C,H5*%
X24000000Y-14000000D03*
%TD*%
D26*
%TO.C,D3*%
X46400000Y-73992893D03*
X46400000Y-72592893D03*
%TD*%
D21*
%TO.C,J20*%
X10700000Y-33414999D03*
D22*
X10700000Y-30874999D03*
X10700000Y-28334999D03*
X10700000Y-25794999D03*
%TD*%
M02*
