%TF.GenerationSoftware,KiCad,Pcbnew,(6.0.11-0)*%
%TF.CreationDate,2023-07-12T13:15:56+12:00*%
%TF.ProjectId,controller-lower-cut,636f6e74-726f-46c6-9c65-722d6c6f7765,3.2*%
%TF.SameCoordinates,PX1c9c380PY1312d00*%
%TF.FileFunction,Soldermask,Bot*%
%TF.FilePolarity,Negative*%
%FSLAX46Y46*%
G04 Gerber Fmt 4.6, Leading zero omitted, Abs format (unit mm)*
G04 Created by KiCad (PCBNEW (6.0.11-0)) date 2023-07-12 13:15:56*
%MOMM*%
%LPD*%
G01*
G04 APERTURE LIST*
G04 Aperture macros list*
%AMRoundRect*
0 Rectangle with rounded corners*
0 $1 Rounding radius*
0 $2 $3 $4 $5 $6 $7 $8 $9 X,Y pos of 4 corners*
0 Add a 4 corners polygon primitive as box body*
4,1,4,$2,$3,$4,$5,$6,$7,$8,$9,$2,$3,0*
0 Add four circle primitives for the rounded corners*
1,1,$1+$1,$2,$3*
1,1,$1+$1,$4,$5*
1,1,$1+$1,$6,$7*
1,1,$1+$1,$8,$9*
0 Add four rect primitives between the rounded corners*
20,1,$1+$1,$2,$3,$4,$5,0*
20,1,$1+$1,$4,$5,$6,$7,0*
20,1,$1+$1,$6,$7,$8,$9,0*
20,1,$1+$1,$8,$9,$2,$3,0*%
G04 Aperture macros list end*
%ADD10R,1.700000X1.700000*%
%ADD11O,1.700000X1.700000*%
%ADD12C,1.000000*%
%ADD13RoundRect,0.250001X0.499999X-0.499999X0.499999X0.499999X-0.499999X0.499999X-0.499999X-0.499999X0*%
%ADD14C,1.500000*%
%ADD15C,5.500000*%
%ADD16C,2.300000*%
%ADD17R,2.300000X2.300000*%
%ADD18R,2.200000X2.200000*%
%ADD19C,2.200000*%
%ADD20RoundRect,0.250000X-0.620000X-0.845000X0.620000X-0.845000X0.620000X0.845000X-0.620000X0.845000X0*%
%ADD21O,1.740000X2.190000*%
%ADD22R,2.600000X2.600000*%
%ADD23C,2.600000*%
%ADD24RoundRect,0.250001X-0.499999X-0.499999X0.499999X-0.499999X0.499999X0.499999X-0.499999X0.499999X0*%
%ADD25C,1.100000*%
%ADD26C,1.700000*%
%ADD27O,3.200000X1.600000*%
%ADD28O,1.750000X3.500000*%
G04 APERTURE END LIST*
D10*
%TO.C,JP6*%
X45425000Y-43325000D03*
D11*
X45425000Y-40785000D03*
X45425000Y-38245000D03*
%TD*%
D12*
%TO.C,J12*%
X60525000Y-34550000D03*
X60525000Y-19550000D03*
D13*
X56585000Y-31550000D03*
D14*
X56585000Y-28550000D03*
X56585000Y-25550000D03*
X56585000Y-22550000D03*
X59585000Y-31550000D03*
X59585000Y-28550000D03*
X59585000Y-25550000D03*
X59585000Y-22550000D03*
%TD*%
D10*
%TO.C,JP3*%
X45400000Y-50075000D03*
D11*
X45400000Y-52615000D03*
X45400000Y-55155000D03*
%TD*%
D15*
%TO.C,H7*%
X69500000Y-13992893D03*
%TD*%
D16*
%TO.C,K1*%
X37600000Y-33020000D03*
X22360000Y-33000000D03*
X24900000Y-25400000D03*
D17*
X37600000Y-25400000D03*
%TD*%
D18*
%TO.C,J13*%
X79508381Y-28848381D03*
D19*
X79508381Y-31388381D03*
X79508381Y-33928381D03*
X79508381Y-36468381D03*
%TD*%
D20*
%TO.C,J18*%
X66710000Y-58400000D03*
D21*
X69250000Y-58400000D03*
X71790000Y-58400000D03*
%TD*%
D10*
%TO.C,JP5*%
X70200000Y-37713380D03*
D11*
X70200000Y-35173380D03*
X70200000Y-32633380D03*
%TD*%
D10*
%TO.C,JP4*%
X70200000Y-25650000D03*
D11*
X70200000Y-23110000D03*
X70200000Y-20570000D03*
%TD*%
D10*
%TO.C,JP1*%
X67800000Y-76492893D03*
D11*
X67800000Y-73952893D03*
%TD*%
D12*
%TO.C,J14*%
X60525000Y-53350000D03*
X60525000Y-38350000D03*
D13*
X56585000Y-50350000D03*
D14*
X56585000Y-47350000D03*
X56585000Y-44350000D03*
X56585000Y-41350000D03*
X59585000Y-50350000D03*
X59585000Y-47350000D03*
X59585000Y-44350000D03*
X59585000Y-41350000D03*
%TD*%
D10*
%TO.C,JP2*%
X60725000Y-13800000D03*
D11*
X63265000Y-13800000D03*
%TD*%
D22*
%TO.C,J6*%
X78005000Y-79737893D03*
D23*
X78005000Y-74657893D03*
%TD*%
D12*
%TO.C,J5*%
X63300000Y-80832893D03*
X54300000Y-80832893D03*
D24*
X57300000Y-76892893D03*
D14*
X60300000Y-76892893D03*
X57300000Y-79892893D03*
X60300000Y-79892893D03*
%TD*%
D25*
%TO.C,J8*%
X8160000Y-57930000D03*
X8160000Y-60470000D03*
D18*
X10700000Y-57930000D03*
D19*
X10700000Y-60470000D03*
%TD*%
D10*
%TO.C,JP7*%
X45425000Y-33500000D03*
D11*
X45425000Y-30960000D03*
X45425000Y-28420000D03*
%TD*%
D18*
%TO.C,J11*%
X79508381Y-15795001D03*
D19*
X79508381Y-18335001D03*
X79508381Y-20875001D03*
X79508381Y-23415001D03*
%TD*%
D15*
%TO.C,H6*%
X24000000Y-83000000D03*
%TD*%
D10*
%TO.C,J3*%
X50100000Y-68330000D03*
D11*
X50100000Y-65790000D03*
X50100000Y-63250000D03*
X50100000Y-60710000D03*
X50100000Y-58170000D03*
X50100000Y-55630000D03*
X50100000Y-53090000D03*
X50100000Y-50550000D03*
X50100000Y-48010000D03*
X50100000Y-45470000D03*
X50100000Y-42930000D03*
X50100000Y-40390000D03*
X50100000Y-37850000D03*
X50100000Y-35310000D03*
X50100000Y-32770000D03*
X50100000Y-30230000D03*
X50100000Y-27690000D03*
X50100000Y-25150000D03*
X50100000Y-22610000D03*
X50100000Y-20070000D03*
X50100000Y-17530000D03*
X50100000Y-14990000D03*
X50100000Y-12450000D03*
%TD*%
D20*
%TO.C,J19*%
X66710000Y-68000000D03*
D21*
X69250000Y-68000000D03*
X71790000Y-68000000D03*
%TD*%
D19*
%TO.C,J4*%
X19900000Y-53300000D03*
D26*
X19900000Y-48000000D03*
D19*
X19900000Y-37700000D03*
D26*
X19900000Y-43000000D03*
D27*
X27050000Y-48400000D03*
X23400000Y-48000000D03*
X23400000Y-43000000D03*
X27050000Y-42600000D03*
X28400000Y-37700000D03*
D28*
X17900000Y-45500000D03*
D27*
X28400000Y-53300000D03*
%TD*%
D12*
%TO.C,J17*%
X60525000Y-72150000D03*
X60525000Y-57150000D03*
D13*
X56585000Y-69150000D03*
D14*
X56585000Y-66150000D03*
X56585000Y-63150000D03*
X56585000Y-60150000D03*
X59585000Y-69150000D03*
X59585000Y-66150000D03*
X59585000Y-63150000D03*
X59585000Y-60150000D03*
%TD*%
D10*
%TO.C,JP8*%
X70200000Y-48910000D03*
D11*
X70200000Y-46370000D03*
X70200000Y-43830000D03*
%TD*%
D18*
%TO.C,J15*%
X10700000Y-64620000D03*
D19*
X10700000Y-67160000D03*
X10700000Y-69700000D03*
X10700000Y-72240000D03*
%TD*%
D18*
%TO.C,J16*%
X79508381Y-42145001D03*
D19*
X79508381Y-44685001D03*
X79508381Y-47225001D03*
X79508381Y-49765001D03*
%TD*%
D15*
%TO.C,H8*%
X69500000Y-82992893D03*
%TD*%
D18*
%TO.C,J10*%
X79500000Y-55250000D03*
D19*
X79500000Y-57790000D03*
X79500000Y-60330000D03*
X79500000Y-62870000D03*
X79500000Y-65410000D03*
X79500000Y-67950000D03*
%TD*%
D15*
%TO.C,H5*%
X24000000Y-14000000D03*
%TD*%
D18*
%TO.C,J20*%
X10700000Y-33414999D03*
D19*
X10700000Y-30874999D03*
X10700000Y-28334999D03*
X10700000Y-25794999D03*
%TD*%
M02*
