%TF.GenerationSoftware,KiCad,Pcbnew,(6.0.11-0)*%
%TF.CreationDate,2023-07-12T13:15:56+12:00*%
%TF.ProjectId,controller-lower-cut,636f6e74-726f-46c6-9c65-722d6c6f7765,3.2*%
%TF.SameCoordinates,PX1c9c380PY1312d00*%
%TF.FileFunction,Legend,Bot*%
%TF.FilePolarity,Positive*%
%FSLAX46Y46*%
G04 Gerber Fmt 4.6, Leading zero omitted, Abs format (unit mm)*
G04 Created by KiCad (PCBNEW (6.0.11-0)) date 2023-07-12 13:15:56*
%MOMM*%
%LPD*%
G01*
G04 APERTURE LIST*
G04 Aperture macros list*
%AMRoundRect*
0 Rectangle with rounded corners*
0 $1 Rounding radius*
0 $2 $3 $4 $5 $6 $7 $8 $9 X,Y pos of 4 corners*
0 Add a 4 corners polygon primitive as box body*
4,1,4,$2,$3,$4,$5,$6,$7,$8,$9,$2,$3,0*
0 Add four circle primitives for the rounded corners*
1,1,$1+$1,$2,$3*
1,1,$1+$1,$4,$5*
1,1,$1+$1,$6,$7*
1,1,$1+$1,$8,$9*
0 Add four rect primitives between the rounded corners*
20,1,$1+$1,$2,$3,$4,$5,0*
20,1,$1+$1,$4,$5,$6,$7,0*
20,1,$1+$1,$6,$7,$8,$9,0*
20,1,$1+$1,$8,$9,$2,$3,0*%
G04 Aperture macros list end*
%ADD10C,0.100000*%
%ADD11C,0.150000*%
%ADD12C,0.130000*%
%ADD13C,0.140000*%
%ADD14C,0.125000*%
%ADD15C,0.080000*%
%ADD16C,0.120000*%
%ADD17R,1.700000X1.700000*%
%ADD18O,1.700000X1.700000*%
%ADD19C,1.000000*%
%ADD20RoundRect,0.250001X0.499999X-0.499999X0.499999X0.499999X-0.499999X0.499999X-0.499999X-0.499999X0*%
%ADD21C,1.500000*%
%ADD22C,5.500000*%
%ADD23C,2.300000*%
%ADD24R,2.300000X2.300000*%
%ADD25R,2.200000X2.200000*%
%ADD26C,2.200000*%
%ADD27RoundRect,0.250000X-0.620000X-0.845000X0.620000X-0.845000X0.620000X0.845000X-0.620000X0.845000X0*%
%ADD28O,1.740000X2.190000*%
%ADD29R,2.600000X2.600000*%
%ADD30C,2.600000*%
%ADD31RoundRect,0.250001X-0.499999X-0.499999X0.499999X-0.499999X0.499999X0.499999X-0.499999X0.499999X0*%
%ADD32C,1.100000*%
%ADD33C,1.700000*%
%ADD34O,3.200000X1.600000*%
%ADD35O,1.750000X3.500000*%
G04 APERTURE END LIST*
D10*
X62144998Y-77005000D02*
X61495000Y-77005000D01*
X28750000Y-45550000D02*
X30100000Y-45550000D01*
X62710858Y-78094852D02*
X62110859Y-79269852D01*
X28750000Y-43950000D02*
X28750000Y-47200000D01*
X72757581Y-20600000D02*
X72757581Y-15800000D01*
D11*
X78037500Y-60300000D02*
X77637500Y-60300000D01*
D10*
X72125000Y-33113380D02*
X72700000Y-33113380D01*
X72750000Y-28800000D02*
X74850000Y-28800000D01*
X72757581Y-42554230D02*
X74857581Y-42554230D01*
D11*
X78037500Y-57700000D02*
X77637500Y-57700000D01*
D10*
X61510857Y-78094852D02*
X62110858Y-78094852D01*
X68900000Y-39900000D02*
X68300000Y-39900000D01*
X72757581Y-15800000D02*
X74857581Y-15800000D01*
X68400000Y-23210000D02*
X69000000Y-23200000D01*
X62110858Y-78094852D02*
X62710858Y-78094852D01*
X62685858Y-79219852D02*
X61560858Y-79219852D01*
X72132581Y-20600000D02*
X72707581Y-20600000D01*
X62779999Y-79485002D02*
X62779999Y-79735001D01*
X67700000Y-51044230D02*
X67700000Y-41944230D01*
D11*
X78037500Y-65400000D02*
X77637500Y-65400000D01*
D10*
X62095000Y-78055000D02*
X62144998Y-77005000D01*
X63279997Y-79210001D02*
X63755001Y-79635003D01*
X63280001Y-79460004D02*
X62880000Y-79110001D01*
D11*
X78037500Y-62800000D02*
X77637500Y-62800000D01*
D10*
X68400000Y-18800000D02*
X69000000Y-18800000D01*
X63755001Y-79635003D02*
X63655000Y-79435000D01*
X63255000Y-79910002D02*
X63030000Y-79835002D01*
X63755001Y-79635003D02*
X63530001Y-79560002D01*
D11*
X78037500Y-55200000D02*
X77637500Y-55200000D01*
D10*
X55713541Y-77214999D02*
X56030000Y-77214999D01*
X63279997Y-79210001D02*
X63280001Y-79460004D01*
X62095000Y-80055000D02*
X61495000Y-80055000D01*
X63255000Y-79910002D02*
X63155000Y-79710003D01*
X68300000Y-30800000D02*
X68900000Y-30800000D01*
X62779999Y-79735001D02*
X62380000Y-79385002D01*
X68300000Y-51044230D02*
X67700000Y-51044230D01*
X54435000Y-77205000D02*
X55265000Y-79395000D01*
X25150000Y-46800000D02*
X25150000Y-44300000D01*
X25150000Y-45550000D02*
X23800000Y-45550000D01*
X72132581Y-46354230D02*
X72707581Y-46354230D01*
X67700000Y-46354230D02*
X68300000Y-46344230D01*
X72757581Y-46354230D02*
X72757581Y-42554230D01*
X62779999Y-79485002D02*
X63255000Y-79910002D01*
X55713542Y-77214999D02*
G75*
G03*
X55713542Y-77214999I-333542J0D01*
G01*
X62110859Y-79269852D02*
X61510857Y-78094852D01*
X55713544Y-79714998D02*
G75*
G03*
X55713544Y-79714998I-333543J0D01*
G01*
X68400000Y-27900000D02*
X68400000Y-18800000D01*
X55755000Y-79739999D02*
X56030000Y-79740000D01*
X62095000Y-80055000D02*
X62095000Y-79230001D01*
D11*
X78037500Y-67900000D02*
X77637500Y-67900000D01*
D10*
X72700000Y-33113380D02*
X72750000Y-28800000D01*
X67700000Y-41944230D02*
X68300000Y-41944230D01*
X69000000Y-27900000D02*
X68400000Y-27900000D01*
X68300000Y-35210000D02*
X68900000Y-35200000D01*
X68300000Y-39900000D02*
X68300000Y-30800000D01*
D12*
X41319047Y-13261904D02*
X41319047Y-13833333D01*
X41366666Y-13947619D01*
X41461904Y-14023809D01*
X41604761Y-14061904D01*
X41700000Y-14061904D01*
X40366666Y-14061904D02*
X40842857Y-14061904D01*
X40842857Y-13261904D01*
X39461904Y-13985714D02*
X39509523Y-14023809D01*
X39652380Y-14061904D01*
X39747619Y-14061904D01*
X39890476Y-14023809D01*
X39985714Y-13947619D01*
X40033333Y-13871428D01*
X40080952Y-13719047D01*
X40080952Y-13604761D01*
X40033333Y-13452380D01*
X39985714Y-13376190D01*
X39890476Y-13300000D01*
X39747619Y-13261904D01*
X39652380Y-13261904D01*
X39509523Y-13300000D01*
X39461904Y-13338095D01*
X38747619Y-13261904D02*
X38747619Y-13833333D01*
X38795238Y-13947619D01*
X38890476Y-14023809D01*
X39033333Y-14061904D01*
X39128571Y-14061904D01*
X37795238Y-14061904D02*
X38271428Y-14061904D01*
X38271428Y-13261904D01*
X36890476Y-13985714D02*
X36938095Y-14023809D01*
X37080952Y-14061904D01*
X37176190Y-14061904D01*
X37319047Y-14023809D01*
X37414285Y-13947619D01*
X37461904Y-13871428D01*
X37509523Y-13719047D01*
X37509523Y-13604761D01*
X37461904Y-13452380D01*
X37414285Y-13376190D01*
X37319047Y-13300000D01*
X37176190Y-13261904D01*
X37080952Y-13261904D01*
X36938095Y-13300000D01*
X36890476Y-13338095D01*
X36176190Y-13261904D02*
X36176190Y-13833333D01*
X36223809Y-13947619D01*
X36319047Y-14023809D01*
X36461904Y-14061904D01*
X36557142Y-14061904D01*
X35223809Y-14061904D02*
X35700000Y-14061904D01*
X35700000Y-13261904D01*
X34319047Y-13985714D02*
X34366666Y-14023809D01*
X34509523Y-14061904D01*
X34604761Y-14061904D01*
X34747619Y-14023809D01*
X34842857Y-13947619D01*
X34890476Y-13871428D01*
X34938095Y-13719047D01*
X34938095Y-13604761D01*
X34890476Y-13452380D01*
X34842857Y-13376190D01*
X34747619Y-13300000D01*
X34604761Y-13261904D01*
X34509523Y-13261904D01*
X34366666Y-13300000D01*
X34319047Y-13338095D01*
X33604761Y-13261904D02*
X33604761Y-13833333D01*
X33652380Y-13947619D01*
X33747619Y-14023809D01*
X33890476Y-14061904D01*
X33985714Y-14061904D01*
X32652380Y-14061904D02*
X33128571Y-14061904D01*
X33128571Y-13261904D01*
X31747619Y-13985714D02*
X31795238Y-14023809D01*
X31938095Y-14061904D01*
X32033333Y-14061904D01*
X32176190Y-14023809D01*
X32271428Y-13947619D01*
X32319047Y-13871428D01*
X32366666Y-13719047D01*
X32366666Y-13604761D01*
X32319047Y-13452380D01*
X32271428Y-13376190D01*
X32176190Y-13300000D01*
X32033333Y-13261904D01*
X31938095Y-13261904D01*
X31795238Y-13300000D01*
X31747619Y-13338095D01*
D11*
X23550000Y-46283214D02*
X23597619Y-46378452D01*
X23597619Y-46521309D01*
X23550000Y-46664166D01*
X23454761Y-46759404D01*
X23359523Y-46807023D01*
X23169047Y-46854642D01*
X23026190Y-46854642D01*
X22835714Y-46807023D01*
X22740476Y-46759404D01*
X22645238Y-46664166D01*
X22597619Y-46521309D01*
X22597619Y-46426071D01*
X22645238Y-46283214D01*
X22692857Y-46235595D01*
X23026190Y-46235595D01*
X23026190Y-46426071D01*
X22597619Y-45807023D02*
X23597619Y-45807023D01*
X22597619Y-45235595D01*
X23597619Y-45235595D01*
X22597619Y-44759404D02*
X23597619Y-44759404D01*
X23597619Y-44521309D01*
X23550000Y-44378452D01*
X23454761Y-44283214D01*
X23359523Y-44235595D01*
X23169047Y-44187976D01*
X23026190Y-44187976D01*
X22835714Y-44235595D01*
X22740476Y-44283214D01*
X22645238Y-44378452D01*
X22597619Y-44521309D01*
X22597619Y-44759404D01*
X78017223Y-47096610D02*
X77350557Y-47096610D01*
X78017223Y-48096610D01*
X77350557Y-48096610D01*
X76969604Y-48096610D02*
X76969604Y-47096610D01*
X76731509Y-47096610D01*
X76588652Y-47144230D01*
X76493414Y-47239468D01*
X76445795Y-47334706D01*
X76398176Y-47525182D01*
X76398176Y-47668039D01*
X76445795Y-47858515D01*
X76493414Y-47953753D01*
X76588652Y-48048991D01*
X76731509Y-48096610D01*
X76969604Y-48096610D01*
X75969604Y-48096610D02*
X75969604Y-47096610D01*
X74921985Y-48096610D02*
X75255319Y-47620420D01*
X75493414Y-48096610D02*
X75493414Y-47096610D01*
X75112461Y-47096610D01*
X75017223Y-47144230D01*
X74969604Y-47191849D01*
X74921985Y-47287087D01*
X74921985Y-47429944D01*
X74969604Y-47525182D01*
X75017223Y-47572801D01*
X75112461Y-47620420D01*
X75493414Y-47620420D01*
D13*
X69161904Y-41687039D02*
X69161904Y-41306087D01*
X69542857Y-41267991D01*
X69504761Y-41306087D01*
X69466666Y-41382277D01*
X69466666Y-41572753D01*
X69504761Y-41648944D01*
X69542857Y-41687039D01*
X69619047Y-41725134D01*
X69809523Y-41725134D01*
X69885714Y-41687039D01*
X69923809Y-41648944D01*
X69961904Y-41572753D01*
X69961904Y-41382277D01*
X69923809Y-41306087D01*
X69885714Y-41267991D01*
X69161904Y-41953706D02*
X69961904Y-42220372D01*
X69161904Y-42487039D01*
D11*
X61407023Y-28052380D02*
X60740357Y-29052380D01*
X60740357Y-28052380D02*
X61407023Y-29052380D01*
X77723928Y-31306190D02*
X77723928Y-31782380D01*
X78057261Y-30782380D02*
X77723928Y-31306190D01*
X77390595Y-30782380D01*
X76485833Y-31687142D02*
X76533452Y-31734761D01*
X76676309Y-31782380D01*
X76771547Y-31782380D01*
X76914404Y-31734761D01*
X77009642Y-31639523D01*
X77057261Y-31544285D01*
X77104880Y-31353809D01*
X77104880Y-31210952D01*
X77057261Y-31020476D01*
X77009642Y-30925238D01*
X76914404Y-30830000D01*
X76771547Y-30782380D01*
X76676309Y-30782380D01*
X76533452Y-30830000D01*
X76485833Y-30877619D01*
X75581071Y-31782380D02*
X76057261Y-31782380D01*
X76057261Y-30782380D01*
X75342976Y-30782380D02*
X74676309Y-31782380D01*
X74676309Y-30782380D02*
X75342976Y-31782380D01*
X31066428Y-43588095D02*
X31066428Y-44350000D01*
X31447380Y-43969047D02*
X30685476Y-43969047D01*
X30542619Y-44778571D02*
X30495000Y-44826190D01*
X30447380Y-44921428D01*
X30447380Y-45159523D01*
X30495000Y-45254761D01*
X30542619Y-45302380D01*
X30637857Y-45350000D01*
X30733095Y-45350000D01*
X30875952Y-45302380D01*
X31447380Y-44730952D01*
X31447380Y-45350000D01*
X30780714Y-46207142D02*
X31447380Y-46207142D01*
X30399761Y-45969047D02*
X31114047Y-45730952D01*
X31114047Y-46350000D01*
X30447380Y-46588095D02*
X31447380Y-46921428D01*
X30447380Y-47254761D01*
X33057380Y-44826190D02*
X32057380Y-44826190D01*
X33057380Y-45302380D02*
X32057380Y-45302380D01*
X33057380Y-45873809D01*
X32057380Y-45873809D01*
D14*
X56711666Y-78841666D02*
X56711666Y-78141666D01*
X56311666Y-78841666D01*
X56311666Y-78141666D01*
X55845000Y-78141666D02*
X55711666Y-78141666D01*
X55645000Y-78175000D01*
X55578333Y-78241666D01*
X55545000Y-78375000D01*
X55545000Y-78608333D01*
X55578333Y-78741666D01*
X55645000Y-78808333D01*
X55711666Y-78841666D01*
X55845000Y-78841666D01*
X55911666Y-78808333D01*
X55978333Y-78741666D01*
X56011666Y-78608333D01*
X56011666Y-78375000D01*
X55978333Y-78241666D01*
X55911666Y-78175000D01*
X55845000Y-78141666D01*
X57895331Y-81145000D02*
X57961998Y-81111666D01*
X58061998Y-81111666D01*
X58161998Y-81145000D01*
X58228664Y-81211666D01*
X58261998Y-81278333D01*
X58295331Y-81411666D01*
X58295331Y-81511666D01*
X58261998Y-81645000D01*
X58228664Y-81711666D01*
X58161998Y-81778333D01*
X58061998Y-81811666D01*
X57995331Y-81811666D01*
X57895331Y-81778333D01*
X57861998Y-81745000D01*
X57861998Y-81511666D01*
X57995331Y-81511666D01*
X57561998Y-81811666D02*
X57561998Y-81111666D01*
X57161998Y-81811666D01*
X57161998Y-81111666D01*
X56828664Y-81811666D02*
X56828664Y-81111666D01*
X56661998Y-81111666D01*
X56561998Y-81145000D01*
X56495331Y-81211666D01*
X56461998Y-81278333D01*
X56428664Y-81411666D01*
X56428664Y-81511666D01*
X56461998Y-81645000D01*
X56495331Y-81711666D01*
X56561998Y-81778333D01*
X56661998Y-81811666D01*
X56828664Y-81811666D01*
D11*
X61026071Y-50426190D02*
X61026071Y-50902380D01*
X61359404Y-49902380D02*
X61026071Y-50426190D01*
X60692738Y-49902380D01*
D14*
X15466964Y-33435714D02*
X15766964Y-33435714D01*
X15766964Y-33907142D02*
X15766964Y-33007142D01*
X15338392Y-33007142D01*
X15081250Y-33007142D02*
X14866964Y-33907142D01*
X14695535Y-33264285D01*
X14524107Y-33907142D01*
X14309821Y-33007142D01*
X13966964Y-33907142D02*
X13966964Y-33007142D01*
X13752678Y-33007142D01*
X13624107Y-33050000D01*
X13538392Y-33135714D01*
X13495535Y-33221428D01*
X13452678Y-33392857D01*
X13452678Y-33521428D01*
X13495535Y-33692857D01*
X13538392Y-33778571D01*
X13624107Y-33864285D01*
X13752678Y-33907142D01*
X13966964Y-33907142D01*
D11*
X67165221Y-62183214D02*
X67212840Y-62278452D01*
X67212840Y-62421309D01*
X67165221Y-62564166D01*
X67069982Y-62659404D01*
X66974744Y-62707023D01*
X66784268Y-62754642D01*
X66641411Y-62754642D01*
X66450935Y-62707023D01*
X66355697Y-62659404D01*
X66260459Y-62564166D01*
X66212840Y-62421309D01*
X66212840Y-62326071D01*
X66260459Y-62183214D01*
X66308078Y-62135595D01*
X66641411Y-62135595D01*
X66641411Y-62326071D01*
X66212840Y-61707023D02*
X67212840Y-61707023D01*
X66212840Y-61135595D01*
X67212840Y-61135595D01*
X66212840Y-60659404D02*
X67212840Y-60659404D01*
X67212840Y-60421309D01*
X67165221Y-60278452D01*
X67069982Y-60183214D01*
X66974744Y-60135595D01*
X66784268Y-60087976D01*
X66641411Y-60087976D01*
X66450935Y-60135595D01*
X66355697Y-60183214D01*
X66260459Y-60278452D01*
X66212840Y-60421309D01*
X66212840Y-60659404D01*
D14*
X57965000Y-75768333D02*
X57865000Y-75801666D01*
X57698333Y-75801666D01*
X57631666Y-75768333D01*
X57598333Y-75735000D01*
X57565000Y-75668333D01*
X57565000Y-75601666D01*
X57598333Y-75535000D01*
X57631666Y-75501666D01*
X57698333Y-75468333D01*
X57831666Y-75435000D01*
X57898333Y-75401666D01*
X57931666Y-75368333D01*
X57965000Y-75301666D01*
X57965000Y-75235000D01*
X57931666Y-75168333D01*
X57898333Y-75135000D01*
X57831666Y-75101666D01*
X57665000Y-75101666D01*
X57565000Y-75135000D01*
X57331666Y-75101666D02*
X57165000Y-75801666D01*
X57031666Y-75301666D01*
X56898333Y-75801666D01*
X56731666Y-75101666D01*
D12*
X55422642Y-69351428D02*
X55422642Y-68751428D01*
X55079785Y-69351428D01*
X55079785Y-68751428D01*
X54451214Y-69294285D02*
X54479785Y-69322857D01*
X54565500Y-69351428D01*
X54622642Y-69351428D01*
X54708357Y-69322857D01*
X54765500Y-69265714D01*
X54794071Y-69208571D01*
X54822642Y-69094285D01*
X54822642Y-69008571D01*
X54794071Y-68894285D01*
X54765500Y-68837142D01*
X54708357Y-68780000D01*
X54622642Y-68751428D01*
X54565500Y-68751428D01*
X54479785Y-68780000D01*
X54451214Y-68808571D01*
D11*
X69228571Y-72307023D02*
X69228571Y-71545119D01*
X68847619Y-71926071D02*
X69609523Y-71926071D01*
X69847619Y-70592738D02*
X69847619Y-71068928D01*
X69371428Y-71116547D01*
X69419047Y-71068928D01*
X69466666Y-70973690D01*
X69466666Y-70735595D01*
X69419047Y-70640357D01*
X69371428Y-70592738D01*
X69276190Y-70545119D01*
X69038095Y-70545119D01*
X68942857Y-70592738D01*
X68895238Y-70640357D01*
X68847619Y-70735595D01*
X68847619Y-70973690D01*
X68895238Y-71068928D01*
X68942857Y-71116547D01*
X69847619Y-70259404D02*
X68847619Y-69926071D01*
X69847619Y-69592738D01*
D14*
X60898333Y-81145000D02*
X60965000Y-81111666D01*
X61065000Y-81111666D01*
X61165000Y-81145000D01*
X61231666Y-81211666D01*
X61265000Y-81278333D01*
X61298333Y-81411666D01*
X61298333Y-81511666D01*
X61265000Y-81645000D01*
X61231666Y-81711666D01*
X61165000Y-81778333D01*
X61065000Y-81811666D01*
X60998333Y-81811666D01*
X60898333Y-81778333D01*
X60865000Y-81745000D01*
X60865000Y-81511666D01*
X60998333Y-81511666D01*
X60565000Y-81811666D02*
X60565000Y-81111666D01*
X60165000Y-81811666D01*
X60165000Y-81111666D01*
X59831666Y-81811666D02*
X59831666Y-81111666D01*
X59665000Y-81111666D01*
X59565000Y-81145000D01*
X59498333Y-81211666D01*
X59465000Y-81278333D01*
X59431666Y-81411666D01*
X59431666Y-81511666D01*
X59465000Y-81645000D01*
X59498333Y-81711666D01*
X59565000Y-81778333D01*
X59665000Y-81811666D01*
X59831666Y-81811666D01*
X60835000Y-75805979D02*
X61168333Y-75805979D01*
X61168333Y-75105979D01*
X60601666Y-75439313D02*
X60368333Y-75439313D01*
X60268333Y-75805979D02*
X60601666Y-75805979D01*
X60601666Y-75105979D01*
X60268333Y-75105979D01*
X59968333Y-75805979D02*
X59968333Y-75105979D01*
X59801666Y-75105979D01*
X59701666Y-75139313D01*
X59635000Y-75205979D01*
X59601666Y-75272646D01*
X59568333Y-75405979D01*
X59568333Y-75505979D01*
X59601666Y-75639313D01*
X59635000Y-75705979D01*
X59701666Y-75772646D01*
X59801666Y-75805979D01*
X59968333Y-75805979D01*
D15*
X77150000Y-55069047D02*
X77173809Y-55116666D01*
X77173809Y-55188095D01*
X77150000Y-55259523D01*
X77102380Y-55307142D01*
X77054761Y-55330952D01*
X76959523Y-55354761D01*
X76888095Y-55354761D01*
X76792857Y-55330952D01*
X76745238Y-55307142D01*
X76697619Y-55259523D01*
X76673809Y-55188095D01*
X76673809Y-55140476D01*
X76697619Y-55069047D01*
X76721428Y-55045238D01*
X76888095Y-55045238D01*
X76888095Y-55140476D01*
D11*
X80900000Y-79438095D02*
X80852380Y-79342857D01*
X80852380Y-79200000D01*
X80900000Y-79057142D01*
X80995238Y-78961904D01*
X81090476Y-78914285D01*
X81280952Y-78866666D01*
X81423809Y-78866666D01*
X81614285Y-78914285D01*
X81709523Y-78961904D01*
X81804761Y-79057142D01*
X81852380Y-79200000D01*
X81852380Y-79295238D01*
X81804761Y-79438095D01*
X81757142Y-79485714D01*
X81423809Y-79485714D01*
X81423809Y-79295238D01*
X81852380Y-79914285D02*
X80852380Y-79914285D01*
X81852380Y-80485714D01*
X80852380Y-80485714D01*
X81852380Y-80961904D02*
X80852380Y-80961904D01*
X80852380Y-81200000D01*
X80900000Y-81342857D01*
X80995238Y-81438095D01*
X81090476Y-81485714D01*
X81280952Y-81533333D01*
X81423809Y-81533333D01*
X81614285Y-81485714D01*
X81709523Y-81438095D01*
X81804761Y-81342857D01*
X81852380Y-81200000D01*
X81852380Y-80961904D01*
D13*
X69861904Y-27433857D02*
X69861904Y-27510047D01*
X69900000Y-27586238D01*
X69938095Y-27624333D01*
X70014285Y-27662428D01*
X70166666Y-27700523D01*
X70357142Y-27700523D01*
X70509523Y-27662428D01*
X70585714Y-27624333D01*
X70623809Y-27586238D01*
X70661904Y-27510047D01*
X70661904Y-27433857D01*
X70623809Y-27357666D01*
X70585714Y-27319571D01*
X70509523Y-27281476D01*
X70357142Y-27243380D01*
X70166666Y-27243380D01*
X70014285Y-27281476D01*
X69938095Y-27319571D01*
X69900000Y-27357666D01*
X69861904Y-27433857D01*
X69861904Y-27929095D02*
X70661904Y-28195761D01*
X69861904Y-28462428D01*
D15*
X76673809Y-58473809D02*
X76911904Y-58640476D01*
X76673809Y-58759523D02*
X77173809Y-58759523D01*
X77173809Y-58569047D01*
X77150000Y-58521428D01*
X77126190Y-58497619D01*
X77078571Y-58473809D01*
X77007142Y-58473809D01*
X76959523Y-58497619D01*
X76935714Y-58521428D01*
X76911904Y-58569047D01*
X76911904Y-58759523D01*
X76673809Y-58021428D02*
X76673809Y-58259523D01*
X77173809Y-58259523D01*
X76673809Y-57592857D02*
X76673809Y-57878571D01*
X76673809Y-57735714D02*
X77173809Y-57735714D01*
X77102380Y-57783333D01*
X77054761Y-57830952D01*
X77030952Y-57878571D01*
X77197619Y-57021428D02*
X76554761Y-57450000D01*
X76935714Y-56854761D02*
X76935714Y-56688095D01*
X76673809Y-56616666D02*
X76673809Y-56854761D01*
X77173809Y-56854761D01*
X77173809Y-56616666D01*
D11*
X78017223Y-20342380D02*
X77350557Y-21342380D01*
X77350557Y-20342380D02*
X78017223Y-21342380D01*
X76969604Y-21342380D02*
X76969604Y-20342380D01*
X76731509Y-20342380D01*
X76588652Y-20390000D01*
X76493414Y-20485238D01*
X76445795Y-20580476D01*
X76398176Y-20770952D01*
X76398176Y-20913809D01*
X76445795Y-21104285D01*
X76493414Y-21199523D01*
X76588652Y-21294761D01*
X76731509Y-21342380D01*
X76969604Y-21342380D01*
X75969604Y-21342380D02*
X75969604Y-20342380D01*
X74921985Y-21342380D02*
X75255319Y-20866190D01*
X75493414Y-21342380D02*
X75493414Y-20342380D01*
X75112461Y-20342380D01*
X75017223Y-20390000D01*
X74969604Y-20437619D01*
X74921985Y-20532857D01*
X74921985Y-20675714D01*
X74969604Y-20770952D01*
X75017223Y-20818571D01*
X75112461Y-20866190D01*
X75493414Y-20866190D01*
X77342976Y-29157142D02*
X77390595Y-29204761D01*
X77533452Y-29252380D01*
X77628690Y-29252380D01*
X77771547Y-29204761D01*
X77866785Y-29109523D01*
X77914404Y-29014285D01*
X77962023Y-28823809D01*
X77962023Y-28680952D01*
X77914404Y-28490476D01*
X77866785Y-28395238D01*
X77771547Y-28300000D01*
X77628690Y-28252380D01*
X77533452Y-28252380D01*
X77390595Y-28300000D01*
X77342976Y-28347619D01*
X76723928Y-28252380D02*
X76533452Y-28252380D01*
X76438214Y-28300000D01*
X76342976Y-28395238D01*
X76295357Y-28585714D01*
X76295357Y-28919047D01*
X76342976Y-29109523D01*
X76438214Y-29204761D01*
X76533452Y-29252380D01*
X76723928Y-29252380D01*
X76819166Y-29204761D01*
X76914404Y-29109523D01*
X76962023Y-28919047D01*
X76962023Y-28585714D01*
X76914404Y-28395238D01*
X76819166Y-28300000D01*
X76723928Y-28252380D01*
X75866785Y-29252380D02*
X75866785Y-28252380D01*
X75533452Y-28966666D01*
X75200119Y-28252380D01*
X75200119Y-29252380D01*
D12*
X61670214Y-22921428D02*
X61670214Y-22321428D01*
X61327357Y-22921428D01*
X61327357Y-22321428D01*
X60698785Y-22864285D02*
X60727357Y-22892857D01*
X60813071Y-22921428D01*
X60870214Y-22921428D01*
X60955928Y-22892857D01*
X61013071Y-22835714D01*
X61041642Y-22778571D01*
X61070214Y-22664285D01*
X61070214Y-22578571D01*
X61041642Y-22464285D01*
X61013071Y-22407142D01*
X60955928Y-22350000D01*
X60870214Y-22321428D01*
X60813071Y-22321428D01*
X60727357Y-22350000D01*
X60698785Y-22378571D01*
D11*
X78017223Y-17812380D02*
X77350557Y-18812380D01*
X77350557Y-17812380D02*
X78017223Y-18812380D01*
X76398176Y-18717142D02*
X76445795Y-18764761D01*
X76588652Y-18812380D01*
X76683890Y-18812380D01*
X76826747Y-18764761D01*
X76921985Y-18669523D01*
X76969604Y-18574285D01*
X77017223Y-18383809D01*
X77017223Y-18240952D01*
X76969604Y-18050476D01*
X76921985Y-17955238D01*
X76826747Y-17860000D01*
X76683890Y-17812380D01*
X76588652Y-17812380D01*
X76445795Y-17860000D01*
X76398176Y-17907619D01*
X75493414Y-18812380D02*
X75969604Y-18812380D01*
X75969604Y-17812380D01*
X75255319Y-17812380D02*
X74588652Y-18812380D01*
X74588652Y-17812380D02*
X75255319Y-18812380D01*
X71971428Y-64707023D02*
X71923809Y-64564166D01*
X71876190Y-64516547D01*
X71780952Y-64468928D01*
X71638095Y-64468928D01*
X71542857Y-64516547D01*
X71495238Y-64564166D01*
X71447619Y-64659404D01*
X71447619Y-65040357D01*
X72447619Y-65040357D01*
X72447619Y-64707023D01*
X72400000Y-64611785D01*
X72352380Y-64564166D01*
X72257142Y-64516547D01*
X72161904Y-64516547D01*
X72066666Y-64564166D01*
X72019047Y-64611785D01*
X71971428Y-64707023D01*
X71971428Y-65040357D01*
X71447619Y-64040357D02*
X72114285Y-64040357D01*
X72447619Y-64040357D02*
X72400000Y-64087976D01*
X72352380Y-64040357D01*
X72400000Y-63992738D01*
X72447619Y-64040357D01*
X72352380Y-64040357D01*
X72114285Y-63707023D02*
X72114285Y-63326071D01*
X72447619Y-63564166D02*
X71590476Y-63564166D01*
X71495238Y-63516547D01*
X71447619Y-63421309D01*
X71447619Y-63326071D01*
X72447619Y-63087976D02*
X72447619Y-62421309D01*
X71447619Y-63087976D01*
X71447619Y-62421309D01*
X71495238Y-61659404D02*
X71447619Y-61754642D01*
X71447619Y-61945119D01*
X71495238Y-62040357D01*
X71590476Y-62087976D01*
X71971428Y-62087976D01*
X72066666Y-62040357D01*
X72114285Y-61945119D01*
X72114285Y-61754642D01*
X72066666Y-61659404D01*
X71971428Y-61611785D01*
X71876190Y-61611785D01*
X71780952Y-62087976D01*
X71447619Y-61183214D02*
X72114285Y-61183214D01*
X71923809Y-61183214D02*
X72019047Y-61135595D01*
X72066666Y-61087976D01*
X72114285Y-60992738D01*
X72114285Y-60897500D01*
X71447619Y-60421309D02*
X71495238Y-60516547D01*
X71542857Y-60564166D01*
X71638095Y-60611785D01*
X71923809Y-60611785D01*
X72019047Y-60564166D01*
X72066666Y-60516547D01*
X72114285Y-60421309D01*
X72114285Y-60278452D01*
X72066666Y-60183214D01*
X72019047Y-60135595D01*
X71923809Y-60087976D01*
X71638095Y-60087976D01*
X71542857Y-60135595D01*
X71495238Y-60183214D01*
X71447619Y-60278452D01*
X71447619Y-60421309D01*
X67200000Y-71783214D02*
X67247619Y-71878452D01*
X67247619Y-72021309D01*
X67200000Y-72164166D01*
X67104761Y-72259404D01*
X67009523Y-72307023D01*
X66819047Y-72354642D01*
X66676190Y-72354642D01*
X66485714Y-72307023D01*
X66390476Y-72259404D01*
X66295238Y-72164166D01*
X66247619Y-72021309D01*
X66247619Y-71926071D01*
X66295238Y-71783214D01*
X66342857Y-71735595D01*
X66676190Y-71735595D01*
X66676190Y-71926071D01*
X66247619Y-71307023D02*
X67247619Y-71307023D01*
X66247619Y-70735595D01*
X67247619Y-70735595D01*
X66247619Y-70259404D02*
X67247619Y-70259404D01*
X67247619Y-70021309D01*
X67200000Y-69878452D01*
X67104761Y-69783214D01*
X67009523Y-69735595D01*
X66819047Y-69687976D01*
X66676190Y-69687976D01*
X66485714Y-69735595D01*
X66390476Y-69783214D01*
X66295238Y-69878452D01*
X66247619Y-70021309D01*
X66247619Y-70259404D01*
X78017223Y-44566610D02*
X77350557Y-44566610D01*
X78017223Y-45566610D01*
X77350557Y-45566610D01*
X76398176Y-45471372D02*
X76445795Y-45518991D01*
X76588652Y-45566610D01*
X76683890Y-45566610D01*
X76826747Y-45518991D01*
X76921985Y-45423753D01*
X76969604Y-45328515D01*
X77017223Y-45138039D01*
X77017223Y-44995182D01*
X76969604Y-44804706D01*
X76921985Y-44709468D01*
X76826747Y-44614230D01*
X76683890Y-44566610D01*
X76588652Y-44566610D01*
X76445795Y-44614230D01*
X76398176Y-44661849D01*
X75493414Y-45566610D02*
X75969604Y-45566610D01*
X75969604Y-44566610D01*
X75255319Y-44566610D02*
X74588652Y-45566610D01*
X74588652Y-44566610D02*
X75255319Y-45566610D01*
X55314404Y-63171428D02*
X54552500Y-63171428D01*
X54933452Y-63552380D02*
X54933452Y-62790476D01*
X53600119Y-62552380D02*
X54076309Y-62552380D01*
X54123928Y-63028571D01*
X54076309Y-62980952D01*
X53981071Y-62933333D01*
X53742976Y-62933333D01*
X53647738Y-62980952D01*
X53600119Y-63028571D01*
X53552500Y-63123809D01*
X53552500Y-63361904D01*
X53600119Y-63457142D01*
X53647738Y-63504761D01*
X53742976Y-63552380D01*
X53981071Y-63552380D01*
X54076309Y-63504761D01*
X54123928Y-63457142D01*
X53266785Y-62552380D02*
X52933452Y-63552380D01*
X52600119Y-62552380D01*
D12*
X61720214Y-60381428D02*
X61720214Y-59781428D01*
X61377357Y-60381428D01*
X61377357Y-59781428D01*
X60748785Y-60324285D02*
X60777357Y-60352857D01*
X60863071Y-60381428D01*
X60920214Y-60381428D01*
X61005928Y-60352857D01*
X61063071Y-60295714D01*
X61091642Y-60238571D01*
X61120214Y-60124285D01*
X61120214Y-60038571D01*
X61091642Y-59924285D01*
X61063071Y-59867142D01*
X61005928Y-59810000D01*
X60920214Y-59781428D01*
X60863071Y-59781428D01*
X60777357Y-59810000D01*
X60748785Y-59838571D01*
D14*
X15138392Y-27950000D02*
X15224107Y-27907142D01*
X15352678Y-27907142D01*
X15481250Y-27950000D01*
X15566964Y-28035714D01*
X15609821Y-28121428D01*
X15652678Y-28292857D01*
X15652678Y-28421428D01*
X15609821Y-28592857D01*
X15566964Y-28678571D01*
X15481250Y-28764285D01*
X15352678Y-28807142D01*
X15266964Y-28807142D01*
X15138392Y-28764285D01*
X15095535Y-28721428D01*
X15095535Y-28421428D01*
X15266964Y-28421428D01*
X14709821Y-28807142D02*
X14709821Y-27907142D01*
X14195535Y-28807142D01*
X14195535Y-27907142D01*
X13766964Y-28807142D02*
X13766964Y-27907142D01*
X13552678Y-27907142D01*
X13424107Y-27950000D01*
X13338392Y-28035714D01*
X13295535Y-28121428D01*
X13252678Y-28292857D01*
X13252678Y-28421428D01*
X13295535Y-28592857D01*
X13338392Y-28678571D01*
X13424107Y-28764285D01*
X13552678Y-28807142D01*
X13766964Y-28807142D01*
D15*
X77173809Y-67995238D02*
X77173809Y-68233333D01*
X76935714Y-68257142D01*
X76959523Y-68233333D01*
X76983333Y-68185714D01*
X76983333Y-68066666D01*
X76959523Y-68019047D01*
X76935714Y-67995238D01*
X76888095Y-67971428D01*
X76769047Y-67971428D01*
X76721428Y-67995238D01*
X76697619Y-68019047D01*
X76673809Y-68066666D01*
X76673809Y-68185714D01*
X76697619Y-68233333D01*
X76721428Y-68257142D01*
X77173809Y-67828571D02*
X76673809Y-67661904D01*
X77173809Y-67495238D01*
D11*
X77350557Y-16187142D02*
X77398176Y-16234761D01*
X77541033Y-16282380D01*
X77636271Y-16282380D01*
X77779128Y-16234761D01*
X77874366Y-16139523D01*
X77921985Y-16044285D01*
X77969604Y-15853809D01*
X77969604Y-15710952D01*
X77921985Y-15520476D01*
X77874366Y-15425238D01*
X77779128Y-15330000D01*
X77636271Y-15282380D01*
X77541033Y-15282380D01*
X77398176Y-15330000D01*
X77350557Y-15377619D01*
X76731509Y-15282380D02*
X76541033Y-15282380D01*
X76445795Y-15330000D01*
X76350557Y-15425238D01*
X76302938Y-15615714D01*
X76302938Y-15949047D01*
X76350557Y-16139523D01*
X76445795Y-16234761D01*
X76541033Y-16282380D01*
X76731509Y-16282380D01*
X76826747Y-16234761D01*
X76921985Y-16139523D01*
X76969604Y-15949047D01*
X76969604Y-15615714D01*
X76921985Y-15425238D01*
X76826747Y-15330000D01*
X76731509Y-15282380D01*
X75874366Y-16282380D02*
X75874366Y-15282380D01*
X75541033Y-15996666D01*
X75207700Y-15282380D01*
X75207700Y-16282380D01*
D12*
X61670214Y-47621428D02*
X61670214Y-47021428D01*
X61327357Y-47621428D01*
X61327357Y-47021428D01*
X60698785Y-47564285D02*
X60727357Y-47592857D01*
X60813071Y-47621428D01*
X60870214Y-47621428D01*
X60955928Y-47592857D01*
X61013071Y-47535714D01*
X61041642Y-47478571D01*
X61070214Y-47364285D01*
X61070214Y-47278571D01*
X61041642Y-47164285D01*
X61013071Y-47107142D01*
X60955928Y-47050000D01*
X60870214Y-47021428D01*
X60813071Y-47021428D01*
X60727357Y-47050000D01*
X60698785Y-47078571D01*
D11*
X77921985Y-50112801D02*
X77588652Y-50112801D01*
X77445795Y-50636610D02*
X77921985Y-50636610D01*
X77921985Y-49636610D01*
X77445795Y-49636610D01*
X77017223Y-50636610D02*
X77017223Y-49636610D01*
X76445795Y-50636610D01*
X76445795Y-49636610D01*
D12*
X61670214Y-25921428D02*
X61670214Y-25321428D01*
X61327357Y-25921428D01*
X61327357Y-25321428D01*
X60698785Y-25864285D02*
X60727357Y-25892857D01*
X60813071Y-25921428D01*
X60870214Y-25921428D01*
X60955928Y-25892857D01*
X61013071Y-25835714D01*
X61041642Y-25778571D01*
X61070214Y-25664285D01*
X61070214Y-25578571D01*
X61041642Y-25464285D01*
X61013071Y-25407142D01*
X60955928Y-25350000D01*
X60870214Y-25321428D01*
X60813071Y-25321428D01*
X60727357Y-25350000D01*
X60698785Y-25378571D01*
X55372642Y-50621428D02*
X55372642Y-50021428D01*
X55029785Y-50621428D01*
X55029785Y-50021428D01*
X54401214Y-50564285D02*
X54429785Y-50592857D01*
X54515500Y-50621428D01*
X54572642Y-50621428D01*
X54658357Y-50592857D01*
X54715500Y-50535714D01*
X54744071Y-50478571D01*
X54772642Y-50364285D01*
X54772642Y-50278571D01*
X54744071Y-50164285D01*
X54715500Y-50107142D01*
X54658357Y-50050000D01*
X54572642Y-50021428D01*
X54515500Y-50021428D01*
X54429785Y-50050000D01*
X54401214Y-50078571D01*
D15*
X76673809Y-65676190D02*
X76911904Y-65842857D01*
X76673809Y-65961904D02*
X77173809Y-65961904D01*
X77173809Y-65771428D01*
X77150000Y-65723809D01*
X77126190Y-65700000D01*
X77078571Y-65676190D01*
X77007142Y-65676190D01*
X76959523Y-65700000D01*
X76935714Y-65723809D01*
X76911904Y-65771428D01*
X76911904Y-65961904D01*
X76673809Y-65223809D02*
X76673809Y-65461904D01*
X77173809Y-65461904D01*
X77007142Y-64842857D02*
X76673809Y-64842857D01*
X77197619Y-64961904D02*
X76840476Y-65080952D01*
X76840476Y-64771428D01*
X77173809Y-64509523D02*
X77054761Y-64509523D01*
X77102380Y-64628571D02*
X77054761Y-64509523D01*
X77102380Y-64390476D01*
X76959523Y-64580952D02*
X77054761Y-64509523D01*
X76959523Y-64438095D01*
D11*
X55264404Y-44431428D02*
X54502500Y-44431428D01*
X54883452Y-44812380D02*
X54883452Y-44050476D01*
X53550119Y-43812380D02*
X54026309Y-43812380D01*
X54073928Y-44288571D01*
X54026309Y-44240952D01*
X53931071Y-44193333D01*
X53692976Y-44193333D01*
X53597738Y-44240952D01*
X53550119Y-44288571D01*
X53502500Y-44383809D01*
X53502500Y-44621904D01*
X53550119Y-44717142D01*
X53597738Y-44764761D01*
X53692976Y-44812380D01*
X53931071Y-44812380D01*
X54026309Y-44764761D01*
X54073928Y-44717142D01*
X53216785Y-43812380D02*
X52883452Y-44812380D01*
X52550119Y-43812380D01*
X69278571Y-62707023D02*
X69278571Y-61945119D01*
X68897619Y-62326071D02*
X69659523Y-62326071D01*
X69897619Y-60992738D02*
X69897619Y-61468928D01*
X69421428Y-61516547D01*
X69469047Y-61468928D01*
X69516666Y-61373690D01*
X69516666Y-61135595D01*
X69469047Y-61040357D01*
X69421428Y-60992738D01*
X69326190Y-60945119D01*
X69088095Y-60945119D01*
X68992857Y-60992738D01*
X68945238Y-61040357D01*
X68897619Y-61135595D01*
X68897619Y-61373690D01*
X68945238Y-61468928D01*
X68992857Y-61516547D01*
X69897619Y-60659404D02*
X68897619Y-60326071D01*
X69897619Y-59992738D01*
X77723928Y-33836190D02*
X77723928Y-34312380D01*
X78057261Y-33312380D02*
X77723928Y-33836190D01*
X77390595Y-33312380D01*
X77057261Y-34312380D02*
X77057261Y-33312380D01*
X76819166Y-33312380D01*
X76676309Y-33360000D01*
X76581071Y-33455238D01*
X76533452Y-33550476D01*
X76485833Y-33740952D01*
X76485833Y-33883809D01*
X76533452Y-34074285D01*
X76581071Y-34169523D01*
X76676309Y-34264761D01*
X76819166Y-34312380D01*
X77057261Y-34312380D01*
X76057261Y-34312380D02*
X76057261Y-33312380D01*
X75009642Y-34312380D02*
X75342976Y-33836190D01*
X75581071Y-34312380D02*
X75581071Y-33312380D01*
X75200119Y-33312380D01*
X75104880Y-33360000D01*
X75057261Y-33407619D01*
X75009642Y-33502857D01*
X75009642Y-33645714D01*
X75057261Y-33740952D01*
X75104880Y-33788571D01*
X75200119Y-33836190D01*
X75581071Y-33836190D01*
D13*
X69761904Y-30542809D02*
X69761904Y-30161857D01*
X70142857Y-30123761D01*
X70104761Y-30161857D01*
X70066666Y-30238047D01*
X70066666Y-30428523D01*
X70104761Y-30504714D01*
X70142857Y-30542809D01*
X70219047Y-30580904D01*
X70409523Y-30580904D01*
X70485714Y-30542809D01*
X70523809Y-30504714D01*
X70561904Y-30428523D01*
X70561904Y-30238047D01*
X70523809Y-30161857D01*
X70485714Y-30123761D01*
X69761904Y-30809476D02*
X70561904Y-31076142D01*
X69761904Y-31342809D01*
D11*
X55264404Y-25701428D02*
X54502500Y-25701428D01*
X54883452Y-26082380D02*
X54883452Y-25320476D01*
X53550119Y-25082380D02*
X54026309Y-25082380D01*
X54073928Y-25558571D01*
X54026309Y-25510952D01*
X53931071Y-25463333D01*
X53692976Y-25463333D01*
X53597738Y-25510952D01*
X53550119Y-25558571D01*
X53502500Y-25653809D01*
X53502500Y-25891904D01*
X53550119Y-25987142D01*
X53597738Y-26034761D01*
X53692976Y-26082380D01*
X53931071Y-26082380D01*
X54026309Y-26034761D01*
X54073928Y-25987142D01*
X53216785Y-25082380D02*
X52883452Y-26082380D01*
X52550119Y-25082380D01*
D13*
X67885714Y-33286190D02*
X67923809Y-33248095D01*
X67961904Y-33133809D01*
X67961904Y-33057619D01*
X67923809Y-32943333D01*
X67847619Y-32867142D01*
X67771428Y-32829047D01*
X67619047Y-32790952D01*
X67504761Y-32790952D01*
X67352380Y-32829047D01*
X67276190Y-32867142D01*
X67200000Y-32943333D01*
X67161904Y-33057619D01*
X67161904Y-33133809D01*
X67200000Y-33248095D01*
X67238095Y-33286190D01*
X67161904Y-33781428D02*
X67161904Y-33933809D01*
X67200000Y-34010000D01*
X67276190Y-34086190D01*
X67428571Y-34124285D01*
X67695238Y-34124285D01*
X67847619Y-34086190D01*
X67923809Y-34010000D01*
X67961904Y-33933809D01*
X67961904Y-33781428D01*
X67923809Y-33705238D01*
X67847619Y-33629047D01*
X67695238Y-33590952D01*
X67428571Y-33590952D01*
X67276190Y-33629047D01*
X67200000Y-33705238D01*
X67161904Y-33781428D01*
X67961904Y-34467142D02*
X67161904Y-34467142D01*
X67733333Y-34733809D01*
X67161904Y-35000476D01*
X67961904Y-35000476D01*
X67961904Y-35381428D02*
X67161904Y-35381428D01*
X67733333Y-35648095D01*
X67161904Y-35914761D01*
X67961904Y-35914761D01*
X67161904Y-36448095D02*
X67161904Y-36600476D01*
X67200000Y-36676666D01*
X67276190Y-36752857D01*
X67428571Y-36790952D01*
X67695238Y-36790952D01*
X67847619Y-36752857D01*
X67923809Y-36676666D01*
X67961904Y-36600476D01*
X67961904Y-36448095D01*
X67923809Y-36371904D01*
X67847619Y-36295714D01*
X67695238Y-36257619D01*
X67428571Y-36257619D01*
X67276190Y-36295714D01*
X67200000Y-36371904D01*
X67161904Y-36448095D01*
X67961904Y-37133809D02*
X67161904Y-37133809D01*
X67961904Y-37590952D01*
X67161904Y-37590952D01*
D12*
X61670214Y-44621428D02*
X61670214Y-44021428D01*
X61327357Y-44621428D01*
X61327357Y-44021428D01*
X60698785Y-44564285D02*
X60727357Y-44592857D01*
X60813071Y-44621428D01*
X60870214Y-44621428D01*
X60955928Y-44592857D01*
X61013071Y-44535714D01*
X61041642Y-44478571D01*
X61070214Y-44364285D01*
X61070214Y-44278571D01*
X61041642Y-44164285D01*
X61013071Y-44107142D01*
X60955928Y-44050000D01*
X60870214Y-44021428D01*
X60813071Y-44021428D01*
X60727357Y-44050000D01*
X60698785Y-44078571D01*
D15*
X76673809Y-62985714D02*
X76911904Y-63152380D01*
X76673809Y-63271428D02*
X77173809Y-63271428D01*
X77173809Y-63080952D01*
X77150000Y-63033333D01*
X77126190Y-63009523D01*
X77078571Y-62985714D01*
X77007142Y-62985714D01*
X76959523Y-63009523D01*
X76935714Y-63033333D01*
X76911904Y-63080952D01*
X76911904Y-63271428D01*
X76673809Y-62533333D02*
X76673809Y-62771428D01*
X77173809Y-62771428D01*
X77173809Y-62414285D02*
X77173809Y-62104761D01*
X76983333Y-62271428D01*
X76983333Y-62200000D01*
X76959523Y-62152380D01*
X76935714Y-62128571D01*
X76888095Y-62104761D01*
X76769047Y-62104761D01*
X76721428Y-62128571D01*
X76697619Y-62152380D01*
X76673809Y-62200000D01*
X76673809Y-62342857D01*
X76697619Y-62390476D01*
X76721428Y-62414285D01*
D13*
X69761904Y-39433857D02*
X69761904Y-39510047D01*
X69800000Y-39586238D01*
X69838095Y-39624333D01*
X69914285Y-39662428D01*
X70066666Y-39700523D01*
X70257142Y-39700523D01*
X70409523Y-39662428D01*
X70485714Y-39624333D01*
X70523809Y-39586238D01*
X70561904Y-39510047D01*
X70561904Y-39433857D01*
X70523809Y-39357666D01*
X70485714Y-39319571D01*
X70409523Y-39281476D01*
X70257142Y-39243380D01*
X70066666Y-39243380D01*
X69914285Y-39281476D01*
X69838095Y-39319571D01*
X69800000Y-39357666D01*
X69761904Y-39433857D01*
X69761904Y-39929095D02*
X70561904Y-40195761D01*
X69761904Y-40462428D01*
D12*
X55372642Y-41621428D02*
X55372642Y-41021428D01*
X55029785Y-41621428D01*
X55029785Y-41021428D01*
X54401214Y-41564285D02*
X54429785Y-41592857D01*
X54515500Y-41621428D01*
X54572642Y-41621428D01*
X54658357Y-41592857D01*
X54715500Y-41535714D01*
X54744071Y-41478571D01*
X54772642Y-41364285D01*
X54772642Y-41278571D01*
X54744071Y-41164285D01*
X54715500Y-41107142D01*
X54658357Y-41050000D01*
X54572642Y-41021428D01*
X54515500Y-41021428D01*
X54429785Y-41050000D01*
X54401214Y-41078571D01*
D15*
X76673809Y-60535714D02*
X76911904Y-60702380D01*
X76673809Y-60821428D02*
X77173809Y-60821428D01*
X77173809Y-60630952D01*
X77150000Y-60583333D01*
X77126190Y-60559523D01*
X77078571Y-60535714D01*
X77007142Y-60535714D01*
X76959523Y-60559523D01*
X76935714Y-60583333D01*
X76911904Y-60630952D01*
X76911904Y-60821428D01*
X76673809Y-60083333D02*
X76673809Y-60321428D01*
X77173809Y-60321428D01*
X77126190Y-59940476D02*
X77150000Y-59916666D01*
X77173809Y-59869047D01*
X77173809Y-59750000D01*
X77150000Y-59702380D01*
X77126190Y-59678571D01*
X77078571Y-59654761D01*
X77030952Y-59654761D01*
X76959523Y-59678571D01*
X76673809Y-59964285D01*
X76673809Y-59654761D01*
D11*
X77914404Y-36328571D02*
X77581071Y-36328571D01*
X77438214Y-36852380D02*
X77914404Y-36852380D01*
X77914404Y-35852380D01*
X77438214Y-35852380D01*
X77009642Y-36852380D02*
X77009642Y-35852380D01*
X76438214Y-36852380D01*
X76438214Y-35852380D01*
D13*
X69161904Y-50578087D02*
X69161904Y-50654277D01*
X69200000Y-50730468D01*
X69238095Y-50768563D01*
X69314285Y-50806658D01*
X69466666Y-50844753D01*
X69657142Y-50844753D01*
X69809523Y-50806658D01*
X69885714Y-50768563D01*
X69923809Y-50730468D01*
X69961904Y-50654277D01*
X69961904Y-50578087D01*
X69923809Y-50501896D01*
X69885714Y-50463801D01*
X69809523Y-50425706D01*
X69657142Y-50387610D01*
X69466666Y-50387610D01*
X69314285Y-50425706D01*
X69238095Y-50463801D01*
X69200000Y-50501896D01*
X69161904Y-50578087D01*
X69161904Y-51073325D02*
X69961904Y-51339991D01*
X69161904Y-51606658D01*
D11*
X54790595Y-65600000D02*
X54885833Y-65552380D01*
X55028690Y-65552380D01*
X55171547Y-65600000D01*
X55266785Y-65695238D01*
X55314404Y-65790476D01*
X55362023Y-65980952D01*
X55362023Y-66123809D01*
X55314404Y-66314285D01*
X55266785Y-66409523D01*
X55171547Y-66504761D01*
X55028690Y-66552380D01*
X54933452Y-66552380D01*
X54790595Y-66504761D01*
X54742976Y-66457142D01*
X54742976Y-66123809D01*
X54933452Y-66123809D01*
X54314404Y-66552380D02*
X54314404Y-65552380D01*
X53742976Y-66552380D01*
X53742976Y-65552380D01*
X53266785Y-66552380D02*
X53266785Y-65552380D01*
X53028690Y-65552380D01*
X52885833Y-65600000D01*
X52790595Y-65695238D01*
X52742976Y-65790476D01*
X52695357Y-65980952D01*
X52695357Y-66123809D01*
X52742976Y-66314285D01*
X52790595Y-66409523D01*
X52885833Y-66504761D01*
X53028690Y-66552380D01*
X53266785Y-66552380D01*
D13*
X67285714Y-44430420D02*
X67323809Y-44392325D01*
X67361904Y-44278039D01*
X67361904Y-44201849D01*
X67323809Y-44087563D01*
X67247619Y-44011372D01*
X67171428Y-43973277D01*
X67019047Y-43935182D01*
X66904761Y-43935182D01*
X66752380Y-43973277D01*
X66676190Y-44011372D01*
X66600000Y-44087563D01*
X66561904Y-44201849D01*
X66561904Y-44278039D01*
X66600000Y-44392325D01*
X66638095Y-44430420D01*
X66561904Y-44925658D02*
X66561904Y-45078039D01*
X66600000Y-45154230D01*
X66676190Y-45230420D01*
X66828571Y-45268515D01*
X67095238Y-45268515D01*
X67247619Y-45230420D01*
X67323809Y-45154230D01*
X67361904Y-45078039D01*
X67361904Y-44925658D01*
X67323809Y-44849468D01*
X67247619Y-44773277D01*
X67095238Y-44735182D01*
X66828571Y-44735182D01*
X66676190Y-44773277D01*
X66600000Y-44849468D01*
X66561904Y-44925658D01*
X67361904Y-45611372D02*
X66561904Y-45611372D01*
X67133333Y-45878039D01*
X66561904Y-46144706D01*
X67361904Y-46144706D01*
X67361904Y-46525658D02*
X66561904Y-46525658D01*
X67133333Y-46792325D01*
X66561904Y-47058991D01*
X67361904Y-47058991D01*
X66561904Y-47592325D02*
X66561904Y-47744706D01*
X66600000Y-47820896D01*
X66676190Y-47897087D01*
X66828571Y-47935182D01*
X67095238Y-47935182D01*
X67247619Y-47897087D01*
X67323809Y-47820896D01*
X67361904Y-47744706D01*
X67361904Y-47592325D01*
X67323809Y-47516134D01*
X67247619Y-47439944D01*
X67095238Y-47401849D01*
X66828571Y-47401849D01*
X66676190Y-47439944D01*
X66600000Y-47516134D01*
X66561904Y-47592325D01*
X67361904Y-48278039D02*
X66561904Y-48278039D01*
X67361904Y-48735182D01*
X66561904Y-48735182D01*
D12*
X61670214Y-31921428D02*
X61670214Y-31321428D01*
X61327357Y-31921428D01*
X61327357Y-31321428D01*
X60698785Y-31864285D02*
X60727357Y-31892857D01*
X60813071Y-31921428D01*
X60870214Y-31921428D01*
X60955928Y-31892857D01*
X61013071Y-31835714D01*
X61041642Y-31778571D01*
X61070214Y-31664285D01*
X61070214Y-31578571D01*
X61041642Y-31464285D01*
X61013071Y-31407142D01*
X60955928Y-31350000D01*
X60870214Y-31321428D01*
X60813071Y-31321428D01*
X60727357Y-31350000D01*
X60698785Y-31378571D01*
D13*
X69861904Y-18542809D02*
X69861904Y-18161857D01*
X70242857Y-18123761D01*
X70204761Y-18161857D01*
X70166666Y-18238047D01*
X70166666Y-18428523D01*
X70204761Y-18504714D01*
X70242857Y-18542809D01*
X70319047Y-18580904D01*
X70509523Y-18580904D01*
X70585714Y-18542809D01*
X70623809Y-18504714D01*
X70661904Y-18428523D01*
X70661904Y-18238047D01*
X70623809Y-18161857D01*
X70585714Y-18123761D01*
X69861904Y-18809476D02*
X70661904Y-19076142D01*
X69861904Y-19342809D01*
D12*
X61720214Y-66381428D02*
X61720214Y-65781428D01*
X61377357Y-66381428D01*
X61377357Y-65781428D01*
X60748785Y-66324285D02*
X60777357Y-66352857D01*
X60863071Y-66381428D01*
X60920214Y-66381428D01*
X61005928Y-66352857D01*
X61063071Y-66295714D01*
X61091642Y-66238571D01*
X61120214Y-66124285D01*
X61120214Y-66038571D01*
X61091642Y-65924285D01*
X61063071Y-65867142D01*
X61005928Y-65810000D01*
X60920214Y-65781428D01*
X60863071Y-65781428D01*
X60777357Y-65810000D01*
X60748785Y-65838571D01*
X55372642Y-22871428D02*
X55372642Y-22271428D01*
X55029785Y-22871428D01*
X55029785Y-22271428D01*
X54401214Y-22814285D02*
X54429785Y-22842857D01*
X54515500Y-22871428D01*
X54572642Y-22871428D01*
X54658357Y-22842857D01*
X54715500Y-22785714D01*
X54744071Y-22728571D01*
X54772642Y-22614285D01*
X54772642Y-22528571D01*
X54744071Y-22414285D01*
X54715500Y-22357142D01*
X54658357Y-22300000D01*
X54572642Y-22271428D01*
X54515500Y-22271428D01*
X54429785Y-22300000D01*
X54401214Y-22328571D01*
D11*
X71921428Y-75402261D02*
X71873809Y-75259404D01*
X71826190Y-75211785D01*
X71730952Y-75164166D01*
X71588095Y-75164166D01*
X71492857Y-75211785D01*
X71445238Y-75259404D01*
X71397619Y-75354642D01*
X71397619Y-75735595D01*
X72397619Y-75735595D01*
X72397619Y-75402261D01*
X72350000Y-75307023D01*
X72302380Y-75259404D01*
X72207142Y-75211785D01*
X72111904Y-75211785D01*
X72016666Y-75259404D01*
X71969047Y-75307023D01*
X71921428Y-75402261D01*
X71921428Y-75735595D01*
X71397619Y-74735595D02*
X72064285Y-74735595D01*
X72397619Y-74735595D02*
X72350000Y-74783214D01*
X72302380Y-74735595D01*
X72350000Y-74687976D01*
X72397619Y-74735595D01*
X72302380Y-74735595D01*
X72064285Y-74402261D02*
X72064285Y-74021309D01*
X72397619Y-74259404D02*
X71540476Y-74259404D01*
X71445238Y-74211785D01*
X71397619Y-74116547D01*
X71397619Y-74021309D01*
X71445238Y-73735595D02*
X71397619Y-73592738D01*
X71397619Y-73354642D01*
X71445238Y-73259404D01*
X71492857Y-73211785D01*
X71588095Y-73164166D01*
X71683333Y-73164166D01*
X71778571Y-73211785D01*
X71826190Y-73259404D01*
X71873809Y-73354642D01*
X71921428Y-73545119D01*
X71969047Y-73640357D01*
X72016666Y-73687976D01*
X72111904Y-73735595D01*
X72207142Y-73735595D01*
X72302380Y-73687976D01*
X72350000Y-73640357D01*
X72397619Y-73545119D01*
X72397619Y-73307023D01*
X72350000Y-73164166D01*
X71445238Y-72354642D02*
X71397619Y-72449880D01*
X71397619Y-72640357D01*
X71445238Y-72735595D01*
X71540476Y-72783214D01*
X71921428Y-72783214D01*
X72016666Y-72735595D01*
X72064285Y-72640357D01*
X72064285Y-72449880D01*
X72016666Y-72354642D01*
X71921428Y-72307023D01*
X71826190Y-72307023D01*
X71730952Y-72783214D01*
X72064285Y-72021309D02*
X72064285Y-71640357D01*
X72397619Y-71878452D02*
X71540476Y-71878452D01*
X71445238Y-71830833D01*
X71397619Y-71735595D01*
X71397619Y-71640357D01*
X72064285Y-71449880D02*
X72064285Y-71068928D01*
X72397619Y-71307023D02*
X71540476Y-71307023D01*
X71445238Y-71259404D01*
X71397619Y-71164166D01*
X71397619Y-71068928D01*
X71445238Y-70354642D02*
X71397619Y-70449880D01*
X71397619Y-70640357D01*
X71445238Y-70735595D01*
X71540476Y-70783214D01*
X71921428Y-70783214D01*
X72016666Y-70735595D01*
X72064285Y-70640357D01*
X72064285Y-70449880D01*
X72016666Y-70354642D01*
X71921428Y-70307023D01*
X71826190Y-70307023D01*
X71730952Y-70783214D01*
X71397619Y-69878452D02*
X72064285Y-69878452D01*
X71873809Y-69878452D02*
X71969047Y-69830833D01*
X72016666Y-69783214D01*
X72064285Y-69687976D01*
X72064285Y-69592738D01*
X81047619Y-73331071D02*
X81000000Y-73378690D01*
X80952380Y-73473928D01*
X80952380Y-73712023D01*
X81000000Y-73807261D01*
X81047619Y-73854880D01*
X81142857Y-73902500D01*
X81238095Y-73902500D01*
X81380952Y-73854880D01*
X81952380Y-73283452D01*
X81952380Y-73902500D01*
X81285714Y-74759642D02*
X81952380Y-74759642D01*
X80904761Y-74521547D02*
X81619047Y-74283452D01*
X81619047Y-74902500D01*
X80952380Y-75140595D02*
X81952380Y-75473928D01*
X80952380Y-75807261D01*
D14*
X16552678Y-30507142D02*
X15952678Y-31407142D01*
X15952678Y-30507142D02*
X16552678Y-31407142D01*
X15138392Y-30550000D02*
X15224107Y-30507142D01*
X15352678Y-30507142D01*
X15481250Y-30550000D01*
X15566964Y-30635714D01*
X15609821Y-30721428D01*
X15652678Y-30892857D01*
X15652678Y-31021428D01*
X15609821Y-31192857D01*
X15566964Y-31278571D01*
X15481250Y-31364285D01*
X15352678Y-31407142D01*
X15266964Y-31407142D01*
X15138392Y-31364285D01*
X15095535Y-31321428D01*
X15095535Y-31021428D01*
X15266964Y-31021428D01*
X14709821Y-31407142D02*
X14709821Y-30507142D01*
X14195535Y-31407142D01*
X14195535Y-30507142D01*
X13766964Y-31407142D02*
X13766964Y-30507142D01*
X13552678Y-30507142D01*
X13424107Y-30550000D01*
X13338392Y-30635714D01*
X13295535Y-30721428D01*
X13252678Y-30892857D01*
X13252678Y-31021428D01*
X13295535Y-31192857D01*
X13338392Y-31278571D01*
X13424107Y-31364285D01*
X13552678Y-31407142D01*
X13766964Y-31407142D01*
D12*
X61720214Y-63381428D02*
X61720214Y-62781428D01*
X61377357Y-63381428D01*
X61377357Y-62781428D01*
X60748785Y-63324285D02*
X60777357Y-63352857D01*
X60863071Y-63381428D01*
X60920214Y-63381428D01*
X61005928Y-63352857D01*
X61063071Y-63295714D01*
X61091642Y-63238571D01*
X61120214Y-63124285D01*
X61120214Y-63038571D01*
X61091642Y-62924285D01*
X61063071Y-62867142D01*
X61005928Y-62810000D01*
X60920214Y-62781428D01*
X60863071Y-62781428D01*
X60777357Y-62810000D01*
X60748785Y-62838571D01*
D11*
X77921985Y-23358571D02*
X77588652Y-23358571D01*
X77445795Y-23882380D02*
X77921985Y-23882380D01*
X77921985Y-22882380D01*
X77445795Y-22882380D01*
X77017223Y-23882380D02*
X77017223Y-22882380D01*
X76445795Y-23882380D01*
X76445795Y-22882380D01*
D13*
X67985714Y-21286190D02*
X68023809Y-21248095D01*
X68061904Y-21133809D01*
X68061904Y-21057619D01*
X68023809Y-20943333D01*
X67947619Y-20867142D01*
X67871428Y-20829047D01*
X67719047Y-20790952D01*
X67604761Y-20790952D01*
X67452380Y-20829047D01*
X67376190Y-20867142D01*
X67300000Y-20943333D01*
X67261904Y-21057619D01*
X67261904Y-21133809D01*
X67300000Y-21248095D01*
X67338095Y-21286190D01*
X67261904Y-21781428D02*
X67261904Y-21933809D01*
X67300000Y-22010000D01*
X67376190Y-22086190D01*
X67528571Y-22124285D01*
X67795238Y-22124285D01*
X67947619Y-22086190D01*
X68023809Y-22010000D01*
X68061904Y-21933809D01*
X68061904Y-21781428D01*
X68023809Y-21705238D01*
X67947619Y-21629047D01*
X67795238Y-21590952D01*
X67528571Y-21590952D01*
X67376190Y-21629047D01*
X67300000Y-21705238D01*
X67261904Y-21781428D01*
X68061904Y-22467142D02*
X67261904Y-22467142D01*
X67833333Y-22733809D01*
X67261904Y-23000476D01*
X68061904Y-23000476D01*
X68061904Y-23381428D02*
X67261904Y-23381428D01*
X67833333Y-23648095D01*
X67261904Y-23914761D01*
X68061904Y-23914761D01*
X67261904Y-24448095D02*
X67261904Y-24600476D01*
X67300000Y-24676666D01*
X67376190Y-24752857D01*
X67528571Y-24790952D01*
X67795238Y-24790952D01*
X67947619Y-24752857D01*
X68023809Y-24676666D01*
X68061904Y-24600476D01*
X68061904Y-24448095D01*
X68023809Y-24371904D01*
X67947619Y-24295714D01*
X67795238Y-24257619D01*
X67528571Y-24257619D01*
X67376190Y-24295714D01*
X67300000Y-24371904D01*
X67261904Y-24448095D01*
X68061904Y-25133809D02*
X67261904Y-25133809D01*
X68061904Y-25590952D01*
X67261904Y-25590952D01*
D11*
X77350557Y-42941372D02*
X77398176Y-42988991D01*
X77541033Y-43036610D01*
X77636271Y-43036610D01*
X77779128Y-42988991D01*
X77874366Y-42893753D01*
X77921985Y-42798515D01*
X77969604Y-42608039D01*
X77969604Y-42465182D01*
X77921985Y-42274706D01*
X77874366Y-42179468D01*
X77779128Y-42084230D01*
X77636271Y-42036610D01*
X77541033Y-42036610D01*
X77398176Y-42084230D01*
X77350557Y-42131849D01*
X76731509Y-42036610D02*
X76541033Y-42036610D01*
X76445795Y-42084230D01*
X76350557Y-42179468D01*
X76302938Y-42369944D01*
X76302938Y-42703277D01*
X76350557Y-42893753D01*
X76445795Y-42988991D01*
X76541033Y-43036610D01*
X76731509Y-43036610D01*
X76826747Y-42988991D01*
X76921985Y-42893753D01*
X76969604Y-42703277D01*
X76969604Y-42369944D01*
X76921985Y-42179468D01*
X76826747Y-42084230D01*
X76731509Y-42036610D01*
X75874366Y-43036610D02*
X75874366Y-42036610D01*
X75541033Y-42750896D01*
X75207700Y-42036610D01*
X75207700Y-43036610D01*
X54740595Y-28130000D02*
X54835833Y-28082380D01*
X54978690Y-28082380D01*
X55121547Y-28130000D01*
X55216785Y-28225238D01*
X55264404Y-28320476D01*
X55312023Y-28510952D01*
X55312023Y-28653809D01*
X55264404Y-28844285D01*
X55216785Y-28939523D01*
X55121547Y-29034761D01*
X54978690Y-29082380D01*
X54883452Y-29082380D01*
X54740595Y-29034761D01*
X54692976Y-28987142D01*
X54692976Y-28653809D01*
X54883452Y-28653809D01*
X54264404Y-29082380D02*
X54264404Y-28082380D01*
X53692976Y-29082380D01*
X53692976Y-28082380D01*
X53216785Y-29082380D02*
X53216785Y-28082380D01*
X52978690Y-28082380D01*
X52835833Y-28130000D01*
X52740595Y-28225238D01*
X52692976Y-28320476D01*
X52645357Y-28510952D01*
X52645357Y-28653809D01*
X52692976Y-28844285D01*
X52740595Y-28939523D01*
X52835833Y-29034761D01*
X52978690Y-29082380D01*
X53216785Y-29082380D01*
D12*
X61670214Y-41621428D02*
X61670214Y-41021428D01*
X61327357Y-41621428D01*
X61327357Y-41021428D01*
X60698785Y-41564285D02*
X60727357Y-41592857D01*
X60813071Y-41621428D01*
X60870214Y-41621428D01*
X60955928Y-41592857D01*
X61013071Y-41535714D01*
X61041642Y-41478571D01*
X61070214Y-41364285D01*
X61070214Y-41278571D01*
X61041642Y-41164285D01*
X61013071Y-41107142D01*
X60955928Y-41050000D01*
X60870214Y-41021428D01*
X60813071Y-41021428D01*
X60727357Y-41050000D01*
X60698785Y-41078571D01*
D11*
X54740595Y-46870000D02*
X54835833Y-46822380D01*
X54978690Y-46822380D01*
X55121547Y-46870000D01*
X55216785Y-46965238D01*
X55264404Y-47060476D01*
X55312023Y-47250952D01*
X55312023Y-47393809D01*
X55264404Y-47584285D01*
X55216785Y-47679523D01*
X55121547Y-47774761D01*
X54978690Y-47822380D01*
X54883452Y-47822380D01*
X54740595Y-47774761D01*
X54692976Y-47727142D01*
X54692976Y-47393809D01*
X54883452Y-47393809D01*
X54264404Y-47822380D02*
X54264404Y-46822380D01*
X53692976Y-47822380D01*
X53692976Y-46822380D01*
X53216785Y-47822380D02*
X53216785Y-46822380D01*
X52978690Y-46822380D01*
X52835833Y-46870000D01*
X52740595Y-46965238D01*
X52692976Y-47060476D01*
X52645357Y-47250952D01*
X52645357Y-47393809D01*
X52692976Y-47584285D01*
X52740595Y-47679523D01*
X52835833Y-47774761D01*
X52978690Y-47822380D01*
X53216785Y-47822380D01*
D14*
X18652678Y-26207142D02*
X18652678Y-25307142D01*
X18309821Y-25307142D01*
X18224107Y-25350000D01*
X18181250Y-25392857D01*
X18138392Y-25478571D01*
X18138392Y-25607142D01*
X18181250Y-25692857D01*
X18224107Y-25735714D01*
X18309821Y-25778571D01*
X18652678Y-25778571D01*
X17838392Y-25307142D02*
X17624107Y-26207142D01*
X17452678Y-25564285D01*
X17281250Y-26207142D01*
X17066964Y-25307142D01*
X16724107Y-26207142D02*
X16724107Y-25307142D01*
X16424107Y-25950000D01*
X16124107Y-25307142D01*
X16124107Y-26207142D01*
X15438392Y-26550000D02*
X15481250Y-26507142D01*
X15566964Y-26378571D01*
X15609821Y-26292857D01*
X15652678Y-26164285D01*
X15695535Y-25950000D01*
X15695535Y-25778571D01*
X15652678Y-25564285D01*
X15609821Y-25435714D01*
X15566964Y-25350000D01*
X15481250Y-25221428D01*
X15438392Y-25178571D01*
X14666964Y-25307142D02*
X15095535Y-25307142D01*
X15138392Y-25735714D01*
X15095535Y-25692857D01*
X15009821Y-25650000D01*
X14795535Y-25650000D01*
X14709821Y-25692857D01*
X14666964Y-25735714D01*
X14624107Y-25821428D01*
X14624107Y-26035714D01*
X14666964Y-26121428D01*
X14709821Y-26164285D01*
X14795535Y-26207142D01*
X15009821Y-26207142D01*
X15095535Y-26164285D01*
X15138392Y-26121428D01*
X14366964Y-25307142D02*
X14066964Y-26207142D01*
X13766964Y-25307142D01*
X13552678Y-26550000D02*
X13509821Y-26507142D01*
X13424107Y-26378571D01*
X13381250Y-26292857D01*
X13338392Y-26164285D01*
X13295535Y-25950000D01*
X13295535Y-25778571D01*
X13338392Y-25564285D01*
X13381250Y-25435714D01*
X13424107Y-25350000D01*
X13509821Y-25221428D01*
X13552678Y-25178571D01*
D11*
X55409642Y-59532380D02*
X54742976Y-59532380D01*
X55409642Y-60532380D01*
X54742976Y-60532380D01*
D12*
X55372642Y-31871428D02*
X55372642Y-31271428D01*
X55029785Y-31871428D01*
X55029785Y-31271428D01*
X54401214Y-31814285D02*
X54429785Y-31842857D01*
X54515500Y-31871428D01*
X54572642Y-31871428D01*
X54658357Y-31842857D01*
X54715500Y-31785714D01*
X54744071Y-31728571D01*
X54772642Y-31614285D01*
X54772642Y-31528571D01*
X54744071Y-31414285D01*
X54715500Y-31357142D01*
X54658357Y-31300000D01*
X54572642Y-31271428D01*
X54515500Y-31271428D01*
X54429785Y-31300000D01*
X54401214Y-31328571D01*
X61720214Y-69381428D02*
X61720214Y-68781428D01*
X61377357Y-69381428D01*
X61377357Y-68781428D01*
X60748785Y-69324285D02*
X60777357Y-69352857D01*
X60863071Y-69381428D01*
X60920214Y-69381428D01*
X61005928Y-69352857D01*
X61063071Y-69295714D01*
X61091642Y-69238571D01*
X61120214Y-69124285D01*
X61120214Y-69038571D01*
X61091642Y-68924285D01*
X61063071Y-68867142D01*
X61005928Y-68810000D01*
X60920214Y-68781428D01*
X60863071Y-68781428D01*
X60777357Y-68810000D01*
X60748785Y-68838571D01*
D16*
%TO.C,K1*%
X26017800Y-31900000D02*
X26350000Y-31750000D01*
X26017800Y-31900000D02*
X26700000Y-31900000D01*
X26017800Y-31900000D02*
X26350000Y-32050000D01*
X24400000Y-31900000D02*
X24067800Y-31750000D01*
X35300000Y-27700000D02*
X35300000Y-25380000D01*
X35300000Y-25375000D02*
X35950000Y-25375000D01*
X35950000Y-33000000D02*
X35300000Y-33000000D01*
D11*
X25250000Y-28500000D02*
X25900000Y-32300000D01*
D16*
X24400000Y-31900000D02*
X24067800Y-32050000D01*
X24400000Y-31900000D02*
X23350000Y-31900000D01*
X25200000Y-26850000D02*
X25200000Y-27932800D01*
X35300000Y-33000000D02*
X35300000Y-30700000D01*
X35810000Y-29705000D02*
X34790000Y-28695000D01*
X35800000Y-27700000D02*
X34800000Y-27700000D01*
X34800000Y-27700000D02*
X34800000Y-30700000D01*
X34800000Y-30700000D02*
X35800000Y-30700000D01*
X35800000Y-30700000D02*
X35800000Y-27700000D01*
X25454000Y-28200000D02*
G75*
G03*
X25454000Y-28200000I-254000J0D01*
G01*
%TD*%
%LPC*%
D17*
%TO.C,JP6*%
X45425000Y-43325000D03*
D18*
X45425000Y-40785000D03*
X45425000Y-38245000D03*
%TD*%
D19*
%TO.C,J12*%
X60525000Y-34550000D03*
X60525000Y-19550000D03*
D20*
X56585000Y-31550000D03*
D21*
X56585000Y-28550000D03*
X56585000Y-25550000D03*
X56585000Y-22550000D03*
X59585000Y-31550000D03*
X59585000Y-28550000D03*
X59585000Y-25550000D03*
X59585000Y-22550000D03*
%TD*%
D17*
%TO.C,JP3*%
X45400000Y-50075000D03*
D18*
X45400000Y-52615000D03*
X45400000Y-55155000D03*
%TD*%
D22*
%TO.C,H7*%
X69500000Y-13992893D03*
%TD*%
D23*
%TO.C,K1*%
X37600000Y-33020000D03*
X22360000Y-33000000D03*
X24900000Y-25400000D03*
D24*
X37600000Y-25400000D03*
%TD*%
D25*
%TO.C,J13*%
X79508381Y-28848381D03*
D26*
X79508381Y-31388381D03*
X79508381Y-33928381D03*
X79508381Y-36468381D03*
%TD*%
D27*
%TO.C,J18*%
X66710000Y-58400000D03*
D28*
X69250000Y-58400000D03*
X71790000Y-58400000D03*
%TD*%
D17*
%TO.C,JP5*%
X70200000Y-37713380D03*
D18*
X70200000Y-35173380D03*
X70200000Y-32633380D03*
%TD*%
D17*
%TO.C,JP4*%
X70200000Y-25650000D03*
D18*
X70200000Y-23110000D03*
X70200000Y-20570000D03*
%TD*%
D17*
%TO.C,JP1*%
X67800000Y-76492893D03*
D18*
X67800000Y-73952893D03*
%TD*%
D19*
%TO.C,J14*%
X60525000Y-53350000D03*
X60525000Y-38350000D03*
D20*
X56585000Y-50350000D03*
D21*
X56585000Y-47350000D03*
X56585000Y-44350000D03*
X56585000Y-41350000D03*
X59585000Y-50350000D03*
X59585000Y-47350000D03*
X59585000Y-44350000D03*
X59585000Y-41350000D03*
%TD*%
D17*
%TO.C,JP2*%
X60725000Y-13800000D03*
D18*
X63265000Y-13800000D03*
%TD*%
D29*
%TO.C,J6*%
X78005000Y-79737893D03*
D30*
X78005000Y-74657893D03*
%TD*%
D19*
%TO.C,J5*%
X63300000Y-80832893D03*
X54300000Y-80832893D03*
D31*
X57300000Y-76892893D03*
D21*
X60300000Y-76892893D03*
X57300000Y-79892893D03*
X60300000Y-79892893D03*
%TD*%
D32*
%TO.C,J8*%
X8160000Y-57930000D03*
X8160000Y-60470000D03*
D25*
X10700000Y-57930000D03*
D26*
X10700000Y-60470000D03*
%TD*%
D17*
%TO.C,JP7*%
X45425000Y-33500000D03*
D18*
X45425000Y-30960000D03*
X45425000Y-28420000D03*
%TD*%
D25*
%TO.C,J11*%
X79508381Y-15795001D03*
D26*
X79508381Y-18335001D03*
X79508381Y-20875001D03*
X79508381Y-23415001D03*
%TD*%
D22*
%TO.C,H6*%
X24000000Y-83000000D03*
%TD*%
D17*
%TO.C,J3*%
X50100000Y-68330000D03*
D18*
X50100000Y-65790000D03*
X50100000Y-63250000D03*
X50100000Y-60710000D03*
X50100000Y-58170000D03*
X50100000Y-55630000D03*
X50100000Y-53090000D03*
X50100000Y-50550000D03*
X50100000Y-48010000D03*
X50100000Y-45470000D03*
X50100000Y-42930000D03*
X50100000Y-40390000D03*
X50100000Y-37850000D03*
X50100000Y-35310000D03*
X50100000Y-32770000D03*
X50100000Y-30230000D03*
X50100000Y-27690000D03*
X50100000Y-25150000D03*
X50100000Y-22610000D03*
X50100000Y-20070000D03*
X50100000Y-17530000D03*
X50100000Y-14990000D03*
X50100000Y-12450000D03*
%TD*%
D27*
%TO.C,J19*%
X66710000Y-68000000D03*
D28*
X69250000Y-68000000D03*
X71790000Y-68000000D03*
%TD*%
D26*
%TO.C,J4*%
X19900000Y-53300000D03*
D33*
X19900000Y-48000000D03*
D26*
X19900000Y-37700000D03*
D33*
X19900000Y-43000000D03*
D34*
X27050000Y-48400000D03*
X23400000Y-48000000D03*
X23400000Y-43000000D03*
X27050000Y-42600000D03*
X28400000Y-37700000D03*
D35*
X17900000Y-45500000D03*
D34*
X28400000Y-53300000D03*
%TD*%
D19*
%TO.C,J17*%
X60525000Y-72150000D03*
X60525000Y-57150000D03*
D20*
X56585000Y-69150000D03*
D21*
X56585000Y-66150000D03*
X56585000Y-63150000D03*
X56585000Y-60150000D03*
X59585000Y-69150000D03*
X59585000Y-66150000D03*
X59585000Y-63150000D03*
X59585000Y-60150000D03*
%TD*%
D17*
%TO.C,JP8*%
X70200000Y-48910000D03*
D18*
X70200000Y-46370000D03*
X70200000Y-43830000D03*
%TD*%
D25*
%TO.C,J15*%
X10700000Y-64620000D03*
D26*
X10700000Y-67160000D03*
X10700000Y-69700000D03*
X10700000Y-72240000D03*
%TD*%
D25*
%TO.C,J16*%
X79508381Y-42145001D03*
D26*
X79508381Y-44685001D03*
X79508381Y-47225001D03*
X79508381Y-49765001D03*
%TD*%
D22*
%TO.C,H8*%
X69500000Y-82992893D03*
%TD*%
D25*
%TO.C,J10*%
X79500000Y-55250000D03*
D26*
X79500000Y-57790000D03*
X79500000Y-60330000D03*
X79500000Y-62870000D03*
X79500000Y-65410000D03*
X79500000Y-67950000D03*
%TD*%
D22*
%TO.C,H5*%
X24000000Y-14000000D03*
%TD*%
D25*
%TO.C,J20*%
X10700000Y-33414999D03*
D26*
X10700000Y-30874999D03*
X10700000Y-28334999D03*
X10700000Y-25794999D03*
%TD*%
M02*
