M48
; DRILL file {KiCad (6.0.11-0)} date Wednesday, 12 July 2023 at 01:16:06 pm
; FORMAT={-:-/ absolute / metric / decimal}
; #@! TF.CreationDate,2023-07-12T13:16:06+12:00
; #@! TF.GenerationSoftware,Kicad,Pcbnew,(6.0.11-0)
; #@! TF.FileFunction,MixedPlating,1,2
FMAT,2
METRIC
; #@! TA.AperFunction,Plated,PTH,ViaDrill
T1C0.300
; #@! TA.AperFunction,Plated,PTH,ViaDrill
T2C0.600
; #@! TA.AperFunction,Plated,PTH,ComponentDrill
T3C0.600
; #@! TA.AperFunction,Plated,PTH,ComponentDrill
T4C1.000
; #@! TA.AperFunction,Plated,PTH,ComponentDrill
T5C1.100
; #@! TA.AperFunction,Plated,PTH,ComponentDrill
T6C1.190
; #@! TA.AperFunction,Plated,PTH,ComponentDrill
T7C1.300
; #@! TA.AperFunction,Plated,PTH,ComponentDrill
T8C3.200
; #@! TA.AperFunction,NonPlated,NPTH,ComponentDrill
T9C1.000
; #@! TA.AperFunction,NonPlated,NPTH,ComponentDrill
T10C1.100
; #@! TA.AperFunction,NonPlated,NPTH,ComponentDrill
T11C1.700
; #@! TA.AperFunction,NonPlated,NPTH,ComponentDrill
T12C2.200
%
G90
G05
T1
X7.6Y-23.393
X7.6Y-29.7
X7.6Y-36.7
X7.6Y-54.5
X7.6Y-62.4
X7.65Y-74.25
X11.5Y-62.393
X12.6Y-32.2
X12.6Y-34.393
X12.8Y-54.5
X13.0Y-68.9
X13.0Y-71.0
X13.0Y-72.693
X13.7Y-60.75
X13.7Y-62.55
X13.7Y-64.75
X13.7Y-67.05
X14.4Y-69.9
X14.4Y-71.793
X14.6Y-56.8
X14.6Y-58.7
X15.4Y-60.75
X15.4Y-62.55
X15.4Y-64.75
X15.4Y-67.05
X15.4Y-68.593
X15.8Y-71.05
X15.8Y-72.693
X16.1Y-56.8
X16.1Y-58.7
X16.5Y-53.9
X17.05Y-36.95
X17.1Y-51.75
X17.3Y-69.3
X17.6Y-56.8
X17.6Y-58.7
X18.7Y-69.9
X18.7Y-72.75
X18.75Y-54.9
X19.15Y-56.1
X19.15Y-58.0
X20.2Y-32.4
X20.2Y-34.4
X20.3Y-69.1
X20.3Y-71.35
X20.3Y-73.004
X20.6Y-22.8
X21.3Y-76.193
X22.25Y-55.05
X22.4Y-69.3
X23.0Y-25.893
X23.0Y-29.45
X23.111Y-51.989
X24.25Y-51.149
X24.9Y-30.593
X24.9Y-31.85
X26.0Y-54.1
X26.5Y-22.593
X26.6Y-24.493
X26.6Y-79.193
X26.9Y-71.5
X26.9Y-75.3
X28.3Y-76.5
X28.45Y-71.49
X29.902Y-71.457
X30.1Y-82.793
X30.4Y-42.05
X30.4Y-49.15
X30.5Y-50.45
X30.9Y-78.4
X31.195Y-72.795
X31.6Y-75.95
X31.7Y-86.293
X32.2Y-72.7
X33.25Y-78.3
X33.25Y-80.8
X33.3Y-83.2
X33.308Y-50.801
X33.585Y-71.3
X33.75Y-48.8
X34.055Y-51.301
X34.45Y-76.0
X34.6Y-78.3
X34.65Y-40.15
X34.65Y-83.2
X34.7Y-49.3
X34.8Y-10.793
X34.95Y-71.45
X35.5Y-42.3
X35.8Y-22.6
X35.8Y-24.493
X35.9Y-49.7
X35.9Y-51.793
X35.9Y-78.3
X35.95Y-39.15
X35.95Y-83.2
X36.45Y-43.0
X36.85Y-52.45
X36.9Y-75.9
X37.0Y-40.6
X37.7Y-37.9
X38.3Y-72.5
X38.5Y-70.5
X39.3Y-76.6
X39.35Y-75.1
X39.4Y-24.493
X39.45Y-83.25
X39.5Y-70.9
X39.55Y-44.45
X39.6Y-67.0
X39.75Y-53.7
X39.75Y-55.55
X39.9Y-60.15
X39.9Y-62.6
X39.9Y-64.6
X40.5Y-49.693
X40.5Y-56.993
X40.5Y-81.368
X41.0Y-72.3
X41.15Y-38.6
X41.4Y-28.8
X41.525Y-60.0
X41.54Y-57.0
X41.986Y-54.75
X42.6Y-56.993
X42.7Y-67.4
X42.7Y-75.2
X42.7Y-76.8
X42.7Y-83.5
X42.7Y-86.343
X42.8Y-81.368
X43.1Y-23.593
X43.1Y-64.7
X43.1Y-72.55
X43.7Y-79.6
X43.95Y-50.85
X44.1Y-74.0
X44.725Y-67.743
X44.9Y-62.1
X45.0Y-56.793
X45.1Y-64.349
X45.375Y-47.092
X45.4Y-75.5
X45.45Y-36.35
X45.559Y-70.488
X46.15Y-64.75
X46.7Y-46.393
X47.2Y-10.793
X47.4Y-71.45
X48.2Y-48.493
X48.2Y-51.086
X48.2Y-53.143
X48.4Y-66.8
X48.4Y-67.9
X48.85Y-82.85
X48.95Y-79.95
X49.15Y-59.4
X49.2Y-61.993
X49.2Y-74.9
X49.3Y-76.65
X51.1Y-18.793
X51.1Y-23.943
X51.3Y-72.45
X51.75Y-47.399
X51.75Y-51.299
X51.8Y-83.493
X51.8Y-86.343
X52.02Y-26.13
X52.35Y-66.8
X52.5Y-51.943
X52.599Y-32.1
X52.599Y-42.993
X52.6Y-29.35
X52.6Y-31.1
X52.6Y-59.0
X52.6Y-60.8
X52.8Y-74.0
X53.2Y-48.521
X53.2Y-49.493
X53.2Y-50.493
X53.299Y-33.0
X53.35Y-78.2
X53.475Y-27.592
X53.7Y-57.2
X53.7Y-59.0
X53.75Y-67.1
X53.75Y-73.0
X53.8Y-21.993
X53.8Y-24.6
X53.8Y-34.5
X53.8Y-36.193
X53.8Y-40.3
X53.85Y-41.4
X54.05Y-50.85
X54.4Y-19.893
X54.5Y-53.1
X54.61Y-56.193
X55.05Y-47.3
X55.309Y-61.7
X55.4Y-67.993
X56.55Y-33.2
X56.55Y-36.2
X56.55Y-56.15
X56.55Y-57.25
X56.6Y-39.8
X56.6Y-51.95
X56.6Y-53.4
X56.6Y-61.65
X57.95Y-25.9
X58.0Y-21.993
X58.0Y-68.743
X58.05Y-66.5
X58.85Y-76.343
X59.25Y-19.893
X59.3Y-34.45
X59.3Y-37.3
X59.3Y-39.843
X59.3Y-53.3
X59.3Y-56.15
X59.3Y-57.25
X59.3Y-73.1
X59.3Y-74.143
X59.7Y-83.493
X59.7Y-86.343
X59.85Y-30.093
X60.75Y-51.3
X60.85Y-48.1
X60.95Y-59.1
X61.0Y-10.793
X61.05Y-22.0
X61.05Y-27.743
X61.1Y-18.2
X61.15Y-70.943
X61.7Y-76.343
X62.1Y-41.85
X62.1Y-47.85
X62.1Y-50.5
X62.1Y-53.4
X62.1Y-57.25
X62.15Y-21.95
X62.2Y-19.893
X62.25Y-35.0
X62.25Y-37.35
X62.5Y-10.793
X62.7Y-71.35
X64.1Y-78.193
X64.6Y-64.4
X64.6Y-66.7
X64.6Y-70.193
X64.65Y-24.0
X65.15Y-35.0
X65.2Y-37.3
X65.7Y-82.693
X65.8Y-48.0
X66.0Y-50.5
X66.0Y-74.3
X66.0Y-76.4
X66.35Y-22.3
X66.4Y-27.75
X66.4Y-41.85
X67.95Y-53.4
X67.95Y-56.15
X68.1Y-60.9
X68.1Y-63.2
X68.35Y-70.25
X68.75Y-28.45
X68.75Y-31.0
X68.85Y-41.85
X69.25Y-45.1
X69.55Y-77.1
X70.45Y-53.4
X70.45Y-56.143
X71.1Y-63.2
X71.15Y-60.9
X71.7Y-66.0
X71.9Y-10.793
X71.95Y-45.75
X72.0Y-21.1
X72.0Y-32.25
X72.0Y-35.3
X72.093Y-46.893
X72.78Y-56.39
X73.0Y-42.2
X73.2Y-77.193
X73.2Y-80.193
X73.3Y-28.5
X73.5Y-49.8
X73.55Y-23.15
X73.7Y-68.9
X74.2Y-42.2
X74.53Y-56.2
X74.55Y-27.1
X74.75Y-68.9
X74.75Y-71.35
X74.85Y-43.85
X75.35Y-53.45
X75.5Y-61.8
X75.6Y-48.65
X75.75Y-17.15
X75.8Y-74.7
X76.45Y-46.693
X76.8Y-55.999
X76.9Y-68.8
X77.3Y-21.85
X77.3Y-54.25
X77.4Y-53.3
X77.6Y-41.55
X77.6Y-43.793
X77.6Y-48.45
X77.75Y-15.2
X77.75Y-19.6
X77.75Y-24.4
X77.75Y-27.85
X77.75Y-32.65
X77.75Y-35.2
X77.75Y-37.4
X77.8Y-64.9
X79.2Y-69.9
X80.0Y-25.793
X80.6Y-40.193
X80.6Y-51.95
X81.1Y-59.1
X81.1Y-64.175
X81.3Y-24.493
X81.35Y-19.6
X81.6Y-36.493
X81.6Y-49.793
X82.2Y-10.793
X82.2Y-70.5
X82.2Y-86.193
T2
X17.4Y-62.55
X17.4Y-64.05
X17.4Y-65.55
X17.4Y-67.05
X18.9Y-62.55
X18.9Y-64.05
X18.9Y-65.55
X18.9Y-67.05
X20.4Y-62.55
X20.4Y-64.05
X20.4Y-65.55
X20.4Y-67.05
X21.9Y-62.55
X21.9Y-64.05
X21.9Y-65.55
X21.9Y-67.05
X24.798Y-77.502
X31.7Y-84.1
X37.05Y-83.25
X37.1Y-78.3
T4
X45.4Y-50.075
X45.4Y-52.615
X45.4Y-55.155
X45.425Y-28.42
X45.425Y-30.96
X45.425Y-33.5
X45.425Y-38.245
X45.425Y-40.785
X45.425Y-43.325
X50.1Y-12.45
X50.1Y-14.99
X50.1Y-17.53
X50.1Y-20.07
X50.1Y-22.61
X50.1Y-25.15
X50.1Y-27.69
X50.1Y-30.23
X50.1Y-32.77
X50.1Y-35.31
X50.1Y-37.85
X50.1Y-40.39
X50.1Y-42.93
X50.1Y-45.47
X50.1Y-48.01
X50.1Y-50.55
X50.1Y-53.09
X50.1Y-55.63
X50.1Y-58.17
X50.1Y-60.71
X50.1Y-63.25
X50.1Y-65.79
X50.1Y-68.33
X56.585Y-22.55
X56.585Y-25.55
X56.585Y-28.55
X56.585Y-31.55
X56.585Y-41.35
X56.585Y-44.35
X56.585Y-47.35
X56.585Y-50.35
X56.585Y-60.15
X56.585Y-63.15
X56.585Y-66.15
X56.585Y-69.15
X57.3Y-76.893
X57.3Y-79.893
X59.585Y-22.55
X59.585Y-25.55
X59.585Y-28.55
X59.585Y-31.55
X59.585Y-41.35
X59.585Y-44.35
X59.585Y-47.35
X59.585Y-50.35
X59.585Y-60.15
X59.585Y-63.15
X59.585Y-66.15
X59.585Y-69.15
X60.3Y-76.893
X60.3Y-79.893
X60.725Y-13.8
X63.265Y-13.8
X67.8Y-73.953
X67.8Y-76.493
X70.2Y-20.57
X70.2Y-23.11
X70.2Y-25.65
X70.2Y-32.633
X70.2Y-35.173
X70.2Y-37.713
X70.2Y-43.83
X70.2Y-46.37
X70.2Y-48.91
T5
X10.7Y-25.795
X10.7Y-28.335
X10.7Y-30.875
X10.7Y-33.415
X10.7Y-57.93
X10.7Y-60.47
X10.7Y-64.62
X10.7Y-67.16
X10.7Y-69.7
X10.7Y-72.24
X79.5Y-55.25
X79.5Y-57.79
X79.5Y-60.33
X79.5Y-62.87
X79.5Y-65.41
X79.5Y-67.95
X79.508Y-15.795
X79.508Y-18.335
X79.508Y-20.875
X79.508Y-23.415
X79.508Y-28.848
X79.508Y-31.388
X79.508Y-33.928
X79.508Y-36.468
X79.508Y-42.145
X79.508Y-44.685
X79.508Y-47.225
X79.508Y-49.765
T6
X66.71Y-58.4
X66.71Y-68.0
X69.25Y-58.4
X69.25Y-68.0
X71.79Y-58.4
X71.79Y-68.0
T7
X22.36Y-33.0
X24.9Y-25.4
X37.6Y-25.4
X37.6Y-33.02
X78.005Y-74.658
X78.005Y-79.738
T8
X24.0Y-14.0
X24.0Y-83.0
X69.5Y-13.993
X69.5Y-82.993
T9
X54.3Y-80.833
X60.525Y-19.55
X60.525Y-34.55
X60.525Y-38.35
X60.525Y-53.35
X60.525Y-57.15
X60.525Y-72.15
X63.3Y-80.833
T10
X8.16Y-57.93
X8.16Y-60.47
T11
X19.9Y-43.0
X19.9Y-48.0
T12
X19.9Y-37.7
X19.9Y-53.3
T3
X24.45Y-43.0G85X22.35Y-43.0
G05
X24.45Y-48.0G85X22.35Y-48.0
G05
X28.1Y-42.6G85X26.0Y-42.6
G05
X28.1Y-48.4G85X26.0Y-48.4
G05
X29.45Y-37.7G85X27.35Y-37.7
G05
X29.45Y-53.3G85X27.35Y-53.3
G05
T4
X17.9Y-44.9G85X17.9Y-46.1
G05
T0
M30
