%TF.GenerationSoftware,KiCad,Pcbnew,(6.0.11-0)*%
%TF.CreationDate,2023-07-12T13:15:56+12:00*%
%TF.ProjectId,controller-lower-cut,636f6e74-726f-46c6-9c65-722d6c6f7765,3.2*%
%TF.SameCoordinates,PX1c9c380PY1312d00*%
%TF.FileFunction,Paste,Top*%
%TF.FilePolarity,Positive*%
%FSLAX46Y46*%
G04 Gerber Fmt 4.6, Leading zero omitted, Abs format (unit mm)*
G04 Created by KiCad (PCBNEW (6.0.11-0)) date 2023-07-12 13:15:56*
%MOMM*%
%LPD*%
G01*
G04 APERTURE LIST*
G04 Aperture macros list*
%AMRoundRect*
0 Rectangle with rounded corners*
0 $1 Rounding radius*
0 $2 $3 $4 $5 $6 $7 $8 $9 X,Y pos of 4 corners*
0 Add a 4 corners polygon primitive as box body*
4,1,4,$2,$3,$4,$5,$6,$7,$8,$9,$2,$3,0*
0 Add four circle primitives for the rounded corners*
1,1,$1+$1,$2,$3*
1,1,$1+$1,$4,$5*
1,1,$1+$1,$6,$7*
1,1,$1+$1,$8,$9*
0 Add four rect primitives between the rounded corners*
20,1,$1+$1,$2,$3,$4,$5,0*
20,1,$1+$1,$4,$5,$6,$7,0*
20,1,$1+$1,$6,$7,$8,$9,0*
20,1,$1+$1,$8,$9,$2,$3,0*%
G04 Aperture macros list end*
%ADD10RoundRect,0.225000X0.250000X-0.225000X0.250000X0.225000X-0.250000X0.225000X-0.250000X-0.225000X0*%
%ADD11RoundRect,0.200000X0.200000X0.275000X-0.200000X0.275000X-0.200000X-0.275000X0.200000X-0.275000X0*%
%ADD12RoundRect,0.200000X0.275000X-0.200000X0.275000X0.200000X-0.275000X0.200000X-0.275000X-0.200000X0*%
%ADD13RoundRect,0.150000X-0.150000X0.587500X-0.150000X-0.587500X0.150000X-0.587500X0.150000X0.587500X0*%
%ADD14R,0.700000X0.600000*%
%ADD15RoundRect,0.200000X-0.275000X0.200000X-0.275000X-0.200000X0.275000X-0.200000X0.275000X0.200000X0*%
%ADD16R,1.800000X2.500000*%
%ADD17R,2.750000X3.050000*%
%ADD18R,1.200000X2.200000*%
%ADD19RoundRect,0.250000X-0.650000X0.325000X-0.650000X-0.325000X0.650000X-0.325000X0.650000X0.325000X0*%
%ADD20R,2.900000X5.400000*%
%ADD21R,0.600000X0.700000*%
%ADD22RoundRect,0.200000X-0.200000X-0.275000X0.200000X-0.275000X0.200000X0.275000X-0.200000X0.275000X0*%
%ADD23RoundRect,0.250000X-0.550000X1.500000X-0.550000X-1.500000X0.550000X-1.500000X0.550000X1.500000X0*%
%ADD24RoundRect,0.225000X-0.250000X0.225000X-0.250000X-0.225000X0.250000X-0.225000X0.250000X0.225000X0*%
%ADD25R,0.450000X0.600000*%
%ADD26RoundRect,0.225000X0.225000X0.250000X-0.225000X0.250000X-0.225000X-0.250000X0.225000X-0.250000X0*%
%ADD27RoundRect,0.150000X-0.587500X-0.150000X0.587500X-0.150000X0.587500X0.150000X-0.587500X0.150000X0*%
%ADD28RoundRect,0.150000X0.150000X-0.825000X0.150000X0.825000X-0.150000X0.825000X-0.150000X-0.825000X0*%
%ADD29RoundRect,0.250000X-1.950000X-1.000000X1.950000X-1.000000X1.950000X1.000000X-1.950000X1.000000X0*%
G04 APERTURE END LIST*
D10*
%TO.C,C5*%
X36550000Y-74365000D03*
X36550000Y-72815000D03*
%TD*%
D11*
%TO.C,R4*%
X22225000Y-59200000D03*
X20575000Y-59200000D03*
%TD*%
D10*
%TO.C,C2*%
X50100000Y-73967893D03*
X50100000Y-72417893D03*
%TD*%
D12*
%TO.C,R5*%
X65100000Y-79017893D03*
X65100000Y-77367893D03*
%TD*%
D13*
%TO.C,Q4*%
X39500000Y-43019607D03*
X37600000Y-43019607D03*
X38550000Y-44894607D03*
%TD*%
D14*
%TO.C,D2*%
X48200000Y-73992893D03*
X48200000Y-72592893D03*
%TD*%
D15*
%TO.C,R8*%
X19000000Y-59075000D03*
X19000000Y-60725000D03*
%TD*%
D16*
%TO.C,D6*%
X26900000Y-69610000D03*
X26900000Y-73610000D03*
%TD*%
D17*
%TO.C,Q2*%
X18125000Y-66675000D03*
X21175000Y-66675000D03*
X21175000Y-63325000D03*
X18125000Y-63325000D03*
D18*
X17370000Y-71300000D03*
X21930000Y-71300000D03*
%TD*%
D19*
%TO.C,C7*%
X41525000Y-58450000D03*
X41525000Y-61400000D03*
%TD*%
D20*
%TO.C,L1*%
X27600000Y-61410000D03*
X37500000Y-61410000D03*
%TD*%
D21*
%TO.C,D5*%
X47750000Y-82150000D03*
X46350000Y-82150000D03*
%TD*%
D15*
%TO.C,R12*%
X36550000Y-69425000D03*
X36550000Y-71075000D03*
%TD*%
D22*
%TO.C,R7*%
X20575000Y-60700000D03*
X22225000Y-60700000D03*
%TD*%
D23*
%TO.C,C8*%
X41000000Y-69800000D03*
X41000000Y-75200000D03*
%TD*%
D22*
%TO.C,R9*%
X20575000Y-56200000D03*
X22225000Y-56200000D03*
%TD*%
D24*
%TO.C,C1*%
X44400000Y-65150000D03*
X44400000Y-66700000D03*
%TD*%
D25*
%TO.C,D7*%
X40900000Y-24700000D03*
X40900000Y-26800000D03*
%TD*%
D12*
%TO.C,R18*%
X40190000Y-41182107D03*
X40190000Y-39532107D03*
%TD*%
D22*
%TO.C,R11*%
X40725000Y-78050000D03*
X42375000Y-78050000D03*
%TD*%
D12*
%TO.C,R10*%
X44800000Y-82175000D03*
X44800000Y-80525000D03*
%TD*%
D22*
%TO.C,R20*%
X35160000Y-37102107D03*
X36810000Y-37102107D03*
%TD*%
D15*
%TO.C,R6*%
X44800000Y-77175000D03*
X44800000Y-78825000D03*
%TD*%
D21*
%TO.C,D4*%
X47750000Y-80550000D03*
X46350000Y-80550000D03*
%TD*%
D26*
%TO.C,C3*%
X22175000Y-57700000D03*
X20625000Y-57700000D03*
%TD*%
D14*
%TO.C,D1*%
X45437500Y-71337500D03*
X45437500Y-69937500D03*
%TD*%
D27*
%TO.C,Q1*%
X46762500Y-77050000D03*
X46762500Y-78950000D03*
X48637500Y-78000000D03*
%TD*%
D12*
%TO.C,R2*%
X47425000Y-66750000D03*
X47425000Y-65100000D03*
%TD*%
D11*
%TO.C,R3*%
X48125000Y-75400000D03*
X46475000Y-75400000D03*
%TD*%
D13*
%TO.C,Q5*%
X36900000Y-39019607D03*
X35000000Y-39019607D03*
X35950000Y-40894607D03*
%TD*%
D28*
%TO.C,U1*%
X31045000Y-74434999D03*
X32315000Y-74434999D03*
X33585000Y-74434999D03*
X34855000Y-74434999D03*
X34855000Y-69484999D03*
X33585000Y-69484999D03*
X32315000Y-69484999D03*
X31045000Y-69484999D03*
%TD*%
D13*
%TO.C,Q3*%
X42550000Y-79862500D03*
X40650000Y-79862500D03*
X41600000Y-81737500D03*
%TD*%
D29*
%TO.C,C4*%
X29900000Y-80760000D03*
X37300000Y-80760000D03*
%TD*%
D15*
%TO.C,R19*%
X38550000Y-39532107D03*
X38550000Y-41182107D03*
%TD*%
D10*
%TO.C,C6*%
X29450000Y-70534999D03*
X29450000Y-68984999D03*
%TD*%
D14*
%TO.C,D3*%
X46400000Y-73992893D03*
X46400000Y-72592893D03*
%TD*%
M02*
