%TF.GenerationSoftware,KiCad,Pcbnew,(6.0.11-0)*%
%TF.CreationDate,2023-07-12T13:15:56+12:00*%
%TF.ProjectId,controller-lower-cut,636f6e74-726f-46c6-9c65-722d6c6f7765,3.2*%
%TF.SameCoordinates,PX1c9c380PY1312d00*%
%TF.FileFunction,Profile,NP*%
%FSLAX46Y46*%
G04 Gerber Fmt 4.6, Leading zero omitted, Abs format (unit mm)*
G04 Created by KiCad (PCBNEW (6.0.11-0)) date 2023-07-12 13:15:56*
%MOMM*%
%LPD*%
G01*
G04 APERTURE LIST*
%TA.AperFunction,Profile*%
%ADD10C,0.100000*%
%TD*%
G04 APERTURE END LIST*
D10*
X21007109Y-10100009D02*
G75*
G03*
X20007109Y-11100000I-9J-999991D01*
G01*
X21014216Y-87100000D02*
X81997109Y-87100000D01*
X7714216Y-75107107D02*
X19014216Y-75100000D01*
X81997109Y-87100009D02*
G75*
G03*
X82997109Y-86100000I-9J1000009D01*
G01*
X20014200Y-76100000D02*
G75*
G03*
X19014216Y-75100000I-1000000J0D01*
G01*
X6714216Y-74107107D02*
X6714216Y-54603554D01*
X7714216Y-22607116D02*
G75*
G03*
X6714216Y-23607107I-16J-999984D01*
G01*
X19007109Y-22600009D02*
G75*
G03*
X20007109Y-21600000I-9J1000009D01*
G01*
X15392898Y-53596447D02*
X7714216Y-53603554D01*
X16392893Y-38607107D02*
G75*
G03*
X15392898Y-37607107I-999993J7D01*
G01*
X82997109Y-86100000D02*
X82997109Y-11100000D01*
X20007109Y-11100000D02*
X20007109Y-21600000D01*
X20014200Y-86100000D02*
G75*
G03*
X21014216Y-87100000I1000000J0D01*
G01*
X20014216Y-76100000D02*
X20014216Y-86100000D01*
X6714216Y-36607107D02*
X6714216Y-23607107D01*
X7714216Y-53603516D02*
G75*
G03*
X6714216Y-54603554I-16J-999984D01*
G01*
X6714193Y-36607107D02*
G75*
G03*
X7714216Y-37607107I1000007J7D01*
G01*
X6714193Y-74107107D02*
G75*
G03*
X7714216Y-75107107I1000007J7D01*
G01*
X16392898Y-52596447D02*
X16392898Y-38607107D01*
X15392898Y-37607107D02*
X7714216Y-37607107D01*
X21007109Y-10100000D02*
X81997109Y-10100000D01*
X15392898Y-53596498D02*
G75*
G03*
X16392898Y-52596447I-98J1000098D01*
G01*
X82997100Y-11100000D02*
G75*
G03*
X81997109Y-10100000I-1000000J0D01*
G01*
X19007109Y-22600000D02*
X7714216Y-22607107D01*
M02*
