%TF.GenerationSoftware,KiCad,Pcbnew,(6.0.11-0)*%
%TF.CreationDate,2023-07-12T13:15:56+12:00*%
%TF.ProjectId,controller-lower-cut,636f6e74-726f-46c6-9c65-722d6c6f7765,3.2*%
%TF.SameCoordinates,PX1c9c380PY1312d00*%
%TF.FileFunction,Legend,Top*%
%TF.FilePolarity,Positive*%
%FSLAX46Y46*%
G04 Gerber Fmt 4.6, Leading zero omitted, Abs format (unit mm)*
G04 Created by KiCad (PCBNEW (6.0.11-0)) date 2023-07-12 13:15:56*
%MOMM*%
%LPD*%
G01*
G04 APERTURE LIST*
G04 Aperture macros list*
%AMRoundRect*
0 Rectangle with rounded corners*
0 $1 Rounding radius*
0 $2 $3 $4 $5 $6 $7 $8 $9 X,Y pos of 4 corners*
0 Add a 4 corners polygon primitive as box body*
4,1,4,$2,$3,$4,$5,$6,$7,$8,$9,$2,$3,0*
0 Add four circle primitives for the rounded corners*
1,1,$1+$1,$2,$3*
1,1,$1+$1,$4,$5*
1,1,$1+$1,$6,$7*
1,1,$1+$1,$8,$9*
0 Add four rect primitives between the rounded corners*
20,1,$1+$1,$2,$3,$4,$5,0*
20,1,$1+$1,$4,$5,$6,$7,0*
20,1,$1+$1,$6,$7,$8,$9,0*
20,1,$1+$1,$8,$9,$2,$3,0*%
G04 Aperture macros list end*
%ADD10C,0.150000*%
%ADD11C,0.100000*%
%ADD12C,0.120000*%
%ADD13C,0.125000*%
%ADD14C,0.080000*%
%ADD15C,0.250000*%
%ADD16C,0.180000*%
%ADD17C,0.200000*%
%ADD18C,0.127000*%
%ADD19RoundRect,0.225000X0.250000X-0.225000X0.250000X0.225000X-0.250000X0.225000X-0.250000X-0.225000X0*%
%ADD20R,1.700000X1.700000*%
%ADD21O,1.700000X1.700000*%
%ADD22RoundRect,0.200000X0.200000X0.275000X-0.200000X0.275000X-0.200000X-0.275000X0.200000X-0.275000X0*%
%ADD23C,1.000000*%
%ADD24RoundRect,0.250001X0.499999X-0.499999X0.499999X0.499999X-0.499999X0.499999X-0.499999X-0.499999X0*%
%ADD25C,1.500000*%
%ADD26RoundRect,0.200000X0.275000X-0.200000X0.275000X0.200000X-0.275000X0.200000X-0.275000X-0.200000X0*%
%ADD27C,5.500000*%
%ADD28C,2.300000*%
%ADD29R,2.300000X2.300000*%
%ADD30R,2.200000X2.200000*%
%ADD31C,2.200000*%
%ADD32RoundRect,0.250000X-0.620000X-0.845000X0.620000X-0.845000X0.620000X0.845000X-0.620000X0.845000X0*%
%ADD33O,1.740000X2.190000*%
%ADD34RoundRect,0.150000X-0.150000X0.587500X-0.150000X-0.587500X0.150000X-0.587500X0.150000X0.587500X0*%
%ADD35R,0.700000X0.600000*%
%ADD36RoundRect,0.200000X-0.275000X0.200000X-0.275000X-0.200000X0.275000X-0.200000X0.275000X0.200000X0*%
%ADD37R,1.800000X2.500000*%
%ADD38R,1.200000X2.200000*%
%ADD39R,5.800000X6.400000*%
%ADD40RoundRect,0.250000X-0.650000X0.325000X-0.650000X-0.325000X0.650000X-0.325000X0.650000X0.325000X0*%
%ADD41R,2.900000X5.400000*%
%ADD42R,0.600000X0.700000*%
%ADD43RoundRect,0.200000X-0.200000X-0.275000X0.200000X-0.275000X0.200000X0.275000X-0.200000X0.275000X0*%
%ADD44R,2.600000X2.600000*%
%ADD45C,2.600000*%
%ADD46RoundRect,0.250001X-0.499999X-0.499999X0.499999X-0.499999X0.499999X0.499999X-0.499999X0.499999X0*%
%ADD47RoundRect,0.250000X-0.550000X1.500000X-0.550000X-1.500000X0.550000X-1.500000X0.550000X1.500000X0*%
%ADD48RoundRect,0.225000X-0.250000X0.225000X-0.250000X-0.225000X0.250000X-0.225000X0.250000X0.225000X0*%
%ADD49R,0.450000X0.600000*%
%ADD50C,1.100000*%
%ADD51C,1.700000*%
%ADD52O,3.200000X1.600000*%
%ADD53O,1.750000X3.500000*%
%ADD54RoundRect,0.225000X0.225000X0.250000X-0.225000X0.250000X-0.225000X-0.250000X0.225000X-0.250000X0*%
%ADD55RoundRect,0.150000X-0.587500X-0.150000X0.587500X-0.150000X0.587500X0.150000X-0.587500X0.150000X0*%
%ADD56RoundRect,0.150000X0.150000X-0.825000X0.150000X0.825000X-0.150000X0.825000X-0.150000X-0.825000X0*%
%ADD57RoundRect,0.250000X-1.950000X-1.000000X1.950000X-1.000000X1.950000X1.000000X-1.950000X1.000000X0*%
G04 APERTURE END LIST*
D10*
X67400000Y-45300000D02*
X67400000Y-41700000D01*
X67377228Y-30400000D02*
X68077228Y-30400000D01*
D11*
X43850000Y-52675000D02*
X43050000Y-52675000D01*
X63400000Y-57500000D02*
X63400000Y-58950000D01*
D10*
X76050000Y-47200000D02*
X75650000Y-47200000D01*
X67377228Y-39600000D02*
X67377228Y-36000000D01*
D11*
X74080000Y-65542893D02*
X74080000Y-68300000D01*
X63325000Y-38675000D02*
X62775000Y-38675000D01*
X63300000Y-53100000D02*
X62750000Y-53100000D01*
D10*
X76050000Y-15790941D02*
X75650000Y-15790941D01*
X76050000Y-31340769D02*
X75650000Y-31340769D01*
D11*
X16000000Y-34200001D02*
X16000000Y-34000000D01*
X43050000Y-30950000D02*
X43050000Y-30100000D01*
X74620000Y-68300000D02*
X74080000Y-68300000D01*
D10*
X67377228Y-34000000D02*
X67377228Y-30400000D01*
X76050000Y-23400000D02*
X75650000Y-23400000D01*
X76050000Y-42140941D02*
X75650000Y-42140941D01*
D11*
X63375000Y-34200000D02*
X62825000Y-34200000D01*
D10*
X76050000Y-44640769D02*
X75650000Y-44640769D01*
D12*
X61400000Y-16050000D02*
X62100000Y-16050000D01*
D11*
X74665000Y-54850000D02*
X74100000Y-54850000D01*
D10*
X67400000Y-50900000D02*
X68100000Y-50900000D01*
X67550000Y-22150000D02*
X67550000Y-18550000D01*
D11*
X42400000Y-56075000D02*
X43700000Y-56075000D01*
X43700000Y-56075000D02*
X43700000Y-53525000D01*
X43700000Y-53525000D02*
X42400000Y-53525000D01*
X42400000Y-53525000D02*
X42400000Y-56075000D01*
X43050000Y-40750000D02*
X43050000Y-39900000D01*
X42400000Y-44150000D02*
X43700000Y-44150000D01*
X43700000Y-44150000D02*
X43700000Y-41600000D01*
X43700000Y-41600000D02*
X42400000Y-41600000D01*
X42400000Y-41600000D02*
X42400000Y-44150000D01*
X63300000Y-51650000D02*
X63300000Y-53100000D01*
D10*
X76050000Y-20850000D02*
X75650000Y-20850000D01*
X67400000Y-41700000D02*
X68100000Y-41700000D01*
D11*
X63325000Y-38700000D02*
X63325000Y-40150000D01*
X63400000Y-57475000D02*
X62850000Y-57475000D01*
X14800000Y-30500001D02*
X16100000Y-30500000D01*
D10*
X76050000Y-18290769D02*
X75650000Y-18290769D01*
D11*
X43850000Y-30950000D02*
X43050000Y-30950000D01*
X43050000Y-31800000D02*
X43050000Y-30950000D01*
X42400000Y-39900000D02*
X43700000Y-39900000D01*
X43700000Y-39900000D02*
X43700000Y-37150000D01*
X43700000Y-37150000D02*
X42400000Y-37150000D01*
X42400000Y-37150000D02*
X42400000Y-39900000D01*
X43850000Y-40750000D02*
X43050000Y-40750000D01*
D10*
X76050000Y-36450000D02*
X75650000Y-36450000D01*
D11*
X63375000Y-71900000D02*
X62825000Y-71900000D01*
X14800000Y-34200000D02*
X16000000Y-34200001D01*
D10*
X67550000Y-27750000D02*
X67550000Y-24150000D01*
D11*
X16100000Y-30500000D02*
X16100000Y-30700000D01*
D10*
X67400000Y-50900000D02*
X67400000Y-47300000D01*
X67377228Y-39600000D02*
X68077228Y-39600000D01*
D11*
X74100000Y-54850000D02*
X74100000Y-57750000D01*
X63400000Y-19775000D02*
X62850000Y-19775000D01*
X43050000Y-53525000D02*
X43050000Y-52675000D01*
X63375000Y-70450000D02*
X63375000Y-71900000D01*
D10*
X76050000Y-28840941D02*
X75650000Y-28840941D01*
D11*
X63375000Y-32750000D02*
X63375000Y-34200000D01*
D10*
X76050000Y-49750000D02*
X75650000Y-49750000D01*
X67550000Y-27750000D02*
X68250000Y-27750000D01*
D11*
X42400000Y-30100000D02*
X43700000Y-30100000D01*
X43700000Y-30100000D02*
X43700000Y-24600000D01*
X43700000Y-24600000D02*
X42400000Y-24600000D01*
X42400000Y-24600000D02*
X42400000Y-30100000D01*
X42400000Y-34350000D02*
X43700000Y-34350000D01*
X43700000Y-34350000D02*
X43700000Y-31800000D01*
X43700000Y-31800000D02*
X42400000Y-31800000D01*
X42400000Y-31800000D02*
X42400000Y-34350000D01*
X43050000Y-41600000D02*
X43050000Y-40750000D01*
X42400000Y-51825000D02*
X43700000Y-51825000D01*
X43700000Y-51825000D02*
X43700000Y-48475000D01*
X43700000Y-48475000D02*
X42400000Y-48475000D01*
X42400000Y-48475000D02*
X42400000Y-51825000D01*
X63400000Y-19800000D02*
X63400000Y-21250000D01*
D10*
X76050000Y-33900000D02*
X75650000Y-33900000D01*
D11*
X43050000Y-52675000D02*
X43050000Y-51825000D01*
D10*
X67550000Y-18550000D02*
X68250000Y-18550000D01*
X75150000Y-56061904D02*
X75102380Y-56157142D01*
X75102380Y-56300000D01*
X75150000Y-56442857D01*
X75245238Y-56538095D01*
X75340476Y-56585714D01*
X75530952Y-56633333D01*
X75673809Y-56633333D01*
X75864285Y-56585714D01*
X75959523Y-56538095D01*
X76054761Y-56442857D01*
X76102380Y-56300000D01*
X76102380Y-56204761D01*
X76054761Y-56061904D01*
X76007142Y-56014285D01*
X75673809Y-56014285D01*
X75673809Y-56204761D01*
X76102380Y-55585714D02*
X75102380Y-55585714D01*
X76102380Y-55014285D01*
X75102380Y-55014285D01*
X76102380Y-54538095D02*
X75102380Y-54538095D01*
X75102380Y-54300000D01*
X75150000Y-54157142D01*
X75245238Y-54061904D01*
X75340476Y-54014285D01*
X75530952Y-53966666D01*
X75673809Y-53966666D01*
X75864285Y-54014285D01*
X75959523Y-54061904D01*
X76054761Y-54157142D01*
X76102380Y-54300000D01*
X76102380Y-54538095D01*
D13*
X66113988Y-35385714D02*
X66075892Y-35423809D01*
X65961607Y-35461904D01*
X65885416Y-35461904D01*
X65771130Y-35423809D01*
X65694940Y-35347619D01*
X65656845Y-35271428D01*
X65618750Y-35119047D01*
X65618750Y-35004761D01*
X65656845Y-34852380D01*
X65694940Y-34776190D01*
X65771130Y-34700000D01*
X65885416Y-34661904D01*
X65961607Y-34661904D01*
X66075892Y-34700000D01*
X66113988Y-34738095D01*
X66609226Y-34661904D02*
X66761607Y-34661904D01*
X66837797Y-34700000D01*
X66913988Y-34776190D01*
X66952083Y-34928571D01*
X66952083Y-35195238D01*
X66913988Y-35347619D01*
X66837797Y-35423809D01*
X66761607Y-35461904D01*
X66609226Y-35461904D01*
X66533035Y-35423809D01*
X66456845Y-35347619D01*
X66418750Y-35195238D01*
X66418750Y-34928571D01*
X66456845Y-34776190D01*
X66533035Y-34700000D01*
X66609226Y-34661904D01*
X67294940Y-35461904D02*
X67294940Y-34661904D01*
X67561607Y-35233333D01*
X67828273Y-34661904D01*
X67828273Y-35461904D01*
D14*
X75278571Y-16192857D02*
X75302380Y-16216666D01*
X75326190Y-16288095D01*
X75326190Y-16335714D01*
X75302380Y-16407142D01*
X75254761Y-16454761D01*
X75207142Y-16478571D01*
X75111904Y-16502380D01*
X75040476Y-16502380D01*
X74945238Y-16478571D01*
X74897619Y-16454761D01*
X74850000Y-16407142D01*
X74826190Y-16335714D01*
X74826190Y-16288095D01*
X74850000Y-16216666D01*
X74873809Y-16192857D01*
X74826190Y-15883333D02*
X74826190Y-15788095D01*
X74850000Y-15740476D01*
X74897619Y-15692857D01*
X74992857Y-15669047D01*
X75159523Y-15669047D01*
X75254761Y-15692857D01*
X75302380Y-15740476D01*
X75326190Y-15788095D01*
X75326190Y-15883333D01*
X75302380Y-15930952D01*
X75254761Y-15978571D01*
X75159523Y-16002380D01*
X74992857Y-16002380D01*
X74897619Y-15978571D01*
X74850000Y-15930952D01*
X74826190Y-15883333D01*
X75326190Y-15454761D02*
X74826190Y-15454761D01*
X75183333Y-15288095D01*
X74826190Y-15121428D01*
X75326190Y-15121428D01*
X75326190Y-21350000D02*
X74826190Y-21350000D01*
X74826190Y-21230952D01*
X74850000Y-21159523D01*
X74897619Y-21111904D01*
X74945238Y-21088095D01*
X75040476Y-21064285D01*
X75111904Y-21064285D01*
X75207142Y-21088095D01*
X75254761Y-21111904D01*
X75302380Y-21159523D01*
X75326190Y-21230952D01*
X75326190Y-21350000D01*
X75326190Y-20850000D02*
X74826190Y-20850000D01*
X75326190Y-20326190D02*
X75088095Y-20492857D01*
X75326190Y-20611904D02*
X74826190Y-20611904D01*
X74826190Y-20421428D01*
X74850000Y-20373809D01*
X74873809Y-20350000D01*
X74921428Y-20326190D01*
X74992857Y-20326190D01*
X75040476Y-20350000D01*
X75064285Y-20373809D01*
X75088095Y-20421428D01*
X75088095Y-20611904D01*
D11*
X43350000Y-55287666D02*
X43383333Y-55321000D01*
X43416666Y-55421000D01*
X43416666Y-55487666D01*
X43383333Y-55587666D01*
X43316666Y-55654333D01*
X43250000Y-55687666D01*
X43116666Y-55721000D01*
X43016666Y-55721000D01*
X42883333Y-55687666D01*
X42816666Y-55654333D01*
X42750000Y-55587666D01*
X42716666Y-55487666D01*
X42716666Y-55421000D01*
X42750000Y-55321000D01*
X42783333Y-55287666D01*
X43350000Y-54987666D02*
X43383333Y-54954333D01*
X43416666Y-54987666D01*
X43383333Y-55021000D01*
X43350000Y-54987666D01*
X43416666Y-54987666D01*
X43416666Y-54654333D02*
X42716666Y-54654333D01*
X42716666Y-54387666D01*
X42750000Y-54321000D01*
X42783333Y-54287666D01*
X42850000Y-54254333D01*
X42950000Y-54254333D01*
X43016666Y-54287666D01*
X43050000Y-54321000D01*
X43083333Y-54387666D01*
X43083333Y-54654333D01*
X43350000Y-53954333D02*
X43383333Y-53921000D01*
X43416666Y-53954333D01*
X43383333Y-53987666D01*
X43350000Y-53954333D01*
X43416666Y-53954333D01*
D15*
X73004523Y-49670055D02*
X73004523Y-48670055D01*
X74274523Y-49670055D01*
X74274523Y-48670055D01*
X74274523Y-46955770D02*
X73004523Y-46955770D01*
X73004523Y-46598627D01*
X73065000Y-46384341D01*
X73185952Y-46241484D01*
X73306904Y-46170055D01*
X73548809Y-46098627D01*
X73730238Y-46098627D01*
X73972142Y-46170055D01*
X74093095Y-46241484D01*
X74214047Y-46384341D01*
X74274523Y-46598627D01*
X74274523Y-46955770D01*
X74274523Y-44598627D02*
X73669761Y-45098627D01*
X74274523Y-45455770D02*
X73004523Y-45455770D01*
X73004523Y-44884341D01*
X73065000Y-44741484D01*
X73125476Y-44670055D01*
X73246428Y-44598627D01*
X73427857Y-44598627D01*
X73548809Y-44670055D01*
X73609285Y-44741484D01*
X73669761Y-44884341D01*
X73669761Y-45455770D01*
X73004523Y-44170055D02*
X74274523Y-43670055D01*
X73004523Y-43170055D01*
D10*
X77907261Y-84645273D02*
X77431071Y-84645273D01*
X77383452Y-85121464D01*
X77431071Y-85073845D01*
X77526309Y-85026226D01*
X77764404Y-85026226D01*
X77859642Y-85073845D01*
X77907261Y-85121464D01*
X77954880Y-85216702D01*
X77954880Y-85454797D01*
X77907261Y-85550035D01*
X77859642Y-85597654D01*
X77764404Y-85645273D01*
X77526309Y-85645273D01*
X77431071Y-85597654D01*
X77383452Y-85550035D01*
X78335833Y-85359559D02*
X78812023Y-85359559D01*
X78240595Y-85645273D02*
X78573928Y-84645273D01*
X78907261Y-85645273D01*
D16*
X70678571Y-76050035D02*
X70735714Y-76107178D01*
X70792857Y-76278607D01*
X70792857Y-76392893D01*
X70735714Y-76564321D01*
X70621428Y-76678607D01*
X70507142Y-76735750D01*
X70278571Y-76792893D01*
X70107142Y-76792893D01*
X69878571Y-76735750D01*
X69764285Y-76678607D01*
X69650000Y-76564321D01*
X69592857Y-76392893D01*
X69592857Y-76278607D01*
X69650000Y-76107178D01*
X69707142Y-76050035D01*
X70792857Y-75535750D02*
X69592857Y-75535750D01*
X69592857Y-75078607D01*
X69650000Y-74964321D01*
X69707142Y-74907178D01*
X69821428Y-74850035D01*
X69992857Y-74850035D01*
X70107142Y-74907178D01*
X70164285Y-74964321D01*
X70221428Y-75078607D01*
X70221428Y-75535750D01*
X69592857Y-74107178D02*
X69592857Y-73878607D01*
X69650000Y-73764321D01*
X69764285Y-73650035D01*
X69992857Y-73592893D01*
X70392857Y-73592893D01*
X70621428Y-73650035D01*
X70735714Y-73764321D01*
X70792857Y-73878607D01*
X70792857Y-74107178D01*
X70735714Y-74221464D01*
X70621428Y-74335750D01*
X70392857Y-74392893D01*
X69992857Y-74392893D01*
X69764285Y-74335750D01*
X69650000Y-74221464D01*
X69592857Y-74107178D01*
D10*
X75102380Y-63233333D02*
X75102380Y-62614285D01*
X75483333Y-62947619D01*
X75483333Y-62804761D01*
X75530952Y-62709523D01*
X75578571Y-62661904D01*
X75673809Y-62614285D01*
X75911904Y-62614285D01*
X76007142Y-62661904D01*
X76054761Y-62709523D01*
X76102380Y-62804761D01*
X76102380Y-63090476D01*
X76054761Y-63185714D01*
X76007142Y-63233333D01*
D17*
X62754523Y-32070714D02*
X64024523Y-31224047D01*
X62754523Y-31224047D02*
X64024523Y-32070714D01*
X63359285Y-29772619D02*
X63359285Y-29349285D01*
X64024523Y-29167857D02*
X64024523Y-29772619D01*
X62754523Y-29772619D01*
X62754523Y-29167857D01*
X64024523Y-28623571D02*
X62754523Y-28623571D01*
X64024523Y-27897857D01*
X62754523Y-27897857D01*
X64024523Y-27293095D02*
X62754523Y-27293095D01*
X62754523Y-26990714D01*
X62815000Y-26809285D01*
X62935952Y-26688333D01*
X63056904Y-26627857D01*
X63298809Y-26567380D01*
X63480238Y-26567380D01*
X63722142Y-26627857D01*
X63843095Y-26688333D01*
X63964047Y-26809285D01*
X64024523Y-26990714D01*
X64024523Y-27293095D01*
X63964047Y-26083571D02*
X64024523Y-25902142D01*
X64024523Y-25599761D01*
X63964047Y-25478809D01*
X63903571Y-25418333D01*
X63782619Y-25357857D01*
X63661666Y-25357857D01*
X63540714Y-25418333D01*
X63480238Y-25478809D01*
X63419761Y-25599761D01*
X63359285Y-25841666D01*
X63298809Y-25962619D01*
X63238333Y-26023095D01*
X63117380Y-26083571D01*
X62996428Y-26083571D01*
X62875476Y-26023095D01*
X62815000Y-25962619D01*
X62754523Y-25841666D01*
X62754523Y-25539285D01*
X62815000Y-25357857D01*
X62754523Y-24995000D02*
X62754523Y-24269285D01*
X64024523Y-24632142D02*
X62754523Y-24632142D01*
X62754523Y-23604047D02*
X62754523Y-23362142D01*
X62815000Y-23241190D01*
X62935952Y-23120238D01*
X63177857Y-23059761D01*
X63601190Y-23059761D01*
X63843095Y-23120238D01*
X63964047Y-23241190D01*
X64024523Y-23362142D01*
X64024523Y-23604047D01*
X63964047Y-23725000D01*
X63843095Y-23845952D01*
X63601190Y-23906428D01*
X63177857Y-23906428D01*
X62935952Y-23845952D01*
X62815000Y-23725000D01*
X62754523Y-23604047D01*
X64024523Y-22515476D02*
X62754523Y-22515476D01*
X62754523Y-22031666D01*
X62815000Y-21910714D01*
X62875476Y-21850238D01*
X62996428Y-21789761D01*
X63177857Y-21789761D01*
X63298809Y-21850238D01*
X63359285Y-21910714D01*
X63419761Y-22031666D01*
X63419761Y-22515476D01*
D10*
X52635714Y-68802380D02*
X52064285Y-68802380D01*
X52350000Y-68802380D02*
X52350000Y-67802380D01*
X52254761Y-67945238D01*
X52159523Y-68040476D01*
X52064285Y-68088095D01*
X52038095Y-11990512D02*
X52085714Y-11942893D01*
X52180952Y-11895273D01*
X52419047Y-11895273D01*
X52514285Y-11942893D01*
X52561904Y-11990512D01*
X52609523Y-12085750D01*
X52609523Y-12180988D01*
X52561904Y-12323845D01*
X51990476Y-12895273D01*
X52609523Y-12895273D01*
X52942857Y-11895273D02*
X53561904Y-11895273D01*
X53228571Y-12276226D01*
X53371428Y-12276226D01*
X53466666Y-12323845D01*
X53514285Y-12371464D01*
X53561904Y-12466702D01*
X53561904Y-12704797D01*
X53514285Y-12800035D01*
X53466666Y-12847654D01*
X53371428Y-12895273D01*
X53085714Y-12895273D01*
X52990476Y-12847654D01*
X52942857Y-12800035D01*
D11*
X43416666Y-50833333D02*
X43083333Y-51066666D01*
X43416666Y-51233333D02*
X42716666Y-51233333D01*
X42716666Y-50966666D01*
X42750000Y-50900000D01*
X42783333Y-50866666D01*
X42850000Y-50833333D01*
X42950000Y-50833333D01*
X43016666Y-50866666D01*
X43050000Y-50900000D01*
X43083333Y-50966666D01*
X43083333Y-51233333D01*
X43416666Y-50200000D02*
X43416666Y-50533333D01*
X42716666Y-50533333D01*
X43083333Y-49833333D02*
X43416666Y-49833333D01*
X42716666Y-50066666D02*
X43083333Y-49833333D01*
X42716666Y-49600000D01*
X42950000Y-49066666D02*
X43416666Y-49066666D01*
X42683333Y-49233333D02*
X43183333Y-49400000D01*
X43183333Y-48966666D01*
X42716666Y-48066666D02*
X42883333Y-48066666D01*
X42816666Y-48233333D02*
X42883333Y-48066666D01*
X42816666Y-47900000D01*
X43016666Y-48166666D02*
X42883333Y-48066666D01*
X43016666Y-47966666D01*
D10*
X69886751Y-29752380D02*
X69410561Y-29752380D01*
X69362942Y-30228571D01*
X69410561Y-30180952D01*
X69505799Y-30133333D01*
X69743894Y-30133333D01*
X69839132Y-30180952D01*
X69886751Y-30228571D01*
X69934370Y-30323809D01*
X69934370Y-30561904D01*
X69886751Y-30657142D01*
X69839132Y-30704761D01*
X69743894Y-30752380D01*
X69505799Y-30752380D01*
X69410561Y-30704761D01*
X69362942Y-30657142D01*
X70220085Y-29752380D02*
X70553418Y-30752380D01*
X70886751Y-29752380D01*
D11*
X62521428Y-16411904D02*
X62521428Y-15611904D01*
X62711904Y-15611904D01*
X62826190Y-15650000D01*
X62902380Y-15726190D01*
X62940476Y-15802380D01*
X62978571Y-15954761D01*
X62978571Y-16069047D01*
X62940476Y-16221428D01*
X62902380Y-16297619D01*
X62826190Y-16373809D01*
X62711904Y-16411904D01*
X62521428Y-16411904D01*
X63740476Y-15650000D02*
X63664285Y-15611904D01*
X63550000Y-15611904D01*
X63435714Y-15650000D01*
X63359523Y-15726190D01*
X63321428Y-15802380D01*
X63283333Y-15954761D01*
X63283333Y-16069047D01*
X63321428Y-16221428D01*
X63359523Y-16297619D01*
X63435714Y-16373809D01*
X63550000Y-16411904D01*
X63626190Y-16411904D01*
X63740476Y-16373809D01*
X63778571Y-16335714D01*
X63778571Y-16069047D01*
X63626190Y-16069047D01*
X64121428Y-16411904D02*
X64121428Y-15611904D01*
X64578571Y-16411904D01*
X64578571Y-15611904D01*
X64959523Y-16411904D02*
X64959523Y-15611904D01*
X65150000Y-15611904D01*
X65264285Y-15650000D01*
X65340476Y-15726190D01*
X65378571Y-15802380D01*
X65416666Y-15954761D01*
X65416666Y-16069047D01*
X65378571Y-16221428D01*
X65340476Y-16297619D01*
X65264285Y-16373809D01*
X65150000Y-16411904D01*
X64959523Y-16411904D01*
X43416666Y-39483333D02*
X42716666Y-39483333D01*
X42716666Y-39216666D01*
X42750000Y-39150000D01*
X42783333Y-39116666D01*
X42850000Y-39083333D01*
X42950000Y-39083333D01*
X43016666Y-39116666D01*
X43050000Y-39150000D01*
X43083333Y-39216666D01*
X43083333Y-39483333D01*
X42716666Y-38850000D02*
X43416666Y-38683333D01*
X42916666Y-38550000D01*
X43416666Y-38416666D01*
X42716666Y-38250000D01*
X43416666Y-37983333D02*
X42716666Y-37983333D01*
X43216666Y-37750000D01*
X42716666Y-37516666D01*
X43416666Y-37516666D01*
D14*
X75278571Y-42542857D02*
X75302380Y-42566666D01*
X75326190Y-42638095D01*
X75326190Y-42685714D01*
X75302380Y-42757142D01*
X75254761Y-42804761D01*
X75207142Y-42828571D01*
X75111904Y-42852380D01*
X75040476Y-42852380D01*
X74945238Y-42828571D01*
X74897619Y-42804761D01*
X74850000Y-42757142D01*
X74826190Y-42685714D01*
X74826190Y-42638095D01*
X74850000Y-42566666D01*
X74873809Y-42542857D01*
X74826190Y-42233333D02*
X74826190Y-42138095D01*
X74850000Y-42090476D01*
X74897619Y-42042857D01*
X74992857Y-42019047D01*
X75159523Y-42019047D01*
X75254761Y-42042857D01*
X75302380Y-42090476D01*
X75326190Y-42138095D01*
X75326190Y-42233333D01*
X75302380Y-42280952D01*
X75254761Y-42328571D01*
X75159523Y-42352380D01*
X74992857Y-42352380D01*
X74897619Y-42328571D01*
X74850000Y-42280952D01*
X74826190Y-42233333D01*
X75326190Y-41804761D02*
X74826190Y-41804761D01*
X75183333Y-41638095D01*
X74826190Y-41471428D01*
X75326190Y-41471428D01*
D10*
X70059523Y-17902380D02*
X69583333Y-17902380D01*
X69535714Y-18378571D01*
X69583333Y-18330952D01*
X69678571Y-18283333D01*
X69916666Y-18283333D01*
X70011904Y-18330952D01*
X70059523Y-18378571D01*
X70107142Y-18473809D01*
X70107142Y-18711904D01*
X70059523Y-18807142D01*
X70011904Y-18854761D01*
X69916666Y-18902380D01*
X69678571Y-18902380D01*
X69583333Y-18854761D01*
X69535714Y-18807142D01*
X70392857Y-17902380D02*
X70726190Y-18902380D01*
X71059523Y-17902380D01*
D11*
X58240476Y-16233333D02*
X58621428Y-16233333D01*
X58164285Y-16461904D02*
X58430952Y-15661904D01*
X58697619Y-16461904D01*
X59383333Y-15700000D02*
X59307142Y-15661904D01*
X59192857Y-15661904D01*
X59078571Y-15700000D01*
X59002380Y-15776190D01*
X58964285Y-15852380D01*
X58926190Y-16004761D01*
X58926190Y-16119047D01*
X58964285Y-16271428D01*
X59002380Y-16347619D01*
X59078571Y-16423809D01*
X59192857Y-16461904D01*
X59269047Y-16461904D01*
X59383333Y-16423809D01*
X59421428Y-16385714D01*
X59421428Y-16119047D01*
X59269047Y-16119047D01*
X59764285Y-16461904D02*
X59764285Y-15661904D01*
X60221428Y-16461904D01*
X60221428Y-15661904D01*
X60602380Y-16461904D02*
X60602380Y-15661904D01*
X60792857Y-15661904D01*
X60907142Y-15700000D01*
X60983333Y-15776190D01*
X61021428Y-15852380D01*
X61059523Y-16004761D01*
X61059523Y-16119047D01*
X61021428Y-16271428D01*
X60983333Y-16347619D01*
X60907142Y-16423809D01*
X60792857Y-16461904D01*
X60602380Y-16461904D01*
D10*
X69909523Y-41052380D02*
X69433333Y-41052380D01*
X69385714Y-41528571D01*
X69433333Y-41480952D01*
X69528571Y-41433333D01*
X69766666Y-41433333D01*
X69861904Y-41480952D01*
X69909523Y-41528571D01*
X69957142Y-41623809D01*
X69957142Y-41861904D01*
X69909523Y-41957142D01*
X69861904Y-42004761D01*
X69766666Y-42052380D01*
X69528571Y-42052380D01*
X69433333Y-42004761D01*
X69385714Y-41957142D01*
X70242857Y-41052380D02*
X70576190Y-42052380D01*
X70909523Y-41052380D01*
D13*
X66113988Y-46685714D02*
X66075892Y-46723809D01*
X65961607Y-46761904D01*
X65885416Y-46761904D01*
X65771130Y-46723809D01*
X65694940Y-46647619D01*
X65656845Y-46571428D01*
X65618750Y-46419047D01*
X65618750Y-46304761D01*
X65656845Y-46152380D01*
X65694940Y-46076190D01*
X65771130Y-46000000D01*
X65885416Y-45961904D01*
X65961607Y-45961904D01*
X66075892Y-46000000D01*
X66113988Y-46038095D01*
X66609226Y-45961904D02*
X66761607Y-45961904D01*
X66837797Y-46000000D01*
X66913988Y-46076190D01*
X66952083Y-46228571D01*
X66952083Y-46495238D01*
X66913988Y-46647619D01*
X66837797Y-46723809D01*
X66761607Y-46761904D01*
X66609226Y-46761904D01*
X66533035Y-46723809D01*
X66456845Y-46647619D01*
X66418750Y-46495238D01*
X66418750Y-46228571D01*
X66456845Y-46076190D01*
X66533035Y-46000000D01*
X66609226Y-45961904D01*
X67294940Y-46761904D02*
X67294940Y-45961904D01*
X67561607Y-46533333D01*
X67828273Y-45961904D01*
X67828273Y-46761904D01*
D10*
X56288095Y-83545273D02*
X56288095Y-82545273D01*
X56669047Y-82545273D01*
X56764285Y-82592893D01*
X56811904Y-82640512D01*
X56859523Y-82735750D01*
X56859523Y-82878607D01*
X56811904Y-82973845D01*
X56764285Y-83021464D01*
X56669047Y-83069083D01*
X56288095Y-83069083D01*
X57192857Y-82545273D02*
X57430952Y-83545273D01*
X57621428Y-82830988D01*
X57811904Y-83545273D01*
X58050000Y-82545273D01*
X59002380Y-83545273D02*
X58669047Y-83069083D01*
X58430952Y-83545273D02*
X58430952Y-82545273D01*
X58811904Y-82545273D01*
X58907142Y-82592893D01*
X58954761Y-82640512D01*
X59002380Y-82735750D01*
X59002380Y-82878607D01*
X58954761Y-82973845D01*
X58907142Y-83021464D01*
X58811904Y-83069083D01*
X58430952Y-83069083D01*
X60145238Y-83497654D02*
X60288095Y-83545273D01*
X60526190Y-83545273D01*
X60621428Y-83497654D01*
X60669047Y-83450035D01*
X60716666Y-83354797D01*
X60716666Y-83259559D01*
X60669047Y-83164321D01*
X60621428Y-83116702D01*
X60526190Y-83069083D01*
X60335714Y-83021464D01*
X60240476Y-82973845D01*
X60192857Y-82926226D01*
X60145238Y-82830988D01*
X60145238Y-82735750D01*
X60192857Y-82640512D01*
X60240476Y-82592893D01*
X60335714Y-82545273D01*
X60573809Y-82545273D01*
X60716666Y-82592893D01*
X61050000Y-82545273D02*
X61288095Y-83545273D01*
X61478571Y-82830988D01*
X61669047Y-83545273D01*
X61907142Y-82545273D01*
D11*
X42716666Y-53116666D02*
X42016666Y-53116666D01*
X42016666Y-52850000D01*
X42050000Y-52783333D01*
X42083333Y-52750000D01*
X42150000Y-52716666D01*
X42250000Y-52716666D01*
X42316666Y-52750000D01*
X42350000Y-52783333D01*
X42383333Y-52850000D01*
X42383333Y-53116666D01*
X42716666Y-52050000D02*
X42716666Y-52450000D01*
X42716666Y-52250000D02*
X42016666Y-52250000D01*
X42116666Y-52316666D01*
X42183333Y-52383333D01*
X42216666Y-52450000D01*
D17*
X63344761Y-50547380D02*
X63949523Y-50547380D01*
X62679523Y-50970714D02*
X63344761Y-50547380D01*
X62679523Y-50124047D01*
X63284285Y-48733095D02*
X63284285Y-48309761D01*
X63949523Y-48128333D02*
X63949523Y-48733095D01*
X62679523Y-48733095D01*
X62679523Y-48128333D01*
X63949523Y-47584047D02*
X62679523Y-47584047D01*
X63949523Y-46858333D01*
X62679523Y-46858333D01*
X63949523Y-46253571D02*
X62679523Y-46253571D01*
X62679523Y-45951190D01*
X62740000Y-45769761D01*
X62860952Y-45648809D01*
X62981904Y-45588333D01*
X63223809Y-45527857D01*
X63405238Y-45527857D01*
X63647142Y-45588333D01*
X63768095Y-45648809D01*
X63889047Y-45769761D01*
X63949523Y-45951190D01*
X63949523Y-46253571D01*
X63889047Y-45044047D02*
X63949523Y-44862619D01*
X63949523Y-44560238D01*
X63889047Y-44439285D01*
X63828571Y-44378809D01*
X63707619Y-44318333D01*
X63586666Y-44318333D01*
X63465714Y-44378809D01*
X63405238Y-44439285D01*
X63344761Y-44560238D01*
X63284285Y-44802142D01*
X63223809Y-44923095D01*
X63163333Y-44983571D01*
X63042380Y-45044047D01*
X62921428Y-45044047D01*
X62800476Y-44983571D01*
X62740000Y-44923095D01*
X62679523Y-44802142D01*
X62679523Y-44499761D01*
X62740000Y-44318333D01*
X62679523Y-43955476D02*
X62679523Y-43229761D01*
X63949523Y-43592619D02*
X62679523Y-43592619D01*
X62679523Y-42564523D02*
X62679523Y-42322619D01*
X62740000Y-42201666D01*
X62860952Y-42080714D01*
X63102857Y-42020238D01*
X63526190Y-42020238D01*
X63768095Y-42080714D01*
X63889047Y-42201666D01*
X63949523Y-42322619D01*
X63949523Y-42564523D01*
X63889047Y-42685476D01*
X63768095Y-42806428D01*
X63526190Y-42866904D01*
X63102857Y-42866904D01*
X62860952Y-42806428D01*
X62740000Y-42685476D01*
X62679523Y-42564523D01*
X63949523Y-41475952D02*
X62679523Y-41475952D01*
X62679523Y-40992142D01*
X62740000Y-40871190D01*
X62800476Y-40810714D01*
X62921428Y-40750238D01*
X63102857Y-40750238D01*
X63223809Y-40810714D01*
X63284285Y-40871190D01*
X63344761Y-40992142D01*
X63344761Y-41475952D01*
D10*
X69773809Y-27402380D02*
X69869047Y-27402380D01*
X69964285Y-27450000D01*
X70011904Y-27497619D01*
X70059523Y-27592857D01*
X70107142Y-27783333D01*
X70107142Y-28021428D01*
X70059523Y-28211904D01*
X70011904Y-28307142D01*
X69964285Y-28354761D01*
X69869047Y-28402380D01*
X69773809Y-28402380D01*
X69678571Y-28354761D01*
X69630952Y-28307142D01*
X69583333Y-28211904D01*
X69535714Y-28021428D01*
X69535714Y-27783333D01*
X69583333Y-27592857D01*
X69630952Y-27497619D01*
X69678571Y-27450000D01*
X69773809Y-27402380D01*
X70392857Y-27402380D02*
X70726190Y-28402380D01*
X71059523Y-27402380D01*
D11*
X43383333Y-29783333D02*
X43416666Y-29683333D01*
X43416666Y-29516666D01*
X43383333Y-29450000D01*
X43350000Y-29416666D01*
X43283333Y-29383333D01*
X43216666Y-29383333D01*
X43150000Y-29416666D01*
X43116666Y-29450000D01*
X43083333Y-29516666D01*
X43050000Y-29650000D01*
X43016666Y-29716666D01*
X42983333Y-29750000D01*
X42916666Y-29783333D01*
X42850000Y-29783333D01*
X42783333Y-29750000D01*
X42750000Y-29716666D01*
X42716666Y-29650000D01*
X42716666Y-29483333D01*
X42750000Y-29383333D01*
X43416666Y-29083333D02*
X42716666Y-29083333D01*
X42716666Y-28816666D01*
X42750000Y-28750000D01*
X42783333Y-28716666D01*
X42850000Y-28683333D01*
X42950000Y-28683333D01*
X43016666Y-28716666D01*
X43050000Y-28750000D01*
X43083333Y-28816666D01*
X43083333Y-29083333D01*
X43416666Y-28383333D02*
X42716666Y-28383333D01*
X42716666Y-28216666D01*
X42750000Y-28116666D01*
X42816666Y-28050000D01*
X42883333Y-28016666D01*
X43016666Y-27983333D01*
X43116666Y-27983333D01*
X43250000Y-28016666D01*
X43316666Y-28050000D01*
X43383333Y-28116666D01*
X43416666Y-28216666D01*
X43416666Y-28383333D01*
X43416666Y-27350000D02*
X43416666Y-27683333D01*
X42716666Y-27683333D01*
X43416666Y-26183333D02*
X43083333Y-26416666D01*
X43416666Y-26583333D02*
X42716666Y-26583333D01*
X42716666Y-26316666D01*
X42750000Y-26250000D01*
X42783333Y-26216666D01*
X42850000Y-26183333D01*
X42950000Y-26183333D01*
X43016666Y-26216666D01*
X43050000Y-26250000D01*
X43083333Y-26316666D01*
X43083333Y-26583333D01*
X43416666Y-25550000D02*
X43416666Y-25883333D01*
X42716666Y-25883333D01*
X43083333Y-25183333D02*
X43416666Y-25183333D01*
X42716666Y-25416666D02*
X43083333Y-25183333D01*
X42716666Y-24950000D01*
D15*
X73669761Y-35614285D02*
X74274523Y-35614285D01*
X73004523Y-36114285D02*
X73669761Y-35614285D01*
X73004523Y-35114285D01*
X74274523Y-33471428D02*
X73004523Y-33471428D01*
X73004523Y-33114285D01*
X73065000Y-32900000D01*
X73185952Y-32757142D01*
X73306904Y-32685714D01*
X73548809Y-32614285D01*
X73730238Y-32614285D01*
X73972142Y-32685714D01*
X74093095Y-32757142D01*
X74214047Y-32900000D01*
X74274523Y-33114285D01*
X74274523Y-33471428D01*
X74274523Y-31114285D02*
X73669761Y-31614285D01*
X74274523Y-31971428D02*
X73004523Y-31971428D01*
X73004523Y-31400000D01*
X73065000Y-31257142D01*
X73125476Y-31185714D01*
X73246428Y-31114285D01*
X73427857Y-31114285D01*
X73548809Y-31185714D01*
X73609285Y-31257142D01*
X73669761Y-31400000D01*
X73669761Y-31971428D01*
X73004523Y-30685714D02*
X74274523Y-30185714D01*
X73004523Y-29685714D01*
X73104523Y-22814285D02*
X74374523Y-21814285D01*
X73104523Y-21814285D02*
X74374523Y-22814285D01*
X74374523Y-20100000D02*
X73104523Y-20100000D01*
X73104523Y-19742857D01*
X73165000Y-19528571D01*
X73285952Y-19385714D01*
X73406904Y-19314285D01*
X73648809Y-19242857D01*
X73830238Y-19242857D01*
X74072142Y-19314285D01*
X74193095Y-19385714D01*
X74314047Y-19528571D01*
X74374523Y-19742857D01*
X74374523Y-20100000D01*
X74374523Y-17742857D02*
X73769761Y-18242857D01*
X74374523Y-18600000D02*
X73104523Y-18600000D01*
X73104523Y-18028571D01*
X73165000Y-17885714D01*
X73225476Y-17814285D01*
X73346428Y-17742857D01*
X73527857Y-17742857D01*
X73648809Y-17814285D01*
X73709285Y-17885714D01*
X73769761Y-18028571D01*
X73769761Y-18600000D01*
X73104523Y-17314285D02*
X74374523Y-16814285D01*
X73104523Y-16314285D01*
D11*
X42716666Y-34833333D02*
X42883333Y-34833333D01*
X42816666Y-35000000D02*
X42883333Y-34833333D01*
X42816666Y-34666666D01*
X43016666Y-34933333D02*
X42883333Y-34833333D01*
X43016666Y-34733333D01*
X43416666Y-33866666D02*
X42716666Y-33866666D01*
X42716666Y-33600000D01*
X42750000Y-33533333D01*
X42783333Y-33500000D01*
X42850000Y-33466666D01*
X42950000Y-33466666D01*
X43016666Y-33500000D01*
X43050000Y-33533333D01*
X43083333Y-33600000D01*
X43083333Y-33866666D01*
X43416666Y-32800000D02*
X43416666Y-33200000D01*
X43416666Y-33000000D02*
X42716666Y-33000000D01*
X42816666Y-33066666D01*
X42883333Y-33133333D01*
X42916666Y-33200000D01*
X42716666Y-32200000D02*
X42716666Y-32333333D01*
X42750000Y-32400000D01*
X42783333Y-32433333D01*
X42883333Y-32500000D01*
X43016666Y-32533333D01*
X43283333Y-32533333D01*
X43350000Y-32500000D01*
X43383333Y-32466666D01*
X43416666Y-32400000D01*
X43416666Y-32266666D01*
X43383333Y-32200000D01*
X43350000Y-32166666D01*
X43283333Y-32133333D01*
X43116666Y-32133333D01*
X43050000Y-32166666D01*
X43016666Y-32200000D01*
X42983333Y-32266666D01*
X42983333Y-32400000D01*
X43016666Y-32466666D01*
X43050000Y-32500000D01*
X43116666Y-32533333D01*
D14*
X15166666Y-27950000D02*
X15100000Y-27916666D01*
X15000000Y-27916666D01*
X14900000Y-27950000D01*
X14833333Y-28016666D01*
X14800000Y-28083333D01*
X14766666Y-28216666D01*
X14766666Y-28316666D01*
X14800000Y-28450000D01*
X14833333Y-28516666D01*
X14900000Y-28583333D01*
X15000000Y-28616666D01*
X15066666Y-28616666D01*
X15166666Y-28583333D01*
X15200000Y-28550000D01*
X15200000Y-28316666D01*
X15066666Y-28316666D01*
X15500000Y-28616666D02*
X15500000Y-27916666D01*
X15900000Y-28616666D01*
X15900000Y-27916666D01*
X16233333Y-28616666D02*
X16233333Y-27916666D01*
X16400000Y-27916666D01*
X16500000Y-27950000D01*
X16566666Y-28016666D01*
X16600000Y-28083333D01*
X16633333Y-28216666D01*
X16633333Y-28316666D01*
X16600000Y-28450000D01*
X16566666Y-28516666D01*
X16500000Y-28583333D01*
X16400000Y-28616666D01*
X16233333Y-28616666D01*
D15*
X21791071Y-19178607D02*
X21962500Y-19235750D01*
X22248214Y-19235750D01*
X22362500Y-19178607D01*
X22419642Y-19121464D01*
X22476785Y-19007178D01*
X22476785Y-18892893D01*
X22419642Y-18778607D01*
X22362500Y-18721464D01*
X22248214Y-18664321D01*
X22019642Y-18607178D01*
X21905357Y-18550035D01*
X21848214Y-18492893D01*
X21791071Y-18378607D01*
X21791071Y-18264321D01*
X21848214Y-18150035D01*
X21905357Y-18092893D01*
X22019642Y-18035750D01*
X22305357Y-18035750D01*
X22476785Y-18092893D01*
X22991071Y-19235750D02*
X22991071Y-18035750D01*
X23505357Y-19235750D02*
X23505357Y-18607178D01*
X23448214Y-18492893D01*
X23333928Y-18435750D01*
X23162500Y-18435750D01*
X23048214Y-18492893D01*
X22991071Y-18550035D01*
X24591071Y-19235750D02*
X24591071Y-18607178D01*
X24533928Y-18492893D01*
X24419642Y-18435750D01*
X24191071Y-18435750D01*
X24076785Y-18492893D01*
X24591071Y-19178607D02*
X24476785Y-19235750D01*
X24191071Y-19235750D01*
X24076785Y-19178607D01*
X24019642Y-19064321D01*
X24019642Y-18950035D01*
X24076785Y-18835750D01*
X24191071Y-18778607D01*
X24476785Y-18778607D01*
X24591071Y-18721464D01*
X25162500Y-18435750D02*
X25162500Y-19635750D01*
X25162500Y-18492893D02*
X25276785Y-18435750D01*
X25505357Y-18435750D01*
X25619642Y-18492893D01*
X25676785Y-18550035D01*
X25733928Y-18664321D01*
X25733928Y-19007178D01*
X25676785Y-19121464D01*
X25619642Y-19178607D01*
X25505357Y-19235750D01*
X25276785Y-19235750D01*
X25162500Y-19178607D01*
X26705357Y-19178607D02*
X26591071Y-19235750D01*
X26362500Y-19235750D01*
X26248214Y-19178607D01*
X26191071Y-19064321D01*
X26191071Y-18607178D01*
X26248214Y-18492893D01*
X26362500Y-18435750D01*
X26591071Y-18435750D01*
X26705357Y-18492893D01*
X26762500Y-18607178D01*
X26762500Y-18721464D01*
X26191071Y-18835750D01*
X27448214Y-19235750D02*
X27333928Y-19178607D01*
X27276785Y-19121464D01*
X27219642Y-19007178D01*
X27219642Y-18664321D01*
X27276785Y-18550035D01*
X27333928Y-18492893D01*
X27448214Y-18435750D01*
X27619642Y-18435750D01*
X27733928Y-18492893D01*
X27791071Y-18550035D01*
X27848214Y-18664321D01*
X27848214Y-19007178D01*
X27791071Y-19121464D01*
X27733928Y-19178607D01*
X27619642Y-19235750D01*
X27448214Y-19235750D01*
X28362500Y-19235750D02*
X28362500Y-18035750D01*
X28476785Y-18778607D02*
X28819642Y-19235750D01*
X28819642Y-18435750D02*
X28362500Y-18892893D01*
X29505357Y-19235750D02*
X29391071Y-19178607D01*
X29333928Y-19121464D01*
X29276785Y-19007178D01*
X29276785Y-18664321D01*
X29333928Y-18550035D01*
X29391071Y-18492893D01*
X29505357Y-18435750D01*
X29676785Y-18435750D01*
X29791071Y-18492893D01*
X29848214Y-18550035D01*
X29905357Y-18664321D01*
X29905357Y-19007178D01*
X29848214Y-19121464D01*
X29791071Y-19178607D01*
X29676785Y-19235750D01*
X29505357Y-19235750D01*
X31905357Y-19235750D02*
X31333928Y-19235750D01*
X31333928Y-18035750D01*
X32305357Y-19235750D02*
X32305357Y-18035750D01*
X32762500Y-18035750D01*
X32876785Y-18092893D01*
X32933928Y-18150035D01*
X32991071Y-18264321D01*
X32991071Y-18435750D01*
X32933928Y-18550035D01*
X32876785Y-18607178D01*
X32762500Y-18664321D01*
X32305357Y-18664321D01*
X33333928Y-18035750D02*
X34019642Y-18035750D01*
X33676785Y-19235750D02*
X33676785Y-18035750D01*
X35333928Y-19235750D02*
X35333928Y-18035750D01*
X35905357Y-18435750D02*
X35905357Y-19235750D01*
X35905357Y-18550035D02*
X35962500Y-18492893D01*
X36076785Y-18435750D01*
X36248214Y-18435750D01*
X36362500Y-18492893D01*
X36419642Y-18607178D01*
X36419642Y-19235750D01*
X36819642Y-18435750D02*
X37276785Y-18435750D01*
X36991071Y-18035750D02*
X36991071Y-19064321D01*
X37048214Y-19178607D01*
X37162500Y-19235750D01*
X37276785Y-19235750D01*
X38133928Y-19178607D02*
X38019642Y-19235750D01*
X37791071Y-19235750D01*
X37676785Y-19178607D01*
X37619642Y-19064321D01*
X37619642Y-18607178D01*
X37676785Y-18492893D01*
X37791071Y-18435750D01*
X38019642Y-18435750D01*
X38133928Y-18492893D01*
X38191071Y-18607178D01*
X38191071Y-18721464D01*
X37619642Y-18835750D01*
X38705357Y-19235750D02*
X38705357Y-18435750D01*
X38705357Y-18664321D02*
X38762500Y-18550035D01*
X38819642Y-18492893D01*
X38933928Y-18435750D01*
X39048214Y-18435750D01*
X39276785Y-18435750D02*
X39733928Y-18435750D01*
X39448214Y-19235750D02*
X39448214Y-18207178D01*
X39505357Y-18092893D01*
X39619642Y-18035750D01*
X39733928Y-18035750D01*
X40648214Y-19235750D02*
X40648214Y-18607178D01*
X40591071Y-18492893D01*
X40476785Y-18435750D01*
X40248214Y-18435750D01*
X40133928Y-18492893D01*
X40648214Y-19178607D02*
X40533928Y-19235750D01*
X40248214Y-19235750D01*
X40133928Y-19178607D01*
X40076785Y-19064321D01*
X40076785Y-18950035D01*
X40133928Y-18835750D01*
X40248214Y-18778607D01*
X40533928Y-18778607D01*
X40648214Y-18721464D01*
X41733928Y-19178607D02*
X41619642Y-19235750D01*
X41391071Y-19235750D01*
X41276785Y-19178607D01*
X41219642Y-19121464D01*
X41162500Y-19007178D01*
X41162500Y-18664321D01*
X41219642Y-18550035D01*
X41276785Y-18492893D01*
X41391071Y-18435750D01*
X41619642Y-18435750D01*
X41733928Y-18492893D01*
X42705357Y-19178607D02*
X42591071Y-19235750D01*
X42362500Y-19235750D01*
X42248214Y-19178607D01*
X42191071Y-19064321D01*
X42191071Y-18607178D01*
X42248214Y-18492893D01*
X42362500Y-18435750D01*
X42591071Y-18435750D01*
X42705357Y-18492893D01*
X42762500Y-18607178D01*
X42762500Y-18721464D01*
X42191071Y-18835750D01*
X44076785Y-18435750D02*
X44362500Y-19235750D01*
X44648214Y-18435750D01*
X44991071Y-18035750D02*
X45733928Y-18035750D01*
X45333928Y-18492893D01*
X45505357Y-18492893D01*
X45619642Y-18550035D01*
X45676785Y-18607178D01*
X45733928Y-18721464D01*
X45733928Y-19007178D01*
X45676785Y-19121464D01*
X45619642Y-19178607D01*
X45505357Y-19235750D01*
X45162500Y-19235750D01*
X45048214Y-19178607D01*
X44991071Y-19121464D01*
X46248214Y-19121464D02*
X46305357Y-19178607D01*
X46248214Y-19235750D01*
X46191071Y-19178607D01*
X46248214Y-19121464D01*
X46248214Y-19235750D01*
X46762500Y-18150035D02*
X46819642Y-18092893D01*
X46933928Y-18035750D01*
X47219642Y-18035750D01*
X47333928Y-18092893D01*
X47391071Y-18150035D01*
X47448214Y-18264321D01*
X47448214Y-18378607D01*
X47391071Y-18550035D01*
X46705357Y-19235750D01*
X47448214Y-19235750D01*
D14*
X75278571Y-18597619D02*
X75302380Y-18621428D01*
X75326190Y-18692857D01*
X75326190Y-18740476D01*
X75302380Y-18811904D01*
X75254761Y-18859523D01*
X75207142Y-18883333D01*
X75111904Y-18907142D01*
X75040476Y-18907142D01*
X74945238Y-18883333D01*
X74897619Y-18859523D01*
X74850000Y-18811904D01*
X74826190Y-18740476D01*
X74826190Y-18692857D01*
X74850000Y-18621428D01*
X74873809Y-18597619D01*
X75326190Y-18145238D02*
X75326190Y-18383333D01*
X74826190Y-18383333D01*
X75326190Y-17978571D02*
X74826190Y-17978571D01*
X75326190Y-17692857D02*
X75040476Y-17907142D01*
X74826190Y-17692857D02*
X75111904Y-17978571D01*
X75064285Y-50119047D02*
X75064285Y-49952380D01*
X75326190Y-49880952D02*
X75326190Y-50119047D01*
X74826190Y-50119047D01*
X74826190Y-49880952D01*
X75326190Y-49666666D02*
X74826190Y-49666666D01*
X75326190Y-49380952D01*
X74826190Y-49380952D01*
D10*
X69623809Y-50552380D02*
X69719047Y-50552380D01*
X69814285Y-50600000D01*
X69861904Y-50647619D01*
X69909523Y-50742857D01*
X69957142Y-50933333D01*
X69957142Y-51171428D01*
X69909523Y-51361904D01*
X69861904Y-51457142D01*
X69814285Y-51504761D01*
X69719047Y-51552380D01*
X69623809Y-51552380D01*
X69528571Y-51504761D01*
X69480952Y-51457142D01*
X69433333Y-51361904D01*
X69385714Y-51171428D01*
X69385714Y-50933333D01*
X69433333Y-50742857D01*
X69480952Y-50647619D01*
X69528571Y-50600000D01*
X69623809Y-50552380D01*
X70242857Y-50552380D02*
X70576190Y-51552380D01*
X70909523Y-50552380D01*
D15*
X17692857Y-25442857D02*
X17621428Y-25657142D01*
X17621428Y-26014285D01*
X17692857Y-26157142D01*
X17764285Y-26228571D01*
X17907142Y-26300000D01*
X18050000Y-26300000D01*
X18192857Y-26228571D01*
X18264285Y-26157142D01*
X18335714Y-26014285D01*
X18407142Y-25728571D01*
X18478571Y-25585714D01*
X18550000Y-25514285D01*
X18692857Y-25442857D01*
X18835714Y-25442857D01*
X18978571Y-25514285D01*
X19050000Y-25585714D01*
X19121428Y-25728571D01*
X19121428Y-26085714D01*
X19050000Y-26300000D01*
X17621428Y-26942857D02*
X19121428Y-26942857D01*
X19121428Y-27514285D01*
X19050000Y-27657142D01*
X18978571Y-27728571D01*
X18835714Y-27800000D01*
X18621428Y-27800000D01*
X18478571Y-27728571D01*
X18407142Y-27657142D01*
X18335714Y-27514285D01*
X18335714Y-26942857D01*
X17621428Y-28442857D02*
X19121428Y-28442857D01*
X17621428Y-29157142D02*
X19121428Y-29157142D01*
X17621428Y-30014285D01*
X19121428Y-30014285D01*
X17621428Y-30728571D02*
X19121428Y-30728571D01*
X19121428Y-31085714D01*
X19050000Y-31300000D01*
X18907142Y-31442857D01*
X18764285Y-31514285D01*
X18478571Y-31585714D01*
X18264285Y-31585714D01*
X17978571Y-31514285D01*
X17835714Y-31442857D01*
X17692857Y-31300000D01*
X17621428Y-31085714D01*
X17621428Y-30728571D01*
X17621428Y-32942857D02*
X17621428Y-32228571D01*
X19121428Y-32228571D01*
X18407142Y-33442857D02*
X18407142Y-33942857D01*
X17621428Y-34157142D02*
X17621428Y-33442857D01*
X19121428Y-33442857D01*
X19121428Y-34157142D01*
D13*
X66263988Y-23535714D02*
X66225892Y-23573809D01*
X66111607Y-23611904D01*
X66035416Y-23611904D01*
X65921130Y-23573809D01*
X65844940Y-23497619D01*
X65806845Y-23421428D01*
X65768750Y-23269047D01*
X65768750Y-23154761D01*
X65806845Y-23002380D01*
X65844940Y-22926190D01*
X65921130Y-22850000D01*
X66035416Y-22811904D01*
X66111607Y-22811904D01*
X66225892Y-22850000D01*
X66263988Y-22888095D01*
X66759226Y-22811904D02*
X66911607Y-22811904D01*
X66987797Y-22850000D01*
X67063988Y-22926190D01*
X67102083Y-23078571D01*
X67102083Y-23345238D01*
X67063988Y-23497619D01*
X66987797Y-23573809D01*
X66911607Y-23611904D01*
X66759226Y-23611904D01*
X66683035Y-23573809D01*
X66606845Y-23497619D01*
X66568750Y-23345238D01*
X66568750Y-23078571D01*
X66606845Y-22926190D01*
X66683035Y-22850000D01*
X66759226Y-22811904D01*
X67444940Y-23611904D02*
X67444940Y-22811904D01*
X67711607Y-23383333D01*
X67978273Y-22811904D01*
X67978273Y-23611904D01*
X66633333Y-64078571D02*
X66776190Y-64126190D01*
X66823809Y-64173809D01*
X66871428Y-64269047D01*
X66871428Y-64411904D01*
X66823809Y-64507142D01*
X66776190Y-64554761D01*
X66680952Y-64602380D01*
X66300000Y-64602380D01*
X66300000Y-63602380D01*
X66633333Y-63602380D01*
X66728571Y-63650000D01*
X66776190Y-63697619D01*
X66823809Y-63792857D01*
X66823809Y-63888095D01*
X66776190Y-63983333D01*
X66728571Y-64030952D01*
X66633333Y-64078571D01*
X66300000Y-64078571D01*
X67300000Y-64602380D02*
X67300000Y-63935714D01*
X67300000Y-63602380D02*
X67252380Y-63650000D01*
X67300000Y-63697619D01*
X67347619Y-63650000D01*
X67300000Y-63602380D01*
X67300000Y-63697619D01*
X67633333Y-63935714D02*
X68014285Y-63935714D01*
X67776190Y-63602380D02*
X67776190Y-64459523D01*
X67823809Y-64554761D01*
X67919047Y-64602380D01*
X68014285Y-64602380D01*
X68300000Y-64554761D02*
X68442857Y-64602380D01*
X68680952Y-64602380D01*
X68776190Y-64554761D01*
X68823809Y-64507142D01*
X68871428Y-64411904D01*
X68871428Y-64316666D01*
X68823809Y-64221428D01*
X68776190Y-64173809D01*
X68680952Y-64126190D01*
X68490476Y-64078571D01*
X68395238Y-64030952D01*
X68347619Y-63983333D01*
X68300000Y-63888095D01*
X68300000Y-63792857D01*
X68347619Y-63697619D01*
X68395238Y-63650000D01*
X68490476Y-63602380D01*
X68728571Y-63602380D01*
X68871428Y-63650000D01*
X69680952Y-64554761D02*
X69585714Y-64602380D01*
X69395238Y-64602380D01*
X69300000Y-64554761D01*
X69252380Y-64459523D01*
X69252380Y-64078571D01*
X69300000Y-63983333D01*
X69395238Y-63935714D01*
X69585714Y-63935714D01*
X69680952Y-63983333D01*
X69728571Y-64078571D01*
X69728571Y-64173809D01*
X69252380Y-64269047D01*
X70014285Y-63935714D02*
X70395238Y-63935714D01*
X70157142Y-63602380D02*
X70157142Y-64459523D01*
X70204761Y-64554761D01*
X70300000Y-64602380D01*
X70395238Y-64602380D01*
X70585714Y-63935714D02*
X70966666Y-63935714D01*
X70728571Y-63602380D02*
X70728571Y-64459523D01*
X70776190Y-64554761D01*
X70871428Y-64602380D01*
X70966666Y-64602380D01*
X71680952Y-64554761D02*
X71585714Y-64602380D01*
X71395238Y-64602380D01*
X71300000Y-64554761D01*
X71252380Y-64459523D01*
X71252380Y-64078571D01*
X71300000Y-63983333D01*
X71395238Y-63935714D01*
X71585714Y-63935714D01*
X71680952Y-63983333D01*
X71728571Y-64078571D01*
X71728571Y-64173809D01*
X71252380Y-64269047D01*
X72157142Y-64602380D02*
X72157142Y-63935714D01*
X72157142Y-64126190D02*
X72204761Y-64030952D01*
X72252380Y-63983333D01*
X72347619Y-63935714D01*
X72442857Y-63935714D01*
D10*
X69601037Y-39252380D02*
X69696275Y-39252380D01*
X69791513Y-39300000D01*
X69839132Y-39347619D01*
X69886751Y-39442857D01*
X69934370Y-39633333D01*
X69934370Y-39871428D01*
X69886751Y-40061904D01*
X69839132Y-40157142D01*
X69791513Y-40204761D01*
X69696275Y-40252380D01*
X69601037Y-40252380D01*
X69505799Y-40204761D01*
X69458180Y-40157142D01*
X69410561Y-40061904D01*
X69362942Y-39871428D01*
X69362942Y-39633333D01*
X69410561Y-39442857D01*
X69458180Y-39347619D01*
X69505799Y-39300000D01*
X69601037Y-39252380D01*
X70220085Y-39252380D02*
X70553418Y-40252380D01*
X70886751Y-39252380D01*
D13*
X67120952Y-54421464D02*
X67263809Y-54469083D01*
X67311428Y-54516702D01*
X67359047Y-54611940D01*
X67359047Y-54754797D01*
X67311428Y-54850035D01*
X67263809Y-54897654D01*
X67168571Y-54945273D01*
X66787619Y-54945273D01*
X66787619Y-53945273D01*
X67120952Y-53945273D01*
X67216190Y-53992893D01*
X67263809Y-54040512D01*
X67311428Y-54135750D01*
X67311428Y-54230988D01*
X67263809Y-54326226D01*
X67216190Y-54373845D01*
X67120952Y-54421464D01*
X66787619Y-54421464D01*
X67787619Y-54945273D02*
X67787619Y-54278607D01*
X67787619Y-53945273D02*
X67740000Y-53992893D01*
X67787619Y-54040512D01*
X67835238Y-53992893D01*
X67787619Y-53945273D01*
X67787619Y-54040512D01*
X68120952Y-54278607D02*
X68501904Y-54278607D01*
X68263809Y-53945273D02*
X68263809Y-54802416D01*
X68311428Y-54897654D01*
X68406666Y-54945273D01*
X68501904Y-54945273D01*
X68740000Y-53945273D02*
X69406666Y-53945273D01*
X68740000Y-54945273D01*
X69406666Y-54945273D01*
X70168571Y-54897654D02*
X70073333Y-54945273D01*
X69882857Y-54945273D01*
X69787619Y-54897654D01*
X69740000Y-54802416D01*
X69740000Y-54421464D01*
X69787619Y-54326226D01*
X69882857Y-54278607D01*
X70073333Y-54278607D01*
X70168571Y-54326226D01*
X70216190Y-54421464D01*
X70216190Y-54516702D01*
X69740000Y-54611940D01*
X70644761Y-54945273D02*
X70644761Y-54278607D01*
X70644761Y-54469083D02*
X70692380Y-54373845D01*
X70740000Y-54326226D01*
X70835238Y-54278607D01*
X70930476Y-54278607D01*
X71406666Y-54945273D02*
X71311428Y-54897654D01*
X71263809Y-54850035D01*
X71216190Y-54754797D01*
X71216190Y-54469083D01*
X71263809Y-54373845D01*
X71311428Y-54326226D01*
X71406666Y-54278607D01*
X71549523Y-54278607D01*
X71644761Y-54326226D01*
X71692380Y-54373845D01*
X71740000Y-54469083D01*
X71740000Y-54754797D01*
X71692380Y-54850035D01*
X71644761Y-54897654D01*
X71549523Y-54945273D01*
X71406666Y-54945273D01*
D14*
X75064285Y-36819047D02*
X75064285Y-36652380D01*
X75326190Y-36580952D02*
X75326190Y-36819047D01*
X74826190Y-36819047D01*
X74826190Y-36580952D01*
X75326190Y-36366666D02*
X74826190Y-36366666D01*
X75326190Y-36080952D01*
X74826190Y-36080952D01*
X75326190Y-47700000D02*
X74826190Y-47700000D01*
X74826190Y-47580952D01*
X74850000Y-47509523D01*
X74897619Y-47461904D01*
X74945238Y-47438095D01*
X75040476Y-47414285D01*
X75111904Y-47414285D01*
X75207142Y-47438095D01*
X75254761Y-47461904D01*
X75302380Y-47509523D01*
X75326190Y-47580952D01*
X75326190Y-47700000D01*
X75326190Y-47200000D02*
X74826190Y-47200000D01*
X75326190Y-46676190D02*
X75088095Y-46842857D01*
X75326190Y-46961904D02*
X74826190Y-46961904D01*
X74826190Y-46771428D01*
X74850000Y-46723809D01*
X74873809Y-46700000D01*
X74921428Y-46676190D01*
X74992857Y-46676190D01*
X75040476Y-46700000D01*
X75064285Y-46723809D01*
X75088095Y-46771428D01*
X75088095Y-46961904D01*
D17*
X62754523Y-69770714D02*
X62754523Y-68924047D01*
X64024523Y-69770714D01*
X64024523Y-68924047D01*
X63359285Y-67472619D02*
X63359285Y-67049285D01*
X64024523Y-66867857D02*
X64024523Y-67472619D01*
X62754523Y-67472619D01*
X62754523Y-66867857D01*
X64024523Y-66323571D02*
X62754523Y-66323571D01*
X64024523Y-65597857D01*
X62754523Y-65597857D01*
X64024523Y-64993095D02*
X62754523Y-64993095D01*
X62754523Y-64690714D01*
X62815000Y-64509285D01*
X62935952Y-64388333D01*
X63056904Y-64327857D01*
X63298809Y-64267380D01*
X63480238Y-64267380D01*
X63722142Y-64327857D01*
X63843095Y-64388333D01*
X63964047Y-64509285D01*
X64024523Y-64690714D01*
X64024523Y-64993095D01*
X63964047Y-63783571D02*
X64024523Y-63602142D01*
X64024523Y-63299761D01*
X63964047Y-63178809D01*
X63903571Y-63118333D01*
X63782619Y-63057857D01*
X63661666Y-63057857D01*
X63540714Y-63118333D01*
X63480238Y-63178809D01*
X63419761Y-63299761D01*
X63359285Y-63541666D01*
X63298809Y-63662619D01*
X63238333Y-63723095D01*
X63117380Y-63783571D01*
X62996428Y-63783571D01*
X62875476Y-63723095D01*
X62815000Y-63662619D01*
X62754523Y-63541666D01*
X62754523Y-63239285D01*
X62815000Y-63057857D01*
X62754523Y-62695000D02*
X62754523Y-61969285D01*
X64024523Y-62332142D02*
X62754523Y-62332142D01*
X62754523Y-61304047D02*
X62754523Y-61062142D01*
X62815000Y-60941190D01*
X62935952Y-60820238D01*
X63177857Y-60759761D01*
X63601190Y-60759761D01*
X63843095Y-60820238D01*
X63964047Y-60941190D01*
X64024523Y-61062142D01*
X64024523Y-61304047D01*
X63964047Y-61425000D01*
X63843095Y-61545952D01*
X63601190Y-61606428D01*
X63177857Y-61606428D01*
X62935952Y-61545952D01*
X62815000Y-61425000D01*
X62754523Y-61304047D01*
X64024523Y-60215476D02*
X62754523Y-60215476D01*
X62754523Y-59731666D01*
X62815000Y-59610714D01*
X62875476Y-59550238D01*
X62996428Y-59489761D01*
X63177857Y-59489761D01*
X63298809Y-59550238D01*
X63359285Y-59610714D01*
X63419761Y-59731666D01*
X63419761Y-60215476D01*
D14*
X75278571Y-31647619D02*
X75302380Y-31671428D01*
X75326190Y-31742857D01*
X75326190Y-31790476D01*
X75302380Y-31861904D01*
X75254761Y-31909523D01*
X75207142Y-31933333D01*
X75111904Y-31957142D01*
X75040476Y-31957142D01*
X74945238Y-31933333D01*
X74897619Y-31909523D01*
X74850000Y-31861904D01*
X74826190Y-31790476D01*
X74826190Y-31742857D01*
X74850000Y-31671428D01*
X74873809Y-31647619D01*
X75326190Y-31195238D02*
X75326190Y-31433333D01*
X74826190Y-31433333D01*
X75326190Y-31028571D02*
X74826190Y-31028571D01*
X75326190Y-30742857D02*
X75040476Y-30957142D01*
X74826190Y-30742857D02*
X75111904Y-31028571D01*
D15*
X31371428Y-50007178D02*
X31300000Y-49950035D01*
X31228571Y-49835750D01*
X31228571Y-49550035D01*
X31300000Y-49435750D01*
X31371428Y-49378607D01*
X31514285Y-49321464D01*
X31657142Y-49321464D01*
X31871428Y-49378607D01*
X32728571Y-50064321D01*
X32728571Y-49321464D01*
X31728571Y-48292893D02*
X32728571Y-48292893D01*
X31157142Y-48578607D02*
X32228571Y-48864321D01*
X32228571Y-48121464D01*
X31228571Y-47835750D02*
X32728571Y-47435750D01*
X31228571Y-47035750D01*
X31157142Y-45778607D02*
X33085714Y-46807178D01*
X31228571Y-44807178D02*
X31228571Y-45378607D01*
X31942857Y-45435750D01*
X31871428Y-45378607D01*
X31800000Y-45264321D01*
X31800000Y-44978607D01*
X31871428Y-44864321D01*
X31942857Y-44807178D01*
X32085714Y-44750035D01*
X32442857Y-44750035D01*
X32585714Y-44807178D01*
X32657142Y-44864321D01*
X32728571Y-44978607D01*
X32728571Y-45264321D01*
X32657142Y-45378607D01*
X32585714Y-45435750D01*
X32300000Y-44292893D02*
X32300000Y-43721464D01*
X32728571Y-44407178D02*
X31228571Y-44007178D01*
X32728571Y-43607178D01*
X32728571Y-42292893D02*
X31228571Y-42292893D01*
X32728571Y-41721464D02*
X31228571Y-41721464D01*
X32728571Y-41035750D01*
X31228571Y-41035750D01*
D17*
X75355714Y-71278607D02*
X76270000Y-71278607D01*
X75812857Y-71735750D02*
X75812857Y-70821464D01*
X76784285Y-70650035D02*
X76841428Y-70592893D01*
X76955714Y-70535750D01*
X77241428Y-70535750D01*
X77355714Y-70592893D01*
X77412857Y-70650035D01*
X77470000Y-70764321D01*
X77470000Y-70878607D01*
X77412857Y-71050035D01*
X76727142Y-71735750D01*
X77470000Y-71735750D01*
X78498571Y-70935750D02*
X78498571Y-71735750D01*
X78212857Y-70478607D02*
X77927142Y-71335750D01*
X78670000Y-71335750D01*
X78955714Y-70535750D02*
X79355714Y-71735750D01*
X79755714Y-70535750D01*
D11*
X42716666Y-44683333D02*
X42883333Y-44683333D01*
X42816666Y-44850000D02*
X42883333Y-44683333D01*
X42816666Y-44516666D01*
X43016666Y-44783333D02*
X42883333Y-44683333D01*
X43016666Y-44583333D01*
X43416666Y-43716666D02*
X42716666Y-43716666D01*
X42716666Y-43450000D01*
X42750000Y-43383333D01*
X42783333Y-43350000D01*
X42850000Y-43316666D01*
X42950000Y-43316666D01*
X43016666Y-43350000D01*
X43050000Y-43383333D01*
X43083333Y-43450000D01*
X43083333Y-43716666D01*
X43416666Y-42650000D02*
X43416666Y-43050000D01*
X43416666Y-42850000D02*
X42716666Y-42850000D01*
X42816666Y-42916666D01*
X42883333Y-42983333D01*
X42916666Y-43050000D01*
X42716666Y-42416666D02*
X42716666Y-41950000D01*
X43416666Y-42250000D01*
D14*
X75326190Y-34400000D02*
X74826190Y-34400000D01*
X74826190Y-34280952D01*
X74850000Y-34209523D01*
X74897619Y-34161904D01*
X74945238Y-34138095D01*
X75040476Y-34114285D01*
X75111904Y-34114285D01*
X75207142Y-34138095D01*
X75254761Y-34161904D01*
X75302380Y-34209523D01*
X75326190Y-34280952D01*
X75326190Y-34400000D01*
X75326190Y-33900000D02*
X74826190Y-33900000D01*
X75326190Y-33376190D02*
X75088095Y-33542857D01*
X75326190Y-33661904D02*
X74826190Y-33661904D01*
X74826190Y-33471428D01*
X74850000Y-33423809D01*
X74873809Y-33400000D01*
X74921428Y-33376190D01*
X74992857Y-33376190D01*
X75040476Y-33400000D01*
X75064285Y-33423809D01*
X75088095Y-33471428D01*
X75088095Y-33661904D01*
D10*
X75197619Y-60585714D02*
X75150000Y-60538095D01*
X75102380Y-60442857D01*
X75102380Y-60204761D01*
X75150000Y-60109523D01*
X75197619Y-60061904D01*
X75292857Y-60014285D01*
X75388095Y-60014285D01*
X75530952Y-60061904D01*
X76102380Y-60633333D01*
X76102380Y-60014285D01*
D17*
X74774523Y-63981702D02*
X74169761Y-64405035D01*
X74774523Y-64707416D02*
X73504523Y-64707416D01*
X73504523Y-64223607D01*
X73565000Y-64102654D01*
X73625476Y-64042178D01*
X73746428Y-63981702D01*
X73927857Y-63981702D01*
X74048809Y-64042178D01*
X74109285Y-64102654D01*
X74169761Y-64223607D01*
X74169761Y-64707416D01*
X74109285Y-63437416D02*
X74109285Y-63014083D01*
X74774523Y-62832654D02*
X74774523Y-63437416D01*
X73504523Y-63437416D01*
X73504523Y-62832654D01*
X74774523Y-61683607D02*
X74774523Y-62288369D01*
X73504523Y-62288369D01*
X74411666Y-61320750D02*
X74411666Y-60715988D01*
X74774523Y-61441702D02*
X73504523Y-61018369D01*
X74774523Y-60595035D01*
X74169761Y-59929797D02*
X74774523Y-59929797D01*
X73504523Y-60353131D02*
X74169761Y-59929797D01*
X73504523Y-59506464D01*
X74714047Y-59143607D02*
X74774523Y-58962178D01*
X74774523Y-58659797D01*
X74714047Y-58538845D01*
X74653571Y-58478369D01*
X74532619Y-58417893D01*
X74411666Y-58417893D01*
X74290714Y-58478369D01*
X74230238Y-58538845D01*
X74169761Y-58659797D01*
X74109285Y-58901702D01*
X74048809Y-59022654D01*
X73988333Y-59083131D01*
X73867380Y-59143607D01*
X73746428Y-59143607D01*
X73625476Y-59083131D01*
X73565000Y-59022654D01*
X73504523Y-58901702D01*
X73504523Y-58599321D01*
X73565000Y-58417893D01*
D14*
X75278571Y-44947619D02*
X75302380Y-44971428D01*
X75326190Y-45042857D01*
X75326190Y-45090476D01*
X75302380Y-45161904D01*
X75254761Y-45209523D01*
X75207142Y-45233333D01*
X75111904Y-45257142D01*
X75040476Y-45257142D01*
X74945238Y-45233333D01*
X74897619Y-45209523D01*
X74850000Y-45161904D01*
X74826190Y-45090476D01*
X74826190Y-45042857D01*
X74850000Y-44971428D01*
X74873809Y-44947619D01*
X75326190Y-44495238D02*
X75326190Y-44733333D01*
X74826190Y-44733333D01*
X75326190Y-44328571D02*
X74826190Y-44328571D01*
X75326190Y-44042857D02*
X75040476Y-44257142D01*
X74826190Y-44042857D02*
X75111904Y-44328571D01*
D10*
X76102380Y-57514285D02*
X76102380Y-58085714D01*
X76102380Y-57800000D02*
X75102380Y-57800000D01*
X75245238Y-57895238D01*
X75340476Y-57990476D01*
X75388095Y-58085714D01*
X75102380Y-68090476D02*
X75102380Y-68566666D01*
X75578571Y-68614285D01*
X75530952Y-68566666D01*
X75483333Y-68471428D01*
X75483333Y-68233333D01*
X75530952Y-68138095D01*
X75578571Y-68090476D01*
X75673809Y-68042857D01*
X75911904Y-68042857D01*
X76007142Y-68090476D01*
X76054761Y-68138095D01*
X76102380Y-68233333D01*
X76102380Y-68471428D01*
X76054761Y-68566666D01*
X76007142Y-68614285D01*
X75102380Y-67757142D02*
X76102380Y-67423809D01*
X75102380Y-67090476D01*
D14*
X75064285Y-23769047D02*
X75064285Y-23602380D01*
X75326190Y-23530952D02*
X75326190Y-23769047D01*
X74826190Y-23769047D01*
X74826190Y-23530952D01*
X75326190Y-23316666D02*
X74826190Y-23316666D01*
X75326190Y-23030952D01*
X74826190Y-23030952D01*
X14918666Y-25453166D02*
X14918666Y-24753166D01*
X15185333Y-24753166D01*
X15252000Y-24786500D01*
X15285333Y-24819833D01*
X15318666Y-24886500D01*
X15318666Y-24986500D01*
X15285333Y-25053166D01*
X15252000Y-25086500D01*
X15185333Y-25119833D01*
X14918666Y-25119833D01*
X15552000Y-24753166D02*
X15718666Y-25453166D01*
X15852000Y-24953166D01*
X15985333Y-25453166D01*
X16152000Y-24753166D01*
X16418666Y-25453166D02*
X16418666Y-24753166D01*
X16652000Y-25253166D01*
X16885333Y-24753166D01*
X16885333Y-25453166D01*
X15252000Y-25880166D02*
X14918666Y-25880166D01*
X14885333Y-26213500D01*
X14918666Y-26180166D01*
X14985333Y-26146833D01*
X15152000Y-26146833D01*
X15218666Y-26180166D01*
X15252000Y-26213500D01*
X15285333Y-26280166D01*
X15285333Y-26446833D01*
X15252000Y-26513500D01*
X15218666Y-26546833D01*
X15152000Y-26580166D01*
X14985333Y-26580166D01*
X14918666Y-26546833D01*
X14885333Y-26513500D01*
X15485333Y-25880166D02*
X15718666Y-26580166D01*
X15952000Y-25880166D01*
D10*
X75435714Y-65209523D02*
X76102380Y-65209523D01*
X75054761Y-65447619D02*
X75769047Y-65685714D01*
X75769047Y-65066666D01*
X22264166Y-20378607D02*
X22264166Y-21188131D01*
X22216547Y-21283369D01*
X22168928Y-21330988D01*
X22073690Y-21378607D01*
X21930833Y-21378607D01*
X21835595Y-21330988D01*
X22264166Y-20997654D02*
X22168928Y-21045273D01*
X21978452Y-21045273D01*
X21883214Y-20997654D01*
X21835595Y-20950035D01*
X21787976Y-20854797D01*
X21787976Y-20569083D01*
X21835595Y-20473845D01*
X21883214Y-20426226D01*
X21978452Y-20378607D01*
X22168928Y-20378607D01*
X22264166Y-20426226D01*
X22740357Y-21045273D02*
X22740357Y-20378607D01*
X22740357Y-20045273D02*
X22692738Y-20092893D01*
X22740357Y-20140512D01*
X22787976Y-20092893D01*
X22740357Y-20045273D01*
X22740357Y-20140512D01*
X23073690Y-20378607D02*
X23454642Y-20378607D01*
X23216547Y-20045273D02*
X23216547Y-20902416D01*
X23264166Y-20997654D01*
X23359404Y-21045273D01*
X23454642Y-21045273D01*
X23787976Y-21045273D02*
X23787976Y-20045273D01*
X24216547Y-21045273D02*
X24216547Y-20521464D01*
X24168928Y-20426226D01*
X24073690Y-20378607D01*
X23930833Y-20378607D01*
X23835595Y-20426226D01*
X23787976Y-20473845D01*
X25121309Y-20378607D02*
X25121309Y-21045273D01*
X24692738Y-20378607D02*
X24692738Y-20902416D01*
X24740357Y-20997654D01*
X24835595Y-21045273D01*
X24978452Y-21045273D01*
X25073690Y-20997654D01*
X25121309Y-20950035D01*
X25597500Y-21045273D02*
X25597500Y-20045273D01*
X25597500Y-20426226D02*
X25692738Y-20378607D01*
X25883214Y-20378607D01*
X25978452Y-20426226D01*
X26026071Y-20473845D01*
X26073690Y-20569083D01*
X26073690Y-20854797D01*
X26026071Y-20950035D01*
X25978452Y-20997654D01*
X25883214Y-21045273D01*
X25692738Y-21045273D01*
X25597500Y-20997654D01*
X26502261Y-20950035D02*
X26549880Y-20997654D01*
X26502261Y-21045273D01*
X26454642Y-20997654D01*
X26502261Y-20950035D01*
X26502261Y-21045273D01*
X27407023Y-20997654D02*
X27311785Y-21045273D01*
X27121309Y-21045273D01*
X27026071Y-20997654D01*
X26978452Y-20950035D01*
X26930833Y-20854797D01*
X26930833Y-20569083D01*
X26978452Y-20473845D01*
X27026071Y-20426226D01*
X27121309Y-20378607D01*
X27311785Y-20378607D01*
X27407023Y-20426226D01*
X27978452Y-21045273D02*
X27883214Y-20997654D01*
X27835595Y-20950035D01*
X27787976Y-20854797D01*
X27787976Y-20569083D01*
X27835595Y-20473845D01*
X27883214Y-20426226D01*
X27978452Y-20378607D01*
X28121309Y-20378607D01*
X28216547Y-20426226D01*
X28264166Y-20473845D01*
X28311785Y-20569083D01*
X28311785Y-20854797D01*
X28264166Y-20950035D01*
X28216547Y-20997654D01*
X28121309Y-21045273D01*
X27978452Y-21045273D01*
X28740357Y-21045273D02*
X28740357Y-20378607D01*
X28740357Y-20473845D02*
X28787976Y-20426226D01*
X28883214Y-20378607D01*
X29026071Y-20378607D01*
X29121309Y-20426226D01*
X29168928Y-20521464D01*
X29168928Y-21045273D01*
X29168928Y-20521464D02*
X29216547Y-20426226D01*
X29311785Y-20378607D01*
X29454642Y-20378607D01*
X29549880Y-20426226D01*
X29597500Y-20521464D01*
X29597500Y-21045273D01*
X30787976Y-19997654D02*
X29930833Y-21283369D01*
X31549880Y-20378607D02*
X31549880Y-21188131D01*
X31502261Y-21283369D01*
X31454642Y-21330988D01*
X31359404Y-21378607D01*
X31216547Y-21378607D01*
X31121309Y-21330988D01*
X31549880Y-20997654D02*
X31454642Y-21045273D01*
X31264166Y-21045273D01*
X31168928Y-20997654D01*
X31121309Y-20950035D01*
X31073690Y-20854797D01*
X31073690Y-20569083D01*
X31121309Y-20473845D01*
X31168928Y-20426226D01*
X31264166Y-20378607D01*
X31454642Y-20378607D01*
X31549880Y-20426226D01*
X32026071Y-21045273D02*
X32026071Y-20378607D01*
X32026071Y-20569083D02*
X32073690Y-20473845D01*
X32121309Y-20426226D01*
X32216547Y-20378607D01*
X32311785Y-20378607D01*
X33073690Y-20378607D02*
X33073690Y-21045273D01*
X32645119Y-20378607D02*
X32645119Y-20902416D01*
X32692738Y-20997654D01*
X32787976Y-21045273D01*
X32930833Y-21045273D01*
X33026071Y-20997654D01*
X33073690Y-20950035D01*
X33454642Y-20378607D02*
X33692738Y-21045273D01*
X33930833Y-20378607D01*
X34311785Y-21045273D02*
X34311785Y-20378607D01*
X34311785Y-20045273D02*
X34264166Y-20092893D01*
X34311785Y-20140512D01*
X34359404Y-20092893D01*
X34311785Y-20045273D01*
X34311785Y-20140512D01*
X34787976Y-20378607D02*
X34787976Y-21045273D01*
X34787976Y-20473845D02*
X34835595Y-20426226D01*
X34930833Y-20378607D01*
X35073690Y-20378607D01*
X35168928Y-20426226D01*
X35216547Y-20521464D01*
X35216547Y-21045273D01*
X36407023Y-19997654D02*
X35549880Y-21283369D01*
X36692738Y-20997654D02*
X36787976Y-21045273D01*
X36978452Y-21045273D01*
X37073690Y-20997654D01*
X37121309Y-20902416D01*
X37121309Y-20854797D01*
X37073690Y-20759559D01*
X36978452Y-20711940D01*
X36835595Y-20711940D01*
X36740357Y-20664321D01*
X36692738Y-20569083D01*
X36692738Y-20521464D01*
X36740357Y-20426226D01*
X36835595Y-20378607D01*
X36978452Y-20378607D01*
X37073690Y-20426226D01*
X37549880Y-21045273D02*
X37549880Y-20045273D01*
X37978452Y-21045273D02*
X37978452Y-20521464D01*
X37930833Y-20426226D01*
X37835595Y-20378607D01*
X37692738Y-20378607D01*
X37597500Y-20426226D01*
X37549880Y-20473845D01*
X38883214Y-21045273D02*
X38883214Y-20521464D01*
X38835595Y-20426226D01*
X38740357Y-20378607D01*
X38549880Y-20378607D01*
X38454642Y-20426226D01*
X38883214Y-20997654D02*
X38787976Y-21045273D01*
X38549880Y-21045273D01*
X38454642Y-20997654D01*
X38407023Y-20902416D01*
X38407023Y-20807178D01*
X38454642Y-20711940D01*
X38549880Y-20664321D01*
X38787976Y-20664321D01*
X38883214Y-20616702D01*
X39359404Y-20378607D02*
X39359404Y-21378607D01*
X39359404Y-20426226D02*
X39454642Y-20378607D01*
X39645119Y-20378607D01*
X39740357Y-20426226D01*
X39787976Y-20473845D01*
X39835595Y-20569083D01*
X39835595Y-20854797D01*
X39787976Y-20950035D01*
X39740357Y-20997654D01*
X39645119Y-21045273D01*
X39454642Y-21045273D01*
X39359404Y-20997654D01*
X40645119Y-20997654D02*
X40549880Y-21045273D01*
X40359404Y-21045273D01*
X40264166Y-20997654D01*
X40216547Y-20902416D01*
X40216547Y-20521464D01*
X40264166Y-20426226D01*
X40359404Y-20378607D01*
X40549880Y-20378607D01*
X40645119Y-20426226D01*
X40692738Y-20521464D01*
X40692738Y-20616702D01*
X40216547Y-20711940D01*
X41264166Y-21045273D02*
X41168928Y-20997654D01*
X41121309Y-20950035D01*
X41073690Y-20854797D01*
X41073690Y-20569083D01*
X41121309Y-20473845D01*
X41168928Y-20426226D01*
X41264166Y-20378607D01*
X41407023Y-20378607D01*
X41502261Y-20426226D01*
X41549880Y-20473845D01*
X41597500Y-20569083D01*
X41597500Y-20854797D01*
X41549880Y-20950035D01*
X41502261Y-20997654D01*
X41407023Y-21045273D01*
X41264166Y-21045273D01*
X42026071Y-21045273D02*
X42026071Y-20045273D01*
X42121309Y-20664321D02*
X42407023Y-21045273D01*
X42407023Y-20378607D02*
X42026071Y-20759559D01*
X42978452Y-21045273D02*
X42883214Y-20997654D01*
X42835595Y-20950035D01*
X42787976Y-20854797D01*
X42787976Y-20569083D01*
X42835595Y-20473845D01*
X42883214Y-20426226D01*
X42978452Y-20378607D01*
X43121309Y-20378607D01*
X43216547Y-20426226D01*
X43264166Y-20473845D01*
X43311785Y-20569083D01*
X43311785Y-20854797D01*
X43264166Y-20950035D01*
X43216547Y-20997654D01*
X43121309Y-21045273D01*
X42978452Y-21045273D01*
X43740357Y-20664321D02*
X44502261Y-20664321D01*
X45121309Y-21045273D02*
X45026071Y-20997654D01*
X44978452Y-20902416D01*
X44978452Y-20045273D01*
X45502261Y-20378607D02*
X45502261Y-21378607D01*
X45502261Y-20426226D02*
X45597499Y-20378607D01*
X45787976Y-20378607D01*
X45883214Y-20426226D01*
X45930833Y-20473845D01*
X45978452Y-20569083D01*
X45978452Y-20854797D01*
X45930833Y-20950035D01*
X45883214Y-20997654D01*
X45787976Y-21045273D01*
X45597499Y-21045273D01*
X45502261Y-20997654D01*
X46264166Y-20378607D02*
X46645119Y-20378607D01*
X46407023Y-20045273D02*
X46407023Y-20902416D01*
X46454642Y-20997654D01*
X46549880Y-21045273D01*
X46645119Y-21045273D01*
D17*
X77027142Y-82992893D02*
X76912857Y-82935750D01*
X76741428Y-82935750D01*
X76570000Y-82992893D01*
X76455714Y-83107178D01*
X76398571Y-83221464D01*
X76341428Y-83450035D01*
X76341428Y-83621464D01*
X76398571Y-83850035D01*
X76455714Y-83964321D01*
X76570000Y-84078607D01*
X76741428Y-84135750D01*
X76855714Y-84135750D01*
X77027142Y-84078607D01*
X77084285Y-84021464D01*
X77084285Y-83621464D01*
X76855714Y-83621464D01*
X77598571Y-84135750D02*
X77598571Y-82935750D01*
X78284285Y-84135750D01*
X78284285Y-82935750D01*
X78855714Y-84135750D02*
X78855714Y-82935750D01*
X79141428Y-82935750D01*
X79312857Y-82992893D01*
X79427142Y-83107178D01*
X79484285Y-83221464D01*
X79541428Y-83450035D01*
X79541428Y-83621464D01*
X79484285Y-83850035D01*
X79427142Y-83964321D01*
X79312857Y-84078607D01*
X79141428Y-84135750D01*
X78855714Y-84135750D01*
D14*
X75278571Y-29242857D02*
X75302380Y-29266666D01*
X75326190Y-29338095D01*
X75326190Y-29385714D01*
X75302380Y-29457142D01*
X75254761Y-29504761D01*
X75207142Y-29528571D01*
X75111904Y-29552380D01*
X75040476Y-29552380D01*
X74945238Y-29528571D01*
X74897619Y-29504761D01*
X74850000Y-29457142D01*
X74826190Y-29385714D01*
X74826190Y-29338095D01*
X74850000Y-29266666D01*
X74873809Y-29242857D01*
X74826190Y-28933333D02*
X74826190Y-28838095D01*
X74850000Y-28790476D01*
X74897619Y-28742857D01*
X74992857Y-28719047D01*
X75159523Y-28719047D01*
X75254761Y-28742857D01*
X75302380Y-28790476D01*
X75326190Y-28838095D01*
X75326190Y-28933333D01*
X75302380Y-28980952D01*
X75254761Y-29028571D01*
X75159523Y-29052380D01*
X74992857Y-29052380D01*
X74897619Y-29028571D01*
X74850000Y-28980952D01*
X74826190Y-28933333D01*
X75326190Y-28504761D02*
X74826190Y-28504761D01*
X75183333Y-28338095D01*
X74826190Y-28171428D01*
X75326190Y-28171428D01*
X15783333Y-31316666D02*
X16116666Y-31083333D01*
X15783333Y-30916666D02*
X16483333Y-30916666D01*
X16483333Y-31183333D01*
X16450000Y-31250000D01*
X16416666Y-31283333D01*
X16350000Y-31316666D01*
X16250000Y-31316666D01*
X16183333Y-31283333D01*
X16150000Y-31250000D01*
X16116666Y-31183333D01*
X16116666Y-30916666D01*
X16150000Y-31616666D02*
X16150000Y-31850000D01*
X15783333Y-31950000D02*
X15783333Y-31616666D01*
X16483333Y-31616666D01*
X16483333Y-31950000D01*
X15783333Y-32583333D02*
X15783333Y-32250000D01*
X16483333Y-32250000D01*
X15983333Y-32783333D02*
X15983333Y-33116666D01*
X15783333Y-32716666D02*
X16483333Y-32950000D01*
X15783333Y-33183333D01*
X16116666Y-33550000D02*
X15783333Y-33550000D01*
X16483333Y-33316666D02*
X16116666Y-33550000D01*
X16483333Y-33783333D01*
%TO.C,C5*%
X36433333Y-75790000D02*
X36400000Y-75823333D01*
X36300000Y-75856666D01*
X36233333Y-75856666D01*
X36133333Y-75823333D01*
X36066666Y-75756666D01*
X36033333Y-75690000D01*
X36000000Y-75556666D01*
X36000000Y-75456666D01*
X36033333Y-75323333D01*
X36066666Y-75256666D01*
X36133333Y-75190000D01*
X36233333Y-75156666D01*
X36300000Y-75156666D01*
X36400000Y-75190000D01*
X36433333Y-75223333D01*
X37066666Y-75156666D02*
X36733333Y-75156666D01*
X36700000Y-75490000D01*
X36733333Y-75456666D01*
X36800000Y-75423333D01*
X36966666Y-75423333D01*
X37033333Y-75456666D01*
X37066666Y-75490000D01*
X37100000Y-75556666D01*
X37100000Y-75723333D01*
X37066666Y-75790000D01*
X37033333Y-75823333D01*
X36966666Y-75856666D01*
X36800000Y-75856666D01*
X36733333Y-75823333D01*
X36700000Y-75790000D01*
%TO.C,JP6*%
X47216666Y-41383333D02*
X47716666Y-41383333D01*
X47816666Y-41416666D01*
X47883333Y-41483333D01*
X47916666Y-41583333D01*
X47916666Y-41650000D01*
X47916666Y-41050000D02*
X47216666Y-41050000D01*
X47216666Y-40783333D01*
X47250000Y-40716666D01*
X47283333Y-40683333D01*
X47350000Y-40650000D01*
X47450000Y-40650000D01*
X47516666Y-40683333D01*
X47550000Y-40716666D01*
X47583333Y-40783333D01*
X47583333Y-41050000D01*
X47216666Y-40050000D02*
X47216666Y-40183333D01*
X47250000Y-40250000D01*
X47283333Y-40283333D01*
X47383333Y-40350000D01*
X47516666Y-40383333D01*
X47783333Y-40383333D01*
X47850000Y-40350000D01*
X47883333Y-40316666D01*
X47916666Y-40250000D01*
X47916666Y-40116666D01*
X47883333Y-40050000D01*
X47850000Y-40016666D01*
X47783333Y-39983333D01*
X47616666Y-39983333D01*
X47550000Y-40016666D01*
X47516666Y-40050000D01*
X47483333Y-40116666D01*
X47483333Y-40250000D01*
X47516666Y-40316666D01*
X47550000Y-40350000D01*
X47616666Y-40383333D01*
%TO.C,R4*%
X23358333Y-59516666D02*
X23125000Y-59183333D01*
X22958333Y-59516666D02*
X22958333Y-58816666D01*
X23225000Y-58816666D01*
X23291666Y-58850000D01*
X23325000Y-58883333D01*
X23358333Y-58950000D01*
X23358333Y-59050000D01*
X23325000Y-59116666D01*
X23291666Y-59150000D01*
X23225000Y-59183333D01*
X22958333Y-59183333D01*
X23958333Y-59050000D02*
X23958333Y-59516666D01*
X23791666Y-58783333D02*
X23625000Y-59283333D01*
X24058333Y-59283333D01*
%TO.C,J12*%
X57433333Y-35416666D02*
X57433333Y-35916666D01*
X57400000Y-36016666D01*
X57333333Y-36083333D01*
X57233333Y-36116666D01*
X57166666Y-36116666D01*
X58133333Y-36116666D02*
X57733333Y-36116666D01*
X57933333Y-36116666D02*
X57933333Y-35416666D01*
X57866666Y-35516666D01*
X57800000Y-35583333D01*
X57733333Y-35616666D01*
X58400000Y-35483333D02*
X58433333Y-35450000D01*
X58500000Y-35416666D01*
X58666666Y-35416666D01*
X58733333Y-35450000D01*
X58766666Y-35483333D01*
X58800000Y-35550000D01*
X58800000Y-35616666D01*
X58766666Y-35716666D01*
X58366666Y-36116666D01*
X58800000Y-36116666D01*
%TO.C,JP3*%
X47016666Y-53183333D02*
X47516666Y-53183333D01*
X47616666Y-53216666D01*
X47683333Y-53283333D01*
X47716666Y-53383333D01*
X47716666Y-53450000D01*
X47716666Y-52850000D02*
X47016666Y-52850000D01*
X47016666Y-52583333D01*
X47050000Y-52516666D01*
X47083333Y-52483333D01*
X47150000Y-52450000D01*
X47250000Y-52450000D01*
X47316666Y-52483333D01*
X47350000Y-52516666D01*
X47383333Y-52583333D01*
X47383333Y-52850000D01*
X47016666Y-52216666D02*
X47016666Y-51783333D01*
X47283333Y-52016666D01*
X47283333Y-51916666D01*
X47316666Y-51850000D01*
X47350000Y-51816666D01*
X47416666Y-51783333D01*
X47583333Y-51783333D01*
X47650000Y-51816666D01*
X47683333Y-51850000D01*
X47716666Y-51916666D01*
X47716666Y-52116666D01*
X47683333Y-52183333D01*
X47650000Y-52216666D01*
%TO.C,C2*%
X51383333Y-73550000D02*
X51350000Y-73583333D01*
X51250000Y-73616666D01*
X51183333Y-73616666D01*
X51083333Y-73583333D01*
X51016666Y-73516666D01*
X50983333Y-73450000D01*
X50950000Y-73316666D01*
X50950000Y-73216666D01*
X50983333Y-73083333D01*
X51016666Y-73016666D01*
X51083333Y-72950000D01*
X51183333Y-72916666D01*
X51250000Y-72916666D01*
X51350000Y-72950000D01*
X51383333Y-72983333D01*
X51650000Y-72983333D02*
X51683333Y-72950000D01*
X51750000Y-72916666D01*
X51916666Y-72916666D01*
X51983333Y-72950000D01*
X52016666Y-72983333D01*
X52050000Y-73050000D01*
X52050000Y-73116666D01*
X52016666Y-73216666D01*
X51616666Y-73616666D01*
X52050000Y-73616666D01*
%TO.C,R5*%
X65466666Y-80359559D02*
X65133333Y-80592893D01*
X65466666Y-80759559D02*
X64766666Y-80759559D01*
X64766666Y-80492893D01*
X64800000Y-80426226D01*
X64833333Y-80392893D01*
X64900000Y-80359559D01*
X65000000Y-80359559D01*
X65066666Y-80392893D01*
X65100000Y-80426226D01*
X65133333Y-80492893D01*
X65133333Y-80759559D01*
X64766666Y-79726226D02*
X64766666Y-80059559D01*
X65100000Y-80092893D01*
X65066666Y-80059559D01*
X65033333Y-79992893D01*
X65033333Y-79826226D01*
X65066666Y-79759559D01*
X65100000Y-79726226D01*
X65166666Y-79692893D01*
X65333333Y-79692893D01*
X65400000Y-79726226D01*
X65433333Y-79759559D01*
X65466666Y-79826226D01*
X65466666Y-79992893D01*
X65433333Y-80059559D01*
X65400000Y-80092893D01*
%TO.C,K1*%
X30993333Y-35846666D02*
X30993333Y-35146666D01*
X31393333Y-35846666D02*
X31093333Y-35446666D01*
X31393333Y-35146666D02*
X30993333Y-35546666D01*
X32060000Y-35846666D02*
X31660000Y-35846666D01*
X31860000Y-35846666D02*
X31860000Y-35146666D01*
X31793333Y-35246666D01*
X31726666Y-35313333D01*
X31660000Y-35346666D01*
%TO.C,J13*%
X78633333Y-38616666D02*
X78633333Y-39116666D01*
X78600000Y-39216666D01*
X78533333Y-39283333D01*
X78433333Y-39316666D01*
X78366666Y-39316666D01*
X79333333Y-39316666D02*
X78933333Y-39316666D01*
X79133333Y-39316666D02*
X79133333Y-38616666D01*
X79066666Y-38716666D01*
X79000000Y-38783333D01*
X78933333Y-38816666D01*
X79566666Y-38616666D02*
X80000000Y-38616666D01*
X79766666Y-38883333D01*
X79866666Y-38883333D01*
X79933333Y-38916666D01*
X79966666Y-38950000D01*
X80000000Y-39016666D01*
X80000000Y-39183333D01*
X79966666Y-39250000D01*
X79933333Y-39283333D01*
X79866666Y-39316666D01*
X79666666Y-39316666D01*
X79600000Y-39283333D01*
X79566666Y-39250000D01*
%TO.C,J18*%
X71133333Y-61616666D02*
X71133333Y-62116666D01*
X71100000Y-62216666D01*
X71033333Y-62283333D01*
X70933333Y-62316666D01*
X70866666Y-62316666D01*
X71833333Y-62316666D02*
X71433333Y-62316666D01*
X71633333Y-62316666D02*
X71633333Y-61616666D01*
X71566666Y-61716666D01*
X71500000Y-61783333D01*
X71433333Y-61816666D01*
X72233333Y-61916666D02*
X72166666Y-61883333D01*
X72133333Y-61850000D01*
X72100000Y-61783333D01*
X72100000Y-61750000D01*
X72133333Y-61683333D01*
X72166666Y-61650000D01*
X72233333Y-61616666D01*
X72366666Y-61616666D01*
X72433333Y-61650000D01*
X72466666Y-61683333D01*
X72500000Y-61750000D01*
X72500000Y-61783333D01*
X72466666Y-61850000D01*
X72433333Y-61883333D01*
X72366666Y-61916666D01*
X72233333Y-61916666D01*
X72166666Y-61950000D01*
X72133333Y-61983333D01*
X72100000Y-62050000D01*
X72100000Y-62183333D01*
X72133333Y-62250000D01*
X72166666Y-62283333D01*
X72233333Y-62316666D01*
X72366666Y-62316666D01*
X72433333Y-62283333D01*
X72466666Y-62250000D01*
X72500000Y-62183333D01*
X72500000Y-62050000D01*
X72466666Y-61983333D01*
X72433333Y-61950000D01*
X72366666Y-61916666D01*
%TO.C,Q4*%
X37283333Y-45833333D02*
X37216666Y-45800000D01*
X37150000Y-45733333D01*
X37050000Y-45633333D01*
X36983333Y-45600000D01*
X36916666Y-45600000D01*
X36950000Y-45766666D02*
X36883333Y-45733333D01*
X36816666Y-45666666D01*
X36783333Y-45533333D01*
X36783333Y-45300000D01*
X36816666Y-45166666D01*
X36883333Y-45100000D01*
X36950000Y-45066666D01*
X37083333Y-45066666D01*
X37150000Y-45100000D01*
X37216666Y-45166666D01*
X37250000Y-45300000D01*
X37250000Y-45533333D01*
X37216666Y-45666666D01*
X37150000Y-45733333D01*
X37083333Y-45766666D01*
X36950000Y-45766666D01*
X37850000Y-45300000D02*
X37850000Y-45766666D01*
X37683333Y-45033333D02*
X37516666Y-45533333D01*
X37950000Y-45533333D01*
%TO.C,D2*%
X48546666Y-71926666D02*
X47846666Y-71926666D01*
X47846666Y-71760000D01*
X47880000Y-71660000D01*
X47946666Y-71593333D01*
X48013333Y-71560000D01*
X48146666Y-71526666D01*
X48246666Y-71526666D01*
X48380000Y-71560000D01*
X48446666Y-71593333D01*
X48513333Y-71660000D01*
X48546666Y-71760000D01*
X48546666Y-71926666D01*
X47913333Y-71260000D02*
X47880000Y-71226666D01*
X47846666Y-71160000D01*
X47846666Y-70993333D01*
X47880000Y-70926666D01*
X47913333Y-70893333D01*
X47980000Y-70860000D01*
X48046666Y-70860000D01*
X48146666Y-70893333D01*
X48546666Y-71293333D01*
X48546666Y-70860000D01*
%TO.C,JP5*%
X66416666Y-38283333D02*
X66916666Y-38283333D01*
X67016666Y-38316666D01*
X67083333Y-38383333D01*
X67116666Y-38483333D01*
X67116666Y-38550000D01*
X67116666Y-37950000D02*
X66416666Y-37950000D01*
X66416666Y-37683333D01*
X66450000Y-37616666D01*
X66483333Y-37583333D01*
X66550000Y-37550000D01*
X66650000Y-37550000D01*
X66716666Y-37583333D01*
X66750000Y-37616666D01*
X66783333Y-37683333D01*
X66783333Y-37950000D01*
X66416666Y-36916666D02*
X66416666Y-37250000D01*
X66750000Y-37283333D01*
X66716666Y-37250000D01*
X66683333Y-37183333D01*
X66683333Y-37016666D01*
X66716666Y-36950000D01*
X66750000Y-36916666D01*
X66816666Y-36883333D01*
X66983333Y-36883333D01*
X67050000Y-36916666D01*
X67083333Y-36950000D01*
X67116666Y-37016666D01*
X67116666Y-37183333D01*
X67083333Y-37250000D01*
X67050000Y-37283333D01*
%TO.C,R8*%
X17483333Y-60266666D02*
X17250000Y-59933333D01*
X17083333Y-60266666D02*
X17083333Y-59566666D01*
X17350000Y-59566666D01*
X17416666Y-59600000D01*
X17450000Y-59633333D01*
X17483333Y-59700000D01*
X17483333Y-59800000D01*
X17450000Y-59866666D01*
X17416666Y-59900000D01*
X17350000Y-59933333D01*
X17083333Y-59933333D01*
X17883333Y-59866666D02*
X17816666Y-59833333D01*
X17783333Y-59800000D01*
X17750000Y-59733333D01*
X17750000Y-59700000D01*
X17783333Y-59633333D01*
X17816666Y-59600000D01*
X17883333Y-59566666D01*
X18016666Y-59566666D01*
X18083333Y-59600000D01*
X18116666Y-59633333D01*
X18150000Y-59700000D01*
X18150000Y-59733333D01*
X18116666Y-59800000D01*
X18083333Y-59833333D01*
X18016666Y-59866666D01*
X17883333Y-59866666D01*
X17816666Y-59900000D01*
X17783333Y-59933333D01*
X17750000Y-60000000D01*
X17750000Y-60133333D01*
X17783333Y-60200000D01*
X17816666Y-60233333D01*
X17883333Y-60266666D01*
X18016666Y-60266666D01*
X18083333Y-60233333D01*
X18116666Y-60200000D01*
X18150000Y-60133333D01*
X18150000Y-60000000D01*
X18116666Y-59933333D01*
X18083333Y-59900000D01*
X18016666Y-59866666D01*
%TO.C,JP4*%
X66516666Y-26240440D02*
X67016666Y-26240440D01*
X67116666Y-26273773D01*
X67183333Y-26340440D01*
X67216666Y-26440440D01*
X67216666Y-26507107D01*
X67216666Y-25907107D02*
X66516666Y-25907107D01*
X66516666Y-25640440D01*
X66550000Y-25573773D01*
X66583333Y-25540440D01*
X66650000Y-25507107D01*
X66750000Y-25507107D01*
X66816666Y-25540440D01*
X66850000Y-25573773D01*
X66883333Y-25640440D01*
X66883333Y-25907107D01*
X66750000Y-24907107D02*
X67216666Y-24907107D01*
X66483333Y-25073773D02*
X66983333Y-25240440D01*
X66983333Y-24807107D01*
%TO.C,JP1*%
X67216666Y-78366666D02*
X67216666Y-78866666D01*
X67183333Y-78966666D01*
X67116666Y-79033333D01*
X67016666Y-79066666D01*
X66950000Y-79066666D01*
X67550000Y-79066666D02*
X67550000Y-78366666D01*
X67816666Y-78366666D01*
X67883333Y-78400000D01*
X67916666Y-78433333D01*
X67950000Y-78500000D01*
X67950000Y-78600000D01*
X67916666Y-78666666D01*
X67883333Y-78700000D01*
X67816666Y-78733333D01*
X67550000Y-78733333D01*
X68616666Y-79066666D02*
X68216666Y-79066666D01*
X68416666Y-79066666D02*
X68416666Y-78366666D01*
X68350000Y-78466666D01*
X68283333Y-78533333D01*
X68216666Y-78566666D01*
%TO.C,D6*%
X25016666Y-72126666D02*
X24316666Y-72126666D01*
X24316666Y-71960000D01*
X24350000Y-71860000D01*
X24416666Y-71793333D01*
X24483333Y-71760000D01*
X24616666Y-71726666D01*
X24716666Y-71726666D01*
X24850000Y-71760000D01*
X24916666Y-71793333D01*
X24983333Y-71860000D01*
X25016666Y-71960000D01*
X25016666Y-72126666D01*
X24316666Y-71126666D02*
X24316666Y-71260000D01*
X24350000Y-71326666D01*
X24383333Y-71360000D01*
X24483333Y-71426666D01*
X24616666Y-71460000D01*
X24883333Y-71460000D01*
X24950000Y-71426666D01*
X24983333Y-71393333D01*
X25016666Y-71326666D01*
X25016666Y-71193333D01*
X24983333Y-71126666D01*
X24950000Y-71093333D01*
X24883333Y-71060000D01*
X24716666Y-71060000D01*
X24650000Y-71093333D01*
X24616666Y-71126666D01*
X24583333Y-71193333D01*
X24583333Y-71326666D01*
X24616666Y-71393333D01*
X24650000Y-71426666D01*
X24716666Y-71460000D01*
%TO.C,J14*%
X57523333Y-54266666D02*
X57523333Y-54766666D01*
X57490000Y-54866666D01*
X57423333Y-54933333D01*
X57323333Y-54966666D01*
X57256666Y-54966666D01*
X58223333Y-54966666D02*
X57823333Y-54966666D01*
X58023333Y-54966666D02*
X58023333Y-54266666D01*
X57956666Y-54366666D01*
X57890000Y-54433333D01*
X57823333Y-54466666D01*
X58823333Y-54500000D02*
X58823333Y-54966666D01*
X58656666Y-54233333D02*
X58490000Y-54733333D01*
X58923333Y-54733333D01*
%TO.C,JP2*%
X57416666Y-13416666D02*
X57416666Y-13916666D01*
X57383333Y-14016666D01*
X57316666Y-14083333D01*
X57216666Y-14116666D01*
X57150000Y-14116666D01*
X57750000Y-14116666D02*
X57750000Y-13416666D01*
X58016666Y-13416666D01*
X58083333Y-13450000D01*
X58116666Y-13483333D01*
X58150000Y-13550000D01*
X58150000Y-13650000D01*
X58116666Y-13716666D01*
X58083333Y-13750000D01*
X58016666Y-13783333D01*
X57750000Y-13783333D01*
X58416666Y-13483333D02*
X58450000Y-13450000D01*
X58516666Y-13416666D01*
X58683333Y-13416666D01*
X58750000Y-13450000D01*
X58783333Y-13483333D01*
X58816666Y-13550000D01*
X58816666Y-13616666D01*
X58783333Y-13716666D01*
X58383333Y-14116666D01*
X58816666Y-14116666D01*
%TO.C,Q2*%
X19543333Y-72523333D02*
X19476666Y-72490000D01*
X19410000Y-72423333D01*
X19310000Y-72323333D01*
X19243333Y-72290000D01*
X19176666Y-72290000D01*
X19210000Y-72456666D02*
X19143333Y-72423333D01*
X19076666Y-72356666D01*
X19043333Y-72223333D01*
X19043333Y-71990000D01*
X19076666Y-71856666D01*
X19143333Y-71790000D01*
X19210000Y-71756666D01*
X19343333Y-71756666D01*
X19410000Y-71790000D01*
X19476666Y-71856666D01*
X19510000Y-71990000D01*
X19510000Y-72223333D01*
X19476666Y-72356666D01*
X19410000Y-72423333D01*
X19343333Y-72456666D01*
X19210000Y-72456666D01*
X19776666Y-71823333D02*
X19810000Y-71790000D01*
X19876666Y-71756666D01*
X20043333Y-71756666D01*
X20110000Y-71790000D01*
X20143333Y-71823333D01*
X20176666Y-71890000D01*
X20176666Y-71956666D01*
X20143333Y-72056666D01*
X19743333Y-72456666D01*
X20176666Y-72456666D01*
%TO.C,C7*%
X43450000Y-60131666D02*
X43483333Y-60165000D01*
X43516666Y-60265000D01*
X43516666Y-60331666D01*
X43483333Y-60431666D01*
X43416666Y-60498333D01*
X43350000Y-60531666D01*
X43216666Y-60565000D01*
X43116666Y-60565000D01*
X42983333Y-60531666D01*
X42916666Y-60498333D01*
X42850000Y-60431666D01*
X42816666Y-60331666D01*
X42816666Y-60265000D01*
X42850000Y-60165000D01*
X42883333Y-60131666D01*
X42816666Y-59898333D02*
X42816666Y-59431666D01*
X43516666Y-59731666D01*
%TO.C,L1*%
X25616666Y-65416666D02*
X25616666Y-65750000D01*
X24916666Y-65750000D01*
X25616666Y-64816666D02*
X25616666Y-65216666D01*
X25616666Y-65016666D02*
X24916666Y-65016666D01*
X25016666Y-65083333D01*
X25083333Y-65150000D01*
X25116666Y-65216666D01*
%TO.C,D5*%
X48433333Y-82466666D02*
X48433333Y-81766666D01*
X48600000Y-81766666D01*
X48700000Y-81800000D01*
X48766666Y-81866666D01*
X48800000Y-81933333D01*
X48833333Y-82066666D01*
X48833333Y-82166666D01*
X48800000Y-82300000D01*
X48766666Y-82366666D01*
X48700000Y-82433333D01*
X48600000Y-82466666D01*
X48433333Y-82466666D01*
X49466666Y-81766666D02*
X49133333Y-81766666D01*
X49100000Y-82100000D01*
X49133333Y-82066666D01*
X49200000Y-82033333D01*
X49366666Y-82033333D01*
X49433333Y-82066666D01*
X49466666Y-82100000D01*
X49500000Y-82166666D01*
X49500000Y-82333333D01*
X49466666Y-82400000D01*
X49433333Y-82433333D01*
X49366666Y-82466666D01*
X49200000Y-82466666D01*
X49133333Y-82433333D01*
X49100000Y-82400000D01*
%TO.C,R12*%
X36150000Y-68666666D02*
X35916666Y-68333333D01*
X35750000Y-68666666D02*
X35750000Y-67966666D01*
X36016666Y-67966666D01*
X36083333Y-68000000D01*
X36116666Y-68033333D01*
X36150000Y-68100000D01*
X36150000Y-68200000D01*
X36116666Y-68266666D01*
X36083333Y-68300000D01*
X36016666Y-68333333D01*
X35750000Y-68333333D01*
X36816666Y-68666666D02*
X36416666Y-68666666D01*
X36616666Y-68666666D02*
X36616666Y-67966666D01*
X36550000Y-68066666D01*
X36483333Y-68133333D01*
X36416666Y-68166666D01*
X37083333Y-68033333D02*
X37116666Y-68000000D01*
X37183333Y-67966666D01*
X37350000Y-67966666D01*
X37416666Y-68000000D01*
X37450000Y-68033333D01*
X37483333Y-68100000D01*
X37483333Y-68166666D01*
X37450000Y-68266666D01*
X37050000Y-68666666D01*
X37483333Y-68666666D01*
%TO.C,R7*%
X23358333Y-61016666D02*
X23125000Y-60683333D01*
X22958333Y-61016666D02*
X22958333Y-60316666D01*
X23225000Y-60316666D01*
X23291666Y-60350000D01*
X23325000Y-60383333D01*
X23358333Y-60450000D01*
X23358333Y-60550000D01*
X23325000Y-60616666D01*
X23291666Y-60650000D01*
X23225000Y-60683333D01*
X22958333Y-60683333D01*
X23591666Y-60316666D02*
X24058333Y-60316666D01*
X23758333Y-61016666D01*
D10*
%TO.C,J6*%
X73366666Y-82745273D02*
X73366666Y-83459559D01*
X73319047Y-83602416D01*
X73223809Y-83697654D01*
X73080952Y-83745273D01*
X72985714Y-83745273D01*
X74271428Y-82745273D02*
X74080952Y-82745273D01*
X73985714Y-82792893D01*
X73938095Y-82840512D01*
X73842857Y-82983369D01*
X73795238Y-83173845D01*
X73795238Y-83554797D01*
X73842857Y-83650035D01*
X73890476Y-83697654D01*
X73985714Y-83745273D01*
X74176190Y-83745273D01*
X74271428Y-83697654D01*
X74319047Y-83650035D01*
X74366666Y-83554797D01*
X74366666Y-83316702D01*
X74319047Y-83221464D01*
X74271428Y-83173845D01*
X74176190Y-83126226D01*
X73985714Y-83126226D01*
X73890476Y-83173845D01*
X73842857Y-83221464D01*
X73795238Y-83316702D01*
D14*
%TO.C,J5*%
X54566666Y-82259559D02*
X54566666Y-82759559D01*
X54533333Y-82859559D01*
X54466666Y-82926226D01*
X54366666Y-82959559D01*
X54300000Y-82959559D01*
X55233333Y-82259559D02*
X54900000Y-82259559D01*
X54866666Y-82592893D01*
X54900000Y-82559559D01*
X54966666Y-82526226D01*
X55133333Y-82526226D01*
X55200000Y-82559559D01*
X55233333Y-82592893D01*
X55266666Y-82659559D01*
X55266666Y-82826226D01*
X55233333Y-82892893D01*
X55200000Y-82926226D01*
X55133333Y-82959559D01*
X54966666Y-82959559D01*
X54900000Y-82926226D01*
X54866666Y-82892893D01*
%TO.C,C8*%
X42633333Y-68650000D02*
X42600000Y-68683333D01*
X42500000Y-68716666D01*
X42433333Y-68716666D01*
X42333333Y-68683333D01*
X42266666Y-68616666D01*
X42233333Y-68550000D01*
X42200000Y-68416666D01*
X42200000Y-68316666D01*
X42233333Y-68183333D01*
X42266666Y-68116666D01*
X42333333Y-68050000D01*
X42433333Y-68016666D01*
X42500000Y-68016666D01*
X42600000Y-68050000D01*
X42633333Y-68083333D01*
X43033333Y-68316666D02*
X42966666Y-68283333D01*
X42933333Y-68250000D01*
X42900000Y-68183333D01*
X42900000Y-68150000D01*
X42933333Y-68083333D01*
X42966666Y-68050000D01*
X43033333Y-68016666D01*
X43166666Y-68016666D01*
X43233333Y-68050000D01*
X43266666Y-68083333D01*
X43300000Y-68150000D01*
X43300000Y-68183333D01*
X43266666Y-68250000D01*
X43233333Y-68283333D01*
X43166666Y-68316666D01*
X43033333Y-68316666D01*
X42966666Y-68350000D01*
X42933333Y-68383333D01*
X42900000Y-68450000D01*
X42900000Y-68583333D01*
X42933333Y-68650000D01*
X42966666Y-68683333D01*
X43033333Y-68716666D01*
X43166666Y-68716666D01*
X43233333Y-68683333D01*
X43266666Y-68650000D01*
X43300000Y-68583333D01*
X43300000Y-68450000D01*
X43266666Y-68383333D01*
X43233333Y-68350000D01*
X43166666Y-68316666D01*
%TO.C,R9*%
X23483333Y-56566666D02*
X23250000Y-56233333D01*
X23083333Y-56566666D02*
X23083333Y-55866666D01*
X23350000Y-55866666D01*
X23416666Y-55900000D01*
X23450000Y-55933333D01*
X23483333Y-56000000D01*
X23483333Y-56100000D01*
X23450000Y-56166666D01*
X23416666Y-56200000D01*
X23350000Y-56233333D01*
X23083333Y-56233333D01*
X23816666Y-56566666D02*
X23950000Y-56566666D01*
X24016666Y-56533333D01*
X24050000Y-56500000D01*
X24116666Y-56400000D01*
X24150000Y-56266666D01*
X24150000Y-56000000D01*
X24116666Y-55933333D01*
X24083333Y-55900000D01*
X24016666Y-55866666D01*
X23883333Y-55866666D01*
X23816666Y-55900000D01*
X23783333Y-55933333D01*
X23750000Y-56000000D01*
X23750000Y-56166666D01*
X23783333Y-56233333D01*
X23816666Y-56266666D01*
X23883333Y-56300000D01*
X24016666Y-56300000D01*
X24083333Y-56266666D01*
X24116666Y-56233333D01*
X24150000Y-56166666D01*
%TO.C,C1*%
X44650000Y-63916666D02*
X44683333Y-63950000D01*
X44716666Y-64050000D01*
X44716666Y-64116666D01*
X44683333Y-64216666D01*
X44616666Y-64283333D01*
X44550000Y-64316666D01*
X44416666Y-64350000D01*
X44316666Y-64350000D01*
X44183333Y-64316666D01*
X44116666Y-64283333D01*
X44050000Y-64216666D01*
X44016666Y-64116666D01*
X44016666Y-64050000D01*
X44050000Y-63950000D01*
X44083333Y-63916666D01*
X44716666Y-63250000D02*
X44716666Y-63650000D01*
X44716666Y-63450000D02*
X44016666Y-63450000D01*
X44116666Y-63516666D01*
X44183333Y-63583333D01*
X44216666Y-63650000D01*
%TO.C,D7*%
X40433333Y-28166666D02*
X40433333Y-27466666D01*
X40600000Y-27466666D01*
X40700000Y-27500000D01*
X40766666Y-27566666D01*
X40800000Y-27633333D01*
X40833333Y-27766666D01*
X40833333Y-27866666D01*
X40800000Y-28000000D01*
X40766666Y-28066666D01*
X40700000Y-28133333D01*
X40600000Y-28166666D01*
X40433333Y-28166666D01*
X41066666Y-27466666D02*
X41533333Y-27466666D01*
X41233333Y-28166666D01*
D13*
%TO.C,J8*%
X14633333Y-57311904D02*
X14633333Y-57883333D01*
X14595238Y-57997619D01*
X14519047Y-58073809D01*
X14404761Y-58111904D01*
X14328571Y-58111904D01*
X15128571Y-57654761D02*
X15052380Y-57616666D01*
X15014285Y-57578571D01*
X14976190Y-57502380D01*
X14976190Y-57464285D01*
X15014285Y-57388095D01*
X15052380Y-57350000D01*
X15128571Y-57311904D01*
X15280952Y-57311904D01*
X15357142Y-57350000D01*
X15395238Y-57388095D01*
X15433333Y-57464285D01*
X15433333Y-57502380D01*
X15395238Y-57578571D01*
X15357142Y-57616666D01*
X15280952Y-57654761D01*
X15128571Y-57654761D01*
X15052380Y-57692857D01*
X15014285Y-57730952D01*
X14976190Y-57807142D01*
X14976190Y-57959523D01*
X15014285Y-58035714D01*
X15052380Y-58073809D01*
X15128571Y-58111904D01*
X15280952Y-58111904D01*
X15357142Y-58073809D01*
X15395238Y-58035714D01*
X15433333Y-57959523D01*
X15433333Y-57807142D01*
X15395238Y-57730952D01*
X15357142Y-57692857D01*
X15280952Y-57654761D01*
D14*
%TO.C,R18*%
X40516666Y-38300000D02*
X40183333Y-38533333D01*
X40516666Y-38700000D02*
X39816666Y-38700000D01*
X39816666Y-38433333D01*
X39850000Y-38366666D01*
X39883333Y-38333333D01*
X39950000Y-38300000D01*
X40050000Y-38300000D01*
X40116666Y-38333333D01*
X40150000Y-38366666D01*
X40183333Y-38433333D01*
X40183333Y-38700000D01*
X40516666Y-37633333D02*
X40516666Y-38033333D01*
X40516666Y-37833333D02*
X39816666Y-37833333D01*
X39916666Y-37900000D01*
X39983333Y-37966666D01*
X40016666Y-38033333D01*
X40116666Y-37233333D02*
X40083333Y-37300000D01*
X40050000Y-37333333D01*
X39983333Y-37366666D01*
X39950000Y-37366666D01*
X39883333Y-37333333D01*
X39850000Y-37300000D01*
X39816666Y-37233333D01*
X39816666Y-37100000D01*
X39850000Y-37033333D01*
X39883333Y-37000000D01*
X39950000Y-36966666D01*
X39983333Y-36966666D01*
X40050000Y-37000000D01*
X40083333Y-37033333D01*
X40116666Y-37100000D01*
X40116666Y-37233333D01*
X40150000Y-37300000D01*
X40183333Y-37333333D01*
X40250000Y-37366666D01*
X40383333Y-37366666D01*
X40450000Y-37333333D01*
X40483333Y-37300000D01*
X40516666Y-37233333D01*
X40516666Y-37100000D01*
X40483333Y-37033333D01*
X40450000Y-37000000D01*
X40383333Y-36966666D01*
X40250000Y-36966666D01*
X40183333Y-37000000D01*
X40150000Y-37033333D01*
X40116666Y-37100000D01*
%TO.C,R11*%
X38600000Y-78366666D02*
X38366666Y-78033333D01*
X38200000Y-78366666D02*
X38200000Y-77666666D01*
X38466666Y-77666666D01*
X38533333Y-77700000D01*
X38566666Y-77733333D01*
X38600000Y-77800000D01*
X38600000Y-77900000D01*
X38566666Y-77966666D01*
X38533333Y-78000000D01*
X38466666Y-78033333D01*
X38200000Y-78033333D01*
X39266666Y-78366666D02*
X38866666Y-78366666D01*
X39066666Y-78366666D02*
X39066666Y-77666666D01*
X39000000Y-77766666D01*
X38933333Y-77833333D01*
X38866666Y-77866666D01*
X39933333Y-78366666D02*
X39533333Y-78366666D01*
X39733333Y-78366666D02*
X39733333Y-77666666D01*
X39666666Y-77766666D01*
X39600000Y-77833333D01*
X39533333Y-77866666D01*
%TO.C,JP7*%
X47116666Y-31483333D02*
X47616666Y-31483333D01*
X47716666Y-31516666D01*
X47783333Y-31583333D01*
X47816666Y-31683333D01*
X47816666Y-31750000D01*
X47816666Y-31150000D02*
X47116666Y-31150000D01*
X47116666Y-30883333D01*
X47150000Y-30816666D01*
X47183333Y-30783333D01*
X47250000Y-30750000D01*
X47350000Y-30750000D01*
X47416666Y-30783333D01*
X47450000Y-30816666D01*
X47483333Y-30883333D01*
X47483333Y-31150000D01*
X47116666Y-30516666D02*
X47116666Y-30050000D01*
X47816666Y-30350000D01*
%TO.C,J11*%
X77933333Y-25616666D02*
X77933333Y-26116666D01*
X77900000Y-26216666D01*
X77833333Y-26283333D01*
X77733333Y-26316666D01*
X77666666Y-26316666D01*
X78633333Y-26316666D02*
X78233333Y-26316666D01*
X78433333Y-26316666D02*
X78433333Y-25616666D01*
X78366666Y-25716666D01*
X78300000Y-25783333D01*
X78233333Y-25816666D01*
X79300000Y-26316666D02*
X78900000Y-26316666D01*
X79100000Y-26316666D02*
X79100000Y-25616666D01*
X79033333Y-25716666D01*
X78966666Y-25783333D01*
X78900000Y-25816666D01*
%TO.C,R10*%
X45066666Y-84350000D02*
X44733333Y-84583333D01*
X45066666Y-84750000D02*
X44366666Y-84750000D01*
X44366666Y-84483333D01*
X44400000Y-84416666D01*
X44433333Y-84383333D01*
X44500000Y-84350000D01*
X44600000Y-84350000D01*
X44666666Y-84383333D01*
X44700000Y-84416666D01*
X44733333Y-84483333D01*
X44733333Y-84750000D01*
X45066666Y-83683333D02*
X45066666Y-84083333D01*
X45066666Y-83883333D02*
X44366666Y-83883333D01*
X44466666Y-83950000D01*
X44533333Y-84016666D01*
X44566666Y-84083333D01*
X44366666Y-83250000D02*
X44366666Y-83183333D01*
X44400000Y-83116666D01*
X44433333Y-83083333D01*
X44500000Y-83050000D01*
X44633333Y-83016666D01*
X44800000Y-83016666D01*
X44933333Y-83050000D01*
X45000000Y-83083333D01*
X45033333Y-83116666D01*
X45066666Y-83183333D01*
X45066666Y-83250000D01*
X45033333Y-83316666D01*
X45000000Y-83350000D01*
X44933333Y-83383333D01*
X44800000Y-83416666D01*
X44633333Y-83416666D01*
X44500000Y-83383333D01*
X44433333Y-83350000D01*
X44400000Y-83316666D01*
X44366666Y-83250000D01*
D10*
%TO.C,J3*%
X49766666Y-70112380D02*
X49766666Y-70826666D01*
X49719047Y-70969523D01*
X49623809Y-71064761D01*
X49480952Y-71112380D01*
X49385714Y-71112380D01*
X50147619Y-70112380D02*
X50766666Y-70112380D01*
X50433333Y-70493333D01*
X50576190Y-70493333D01*
X50671428Y-70540952D01*
X50719047Y-70588571D01*
X50766666Y-70683809D01*
X50766666Y-70921904D01*
X50719047Y-71017142D01*
X50671428Y-71064761D01*
X50576190Y-71112380D01*
X50290476Y-71112380D01*
X50195238Y-71064761D01*
X50147619Y-71017142D01*
D14*
%TO.C,R20*%
X35590000Y-36286666D02*
X35356666Y-35953333D01*
X35190000Y-36286666D02*
X35190000Y-35586666D01*
X35456666Y-35586666D01*
X35523333Y-35620000D01*
X35556666Y-35653333D01*
X35590000Y-35720000D01*
X35590000Y-35820000D01*
X35556666Y-35886666D01*
X35523333Y-35920000D01*
X35456666Y-35953333D01*
X35190000Y-35953333D01*
X35856666Y-35653333D02*
X35890000Y-35620000D01*
X35956666Y-35586666D01*
X36123333Y-35586666D01*
X36190000Y-35620000D01*
X36223333Y-35653333D01*
X36256666Y-35720000D01*
X36256666Y-35786666D01*
X36223333Y-35886666D01*
X35823333Y-36286666D01*
X36256666Y-36286666D01*
X36690000Y-35586666D02*
X36756666Y-35586666D01*
X36823333Y-35620000D01*
X36856666Y-35653333D01*
X36890000Y-35720000D01*
X36923333Y-35853333D01*
X36923333Y-36020000D01*
X36890000Y-36153333D01*
X36856666Y-36220000D01*
X36823333Y-36253333D01*
X36756666Y-36286666D01*
X36690000Y-36286666D01*
X36623333Y-36253333D01*
X36590000Y-36220000D01*
X36556666Y-36153333D01*
X36523333Y-36020000D01*
X36523333Y-35853333D01*
X36556666Y-35720000D01*
X36590000Y-35653333D01*
X36623333Y-35620000D01*
X36690000Y-35586666D01*
%TO.C,R6*%
X43966666Y-78116666D02*
X43633333Y-78350000D01*
X43966666Y-78516666D02*
X43266666Y-78516666D01*
X43266666Y-78250000D01*
X43300000Y-78183333D01*
X43333333Y-78150000D01*
X43400000Y-78116666D01*
X43500000Y-78116666D01*
X43566666Y-78150000D01*
X43600000Y-78183333D01*
X43633333Y-78250000D01*
X43633333Y-78516666D01*
X43266666Y-77516666D02*
X43266666Y-77650000D01*
X43300000Y-77716666D01*
X43333333Y-77750000D01*
X43433333Y-77816666D01*
X43566666Y-77850000D01*
X43833333Y-77850000D01*
X43900000Y-77816666D01*
X43933333Y-77783333D01*
X43966666Y-77716666D01*
X43966666Y-77583333D01*
X43933333Y-77516666D01*
X43900000Y-77483333D01*
X43833333Y-77450000D01*
X43666666Y-77450000D01*
X43600000Y-77483333D01*
X43566666Y-77516666D01*
X43533333Y-77583333D01*
X43533333Y-77716666D01*
X43566666Y-77783333D01*
X43600000Y-77816666D01*
X43666666Y-77850000D01*
%TO.C,J19*%
X70833333Y-71316666D02*
X70833333Y-71816666D01*
X70800000Y-71916666D01*
X70733333Y-71983333D01*
X70633333Y-72016666D01*
X70566666Y-72016666D01*
X71533333Y-72016666D02*
X71133333Y-72016666D01*
X71333333Y-72016666D02*
X71333333Y-71316666D01*
X71266666Y-71416666D01*
X71200000Y-71483333D01*
X71133333Y-71516666D01*
X71866666Y-72016666D02*
X72000000Y-72016666D01*
X72066666Y-71983333D01*
X72100000Y-71950000D01*
X72166666Y-71850000D01*
X72200000Y-71716666D01*
X72200000Y-71450000D01*
X72166666Y-71383333D01*
X72133333Y-71350000D01*
X72066666Y-71316666D01*
X71933333Y-71316666D01*
X71866666Y-71350000D01*
X71833333Y-71383333D01*
X71800000Y-71450000D01*
X71800000Y-71616666D01*
X71833333Y-71683333D01*
X71866666Y-71716666D01*
X71933333Y-71750000D01*
X72066666Y-71750000D01*
X72133333Y-71716666D01*
X72166666Y-71683333D01*
X72200000Y-71616666D01*
%TO.C,D4*%
X48433333Y-80966666D02*
X48433333Y-80266666D01*
X48600000Y-80266666D01*
X48700000Y-80300000D01*
X48766666Y-80366666D01*
X48800000Y-80433333D01*
X48833333Y-80566666D01*
X48833333Y-80666666D01*
X48800000Y-80800000D01*
X48766666Y-80866666D01*
X48700000Y-80933333D01*
X48600000Y-80966666D01*
X48433333Y-80966666D01*
X49433333Y-80500000D02*
X49433333Y-80966666D01*
X49266666Y-80233333D02*
X49100000Y-80733333D01*
X49533333Y-80733333D01*
%TO.C,J4*%
X23416666Y-53966666D02*
X23416666Y-54466666D01*
X23383333Y-54566666D01*
X23316666Y-54633333D01*
X23216666Y-54666666D01*
X23150000Y-54666666D01*
X24050000Y-54200000D02*
X24050000Y-54666666D01*
X23883333Y-53933333D02*
X23716666Y-54433333D01*
X24150000Y-54433333D01*
%TO.C,C3*%
X23483333Y-57899999D02*
X23450000Y-57933332D01*
X23350000Y-57966665D01*
X23283333Y-57966665D01*
X23183333Y-57933332D01*
X23116666Y-57866665D01*
X23083333Y-57799999D01*
X23050000Y-57666665D01*
X23050000Y-57566665D01*
X23083333Y-57433332D01*
X23116666Y-57366665D01*
X23183333Y-57299999D01*
X23283333Y-57266665D01*
X23350000Y-57266665D01*
X23450000Y-57299999D01*
X23483333Y-57333332D01*
X23716666Y-57266665D02*
X24150000Y-57266665D01*
X23916666Y-57533332D01*
X24016666Y-57533332D01*
X24083333Y-57566665D01*
X24116666Y-57599999D01*
X24150000Y-57666665D01*
X24150000Y-57833332D01*
X24116666Y-57899999D01*
X24083333Y-57933332D01*
X24016666Y-57966665D01*
X23816666Y-57966665D01*
X23750000Y-57933332D01*
X23716666Y-57899999D01*
%TO.C,D1*%
X45716666Y-69166666D02*
X45016666Y-69166666D01*
X45016666Y-69000000D01*
X45050000Y-68900000D01*
X45116666Y-68833333D01*
X45183333Y-68800000D01*
X45316666Y-68766666D01*
X45416666Y-68766666D01*
X45550000Y-68800000D01*
X45616666Y-68833333D01*
X45683333Y-68900000D01*
X45716666Y-69000000D01*
X45716666Y-69166666D01*
X45716666Y-68100000D02*
X45716666Y-68500000D01*
X45716666Y-68300000D02*
X45016666Y-68300000D01*
X45116666Y-68366666D01*
X45183333Y-68433333D01*
X45216666Y-68500000D01*
%TO.C,J17*%
X57533333Y-72966666D02*
X57533333Y-73466666D01*
X57500000Y-73566666D01*
X57433333Y-73633333D01*
X57333333Y-73666666D01*
X57266666Y-73666666D01*
X58233333Y-73666666D02*
X57833333Y-73666666D01*
X58033333Y-73666666D02*
X58033333Y-72966666D01*
X57966666Y-73066666D01*
X57900000Y-73133333D01*
X57833333Y-73166666D01*
X58466666Y-72966666D02*
X58933333Y-72966666D01*
X58633333Y-73666666D01*
%TO.C,JP8*%
X66416666Y-49483333D02*
X66916666Y-49483333D01*
X67016666Y-49516666D01*
X67083333Y-49583333D01*
X67116666Y-49683333D01*
X67116666Y-49750000D01*
X67116666Y-49150000D02*
X66416666Y-49150000D01*
X66416666Y-48883333D01*
X66450000Y-48816666D01*
X66483333Y-48783333D01*
X66550000Y-48750000D01*
X66650000Y-48750000D01*
X66716666Y-48783333D01*
X66750000Y-48816666D01*
X66783333Y-48883333D01*
X66783333Y-49150000D01*
X66716666Y-48350000D02*
X66683333Y-48416666D01*
X66650000Y-48450000D01*
X66583333Y-48483333D01*
X66550000Y-48483333D01*
X66483333Y-48450000D01*
X66450000Y-48416666D01*
X66416666Y-48350000D01*
X66416666Y-48216666D01*
X66450000Y-48150000D01*
X66483333Y-48116666D01*
X66550000Y-48083333D01*
X66583333Y-48083333D01*
X66650000Y-48116666D01*
X66683333Y-48150000D01*
X66716666Y-48216666D01*
X66716666Y-48350000D01*
X66750000Y-48416666D01*
X66783333Y-48450000D01*
X66850000Y-48483333D01*
X66983333Y-48483333D01*
X67050000Y-48450000D01*
X67083333Y-48416666D01*
X67116666Y-48350000D01*
X67116666Y-48216666D01*
X67083333Y-48150000D01*
X67050000Y-48116666D01*
X66983333Y-48083333D01*
X66850000Y-48083333D01*
X66783333Y-48116666D01*
X66750000Y-48150000D01*
X66716666Y-48216666D01*
%TO.C,Q1*%
X49033333Y-79303333D02*
X48966666Y-79270000D01*
X48900000Y-79203333D01*
X48800000Y-79103333D01*
X48733333Y-79070000D01*
X48666666Y-79070000D01*
X48700000Y-79236666D02*
X48633333Y-79203333D01*
X48566666Y-79136666D01*
X48533333Y-79003333D01*
X48533333Y-78770000D01*
X48566666Y-78636666D01*
X48633333Y-78570000D01*
X48700000Y-78536666D01*
X48833333Y-78536666D01*
X48900000Y-78570000D01*
X48966666Y-78636666D01*
X49000000Y-78770000D01*
X49000000Y-79003333D01*
X48966666Y-79136666D01*
X48900000Y-79203333D01*
X48833333Y-79236666D01*
X48700000Y-79236666D01*
X49666666Y-79236666D02*
X49266666Y-79236666D01*
X49466666Y-79236666D02*
X49466666Y-78536666D01*
X49400000Y-78636666D01*
X49333333Y-78703333D01*
X49266666Y-78736666D01*
D13*
%TO.C,J15*%
X14452380Y-73461904D02*
X14452380Y-74033333D01*
X14414285Y-74147619D01*
X14338095Y-74223809D01*
X14223809Y-74261904D01*
X14147619Y-74261904D01*
X15252380Y-74261904D02*
X14795238Y-74261904D01*
X15023809Y-74261904D02*
X15023809Y-73461904D01*
X14947619Y-73576190D01*
X14871428Y-73652380D01*
X14795238Y-73690476D01*
X15976190Y-73461904D02*
X15595238Y-73461904D01*
X15557142Y-73842857D01*
X15595238Y-73804761D01*
X15671428Y-73766666D01*
X15861904Y-73766666D01*
X15938095Y-73804761D01*
X15976190Y-73842857D01*
X16014285Y-73919047D01*
X16014285Y-74109523D01*
X15976190Y-74185714D01*
X15938095Y-74223809D01*
X15861904Y-74261904D01*
X15671428Y-74261904D01*
X15595238Y-74223809D01*
X15557142Y-74185714D01*
D14*
%TO.C,R2*%
X47741666Y-63916666D02*
X47408333Y-64150000D01*
X47741666Y-64316666D02*
X47041666Y-64316666D01*
X47041666Y-64050000D01*
X47075000Y-63983333D01*
X47108333Y-63950000D01*
X47175000Y-63916666D01*
X47275000Y-63916666D01*
X47341666Y-63950000D01*
X47375000Y-63983333D01*
X47408333Y-64050000D01*
X47408333Y-64316666D01*
X47108333Y-63650000D02*
X47075000Y-63616666D01*
X47041666Y-63550000D01*
X47041666Y-63383333D01*
X47075000Y-63316666D01*
X47108333Y-63283333D01*
X47175000Y-63250000D01*
X47241666Y-63250000D01*
X47341666Y-63283333D01*
X47741666Y-63683333D01*
X47741666Y-63250000D01*
%TO.C,R3*%
X49333333Y-76016666D02*
X49100000Y-75683333D01*
X48933333Y-76016666D02*
X48933333Y-75316666D01*
X49200000Y-75316666D01*
X49266666Y-75350000D01*
X49300000Y-75383333D01*
X49333333Y-75450000D01*
X49333333Y-75550000D01*
X49300000Y-75616666D01*
X49266666Y-75650000D01*
X49200000Y-75683333D01*
X48933333Y-75683333D01*
X49566666Y-75316666D02*
X50000000Y-75316666D01*
X49766666Y-75583333D01*
X49866666Y-75583333D01*
X49933333Y-75616666D01*
X49966666Y-75650000D01*
X50000000Y-75716666D01*
X50000000Y-75883333D01*
X49966666Y-75950000D01*
X49933333Y-75983333D01*
X49866666Y-76016666D01*
X49666666Y-76016666D01*
X49600000Y-75983333D01*
X49566666Y-75950000D01*
%TO.C,Q5*%
X33683333Y-39133333D02*
X33616666Y-39100000D01*
X33550000Y-39033333D01*
X33450000Y-38933333D01*
X33383333Y-38900000D01*
X33316666Y-38900000D01*
X33350000Y-39066666D02*
X33283333Y-39033333D01*
X33216666Y-38966666D01*
X33183333Y-38833333D01*
X33183333Y-38600000D01*
X33216666Y-38466666D01*
X33283333Y-38400000D01*
X33350000Y-38366666D01*
X33483333Y-38366666D01*
X33550000Y-38400000D01*
X33616666Y-38466666D01*
X33650000Y-38600000D01*
X33650000Y-38833333D01*
X33616666Y-38966666D01*
X33550000Y-39033333D01*
X33483333Y-39066666D01*
X33350000Y-39066666D01*
X34283333Y-38366666D02*
X33950000Y-38366666D01*
X33916666Y-38700000D01*
X33950000Y-38666666D01*
X34016666Y-38633333D01*
X34183333Y-38633333D01*
X34250000Y-38666666D01*
X34283333Y-38700000D01*
X34316666Y-38766666D01*
X34316666Y-38933333D01*
X34283333Y-39000000D01*
X34250000Y-39033333D01*
X34183333Y-39066666D01*
X34016666Y-39066666D01*
X33950000Y-39033333D01*
X33916666Y-39000000D01*
%TO.C,J16*%
X78033333Y-51716666D02*
X78033333Y-52216666D01*
X78000000Y-52316666D01*
X77933333Y-52383333D01*
X77833333Y-52416666D01*
X77766666Y-52416666D01*
X78733333Y-52416666D02*
X78333333Y-52416666D01*
X78533333Y-52416666D02*
X78533333Y-51716666D01*
X78466666Y-51816666D01*
X78400000Y-51883333D01*
X78333333Y-51916666D01*
X79333333Y-51716666D02*
X79200000Y-51716666D01*
X79133333Y-51750000D01*
X79100000Y-51783333D01*
X79033333Y-51883333D01*
X79000000Y-52016666D01*
X79000000Y-52283333D01*
X79033333Y-52350000D01*
X79066666Y-52383333D01*
X79133333Y-52416666D01*
X79266666Y-52416666D01*
X79333333Y-52383333D01*
X79366666Y-52350000D01*
X79400000Y-52283333D01*
X79400000Y-52116666D01*
X79366666Y-52050000D01*
X79333333Y-52016666D01*
X79266666Y-51983333D01*
X79133333Y-51983333D01*
X79066666Y-52016666D01*
X79033333Y-52050000D01*
X79000000Y-52116666D01*
%TO.C,U1*%
X29266666Y-75043332D02*
X29833333Y-75043332D01*
X29900000Y-75009999D01*
X29933333Y-74976665D01*
X29966666Y-74909999D01*
X29966666Y-74776665D01*
X29933333Y-74709999D01*
X29900000Y-74676665D01*
X29833333Y-74643332D01*
X29266666Y-74643332D01*
X29966666Y-73943332D02*
X29966666Y-74343332D01*
X29966666Y-74143332D02*
X29266666Y-74143332D01*
X29366666Y-74209999D01*
X29433333Y-74276665D01*
X29466666Y-74343332D01*
%TO.C,Q3*%
X41133333Y-83833333D02*
X41066666Y-83800000D01*
X41000000Y-83733333D01*
X40900000Y-83633333D01*
X40833333Y-83600000D01*
X40766666Y-83600000D01*
X40800000Y-83766666D02*
X40733333Y-83733333D01*
X40666666Y-83666666D01*
X40633333Y-83533333D01*
X40633333Y-83300000D01*
X40666666Y-83166666D01*
X40733333Y-83100000D01*
X40800000Y-83066666D01*
X40933333Y-83066666D01*
X41000000Y-83100000D01*
X41066666Y-83166666D01*
X41100000Y-83300000D01*
X41100000Y-83533333D01*
X41066666Y-83666666D01*
X41000000Y-83733333D01*
X40933333Y-83766666D01*
X40800000Y-83766666D01*
X41333333Y-83066666D02*
X41766666Y-83066666D01*
X41533333Y-83333333D01*
X41633333Y-83333333D01*
X41700000Y-83366666D01*
X41733333Y-83400000D01*
X41766666Y-83466666D01*
X41766666Y-83633333D01*
X41733333Y-83700000D01*
X41700000Y-83733333D01*
X41633333Y-83766666D01*
X41433333Y-83766666D01*
X41366666Y-83733333D01*
X41333333Y-83700000D01*
%TO.C,J10*%
X80433333Y-69716666D02*
X80433333Y-70216666D01*
X80400000Y-70316666D01*
X80333333Y-70383333D01*
X80233333Y-70416666D01*
X80166666Y-70416666D01*
X81133333Y-70416666D02*
X80733333Y-70416666D01*
X80933333Y-70416666D02*
X80933333Y-69716666D01*
X80866666Y-69816666D01*
X80800000Y-69883333D01*
X80733333Y-69916666D01*
X81566666Y-69716666D02*
X81633333Y-69716666D01*
X81700000Y-69750000D01*
X81733333Y-69783333D01*
X81766666Y-69850000D01*
X81800000Y-69983333D01*
X81800000Y-70150000D01*
X81766666Y-70283333D01*
X81733333Y-70350000D01*
X81700000Y-70383333D01*
X81633333Y-70416666D01*
X81566666Y-70416666D01*
X81500000Y-70383333D01*
X81466666Y-70350000D01*
X81433333Y-70283333D01*
X81400000Y-70150000D01*
X81400000Y-69983333D01*
X81433333Y-69850000D01*
X81466666Y-69783333D01*
X81500000Y-69750000D01*
X81566666Y-69716666D01*
%TO.C,C4*%
X33683333Y-86000000D02*
X33650000Y-86033333D01*
X33550000Y-86066666D01*
X33483333Y-86066666D01*
X33383333Y-86033333D01*
X33316666Y-85966666D01*
X33283333Y-85900000D01*
X33250000Y-85766666D01*
X33250000Y-85666666D01*
X33283333Y-85533333D01*
X33316666Y-85466666D01*
X33383333Y-85400000D01*
X33483333Y-85366666D01*
X33550000Y-85366666D01*
X33650000Y-85400000D01*
X33683333Y-85433333D01*
X34283333Y-85600000D02*
X34283333Y-86066666D01*
X34116666Y-85333333D02*
X33950000Y-85833333D01*
X34383333Y-85833333D01*
%TO.C,R19*%
X38896666Y-38297107D02*
X38563333Y-38530440D01*
X38896666Y-38697107D02*
X38196666Y-38697107D01*
X38196666Y-38430440D01*
X38230000Y-38363773D01*
X38263333Y-38330440D01*
X38330000Y-38297107D01*
X38430000Y-38297107D01*
X38496666Y-38330440D01*
X38530000Y-38363773D01*
X38563333Y-38430440D01*
X38563333Y-38697107D01*
X38896666Y-37630440D02*
X38896666Y-38030440D01*
X38896666Y-37830440D02*
X38196666Y-37830440D01*
X38296666Y-37897107D01*
X38363333Y-37963773D01*
X38396666Y-38030440D01*
X38896666Y-37297107D02*
X38896666Y-37163773D01*
X38863333Y-37097107D01*
X38830000Y-37063773D01*
X38730000Y-36997107D01*
X38596666Y-36963773D01*
X38330000Y-36963773D01*
X38263333Y-36997107D01*
X38230000Y-37030440D01*
X38196666Y-37097107D01*
X38196666Y-37230440D01*
X38230000Y-37297107D01*
X38263333Y-37330440D01*
X38330000Y-37363773D01*
X38496666Y-37363773D01*
X38563333Y-37330440D01*
X38596666Y-37297107D01*
X38630000Y-37230440D01*
X38630000Y-37097107D01*
X38596666Y-37030440D01*
X38563333Y-36997107D01*
X38496666Y-36963773D01*
%TO.C,C6*%
X29610000Y-72326666D02*
X29643333Y-72360000D01*
X29676666Y-72460000D01*
X29676666Y-72526666D01*
X29643333Y-72626666D01*
X29576666Y-72693333D01*
X29510000Y-72726666D01*
X29376666Y-72760000D01*
X29276666Y-72760000D01*
X29143333Y-72726666D01*
X29076666Y-72693333D01*
X29010000Y-72626666D01*
X28976666Y-72526666D01*
X28976666Y-72460000D01*
X29010000Y-72360000D01*
X29043333Y-72326666D01*
X28976666Y-71726666D02*
X28976666Y-71860000D01*
X29010000Y-71926666D01*
X29043333Y-71960000D01*
X29143333Y-72026666D01*
X29276666Y-72060000D01*
X29543333Y-72060000D01*
X29610000Y-72026666D01*
X29643333Y-71993333D01*
X29676666Y-71926666D01*
X29676666Y-71793333D01*
X29643333Y-71726666D01*
X29610000Y-71693333D01*
X29543333Y-71660000D01*
X29376666Y-71660000D01*
X29310000Y-71693333D01*
X29276666Y-71726666D01*
X29243333Y-71793333D01*
X29243333Y-71926666D01*
X29276666Y-71993333D01*
X29310000Y-72026666D01*
X29376666Y-72060000D01*
%TO.C,D3*%
X46936666Y-71946666D02*
X46236666Y-71946666D01*
X46236666Y-71780000D01*
X46270000Y-71680000D01*
X46336666Y-71613333D01*
X46403333Y-71580000D01*
X46536666Y-71546666D01*
X46636666Y-71546666D01*
X46770000Y-71580000D01*
X46836666Y-71613333D01*
X46903333Y-71680000D01*
X46936666Y-71780000D01*
X46936666Y-71946666D01*
X46236666Y-71313333D02*
X46236666Y-70880000D01*
X46503333Y-71113333D01*
X46503333Y-71013333D01*
X46536666Y-70946666D01*
X46570000Y-70913333D01*
X46636666Y-70880000D01*
X46803333Y-70880000D01*
X46870000Y-70913333D01*
X46903333Y-70946666D01*
X46936666Y-71013333D01*
X46936666Y-71213333D01*
X46903333Y-71280000D01*
X46870000Y-71313333D01*
D10*
%TO.C,J20*%
X9990476Y-35252380D02*
X9990476Y-35966666D01*
X9942857Y-36109523D01*
X9847619Y-36204761D01*
X9704761Y-36252380D01*
X9609523Y-36252380D01*
X10419047Y-35347619D02*
X10466666Y-35300000D01*
X10561904Y-35252380D01*
X10800000Y-35252380D01*
X10895238Y-35300000D01*
X10942857Y-35347619D01*
X10990476Y-35442857D01*
X10990476Y-35538095D01*
X10942857Y-35680952D01*
X10371428Y-36252380D01*
X10990476Y-36252380D01*
X11609523Y-35252380D02*
X11704761Y-35252380D01*
X11800000Y-35300000D01*
X11847619Y-35347619D01*
X11895238Y-35442857D01*
X11942857Y-35633333D01*
X11942857Y-35871428D01*
X11895238Y-36061904D01*
X11847619Y-36157142D01*
X11800000Y-36204761D01*
X11704761Y-36252380D01*
X11609523Y-36252380D01*
X11514285Y-36204761D01*
X11466666Y-36157142D01*
X11419047Y-36061904D01*
X11371428Y-35871428D01*
X11371428Y-35633333D01*
X11419047Y-35442857D01*
X11466666Y-35347619D01*
X11514285Y-35300000D01*
X11609523Y-35252380D01*
D12*
%TO.C,C5*%
X37060000Y-73730580D02*
X37060000Y-73449420D01*
X36040000Y-73730580D02*
X36040000Y-73449420D01*
%TO.C,JP6*%
X44095000Y-42055000D02*
X44095000Y-36915000D01*
X46755000Y-43325000D02*
X46755000Y-44655000D01*
X46755000Y-36915000D02*
X44095000Y-36915000D01*
X46755000Y-44655000D02*
X45425000Y-44655000D01*
X46755000Y-42055000D02*
X44095000Y-42055000D01*
X46755000Y-42055000D02*
X46755000Y-36915000D01*
%TO.C,R4*%
X21637258Y-58677500D02*
X21162742Y-58677500D01*
X21637258Y-59722500D02*
X21162742Y-59722500D01*
%TO.C,J12*%
X54505000Y-33565000D02*
X54505000Y-20535000D01*
X54005000Y-33565000D02*
X54505000Y-33565000D01*
X54005000Y-34985000D02*
X54005000Y-33565000D01*
X54005000Y-19115000D02*
X59765000Y-19115000D01*
X54505000Y-20535000D02*
X54005000Y-20535000D01*
X59765000Y-34985000D02*
X54005000Y-34985000D01*
X61285000Y-34985000D02*
X61595000Y-34985000D01*
X61595000Y-34985000D02*
X61595000Y-19115000D01*
X54005000Y-20535000D02*
X54005000Y-19115000D01*
X61595000Y-19115000D02*
X61285000Y-19115000D01*
%TO.C,JP3*%
X44070000Y-51345000D02*
X46730000Y-51345000D01*
X44070000Y-56485000D02*
X46730000Y-56485000D01*
X46730000Y-51345000D02*
X46730000Y-56485000D01*
X44070000Y-48745000D02*
X45400000Y-48745000D01*
X44070000Y-51345000D02*
X44070000Y-56485000D01*
X44070000Y-50075000D02*
X44070000Y-48745000D01*
%TO.C,C2*%
X50610000Y-73333473D02*
X50610000Y-73052313D01*
X49590000Y-73333473D02*
X49590000Y-73052313D01*
%TO.C,R5*%
X64577500Y-78430151D02*
X64577500Y-77955635D01*
X65622500Y-78430151D02*
X65622500Y-77955635D01*
%TO.C,K1*%
X24382200Y-31900000D02*
X24050000Y-31750000D01*
X25200000Y-26850000D02*
X25200000Y-27932800D01*
X26000000Y-31900000D02*
X26700000Y-31900000D01*
D10*
X25250000Y-28450000D02*
X25900000Y-32300000D01*
D12*
X35950000Y-25400000D02*
X35300000Y-25400000D01*
X20725000Y-23710000D02*
X20725000Y-34710000D01*
X39280000Y-34710000D02*
X20725000Y-34710000D01*
X35300000Y-33025000D02*
X35950000Y-33025000D01*
X39280000Y-23710000D02*
X20725000Y-23710000D01*
X24382200Y-31900000D02*
X23350000Y-31900000D01*
X35300000Y-30700000D02*
X35300000Y-33020000D01*
X35300000Y-25400000D02*
X35300000Y-27700000D01*
X26000000Y-31900000D02*
X26332200Y-32050000D01*
X26000000Y-31900000D02*
X26332200Y-31750000D01*
X35810000Y-28695000D02*
X34790000Y-29705000D01*
X39280000Y-23710000D02*
X39280000Y-34710000D01*
X24382200Y-31900000D02*
X24050000Y-32050000D01*
X35800000Y-30700000D02*
X34800000Y-30700000D01*
X34800000Y-30700000D02*
X34800000Y-27700000D01*
X34800000Y-27700000D02*
X35800000Y-27700000D01*
X35800000Y-27700000D02*
X35800000Y-30700000D01*
X25454000Y-28200000D02*
G75*
G03*
X25454000Y-28200000I-254000J0D01*
G01*
%TO.C,J13*%
X82668381Y-27288381D02*
X76348381Y-27288381D01*
X76848381Y-27048381D02*
X76108381Y-27048381D01*
X82668381Y-38028381D02*
X76348381Y-38028381D01*
X82668381Y-27288381D02*
X82668381Y-38028381D01*
X82208381Y-27288381D02*
X82208381Y-38028381D01*
X76348381Y-27288381D02*
X76348381Y-38028381D01*
X76108381Y-27048381D02*
X76108381Y-27548381D01*
X76908381Y-27288381D02*
X76908381Y-38028381D01*
%TO.C,J18*%
X73170000Y-61390000D02*
X73170000Y-55370000D01*
X71540000Y-59860000D02*
X71790000Y-60390000D01*
X70990000Y-55370000D02*
X70990000Y-55970000D01*
X68450000Y-55370000D02*
X68450000Y-55970000D01*
X65330000Y-61390000D02*
X73170000Y-61390000D01*
X65910000Y-55970000D02*
X67510000Y-55970000D01*
X70990000Y-55970000D02*
X72590000Y-55970000D01*
X66710000Y-60390000D02*
X71790000Y-60390000D01*
X66960000Y-61390000D02*
X66960000Y-60390000D01*
X65910000Y-55370000D02*
X65910000Y-55970000D01*
X67510000Y-55970000D02*
X67510000Y-55370000D01*
X65330000Y-55370000D02*
X65330000Y-61390000D01*
X71540000Y-61390000D02*
X71540000Y-60390000D01*
X65040000Y-56400000D02*
X65040000Y-60400000D01*
X71790000Y-60390000D02*
X71790000Y-61390000D01*
X73170000Y-55370000D02*
X65330000Y-55370000D01*
X66960000Y-59860000D02*
X71540000Y-59860000D01*
X66710000Y-60390000D02*
X66960000Y-59860000D01*
X72590000Y-55970000D02*
X72590000Y-55370000D01*
X66710000Y-61390000D02*
X66710000Y-60390000D01*
X68450000Y-55970000D02*
X70050000Y-55970000D01*
X70050000Y-55970000D02*
X70050000Y-55370000D01*
%TO.C,Q4*%
X36990000Y-43957107D02*
X36990000Y-44607107D01*
X40110000Y-43957107D02*
X40110000Y-44607107D01*
X40110000Y-43957107D02*
X40110000Y-42282107D01*
X36990000Y-43957107D02*
X36990000Y-43307107D01*
%TO.C,D2*%
X47600000Y-72592893D02*
X47600000Y-74442893D01*
X48800000Y-72592893D02*
X48800000Y-74442893D01*
X47600000Y-74442893D02*
X48800000Y-74442893D01*
%TO.C,JP5*%
X71530000Y-36443380D02*
X71530000Y-31303380D01*
X71530000Y-31303380D02*
X68870000Y-31303380D01*
X71530000Y-37713380D02*
X71530000Y-39043380D01*
X71530000Y-36443380D02*
X68870000Y-36443380D01*
X68870000Y-36443380D02*
X68870000Y-31303380D01*
X71530000Y-39043380D02*
X70200000Y-39043380D01*
%TO.C,R8*%
X18477500Y-59662742D02*
X18477500Y-60137258D01*
X19522500Y-59662742D02*
X19522500Y-60137258D01*
%TO.C,JP4*%
X71530000Y-25650000D02*
X71530000Y-26980000D01*
X71530000Y-19240000D02*
X68870000Y-19240000D01*
X71530000Y-24380000D02*
X71530000Y-19240000D01*
X71530000Y-24380000D02*
X68870000Y-24380000D01*
X68870000Y-24380000D02*
X68870000Y-19240000D01*
X71530000Y-26980000D02*
X70200000Y-26980000D01*
%TO.C,JP1*%
X66470000Y-77822893D02*
X66470000Y-76492893D01*
X67800000Y-77822893D02*
X66470000Y-77822893D01*
X69070000Y-75222893D02*
X66470000Y-75222893D01*
X69070000Y-77822893D02*
X69130000Y-77822893D01*
X69130000Y-77822893D02*
X69130000Y-72622893D01*
X66470000Y-72622893D02*
X69130000Y-72622893D01*
X69070000Y-77822893D02*
X69070000Y-75222893D01*
X66470000Y-75222893D02*
X66470000Y-72622893D01*
%TO.C,D6*%
X25250000Y-68210000D02*
X25250000Y-73610000D01*
X28550000Y-68210000D02*
X25250000Y-68210000D01*
X28550000Y-68210000D02*
X28550000Y-73610000D01*
D10*
X28350000Y-73560000D02*
G75*
G03*
X28350000Y-73560000I-75000J0D01*
G01*
D12*
%TO.C,J14*%
X54005000Y-37915000D02*
X59765000Y-37915000D01*
X59765000Y-53785000D02*
X54005000Y-53785000D01*
X54005000Y-52365000D02*
X54505000Y-52365000D01*
X61595000Y-53785000D02*
X61595000Y-37915000D01*
X61285000Y-53785000D02*
X61595000Y-53785000D01*
X54005000Y-53785000D02*
X54005000Y-52365000D01*
X54505000Y-39335000D02*
X54005000Y-39335000D01*
X54505000Y-52365000D02*
X54505000Y-39335000D01*
X61595000Y-37915000D02*
X61285000Y-37915000D01*
X54005000Y-39335000D02*
X54005000Y-37915000D01*
%TO.C,JP2*%
X61995000Y-12470000D02*
X64595000Y-12470000D01*
X64595000Y-15130000D02*
X64595000Y-12470000D01*
X61995000Y-15130000D02*
X64595000Y-15130000D01*
X59395000Y-15130000D02*
X59395000Y-13800000D01*
X60725000Y-15130000D02*
X59395000Y-15130000D01*
X61995000Y-15130000D02*
X61995000Y-12470000D01*
%TO.C,Q2*%
X22830000Y-69570000D02*
X22830000Y-70670000D01*
X16200000Y-69570000D02*
X16470000Y-69570000D01*
X16200000Y-68070000D02*
X16200000Y-69570000D01*
X23100000Y-69570000D02*
X22830000Y-69570000D01*
X23100000Y-68070000D02*
X23100000Y-69570000D01*
X16470000Y-69570000D02*
X16470000Y-72400000D01*
%TO.C,C7*%
X40615000Y-59213748D02*
X40615000Y-60636252D01*
X42435000Y-59213748D02*
X42435000Y-60636252D01*
%TO.C,L1*%
X38850000Y-55110000D02*
X38850000Y-58110000D01*
X26250000Y-55110000D02*
X38850000Y-55110000D01*
X38850000Y-67710000D02*
X26250000Y-67710000D01*
X26250000Y-67710000D02*
X26250000Y-64710000D01*
X26250000Y-58110000D02*
X26250000Y-55110000D01*
X38850000Y-64710000D02*
X38850000Y-67710000D01*
%TO.C,D5*%
X46350000Y-81550000D02*
X48200000Y-81550000D01*
X48200000Y-82750000D02*
X48200000Y-81550000D01*
X46350000Y-82750000D02*
X48200000Y-82750000D01*
%TO.C,R12*%
X37072500Y-70012742D02*
X37072500Y-70487258D01*
X36027500Y-70012742D02*
X36027500Y-70487258D01*
%TO.C,R7*%
X21162742Y-61222500D02*
X21637258Y-61222500D01*
X21162742Y-60177500D02*
X21637258Y-60177500D01*
%TO.C,J6*%
X82665000Y-82337893D02*
X82665000Y-72057893D01*
X79028000Y-75884893D02*
X79074000Y-75931893D01*
X79244000Y-75691893D02*
X79279000Y-75726893D01*
X82905000Y-82577893D02*
X82905000Y-82077893D01*
X76730000Y-73587893D02*
X76766000Y-73622893D01*
X72744000Y-82337893D02*
X82665000Y-82337893D01*
X82105000Y-82337893D02*
X82105000Y-72057893D01*
X75704000Y-82337893D02*
X75704000Y-72057893D01*
X80605000Y-82337893D02*
X80605000Y-72057893D01*
X76936000Y-73382893D02*
X76982000Y-73429893D01*
X72744000Y-82337893D02*
X72744000Y-72057893D01*
X72744000Y-72057893D02*
X82665000Y-72057893D01*
X82165000Y-82577893D02*
X82905000Y-82577893D01*
X77321000Y-81272893D02*
G75*
G03*
X78688042Y-81273320I684001J1534993D01*
G01*
X79540000Y-80421893D02*
G75*
G03*
X79685253Y-79709088I-1535001J683999D01*
G01*
X78689000Y-78202892D02*
G75*
G03*
X77321958Y-78202466I-684000J-1535001D01*
G01*
X79685000Y-79737893D02*
G75*
G03*
X79539756Y-79054575I-1680000J0D01*
G01*
X76470000Y-79053893D02*
G75*
G03*
X76469573Y-80420935I1534993J-684001D01*
G01*
X79685000Y-74657893D02*
G75*
G03*
X79685000Y-74657893I-1680000J0D01*
G01*
%TO.C,J5*%
X62315000Y-74312893D02*
X63735000Y-74312893D01*
X63735000Y-74312893D02*
X63735000Y-80072893D01*
X53865000Y-81902893D02*
X63735000Y-81902893D01*
X53865000Y-81592893D02*
X53865000Y-81902893D01*
X55285000Y-74812893D02*
X62315000Y-74812893D01*
X53865000Y-80072893D02*
X53865000Y-74312893D01*
X62315000Y-74812893D02*
X62315000Y-74312893D01*
X55285000Y-74312893D02*
X55285000Y-74812893D01*
X63735000Y-81902893D02*
X63735000Y-81592893D01*
X53865000Y-74312893D02*
X55285000Y-74312893D01*
%TO.C,C8*%
X43345563Y-69090000D02*
X44410000Y-70154437D01*
X39712500Y-68425000D02*
X38925000Y-68425000D01*
X38654437Y-69090000D02*
X37590000Y-70154437D01*
X39318750Y-68031250D02*
X39318750Y-68818750D01*
X44410000Y-75910000D02*
X42060000Y-75910000D01*
X37590000Y-75910000D02*
X39940000Y-75910000D01*
X43345563Y-69090000D02*
X42060000Y-69090000D01*
X37590000Y-70154437D02*
X37590000Y-75910000D01*
X44410000Y-70154437D02*
X44410000Y-75910000D01*
X38654437Y-69090000D02*
X39940000Y-69090000D01*
D10*
X39975000Y-69850000D02*
G75*
G03*
X39975000Y-69850000I-75000J0D01*
G01*
D12*
%TO.C,R9*%
X21162742Y-56722500D02*
X21637258Y-56722500D01*
X21162742Y-55677500D02*
X21637258Y-55677500D01*
%TO.C,C1*%
X43890000Y-65784420D02*
X43890000Y-66065580D01*
X44910000Y-65784420D02*
X44910000Y-66065580D01*
%TO.C,D7*%
X41750000Y-24250000D02*
X40050000Y-24250000D01*
X40050000Y-24250000D02*
X40050000Y-26800000D01*
X41750000Y-24250000D02*
X41750000Y-26800000D01*
D10*
X41600000Y-26700000D02*
G75*
G03*
X41600000Y-26700000I-75000J0D01*
G01*
D12*
%TO.C,J8*%
X7540000Y-56370000D02*
X7540000Y-57140000D01*
X13400000Y-56370000D02*
X13400000Y-62030000D01*
X8040000Y-56130000D02*
X7300000Y-56130000D01*
X7300000Y-56130000D02*
X7300000Y-56630000D01*
X13860000Y-62030000D02*
X7540000Y-62030000D01*
X8100000Y-61260000D02*
X8100000Y-62030000D01*
X8100000Y-56370000D02*
X8100000Y-57140000D01*
X13860000Y-56370000D02*
X13860000Y-62030000D01*
X13860000Y-56370000D02*
X7540000Y-56370000D01*
X8100000Y-58720000D02*
X8100000Y-59680000D01*
X7540000Y-58720000D02*
X7540000Y-59680000D01*
X7540000Y-61260000D02*
X7540000Y-62030000D01*
%TO.C,R18*%
X39667500Y-40594365D02*
X39667500Y-40119849D01*
X40712500Y-40594365D02*
X40712500Y-40119849D01*
%TO.C,R11*%
X41312742Y-78572500D02*
X41787258Y-78572500D01*
X41312742Y-77527500D02*
X41787258Y-77527500D01*
%TO.C,JP7*%
X46755000Y-34830000D02*
X45425000Y-34830000D01*
X46755000Y-32230000D02*
X46755000Y-27090000D01*
X44095000Y-32230000D02*
X44095000Y-27090000D01*
X46755000Y-33500000D02*
X46755000Y-34830000D01*
X46755000Y-32230000D02*
X44095000Y-32230000D01*
X46755000Y-27090000D02*
X44095000Y-27090000D01*
%TO.C,J11*%
X76908381Y-14235001D02*
X76908381Y-24975001D01*
X82208381Y-14235001D02*
X82208381Y-24975001D01*
X82668381Y-24975001D02*
X76348381Y-24975001D01*
X76848381Y-13995001D02*
X76108381Y-13995001D01*
X76108381Y-13995001D02*
X76108381Y-14495001D01*
X82668381Y-14235001D02*
X76348381Y-14235001D01*
X82668381Y-14235001D02*
X82668381Y-24975001D01*
X76348381Y-14235001D02*
X76348381Y-24975001D01*
%TO.C,R10*%
X45322500Y-81587258D02*
X45322500Y-81112742D01*
X44277500Y-81587258D02*
X44277500Y-81112742D01*
%TO.C,J3*%
X48770000Y-67060000D02*
X48770000Y-11120000D01*
X51430000Y-68330000D02*
X51430000Y-69660000D01*
X51430000Y-67060000D02*
X51430000Y-11120000D01*
X51430000Y-69660000D02*
X50100000Y-69660000D01*
X51430000Y-67060000D02*
X48770000Y-67060000D01*
X51430000Y-11120000D02*
X48770000Y-11120000D01*
%TO.C,R20*%
X35747742Y-37624607D02*
X36222258Y-37624607D01*
X35747742Y-36579607D02*
X36222258Y-36579607D01*
%TO.C,R6*%
X45322500Y-77762742D02*
X45322500Y-78237258D01*
X44277500Y-77762742D02*
X44277500Y-78237258D01*
%TO.C,J19*%
X65910000Y-64970000D02*
X65910000Y-65570000D01*
X71790000Y-69990000D02*
X71790000Y-70990000D01*
X65330000Y-64970000D02*
X65330000Y-70990000D01*
X66710000Y-70990000D02*
X66710000Y-69990000D01*
X66960000Y-70990000D02*
X66960000Y-69990000D01*
X73170000Y-64970000D02*
X65330000Y-64970000D01*
X73170000Y-70990000D02*
X73170000Y-64970000D01*
X67510000Y-65570000D02*
X67510000Y-64970000D01*
X72590000Y-65570000D02*
X72590000Y-64970000D01*
X71540000Y-69460000D02*
X71790000Y-69990000D01*
X66960000Y-69460000D02*
X71540000Y-69460000D01*
X70990000Y-64970000D02*
X70990000Y-65570000D01*
X66710000Y-69990000D02*
X71790000Y-69990000D01*
X65040000Y-66000000D02*
X65040000Y-70000000D01*
X68450000Y-64970000D02*
X68450000Y-65570000D01*
X71540000Y-70990000D02*
X71540000Y-69990000D01*
X70050000Y-65570000D02*
X70050000Y-64970000D01*
X70990000Y-65570000D02*
X72590000Y-65570000D01*
X65330000Y-70990000D02*
X73170000Y-70990000D01*
X65910000Y-65570000D02*
X67510000Y-65570000D01*
X66710000Y-69990000D02*
X66960000Y-69460000D01*
X68450000Y-65570000D02*
X70050000Y-65570000D01*
%TO.C,D4*%
X48200000Y-81150000D02*
X48200000Y-79950000D01*
X46350000Y-81150000D02*
X48200000Y-81150000D01*
X46350000Y-79950000D02*
X48200000Y-79950000D01*
D18*
%TO.C,J4*%
X16400000Y-53500000D02*
X18400000Y-53500000D01*
X21400000Y-53500000D02*
X26400000Y-53500000D01*
X26400000Y-37500000D02*
X21400000Y-37500000D01*
X29800000Y-52150000D02*
X29800000Y-38850000D01*
D12*
%TO.C,C3*%
X21540580Y-57190000D02*
X21259420Y-57190000D01*
X21540580Y-58210000D02*
X21259420Y-58210000D01*
%TO.C,D1*%
X46037500Y-69937500D02*
X46037500Y-71787500D01*
X44837500Y-69937500D02*
X44837500Y-71787500D01*
X44837500Y-71787500D02*
X46037500Y-71787500D01*
%TO.C,J17*%
X54005000Y-71165000D02*
X54505000Y-71165000D01*
X61595000Y-56715000D02*
X61285000Y-56715000D01*
X54005000Y-56715000D02*
X59765000Y-56715000D01*
X59765000Y-72585000D02*
X54005000Y-72585000D01*
X54005000Y-58135000D02*
X54005000Y-56715000D01*
X54505000Y-58135000D02*
X54005000Y-58135000D01*
X54005000Y-72585000D02*
X54005000Y-71165000D01*
X61595000Y-72585000D02*
X61595000Y-56715000D01*
X61285000Y-72585000D02*
X61595000Y-72585000D01*
X54505000Y-71165000D02*
X54505000Y-58135000D01*
%TO.C,JP8*%
X71530000Y-50240000D02*
X70200000Y-50240000D01*
X68870000Y-47640000D02*
X68870000Y-42500000D01*
X71530000Y-47640000D02*
X71530000Y-42500000D01*
X71530000Y-48910000D02*
X71530000Y-50240000D01*
X71530000Y-42500000D02*
X68870000Y-42500000D01*
X71530000Y-47640000D02*
X68870000Y-47640000D01*
%TO.C,Q1*%
X47700000Y-76440000D02*
X48350000Y-76440000D01*
X47700000Y-76440000D02*
X46025000Y-76440000D01*
X47700000Y-79560000D02*
X48350000Y-79560000D01*
X47700000Y-79560000D02*
X47050000Y-79560000D01*
%TO.C,J15*%
X13860000Y-73800000D02*
X7540000Y-73800000D01*
X8040000Y-62820000D02*
X7300000Y-62820000D01*
X13860000Y-63060000D02*
X13860000Y-73800000D01*
X13400000Y-63060000D02*
X13400000Y-73800000D01*
X13860000Y-63060000D02*
X7540000Y-63060000D01*
X8100000Y-63060000D02*
X8100000Y-73800000D01*
X7540000Y-63060000D02*
X7540000Y-73800000D01*
X7300000Y-62820000D02*
X7300000Y-63320000D01*
%TO.C,R2*%
X47947500Y-66162258D02*
X47947500Y-65687742D01*
X46902500Y-66162258D02*
X46902500Y-65687742D01*
%TO.C,R3*%
X47537258Y-75922500D02*
X47062742Y-75922500D01*
X47537258Y-74877500D02*
X47062742Y-74877500D01*
%TO.C,Q5*%
X34390000Y-39957107D02*
X34390000Y-40607107D01*
X37510000Y-39957107D02*
X37510000Y-38282107D01*
X34390000Y-39957107D02*
X34390000Y-39307107D01*
X37510000Y-39957107D02*
X37510000Y-40607107D01*
D10*
X36975000Y-38007107D02*
G75*
G03*
X36975000Y-38007107I-75000J0D01*
G01*
D12*
%TO.C,J16*%
X76348381Y-40585001D02*
X76348381Y-51325001D01*
X82668381Y-40585001D02*
X76348381Y-40585001D01*
X82668381Y-51325001D02*
X76348381Y-51325001D01*
X76908381Y-40585001D02*
X76908381Y-51325001D01*
X82668381Y-40585001D02*
X82668381Y-51325001D01*
X76108381Y-40345001D02*
X76108381Y-40845001D01*
X76848381Y-40345001D02*
X76108381Y-40345001D01*
X82208381Y-40585001D02*
X82208381Y-51325001D01*
%TO.C,U1*%
X35510000Y-71959999D02*
X35510000Y-70009999D01*
X30390000Y-71959999D02*
X30390000Y-70009999D01*
X35510000Y-71959999D02*
X35510000Y-73909999D01*
X30390000Y-71959999D02*
X30390000Y-75409999D01*
%TO.C,Q3*%
X43160000Y-80800000D02*
X43160000Y-79125000D01*
X40040000Y-80800000D02*
X40040000Y-81450000D01*
X43160000Y-80800000D02*
X43160000Y-81450000D01*
X40040000Y-80800000D02*
X40040000Y-80150000D01*
D10*
X42625000Y-78850000D02*
G75*
G03*
X42625000Y-78850000I-75000J0D01*
G01*
D12*
%TO.C,J10*%
X82200000Y-53690000D02*
X82200000Y-69510000D01*
X76900000Y-53690000D02*
X76900000Y-69510000D01*
X82660000Y-69510000D02*
X76340000Y-69510000D01*
X76840000Y-53450000D02*
X76100000Y-53450000D01*
X82660000Y-53690000D02*
X76340000Y-53690000D01*
X76100000Y-53450000D02*
X76100000Y-53950000D01*
X76340000Y-53690000D02*
X76340000Y-69510000D01*
X82660000Y-53690000D02*
X82660000Y-69510000D01*
%TO.C,C4*%
X28500000Y-77750000D02*
X28500000Y-78750000D01*
X29240000Y-77464437D02*
X29240000Y-79250000D01*
X29240000Y-84055563D02*
X29240000Y-82270000D01*
X29240000Y-84055563D02*
X30304437Y-85120000D01*
X30304437Y-85120000D02*
X37960000Y-85120000D01*
X37960000Y-76400000D02*
X37960000Y-79250000D01*
X28000000Y-78250000D02*
X29000000Y-78250000D01*
X37960000Y-85120000D02*
X37960000Y-82270000D01*
X29240000Y-77464437D02*
X30304437Y-76400000D01*
X30304437Y-76400000D02*
X37960000Y-76400000D01*
D10*
X30075000Y-82310000D02*
G75*
G03*
X30075000Y-82310000I-75000J0D01*
G01*
D12*
%TO.C,R19*%
X39072500Y-40119849D02*
X39072500Y-40594365D01*
X38027500Y-40119849D02*
X38027500Y-40594365D01*
%TO.C,C6*%
X28940000Y-69900579D02*
X28940000Y-69619419D01*
X29960000Y-69900579D02*
X29960000Y-69619419D01*
%TO.C,D3*%
X47000000Y-72592893D02*
X47000000Y-74442893D01*
X45800000Y-74442893D02*
X47000000Y-74442893D01*
X45800000Y-72592893D02*
X45800000Y-74442893D01*
%TO.C,J20*%
X7540000Y-24234999D02*
X13860000Y-24234999D01*
X14100000Y-35214999D02*
X14100000Y-34714999D01*
X8000000Y-34974999D02*
X8000000Y-24234999D01*
X7540000Y-34974999D02*
X13860000Y-34974999D01*
X13360000Y-35214999D02*
X14100000Y-35214999D01*
X13860000Y-34974999D02*
X13860000Y-24234999D01*
X13300000Y-34974999D02*
X13300000Y-24234999D01*
X7540000Y-34974999D02*
X7540000Y-24234999D01*
%TD*%
%LPC*%
D19*
%TO.C,C5*%
X36550000Y-74365000D03*
X36550000Y-72815000D03*
%TD*%
D20*
%TO.C,JP6*%
X45425000Y-43325000D03*
D21*
X45425000Y-40785000D03*
X45425000Y-38245000D03*
%TD*%
D22*
%TO.C,R4*%
X22225000Y-59200000D03*
X20575000Y-59200000D03*
%TD*%
D23*
%TO.C,J12*%
X60525000Y-34550000D03*
X60525000Y-19550000D03*
D24*
X56585000Y-31550000D03*
D25*
X56585000Y-28550000D03*
X56585000Y-25550000D03*
X56585000Y-22550000D03*
X59585000Y-31550000D03*
X59585000Y-28550000D03*
X59585000Y-25550000D03*
X59585000Y-22550000D03*
%TD*%
D20*
%TO.C,JP3*%
X45400000Y-50075000D03*
D21*
X45400000Y-52615000D03*
X45400000Y-55155000D03*
%TD*%
D19*
%TO.C,C2*%
X50100000Y-73967893D03*
X50100000Y-72417893D03*
%TD*%
D26*
%TO.C,R5*%
X65100000Y-79017893D03*
X65100000Y-77367893D03*
%TD*%
D27*
%TO.C,H7*%
X69500000Y-13992893D03*
%TD*%
D28*
%TO.C,K1*%
X37600000Y-33020000D03*
X22360000Y-33000000D03*
X24900000Y-25400000D03*
D29*
X37600000Y-25400000D03*
%TD*%
D30*
%TO.C,J13*%
X79508381Y-28848381D03*
D31*
X79508381Y-31388381D03*
X79508381Y-33928381D03*
X79508381Y-36468381D03*
%TD*%
D32*
%TO.C,J18*%
X66710000Y-58400000D03*
D33*
X69250000Y-58400000D03*
X71790000Y-58400000D03*
%TD*%
D34*
%TO.C,Q4*%
X39500000Y-43019607D03*
X37600000Y-43019607D03*
X38550000Y-44894607D03*
%TD*%
D35*
%TO.C,D2*%
X48200000Y-73992893D03*
X48200000Y-72592893D03*
%TD*%
D20*
%TO.C,JP5*%
X70200000Y-37713380D03*
D21*
X70200000Y-35173380D03*
X70200000Y-32633380D03*
%TD*%
D36*
%TO.C,R8*%
X19000000Y-59075000D03*
X19000000Y-60725000D03*
%TD*%
D20*
%TO.C,JP4*%
X70200000Y-25650000D03*
D21*
X70200000Y-23110000D03*
X70200000Y-20570000D03*
%TD*%
D20*
%TO.C,JP1*%
X67800000Y-76492893D03*
D21*
X67800000Y-73952893D03*
%TD*%
D37*
%TO.C,D6*%
X26900000Y-69610000D03*
X26900000Y-73610000D03*
%TD*%
D23*
%TO.C,J14*%
X60525000Y-53350000D03*
X60525000Y-38350000D03*
D24*
X56585000Y-50350000D03*
D25*
X56585000Y-47350000D03*
X56585000Y-44350000D03*
X56585000Y-41350000D03*
X59585000Y-50350000D03*
X59585000Y-47350000D03*
X59585000Y-44350000D03*
X59585000Y-41350000D03*
%TD*%
D20*
%TO.C,JP2*%
X60725000Y-13800000D03*
D21*
X63265000Y-13800000D03*
%TD*%
D38*
%TO.C,Q2*%
X17370000Y-71300000D03*
D39*
X19650000Y-65000000D03*
D38*
X21930000Y-71300000D03*
%TD*%
D40*
%TO.C,C7*%
X41525000Y-58450000D03*
X41525000Y-61400000D03*
%TD*%
D41*
%TO.C,L1*%
X27600000Y-61410000D03*
X37500000Y-61410000D03*
%TD*%
D42*
%TO.C,D5*%
X47750000Y-82150000D03*
X46350000Y-82150000D03*
%TD*%
D36*
%TO.C,R12*%
X36550000Y-69425000D03*
X36550000Y-71075000D03*
%TD*%
D43*
%TO.C,R7*%
X20575000Y-60700000D03*
X22225000Y-60700000D03*
%TD*%
D44*
%TO.C,J6*%
X78005000Y-79737893D03*
D45*
X78005000Y-74657893D03*
%TD*%
D23*
%TO.C,J5*%
X63300000Y-80832893D03*
X54300000Y-80832893D03*
D46*
X57300000Y-76892893D03*
D25*
X60300000Y-76892893D03*
X57300000Y-79892893D03*
X60300000Y-79892893D03*
%TD*%
D47*
%TO.C,C8*%
X41000000Y-69800000D03*
X41000000Y-75200000D03*
%TD*%
D43*
%TO.C,R9*%
X20575000Y-56200000D03*
X22225000Y-56200000D03*
%TD*%
D48*
%TO.C,C1*%
X44400000Y-65150000D03*
X44400000Y-66700000D03*
%TD*%
D49*
%TO.C,D7*%
X40900000Y-24700000D03*
X40900000Y-26800000D03*
%TD*%
D50*
%TO.C,J8*%
X8160000Y-57930000D03*
X8160000Y-60470000D03*
D30*
X10700000Y-57930000D03*
D31*
X10700000Y-60470000D03*
%TD*%
D26*
%TO.C,R18*%
X40190000Y-41182107D03*
X40190000Y-39532107D03*
%TD*%
D43*
%TO.C,R11*%
X40725000Y-78050000D03*
X42375000Y-78050000D03*
%TD*%
D20*
%TO.C,JP7*%
X45425000Y-33500000D03*
D21*
X45425000Y-30960000D03*
X45425000Y-28420000D03*
%TD*%
D30*
%TO.C,J11*%
X79508381Y-15795001D03*
D31*
X79508381Y-18335001D03*
X79508381Y-20875001D03*
X79508381Y-23415001D03*
%TD*%
D27*
%TO.C,H6*%
X24000000Y-83000000D03*
%TD*%
D26*
%TO.C,R10*%
X44800000Y-82175000D03*
X44800000Y-80525000D03*
%TD*%
D20*
%TO.C,J3*%
X50100000Y-68330000D03*
D21*
X50100000Y-65790000D03*
X50100000Y-63250000D03*
X50100000Y-60710000D03*
X50100000Y-58170000D03*
X50100000Y-55630000D03*
X50100000Y-53090000D03*
X50100000Y-50550000D03*
X50100000Y-48010000D03*
X50100000Y-45470000D03*
X50100000Y-42930000D03*
X50100000Y-40390000D03*
X50100000Y-37850000D03*
X50100000Y-35310000D03*
X50100000Y-32770000D03*
X50100000Y-30230000D03*
X50100000Y-27690000D03*
X50100000Y-25150000D03*
X50100000Y-22610000D03*
X50100000Y-20070000D03*
X50100000Y-17530000D03*
X50100000Y-14990000D03*
X50100000Y-12450000D03*
%TD*%
D43*
%TO.C,R20*%
X35160000Y-37102107D03*
X36810000Y-37102107D03*
%TD*%
D36*
%TO.C,R6*%
X44800000Y-77175000D03*
X44800000Y-78825000D03*
%TD*%
D32*
%TO.C,J19*%
X66710000Y-68000000D03*
D33*
X69250000Y-68000000D03*
X71790000Y-68000000D03*
%TD*%
D42*
%TO.C,D4*%
X47750000Y-80550000D03*
X46350000Y-80550000D03*
%TD*%
D31*
%TO.C,J4*%
X19900000Y-53300000D03*
D51*
X19900000Y-48000000D03*
D31*
X19900000Y-37700000D03*
D51*
X19900000Y-43000000D03*
D52*
X27050000Y-48400000D03*
X23400000Y-48000000D03*
X23400000Y-43000000D03*
X27050000Y-42600000D03*
X28400000Y-37700000D03*
D53*
X17900000Y-45500000D03*
D52*
X28400000Y-53300000D03*
%TD*%
D54*
%TO.C,C3*%
X22175000Y-57700000D03*
X20625000Y-57700000D03*
%TD*%
D35*
%TO.C,D1*%
X45437500Y-71337500D03*
X45437500Y-69937500D03*
%TD*%
D23*
%TO.C,J17*%
X60525000Y-72150000D03*
X60525000Y-57150000D03*
D24*
X56585000Y-69150000D03*
D25*
X56585000Y-66150000D03*
X56585000Y-63150000D03*
X56585000Y-60150000D03*
X59585000Y-69150000D03*
X59585000Y-66150000D03*
X59585000Y-63150000D03*
X59585000Y-60150000D03*
%TD*%
D20*
%TO.C,JP8*%
X70200000Y-48910000D03*
D21*
X70200000Y-46370000D03*
X70200000Y-43830000D03*
%TD*%
D55*
%TO.C,Q1*%
X46762500Y-77050000D03*
X46762500Y-78950000D03*
X48637500Y-78000000D03*
%TD*%
D30*
%TO.C,J15*%
X10700000Y-64620000D03*
D31*
X10700000Y-67160000D03*
X10700000Y-69700000D03*
X10700000Y-72240000D03*
%TD*%
D26*
%TO.C,R2*%
X47425000Y-66750000D03*
X47425000Y-65100000D03*
%TD*%
D22*
%TO.C,R3*%
X48125000Y-75400000D03*
X46475000Y-75400000D03*
%TD*%
D34*
%TO.C,Q5*%
X36900000Y-39019607D03*
X35000000Y-39019607D03*
X35950000Y-40894607D03*
%TD*%
D30*
%TO.C,J16*%
X79508381Y-42145001D03*
D31*
X79508381Y-44685001D03*
X79508381Y-47225001D03*
X79508381Y-49765001D03*
%TD*%
D56*
%TO.C,U1*%
X31045000Y-74434999D03*
X32315000Y-74434999D03*
X33585000Y-74434999D03*
X34855000Y-74434999D03*
X34855000Y-69484999D03*
X33585000Y-69484999D03*
X32315000Y-69484999D03*
X31045000Y-69484999D03*
%TD*%
D34*
%TO.C,Q3*%
X42550000Y-79862500D03*
X40650000Y-79862500D03*
X41600000Y-81737500D03*
%TD*%
D27*
%TO.C,H8*%
X69500000Y-82992893D03*
%TD*%
D30*
%TO.C,J10*%
X79500000Y-55250000D03*
D31*
X79500000Y-57790000D03*
X79500000Y-60330000D03*
X79500000Y-62870000D03*
X79500000Y-65410000D03*
X79500000Y-67950000D03*
%TD*%
D57*
%TO.C,C4*%
X29900000Y-80760000D03*
X37300000Y-80760000D03*
%TD*%
D36*
%TO.C,R19*%
X38550000Y-39532107D03*
X38550000Y-41182107D03*
%TD*%
D19*
%TO.C,C6*%
X29450000Y-70534999D03*
X29450000Y-68984999D03*
%TD*%
D27*
%TO.C,H5*%
X24000000Y-14000000D03*
%TD*%
D35*
%TO.C,D3*%
X46400000Y-73992893D03*
X46400000Y-72592893D03*
%TD*%
D30*
%TO.C,J20*%
X10700000Y-33414999D03*
D31*
X10700000Y-30874999D03*
X10700000Y-28334999D03*
X10700000Y-25794999D03*
%TD*%
M02*
