%TF.GenerationSoftware,KiCad,Pcbnew,(6.0.11-0)*%
%TF.CreationDate,2023-07-12T13:16:53+12:00*%
%TF.ProjectId,controller-upper-cut,636f6e74-726f-46c6-9c65-722d75707065,3.2*%
%TF.SameCoordinates,PX206cc80PY68e7780*%
%TF.FileFunction,Legend,Top*%
%TF.FilePolarity,Positive*%
%FSLAX46Y46*%
G04 Gerber Fmt 4.6, Leading zero omitted, Abs format (unit mm)*
G04 Created by KiCad (PCBNEW (6.0.11-0)) date 2023-07-12 13:16:53*
%MOMM*%
%LPD*%
G01*
G04 APERTURE LIST*
G04 Aperture macros list*
%AMRoundRect*
0 Rectangle with rounded corners*
0 $1 Rounding radius*
0 $2 $3 $4 $5 $6 $7 $8 $9 X,Y pos of 4 corners*
0 Add a 4 corners polygon primitive as box body*
4,1,4,$2,$3,$4,$5,$6,$7,$8,$9,$2,$3,0*
0 Add four circle primitives for the rounded corners*
1,1,$1+$1,$2,$3*
1,1,$1+$1,$4,$5*
1,1,$1+$1,$6,$7*
1,1,$1+$1,$8,$9*
0 Add four rect primitives between the rounded corners*
20,1,$1+$1,$2,$3,$4,$5,0*
20,1,$1+$1,$4,$5,$6,$7,0*
20,1,$1+$1,$6,$7,$8,$9,0*
20,1,$1+$1,$8,$9,$2,$3,0*%
G04 Aperture macros list end*
%ADD10C,0.150000*%
%ADD11C,0.080000*%
%ADD12C,0.120000*%
%ADD13R,0.800000X0.500000*%
%ADD14R,0.800000X0.400000*%
%ADD15RoundRect,0.200000X-0.200000X-0.275000X0.200000X-0.275000X0.200000X0.275000X-0.200000X0.275000X0*%
%ADD16RoundRect,0.150000X-0.875000X-0.150000X0.875000X-0.150000X0.875000X0.150000X-0.875000X0.150000X0*%
%ADD17C,5.500000*%
%ADD18RoundRect,0.225000X0.250000X-0.225000X0.250000X0.225000X-0.250000X0.225000X-0.250000X-0.225000X0*%
%ADD19RoundRect,0.225000X-0.250000X0.225000X-0.250000X-0.225000X0.250000X-0.225000X0.250000X0.225000X0*%
%ADD20RoundRect,0.225000X-0.225000X-0.250000X0.225000X-0.250000X0.225000X0.250000X-0.225000X0.250000X0*%
%ADD21RoundRect,0.150000X0.725000X0.150000X-0.725000X0.150000X-0.725000X-0.150000X0.725000X-0.150000X0*%
%ADD22C,4.000000*%
%ADD23R,1.600000X1.600000*%
%ADD24C,1.600000*%
%ADD25RoundRect,0.200000X-0.275000X0.200000X-0.275000X-0.200000X0.275000X-0.200000X0.275000X0.200000X0*%
%ADD26R,1.700000X1.700000*%
%ADD27O,1.700000X1.700000*%
G04 APERTURE END LIST*
D10*
X42838095Y-7747619D02*
X42885714Y-7700000D01*
X42980952Y-7652380D01*
X43219047Y-7652380D01*
X43314285Y-7700000D01*
X43361904Y-7747619D01*
X43409523Y-7842857D01*
X43409523Y-7938095D01*
X43361904Y-8080952D01*
X42790476Y-8652380D01*
X43409523Y-8652380D01*
X43742857Y-7652380D02*
X44361904Y-7652380D01*
X44028571Y-8033333D01*
X44171428Y-8033333D01*
X44266666Y-8080952D01*
X44314285Y-8128571D01*
X44361904Y-8223809D01*
X44361904Y-8461904D01*
X44314285Y-8557142D01*
X44266666Y-8604761D01*
X44171428Y-8652380D01*
X43885714Y-8652380D01*
X43790476Y-8604761D01*
X43742857Y-8557142D01*
X44385714Y-65152380D02*
X43814285Y-65152380D01*
X44100000Y-65152380D02*
X44100000Y-64152380D01*
X44004761Y-64295238D01*
X43909523Y-64390476D01*
X43814285Y-64438095D01*
D11*
%TO.C,RN2*%
X30426666Y-15696059D02*
X30193333Y-15362726D01*
X30026666Y-15696059D02*
X30026666Y-14996059D01*
X30293333Y-14996059D01*
X30360000Y-15029393D01*
X30393333Y-15062726D01*
X30426666Y-15129393D01*
X30426666Y-15229393D01*
X30393333Y-15296059D01*
X30360000Y-15329393D01*
X30293333Y-15362726D01*
X30026666Y-15362726D01*
X30726666Y-15696059D02*
X30726666Y-14996059D01*
X31126666Y-15696059D01*
X31126666Y-14996059D01*
X31426666Y-15062726D02*
X31460000Y-15029393D01*
X31526666Y-14996059D01*
X31693333Y-14996059D01*
X31760000Y-15029393D01*
X31793333Y-15062726D01*
X31826666Y-15129393D01*
X31826666Y-15196059D01*
X31793333Y-15296059D01*
X31393333Y-15696059D01*
X31826666Y-15696059D01*
%TO.C,R16*%
X42050000Y-51366666D02*
X41816666Y-51033333D01*
X41650000Y-51366666D02*
X41650000Y-50666666D01*
X41916666Y-50666666D01*
X41983333Y-50700000D01*
X42016666Y-50733333D01*
X42050000Y-50800000D01*
X42050000Y-50900000D01*
X42016666Y-50966666D01*
X41983333Y-51000000D01*
X41916666Y-51033333D01*
X41650000Y-51033333D01*
X42716666Y-51366666D02*
X42316666Y-51366666D01*
X42516666Y-51366666D02*
X42516666Y-50666666D01*
X42450000Y-50766666D01*
X42383333Y-50833333D01*
X42316666Y-50866666D01*
X43316666Y-50666666D02*
X43183333Y-50666666D01*
X43116666Y-50700000D01*
X43083333Y-50733333D01*
X43016666Y-50833333D01*
X42983333Y-50966666D01*
X42983333Y-51233333D01*
X43016666Y-51300000D01*
X43050000Y-51333333D01*
X43116666Y-51366666D01*
X43250000Y-51366666D01*
X43316666Y-51333333D01*
X43350000Y-51300000D01*
X43383333Y-51233333D01*
X43383333Y-51066666D01*
X43350000Y-51000000D01*
X43316666Y-50966666D01*
X43250000Y-50933333D01*
X43116666Y-50933333D01*
X43050000Y-50966666D01*
X43016666Y-51000000D01*
X42983333Y-51066666D01*
%TO.C,R15*%
X42050000Y-53866666D02*
X41816666Y-53533333D01*
X41650000Y-53866666D02*
X41650000Y-53166666D01*
X41916666Y-53166666D01*
X41983333Y-53200000D01*
X42016666Y-53233333D01*
X42050000Y-53300000D01*
X42050000Y-53400000D01*
X42016666Y-53466666D01*
X41983333Y-53500000D01*
X41916666Y-53533333D01*
X41650000Y-53533333D01*
X42716666Y-53866666D02*
X42316666Y-53866666D01*
X42516666Y-53866666D02*
X42516666Y-53166666D01*
X42450000Y-53266666D01*
X42383333Y-53333333D01*
X42316666Y-53366666D01*
X43350000Y-53166666D02*
X43016666Y-53166666D01*
X42983333Y-53500000D01*
X43016666Y-53466666D01*
X43083333Y-53433333D01*
X43250000Y-53433333D01*
X43316666Y-53466666D01*
X43350000Y-53500000D01*
X43383333Y-53566666D01*
X43383333Y-53733333D01*
X43350000Y-53800000D01*
X43316666Y-53833333D01*
X43250000Y-53866666D01*
X43083333Y-53866666D01*
X43016666Y-53833333D01*
X42983333Y-53800000D01*
%TO.C,R17*%
X42050000Y-48766666D02*
X41816666Y-48433333D01*
X41650000Y-48766666D02*
X41650000Y-48066666D01*
X41916666Y-48066666D01*
X41983333Y-48100000D01*
X42016666Y-48133333D01*
X42050000Y-48200000D01*
X42050000Y-48300000D01*
X42016666Y-48366666D01*
X41983333Y-48400000D01*
X41916666Y-48433333D01*
X41650000Y-48433333D01*
X42716666Y-48766666D02*
X42316666Y-48766666D01*
X42516666Y-48766666D02*
X42516666Y-48066666D01*
X42450000Y-48166666D01*
X42383333Y-48233333D01*
X42316666Y-48266666D01*
X42950000Y-48066666D02*
X43416666Y-48066666D01*
X43116666Y-48766666D01*
%TO.C,U3*%
X36466666Y-33416666D02*
X36466666Y-33983333D01*
X36500000Y-34050000D01*
X36533333Y-34083333D01*
X36600000Y-34116666D01*
X36733333Y-34116666D01*
X36800000Y-34083333D01*
X36833333Y-34050000D01*
X36866666Y-33983333D01*
X36866666Y-33416666D01*
X37133333Y-33416666D02*
X37566666Y-33416666D01*
X37333333Y-33683333D01*
X37433333Y-33683333D01*
X37500000Y-33716666D01*
X37533333Y-33750000D01*
X37566666Y-33816666D01*
X37566666Y-33983333D01*
X37533333Y-34050000D01*
X37500000Y-34083333D01*
X37433333Y-34116666D01*
X37233333Y-34116666D01*
X37166666Y-34083333D01*
X37133333Y-34050000D01*
%TO.C,H3*%
X19566666Y-10309559D02*
X19566666Y-9609559D01*
X19566666Y-9942893D02*
X19966666Y-9942893D01*
X19966666Y-10309559D02*
X19966666Y-9609559D01*
X20233333Y-9609559D02*
X20666666Y-9609559D01*
X20433333Y-9876226D01*
X20533333Y-9876226D01*
X20600000Y-9909559D01*
X20633333Y-9942893D01*
X20666666Y-10009559D01*
X20666666Y-10176226D01*
X20633333Y-10242893D01*
X20600000Y-10276226D01*
X20533333Y-10309559D01*
X20333333Y-10309559D01*
X20266666Y-10276226D01*
X20233333Y-10242893D01*
%TO.C,RN1*%
X30116666Y-53016666D02*
X29883333Y-52683333D01*
X29716666Y-53016666D02*
X29716666Y-52316666D01*
X29983333Y-52316666D01*
X30050000Y-52350000D01*
X30083333Y-52383333D01*
X30116666Y-52450000D01*
X30116666Y-52550000D01*
X30083333Y-52616666D01*
X30050000Y-52650000D01*
X29983333Y-52683333D01*
X29716666Y-52683333D01*
X30416666Y-53016666D02*
X30416666Y-52316666D01*
X30816666Y-53016666D01*
X30816666Y-52316666D01*
X31516666Y-53016666D02*
X31116666Y-53016666D01*
X31316666Y-53016666D02*
X31316666Y-52316666D01*
X31250000Y-52416666D01*
X31183333Y-52483333D01*
X31116666Y-52516666D01*
%TO.C,C11*%
X41550000Y-34250000D02*
X41516666Y-34283333D01*
X41416666Y-34316666D01*
X41350000Y-34316666D01*
X41250000Y-34283333D01*
X41183333Y-34216666D01*
X41150000Y-34150000D01*
X41116666Y-34016666D01*
X41116666Y-33916666D01*
X41150000Y-33783333D01*
X41183333Y-33716666D01*
X41250000Y-33650000D01*
X41350000Y-33616666D01*
X41416666Y-33616666D01*
X41516666Y-33650000D01*
X41550000Y-33683333D01*
X42216666Y-34316666D02*
X41816666Y-34316666D01*
X42016666Y-34316666D02*
X42016666Y-33616666D01*
X41950000Y-33716666D01*
X41883333Y-33783333D01*
X41816666Y-33816666D01*
X42883333Y-34316666D02*
X42483333Y-34316666D01*
X42683333Y-34316666D02*
X42683333Y-33616666D01*
X42616666Y-33716666D01*
X42550000Y-33783333D01*
X42483333Y-33816666D01*
%TO.C,R14*%
X42050000Y-56416666D02*
X41816666Y-56083333D01*
X41650000Y-56416666D02*
X41650000Y-55716666D01*
X41916666Y-55716666D01*
X41983333Y-55750000D01*
X42016666Y-55783333D01*
X42050000Y-55850000D01*
X42050000Y-55950000D01*
X42016666Y-56016666D01*
X41983333Y-56050000D01*
X41916666Y-56083333D01*
X41650000Y-56083333D01*
X42716666Y-56416666D02*
X42316666Y-56416666D01*
X42516666Y-56416666D02*
X42516666Y-55716666D01*
X42450000Y-55816666D01*
X42383333Y-55883333D01*
X42316666Y-55916666D01*
X43316666Y-55950000D02*
X43316666Y-56416666D01*
X43150000Y-55683333D02*
X42983333Y-56183333D01*
X43416666Y-56183333D01*
%TO.C,C10*%
X30450000Y-18050000D02*
X30416666Y-18083333D01*
X30316666Y-18116666D01*
X30250000Y-18116666D01*
X30150000Y-18083333D01*
X30083333Y-18016666D01*
X30050000Y-17950000D01*
X30016666Y-17816666D01*
X30016666Y-17716666D01*
X30050000Y-17583333D01*
X30083333Y-17516666D01*
X30150000Y-17450000D01*
X30250000Y-17416666D01*
X30316666Y-17416666D01*
X30416666Y-17450000D01*
X30450000Y-17483333D01*
X31116666Y-18116666D02*
X30716666Y-18116666D01*
X30916666Y-18116666D02*
X30916666Y-17416666D01*
X30850000Y-17516666D01*
X30783333Y-17583333D01*
X30716666Y-17616666D01*
X31550000Y-17416666D02*
X31616666Y-17416666D01*
X31683333Y-17450000D01*
X31716666Y-17483333D01*
X31750000Y-17550000D01*
X31783333Y-17683333D01*
X31783333Y-17850000D01*
X31750000Y-17983333D01*
X31716666Y-18050000D01*
X31683333Y-18083333D01*
X31616666Y-18116666D01*
X31550000Y-18116666D01*
X31483333Y-18083333D01*
X31450000Y-18050000D01*
X31416666Y-17983333D01*
X31383333Y-17850000D01*
X31383333Y-17683333D01*
X31416666Y-17550000D01*
X31450000Y-17483333D01*
X31483333Y-17450000D01*
X31550000Y-17416666D01*
%TO.C,R22*%
X42500000Y-10716666D02*
X42266666Y-10383333D01*
X42100000Y-10716666D02*
X42100000Y-10016666D01*
X42366666Y-10016666D01*
X42433333Y-10050000D01*
X42466666Y-10083333D01*
X42500000Y-10150000D01*
X42500000Y-10250000D01*
X42466666Y-10316666D01*
X42433333Y-10350000D01*
X42366666Y-10383333D01*
X42100000Y-10383333D01*
X42766666Y-10083333D02*
X42800000Y-10050000D01*
X42866666Y-10016666D01*
X43033333Y-10016666D01*
X43100000Y-10050000D01*
X43133333Y-10083333D01*
X43166666Y-10150000D01*
X43166666Y-10216666D01*
X43133333Y-10316666D01*
X42733333Y-10716666D01*
X43166666Y-10716666D01*
X43433333Y-10083333D02*
X43466666Y-10050000D01*
X43533333Y-10016666D01*
X43700000Y-10016666D01*
X43766666Y-10050000D01*
X43800000Y-10083333D01*
X43833333Y-10150000D01*
X43833333Y-10216666D01*
X43800000Y-10316666D01*
X43400000Y-10716666D01*
X43833333Y-10716666D01*
%TO.C,C12*%
X41975000Y-19089393D02*
X41941666Y-19122726D01*
X41841666Y-19156059D01*
X41775000Y-19156059D01*
X41675000Y-19122726D01*
X41608333Y-19056059D01*
X41575000Y-18989393D01*
X41541666Y-18856059D01*
X41541666Y-18756059D01*
X41575000Y-18622726D01*
X41608333Y-18556059D01*
X41675000Y-18489393D01*
X41775000Y-18456059D01*
X41841666Y-18456059D01*
X41941666Y-18489393D01*
X41975000Y-18522726D01*
X42641666Y-19156059D02*
X42241666Y-19156059D01*
X42441666Y-19156059D02*
X42441666Y-18456059D01*
X42375000Y-18556059D01*
X42308333Y-18622726D01*
X42241666Y-18656059D01*
X42908333Y-18522726D02*
X42941666Y-18489393D01*
X43008333Y-18456059D01*
X43175000Y-18456059D01*
X43241666Y-18489393D01*
X43275000Y-18522726D01*
X43308333Y-18589393D01*
X43308333Y-18656059D01*
X43275000Y-18756059D01*
X42875000Y-19156059D01*
X43308333Y-19156059D01*
%TO.C,U5*%
X35591666Y-7351059D02*
X35591666Y-7917726D01*
X35625000Y-7984393D01*
X35658333Y-8017726D01*
X35725000Y-8051059D01*
X35858333Y-8051059D01*
X35925000Y-8017726D01*
X35958333Y-7984393D01*
X35991666Y-7917726D01*
X35991666Y-7351059D01*
X36658333Y-7351059D02*
X36325000Y-7351059D01*
X36291666Y-7684393D01*
X36325000Y-7651059D01*
X36391666Y-7617726D01*
X36558333Y-7617726D01*
X36625000Y-7651059D01*
X36658333Y-7684393D01*
X36691666Y-7751059D01*
X36691666Y-7917726D01*
X36658333Y-7984393D01*
X36625000Y-8017726D01*
X36558333Y-8051059D01*
X36391666Y-8051059D01*
X36325000Y-8017726D01*
X36291666Y-7984393D01*
%TO.C,H4*%
X19466666Y-79209559D02*
X19466666Y-78509559D01*
X19466666Y-78842893D02*
X19866666Y-78842893D01*
X19866666Y-79209559D02*
X19866666Y-78509559D01*
X20500000Y-78742893D02*
X20500000Y-79209559D01*
X20333333Y-78476226D02*
X20166666Y-78976226D01*
X20600000Y-78976226D01*
%TO.C,J7*%
X16792666Y-71669559D02*
X16792666Y-72169559D01*
X16759333Y-72269559D01*
X16692666Y-72336226D01*
X16592666Y-72369559D01*
X16526000Y-72369559D01*
X17059333Y-71669559D02*
X17526000Y-71669559D01*
X17226000Y-72369559D01*
%TO.C,R13*%
X39624466Y-60733400D02*
X39291133Y-60966733D01*
X39624466Y-61133400D02*
X38924466Y-61133400D01*
X38924466Y-60866733D01*
X38957800Y-60800066D01*
X38991133Y-60766733D01*
X39057800Y-60733400D01*
X39157800Y-60733400D01*
X39224466Y-60766733D01*
X39257800Y-60800066D01*
X39291133Y-60866733D01*
X39291133Y-61133400D01*
X39624466Y-60066733D02*
X39624466Y-60466733D01*
X39624466Y-60266733D02*
X38924466Y-60266733D01*
X39024466Y-60333400D01*
X39091133Y-60400066D01*
X39124466Y-60466733D01*
X38924466Y-59833400D02*
X38924466Y-59400066D01*
X39191133Y-59633400D01*
X39191133Y-59533400D01*
X39224466Y-59466733D01*
X39257800Y-59433400D01*
X39324466Y-59400066D01*
X39491133Y-59400066D01*
X39557800Y-59433400D01*
X39591133Y-59466733D01*
X39624466Y-59533400D01*
X39624466Y-59733400D01*
X39591133Y-59800066D01*
X39557800Y-59833400D01*
%TO.C,U4*%
X36366666Y-48016666D02*
X36366666Y-48583333D01*
X36400000Y-48650000D01*
X36433333Y-48683333D01*
X36500000Y-48716666D01*
X36633333Y-48716666D01*
X36700000Y-48683333D01*
X36733333Y-48650000D01*
X36766666Y-48583333D01*
X36766666Y-48016666D01*
X37400000Y-48250000D02*
X37400000Y-48716666D01*
X37233333Y-47983333D02*
X37066666Y-48483333D01*
X37500000Y-48483333D01*
%TO.C,C9*%
X30883333Y-49450000D02*
X30850000Y-49483333D01*
X30750000Y-49516666D01*
X30683333Y-49516666D01*
X30583333Y-49483333D01*
X30516666Y-49416666D01*
X30483333Y-49350000D01*
X30450000Y-49216666D01*
X30450000Y-49116666D01*
X30483333Y-48983333D01*
X30516666Y-48916666D01*
X30583333Y-48850000D01*
X30683333Y-48816666D01*
X30750000Y-48816666D01*
X30850000Y-48850000D01*
X30883333Y-48883333D01*
X31216666Y-49516666D02*
X31350000Y-49516666D01*
X31416666Y-49483333D01*
X31450000Y-49450000D01*
X31516666Y-49350000D01*
X31550000Y-49216666D01*
X31550000Y-48950000D01*
X31516666Y-48883333D01*
X31483333Y-48850000D01*
X31416666Y-48816666D01*
X31283333Y-48816666D01*
X31216666Y-48850000D01*
X31183333Y-48883333D01*
X31150000Y-48950000D01*
X31150000Y-49116666D01*
X31183333Y-49183333D01*
X31216666Y-49216666D01*
X31283333Y-49250000D01*
X31416666Y-49250000D01*
X31483333Y-49216666D01*
X31516666Y-49183333D01*
X31550000Y-49116666D01*
%TO.C,U2*%
X36566666Y-18706059D02*
X36566666Y-19272726D01*
X36600000Y-19339393D01*
X36633333Y-19372726D01*
X36700000Y-19406059D01*
X36833333Y-19406059D01*
X36900000Y-19372726D01*
X36933333Y-19339393D01*
X36966666Y-19272726D01*
X36966666Y-18706059D01*
X37266666Y-18772726D02*
X37300000Y-18739393D01*
X37366666Y-18706059D01*
X37533333Y-18706059D01*
X37600000Y-18739393D01*
X37633333Y-18772726D01*
X37666666Y-18839393D01*
X37666666Y-18906059D01*
X37633333Y-19006059D01*
X37233333Y-19406059D01*
X37666666Y-19406059D01*
D12*
%TO.C,RN2*%
X31400000Y-11409393D02*
X30400000Y-11409393D01*
X31400000Y-14769393D02*
X30400000Y-14769393D01*
%TO.C,R16*%
X42262742Y-51627500D02*
X42737258Y-51627500D01*
X42262742Y-52672500D02*
X42737258Y-52672500D01*
%TO.C,R15*%
X42262742Y-54127500D02*
X42737258Y-54127500D01*
X42262742Y-55172500D02*
X42737258Y-55172500D01*
%TO.C,R17*%
X42212742Y-50122500D02*
X42687258Y-50122500D01*
X42212742Y-49077500D02*
X42687258Y-49077500D01*
%TO.C,U3*%
X40810000Y-34340000D02*
X40810000Y-34575000D01*
X33090000Y-34575000D02*
X31275000Y-34575000D01*
X36950000Y-34340000D02*
X40810000Y-34340000D01*
X40810000Y-47360000D02*
X40810000Y-47125000D01*
X33090000Y-47360000D02*
X33090000Y-47125000D01*
X36950000Y-47360000D02*
X33090000Y-47360000D01*
X36950000Y-47360000D02*
X40810000Y-47360000D01*
X33090000Y-34340000D02*
X33090000Y-34575000D01*
X36950000Y-34340000D02*
X33090000Y-34340000D01*
%TO.C,RN1*%
X31100000Y-56713393D02*
X30100000Y-56713393D01*
X31100000Y-53353393D02*
X30100000Y-53353393D01*
%TO.C,C11*%
X43290000Y-34533473D02*
X43290000Y-34252313D01*
X44310000Y-34533473D02*
X44310000Y-34252313D01*
%TO.C,R14*%
X42262742Y-57722500D02*
X42737258Y-57722500D01*
X42262742Y-56677500D02*
X42737258Y-56677500D01*
%TO.C,C10*%
X32034000Y-17643813D02*
X32034000Y-17924973D01*
X33054000Y-17643813D02*
X33054000Y-17924973D01*
%TO.C,R22*%
X42612742Y-12072500D02*
X43087258Y-12072500D01*
X42612742Y-11027500D02*
X43087258Y-11027500D01*
%TO.C,C12*%
X42284420Y-17229393D02*
X42565580Y-17229393D01*
X42284420Y-18249393D02*
X42565580Y-18249393D01*
%TO.C,U5*%
X37079000Y-18354393D02*
X35129000Y-18354393D01*
X37079000Y-8234393D02*
X35129000Y-8234393D01*
X37079000Y-18354393D02*
X40529000Y-18354393D01*
X37079000Y-8234393D02*
X39029000Y-8234393D01*
%TO.C,J7*%
X23951656Y-27887893D02*
X24384669Y-27637893D01*
X23490331Y-71117893D02*
X11150331Y-71117893D01*
X11150331Y-17897893D02*
X23490331Y-17897893D01*
X23490331Y-17897893D02*
X23490331Y-71117893D01*
X24384669Y-28137893D02*
X23951656Y-27887893D01*
X24384669Y-27637893D02*
X24384669Y-28137893D01*
%TO.C,R13*%
X38827500Y-62537742D02*
X38827500Y-63012258D01*
X39872500Y-62537742D02*
X39872500Y-63012258D01*
%TO.C,U4*%
X37079000Y-59081393D02*
X35129000Y-59081393D01*
X37079000Y-48961393D02*
X39029000Y-48961393D01*
X37079000Y-59081393D02*
X40529000Y-59081393D01*
X37079000Y-48961393D02*
X35129000Y-48961393D01*
%TO.C,C9*%
X32910000Y-49226586D02*
X32910000Y-48945426D01*
X31890000Y-49226586D02*
X31890000Y-48945426D01*
%TO.C,U2*%
X33343560Y-19885833D02*
X31528560Y-19885833D01*
X37203560Y-19650833D02*
X41063560Y-19650833D01*
X41063560Y-32670833D02*
X41063560Y-32435833D01*
X37203560Y-32670833D02*
X33343560Y-32670833D01*
X41063560Y-19650833D02*
X41063560Y-19885833D01*
X37203560Y-32670833D02*
X41063560Y-32670833D01*
X37203560Y-19650833D02*
X33343560Y-19650833D01*
X33343560Y-19650833D02*
X33343560Y-19885833D01*
X33343560Y-32670833D02*
X33343560Y-32435833D01*
%TD*%
%LPC*%
D13*
%TO.C,RN2*%
X30000000Y-11889393D03*
D14*
X30000000Y-12689393D03*
X30000000Y-13489393D03*
D13*
X30000000Y-14289393D03*
X31800000Y-14289393D03*
D14*
X31800000Y-13489393D03*
X31800000Y-12689393D03*
D13*
X31800000Y-11889393D03*
%TD*%
D15*
%TO.C,R16*%
X41675000Y-52150000D03*
X43325000Y-52150000D03*
%TD*%
%TO.C,R15*%
X41675000Y-54650000D03*
X43325000Y-54650000D03*
%TD*%
%TO.C,R17*%
X41625000Y-49600000D03*
X43275000Y-49600000D03*
%TD*%
D16*
%TO.C,U3*%
X32300000Y-35135000D03*
X32300000Y-36405000D03*
X32300000Y-37675000D03*
X32300000Y-38945000D03*
X32300000Y-40215000D03*
X32300000Y-41485000D03*
X32300000Y-42755000D03*
X32300000Y-44025000D03*
X32300000Y-45295000D03*
X32300000Y-46565000D03*
X41600000Y-46565000D03*
X41600000Y-45295000D03*
X41600000Y-44025000D03*
X41600000Y-42755000D03*
X41600000Y-41485000D03*
X41600000Y-40215000D03*
X41600000Y-38945000D03*
X41600000Y-37675000D03*
X41600000Y-36405000D03*
X41600000Y-35135000D03*
%TD*%
D17*
%TO.C,H3*%
X20000000Y-10000000D03*
%TD*%
D13*
%TO.C,RN1*%
X29700000Y-53833393D03*
D14*
X29700000Y-54633393D03*
X29700000Y-55433393D03*
D13*
X29700000Y-56233393D03*
X31500000Y-56233393D03*
D14*
X31500000Y-55433393D03*
X31500000Y-54633393D03*
D13*
X31500000Y-53833393D03*
%TD*%
D18*
%TO.C,C11*%
X43800000Y-35167893D03*
X43800000Y-33617893D03*
%TD*%
D15*
%TO.C,R14*%
X41675000Y-57200000D03*
X43325000Y-57200000D03*
%TD*%
D19*
%TO.C,C10*%
X32544000Y-17009393D03*
X32544000Y-18559393D03*
%TD*%
D15*
%TO.C,R22*%
X42025000Y-11550000D03*
X43675000Y-11550000D03*
%TD*%
D20*
%TO.C,C12*%
X41650000Y-17739393D03*
X43200000Y-17739393D03*
%TD*%
D21*
%TO.C,U5*%
X39654000Y-17739393D03*
X39654000Y-16469393D03*
X39654000Y-15199393D03*
X39654000Y-13929393D03*
X39654000Y-12659393D03*
X39654000Y-11389393D03*
X39654000Y-10119393D03*
X39654000Y-8849393D03*
X34504000Y-8849393D03*
X34504000Y-10119393D03*
X34504000Y-11389393D03*
X34504000Y-12659393D03*
X34504000Y-13929393D03*
X34504000Y-15199393D03*
X34504000Y-16469393D03*
X34504000Y-17739393D03*
%TD*%
D17*
%TO.C,H4*%
X20000000Y-79000000D03*
%TD*%
D22*
%TO.C,J7*%
X20210331Y-68057893D03*
X20210331Y-20957893D03*
D23*
X21630331Y-27887893D03*
D24*
X21630331Y-30657893D03*
X21630331Y-33427893D03*
X21630331Y-36197893D03*
X21630331Y-38967893D03*
X21630331Y-41737893D03*
X21630331Y-44507893D03*
X21630331Y-47277893D03*
X21630331Y-50047893D03*
X21630331Y-52817893D03*
X21630331Y-55587893D03*
X21630331Y-58357893D03*
X21630331Y-61127893D03*
X18790331Y-29272893D03*
X18790331Y-32042893D03*
X18790331Y-34812893D03*
X18790331Y-37582893D03*
X18790331Y-40352893D03*
X18790331Y-43122893D03*
X18790331Y-45892893D03*
X18790331Y-48662893D03*
X18790331Y-51432893D03*
X18790331Y-54202893D03*
X18790331Y-56972893D03*
X18790331Y-59742893D03*
%TD*%
D25*
%TO.C,R13*%
X39350000Y-61950000D03*
X39350000Y-63600000D03*
%TD*%
D21*
%TO.C,U4*%
X39654000Y-58466393D03*
X39654000Y-57196393D03*
X39654000Y-55926393D03*
X39654000Y-54656393D03*
X39654000Y-53386393D03*
X39654000Y-52116393D03*
X39654000Y-50846393D03*
X39654000Y-49576393D03*
X34504000Y-49576393D03*
X34504000Y-50846393D03*
X34504000Y-52116393D03*
X34504000Y-53386393D03*
X34504000Y-54656393D03*
X34504000Y-55926393D03*
X34504000Y-57196393D03*
X34504000Y-58466393D03*
%TD*%
D18*
%TO.C,C9*%
X32400000Y-49861006D03*
X32400000Y-48311006D03*
%TD*%
D16*
%TO.C,U2*%
X32553560Y-20445833D03*
X32553560Y-21715833D03*
X32553560Y-22985833D03*
X32553560Y-24255833D03*
X32553560Y-25525833D03*
X32553560Y-26795833D03*
X32553560Y-28065833D03*
X32553560Y-29335833D03*
X32553560Y-30605833D03*
X32553560Y-31875833D03*
X41853560Y-31875833D03*
X41853560Y-30605833D03*
X41853560Y-29335833D03*
X41853560Y-28065833D03*
X41853560Y-26795833D03*
X41853560Y-25525833D03*
X41853560Y-24255833D03*
X41853560Y-22985833D03*
X41853560Y-21715833D03*
X41853560Y-20445833D03*
%TD*%
D26*
%TO.C,J2*%
X46063000Y-64417000D03*
D27*
X46063000Y-61877000D03*
X46063000Y-59337000D03*
X46063000Y-56797000D03*
X46063000Y-54257000D03*
X46063000Y-51717000D03*
X46063000Y-49177000D03*
X46063000Y-46637000D03*
X46063000Y-44097000D03*
X46063000Y-41557000D03*
X46063000Y-39017000D03*
X46063000Y-36477000D03*
X46063000Y-33937000D03*
X46063000Y-31397000D03*
X46063000Y-28857000D03*
X46063000Y-26317000D03*
X46063000Y-23777000D03*
X46063000Y-21237000D03*
X46063000Y-18697000D03*
X46063000Y-16157000D03*
X46063000Y-13617000D03*
X46063000Y-11077000D03*
X46063000Y-8537000D03*
%TD*%
M02*
