%TF.GenerationSoftware,KiCad,Pcbnew,(6.0.11-0)*%
%TF.CreationDate,2023-07-12T13:16:53+12:00*%
%TF.ProjectId,controller-upper-cut,636f6e74-726f-46c6-9c65-722d75707065,3.2*%
%TF.SameCoordinates,PX206cc80PY68e7780*%
%TF.FileFunction,Copper,L2,Bot*%
%TF.FilePolarity,Positive*%
%FSLAX46Y46*%
G04 Gerber Fmt 4.6, Leading zero omitted, Abs format (unit mm)*
G04 Created by KiCad (PCBNEW (6.0.11-0)) date 2023-07-12 13:16:53*
%MOMM*%
%LPD*%
G01*
G04 APERTURE LIST*
%TA.AperFunction,ComponentPad*%
%ADD10C,5.500000*%
%TD*%
%TA.AperFunction,ComponentPad*%
%ADD11C,4.000000*%
%TD*%
%TA.AperFunction,ComponentPad*%
%ADD12R,1.600000X1.600000*%
%TD*%
%TA.AperFunction,ComponentPad*%
%ADD13C,1.600000*%
%TD*%
%TA.AperFunction,ComponentPad*%
%ADD14R,1.700000X1.700000*%
%TD*%
%TA.AperFunction,ComponentPad*%
%ADD15O,1.700000X1.700000*%
%TD*%
%TA.AperFunction,ViaPad*%
%ADD16C,0.700000*%
%TD*%
%TA.AperFunction,ViaPad*%
%ADD17C,1.200000*%
%TD*%
%TA.AperFunction,Conductor*%
%ADD18C,0.300000*%
%TD*%
%TA.AperFunction,Conductor*%
%ADD19C,0.500000*%
%TD*%
G04 APERTURE END LIST*
D10*
%TO.P,H3,1,1*%
%TO.N,GND1*%
X20000000Y-10000000D03*
%TD*%
%TO.P,H4,1,1*%
%TO.N,GND1*%
X20000000Y-79000000D03*
%TD*%
D11*
%TO.P,J7,0,PAD*%
%TO.N,GND1*%
X20210331Y-68057893D03*
X20210331Y-20957893D03*
D12*
%TO.P,J7,1,1*%
%TO.N,/LPT Interface/P1_IN*%
X21630331Y-27887893D03*
D13*
%TO.P,J7,2,2*%
%TO.N,/LPT Interface/P2_IN*%
X21630331Y-30657893D03*
%TO.P,J7,3,3*%
%TO.N,/LPT Interface/P3_IN*%
X21630331Y-33427893D03*
%TO.P,J7,4,4*%
%TO.N,/LPT Interface/P4_IN*%
X21630331Y-36197893D03*
%TO.P,J7,5,5*%
%TO.N,/LPT Interface/P5_IN*%
X21630331Y-38967893D03*
%TO.P,J7,6,6*%
%TO.N,/LPT Interface/P6_IN*%
X21630331Y-41737893D03*
%TO.P,J7,7,7*%
%TO.N,/LPT Interface/P7_IN*%
X21630331Y-44507893D03*
%TO.P,J7,8,8*%
%TO.N,/LPT Interface/P8_IN*%
X21630331Y-47277893D03*
%TO.P,J7,9,9*%
%TO.N,/LPT Interface/P9_IN*%
X21630331Y-50047893D03*
%TO.P,J7,10,10*%
%TO.N,/LPT Interface/P10_OUT*%
X21630331Y-52817893D03*
%TO.P,J7,11,11*%
%TO.N,/LPT Interface/P11_OUT*%
X21630331Y-55587893D03*
%TO.P,J7,12,12*%
%TO.N,/LPT Interface/P12_OUT*%
X21630331Y-58357893D03*
%TO.P,J7,13,13*%
%TO.N,/LPT Interface/P13_OUT*%
X21630331Y-61127893D03*
%TO.P,J7,14,P14*%
%TO.N,/LPT Interface/P14_IN*%
X18790331Y-29272893D03*
%TO.P,J7,15,P15*%
%TO.N,/LPT Interface/P15_OUT*%
X18790331Y-32042893D03*
%TO.P,J7,16,P16*%
%TO.N,/LPT Interface/P16_IN*%
X18790331Y-34812893D03*
%TO.P,J7,17,P17*%
%TO.N,/LPT Interface/P17_IN*%
X18790331Y-37582893D03*
%TO.P,J7,18,P18*%
%TO.N,GND1*%
X18790331Y-40352893D03*
%TO.P,J7,19,P19*%
X18790331Y-43122893D03*
%TO.P,J7,20,P20*%
X18790331Y-45892893D03*
%TO.P,J7,21,P21*%
X18790331Y-48662893D03*
%TO.P,J7,22,P22*%
X18790331Y-51432893D03*
%TO.P,J7,23,P23*%
X18790331Y-54202893D03*
%TO.P,J7,24,P24*%
X18790331Y-56972893D03*
%TO.P,J7,25,P25*%
X18790331Y-59742893D03*
%TD*%
D14*
%TO.P,J2,1,Pin_1*%
%TO.N,GND1*%
X46063000Y-64417000D03*
D15*
%TO.P,J2,2,Pin_2*%
%TO.N,+5VA*%
X46063000Y-61877000D03*
%TO.P,J2,3,Pin_3*%
%TO.N,unconnected-(J2-Pad3)*%
X46063000Y-59337000D03*
%TO.P,J2,4,Pin_4*%
%TO.N,/LPT Interface/nCE_IN*%
X46063000Y-56797000D03*
%TO.P,J2,5,Pin_5*%
%TO.N,/LPT Interface/P1_OUT*%
X46063000Y-54257000D03*
%TO.P,J2,6,Pin_6*%
%TO.N,/LPT Interface/P13_IN*%
X46063000Y-51717000D03*
%TO.P,J2,7,Pin_7*%
%TO.N,/LPT Interface/P12_IN*%
X46063000Y-49177000D03*
%TO.P,J2,8,Pin_8*%
%TO.N,/LPT Interface/P11_IN*%
X46063000Y-46637000D03*
%TO.P,J2,9,Pin_9*%
%TO.N,/LPT Interface/P10_IN*%
X46063000Y-44097000D03*
%TO.P,J2,10,Pin_10*%
%TO.N,/LPT Interface/P9_OUT*%
X46063000Y-41557000D03*
%TO.P,J2,11,Pin_11*%
%TO.N,/LPT Interface/P8_OUT*%
X46063000Y-39017000D03*
%TO.P,J2,12,Pin_12*%
%TO.N,/LPT Interface/P17_OUT*%
X46063000Y-36477000D03*
%TO.P,J2,13,Pin_13*%
%TO.N,/LPT Interface/P16_OUT*%
X46063000Y-33937000D03*
%TO.P,J2,14,Pin_14*%
%TO.N,/LPT Interface/P14_OUT*%
X46063000Y-31397000D03*
%TO.P,J2,15,Pin_15*%
%TO.N,/LPT Interface/P7_OUT*%
X46063000Y-28857000D03*
%TO.P,J2,16,Pin_16*%
%TO.N,/LPT Interface/P6_OUT*%
X46063000Y-26317000D03*
%TO.P,J2,17,Pin_17*%
%TO.N,/LPT Interface/P5_OUT*%
X46063000Y-23777000D03*
%TO.P,J2,18,Pin_18*%
%TO.N,/LPT Interface/P4_OUT*%
X46063000Y-21237000D03*
%TO.P,J2,19,Pin_19*%
%TO.N,/LPT Interface/P3_OUT*%
X46063000Y-18697000D03*
%TO.P,J2,20,Pin_20*%
%TO.N,/LPT Interface/P2_OUT*%
X46063000Y-16157000D03*
%TO.P,J2,21,Pin_21*%
%TO.N,/LPT Interface/P15_IN*%
X46063000Y-13617000D03*
%TO.P,J2,22,Pin_22*%
%TO.N,+5VA*%
X46063000Y-11077000D03*
%TO.P,J2,23,Pin_23*%
%TO.N,GND2*%
X46063000Y-8537000D03*
%TD*%
D16*
%TO.N,/LPT Interface/P9_IN*%
X30000000Y-40500000D03*
%TO.N,/LPT Interface/P14_IN*%
X30200000Y-29292893D03*
%TO.N,/LPT Interface/P16_IN*%
X30500000Y-36350000D03*
%TO.N,/LPT Interface/P17_IN*%
X30200000Y-37600000D03*
%TO.N,/LPT Interface/P1_OUT*%
X44000000Y-61900000D03*
%TO.N,/LPT Interface/nCE_IN*%
X41422934Y-58285163D03*
X40200000Y-34092893D03*
X40726438Y-47800898D03*
X40200000Y-35916333D03*
%TO.N,/LPT Interface/P8_IN*%
X28950000Y-39950000D03*
%TO.N,/LPT Interface/P1_IN*%
X16775000Y-62925000D03*
%TO.N,GND1*%
X32950000Y-33650000D03*
X44350000Y-14150000D03*
X43200000Y-40950000D03*
X13800000Y-36100000D03*
X28600000Y-53900000D03*
X15700000Y-45900000D03*
X18800000Y-63800000D03*
X31500000Y-71800000D03*
X32100000Y-10392893D03*
X30550000Y-35100000D03*
X38000000Y-63800000D03*
X19900000Y-33500000D03*
X29300000Y-18100000D03*
X43400000Y-31292893D03*
X32700000Y-51675000D03*
X32900000Y-56992893D03*
X31400000Y-62100000D03*
X30450000Y-41550000D03*
X29900000Y-30300000D03*
X15700000Y-59800000D03*
X18800000Y-62100000D03*
X32800000Y-6892893D03*
X43600000Y-45575000D03*
X13800000Y-54292893D03*
X41500000Y-60200000D03*
X47100000Y-71800000D03*
X38000000Y-62100000D03*
X26000000Y-45700000D03*
X47000000Y-45292893D03*
X43800000Y-32592893D03*
X43200000Y-16300000D03*
X15700000Y-51400000D03*
X20000000Y-28000000D03*
X15750000Y-40375000D03*
X25400000Y-36400000D03*
X47300000Y-14800000D03*
X26000000Y-82092893D03*
X23250000Y-24200000D03*
X30750000Y-21650000D03*
X47100000Y-82092893D03*
X25300000Y-62100000D03*
X15700000Y-54200000D03*
X31100000Y-31892893D03*
X47275000Y-40292893D03*
X47275000Y-50392893D03*
X25700000Y-26750000D03*
X23950000Y-43650000D03*
X30100000Y-51750000D03*
X28600000Y-57200000D03*
X29573213Y-38358877D03*
X25300000Y-63800000D03*
X25200000Y-38500000D03*
X30950000Y-19150000D03*
X30975000Y-48117893D03*
X24500000Y-54000000D03*
X25700000Y-32700000D03*
X13800000Y-70092893D03*
X15700000Y-48700000D03*
X29700000Y-59800000D03*
X22750000Y-49050000D03*
X32300000Y-15750000D03*
X43325000Y-42500000D03*
X29450000Y-15400000D03*
X22800000Y-57400000D03*
X30600000Y-45750000D03*
X47275000Y-19892893D03*
X15700000Y-57000000D03*
X47275000Y-30092893D03*
X38000000Y-71800000D03*
X13800000Y-18900000D03*
X29600000Y-36800000D03*
X15700000Y-43100000D03*
X24300000Y-59700000D03*
X36700000Y-82092893D03*
X23050000Y-51750000D03*
X33900000Y-60900000D03*
X31400000Y-63800000D03*
%TO.N,+5VA*%
X31200000Y-50300000D03*
X29700000Y-57000000D03*
D17*
X42300000Y-59300000D03*
D16*
%TO.N,GND2*%
X34125000Y-19467893D03*
X34500000Y-48700000D03*
X34000000Y-36050000D03*
X36050000Y-21342893D03*
X36000000Y-51800000D03*
X47300000Y-12250000D03*
X38150000Y-10750000D03*
X34050000Y-43000000D03*
X34000000Y-34092893D03*
X36200000Y-58092893D03*
X37000000Y-49700000D03*
X37200000Y-51800000D03*
X36100000Y-42992893D03*
X37200000Y-59600000D03*
X36100000Y-34092893D03*
X34000000Y-26150000D03*
X34100000Y-6892893D03*
X38700000Y-27450000D03*
X36050000Y-19467893D03*
X39800000Y-21392893D03*
X36100000Y-15517893D03*
X38675000Y-36092893D03*
X36100000Y-36050000D03*
X36150000Y-17250000D03*
X38700000Y-48000000D03*
X34500000Y-59592893D03*
X34150000Y-21367893D03*
X40250000Y-48650000D03*
X42900000Y-9292893D03*
X38700000Y-43000000D03*
X41000000Y-6892893D03*
X38700000Y-59600000D03*
X41150000Y-13000000D03*
X36240000Y-8849393D03*
X36200000Y-56192893D03*
X40350000Y-19092893D03*
X36100000Y-26150000D03*
X36100000Y-11092893D03*
X38100000Y-14250000D03*
X38025000Y-21367893D03*
X38000000Y-19092893D03*
X40300000Y-59592893D03*
X38675000Y-34142893D03*
X37200000Y-55400000D03*
%TD*%
D18*
%TO.N,/LPT Interface/P9_IN*%
X30000000Y-40550000D02*
X21630331Y-48919669D01*
X30000000Y-40500000D02*
X30000000Y-40550000D01*
X21630331Y-48919669D02*
X21630331Y-50047893D01*
%TO.N,/LPT Interface/P14_IN*%
X30200000Y-29292893D02*
X18810331Y-29292893D01*
X18810331Y-29292893D02*
X18790331Y-29272893D01*
%TO.N,/LPT Interface/P16_IN*%
X28962893Y-34812893D02*
X18790331Y-34812893D01*
X30500000Y-36350000D02*
X28962893Y-34812893D01*
%TO.N,/LPT Interface/P17_IN*%
X18790331Y-37582893D02*
X30182893Y-37582893D01*
X30182893Y-37582893D02*
X30200000Y-37600000D01*
%TO.N,/LPT Interface/P1_OUT*%
X44000000Y-56320000D02*
X44000000Y-61900000D01*
X46063000Y-54257000D02*
X44000000Y-56320000D01*
%TO.N,/LPT Interface/nCE_IN*%
X40200000Y-35916333D02*
X40200000Y-34092893D01*
X41000000Y-48074460D02*
X41000000Y-57862229D01*
X40726438Y-47800898D02*
X41000000Y-48074460D01*
X41000000Y-57862229D02*
X41422934Y-58285163D01*
%TO.N,/LPT Interface/P8_IN*%
X21630331Y-47269669D02*
X28950000Y-39950000D01*
X21630331Y-47277893D02*
X21630331Y-47269669D01*
%TO.N,/LPT Interface/P1_IN*%
X16775000Y-29350000D02*
X18825000Y-27300000D01*
X21042438Y-27300000D02*
X21630331Y-27887893D01*
X16775000Y-62925000D02*
X16775000Y-29350000D01*
X18825000Y-27300000D02*
X21042438Y-27300000D01*
D19*
%TO.N,+5VA*%
X31100000Y-55600000D02*
X29700000Y-57000000D01*
X31100000Y-50400000D02*
X31100000Y-55600000D01*
X31200000Y-50300000D02*
X31100000Y-50400000D01*
X42150000Y-14990000D02*
X46063000Y-11077000D01*
X42300000Y-57450000D02*
X42300000Y-59300000D01*
X42150000Y-57300000D02*
X42150000Y-14990000D01*
X42150000Y-57300000D02*
X42300000Y-57450000D01*
D18*
%TO.N,GND2*%
X34500000Y-48700000D02*
X36000000Y-50200000D01*
X38700000Y-48000000D02*
X38700000Y-59600000D01*
X37000000Y-51600000D02*
X37200000Y-51800000D01*
X36200000Y-58092893D02*
X36200000Y-56192893D01*
X36000000Y-50200000D02*
X36000000Y-51800000D01*
X37000000Y-49700000D02*
X37000000Y-51600000D01*
X37200000Y-59600000D02*
X37200000Y-55400000D01*
X40250000Y-48650000D02*
X40300000Y-48700000D01*
X40300000Y-48700000D02*
X40300000Y-59592893D01*
%TD*%
%TA.AperFunction,Conductor*%
%TO.N,GND1*%
G36*
X33287539Y-6270185D02*
G01*
X33333294Y-6322989D01*
X33344500Y-6374500D01*
X33344500Y-59680682D01*
X33345731Y-59705729D01*
X33348114Y-59729920D01*
X33351792Y-59754718D01*
X33352091Y-59756221D01*
X33362290Y-59807493D01*
X33367433Y-59833351D01*
X33381972Y-59881280D01*
X33400487Y-59925980D01*
X33401922Y-59928664D01*
X33401924Y-59928669D01*
X33417104Y-59957068D01*
X33424099Y-59970155D01*
X33425792Y-59972689D01*
X33425797Y-59972697D01*
X33460036Y-60023939D01*
X33460041Y-60023946D01*
X33461725Y-60026466D01*
X33463645Y-60028805D01*
X33463652Y-60028815D01*
X33491562Y-60062823D01*
X33493499Y-60065183D01*
X33527710Y-60099394D01*
X33530068Y-60101329D01*
X33530070Y-60101331D01*
X33564078Y-60129241D01*
X33564088Y-60129248D01*
X33566427Y-60131168D01*
X33568947Y-60132852D01*
X33568954Y-60132857D01*
X33620196Y-60167096D01*
X33620204Y-60167101D01*
X33622738Y-60168794D01*
X33625436Y-60170236D01*
X33664224Y-60190969D01*
X33664229Y-60190971D01*
X33666913Y-60192406D01*
X33711613Y-60210921D01*
X33737715Y-60218839D01*
X33756627Y-60224576D01*
X33756632Y-60224577D01*
X33759542Y-60225460D01*
X33762532Y-60226055D01*
X33762537Y-60226056D01*
X33827630Y-60239003D01*
X33838175Y-60241101D01*
X33853829Y-60243423D01*
X33861468Y-60244556D01*
X33861477Y-60244557D01*
X33862973Y-60244779D01*
X33887164Y-60247162D01*
X33888678Y-60247236D01*
X33888686Y-60247237D01*
X33910700Y-60248319D01*
X33910711Y-60248319D01*
X33912211Y-60248393D01*
X40487789Y-60248393D01*
X40489289Y-60248319D01*
X40489300Y-60248319D01*
X40511314Y-60247237D01*
X40511322Y-60247236D01*
X40512836Y-60247162D01*
X40537027Y-60244779D01*
X40538523Y-60244557D01*
X40538532Y-60244556D01*
X40546171Y-60243423D01*
X40561825Y-60241101D01*
X40572370Y-60239003D01*
X40637463Y-60226056D01*
X40637468Y-60226055D01*
X40640458Y-60225460D01*
X40643368Y-60224577D01*
X40643373Y-60224576D01*
X40662285Y-60218839D01*
X40688387Y-60210921D01*
X40733087Y-60192406D01*
X40735771Y-60190971D01*
X40735776Y-60190969D01*
X40774564Y-60170236D01*
X40777262Y-60168794D01*
X40779796Y-60167101D01*
X40779804Y-60167096D01*
X40831046Y-60132857D01*
X40831053Y-60132852D01*
X40833573Y-60131168D01*
X40835912Y-60129248D01*
X40835922Y-60129241D01*
X40869930Y-60101331D01*
X40869932Y-60101329D01*
X40872290Y-60099394D01*
X40906501Y-60065183D01*
X40908438Y-60062823D01*
X40936348Y-60028815D01*
X40936355Y-60028805D01*
X40938275Y-60026466D01*
X40939959Y-60023946D01*
X40939964Y-60023939D01*
X40974203Y-59972697D01*
X40974208Y-59972689D01*
X40975901Y-59970155D01*
X40982896Y-59957068D01*
X40998076Y-59928669D01*
X40998078Y-59928664D01*
X40999513Y-59925980D01*
X41018028Y-59881280D01*
X41032567Y-59833351D01*
X41037711Y-59807493D01*
X41047909Y-59756221D01*
X41048208Y-59754718D01*
X41051886Y-59729920D01*
X41054269Y-59705729D01*
X41055500Y-59680682D01*
X41055500Y-58968523D01*
X41075185Y-58901484D01*
X41127989Y-58855729D01*
X41197147Y-58845785D01*
X41226953Y-58853962D01*
X41266172Y-58870207D01*
X41313575Y-58876448D01*
X41386108Y-58885997D01*
X41450005Y-58914263D01*
X41488476Y-58972588D01*
X41487854Y-59047253D01*
X41463503Y-59122197D01*
X41444815Y-59300000D01*
X41463503Y-59477803D01*
X41465510Y-59483981D01*
X41465511Y-59483984D01*
X41473930Y-59509894D01*
X41518750Y-59647835D01*
X41521997Y-59653460D01*
X41521998Y-59653461D01*
X41549114Y-59700427D01*
X41608141Y-59802665D01*
X41612487Y-59807492D01*
X41612488Y-59807493D01*
X41667955Y-59869095D01*
X41727770Y-59935526D01*
X41872407Y-60040612D01*
X41878341Y-60043254D01*
X41999581Y-60097233D01*
X42035733Y-60113329D01*
X42042095Y-60114681D01*
X42042094Y-60114681D01*
X42204246Y-60149148D01*
X42204251Y-60149148D01*
X42210609Y-60150500D01*
X42389391Y-60150500D01*
X42395749Y-60149148D01*
X42395754Y-60149148D01*
X42557906Y-60114681D01*
X42557905Y-60114681D01*
X42564267Y-60113329D01*
X42600420Y-60097233D01*
X42721659Y-60043254D01*
X42727593Y-60040612D01*
X42872230Y-59935526D01*
X42932045Y-59869095D01*
X42987512Y-59807493D01*
X42987513Y-59807492D01*
X42991859Y-59802665D01*
X43050886Y-59700427D01*
X43078002Y-59653461D01*
X43078003Y-59653460D01*
X43081250Y-59647835D01*
X43126070Y-59509894D01*
X43134489Y-59483984D01*
X43134490Y-59483981D01*
X43136497Y-59477803D01*
X43155185Y-59300000D01*
X43136497Y-59122197D01*
X43133463Y-59112857D01*
X43083257Y-58958343D01*
X43081250Y-58952165D01*
X43062381Y-58919482D01*
X42995107Y-58802961D01*
X42991859Y-58797335D01*
X42977589Y-58781486D01*
X42876579Y-58669304D01*
X42872230Y-58664474D01*
X42866973Y-58660654D01*
X42866969Y-58660651D01*
X42851614Y-58649495D01*
X42808948Y-58594165D01*
X42800500Y-58549178D01*
X42800500Y-57519961D01*
X42801835Y-57508015D01*
X42801361Y-57507977D01*
X42802070Y-57499168D01*
X42804019Y-57490553D01*
X42801501Y-57449961D01*
X42800738Y-57437672D01*
X42800500Y-57429993D01*
X42800500Y-57414060D01*
X42799041Y-57403870D01*
X42798026Y-57393966D01*
X42795688Y-57356278D01*
X42795141Y-57347462D01*
X42792140Y-57339151D01*
X42791554Y-57336319D01*
X42787390Y-57319616D01*
X42786576Y-57316832D01*
X42785323Y-57308082D01*
X42766031Y-57265652D01*
X42762284Y-57256446D01*
X42749461Y-57220925D01*
X42749460Y-57220923D01*
X42746460Y-57212613D01*
X42741245Y-57205475D01*
X42739884Y-57202915D01*
X42731195Y-57188045D01*
X42729641Y-57185615D01*
X42725984Y-57177572D01*
X42695554Y-57142257D01*
X42689366Y-57134462D01*
X42681478Y-57123664D01*
X42680010Y-57122196D01*
X42651661Y-57059150D01*
X42650500Y-57042220D01*
X42650500Y-51688069D01*
X44958164Y-51688069D01*
X44958535Y-51693731D01*
X44958535Y-51693735D01*
X44963851Y-51774842D01*
X44971392Y-51889894D01*
X45021178Y-52085928D01*
X45023554Y-52091082D01*
X45087156Y-52229043D01*
X45105856Y-52269607D01*
X45222588Y-52434780D01*
X45367466Y-52575913D01*
X45535637Y-52688282D01*
X45721470Y-52768122D01*
X45817502Y-52789852D01*
X45913193Y-52811505D01*
X45913195Y-52811505D01*
X45918740Y-52812760D01*
X46036135Y-52817372D01*
X46115161Y-52820477D01*
X46115163Y-52820477D01*
X46120842Y-52820700D01*
X46126462Y-52819885D01*
X46126465Y-52819885D01*
X46315387Y-52792493D01*
X46315389Y-52792493D01*
X46321007Y-52791678D01*
X46326384Y-52789853D01*
X46326387Y-52789852D01*
X46411090Y-52761099D01*
X46512531Y-52726664D01*
X46689001Y-52627837D01*
X46713983Y-52607060D01*
X46840138Y-52502137D01*
X46844505Y-52498505D01*
X46973837Y-52343001D01*
X47072664Y-52166531D01*
X47137678Y-51975007D01*
X47141791Y-51946639D01*
X47166176Y-51778458D01*
X47166176Y-51778453D01*
X47166700Y-51774842D01*
X47168215Y-51717000D01*
X47149708Y-51515591D01*
X47094807Y-51320926D01*
X47005351Y-51139527D01*
X46884335Y-50977467D01*
X46816417Y-50914684D01*
X46739988Y-50844034D01*
X46739986Y-50844033D01*
X46735812Y-50840174D01*
X46697573Y-50816047D01*
X46569566Y-50735280D01*
X46569564Y-50735279D01*
X46564757Y-50732246D01*
X46376898Y-50657298D01*
X46371317Y-50656188D01*
X46371314Y-50656187D01*
X46303373Y-50642673D01*
X46178526Y-50617839D01*
X46172839Y-50617765D01*
X46172834Y-50617764D01*
X45981975Y-50615266D01*
X45981970Y-50615266D01*
X45976286Y-50615192D01*
X45970682Y-50616155D01*
X45970681Y-50616155D01*
X45782546Y-50648482D01*
X45782543Y-50648483D01*
X45776949Y-50649444D01*
X45758189Y-50656365D01*
X45592521Y-50717483D01*
X45592517Y-50717485D01*
X45587193Y-50719449D01*
X45582310Y-50722354D01*
X45582308Y-50722355D01*
X45424826Y-50816047D01*
X45413371Y-50822862D01*
X45261305Y-50956220D01*
X45136089Y-51115057D01*
X45041914Y-51294053D01*
X45040229Y-51299479D01*
X45040228Y-51299482D01*
X45033570Y-51320926D01*
X44981937Y-51487213D01*
X44958164Y-51688069D01*
X42650500Y-51688069D01*
X42650500Y-49148069D01*
X44958164Y-49148069D01*
X44958535Y-49153731D01*
X44958535Y-49153735D01*
X44963851Y-49234842D01*
X44971392Y-49349894D01*
X45021178Y-49545928D01*
X45023554Y-49551082D01*
X45098613Y-49713895D01*
X45105856Y-49729607D01*
X45222588Y-49894780D01*
X45367466Y-50035913D01*
X45535637Y-50148282D01*
X45721470Y-50228122D01*
X45792895Y-50244284D01*
X45913193Y-50271505D01*
X45913195Y-50271505D01*
X45918740Y-50272760D01*
X46036135Y-50277372D01*
X46115161Y-50280477D01*
X46115163Y-50280477D01*
X46120842Y-50280700D01*
X46126462Y-50279885D01*
X46126465Y-50279885D01*
X46315387Y-50252493D01*
X46315389Y-50252493D01*
X46321007Y-50251678D01*
X46326384Y-50249853D01*
X46326387Y-50249852D01*
X46411090Y-50221099D01*
X46512531Y-50186664D01*
X46689001Y-50087837D01*
X46751433Y-50035913D01*
X46840138Y-49962137D01*
X46844505Y-49958505D01*
X46901364Y-49890140D01*
X46970206Y-49807367D01*
X46970207Y-49807366D01*
X46973837Y-49803001D01*
X47072664Y-49626531D01*
X47132072Y-49451523D01*
X47135852Y-49440387D01*
X47135853Y-49440384D01*
X47137678Y-49435007D01*
X47155979Y-49308788D01*
X47166176Y-49238458D01*
X47166176Y-49238453D01*
X47166700Y-49234842D01*
X47168215Y-49177000D01*
X47149708Y-48975591D01*
X47094807Y-48780926D01*
X47005351Y-48599527D01*
X46884335Y-48437467D01*
X46735812Y-48300174D01*
X46607237Y-48219049D01*
X46569566Y-48195280D01*
X46569564Y-48195279D01*
X46564757Y-48192246D01*
X46376898Y-48117298D01*
X46371317Y-48116188D01*
X46371314Y-48116187D01*
X46303373Y-48102673D01*
X46178526Y-48077839D01*
X46172839Y-48077765D01*
X46172834Y-48077764D01*
X45981975Y-48075266D01*
X45981970Y-48075266D01*
X45976286Y-48075192D01*
X45970682Y-48076155D01*
X45970681Y-48076155D01*
X45782546Y-48108482D01*
X45782543Y-48108483D01*
X45776949Y-48109444D01*
X45755660Y-48117298D01*
X45592521Y-48177483D01*
X45592517Y-48177485D01*
X45587193Y-48179449D01*
X45582310Y-48182354D01*
X45582308Y-48182355D01*
X45565683Y-48192246D01*
X45413371Y-48282862D01*
X45261305Y-48416220D01*
X45136089Y-48575057D01*
X45133442Y-48580088D01*
X45089290Y-48664006D01*
X45041914Y-48754053D01*
X45040229Y-48759479D01*
X45040228Y-48759482D01*
X45022603Y-48816244D01*
X44981937Y-48947213D01*
X44958164Y-49148069D01*
X42650500Y-49148069D01*
X42650500Y-46608069D01*
X44958164Y-46608069D01*
X44958535Y-46613731D01*
X44958535Y-46613735D01*
X44963851Y-46694842D01*
X44971392Y-46809894D01*
X45021178Y-47005928D01*
X45023554Y-47011082D01*
X45065063Y-47101120D01*
X45105856Y-47189607D01*
X45222588Y-47354780D01*
X45367466Y-47495913D01*
X45535637Y-47608282D01*
X45721470Y-47688122D01*
X45817502Y-47709852D01*
X45913193Y-47731505D01*
X45913195Y-47731505D01*
X45918740Y-47732760D01*
X46036135Y-47737372D01*
X46115161Y-47740477D01*
X46115163Y-47740477D01*
X46120842Y-47740700D01*
X46126462Y-47739885D01*
X46126465Y-47739885D01*
X46315387Y-47712493D01*
X46315389Y-47712493D01*
X46321007Y-47711678D01*
X46326384Y-47709853D01*
X46326387Y-47709852D01*
X46471347Y-47660644D01*
X46512531Y-47646664D01*
X46689001Y-47547837D01*
X46751433Y-47495913D01*
X46840138Y-47422137D01*
X46844505Y-47418505D01*
X46944750Y-47297974D01*
X46970206Y-47267367D01*
X46970207Y-47267366D01*
X46973837Y-47263001D01*
X46992834Y-47229080D01*
X47038253Y-47147976D01*
X47072664Y-47086531D01*
X47137678Y-46895007D01*
X47141617Y-46867839D01*
X47166176Y-46698458D01*
X47166176Y-46698453D01*
X47166700Y-46694842D01*
X47168215Y-46637000D01*
X47149708Y-46435591D01*
X47110751Y-46297460D01*
X47096352Y-46246403D01*
X47096351Y-46246400D01*
X47094807Y-46240926D01*
X47005351Y-46059527D01*
X46884335Y-45897467D01*
X46735812Y-45760174D01*
X46564757Y-45652246D01*
X46376898Y-45577298D01*
X46371317Y-45576188D01*
X46371314Y-45576187D01*
X46302635Y-45562526D01*
X46178526Y-45537839D01*
X46172839Y-45537765D01*
X46172834Y-45537764D01*
X45981975Y-45535266D01*
X45981970Y-45535266D01*
X45976286Y-45535192D01*
X45970682Y-45536155D01*
X45970681Y-45536155D01*
X45782546Y-45568482D01*
X45782543Y-45568483D01*
X45776949Y-45569444D01*
X45755660Y-45577298D01*
X45592521Y-45637483D01*
X45592517Y-45637485D01*
X45587193Y-45639449D01*
X45582310Y-45642354D01*
X45582308Y-45642355D01*
X45418262Y-45739952D01*
X45413371Y-45742862D01*
X45261305Y-45876220D01*
X45136089Y-46035057D01*
X45041914Y-46214053D01*
X45040229Y-46219479D01*
X45040228Y-46219482D01*
X45026185Y-46264710D01*
X44981937Y-46407213D01*
X44958164Y-46608069D01*
X42650500Y-46608069D01*
X42650500Y-44068069D01*
X44958164Y-44068069D01*
X44958535Y-44073731D01*
X44958535Y-44073735D01*
X44963851Y-44154842D01*
X44971392Y-44269894D01*
X45021178Y-44465928D01*
X45023554Y-44471082D01*
X45031045Y-44487330D01*
X45105856Y-44649607D01*
X45222588Y-44814780D01*
X45367466Y-44955913D01*
X45535637Y-45068282D01*
X45721470Y-45148122D01*
X45817502Y-45169852D01*
X45913193Y-45191505D01*
X45913195Y-45191505D01*
X45918740Y-45192760D01*
X46036135Y-45197372D01*
X46115161Y-45200477D01*
X46115163Y-45200477D01*
X46120842Y-45200700D01*
X46126462Y-45199885D01*
X46126465Y-45199885D01*
X46315387Y-45172493D01*
X46315389Y-45172493D01*
X46321007Y-45171678D01*
X46326384Y-45169853D01*
X46326387Y-45169852D01*
X46470431Y-45120955D01*
X46512531Y-45106664D01*
X46689001Y-45007837D01*
X46751433Y-44955913D01*
X46840138Y-44882137D01*
X46844505Y-44878505D01*
X46973837Y-44723001D01*
X46990977Y-44692396D01*
X47017828Y-44644449D01*
X47072664Y-44546531D01*
X47137678Y-44355007D01*
X47144363Y-44308899D01*
X47166176Y-44158458D01*
X47166176Y-44158453D01*
X47166700Y-44154842D01*
X47168215Y-44097000D01*
X47149708Y-43895591D01*
X47094807Y-43700926D01*
X47005351Y-43519527D01*
X46884335Y-43357467D01*
X46735812Y-43220174D01*
X46703762Y-43199952D01*
X46569566Y-43115280D01*
X46569564Y-43115279D01*
X46564757Y-43112246D01*
X46376898Y-43037298D01*
X46371317Y-43036188D01*
X46371314Y-43036187D01*
X46303373Y-43022673D01*
X46178526Y-42997839D01*
X46172839Y-42997765D01*
X46172834Y-42997764D01*
X45981975Y-42995266D01*
X45981970Y-42995266D01*
X45976286Y-42995192D01*
X45970682Y-42996155D01*
X45970681Y-42996155D01*
X45782546Y-43028482D01*
X45782543Y-43028483D01*
X45776949Y-43029444D01*
X45755660Y-43037298D01*
X45592521Y-43097483D01*
X45592517Y-43097485D01*
X45587193Y-43099449D01*
X45582310Y-43102354D01*
X45582308Y-43102355D01*
X45418262Y-43199952D01*
X45413371Y-43202862D01*
X45261305Y-43336220D01*
X45136089Y-43495057D01*
X45041914Y-43674053D01*
X45040229Y-43679479D01*
X45040228Y-43679482D01*
X45007831Y-43783820D01*
X44981937Y-43867213D01*
X44958164Y-44068069D01*
X42650500Y-44068069D01*
X42650500Y-41528069D01*
X44958164Y-41528069D01*
X44958535Y-41533731D01*
X44958535Y-41533735D01*
X44963851Y-41614842D01*
X44971392Y-41729894D01*
X45021178Y-41925928D01*
X45023554Y-41931082D01*
X45066848Y-42024992D01*
X45105856Y-42109607D01*
X45222588Y-42274780D01*
X45367466Y-42415913D01*
X45535637Y-42528282D01*
X45721470Y-42608122D01*
X45797916Y-42625420D01*
X45913193Y-42651505D01*
X45913195Y-42651505D01*
X45918740Y-42652760D01*
X46036135Y-42657372D01*
X46115161Y-42660477D01*
X46115163Y-42660477D01*
X46120842Y-42660700D01*
X46126462Y-42659885D01*
X46126465Y-42659885D01*
X46315387Y-42632493D01*
X46315389Y-42632493D01*
X46321007Y-42631678D01*
X46326384Y-42629853D01*
X46326387Y-42629852D01*
X46412094Y-42600758D01*
X46512531Y-42566664D01*
X46613897Y-42509897D01*
X46684048Y-42470611D01*
X46684050Y-42470610D01*
X46689001Y-42467837D01*
X46751433Y-42415913D01*
X46840138Y-42342137D01*
X46844505Y-42338505D01*
X46973837Y-42183001D01*
X47072664Y-42006531D01*
X47113009Y-41887679D01*
X47135852Y-41820387D01*
X47135853Y-41820384D01*
X47137678Y-41815007D01*
X47138493Y-41809387D01*
X47166176Y-41618458D01*
X47166176Y-41618453D01*
X47166700Y-41614842D01*
X47168215Y-41557000D01*
X47149708Y-41355591D01*
X47094807Y-41160926D01*
X47005351Y-40979527D01*
X46884335Y-40817467D01*
X46761446Y-40703870D01*
X46739988Y-40684034D01*
X46739986Y-40684033D01*
X46735812Y-40680174D01*
X46714319Y-40666613D01*
X46569566Y-40575280D01*
X46569564Y-40575279D01*
X46564757Y-40572246D01*
X46376898Y-40497298D01*
X46371317Y-40496188D01*
X46371314Y-40496187D01*
X46303373Y-40482673D01*
X46178526Y-40457839D01*
X46172839Y-40457765D01*
X46172834Y-40457764D01*
X45981975Y-40455266D01*
X45981970Y-40455266D01*
X45976286Y-40455192D01*
X45970682Y-40456155D01*
X45970681Y-40456155D01*
X45782546Y-40488482D01*
X45782543Y-40488483D01*
X45776949Y-40489444D01*
X45755660Y-40497298D01*
X45592521Y-40557483D01*
X45592517Y-40557485D01*
X45587193Y-40559449D01*
X45582310Y-40562354D01*
X45582308Y-40562355D01*
X45565683Y-40572246D01*
X45413371Y-40662862D01*
X45261305Y-40796220D01*
X45136089Y-40955057D01*
X45133442Y-40960088D01*
X45069335Y-41081934D01*
X45041914Y-41134053D01*
X45040229Y-41139479D01*
X45040228Y-41139482D01*
X45034138Y-41159096D01*
X44981937Y-41327213D01*
X44958164Y-41528069D01*
X42650500Y-41528069D01*
X42650500Y-38988069D01*
X44958164Y-38988069D01*
X44958535Y-38993731D01*
X44958535Y-38993735D01*
X44963851Y-39074842D01*
X44971392Y-39189894D01*
X45021178Y-39385928D01*
X45023554Y-39391082D01*
X45039405Y-39425464D01*
X45105856Y-39569607D01*
X45222588Y-39734780D01*
X45367466Y-39875913D01*
X45535637Y-39988282D01*
X45721470Y-40068122D01*
X45817502Y-40089852D01*
X45913193Y-40111505D01*
X45913195Y-40111505D01*
X45918740Y-40112760D01*
X46036135Y-40117372D01*
X46115161Y-40120477D01*
X46115163Y-40120477D01*
X46120842Y-40120700D01*
X46126462Y-40119885D01*
X46126465Y-40119885D01*
X46315387Y-40092493D01*
X46315389Y-40092493D01*
X46321007Y-40091678D01*
X46326384Y-40089853D01*
X46326387Y-40089852D01*
X46411090Y-40061099D01*
X46512531Y-40026664D01*
X46675871Y-39935190D01*
X46684048Y-39930611D01*
X46684050Y-39930610D01*
X46689001Y-39927837D01*
X46705765Y-39913895D01*
X46840138Y-39802137D01*
X46844505Y-39798505D01*
X46933113Y-39691966D01*
X46970206Y-39647367D01*
X46970207Y-39647366D01*
X46973837Y-39643001D01*
X47072664Y-39466531D01*
X47137678Y-39275007D01*
X47138866Y-39266815D01*
X47166176Y-39078458D01*
X47166176Y-39078453D01*
X47166700Y-39074842D01*
X47168215Y-39017000D01*
X47149708Y-38815591D01*
X47094807Y-38620926D01*
X47005351Y-38439527D01*
X46884335Y-38277467D01*
X46806678Y-38205682D01*
X46739988Y-38144034D01*
X46739986Y-38144033D01*
X46735812Y-38140174D01*
X46731002Y-38137139D01*
X46569566Y-38035280D01*
X46569564Y-38035279D01*
X46564757Y-38032246D01*
X46376898Y-37957298D01*
X46371317Y-37956188D01*
X46371314Y-37956187D01*
X46303373Y-37942673D01*
X46178526Y-37917839D01*
X46172839Y-37917765D01*
X46172834Y-37917764D01*
X45981975Y-37915266D01*
X45981970Y-37915266D01*
X45976286Y-37915192D01*
X45970682Y-37916155D01*
X45970681Y-37916155D01*
X45782546Y-37948482D01*
X45782543Y-37948483D01*
X45776949Y-37949444D01*
X45755660Y-37957298D01*
X45592521Y-38017483D01*
X45592517Y-38017485D01*
X45587193Y-38019449D01*
X45582310Y-38022354D01*
X45582308Y-38022355D01*
X45418872Y-38119589D01*
X45413371Y-38122862D01*
X45261305Y-38256220D01*
X45136089Y-38415057D01*
X45041914Y-38594053D01*
X45040229Y-38599479D01*
X45040228Y-38599482D01*
X45002421Y-38721244D01*
X44981937Y-38787213D01*
X44958164Y-38988069D01*
X42650500Y-38988069D01*
X42650500Y-36448069D01*
X44958164Y-36448069D01*
X44958535Y-36453731D01*
X44958535Y-36453735D01*
X44963851Y-36534842D01*
X44971392Y-36649894D01*
X45021178Y-36845928D01*
X45023554Y-36851082D01*
X45074835Y-36962317D01*
X45105856Y-37029607D01*
X45222588Y-37194780D01*
X45367466Y-37335913D01*
X45535637Y-37448282D01*
X45721470Y-37528122D01*
X45817502Y-37549852D01*
X45913193Y-37571505D01*
X45913195Y-37571505D01*
X45918740Y-37572760D01*
X46036135Y-37577372D01*
X46115161Y-37580477D01*
X46115163Y-37580477D01*
X46120842Y-37580700D01*
X46126462Y-37579885D01*
X46126465Y-37579885D01*
X46315387Y-37552493D01*
X46315389Y-37552493D01*
X46321007Y-37551678D01*
X46326384Y-37549853D01*
X46326387Y-37549852D01*
X46411090Y-37521099D01*
X46512531Y-37486664D01*
X46689001Y-37387837D01*
X46751433Y-37335913D01*
X46840138Y-37262137D01*
X46844505Y-37258505D01*
X46909263Y-37180642D01*
X46970206Y-37107367D01*
X46970207Y-37107366D01*
X46973837Y-37103001D01*
X47072664Y-36926531D01*
X47137678Y-36735007D01*
X47141066Y-36711639D01*
X47166176Y-36538458D01*
X47166176Y-36538453D01*
X47166700Y-36534842D01*
X47167436Y-36506762D01*
X47168119Y-36480661D01*
X47168215Y-36477000D01*
X47149708Y-36275591D01*
X47094807Y-36080926D01*
X47005351Y-35899527D01*
X46884335Y-35737467D01*
X46750490Y-35613742D01*
X46739988Y-35604034D01*
X46739986Y-35604033D01*
X46735812Y-35600174D01*
X46731002Y-35597139D01*
X46569566Y-35495280D01*
X46569564Y-35495279D01*
X46564757Y-35492246D01*
X46376898Y-35417298D01*
X46371317Y-35416188D01*
X46371314Y-35416187D01*
X46303373Y-35402673D01*
X46178526Y-35377839D01*
X46172839Y-35377765D01*
X46172834Y-35377764D01*
X45981975Y-35375266D01*
X45981970Y-35375266D01*
X45976286Y-35375192D01*
X45970682Y-35376155D01*
X45970681Y-35376155D01*
X45782546Y-35408482D01*
X45782543Y-35408483D01*
X45776949Y-35409444D01*
X45755660Y-35417298D01*
X45592521Y-35477483D01*
X45592517Y-35477485D01*
X45587193Y-35479449D01*
X45582310Y-35482354D01*
X45582308Y-35482355D01*
X45468449Y-35550094D01*
X45413371Y-35582862D01*
X45261305Y-35716220D01*
X45136089Y-35875057D01*
X45041914Y-36054053D01*
X45040229Y-36059479D01*
X45040228Y-36059482D01*
X45033570Y-36080926D01*
X44981937Y-36247213D01*
X44958164Y-36448069D01*
X42650500Y-36448069D01*
X42650500Y-33908069D01*
X44958164Y-33908069D01*
X44958535Y-33913731D01*
X44958535Y-33913735D01*
X44963817Y-33994317D01*
X44971392Y-34109894D01*
X45021178Y-34305928D01*
X45023554Y-34311082D01*
X45070260Y-34412393D01*
X45105856Y-34489607D01*
X45222588Y-34654780D01*
X45367466Y-34795913D01*
X45535637Y-34908282D01*
X45721470Y-34988122D01*
X45762455Y-34997396D01*
X45913193Y-35031505D01*
X45913195Y-35031505D01*
X45918740Y-35032760D01*
X46036135Y-35037372D01*
X46115161Y-35040477D01*
X46115163Y-35040477D01*
X46120842Y-35040700D01*
X46126462Y-35039885D01*
X46126465Y-35039885D01*
X46315387Y-35012493D01*
X46315389Y-35012493D01*
X46321007Y-35011678D01*
X46326384Y-35009853D01*
X46326387Y-35009852D01*
X46411090Y-34981099D01*
X46512531Y-34946664D01*
X46689001Y-34847837D01*
X46751433Y-34795913D01*
X46840138Y-34722137D01*
X46844505Y-34718505D01*
X46943520Y-34599453D01*
X46970206Y-34567367D01*
X46970207Y-34567366D01*
X46973837Y-34563001D01*
X47072664Y-34386531D01*
X47124409Y-34234096D01*
X47135852Y-34200387D01*
X47135853Y-34200384D01*
X47137678Y-34195007D01*
X47138733Y-34187730D01*
X47166176Y-33998458D01*
X47166176Y-33998453D01*
X47166700Y-33994842D01*
X47168215Y-33937000D01*
X47149708Y-33735591D01*
X47094807Y-33540926D01*
X47005351Y-33359527D01*
X46884335Y-33197467D01*
X46735812Y-33060174D01*
X46683295Y-33027038D01*
X46569566Y-32955280D01*
X46569564Y-32955279D01*
X46564757Y-32952246D01*
X46376898Y-32877298D01*
X46371317Y-32876188D01*
X46371314Y-32876187D01*
X46303373Y-32862673D01*
X46178526Y-32837839D01*
X46172839Y-32837765D01*
X46172834Y-32837764D01*
X45981975Y-32835266D01*
X45981970Y-32835266D01*
X45976286Y-32835192D01*
X45970682Y-32836155D01*
X45970681Y-32836155D01*
X45782546Y-32868482D01*
X45782543Y-32868483D01*
X45776949Y-32869444D01*
X45755660Y-32877298D01*
X45592521Y-32937483D01*
X45592517Y-32937485D01*
X45587193Y-32939449D01*
X45582310Y-32942354D01*
X45582308Y-32942355D01*
X45442315Y-33025642D01*
X45413371Y-33042862D01*
X45261305Y-33176220D01*
X45136089Y-33335057D01*
X45041914Y-33514053D01*
X45040229Y-33519479D01*
X45040228Y-33519482D01*
X45007687Y-33624284D01*
X44981937Y-33707213D01*
X44958164Y-33908069D01*
X42650500Y-33908069D01*
X42650500Y-31368069D01*
X44958164Y-31368069D01*
X44958535Y-31373731D01*
X44958535Y-31373735D01*
X44963799Y-31454043D01*
X44971392Y-31569894D01*
X45021178Y-31765928D01*
X45023554Y-31771082D01*
X45051666Y-31832060D01*
X45105856Y-31949607D01*
X45222588Y-32114780D01*
X45367466Y-32255913D01*
X45535637Y-32368282D01*
X45721470Y-32448122D01*
X45802627Y-32466486D01*
X45913193Y-32491505D01*
X45913195Y-32491505D01*
X45918740Y-32492760D01*
X46036135Y-32497372D01*
X46115161Y-32500477D01*
X46115163Y-32500477D01*
X46120842Y-32500700D01*
X46126462Y-32499885D01*
X46126465Y-32499885D01*
X46315387Y-32472493D01*
X46315389Y-32472493D01*
X46321007Y-32471678D01*
X46326384Y-32469853D01*
X46326387Y-32469852D01*
X46456618Y-32425644D01*
X46512531Y-32406664D01*
X46689001Y-32307837D01*
X46719461Y-32282504D01*
X46840138Y-32182137D01*
X46844505Y-32178505D01*
X46935665Y-32068898D01*
X46970206Y-32027367D01*
X46970207Y-32027366D01*
X46973837Y-32023001D01*
X47072664Y-31846531D01*
X47118153Y-31712526D01*
X47135852Y-31660387D01*
X47135853Y-31660384D01*
X47137678Y-31655007D01*
X47139322Y-31643669D01*
X47166176Y-31458458D01*
X47166176Y-31458453D01*
X47166700Y-31454842D01*
X47168215Y-31397000D01*
X47149708Y-31195591D01*
X47113437Y-31066984D01*
X47096352Y-31006403D01*
X47096351Y-31006400D01*
X47094807Y-31000926D01*
X47005351Y-30819527D01*
X46884335Y-30657467D01*
X46735812Y-30520174D01*
X46703762Y-30499952D01*
X46569566Y-30415280D01*
X46569564Y-30415279D01*
X46564757Y-30412246D01*
X46376898Y-30337298D01*
X46371317Y-30336188D01*
X46371314Y-30336187D01*
X46303373Y-30322673D01*
X46178526Y-30297839D01*
X46172839Y-30297765D01*
X46172834Y-30297764D01*
X45981975Y-30295266D01*
X45981970Y-30295266D01*
X45976286Y-30295192D01*
X45970682Y-30296155D01*
X45970681Y-30296155D01*
X45782546Y-30328482D01*
X45782543Y-30328483D01*
X45776949Y-30329444D01*
X45755660Y-30337298D01*
X45592521Y-30397483D01*
X45592517Y-30397485D01*
X45587193Y-30399449D01*
X45582310Y-30402354D01*
X45582308Y-30402355D01*
X45521680Y-30438425D01*
X45413371Y-30502862D01*
X45261305Y-30636220D01*
X45136089Y-30795057D01*
X45041914Y-30974053D01*
X45040229Y-30979479D01*
X45040228Y-30979482D01*
X45012744Y-31067997D01*
X44981937Y-31167213D01*
X44958164Y-31368069D01*
X42650500Y-31368069D01*
X42650500Y-28828069D01*
X44958164Y-28828069D01*
X44958535Y-28833731D01*
X44958535Y-28833735D01*
X44963851Y-28914842D01*
X44971392Y-29029894D01*
X45021178Y-29225928D01*
X45105856Y-29409607D01*
X45222588Y-29574780D01*
X45367466Y-29715913D01*
X45535637Y-29828282D01*
X45721470Y-29908122D01*
X45747858Y-29914093D01*
X45913193Y-29951505D01*
X45913195Y-29951505D01*
X45918740Y-29952760D01*
X46036135Y-29957372D01*
X46115161Y-29960477D01*
X46115163Y-29960477D01*
X46120842Y-29960700D01*
X46126462Y-29959885D01*
X46126465Y-29959885D01*
X46315387Y-29932493D01*
X46315389Y-29932493D01*
X46321007Y-29931678D01*
X46326384Y-29929853D01*
X46326387Y-29929852D01*
X46421650Y-29897514D01*
X46512531Y-29866664D01*
X46613897Y-29809897D01*
X46684048Y-29770611D01*
X46684050Y-29770610D01*
X46689001Y-29767837D01*
X46751433Y-29715913D01*
X46840138Y-29642137D01*
X46844505Y-29638505D01*
X46946481Y-29515893D01*
X46970206Y-29487367D01*
X46970207Y-29487366D01*
X46973837Y-29483001D01*
X46988177Y-29457396D01*
X47069886Y-29311491D01*
X47072664Y-29306531D01*
X47107146Y-29204952D01*
X47135852Y-29120387D01*
X47135853Y-29120384D01*
X47137678Y-29115007D01*
X47154707Y-28997560D01*
X47166176Y-28918458D01*
X47166176Y-28918453D01*
X47166700Y-28914842D01*
X47168215Y-28857000D01*
X47149708Y-28655591D01*
X47094807Y-28460926D01*
X47005351Y-28279527D01*
X46884335Y-28117467D01*
X46735812Y-27980174D01*
X46564757Y-27872246D01*
X46376898Y-27797298D01*
X46371317Y-27796188D01*
X46371314Y-27796187D01*
X46303373Y-27782673D01*
X46178526Y-27757839D01*
X46172839Y-27757765D01*
X46172834Y-27757764D01*
X45981975Y-27755266D01*
X45981970Y-27755266D01*
X45976286Y-27755192D01*
X45970682Y-27756155D01*
X45970681Y-27756155D01*
X45782546Y-27788482D01*
X45782543Y-27788483D01*
X45776949Y-27789444D01*
X45755660Y-27797298D01*
X45592521Y-27857483D01*
X45592517Y-27857485D01*
X45587193Y-27859449D01*
X45582310Y-27862354D01*
X45582308Y-27862355D01*
X45565683Y-27872246D01*
X45413371Y-27962862D01*
X45261305Y-28096220D01*
X45136089Y-28255057D01*
X45041914Y-28434053D01*
X45040229Y-28439479D01*
X45040228Y-28439482D01*
X45012404Y-28529093D01*
X44981937Y-28627213D01*
X44958164Y-28828069D01*
X42650500Y-28828069D01*
X42650500Y-26288069D01*
X44958164Y-26288069D01*
X44958535Y-26293731D01*
X44958535Y-26293735D01*
X44963851Y-26374842D01*
X44971392Y-26489894D01*
X45021178Y-26685928D01*
X45105856Y-26869607D01*
X45222588Y-27034780D01*
X45367466Y-27175913D01*
X45535637Y-27288282D01*
X45721470Y-27368122D01*
X45817502Y-27389852D01*
X45913193Y-27411505D01*
X45913195Y-27411505D01*
X45918740Y-27412760D01*
X46036135Y-27417372D01*
X46115161Y-27420477D01*
X46115163Y-27420477D01*
X46120842Y-27420700D01*
X46126462Y-27419885D01*
X46126465Y-27419885D01*
X46315387Y-27392493D01*
X46315389Y-27392493D01*
X46321007Y-27391678D01*
X46326384Y-27389853D01*
X46326387Y-27389852D01*
X46411090Y-27361099D01*
X46512531Y-27326664D01*
X46689001Y-27227837D01*
X46751433Y-27175913D01*
X46840138Y-27102137D01*
X46844505Y-27098505D01*
X46961810Y-26957462D01*
X46970206Y-26947367D01*
X46970207Y-26947366D01*
X46973837Y-26943001D01*
X46991821Y-26910889D01*
X47069886Y-26771491D01*
X47072664Y-26766531D01*
X47137678Y-26575007D01*
X47166700Y-26374842D01*
X47168215Y-26317000D01*
X47149708Y-26115591D01*
X47094807Y-25920926D01*
X47005351Y-25739527D01*
X46884335Y-25577467D01*
X46735812Y-25440174D01*
X46564757Y-25332246D01*
X46376898Y-25257298D01*
X46371317Y-25256188D01*
X46371314Y-25256187D01*
X46303373Y-25242673D01*
X46178526Y-25217839D01*
X46172839Y-25217765D01*
X46172834Y-25217764D01*
X45981975Y-25215266D01*
X45981970Y-25215266D01*
X45976286Y-25215192D01*
X45970682Y-25216155D01*
X45970681Y-25216155D01*
X45782546Y-25248482D01*
X45782543Y-25248483D01*
X45776949Y-25249444D01*
X45755660Y-25257298D01*
X45592521Y-25317483D01*
X45592517Y-25317485D01*
X45587193Y-25319449D01*
X45582310Y-25322354D01*
X45582308Y-25322355D01*
X45565683Y-25332246D01*
X45413371Y-25422862D01*
X45261305Y-25556220D01*
X45136089Y-25715057D01*
X45041914Y-25894053D01*
X45040229Y-25899479D01*
X45040228Y-25899482D01*
X45033570Y-25920926D01*
X44981937Y-26087213D01*
X44958164Y-26288069D01*
X42650500Y-26288069D01*
X42650500Y-23748069D01*
X44958164Y-23748069D01*
X44958535Y-23753731D01*
X44958535Y-23753735D01*
X44963851Y-23834842D01*
X44971392Y-23949894D01*
X45021178Y-24145928D01*
X45105856Y-24329607D01*
X45222588Y-24494780D01*
X45367466Y-24635913D01*
X45535637Y-24748282D01*
X45721470Y-24828122D01*
X45817502Y-24849852D01*
X45913193Y-24871505D01*
X45913195Y-24871505D01*
X45918740Y-24872760D01*
X46036135Y-24877372D01*
X46115161Y-24880477D01*
X46115163Y-24880477D01*
X46120842Y-24880700D01*
X46126462Y-24879885D01*
X46126465Y-24879885D01*
X46315387Y-24852493D01*
X46315389Y-24852493D01*
X46321007Y-24851678D01*
X46326384Y-24849853D01*
X46326387Y-24849852D01*
X46411090Y-24821099D01*
X46512531Y-24786664D01*
X46689001Y-24687837D01*
X46751433Y-24635913D01*
X46840138Y-24562137D01*
X46844505Y-24558505D01*
X46973837Y-24403001D01*
X47072664Y-24226531D01*
X47137678Y-24035007D01*
X47166700Y-23834842D01*
X47168215Y-23777000D01*
X47149708Y-23575591D01*
X47118632Y-23465405D01*
X47096352Y-23386403D01*
X47096351Y-23386400D01*
X47094807Y-23380926D01*
X47005351Y-23199527D01*
X46884335Y-23037467D01*
X46822697Y-22980490D01*
X46739988Y-22904034D01*
X46739986Y-22904033D01*
X46735812Y-22900174D01*
X46564757Y-22792246D01*
X46376898Y-22717298D01*
X46371317Y-22716188D01*
X46371314Y-22716187D01*
X46303373Y-22702673D01*
X46178526Y-22677839D01*
X46172839Y-22677765D01*
X46172834Y-22677764D01*
X45981975Y-22675266D01*
X45981970Y-22675266D01*
X45976286Y-22675192D01*
X45970682Y-22676155D01*
X45970681Y-22676155D01*
X45782546Y-22708482D01*
X45782543Y-22708483D01*
X45776949Y-22709444D01*
X45755660Y-22717298D01*
X45592521Y-22777483D01*
X45592517Y-22777485D01*
X45587193Y-22779449D01*
X45582310Y-22782354D01*
X45582308Y-22782355D01*
X45565683Y-22792246D01*
X45413371Y-22882862D01*
X45261305Y-23016220D01*
X45136089Y-23175057D01*
X45041914Y-23354053D01*
X45040229Y-23359479D01*
X45040228Y-23359482D01*
X45033570Y-23380926D01*
X44981937Y-23547213D01*
X44958164Y-23748069D01*
X42650500Y-23748069D01*
X42650500Y-21208069D01*
X44958164Y-21208069D01*
X44958535Y-21213731D01*
X44958535Y-21213735D01*
X44963851Y-21294842D01*
X44971392Y-21409894D01*
X45021178Y-21605928D01*
X45105856Y-21789607D01*
X45222588Y-21954780D01*
X45367466Y-22095913D01*
X45535637Y-22208282D01*
X45721470Y-22288122D01*
X45817502Y-22309852D01*
X45913193Y-22331505D01*
X45913195Y-22331505D01*
X45918740Y-22332760D01*
X46036135Y-22337372D01*
X46115161Y-22340477D01*
X46115163Y-22340477D01*
X46120842Y-22340700D01*
X46126462Y-22339885D01*
X46126465Y-22339885D01*
X46315387Y-22312493D01*
X46315389Y-22312493D01*
X46321007Y-22311678D01*
X46326384Y-22309853D01*
X46326387Y-22309852D01*
X46411090Y-22281099D01*
X46512531Y-22246664D01*
X46689001Y-22147837D01*
X46751433Y-22095913D01*
X46840138Y-22022137D01*
X46844505Y-22018505D01*
X46973837Y-21863001D01*
X47072664Y-21686531D01*
X47137678Y-21495007D01*
X47150840Y-21404228D01*
X47166176Y-21298458D01*
X47166176Y-21298453D01*
X47166700Y-21294842D01*
X47168215Y-21237000D01*
X47149708Y-21035591D01*
X47094807Y-20840926D01*
X47005351Y-20659527D01*
X46884335Y-20497467D01*
X46735812Y-20360174D01*
X46698727Y-20336775D01*
X46569566Y-20255280D01*
X46569564Y-20255279D01*
X46564757Y-20252246D01*
X46376898Y-20177298D01*
X46371317Y-20176188D01*
X46371314Y-20176187D01*
X46303373Y-20162673D01*
X46178526Y-20137839D01*
X46172839Y-20137765D01*
X46172834Y-20137764D01*
X45981975Y-20135266D01*
X45981970Y-20135266D01*
X45976286Y-20135192D01*
X45970682Y-20136155D01*
X45970681Y-20136155D01*
X45782546Y-20168482D01*
X45782543Y-20168483D01*
X45776949Y-20169444D01*
X45755660Y-20177298D01*
X45592521Y-20237483D01*
X45592517Y-20237485D01*
X45587193Y-20239449D01*
X45582310Y-20242354D01*
X45582308Y-20242355D01*
X45565683Y-20252246D01*
X45413371Y-20342862D01*
X45261305Y-20476220D01*
X45136089Y-20635057D01*
X45041914Y-20814053D01*
X45040229Y-20819479D01*
X45040228Y-20819482D01*
X45033570Y-20840926D01*
X44981937Y-21007213D01*
X44958164Y-21208069D01*
X42650500Y-21208069D01*
X42650500Y-18668069D01*
X44958164Y-18668069D01*
X44958535Y-18673731D01*
X44958535Y-18673735D01*
X44963782Y-18753780D01*
X44971392Y-18869894D01*
X45021178Y-19065928D01*
X45105856Y-19249607D01*
X45222588Y-19414780D01*
X45367466Y-19555913D01*
X45535637Y-19668282D01*
X45721470Y-19748122D01*
X45733239Y-19750785D01*
X45913193Y-19791505D01*
X45913195Y-19791505D01*
X45918740Y-19792760D01*
X46036135Y-19797372D01*
X46115161Y-19800477D01*
X46115163Y-19800477D01*
X46120842Y-19800700D01*
X46126462Y-19799885D01*
X46126465Y-19799885D01*
X46315387Y-19772493D01*
X46315389Y-19772493D01*
X46321007Y-19771678D01*
X46326384Y-19769853D01*
X46326387Y-19769852D01*
X46411090Y-19741099D01*
X46512531Y-19706664D01*
X46689001Y-19607837D01*
X46751433Y-19555913D01*
X46840138Y-19482137D01*
X46844505Y-19478505D01*
X46920707Y-19386883D01*
X46970206Y-19327367D01*
X46970207Y-19327366D01*
X46973837Y-19323001D01*
X47072664Y-19146531D01*
X47137678Y-18955007D01*
X47143917Y-18911980D01*
X47166176Y-18758458D01*
X47166176Y-18758453D01*
X47166700Y-18754842D01*
X47168215Y-18697000D01*
X47149708Y-18495591D01*
X47114294Y-18370023D01*
X47096352Y-18306403D01*
X47096351Y-18306400D01*
X47094807Y-18300926D01*
X47005351Y-18119527D01*
X46884335Y-17957467D01*
X46735812Y-17820174D01*
X46703762Y-17799952D01*
X46569566Y-17715280D01*
X46569564Y-17715279D01*
X46564757Y-17712246D01*
X46376898Y-17637298D01*
X46371317Y-17636188D01*
X46371314Y-17636187D01*
X46303373Y-17622673D01*
X46178526Y-17597839D01*
X46172839Y-17597765D01*
X46172834Y-17597764D01*
X45981975Y-17595266D01*
X45981970Y-17595266D01*
X45976286Y-17595192D01*
X45970682Y-17596155D01*
X45970681Y-17596155D01*
X45782546Y-17628482D01*
X45782543Y-17628483D01*
X45776949Y-17629444D01*
X45755660Y-17637298D01*
X45592521Y-17697483D01*
X45592517Y-17697485D01*
X45587193Y-17699449D01*
X45582310Y-17702354D01*
X45582308Y-17702355D01*
X45565683Y-17712246D01*
X45413371Y-17802862D01*
X45261305Y-17936220D01*
X45136089Y-18095057D01*
X45041914Y-18274053D01*
X45040229Y-18279479D01*
X45040228Y-18279482D01*
X45033570Y-18300926D01*
X44981937Y-18467213D01*
X44958164Y-18668069D01*
X42650500Y-18668069D01*
X42650500Y-16128069D01*
X44958164Y-16128069D01*
X44958535Y-16133731D01*
X44958535Y-16133735D01*
X44963851Y-16214842D01*
X44971392Y-16329894D01*
X45021178Y-16525928D01*
X45105856Y-16709607D01*
X45222588Y-16874780D01*
X45367466Y-17015913D01*
X45535637Y-17128282D01*
X45721470Y-17208122D01*
X45817502Y-17229852D01*
X45913193Y-17251505D01*
X45913195Y-17251505D01*
X45918740Y-17252760D01*
X46036135Y-17257372D01*
X46115161Y-17260477D01*
X46115163Y-17260477D01*
X46120842Y-17260700D01*
X46126462Y-17259885D01*
X46126465Y-17259885D01*
X46315387Y-17232493D01*
X46315389Y-17232493D01*
X46321007Y-17231678D01*
X46326384Y-17229853D01*
X46326387Y-17229852D01*
X46411090Y-17201099D01*
X46512531Y-17166664D01*
X46689001Y-17067837D01*
X46714993Y-17046220D01*
X46840138Y-16942137D01*
X46844505Y-16938505D01*
X46973837Y-16783001D01*
X47072664Y-16606531D01*
X47137678Y-16415007D01*
X47166700Y-16214842D01*
X47168215Y-16157000D01*
X47149708Y-15955591D01*
X47094807Y-15760926D01*
X47005351Y-15579527D01*
X46884335Y-15417467D01*
X46735812Y-15280174D01*
X46685891Y-15248676D01*
X46569566Y-15175280D01*
X46569564Y-15175279D01*
X46564757Y-15172246D01*
X46376898Y-15097298D01*
X46371317Y-15096188D01*
X46371314Y-15096187D01*
X46303373Y-15082673D01*
X46178526Y-15057839D01*
X46172839Y-15057765D01*
X46172834Y-15057764D01*
X45981975Y-15055266D01*
X45981970Y-15055266D01*
X45976286Y-15055192D01*
X45970682Y-15056155D01*
X45970681Y-15056155D01*
X45782546Y-15088482D01*
X45782543Y-15088483D01*
X45776949Y-15089444D01*
X45755660Y-15097298D01*
X45592521Y-15157483D01*
X45592517Y-15157485D01*
X45587193Y-15159449D01*
X45582310Y-15162354D01*
X45582308Y-15162355D01*
X45418262Y-15259952D01*
X45413371Y-15262862D01*
X45261305Y-15396220D01*
X45136089Y-15555057D01*
X45041914Y-15734053D01*
X45040229Y-15739479D01*
X45040228Y-15739482D01*
X45033570Y-15760926D01*
X44981937Y-15927213D01*
X44958164Y-16128069D01*
X42650500Y-16128069D01*
X42650500Y-15248676D01*
X42670185Y-15181637D01*
X42686819Y-15160995D01*
X44894808Y-12953006D01*
X44956131Y-12919521D01*
X45025823Y-12924505D01*
X45081756Y-12966377D01*
X45106173Y-13031841D01*
X45092227Y-13098423D01*
X45044564Y-13189015D01*
X45044562Y-13189021D01*
X45041914Y-13194053D01*
X45040229Y-13199479D01*
X45040228Y-13199482D01*
X45022350Y-13257060D01*
X44981937Y-13387213D01*
X44958164Y-13588069D01*
X44958535Y-13593731D01*
X44958535Y-13593735D01*
X44963851Y-13674842D01*
X44971392Y-13789894D01*
X45021178Y-13985928D01*
X45105856Y-14169607D01*
X45222588Y-14334780D01*
X45367466Y-14475913D01*
X45535637Y-14588282D01*
X45721470Y-14668122D01*
X45817502Y-14689852D01*
X45913193Y-14711505D01*
X45913195Y-14711505D01*
X45918740Y-14712760D01*
X46036135Y-14717372D01*
X46115161Y-14720477D01*
X46115163Y-14720477D01*
X46120842Y-14720700D01*
X46126462Y-14719885D01*
X46126465Y-14719885D01*
X46315387Y-14692493D01*
X46315389Y-14692493D01*
X46321007Y-14691678D01*
X46326384Y-14689853D01*
X46326387Y-14689852D01*
X46411090Y-14661099D01*
X46512531Y-14626664D01*
X46689001Y-14527837D01*
X46751433Y-14475913D01*
X46840138Y-14402137D01*
X46844505Y-14398505D01*
X46973837Y-14243001D01*
X47072664Y-14066531D01*
X47137678Y-13875007D01*
X47166700Y-13674842D01*
X47168215Y-13617000D01*
X47149708Y-13415591D01*
X47094807Y-13220926D01*
X47074258Y-13179257D01*
X47062261Y-13110425D01*
X47089383Y-13046034D01*
X47147011Y-13006528D01*
X47185287Y-13000413D01*
X47221346Y-13000360D01*
X47639533Y-12999741D01*
X47706601Y-13019326D01*
X47752434Y-13072063D01*
X47763716Y-13123741D01*
X47763716Y-81956012D01*
X47761333Y-81980203D01*
X47758808Y-81992897D01*
X47761191Y-82004876D01*
X47761191Y-82012446D01*
X47760594Y-82024600D01*
X47750512Y-82126964D01*
X47745770Y-82150804D01*
X47725886Y-82216355D01*
X47713660Y-82256662D01*
X47710210Y-82268034D01*
X47700907Y-82290493D01*
X47643156Y-82398538D01*
X47629652Y-82418748D01*
X47551945Y-82513437D01*
X47534757Y-82530626D01*
X47440057Y-82608346D01*
X47419845Y-82621852D01*
X47311803Y-82679603D01*
X47289346Y-82688905D01*
X47172123Y-82724466D01*
X47148282Y-82729209D01*
X47046110Y-82739274D01*
X47033954Y-82739871D01*
X47026192Y-82739871D01*
X47014212Y-82737488D01*
X47001518Y-82740013D01*
X46977326Y-82742396D01*
X17051101Y-82742396D01*
X17026912Y-82740014D01*
X17026189Y-82739870D01*
X17026188Y-82739870D01*
X17014212Y-82737488D01*
X17002235Y-82739871D01*
X16994662Y-82739871D01*
X16982509Y-82739274D01*
X16880146Y-82729194D01*
X16856307Y-82724453D01*
X16739076Y-82688892D01*
X16716618Y-82679590D01*
X16608579Y-82621844D01*
X16588367Y-82608339D01*
X16493669Y-82530624D01*
X16476480Y-82513435D01*
X16398765Y-82418740D01*
X16385263Y-82398532D01*
X16342236Y-82318035D01*
X16327514Y-82290492D01*
X16318213Y-82268036D01*
X16282651Y-82150805D01*
X16277908Y-82126963D01*
X16267838Y-82024721D01*
X16267241Y-82012567D01*
X16267241Y-82004876D01*
X16269624Y-81992897D01*
X16267045Y-81979932D01*
X16264663Y-81955921D01*
X16263978Y-81479392D01*
X17885447Y-81479392D01*
X17893456Y-81490224D01*
X18153971Y-81690124D01*
X18159503Y-81693912D01*
X18455304Y-81873762D01*
X18461198Y-81876924D01*
X18774715Y-82023786D01*
X18780901Y-82026285D01*
X19108436Y-82138424D01*
X19114882Y-82140248D01*
X19452593Y-82216355D01*
X19459202Y-82217473D01*
X19803161Y-82256662D01*
X19809856Y-82257060D01*
X20156027Y-82258872D01*
X20162727Y-82258545D01*
X20507062Y-82222961D01*
X20513704Y-82221909D01*
X20852182Y-82149345D01*
X20858655Y-82147587D01*
X21187324Y-82038890D01*
X21193574Y-82036440D01*
X21508590Y-81892880D01*
X21514510Y-81889785D01*
X21812187Y-81713038D01*
X21817757Y-81709308D01*
X22094603Y-81501446D01*
X22099716Y-81497156D01*
X22106448Y-81490857D01*
X22114390Y-81477393D01*
X22114362Y-81476680D01*
X22109303Y-81468513D01*
X20012607Y-79371817D01*
X19998887Y-79364325D01*
X19997081Y-79364454D01*
X19990574Y-79368636D01*
X17892217Y-81466993D01*
X17885447Y-81479392D01*
X16263978Y-81479392D01*
X16260404Y-78991962D01*
X16737405Y-78991962D01*
X16754919Y-79337692D01*
X16755622Y-79344379D01*
X16810370Y-79686184D01*
X16811790Y-79692753D01*
X16903135Y-80026653D01*
X16905253Y-80033019D01*
X17032133Y-80355126D01*
X17034910Y-80361192D01*
X17195843Y-80667722D01*
X17199267Y-80673467D01*
X17392351Y-80960806D01*
X17396390Y-80966165D01*
X17512097Y-81103571D01*
X17524633Y-81111880D01*
X17534909Y-81105881D01*
X19628183Y-79012607D01*
X19634459Y-79001113D01*
X20364325Y-79001113D01*
X20364454Y-79002919D01*
X20368636Y-79009426D01*
X22463758Y-81104548D01*
X22477138Y-81111854D01*
X22486594Y-81105262D01*
X22582891Y-80993307D01*
X22586965Y-80988016D01*
X22783059Y-80702698D01*
X22786540Y-80696995D01*
X22950662Y-80392187D01*
X22953522Y-80386108D01*
X23083758Y-80065378D01*
X23085945Y-80059027D01*
X23180784Y-79726092D01*
X23182269Y-79719556D01*
X23240595Y-79378330D01*
X23241367Y-79371663D01*
X23262596Y-79024568D01*
X23262711Y-79020976D01*
X23262779Y-79001801D01*
X23262688Y-78998214D01*
X23243882Y-78650962D01*
X23243159Y-78644314D01*
X23187215Y-78302679D01*
X23185774Y-78296127D01*
X23093260Y-77962533D01*
X23091126Y-77956191D01*
X22963126Y-77634540D01*
X22960311Y-77628449D01*
X22798327Y-77322513D01*
X22794865Y-77316753D01*
X22600785Y-77030098D01*
X22596742Y-77024772D01*
X22487905Y-76896435D01*
X22475283Y-76888132D01*
X22465122Y-76894088D01*
X20371817Y-78987393D01*
X20364325Y-79001113D01*
X19634459Y-79001113D01*
X19635675Y-78998887D01*
X19635546Y-78997081D01*
X19631364Y-78990574D01*
X17536252Y-76895462D01*
X17522933Y-76888189D01*
X17513383Y-76894871D01*
X17410186Y-77015699D01*
X17406098Y-77021046D01*
X17211022Y-77307016D01*
X17207550Y-77312748D01*
X17044487Y-77618139D01*
X17041668Y-77624184D01*
X16912537Y-77945408D01*
X16910380Y-77951742D01*
X16816699Y-78285022D01*
X16815239Y-78291556D01*
X16758103Y-78632989D01*
X16757356Y-78639653D01*
X16737428Y-78985259D01*
X16737405Y-78991962D01*
X16260404Y-78991962D01*
X16256855Y-76522215D01*
X17885240Y-76522215D01*
X17885275Y-76523043D01*
X17890245Y-76531035D01*
X19987393Y-78628183D01*
X20001113Y-78635675D01*
X20002919Y-78635546D01*
X20009426Y-78631364D01*
X22107636Y-76533154D01*
X22115128Y-76519434D01*
X22115060Y-76518491D01*
X22111150Y-76512578D01*
X21836625Y-76303446D01*
X21831084Y-76299681D01*
X21534657Y-76120865D01*
X21528742Y-76117720D01*
X21214744Y-75971966D01*
X21208508Y-75969472D01*
X20880604Y-75858483D01*
X20874158Y-75856683D01*
X20536174Y-75781754D01*
X20529555Y-75780658D01*
X20185462Y-75742669D01*
X20178789Y-75742296D01*
X19832591Y-75741693D01*
X19825905Y-75742043D01*
X19481670Y-75778831D01*
X19475074Y-75779900D01*
X19136825Y-75853649D01*
X19130361Y-75855430D01*
X18802078Y-75965272D01*
X18795833Y-75967745D01*
X18481340Y-76112395D01*
X18475393Y-76115530D01*
X18178343Y-76293312D01*
X18172812Y-76297042D01*
X17896686Y-76505874D01*
X17892959Y-76509024D01*
X17885240Y-76522215D01*
X16256855Y-76522215D01*
X16250553Y-72136799D01*
X16252935Y-72112432D01*
X16253025Y-72111978D01*
X16255408Y-72100000D01*
X16253686Y-72091341D01*
X16238924Y-71903774D01*
X16237789Y-71899047D01*
X16237788Y-71899040D01*
X16194111Y-71717115D01*
X16192974Y-71712379D01*
X16117649Y-71530529D01*
X16014804Y-71362702D01*
X15886971Y-71213029D01*
X15737298Y-71085196D01*
X15569471Y-70982351D01*
X15387621Y-70907026D01*
X15377574Y-70904614D01*
X15200960Y-70862212D01*
X15200953Y-70862211D01*
X15196226Y-70861076D01*
X15191376Y-70860694D01*
X15191374Y-70860694D01*
X15017047Y-70846974D01*
X15017045Y-70846974D01*
X15008659Y-70846314D01*
X15000000Y-70844592D01*
X14987345Y-70847109D01*
X14987306Y-70847117D01*
X14963115Y-70849500D01*
X13836885Y-70849500D01*
X13812694Y-70847117D01*
X13811980Y-70846975D01*
X13800000Y-70844592D01*
X13788021Y-70846975D01*
X13780452Y-70846975D01*
X13768298Y-70846378D01*
X13665935Y-70836296D01*
X13642095Y-70831554D01*
X13524864Y-70795993D01*
X13502407Y-70786690D01*
X13394369Y-70728942D01*
X13374158Y-70715437D01*
X13279464Y-70637724D01*
X13262276Y-70620536D01*
X13184563Y-70525842D01*
X13171058Y-70505631D01*
X13113310Y-70397593D01*
X13104007Y-70375135D01*
X13068446Y-70257907D01*
X13063704Y-70234065D01*
X13053622Y-70131702D01*
X13053025Y-70119548D01*
X13053025Y-70111979D01*
X13055408Y-70100000D01*
X13052883Y-70087306D01*
X13050500Y-70063115D01*
X13050500Y-70003890D01*
X18628953Y-70003890D01*
X18637642Y-70015326D01*
X18860657Y-70177356D01*
X18867246Y-70181538D01*
X19136947Y-70329807D01*
X19143990Y-70333121D01*
X19430160Y-70446424D01*
X19437560Y-70448829D01*
X19735666Y-70525370D01*
X19743324Y-70526831D01*
X20048675Y-70565405D01*
X20056436Y-70565893D01*
X20364226Y-70565893D01*
X20371987Y-70565405D01*
X20677338Y-70526831D01*
X20684996Y-70525370D01*
X20983102Y-70448829D01*
X20990502Y-70446424D01*
X21276672Y-70333121D01*
X21283715Y-70329807D01*
X21553416Y-70181538D01*
X21560005Y-70177356D01*
X21783383Y-70015062D01*
X21791675Y-70004309D01*
X21784882Y-69991654D01*
X20222938Y-68429710D01*
X20209218Y-68422218D01*
X20207412Y-68422347D01*
X20200905Y-68426529D01*
X18635460Y-69991974D01*
X18628953Y-70003890D01*
X13050500Y-70003890D01*
X13050500Y-68061787D01*
X17697617Y-68061787D01*
X17716942Y-68368957D01*
X17717917Y-68376677D01*
X17775591Y-68679011D01*
X17777526Y-68686550D01*
X17872637Y-68979271D01*
X17875497Y-68986495D01*
X18006552Y-69265001D01*
X18010294Y-69271807D01*
X18175214Y-69531679D01*
X18179788Y-69537975D01*
X18255010Y-69628903D01*
X18267330Y-69637225D01*
X18277897Y-69631117D01*
X19838514Y-68070500D01*
X19844790Y-68059006D01*
X20574656Y-68059006D01*
X20574785Y-68060812D01*
X20578967Y-68067319D01*
X22141681Y-69630033D01*
X22154731Y-69637159D01*
X22164674Y-69630085D01*
X22240874Y-69537975D01*
X22245448Y-69531679D01*
X22410368Y-69271807D01*
X22414110Y-69265001D01*
X22545165Y-68986495D01*
X22548025Y-68979271D01*
X22643136Y-68686550D01*
X22645071Y-68679011D01*
X22702745Y-68376677D01*
X22703720Y-68368957D01*
X22723045Y-68061787D01*
X22723045Y-68053999D01*
X22703720Y-67746829D01*
X22702745Y-67739109D01*
X22645071Y-67436775D01*
X22643136Y-67429236D01*
X22548025Y-67136515D01*
X22545165Y-67129291D01*
X22414110Y-66850785D01*
X22410368Y-66843979D01*
X22245448Y-66584107D01*
X22240874Y-66577811D01*
X22165652Y-66486883D01*
X22153332Y-66478561D01*
X22142765Y-66484669D01*
X20582148Y-68045286D01*
X20574656Y-68059006D01*
X19844790Y-68059006D01*
X19846006Y-68056780D01*
X19845877Y-68054974D01*
X19841695Y-68048467D01*
X18278981Y-66485753D01*
X18265931Y-66478627D01*
X18255988Y-66485701D01*
X18179788Y-66577811D01*
X18175214Y-66584107D01*
X18010294Y-66843979D01*
X18006552Y-66850785D01*
X17875497Y-67129291D01*
X17872637Y-67136515D01*
X17777526Y-67429236D01*
X17775591Y-67436775D01*
X17717917Y-67739109D01*
X17716942Y-67746829D01*
X17697617Y-68053999D01*
X17697617Y-68061787D01*
X13050500Y-68061787D01*
X13050500Y-66111477D01*
X18628987Y-66111477D01*
X18635780Y-66124132D01*
X20197724Y-67686076D01*
X20211444Y-67693568D01*
X20213250Y-67693439D01*
X20219757Y-67689257D01*
X21785202Y-66123812D01*
X21791709Y-66111896D01*
X21783020Y-66100460D01*
X21560005Y-65938430D01*
X21553416Y-65934248D01*
X21283715Y-65785979D01*
X21276672Y-65782665D01*
X20990502Y-65669362D01*
X20983102Y-65666957D01*
X20684996Y-65590416D01*
X20677338Y-65588955D01*
X20371987Y-65550381D01*
X20364226Y-65549893D01*
X20056436Y-65549893D01*
X20048675Y-65550381D01*
X19743324Y-65588955D01*
X19735666Y-65590416D01*
X19437560Y-65666957D01*
X19430160Y-65669362D01*
X19143990Y-65782665D01*
X19136947Y-65785979D01*
X18867246Y-65934248D01*
X18860657Y-65938430D01*
X18637279Y-66100724D01*
X18628987Y-66111477D01*
X13050500Y-66111477D01*
X13050500Y-65311726D01*
X44705001Y-65311726D01*
X44705364Y-65318431D01*
X44710908Y-65369477D01*
X44714478Y-65384488D01*
X44759727Y-65505190D01*
X44768126Y-65520532D01*
X44844798Y-65622835D01*
X44857165Y-65635202D01*
X44959468Y-65711874D01*
X44974810Y-65720273D01*
X45095515Y-65765524D01*
X45110518Y-65769091D01*
X45161573Y-65774637D01*
X45168271Y-65775000D01*
X45791170Y-65775000D01*
X45806169Y-65770596D01*
X45807356Y-65769226D01*
X45809000Y-65761668D01*
X45809000Y-65757169D01*
X46317000Y-65757169D01*
X46321404Y-65772168D01*
X46322774Y-65773355D01*
X46330332Y-65774999D01*
X46957726Y-65774999D01*
X46964431Y-65774636D01*
X47015477Y-65769092D01*
X47030488Y-65765522D01*
X47151190Y-65720273D01*
X47166532Y-65711874D01*
X47268835Y-65635202D01*
X47281202Y-65622835D01*
X47357874Y-65520532D01*
X47366273Y-65505190D01*
X47411524Y-65384485D01*
X47415091Y-65369482D01*
X47420637Y-65318427D01*
X47421000Y-65311729D01*
X47421000Y-64688830D01*
X47416596Y-64673831D01*
X47415226Y-64672644D01*
X47407668Y-64671000D01*
X46334830Y-64671000D01*
X46319831Y-64675404D01*
X46318644Y-64676774D01*
X46317000Y-64684332D01*
X46317000Y-65757169D01*
X45809000Y-65757169D01*
X45809000Y-64688830D01*
X45804596Y-64673831D01*
X45803226Y-64672644D01*
X45795668Y-64671000D01*
X44722831Y-64671000D01*
X44707832Y-64675404D01*
X44706645Y-64676774D01*
X44705001Y-64684332D01*
X44705001Y-65311726D01*
X13050500Y-65311726D01*
X13050500Y-64145170D01*
X44705000Y-64145170D01*
X44709404Y-64160169D01*
X44710774Y-64161356D01*
X44718332Y-64163000D01*
X47403169Y-64163000D01*
X47418168Y-64158596D01*
X47419355Y-64157226D01*
X47420999Y-64149668D01*
X47420999Y-63522274D01*
X47420636Y-63515569D01*
X47415092Y-63464523D01*
X47411522Y-63449512D01*
X47366273Y-63328810D01*
X47357874Y-63313468D01*
X47281202Y-63211165D01*
X47268835Y-63198798D01*
X47166532Y-63122126D01*
X47151190Y-63113727D01*
X47030485Y-63068476D01*
X47015482Y-63064909D01*
X46964427Y-63059363D01*
X46957729Y-63059000D01*
X46679998Y-63059000D01*
X46612959Y-63039315D01*
X46567204Y-62986511D01*
X46557260Y-62917353D01*
X46586285Y-62853797D01*
X46619409Y-62826810D01*
X46684048Y-62790611D01*
X46684050Y-62790610D01*
X46689001Y-62787837D01*
X46751433Y-62735913D01*
X46840138Y-62662137D01*
X46844505Y-62658505D01*
X46973837Y-62503001D01*
X46978282Y-62495065D01*
X47017828Y-62424449D01*
X47072664Y-62326531D01*
X47121462Y-62182779D01*
X47135852Y-62140387D01*
X47135853Y-62140384D01*
X47137678Y-62135007D01*
X47143451Y-62095190D01*
X47166176Y-61938458D01*
X47166176Y-61938453D01*
X47166700Y-61934842D01*
X47168215Y-61877000D01*
X47149708Y-61675591D01*
X47104834Y-61516479D01*
X47096352Y-61486403D01*
X47096351Y-61486400D01*
X47094807Y-61480926D01*
X47005351Y-61299527D01*
X46884335Y-61137467D01*
X46735812Y-61000174D01*
X46700838Y-60978107D01*
X46569566Y-60895280D01*
X46569564Y-60895279D01*
X46564757Y-60892246D01*
X46376898Y-60817298D01*
X46371317Y-60816188D01*
X46371314Y-60816187D01*
X46303373Y-60802673D01*
X46178526Y-60777839D01*
X46172839Y-60777765D01*
X46172834Y-60777764D01*
X45981975Y-60775266D01*
X45981970Y-60775266D01*
X45976286Y-60775192D01*
X45970682Y-60776155D01*
X45970681Y-60776155D01*
X45782546Y-60808482D01*
X45782543Y-60808483D01*
X45776949Y-60809444D01*
X45755660Y-60817298D01*
X45592521Y-60877483D01*
X45592517Y-60877485D01*
X45587193Y-60879449D01*
X45582310Y-60882354D01*
X45582308Y-60882355D01*
X45427564Y-60974418D01*
X45413371Y-60982862D01*
X45261305Y-61116220D01*
X45136089Y-61275057D01*
X45041914Y-61454053D01*
X45040229Y-61459479D01*
X45040228Y-61459482D01*
X45033570Y-61480926D01*
X44981937Y-61647213D01*
X44958164Y-61848069D01*
X44958535Y-61853731D01*
X44958535Y-61853735D01*
X44963851Y-61934842D01*
X44971392Y-62049894D01*
X45021178Y-62245928D01*
X45023554Y-62251082D01*
X45101238Y-62419589D01*
X45105856Y-62429607D01*
X45222588Y-62594780D01*
X45367466Y-62735913D01*
X45427905Y-62776297D01*
X45511118Y-62831899D01*
X45555923Y-62885511D01*
X45564630Y-62954836D01*
X45534475Y-63017864D01*
X45475032Y-63054583D01*
X45442227Y-63059001D01*
X45168274Y-63059001D01*
X45161569Y-63059364D01*
X45110523Y-63064908D01*
X45095512Y-63068478D01*
X44974810Y-63113727D01*
X44959468Y-63122126D01*
X44857165Y-63198798D01*
X44844798Y-63211165D01*
X44768126Y-63313468D01*
X44759727Y-63328810D01*
X44714476Y-63449515D01*
X44710909Y-63464518D01*
X44705363Y-63515573D01*
X44705000Y-63522271D01*
X44705000Y-64145170D01*
X13050500Y-64145170D01*
X13050500Y-62925000D01*
X16169318Y-62925000D01*
X16189956Y-63081762D01*
X16193065Y-63089269D01*
X16193066Y-63089271D01*
X16247354Y-63220333D01*
X16250464Y-63227841D01*
X16346718Y-63353282D01*
X16472159Y-63449536D01*
X16479667Y-63452646D01*
X16610729Y-63506934D01*
X16610731Y-63506935D01*
X16618238Y-63510044D01*
X16775000Y-63530682D01*
X16783059Y-63529621D01*
X16923703Y-63511105D01*
X16931762Y-63510044D01*
X16939269Y-63506935D01*
X16939271Y-63506934D01*
X17070333Y-63452646D01*
X17077841Y-63449536D01*
X17203282Y-63353282D01*
X17299536Y-63227841D01*
X17302646Y-63220333D01*
X17356934Y-63089271D01*
X17356935Y-63089269D01*
X17360044Y-63081762D01*
X17380682Y-62925000D01*
X17360044Y-62768238D01*
X17347964Y-62739073D01*
X17302646Y-62629667D01*
X17299536Y-62622159D01*
X17203282Y-62496718D01*
X17205436Y-62495065D01*
X17178334Y-62445432D01*
X17175500Y-62419074D01*
X17175500Y-61113155D01*
X20574851Y-61113155D01*
X20592090Y-61318446D01*
X20648875Y-61516479D01*
X20743043Y-61699711D01*
X20746811Y-61704465D01*
X20865121Y-61853735D01*
X20871008Y-61861163D01*
X20875627Y-61865094D01*
X21023281Y-61990758D01*
X21023286Y-61990762D01*
X21027895Y-61994684D01*
X21207729Y-62095190D01*
X21403660Y-62158852D01*
X21409678Y-62159570D01*
X21409680Y-62159570D01*
X21551741Y-62176509D01*
X21608225Y-62183244D01*
X21614269Y-62182779D01*
X21614270Y-62182779D01*
X21675597Y-62178060D01*
X21813631Y-62167439D01*
X21949919Y-62129387D01*
X22006216Y-62113669D01*
X22006220Y-62113667D01*
X22012056Y-62112038D01*
X22195941Y-62019151D01*
X22348448Y-61900000D01*
X43394318Y-61900000D01*
X43414956Y-62056762D01*
X43418065Y-62064269D01*
X43418066Y-62064271D01*
X43467049Y-62182526D01*
X43475464Y-62202841D01*
X43571718Y-62328282D01*
X43697159Y-62424536D01*
X43704667Y-62427646D01*
X43835729Y-62481934D01*
X43835731Y-62481935D01*
X43843238Y-62485044D01*
X44000000Y-62505682D01*
X44008059Y-62504621D01*
X44148703Y-62486105D01*
X44156762Y-62485044D01*
X44164269Y-62481935D01*
X44164271Y-62481934D01*
X44295333Y-62427646D01*
X44302841Y-62424536D01*
X44428282Y-62328282D01*
X44524536Y-62202841D01*
X44532951Y-62182526D01*
X44581934Y-62064271D01*
X44581935Y-62064269D01*
X44585044Y-62056762D01*
X44605682Y-61900000D01*
X44585044Y-61743238D01*
X44567015Y-61699711D01*
X44527646Y-61604667D01*
X44524536Y-61597159D01*
X44428282Y-61471718D01*
X44430436Y-61470065D01*
X44403334Y-61420432D01*
X44400500Y-61394074D01*
X44400500Y-59308069D01*
X44958164Y-59308069D01*
X44958535Y-59313731D01*
X44958535Y-59313735D01*
X44964021Y-59397439D01*
X44971392Y-59509894D01*
X45021178Y-59705928D01*
X45023554Y-59711082D01*
X45068001Y-59807493D01*
X45105856Y-59889607D01*
X45222588Y-60054780D01*
X45367466Y-60195913D01*
X45535637Y-60308282D01*
X45721470Y-60388122D01*
X45790845Y-60403820D01*
X45913193Y-60431505D01*
X45913195Y-60431505D01*
X45918740Y-60432760D01*
X46036135Y-60437372D01*
X46115161Y-60440477D01*
X46115163Y-60440477D01*
X46120842Y-60440700D01*
X46126462Y-60439885D01*
X46126465Y-60439885D01*
X46315387Y-60412493D01*
X46315389Y-60412493D01*
X46321007Y-60411678D01*
X46326384Y-60409853D01*
X46326387Y-60409852D01*
X46432862Y-60373708D01*
X46512531Y-60346664D01*
X46673284Y-60256639D01*
X46684048Y-60250611D01*
X46684050Y-60250610D01*
X46689001Y-60247837D01*
X46732330Y-60211801D01*
X46840138Y-60122137D01*
X46844505Y-60118505D01*
X46888853Y-60065183D01*
X46970206Y-59967367D01*
X46970207Y-59967366D01*
X46973837Y-59963001D01*
X46991928Y-59930698D01*
X47018030Y-59884088D01*
X47072664Y-59786531D01*
X47109112Y-59679160D01*
X47135852Y-59600387D01*
X47135853Y-59600384D01*
X47137678Y-59595007D01*
X47153775Y-59483984D01*
X47166176Y-59398458D01*
X47166176Y-59398453D01*
X47166700Y-59394842D01*
X47167323Y-59371076D01*
X47168119Y-59340661D01*
X47168215Y-59337000D01*
X47149708Y-59135591D01*
X47094807Y-58940926D01*
X47005351Y-58759527D01*
X46884335Y-58597467D01*
X46822697Y-58540490D01*
X46739988Y-58464034D01*
X46739986Y-58464033D01*
X46735812Y-58460174D01*
X46708374Y-58442862D01*
X46569566Y-58355280D01*
X46569564Y-58355279D01*
X46564757Y-58352246D01*
X46376898Y-58277298D01*
X46371317Y-58276188D01*
X46371314Y-58276187D01*
X46303373Y-58262673D01*
X46178526Y-58237839D01*
X46172839Y-58237765D01*
X46172834Y-58237764D01*
X45981975Y-58235266D01*
X45981970Y-58235266D01*
X45976286Y-58235192D01*
X45970682Y-58236155D01*
X45970681Y-58236155D01*
X45782546Y-58268482D01*
X45782543Y-58268483D01*
X45776949Y-58269444D01*
X45755660Y-58277298D01*
X45592521Y-58337483D01*
X45592517Y-58337485D01*
X45587193Y-58339449D01*
X45582310Y-58342354D01*
X45582308Y-58342355D01*
X45506650Y-58387367D01*
X45413371Y-58442862D01*
X45261305Y-58576220D01*
X45136089Y-58735057D01*
X45133442Y-58740088D01*
X45130080Y-58746479D01*
X45041914Y-58914053D01*
X45040229Y-58919479D01*
X45040228Y-58919482D01*
X45008618Y-59021284D01*
X44981937Y-59107213D01*
X44958164Y-59308069D01*
X44400500Y-59308069D01*
X44400500Y-56768069D01*
X44958164Y-56768069D01*
X44958535Y-56773731D01*
X44958535Y-56773735D01*
X44963619Y-56851297D01*
X44971392Y-56969894D01*
X45021178Y-57165928D01*
X45023554Y-57171082D01*
X45100145Y-57337218D01*
X45105856Y-57349607D01*
X45222588Y-57514780D01*
X45367466Y-57655913D01*
X45535637Y-57768282D01*
X45721470Y-57848122D01*
X45817502Y-57869852D01*
X45913193Y-57891505D01*
X45913195Y-57891505D01*
X45918740Y-57892760D01*
X46036135Y-57897372D01*
X46115161Y-57900477D01*
X46115163Y-57900477D01*
X46120842Y-57900700D01*
X46126462Y-57899885D01*
X46126465Y-57899885D01*
X46315387Y-57872493D01*
X46315389Y-57872493D01*
X46321007Y-57871678D01*
X46326384Y-57869853D01*
X46326387Y-57869852D01*
X46411090Y-57841099D01*
X46512531Y-57806664D01*
X46689001Y-57707837D01*
X46709580Y-57690722D01*
X46840138Y-57582137D01*
X46844505Y-57578505D01*
X46924988Y-57481735D01*
X46970206Y-57427367D01*
X46970207Y-57427366D01*
X46973837Y-57423001D01*
X46979057Y-57413681D01*
X47019463Y-57341529D01*
X47072664Y-57246531D01*
X47137678Y-57055007D01*
X47144485Y-57008059D01*
X47166176Y-56858458D01*
X47166176Y-56858453D01*
X47166700Y-56854842D01*
X47168215Y-56797000D01*
X47149708Y-56595591D01*
X47098764Y-56414956D01*
X47096352Y-56406403D01*
X47096351Y-56406400D01*
X47094807Y-56400926D01*
X47005351Y-56219527D01*
X46884335Y-56057467D01*
X46802560Y-55981875D01*
X46739988Y-55924034D01*
X46739986Y-55924033D01*
X46735812Y-55920174D01*
X46701304Y-55898401D01*
X46569566Y-55815280D01*
X46569564Y-55815279D01*
X46564757Y-55812246D01*
X46376898Y-55737298D01*
X46371317Y-55736188D01*
X46371314Y-55736187D01*
X46288317Y-55719678D01*
X46178526Y-55697839D01*
X46172839Y-55697765D01*
X46172834Y-55697764D01*
X45981975Y-55695266D01*
X45981970Y-55695266D01*
X45976286Y-55695192D01*
X45970682Y-55696155D01*
X45970681Y-55696155D01*
X45782546Y-55728482D01*
X45782543Y-55728483D01*
X45776949Y-55729444D01*
X45755660Y-55737298D01*
X45592521Y-55797483D01*
X45592517Y-55797485D01*
X45587193Y-55799449D01*
X45582310Y-55802354D01*
X45582308Y-55802355D01*
X45420869Y-55898401D01*
X45413371Y-55902862D01*
X45261305Y-56036220D01*
X45136089Y-56195057D01*
X45133442Y-56200088D01*
X45102803Y-56258322D01*
X45041914Y-56374053D01*
X45040229Y-56379479D01*
X45040228Y-56379482D01*
X45029213Y-56414956D01*
X44981937Y-56567213D01*
X44958164Y-56768069D01*
X44400500Y-56768069D01*
X44400500Y-56537255D01*
X44420185Y-56470216D01*
X44436819Y-56449574D01*
X45561885Y-55324508D01*
X45623208Y-55291023D01*
X45698512Y-55298259D01*
X45721470Y-55308122D01*
X45793885Y-55324508D01*
X45913193Y-55351505D01*
X45913195Y-55351505D01*
X45918740Y-55352760D01*
X46036135Y-55357372D01*
X46115161Y-55360477D01*
X46115163Y-55360477D01*
X46120842Y-55360700D01*
X46126462Y-55359885D01*
X46126465Y-55359885D01*
X46315387Y-55332493D01*
X46315389Y-55332493D01*
X46321007Y-55331678D01*
X46326384Y-55329853D01*
X46326387Y-55329852D01*
X46440772Y-55291023D01*
X46512531Y-55266664D01*
X46657208Y-55185642D01*
X46684048Y-55170611D01*
X46684050Y-55170610D01*
X46689001Y-55167837D01*
X46844505Y-55038505D01*
X46973837Y-54883001D01*
X47072664Y-54706531D01*
X47107099Y-54605090D01*
X47135852Y-54520387D01*
X47135853Y-54520384D01*
X47137678Y-54515007D01*
X47166700Y-54314842D01*
X47168215Y-54257000D01*
X47149708Y-54055591D01*
X47094807Y-53860926D01*
X47005351Y-53679527D01*
X46884335Y-53517467D01*
X46735812Y-53380174D01*
X46564757Y-53272246D01*
X46376898Y-53197298D01*
X46371317Y-53196188D01*
X46371314Y-53196187D01*
X46303373Y-53182673D01*
X46178526Y-53157839D01*
X46172839Y-53157765D01*
X46172834Y-53157764D01*
X45981975Y-53155266D01*
X45981970Y-53155266D01*
X45976286Y-53155192D01*
X45970682Y-53156155D01*
X45970681Y-53156155D01*
X45782546Y-53188482D01*
X45782543Y-53188483D01*
X45776949Y-53189444D01*
X45755660Y-53197298D01*
X45592521Y-53257483D01*
X45592517Y-53257485D01*
X45587193Y-53259449D01*
X45582310Y-53262354D01*
X45582308Y-53262355D01*
X45565683Y-53272246D01*
X45413371Y-53362862D01*
X45261305Y-53496220D01*
X45136089Y-53655057D01*
X45041914Y-53834053D01*
X45040229Y-53839479D01*
X45040228Y-53839482D01*
X45034508Y-53857904D01*
X44981937Y-54027213D01*
X44958164Y-54228069D01*
X44958535Y-54233731D01*
X44958535Y-54233735D01*
X44963851Y-54314842D01*
X44971392Y-54429894D01*
X45021178Y-54625928D01*
X45023330Y-54630595D01*
X45027144Y-54700182D01*
X44994114Y-54759493D01*
X43694516Y-56059091D01*
X43694513Y-56059095D01*
X43671950Y-56081658D01*
X43667520Y-56090353D01*
X43661894Y-56101395D01*
X43651728Y-56117984D01*
X43638704Y-56135910D01*
X43635687Y-56145196D01*
X43631857Y-56156981D01*
X43624413Y-56174952D01*
X43618785Y-56185998D01*
X43618783Y-56186003D01*
X43614354Y-56194696D01*
X43612828Y-56204333D01*
X43610889Y-56216575D01*
X43606345Y-56235501D01*
X43599500Y-56256567D01*
X43599500Y-61394074D01*
X43579815Y-61461113D01*
X43571441Y-61471505D01*
X43571718Y-61471718D01*
X43475464Y-61597159D01*
X43472354Y-61604667D01*
X43432986Y-61699711D01*
X43414956Y-61743238D01*
X43394318Y-61900000D01*
X22348448Y-61900000D01*
X22358282Y-61892317D01*
X22362238Y-61887733D01*
X22362242Y-61887730D01*
X22488933Y-61740955D01*
X22492895Y-61736365D01*
X22513718Y-61699711D01*
X22591658Y-61562511D01*
X22594654Y-61557237D01*
X22659682Y-61361756D01*
X22665154Y-61318446D01*
X22685067Y-61160812D01*
X22685067Y-61160808D01*
X22685502Y-61157367D01*
X22685914Y-61127893D01*
X22685062Y-61119201D01*
X22666403Y-60928899D01*
X22666403Y-60928897D01*
X22665811Y-60922863D01*
X22621517Y-60776155D01*
X22608019Y-60731448D01*
X22606266Y-60725642D01*
X22509549Y-60543742D01*
X22379342Y-60384093D01*
X22290417Y-60310528D01*
X22225277Y-60256639D01*
X22225276Y-60256638D01*
X22220606Y-60252775D01*
X22039386Y-60154790D01*
X22030322Y-60151984D01*
X21909908Y-60114710D01*
X21842585Y-60093870D01*
X21637700Y-60072336D01*
X21631667Y-60072885D01*
X21631663Y-60072885D01*
X21506052Y-60084317D01*
X21432534Y-60091007D01*
X21426721Y-60092718D01*
X21426720Y-60092718D01*
X21290340Y-60132857D01*
X21234903Y-60149173D01*
X21163050Y-60186737D01*
X21057705Y-60241810D01*
X21057701Y-60241813D01*
X21052333Y-60244619D01*
X21047610Y-60248416D01*
X21047609Y-60248417D01*
X20923141Y-60348492D01*
X20891778Y-60373708D01*
X20759355Y-60531523D01*
X20660107Y-60712055D01*
X20658273Y-60717837D01*
X20658272Y-60717839D01*
X20602947Y-60892246D01*
X20597815Y-60908425D01*
X20574851Y-61113155D01*
X17175500Y-61113155D01*
X17175500Y-60828971D01*
X18068722Y-60828971D01*
X18077869Y-60840794D01*
X18129404Y-60876880D01*
X18138736Y-60882267D01*
X18336354Y-60974418D01*
X18346487Y-60978107D01*
X18557100Y-61034540D01*
X18567731Y-61036414D01*
X18784936Y-61055417D01*
X18795726Y-61055417D01*
X19012931Y-61036414D01*
X19023562Y-61034540D01*
X19234175Y-60978107D01*
X19244308Y-60974418D01*
X19441926Y-60882267D01*
X19451258Y-60876880D01*
X19503616Y-60840218D01*
X19511858Y-60829907D01*
X19504902Y-60816674D01*
X18802938Y-60114710D01*
X18789218Y-60107218D01*
X18787412Y-60107347D01*
X18780905Y-60111529D01*
X18075049Y-60817385D01*
X18068722Y-60828971D01*
X17175500Y-60828971D01*
X17175500Y-59748288D01*
X17477807Y-59748288D01*
X17496810Y-59965493D01*
X17498684Y-59976124D01*
X17555117Y-60186737D01*
X17558806Y-60196870D01*
X17650957Y-60394488D01*
X17656344Y-60403820D01*
X17693006Y-60456178D01*
X17703317Y-60464420D01*
X17716550Y-60457464D01*
X18418514Y-59755500D01*
X18424790Y-59744006D01*
X19154656Y-59744006D01*
X19154785Y-59745812D01*
X19158967Y-59752319D01*
X19864823Y-60458175D01*
X19876409Y-60464502D01*
X19888232Y-60455355D01*
X19924318Y-60403820D01*
X19929705Y-60394488D01*
X20021856Y-60196870D01*
X20025545Y-60186737D01*
X20081978Y-59976124D01*
X20083852Y-59965493D01*
X20102855Y-59748288D01*
X20102855Y-59737498D01*
X20083852Y-59520293D01*
X20081978Y-59509662D01*
X20025545Y-59299049D01*
X20021856Y-59288916D01*
X19929705Y-59091298D01*
X19924318Y-59081966D01*
X19887656Y-59029608D01*
X19877345Y-59021366D01*
X19864112Y-59028322D01*
X19162148Y-59730286D01*
X19154656Y-59744006D01*
X18424790Y-59744006D01*
X18426006Y-59741780D01*
X18425877Y-59739974D01*
X18421695Y-59733467D01*
X17715839Y-59027611D01*
X17704253Y-59021284D01*
X17692430Y-59030431D01*
X17656344Y-59081966D01*
X17650957Y-59091298D01*
X17558806Y-59288916D01*
X17555117Y-59299049D01*
X17498684Y-59509662D01*
X17496810Y-59520293D01*
X17477807Y-59737498D01*
X17477807Y-59748288D01*
X17175500Y-59748288D01*
X17175500Y-58058971D01*
X18068722Y-58058971D01*
X18077869Y-58070794D01*
X18129404Y-58106880D01*
X18138736Y-58112267D01*
X18336354Y-58204418D01*
X18346487Y-58208107D01*
X18458491Y-58238118D01*
X18518151Y-58274483D01*
X18548680Y-58337330D01*
X18540385Y-58406706D01*
X18495900Y-58460584D01*
X18458491Y-58477668D01*
X18346487Y-58507679D01*
X18336354Y-58511368D01*
X18138736Y-58603519D01*
X18129404Y-58608906D01*
X18077046Y-58645568D01*
X18068804Y-58655879D01*
X18075760Y-58669112D01*
X18777724Y-59371076D01*
X18791444Y-59378568D01*
X18793250Y-59378439D01*
X18799757Y-59374257D01*
X19505613Y-58668401D01*
X19511940Y-58656815D01*
X19502793Y-58644992D01*
X19451258Y-58608906D01*
X19441926Y-58603519D01*
X19244308Y-58511368D01*
X19234175Y-58507679D01*
X19122171Y-58477668D01*
X19062511Y-58441303D01*
X19031982Y-58378456D01*
X19036203Y-58343155D01*
X20574851Y-58343155D01*
X20592090Y-58548446D01*
X20648875Y-58746479D01*
X20651647Y-58751874D01*
X20651648Y-58751875D01*
X20699911Y-58845785D01*
X20743043Y-58929711D01*
X20746811Y-58934465D01*
X20863719Y-59081966D01*
X20871008Y-59091163D01*
X20875627Y-59095094D01*
X21023281Y-59220758D01*
X21023286Y-59220762D01*
X21027895Y-59224684D01*
X21207729Y-59325190D01*
X21403660Y-59388852D01*
X21409678Y-59389570D01*
X21409680Y-59389570D01*
X21484221Y-59398458D01*
X21608225Y-59413244D01*
X21614269Y-59412779D01*
X21614270Y-59412779D01*
X21675597Y-59408060D01*
X21813631Y-59397439D01*
X21908053Y-59371076D01*
X22006216Y-59343669D01*
X22006220Y-59343667D01*
X22012056Y-59342038D01*
X22195941Y-59249151D01*
X22358282Y-59122317D01*
X22362238Y-59117733D01*
X22362242Y-59117730D01*
X22488933Y-58970955D01*
X22492895Y-58966365D01*
X22497453Y-58958343D01*
X22591658Y-58792511D01*
X22591660Y-58792507D01*
X22594654Y-58787237D01*
X22659682Y-58591756D01*
X22665154Y-58548446D01*
X22685067Y-58390812D01*
X22685067Y-58390808D01*
X22685502Y-58387367D01*
X22685914Y-58357893D01*
X22674143Y-58237839D01*
X22666403Y-58158899D01*
X22666403Y-58158897D01*
X22665811Y-58152863D01*
X22606266Y-57955642D01*
X22560651Y-57869852D01*
X22512396Y-57779096D01*
X22512395Y-57779094D01*
X22509549Y-57773742D01*
X22379342Y-57614093D01*
X22367892Y-57604621D01*
X22225277Y-57486639D01*
X22225276Y-57486638D01*
X22220606Y-57482775D01*
X22110056Y-57423001D01*
X22044724Y-57387676D01*
X22044722Y-57387675D01*
X22039386Y-57384790D01*
X22030322Y-57381984D01*
X21925728Y-57349607D01*
X21842585Y-57323870D01*
X21637700Y-57302336D01*
X21631667Y-57302885D01*
X21631663Y-57302885D01*
X21506052Y-57314317D01*
X21432534Y-57321007D01*
X21426721Y-57322718D01*
X21426720Y-57322718D01*
X21312693Y-57356278D01*
X21234903Y-57379173D01*
X21168896Y-57413681D01*
X21057705Y-57471810D01*
X21057701Y-57471813D01*
X21052333Y-57474619D01*
X21047610Y-57478416D01*
X21047609Y-57478417D01*
X20918860Y-57581934D01*
X20891778Y-57603708D01*
X20759355Y-57761523D01*
X20660107Y-57942055D01*
X20658273Y-57947837D01*
X20658272Y-57947839D01*
X20606113Y-58112267D01*
X20597815Y-58138425D01*
X20591062Y-58198631D01*
X20582363Y-58276187D01*
X20574851Y-58343155D01*
X19036203Y-58343155D01*
X19040277Y-58309080D01*
X19084762Y-58255202D01*
X19122171Y-58238118D01*
X19234175Y-58208107D01*
X19244308Y-58204418D01*
X19441926Y-58112267D01*
X19451258Y-58106880D01*
X19503616Y-58070218D01*
X19511858Y-58059907D01*
X19504902Y-58046674D01*
X18802938Y-57344710D01*
X18789218Y-57337218D01*
X18787412Y-57337347D01*
X18780905Y-57341529D01*
X18075049Y-58047385D01*
X18068722Y-58058971D01*
X17175500Y-58058971D01*
X17175500Y-56978288D01*
X17477807Y-56978288D01*
X17496810Y-57195493D01*
X17498684Y-57206124D01*
X17555117Y-57416737D01*
X17558806Y-57426870D01*
X17650957Y-57624488D01*
X17656344Y-57633820D01*
X17693006Y-57686178D01*
X17703317Y-57694420D01*
X17716550Y-57687464D01*
X18418514Y-56985500D01*
X18424790Y-56974006D01*
X19154656Y-56974006D01*
X19154785Y-56975812D01*
X19158967Y-56982319D01*
X19864823Y-57688175D01*
X19876409Y-57694502D01*
X19888232Y-57685355D01*
X19924318Y-57633820D01*
X19929705Y-57624488D01*
X20021856Y-57426870D01*
X20025545Y-57416737D01*
X20081978Y-57206124D01*
X20083852Y-57195493D01*
X20100955Y-57000000D01*
X29094318Y-57000000D01*
X29114956Y-57156762D01*
X29118065Y-57164269D01*
X29118066Y-57164271D01*
X29160163Y-57265902D01*
X29175464Y-57302841D01*
X29180411Y-57309288D01*
X29238346Y-57384790D01*
X29271718Y-57428282D01*
X29397159Y-57524536D01*
X29404667Y-57527646D01*
X29535729Y-57581934D01*
X29535731Y-57581935D01*
X29543238Y-57585044D01*
X29700000Y-57605682D01*
X29708059Y-57604621D01*
X29848703Y-57586105D01*
X29856762Y-57585044D01*
X29864269Y-57581935D01*
X29864271Y-57581934D01*
X29995333Y-57527646D01*
X30002841Y-57524536D01*
X30128282Y-57428282D01*
X30161655Y-57384790D01*
X30219589Y-57309288D01*
X30224536Y-57302841D01*
X30239837Y-57265902D01*
X30281934Y-57164271D01*
X30281935Y-57164269D01*
X30285044Y-57156762D01*
X30286105Y-57148703D01*
X30287386Y-57143922D01*
X30319480Y-57088334D01*
X31404439Y-56003375D01*
X31413828Y-55995872D01*
X31413520Y-55995510D01*
X31420246Y-55989785D01*
X31427720Y-55985070D01*
X31462793Y-55945357D01*
X31468055Y-55939759D01*
X31479320Y-55928494D01*
X31485490Y-55920262D01*
X31491773Y-55912543D01*
X31516776Y-55884233D01*
X31516777Y-55884231D01*
X31522623Y-55877612D01*
X31526377Y-55869616D01*
X31527957Y-55867211D01*
X31536840Y-55852429D01*
X31538229Y-55849892D01*
X31543526Y-55842824D01*
X31547015Y-55833519D01*
X31559885Y-55799187D01*
X31563742Y-55790032D01*
X31583553Y-55747837D01*
X31584913Y-55739103D01*
X31585762Y-55736325D01*
X31590130Y-55719678D01*
X31590752Y-55716848D01*
X31593852Y-55708580D01*
X31594651Y-55697839D01*
X31597306Y-55662101D01*
X31598439Y-55652227D01*
X31600500Y-55638991D01*
X31600500Y-55623715D01*
X31600841Y-55614526D01*
X31603821Y-55574418D01*
X31604476Y-55565608D01*
X31602632Y-55556968D01*
X31602078Y-55548846D01*
X31600500Y-55533894D01*
X31600500Y-50805926D01*
X31620185Y-50738887D01*
X31628559Y-50728495D01*
X31628282Y-50728282D01*
X31688776Y-50649444D01*
X31724536Y-50602841D01*
X31727646Y-50595333D01*
X31781934Y-50464271D01*
X31781935Y-50464269D01*
X31785044Y-50456762D01*
X31805682Y-50300000D01*
X31785044Y-50143238D01*
X31780101Y-50131303D01*
X31727646Y-50004667D01*
X31724536Y-49997159D01*
X31628282Y-49871718D01*
X31502841Y-49775464D01*
X31441141Y-49749907D01*
X31364271Y-49718066D01*
X31364269Y-49718065D01*
X31356762Y-49714956D01*
X31200000Y-49694318D01*
X31043238Y-49714956D01*
X31035731Y-49718065D01*
X31035729Y-49718066D01*
X30958859Y-49749907D01*
X30897159Y-49775464D01*
X30771718Y-49871718D01*
X30675464Y-49997159D01*
X30672354Y-50004667D01*
X30619900Y-50131303D01*
X30614956Y-50143238D01*
X30594318Y-50300000D01*
X30595379Y-50308059D01*
X30599098Y-50336309D01*
X30599722Y-50359580D01*
X30599500Y-50361009D01*
X30599500Y-50376285D01*
X30599159Y-50385474D01*
X30595524Y-50434392D01*
X30597368Y-50443032D01*
X30597922Y-50451154D01*
X30599500Y-50466106D01*
X30599500Y-55341324D01*
X30579815Y-55408363D01*
X30563181Y-55429005D01*
X29611666Y-56380520D01*
X29556078Y-56412614D01*
X29551297Y-56413895D01*
X29543238Y-56414956D01*
X29535731Y-56418065D01*
X29535729Y-56418066D01*
X29456804Y-56450758D01*
X29397159Y-56475464D01*
X29271718Y-56571718D01*
X29175464Y-56697159D01*
X29172354Y-56704667D01*
X29135617Y-56793359D01*
X29114956Y-56843238D01*
X29094318Y-57000000D01*
X20100955Y-57000000D01*
X20102855Y-56978288D01*
X20102855Y-56967498D01*
X20083852Y-56750293D01*
X20081978Y-56739662D01*
X20025545Y-56529049D01*
X20021856Y-56518916D01*
X19929705Y-56321298D01*
X19924318Y-56311966D01*
X19887656Y-56259608D01*
X19877345Y-56251366D01*
X19864112Y-56258322D01*
X19162148Y-56960286D01*
X19154656Y-56974006D01*
X18424790Y-56974006D01*
X18426006Y-56971780D01*
X18425877Y-56969974D01*
X18421695Y-56963467D01*
X17715839Y-56257611D01*
X17704253Y-56251284D01*
X17692430Y-56260431D01*
X17656344Y-56311966D01*
X17650957Y-56321298D01*
X17558806Y-56518916D01*
X17555117Y-56529049D01*
X17498684Y-56739662D01*
X17496810Y-56750293D01*
X17477807Y-56967498D01*
X17477807Y-56978288D01*
X17175500Y-56978288D01*
X17175500Y-55288971D01*
X18068722Y-55288971D01*
X18077869Y-55300794D01*
X18129404Y-55336880D01*
X18138736Y-55342267D01*
X18336354Y-55434418D01*
X18346487Y-55438107D01*
X18458491Y-55468118D01*
X18518151Y-55504483D01*
X18548680Y-55567330D01*
X18540385Y-55636706D01*
X18495900Y-55690584D01*
X18458491Y-55707668D01*
X18346487Y-55737679D01*
X18336354Y-55741368D01*
X18138736Y-55833519D01*
X18129404Y-55838906D01*
X18077046Y-55875568D01*
X18068804Y-55885879D01*
X18075760Y-55899112D01*
X18777724Y-56601076D01*
X18791444Y-56608568D01*
X18793250Y-56608439D01*
X18799757Y-56604257D01*
X19505613Y-55898401D01*
X19511940Y-55886815D01*
X19502793Y-55874992D01*
X19451258Y-55838906D01*
X19441926Y-55833519D01*
X19244308Y-55741368D01*
X19234175Y-55737679D01*
X19122171Y-55707668D01*
X19062511Y-55671303D01*
X19031982Y-55608456D01*
X19036203Y-55573155D01*
X20574851Y-55573155D01*
X20592090Y-55778446D01*
X20648875Y-55976479D01*
X20651647Y-55981874D01*
X20651648Y-55981875D01*
X20681871Y-56040682D01*
X20743043Y-56159711D01*
X20746811Y-56164465D01*
X20863719Y-56311966D01*
X20871008Y-56321163D01*
X20875627Y-56325094D01*
X21023281Y-56450758D01*
X21023286Y-56450762D01*
X21027895Y-56454684D01*
X21207729Y-56555190D01*
X21403660Y-56618852D01*
X21409678Y-56619570D01*
X21409680Y-56619570D01*
X21551741Y-56636509D01*
X21608225Y-56643244D01*
X21614269Y-56642779D01*
X21614270Y-56642779D01*
X21675597Y-56638060D01*
X21813631Y-56627439D01*
X21908053Y-56601076D01*
X22006216Y-56573669D01*
X22006220Y-56573667D01*
X22012056Y-56572038D01*
X22195941Y-56479151D01*
X22358282Y-56352317D01*
X22362238Y-56347733D01*
X22362242Y-56347730D01*
X22488933Y-56200955D01*
X22492895Y-56196365D01*
X22496174Y-56190594D01*
X22591658Y-56022511D01*
X22594654Y-56017237D01*
X22647243Y-55859148D01*
X22657770Y-55827504D01*
X22657770Y-55827503D01*
X22659682Y-55821756D01*
X22660884Y-55812246D01*
X22685067Y-55620812D01*
X22685067Y-55620808D01*
X22685502Y-55617367D01*
X22685914Y-55587893D01*
X22683729Y-55565608D01*
X22666403Y-55388899D01*
X22666403Y-55388897D01*
X22665811Y-55382863D01*
X22659052Y-55360477D01*
X22608019Y-55191448D01*
X22606266Y-55185642D01*
X22509549Y-55003742D01*
X22379342Y-54844093D01*
X22220606Y-54712775D01*
X22068288Y-54630417D01*
X22044724Y-54617676D01*
X22044722Y-54617675D01*
X22039386Y-54614790D01*
X22030322Y-54611984D01*
X21848377Y-54555663D01*
X21848378Y-54555663D01*
X21842585Y-54553870D01*
X21637700Y-54532336D01*
X21631667Y-54532885D01*
X21631663Y-54532885D01*
X21506052Y-54544317D01*
X21432534Y-54551007D01*
X21426721Y-54552718D01*
X21426720Y-54552718D01*
X21377015Y-54567347D01*
X21234903Y-54609173D01*
X21163050Y-54646737D01*
X21057705Y-54701810D01*
X21057701Y-54701813D01*
X21052333Y-54704619D01*
X20891778Y-54833708D01*
X20759355Y-54991523D01*
X20660107Y-55172055D01*
X20658273Y-55177837D01*
X20658272Y-55177839D01*
X20599648Y-55362646D01*
X20597815Y-55368425D01*
X20595094Y-55392686D01*
X20575698Y-55565608D01*
X20574851Y-55573155D01*
X19036203Y-55573155D01*
X19040277Y-55539080D01*
X19084762Y-55485202D01*
X19122171Y-55468118D01*
X19234175Y-55438107D01*
X19244308Y-55434418D01*
X19441926Y-55342267D01*
X19451258Y-55336880D01*
X19503616Y-55300218D01*
X19511858Y-55289907D01*
X19504902Y-55276674D01*
X18802938Y-54574710D01*
X18789218Y-54567218D01*
X18787412Y-54567347D01*
X18780905Y-54571529D01*
X18075049Y-55277385D01*
X18068722Y-55288971D01*
X17175500Y-55288971D01*
X17175500Y-54208288D01*
X17477807Y-54208288D01*
X17496810Y-54425493D01*
X17498684Y-54436124D01*
X17555117Y-54646737D01*
X17558806Y-54656870D01*
X17650957Y-54854488D01*
X17656344Y-54863820D01*
X17693006Y-54916178D01*
X17703317Y-54924420D01*
X17716550Y-54917464D01*
X18418514Y-54215500D01*
X18424790Y-54204006D01*
X19154656Y-54204006D01*
X19154785Y-54205812D01*
X19158967Y-54212319D01*
X19864823Y-54918175D01*
X19876409Y-54924502D01*
X19888232Y-54915355D01*
X19924318Y-54863820D01*
X19929705Y-54854488D01*
X20021856Y-54656870D01*
X20025545Y-54646737D01*
X20081978Y-54436124D01*
X20083852Y-54425493D01*
X20102855Y-54208288D01*
X20102855Y-54197498D01*
X20083852Y-53980293D01*
X20081978Y-53969662D01*
X20025545Y-53759049D01*
X20021856Y-53748916D01*
X19929705Y-53551298D01*
X19924318Y-53541966D01*
X19887656Y-53489608D01*
X19877345Y-53481366D01*
X19864112Y-53488322D01*
X19162148Y-54190286D01*
X19154656Y-54204006D01*
X18424790Y-54204006D01*
X18426006Y-54201780D01*
X18425877Y-54199974D01*
X18421695Y-54193467D01*
X17715839Y-53487611D01*
X17704253Y-53481284D01*
X17692430Y-53490431D01*
X17656344Y-53541966D01*
X17650957Y-53551298D01*
X17558806Y-53748916D01*
X17555117Y-53759049D01*
X17498684Y-53969662D01*
X17496810Y-53980293D01*
X17477807Y-54197498D01*
X17477807Y-54208288D01*
X17175500Y-54208288D01*
X17175500Y-52518971D01*
X18068722Y-52518971D01*
X18077869Y-52530794D01*
X18129404Y-52566880D01*
X18138736Y-52572267D01*
X18336354Y-52664418D01*
X18346487Y-52668107D01*
X18458491Y-52698118D01*
X18518151Y-52734483D01*
X18548680Y-52797330D01*
X18540385Y-52866706D01*
X18495900Y-52920584D01*
X18458491Y-52937668D01*
X18346487Y-52967679D01*
X18336354Y-52971368D01*
X18138736Y-53063519D01*
X18129404Y-53068906D01*
X18077046Y-53105568D01*
X18068804Y-53115879D01*
X18075760Y-53129112D01*
X18777724Y-53831076D01*
X18791444Y-53838568D01*
X18793250Y-53838439D01*
X18799757Y-53834257D01*
X19505613Y-53128401D01*
X19511940Y-53116815D01*
X19502793Y-53104992D01*
X19451258Y-53068906D01*
X19441926Y-53063519D01*
X19244308Y-52971368D01*
X19234175Y-52967679D01*
X19122171Y-52937668D01*
X19062511Y-52901303D01*
X19031982Y-52838456D01*
X19036203Y-52803155D01*
X20574851Y-52803155D01*
X20592090Y-53008446D01*
X20648875Y-53206479D01*
X20743043Y-53389711D01*
X20746811Y-53394465D01*
X20863719Y-53541966D01*
X20871008Y-53551163D01*
X20875627Y-53555094D01*
X21023281Y-53680758D01*
X21023286Y-53680762D01*
X21027895Y-53684684D01*
X21207729Y-53785190D01*
X21403660Y-53848852D01*
X21409678Y-53849570D01*
X21409680Y-53849570D01*
X21504919Y-53860926D01*
X21608225Y-53873244D01*
X21614269Y-53872779D01*
X21614270Y-53872779D01*
X21697132Y-53866403D01*
X21813631Y-53857439D01*
X21915417Y-53829020D01*
X22006216Y-53803669D01*
X22006220Y-53803667D01*
X22012056Y-53802038D01*
X22195941Y-53709151D01*
X22358282Y-53582317D01*
X22362238Y-53577733D01*
X22362242Y-53577730D01*
X22488933Y-53430955D01*
X22492895Y-53426365D01*
X22513718Y-53389711D01*
X22591658Y-53252511D01*
X22594654Y-53247237D01*
X22659682Y-53051756D01*
X22665154Y-53008446D01*
X22685067Y-52850812D01*
X22685067Y-52850808D01*
X22685502Y-52847367D01*
X22685914Y-52817893D01*
X22665811Y-52612863D01*
X22606266Y-52415642D01*
X22509549Y-52233742D01*
X22379342Y-52074093D01*
X22259568Y-51975007D01*
X22225277Y-51946639D01*
X22225276Y-51946638D01*
X22220606Y-51942775D01*
X22039386Y-51844790D01*
X22030322Y-51841984D01*
X21848377Y-51785663D01*
X21848378Y-51785663D01*
X21842585Y-51783870D01*
X21637700Y-51762336D01*
X21631667Y-51762885D01*
X21631663Y-51762885D01*
X21506052Y-51774317D01*
X21432534Y-51781007D01*
X21426721Y-51782718D01*
X21426720Y-51782718D01*
X21377015Y-51797347D01*
X21234903Y-51839173D01*
X21163050Y-51876737D01*
X21057705Y-51931810D01*
X21057701Y-51931813D01*
X21052333Y-51934619D01*
X20891778Y-52063708D01*
X20759355Y-52221523D01*
X20660107Y-52402055D01*
X20658273Y-52407837D01*
X20658272Y-52407839D01*
X20606215Y-52571945D01*
X20597815Y-52598425D01*
X20594923Y-52624206D01*
X20578640Y-52769377D01*
X20574851Y-52803155D01*
X19036203Y-52803155D01*
X19040277Y-52769080D01*
X19084762Y-52715202D01*
X19122171Y-52698118D01*
X19234175Y-52668107D01*
X19244308Y-52664418D01*
X19441926Y-52572267D01*
X19451258Y-52566880D01*
X19503616Y-52530218D01*
X19511858Y-52519907D01*
X19504902Y-52506674D01*
X18802938Y-51804710D01*
X18789218Y-51797218D01*
X18787412Y-51797347D01*
X18780905Y-51801529D01*
X18075049Y-52507385D01*
X18068722Y-52518971D01*
X17175500Y-52518971D01*
X17175500Y-51438288D01*
X17477807Y-51438288D01*
X17496810Y-51655493D01*
X17498684Y-51666124D01*
X17555117Y-51876737D01*
X17558806Y-51886870D01*
X17650957Y-52084488D01*
X17656344Y-52093820D01*
X17693006Y-52146178D01*
X17703317Y-52154420D01*
X17716550Y-52147464D01*
X18418514Y-51445500D01*
X18424790Y-51434006D01*
X19154656Y-51434006D01*
X19154785Y-51435812D01*
X19158967Y-51442319D01*
X19864823Y-52148175D01*
X19876409Y-52154502D01*
X19888232Y-52145355D01*
X19924318Y-52093820D01*
X19929705Y-52084488D01*
X20021856Y-51886870D01*
X20025545Y-51876737D01*
X20081978Y-51666124D01*
X20083852Y-51655493D01*
X20102855Y-51438288D01*
X20102855Y-51427498D01*
X20083852Y-51210293D01*
X20081978Y-51199662D01*
X20025545Y-50989049D01*
X20021856Y-50978916D01*
X19929705Y-50781298D01*
X19924318Y-50771966D01*
X19887656Y-50719608D01*
X19877345Y-50711366D01*
X19864112Y-50718322D01*
X19162148Y-51420286D01*
X19154656Y-51434006D01*
X18424790Y-51434006D01*
X18426006Y-51431780D01*
X18425877Y-51429974D01*
X18421695Y-51423467D01*
X17715839Y-50717611D01*
X17704253Y-50711284D01*
X17692430Y-50720431D01*
X17656344Y-50771966D01*
X17650957Y-50781298D01*
X17558806Y-50978916D01*
X17555117Y-50989049D01*
X17498684Y-51199662D01*
X17496810Y-51210293D01*
X17477807Y-51427498D01*
X17477807Y-51438288D01*
X17175500Y-51438288D01*
X17175500Y-49748971D01*
X18068722Y-49748971D01*
X18077869Y-49760794D01*
X18129404Y-49796880D01*
X18138736Y-49802267D01*
X18336354Y-49894418D01*
X18346487Y-49898107D01*
X18458491Y-49928118D01*
X18518151Y-49964483D01*
X18548680Y-50027330D01*
X18540385Y-50096706D01*
X18495900Y-50150584D01*
X18458491Y-50167668D01*
X18346487Y-50197679D01*
X18336354Y-50201368D01*
X18138736Y-50293519D01*
X18129404Y-50298906D01*
X18077046Y-50335568D01*
X18068804Y-50345879D01*
X18075760Y-50359112D01*
X18777724Y-51061076D01*
X18791444Y-51068568D01*
X18793250Y-51068439D01*
X18799757Y-51064257D01*
X19505613Y-50358401D01*
X19511940Y-50346815D01*
X19502793Y-50334992D01*
X19451258Y-50298906D01*
X19441926Y-50293519D01*
X19244308Y-50201368D01*
X19234175Y-50197679D01*
X19122171Y-50167668D01*
X19062511Y-50131303D01*
X19031982Y-50068456D01*
X19036203Y-50033155D01*
X20574851Y-50033155D01*
X20592090Y-50238446D01*
X20648875Y-50436479D01*
X20743043Y-50619711D01*
X20746811Y-50624465D01*
X20863719Y-50771966D01*
X20871008Y-50781163D01*
X20875627Y-50785094D01*
X21023281Y-50910758D01*
X21023286Y-50910762D01*
X21027895Y-50914684D01*
X21207729Y-51015190D01*
X21403660Y-51078852D01*
X21409678Y-51079570D01*
X21409680Y-51079570D01*
X21551741Y-51096509D01*
X21608225Y-51103244D01*
X21614269Y-51102779D01*
X21614270Y-51102779D01*
X21675597Y-51098060D01*
X21813631Y-51087439D01*
X21908053Y-51061076D01*
X22006216Y-51033669D01*
X22006220Y-51033667D01*
X22012056Y-51032038D01*
X22195941Y-50939151D01*
X22358282Y-50812317D01*
X22362238Y-50807733D01*
X22362242Y-50807730D01*
X22488933Y-50660955D01*
X22492895Y-50656365D01*
X22497374Y-50648482D01*
X22591658Y-50482511D01*
X22594654Y-50477237D01*
X22659682Y-50281756D01*
X22660791Y-50272983D01*
X22685067Y-50080812D01*
X22685067Y-50080808D01*
X22685502Y-50077367D01*
X22685914Y-50047893D01*
X22680940Y-49997159D01*
X22666403Y-49848899D01*
X22666403Y-49848897D01*
X22665811Y-49842863D01*
X22651928Y-49796880D01*
X22608019Y-49651448D01*
X22606266Y-49645642D01*
X22509549Y-49463742D01*
X22379342Y-49304093D01*
X22220606Y-49172775D01*
X22187160Y-49154691D01*
X22137553Y-49105492D01*
X22122419Y-49037281D01*
X22146566Y-48971716D01*
X22158458Y-48957935D01*
X29982570Y-41133822D01*
X30043893Y-41100337D01*
X30054066Y-41098564D01*
X30148703Y-41086105D01*
X30156762Y-41085044D01*
X30164269Y-41081935D01*
X30164271Y-41081934D01*
X30295333Y-41027646D01*
X30302841Y-41024536D01*
X30367438Y-40974969D01*
X30421835Y-40933229D01*
X30428282Y-40928282D01*
X30524536Y-40802841D01*
X30542624Y-40759173D01*
X30581934Y-40664271D01*
X30581935Y-40664269D01*
X30585044Y-40656762D01*
X30605682Y-40500000D01*
X30585044Y-40343238D01*
X30524536Y-40197159D01*
X30428282Y-40071718D01*
X30302841Y-39975464D01*
X30295333Y-39972354D01*
X30164271Y-39918066D01*
X30164269Y-39918065D01*
X30156762Y-39914956D01*
X30000000Y-39894318D01*
X29843238Y-39914956D01*
X29835731Y-39918065D01*
X29835729Y-39918066D01*
X29715476Y-39967877D01*
X29646007Y-39975346D01*
X29583527Y-39944071D01*
X29547875Y-39883982D01*
X29545084Y-39869501D01*
X29543722Y-39859151D01*
X29535044Y-39793238D01*
X29474536Y-39647159D01*
X29395736Y-39544465D01*
X29383229Y-39528165D01*
X29378282Y-39521718D01*
X29252841Y-39425464D01*
X29197428Y-39402511D01*
X29114271Y-39368066D01*
X29114269Y-39368065D01*
X29106762Y-39364956D01*
X28950000Y-39344318D01*
X28793238Y-39364956D01*
X28785731Y-39368065D01*
X28785729Y-39368066D01*
X28702572Y-39402511D01*
X28647159Y-39425464D01*
X28521718Y-39521718D01*
X28516771Y-39528165D01*
X28504264Y-39544465D01*
X28425464Y-39647159D01*
X28364956Y-39793238D01*
X28344318Y-39950000D01*
X28341627Y-39949646D01*
X28325694Y-40003906D01*
X28309060Y-40024548D01*
X22084208Y-46249399D01*
X22022885Y-46282884D01*
X21959860Y-46280173D01*
X21842585Y-46243870D01*
X21637700Y-46222336D01*
X21631667Y-46222885D01*
X21631663Y-46222885D01*
X21506052Y-46234317D01*
X21432534Y-46241007D01*
X21426721Y-46242718D01*
X21426720Y-46242718D01*
X21377015Y-46257347D01*
X21234903Y-46299173D01*
X21163050Y-46336737D01*
X21057705Y-46391810D01*
X21057701Y-46391813D01*
X21052333Y-46394619D01*
X21047610Y-46398416D01*
X21047609Y-46398417D01*
X20994331Y-46441254D01*
X20891778Y-46523708D01*
X20759355Y-46681523D01*
X20660107Y-46862055D01*
X20658273Y-46867837D01*
X20658272Y-46867839D01*
X20606113Y-47032267D01*
X20597815Y-47058425D01*
X20594106Y-47091491D01*
X20583101Y-47189607D01*
X20574851Y-47263155D01*
X20592090Y-47468446D01*
X20648875Y-47666479D01*
X20651647Y-47671874D01*
X20651648Y-47671875D01*
X20682294Y-47731505D01*
X20743043Y-47849711D01*
X20746811Y-47854465D01*
X20863719Y-48001966D01*
X20871008Y-48011163D01*
X20887058Y-48024823D01*
X21023281Y-48140758D01*
X21023286Y-48140762D01*
X21027895Y-48144684D01*
X21207729Y-48245190D01*
X21403660Y-48308852D01*
X21406239Y-48309160D01*
X21466436Y-48342207D01*
X21499782Y-48403606D01*
X21494639Y-48473287D01*
X21466237Y-48517370D01*
X21324847Y-48658760D01*
X21324844Y-48658764D01*
X21302281Y-48681327D01*
X21297851Y-48690022D01*
X21292225Y-48701064D01*
X21282059Y-48717653D01*
X21269035Y-48735579D01*
X21266018Y-48744865D01*
X21262188Y-48756650D01*
X21254744Y-48774621D01*
X21249116Y-48785667D01*
X21249114Y-48785672D01*
X21244685Y-48794365D01*
X21243159Y-48804002D01*
X21241220Y-48816244D01*
X21236676Y-48835170D01*
X21229831Y-48856236D01*
X21229831Y-48996728D01*
X21210146Y-49063767D01*
X21163280Y-49106617D01*
X21143668Y-49116870D01*
X21052333Y-49164619D01*
X21047610Y-49168416D01*
X21047609Y-49168417D01*
X21032381Y-49180661D01*
X20891778Y-49293708D01*
X20759355Y-49451523D01*
X20660107Y-49632055D01*
X20658273Y-49637837D01*
X20658272Y-49637839D01*
X20607451Y-49798048D01*
X20597815Y-49828425D01*
X20593514Y-49866771D01*
X20578889Y-49997159D01*
X20574851Y-50033155D01*
X19036203Y-50033155D01*
X19040277Y-49999080D01*
X19084762Y-49945202D01*
X19122171Y-49928118D01*
X19234175Y-49898107D01*
X19244308Y-49894418D01*
X19441926Y-49802267D01*
X19451258Y-49796880D01*
X19503616Y-49760218D01*
X19511858Y-49749907D01*
X19504902Y-49736674D01*
X18802938Y-49034710D01*
X18789218Y-49027218D01*
X18787412Y-49027347D01*
X18780905Y-49031529D01*
X18075049Y-49737385D01*
X18068722Y-49748971D01*
X17175500Y-49748971D01*
X17175500Y-48668288D01*
X17477807Y-48668288D01*
X17496810Y-48885493D01*
X17498684Y-48896124D01*
X17555117Y-49106737D01*
X17558806Y-49116870D01*
X17650957Y-49314488D01*
X17656344Y-49323820D01*
X17693006Y-49376178D01*
X17703317Y-49384420D01*
X17716550Y-49377464D01*
X18418514Y-48675500D01*
X18424790Y-48664006D01*
X19154656Y-48664006D01*
X19154785Y-48665812D01*
X19158967Y-48672319D01*
X19864823Y-49378175D01*
X19876409Y-49384502D01*
X19888232Y-49375355D01*
X19924318Y-49323820D01*
X19929705Y-49314488D01*
X20021856Y-49116870D01*
X20025545Y-49106737D01*
X20081978Y-48896124D01*
X20083852Y-48885493D01*
X20102855Y-48668288D01*
X20102855Y-48657498D01*
X20083852Y-48440293D01*
X20081978Y-48429662D01*
X20025545Y-48219049D01*
X20021856Y-48208916D01*
X19929705Y-48011298D01*
X19924318Y-48001966D01*
X19887656Y-47949608D01*
X19877345Y-47941366D01*
X19864112Y-47948322D01*
X19162148Y-48650286D01*
X19154656Y-48664006D01*
X18424790Y-48664006D01*
X18426006Y-48661780D01*
X18425877Y-48659974D01*
X18421695Y-48653467D01*
X17715839Y-47947611D01*
X17704253Y-47941284D01*
X17692430Y-47950431D01*
X17656344Y-48001966D01*
X17650957Y-48011298D01*
X17558806Y-48208916D01*
X17555117Y-48219049D01*
X17498684Y-48429662D01*
X17496810Y-48440293D01*
X17477807Y-48657498D01*
X17477807Y-48668288D01*
X17175500Y-48668288D01*
X17175500Y-46978971D01*
X18068722Y-46978971D01*
X18077869Y-46990794D01*
X18129404Y-47026880D01*
X18138736Y-47032267D01*
X18336354Y-47124418D01*
X18346487Y-47128107D01*
X18458491Y-47158118D01*
X18518151Y-47194483D01*
X18548680Y-47257330D01*
X18540385Y-47326706D01*
X18495900Y-47380584D01*
X18458491Y-47397668D01*
X18346487Y-47427679D01*
X18336354Y-47431368D01*
X18138736Y-47523519D01*
X18129404Y-47528906D01*
X18077046Y-47565568D01*
X18068804Y-47575879D01*
X18075760Y-47589112D01*
X18777724Y-48291076D01*
X18791444Y-48298568D01*
X18793250Y-48298439D01*
X18799757Y-48294257D01*
X19505613Y-47588401D01*
X19511940Y-47576815D01*
X19502793Y-47564992D01*
X19451258Y-47528906D01*
X19441926Y-47523519D01*
X19244308Y-47431368D01*
X19234175Y-47427679D01*
X19122171Y-47397668D01*
X19062511Y-47361303D01*
X19031982Y-47298456D01*
X19040277Y-47229080D01*
X19084762Y-47175202D01*
X19122171Y-47158118D01*
X19234175Y-47128107D01*
X19244308Y-47124418D01*
X19441926Y-47032267D01*
X19451258Y-47026880D01*
X19503616Y-46990218D01*
X19511858Y-46979907D01*
X19504902Y-46966674D01*
X18802938Y-46264710D01*
X18789218Y-46257218D01*
X18787412Y-46257347D01*
X18780905Y-46261529D01*
X18075049Y-46967385D01*
X18068722Y-46978971D01*
X17175500Y-46978971D01*
X17175500Y-45898288D01*
X17477807Y-45898288D01*
X17496810Y-46115493D01*
X17498684Y-46126124D01*
X17555117Y-46336737D01*
X17558806Y-46346870D01*
X17650957Y-46544488D01*
X17656344Y-46553820D01*
X17693006Y-46606178D01*
X17703317Y-46614420D01*
X17716550Y-46607464D01*
X18418514Y-45905500D01*
X18424790Y-45894006D01*
X19154656Y-45894006D01*
X19154785Y-45895812D01*
X19158967Y-45902319D01*
X19864823Y-46608175D01*
X19876409Y-46614502D01*
X19888232Y-46605355D01*
X19924318Y-46553820D01*
X19929705Y-46544488D01*
X20021856Y-46346870D01*
X20025545Y-46336737D01*
X20081978Y-46126124D01*
X20083852Y-46115493D01*
X20102855Y-45898288D01*
X20102855Y-45887498D01*
X20083852Y-45670293D01*
X20081978Y-45659662D01*
X20025545Y-45449049D01*
X20021856Y-45438916D01*
X19929705Y-45241298D01*
X19924318Y-45231966D01*
X19887656Y-45179608D01*
X19877345Y-45171366D01*
X19864112Y-45178322D01*
X19162148Y-45880286D01*
X19154656Y-45894006D01*
X18424790Y-45894006D01*
X18426006Y-45891780D01*
X18425877Y-45889974D01*
X18421695Y-45883467D01*
X17715839Y-45177611D01*
X17704253Y-45171284D01*
X17692430Y-45180431D01*
X17656344Y-45231966D01*
X17650957Y-45241298D01*
X17558806Y-45438916D01*
X17555117Y-45449049D01*
X17498684Y-45659662D01*
X17496810Y-45670293D01*
X17477807Y-45887498D01*
X17477807Y-45898288D01*
X17175500Y-45898288D01*
X17175500Y-44208971D01*
X18068722Y-44208971D01*
X18077869Y-44220794D01*
X18129404Y-44256880D01*
X18138736Y-44262267D01*
X18336354Y-44354418D01*
X18346487Y-44358107D01*
X18458491Y-44388118D01*
X18518151Y-44424483D01*
X18548680Y-44487330D01*
X18540385Y-44556706D01*
X18495900Y-44610584D01*
X18458491Y-44627668D01*
X18346487Y-44657679D01*
X18336354Y-44661368D01*
X18138736Y-44753519D01*
X18129404Y-44758906D01*
X18077046Y-44795568D01*
X18068804Y-44805879D01*
X18075760Y-44819112D01*
X18777724Y-45521076D01*
X18791444Y-45528568D01*
X18793250Y-45528439D01*
X18799757Y-45524257D01*
X19505613Y-44818401D01*
X19511940Y-44806815D01*
X19502793Y-44794992D01*
X19451258Y-44758906D01*
X19441926Y-44753519D01*
X19244308Y-44661368D01*
X19234175Y-44657679D01*
X19122171Y-44627668D01*
X19062511Y-44591303D01*
X19031982Y-44528456D01*
X19036203Y-44493155D01*
X20574851Y-44493155D01*
X20592090Y-44698446D01*
X20648875Y-44896479D01*
X20651647Y-44901874D01*
X20651648Y-44901875D01*
X20679420Y-44955913D01*
X20743043Y-45079711D01*
X20746811Y-45084465D01*
X20863719Y-45231966D01*
X20871008Y-45241163D01*
X20875627Y-45245094D01*
X21023281Y-45370758D01*
X21023286Y-45370762D01*
X21027895Y-45374684D01*
X21207729Y-45475190D01*
X21348951Y-45521076D01*
X21395360Y-45536155D01*
X21403660Y-45538852D01*
X21409678Y-45539570D01*
X21409680Y-45539570D01*
X21551741Y-45556509D01*
X21608225Y-45563244D01*
X21614269Y-45562779D01*
X21614270Y-45562779D01*
X21675597Y-45558060D01*
X21813631Y-45547439D01*
X21908053Y-45521076D01*
X22006216Y-45493669D01*
X22006220Y-45493667D01*
X22012056Y-45492038D01*
X22195941Y-45399151D01*
X22358282Y-45272317D01*
X22362238Y-45267733D01*
X22362242Y-45267730D01*
X22488933Y-45120955D01*
X22492895Y-45116365D01*
X22497368Y-45108492D01*
X22591658Y-44942511D01*
X22594654Y-44937237D01*
X22659682Y-44741756D01*
X22662052Y-44723001D01*
X22685067Y-44540812D01*
X22685067Y-44540808D01*
X22685502Y-44537367D01*
X22685914Y-44507893D01*
X22665811Y-44302863D01*
X22622212Y-44158458D01*
X22608019Y-44111448D01*
X22606266Y-44105642D01*
X22509549Y-43923742D01*
X22379342Y-43764093D01*
X22277065Y-43679482D01*
X22225277Y-43636639D01*
X22225276Y-43636638D01*
X22220606Y-43632775D01*
X22039386Y-43534790D01*
X22030322Y-43531984D01*
X21899632Y-43491529D01*
X21842585Y-43473870D01*
X21637700Y-43452336D01*
X21631667Y-43452885D01*
X21631663Y-43452885D01*
X21506052Y-43464317D01*
X21432534Y-43471007D01*
X21426721Y-43472718D01*
X21426720Y-43472718D01*
X21377015Y-43487347D01*
X21234903Y-43529173D01*
X21163050Y-43566737D01*
X21057705Y-43621810D01*
X21057701Y-43621813D01*
X21052333Y-43624619D01*
X20891778Y-43753708D01*
X20866511Y-43783820D01*
X20772724Y-43895591D01*
X20759355Y-43911523D01*
X20660107Y-44092055D01*
X20658273Y-44097837D01*
X20658272Y-44097839D01*
X20606113Y-44262267D01*
X20597815Y-44288425D01*
X20574851Y-44493155D01*
X19036203Y-44493155D01*
X19040277Y-44459080D01*
X19084762Y-44405202D01*
X19122171Y-44388118D01*
X19234175Y-44358107D01*
X19244308Y-44354418D01*
X19441926Y-44262267D01*
X19451258Y-44256880D01*
X19503616Y-44220218D01*
X19511858Y-44209907D01*
X19504902Y-44196674D01*
X18802938Y-43494710D01*
X18789218Y-43487218D01*
X18787412Y-43487347D01*
X18780905Y-43491529D01*
X18075049Y-44197385D01*
X18068722Y-44208971D01*
X17175500Y-44208971D01*
X17175500Y-43128288D01*
X17477807Y-43128288D01*
X17496810Y-43345493D01*
X17498684Y-43356124D01*
X17555117Y-43566737D01*
X17558806Y-43576870D01*
X17650957Y-43774488D01*
X17656344Y-43783820D01*
X17693006Y-43836178D01*
X17703317Y-43844420D01*
X17716550Y-43837464D01*
X18418514Y-43135500D01*
X18424790Y-43124006D01*
X19154656Y-43124006D01*
X19154785Y-43125812D01*
X19158967Y-43132319D01*
X19864823Y-43838175D01*
X19876409Y-43844502D01*
X19888232Y-43835355D01*
X19924318Y-43783820D01*
X19929705Y-43774488D01*
X20021856Y-43576870D01*
X20025545Y-43566737D01*
X20081978Y-43356124D01*
X20083852Y-43345493D01*
X20102855Y-43128288D01*
X20102855Y-43117498D01*
X20083852Y-42900293D01*
X20081978Y-42889662D01*
X20025545Y-42679049D01*
X20021856Y-42668916D01*
X19929705Y-42471298D01*
X19924318Y-42461966D01*
X19887656Y-42409608D01*
X19877345Y-42401366D01*
X19864112Y-42408322D01*
X19162148Y-43110286D01*
X19154656Y-43124006D01*
X18424790Y-43124006D01*
X18426006Y-43121780D01*
X18425877Y-43119974D01*
X18421695Y-43113467D01*
X17715839Y-42407611D01*
X17704253Y-42401284D01*
X17692430Y-42410431D01*
X17656344Y-42461966D01*
X17650957Y-42471298D01*
X17558806Y-42668916D01*
X17555117Y-42679049D01*
X17498684Y-42889662D01*
X17496810Y-42900293D01*
X17477807Y-43117498D01*
X17477807Y-43128288D01*
X17175500Y-43128288D01*
X17175500Y-41438971D01*
X18068722Y-41438971D01*
X18077869Y-41450794D01*
X18129404Y-41486880D01*
X18138736Y-41492267D01*
X18336354Y-41584418D01*
X18346487Y-41588107D01*
X18458491Y-41618118D01*
X18518151Y-41654483D01*
X18548680Y-41717330D01*
X18540385Y-41786706D01*
X18495900Y-41840584D01*
X18458491Y-41857668D01*
X18346487Y-41887679D01*
X18336354Y-41891368D01*
X18138736Y-41983519D01*
X18129404Y-41988906D01*
X18077046Y-42025568D01*
X18068804Y-42035879D01*
X18075760Y-42049112D01*
X18777724Y-42751076D01*
X18791444Y-42758568D01*
X18793250Y-42758439D01*
X18799757Y-42754257D01*
X19505613Y-42048401D01*
X19511940Y-42036815D01*
X19502793Y-42024992D01*
X19451258Y-41988906D01*
X19441926Y-41983519D01*
X19244308Y-41891368D01*
X19234175Y-41887679D01*
X19122171Y-41857668D01*
X19062511Y-41821303D01*
X19031982Y-41758456D01*
X19036203Y-41723155D01*
X20574851Y-41723155D01*
X20592090Y-41928446D01*
X20648875Y-42126479D01*
X20743043Y-42309711D01*
X20746811Y-42314465D01*
X20863719Y-42461966D01*
X20871008Y-42471163D01*
X20875627Y-42475094D01*
X21023281Y-42600758D01*
X21023286Y-42600762D01*
X21027895Y-42604684D01*
X21207729Y-42705190D01*
X21403660Y-42768852D01*
X21409678Y-42769570D01*
X21409680Y-42769570D01*
X21551741Y-42786509D01*
X21608225Y-42793244D01*
X21614269Y-42792779D01*
X21614270Y-42792779D01*
X21675597Y-42788060D01*
X21813631Y-42777439D01*
X21908053Y-42751076D01*
X22006216Y-42723669D01*
X22006220Y-42723667D01*
X22012056Y-42722038D01*
X22195941Y-42629151D01*
X22358282Y-42502317D01*
X22362238Y-42497733D01*
X22362242Y-42497730D01*
X22488933Y-42350955D01*
X22492895Y-42346365D01*
X22513718Y-42309711D01*
X22591658Y-42172511D01*
X22594654Y-42167237D01*
X22659682Y-41971756D01*
X22664821Y-41931082D01*
X22685067Y-41770812D01*
X22685067Y-41770808D01*
X22685502Y-41767367D01*
X22685914Y-41737893D01*
X22665811Y-41532863D01*
X22606266Y-41335642D01*
X22509549Y-41153742D01*
X22379342Y-40994093D01*
X22220606Y-40862775D01*
X22039386Y-40764790D01*
X22030322Y-40761984D01*
X21848377Y-40705663D01*
X21848378Y-40705663D01*
X21842585Y-40703870D01*
X21637700Y-40682336D01*
X21631667Y-40682885D01*
X21631663Y-40682885D01*
X21506052Y-40694317D01*
X21432534Y-40701007D01*
X21426721Y-40702718D01*
X21426720Y-40702718D01*
X21377015Y-40717347D01*
X21234903Y-40759173D01*
X21171205Y-40792474D01*
X21057705Y-40851810D01*
X21057701Y-40851813D01*
X21052333Y-40854619D01*
X21047610Y-40858416D01*
X21047609Y-40858417D01*
X20932964Y-40950594D01*
X20891778Y-40983708D01*
X20759355Y-41141523D01*
X20660107Y-41322055D01*
X20658273Y-41327837D01*
X20658272Y-41327839D01*
X20606113Y-41492267D01*
X20597815Y-41518425D01*
X20593897Y-41553359D01*
X20586595Y-41618458D01*
X20574851Y-41723155D01*
X19036203Y-41723155D01*
X19040277Y-41689080D01*
X19084762Y-41635202D01*
X19122171Y-41618118D01*
X19234175Y-41588107D01*
X19244308Y-41584418D01*
X19441926Y-41492267D01*
X19451258Y-41486880D01*
X19503616Y-41450218D01*
X19511858Y-41439907D01*
X19504902Y-41426674D01*
X18802938Y-40724710D01*
X18789218Y-40717218D01*
X18787412Y-40717347D01*
X18780905Y-40721529D01*
X18075049Y-41427385D01*
X18068722Y-41438971D01*
X17175500Y-41438971D01*
X17175500Y-40358288D01*
X17477807Y-40358288D01*
X17496810Y-40575493D01*
X17498684Y-40586124D01*
X17555117Y-40796737D01*
X17558806Y-40806870D01*
X17650957Y-41004488D01*
X17656344Y-41013820D01*
X17693006Y-41066178D01*
X17703317Y-41074420D01*
X17716550Y-41067464D01*
X18418514Y-40365500D01*
X18424790Y-40354006D01*
X19154656Y-40354006D01*
X19154785Y-40355812D01*
X19158967Y-40362319D01*
X19864823Y-41068175D01*
X19876409Y-41074502D01*
X19888232Y-41065355D01*
X19924318Y-41013820D01*
X19929705Y-41004488D01*
X20021856Y-40806870D01*
X20025545Y-40796737D01*
X20081978Y-40586124D01*
X20083852Y-40575493D01*
X20102855Y-40358288D01*
X20102855Y-40347498D01*
X20083852Y-40130293D01*
X20081978Y-40119662D01*
X20025545Y-39909049D01*
X20021856Y-39898916D01*
X19929705Y-39701298D01*
X19924318Y-39691966D01*
X19887656Y-39639608D01*
X19877345Y-39631366D01*
X19864112Y-39638322D01*
X19162148Y-40340286D01*
X19154656Y-40354006D01*
X18424790Y-40354006D01*
X18426006Y-40351780D01*
X18425877Y-40349974D01*
X18421695Y-40343467D01*
X17715839Y-39637611D01*
X17704253Y-39631284D01*
X17692430Y-39640431D01*
X17656344Y-39691966D01*
X17650957Y-39701298D01*
X17558806Y-39898916D01*
X17555117Y-39909049D01*
X17498684Y-40119662D01*
X17496810Y-40130293D01*
X17477807Y-40347498D01*
X17477807Y-40358288D01*
X17175500Y-40358288D01*
X17175500Y-39265879D01*
X18068804Y-39265879D01*
X18075760Y-39279112D01*
X18777724Y-39981076D01*
X18791444Y-39988568D01*
X18793250Y-39988439D01*
X18799757Y-39984257D01*
X19505613Y-39278401D01*
X19511940Y-39266815D01*
X19502793Y-39254992D01*
X19451258Y-39218906D01*
X19441926Y-39213519D01*
X19244308Y-39121368D01*
X19234175Y-39117679D01*
X19023562Y-39061246D01*
X19012931Y-39059372D01*
X18795726Y-39040369D01*
X18784936Y-39040369D01*
X18567731Y-39059372D01*
X18557100Y-39061246D01*
X18346487Y-39117679D01*
X18336354Y-39121368D01*
X18138736Y-39213519D01*
X18129404Y-39218906D01*
X18077046Y-39255568D01*
X18068804Y-39265879D01*
X17175500Y-39265879D01*
X17175500Y-37568155D01*
X17734851Y-37568155D01*
X17752090Y-37773446D01*
X17808875Y-37971479D01*
X17811647Y-37976874D01*
X17811648Y-37976875D01*
X17829822Y-38012237D01*
X17903043Y-38154711D01*
X17906811Y-38159465D01*
X17961756Y-38228788D01*
X18031008Y-38316163D01*
X18035627Y-38320094D01*
X18183281Y-38445758D01*
X18183286Y-38445762D01*
X18187895Y-38449684D01*
X18367729Y-38550190D01*
X18563660Y-38613852D01*
X18569678Y-38614570D01*
X18569680Y-38614570D01*
X18711741Y-38631509D01*
X18768225Y-38638244D01*
X18774269Y-38637779D01*
X18774270Y-38637779D01*
X18835597Y-38633060D01*
X18973631Y-38622439D01*
X19093325Y-38589020D01*
X19166216Y-38568669D01*
X19166220Y-38568667D01*
X19172056Y-38567038D01*
X19355941Y-38474151D01*
X19518282Y-38347317D01*
X19522238Y-38342733D01*
X19522242Y-38342730D01*
X19648933Y-38195955D01*
X19652895Y-38191365D01*
X19673718Y-38154711D01*
X19716527Y-38079353D01*
X19735392Y-38046144D01*
X19785621Y-37997577D01*
X19843209Y-37983393D01*
X20826115Y-37983393D01*
X20893154Y-38003078D01*
X20938909Y-38055882D01*
X20948853Y-38125040D01*
X20919828Y-38188596D01*
X20903815Y-38204030D01*
X20891778Y-38213708D01*
X20759355Y-38371523D01*
X20660107Y-38552055D01*
X20658273Y-38557837D01*
X20658272Y-38557839D01*
X20632994Y-38637526D01*
X20597815Y-38748425D01*
X20574851Y-38953155D01*
X20592090Y-39158446D01*
X20648875Y-39356479D01*
X20651647Y-39361874D01*
X20651648Y-39361875D01*
X20664010Y-39385928D01*
X20743043Y-39539711D01*
X20746811Y-39544465D01*
X20863719Y-39691966D01*
X20871008Y-39701163D01*
X20875627Y-39705094D01*
X21023281Y-39830758D01*
X21023286Y-39830762D01*
X21027895Y-39834684D01*
X21207729Y-39935190D01*
X21403660Y-39998852D01*
X21409678Y-39999570D01*
X21409680Y-39999570D01*
X21551741Y-40016509D01*
X21608225Y-40023244D01*
X21614269Y-40022779D01*
X21614270Y-40022779D01*
X21675597Y-40018060D01*
X21813631Y-40007439D01*
X21910435Y-39980411D01*
X22006216Y-39953669D01*
X22006220Y-39953667D01*
X22012056Y-39952038D01*
X22195941Y-39859151D01*
X22358282Y-39732317D01*
X22362238Y-39727733D01*
X22362242Y-39727730D01*
X22488933Y-39580955D01*
X22492895Y-39576365D01*
X22499665Y-39564449D01*
X22591658Y-39402511D01*
X22594654Y-39397237D01*
X22659682Y-39201756D01*
X22660486Y-39195398D01*
X22685067Y-39000812D01*
X22685067Y-39000808D01*
X22685502Y-38997367D01*
X22685914Y-38967893D01*
X22668752Y-38792857D01*
X22666403Y-38768899D01*
X22666403Y-38768897D01*
X22665811Y-38762863D01*
X22606266Y-38565642D01*
X22528874Y-38420088D01*
X22512396Y-38389096D01*
X22512395Y-38389094D01*
X22509549Y-38383742D01*
X22379342Y-38224093D01*
X22374675Y-38220232D01*
X22374669Y-38220226D01*
X22353769Y-38202936D01*
X22314662Y-38145036D01*
X22313066Y-38075185D01*
X22349488Y-38015559D01*
X22412364Y-37985090D01*
X22432810Y-37983393D01*
X29676967Y-37983393D01*
X29744006Y-38003078D01*
X29764648Y-38019712D01*
X29766771Y-38021835D01*
X29771718Y-38028282D01*
X29897159Y-38124536D01*
X29904667Y-38127646D01*
X30035729Y-38181934D01*
X30035731Y-38181935D01*
X30043238Y-38185044D01*
X30200000Y-38205682D01*
X30208059Y-38204621D01*
X30348703Y-38186105D01*
X30356762Y-38185044D01*
X30364269Y-38181935D01*
X30364271Y-38181934D01*
X30495333Y-38127646D01*
X30502841Y-38124536D01*
X30628282Y-38028282D01*
X30724536Y-37902841D01*
X30775715Y-37779284D01*
X30781934Y-37764271D01*
X30781935Y-37764269D01*
X30785044Y-37756762D01*
X30805682Y-37600000D01*
X30785044Y-37443238D01*
X30751985Y-37363425D01*
X30727646Y-37304667D01*
X30724536Y-37297159D01*
X30628282Y-37171718D01*
X30605469Y-37154213D01*
X30564266Y-37097785D01*
X30560111Y-37028039D01*
X30594323Y-36967119D01*
X30648814Y-36936090D01*
X30656762Y-36935044D01*
X30802841Y-36874536D01*
X30928282Y-36778282D01*
X31024536Y-36652841D01*
X31066860Y-36550663D01*
X31081934Y-36514271D01*
X31081935Y-36514269D01*
X31085044Y-36506762D01*
X31105682Y-36350000D01*
X31089080Y-36223898D01*
X31086105Y-36201297D01*
X31085044Y-36193238D01*
X31080868Y-36183155D01*
X31027646Y-36054667D01*
X31024536Y-36047159D01*
X30928282Y-35921718D01*
X30802841Y-35825464D01*
X30795333Y-35822354D01*
X30664271Y-35768066D01*
X30664269Y-35768065D01*
X30656762Y-35764956D01*
X30500000Y-35744318D01*
X30500354Y-35741626D01*
X30446095Y-35725694D01*
X30425453Y-35709060D01*
X29223802Y-34507409D01*
X29223798Y-34507406D01*
X29201235Y-34484843D01*
X29181495Y-34474785D01*
X29164909Y-34464621D01*
X29146983Y-34451597D01*
X29134546Y-34447556D01*
X29125912Y-34444750D01*
X29107941Y-34437306D01*
X29096895Y-34431678D01*
X29096890Y-34431676D01*
X29088197Y-34427247D01*
X29066317Y-34423782D01*
X29047392Y-34419238D01*
X29047000Y-34419111D01*
X29026326Y-34412393D01*
X22436344Y-34412393D01*
X22369305Y-34392708D01*
X22323550Y-34339904D01*
X22313606Y-34270746D01*
X22342631Y-34207190D01*
X22350831Y-34198596D01*
X22353508Y-34196047D01*
X22358282Y-34192317D01*
X22362238Y-34187733D01*
X22362242Y-34187730D01*
X22488933Y-34040955D01*
X22492895Y-34036365D01*
X22513718Y-33999711D01*
X22591658Y-33862511D01*
X22594654Y-33857237D01*
X22627887Y-33757336D01*
X22657770Y-33667504D01*
X22657770Y-33667503D01*
X22659682Y-33661756D01*
X22665154Y-33618446D01*
X22685067Y-33460812D01*
X22685067Y-33460808D01*
X22685502Y-33457367D01*
X22685914Y-33427893D01*
X22665811Y-33222863D01*
X22611465Y-33042862D01*
X22608019Y-33031448D01*
X22606266Y-33025642D01*
X22560437Y-32939449D01*
X22512396Y-32849096D01*
X22512395Y-32849094D01*
X22509549Y-32843742D01*
X22379342Y-32684093D01*
X22295474Y-32614711D01*
X22225277Y-32556639D01*
X22225276Y-32556638D01*
X22220606Y-32552775D01*
X22067243Y-32469852D01*
X22044724Y-32457676D01*
X22044722Y-32457675D01*
X22039386Y-32454790D01*
X22030322Y-32451984D01*
X21883916Y-32406664D01*
X21842585Y-32393870D01*
X21637700Y-32372336D01*
X21631667Y-32372885D01*
X21631663Y-32372885D01*
X21506052Y-32384317D01*
X21432534Y-32391007D01*
X21426721Y-32392718D01*
X21426720Y-32392718D01*
X21295022Y-32431479D01*
X21234903Y-32449173D01*
X21180698Y-32477511D01*
X21057705Y-32541810D01*
X21057701Y-32541813D01*
X21052333Y-32544619D01*
X21047610Y-32548416D01*
X21047609Y-32548417D01*
X20971865Y-32609317D01*
X20891778Y-32673708D01*
X20759355Y-32831523D01*
X20660107Y-33012055D01*
X20658273Y-33017837D01*
X20658272Y-33017839D01*
X20602516Y-33193606D01*
X20597815Y-33208425D01*
X20591062Y-33268631D01*
X20581378Y-33354969D01*
X20574851Y-33413155D01*
X20592090Y-33618446D01*
X20648875Y-33816479D01*
X20743043Y-33999711D01*
X20746811Y-34004465D01*
X20801756Y-34073788D01*
X20871008Y-34161163D01*
X20875623Y-34165090D01*
X20875631Y-34165099D01*
X20909546Y-34193962D01*
X20947842Y-34252402D01*
X20948463Y-34322269D01*
X20911213Y-34381380D01*
X20847917Y-34410969D01*
X20829180Y-34412393D01*
X19841704Y-34412393D01*
X19774665Y-34392708D01*
X19732218Y-34346607D01*
X19713330Y-34311082D01*
X19669549Y-34228742D01*
X19539342Y-34069093D01*
X19449588Y-33994842D01*
X19385277Y-33941639D01*
X19385276Y-33941638D01*
X19380606Y-33937775D01*
X19231654Y-33857237D01*
X19204724Y-33842676D01*
X19204722Y-33842675D01*
X19199386Y-33839790D01*
X19190322Y-33836984D01*
X19008377Y-33780663D01*
X19008378Y-33780663D01*
X19002585Y-33778870D01*
X18797700Y-33757336D01*
X18791667Y-33757885D01*
X18791663Y-33757885D01*
X18666052Y-33769317D01*
X18592534Y-33776007D01*
X18586721Y-33777718D01*
X18586720Y-33777718D01*
X18455022Y-33816479D01*
X18394903Y-33834173D01*
X18361787Y-33851486D01*
X18217705Y-33926810D01*
X18217701Y-33926813D01*
X18212333Y-33929619D01*
X18207610Y-33933416D01*
X18207609Y-33933417D01*
X18131212Y-33994842D01*
X18051778Y-34058708D01*
X18013582Y-34104228D01*
X17934398Y-34198596D01*
X17919355Y-34216523D01*
X17820107Y-34397055D01*
X17818273Y-34402837D01*
X17818272Y-34402839D01*
X17785103Y-34507402D01*
X17757815Y-34593425D01*
X17757139Y-34599453D01*
X17735548Y-34791945D01*
X17734851Y-34798155D01*
X17752090Y-35003446D01*
X17808875Y-35201479D01*
X17811647Y-35206874D01*
X17811648Y-35206875D01*
X17829822Y-35242237D01*
X17903043Y-35384711D01*
X17906811Y-35389465D01*
X17980435Y-35482355D01*
X18031008Y-35546163D01*
X18035627Y-35550094D01*
X18183281Y-35675758D01*
X18183286Y-35675762D01*
X18187895Y-35679684D01*
X18367729Y-35780190D01*
X18563660Y-35843852D01*
X18569678Y-35844570D01*
X18569680Y-35844570D01*
X18711741Y-35861509D01*
X18768225Y-35868244D01*
X18774269Y-35867779D01*
X18774270Y-35867779D01*
X18835597Y-35863060D01*
X18973631Y-35852439D01*
X19081384Y-35822354D01*
X19166216Y-35798669D01*
X19166220Y-35798667D01*
X19172056Y-35797038D01*
X19355941Y-35704151D01*
X19518282Y-35577317D01*
X19522238Y-35572733D01*
X19522242Y-35572730D01*
X19648933Y-35425955D01*
X19652895Y-35421365D01*
X19673718Y-35384711D01*
X19716527Y-35309353D01*
X19735392Y-35276144D01*
X19785621Y-35227577D01*
X19843209Y-35213393D01*
X20826115Y-35213393D01*
X20893154Y-35233078D01*
X20938909Y-35285882D01*
X20948853Y-35355040D01*
X20919828Y-35418596D01*
X20903815Y-35434030D01*
X20891778Y-35443708D01*
X20759355Y-35601523D01*
X20660107Y-35782055D01*
X20658273Y-35787837D01*
X20658272Y-35787839D01*
X20622843Y-35899527D01*
X20597815Y-35978425D01*
X20574851Y-36183155D01*
X20592090Y-36388446D01*
X20648875Y-36586479D01*
X20743043Y-36769711D01*
X20746811Y-36774465D01*
X20863715Y-36921961D01*
X20871008Y-36931163D01*
X20875623Y-36935090D01*
X20875631Y-36935099D01*
X20909546Y-36963962D01*
X20947842Y-37022402D01*
X20948463Y-37092269D01*
X20911213Y-37151380D01*
X20847917Y-37180969D01*
X20829180Y-37182393D01*
X19841704Y-37182393D01*
X19774665Y-37162708D01*
X19732218Y-37116607D01*
X19722211Y-37097785D01*
X19669549Y-36998742D01*
X19539342Y-36839093D01*
X19455474Y-36769711D01*
X19385277Y-36711639D01*
X19385276Y-36711638D01*
X19380606Y-36707775D01*
X19289996Y-36658783D01*
X19204724Y-36612676D01*
X19204722Y-36612675D01*
X19199386Y-36609790D01*
X19190322Y-36606984D01*
X19008377Y-36550663D01*
X19008378Y-36550663D01*
X19002585Y-36548870D01*
X18797700Y-36527336D01*
X18791667Y-36527885D01*
X18791663Y-36527885D01*
X18675486Y-36538458D01*
X18592534Y-36546007D01*
X18586721Y-36547718D01*
X18586720Y-36547718D01*
X18455022Y-36586479D01*
X18394903Y-36604173D01*
X18316172Y-36645333D01*
X18217705Y-36696810D01*
X18217701Y-36696813D01*
X18212333Y-36699619D01*
X18207610Y-36703416D01*
X18207609Y-36703417D01*
X18092724Y-36795787D01*
X18051778Y-36828708D01*
X18037329Y-36845928D01*
X17934398Y-36968596D01*
X17919355Y-36986523D01*
X17820107Y-37167055D01*
X17818273Y-37172837D01*
X17818272Y-37172839D01*
X17792483Y-37254138D01*
X17757815Y-37363425D01*
X17757139Y-37369453D01*
X17736608Y-37552493D01*
X17734851Y-37568155D01*
X17175500Y-37568155D01*
X17175500Y-32028155D01*
X17734851Y-32028155D01*
X17752090Y-32233446D01*
X17808875Y-32431479D01*
X17811647Y-32436874D01*
X17811648Y-32436875D01*
X17817088Y-32447460D01*
X17903043Y-32614711D01*
X17906811Y-32619465D01*
X17961756Y-32688788D01*
X18031008Y-32776163D01*
X18035627Y-32780094D01*
X18183281Y-32905758D01*
X18183286Y-32905762D01*
X18187895Y-32909684D01*
X18367729Y-33010190D01*
X18512223Y-33057139D01*
X18521564Y-33060174D01*
X18563660Y-33073852D01*
X18569678Y-33074570D01*
X18569680Y-33074570D01*
X18711741Y-33091509D01*
X18768225Y-33098244D01*
X18774269Y-33097779D01*
X18774270Y-33097779D01*
X18835597Y-33093060D01*
X18973631Y-33082439D01*
X19064246Y-33057139D01*
X19166216Y-33028669D01*
X19166220Y-33028667D01*
X19172056Y-33027038D01*
X19355941Y-32934151D01*
X19518282Y-32807317D01*
X19522238Y-32802733D01*
X19522242Y-32802730D01*
X19648933Y-32655955D01*
X19652895Y-32651365D01*
X19673718Y-32614711D01*
X19751658Y-32477511D01*
X19754654Y-32472237D01*
X19819682Y-32276756D01*
X19822817Y-32251945D01*
X19845067Y-32075812D01*
X19845067Y-32075808D01*
X19845502Y-32072367D01*
X19845914Y-32042893D01*
X19837222Y-31954245D01*
X19826403Y-31843899D01*
X19826403Y-31843897D01*
X19825811Y-31837863D01*
X19819707Y-31817646D01*
X19768019Y-31646448D01*
X19766266Y-31640642D01*
X19669549Y-31458742D01*
X19539342Y-31299093D01*
X19455474Y-31229711D01*
X19385277Y-31171639D01*
X19385276Y-31171638D01*
X19380606Y-31167775D01*
X19231654Y-31087237D01*
X19204724Y-31072676D01*
X19204722Y-31072675D01*
X19199386Y-31069790D01*
X19190322Y-31066984D01*
X19008377Y-31010663D01*
X19008378Y-31010663D01*
X19002585Y-31008870D01*
X18797700Y-30987336D01*
X18791667Y-30987885D01*
X18791663Y-30987885D01*
X18666052Y-30999317D01*
X18592534Y-31006007D01*
X18586721Y-31007718D01*
X18586720Y-31007718D01*
X18455022Y-31046479D01*
X18394903Y-31064173D01*
X18361787Y-31081486D01*
X18217705Y-31156810D01*
X18217701Y-31156813D01*
X18212333Y-31159619D01*
X18207610Y-31163416D01*
X18207609Y-31163417D01*
X18131865Y-31224317D01*
X18051778Y-31288708D01*
X17919355Y-31446523D01*
X17820107Y-31627055D01*
X17818273Y-31632837D01*
X17818272Y-31632839D01*
X17797780Y-31697439D01*
X17757815Y-31823425D01*
X17755223Y-31846531D01*
X17735985Y-32018048D01*
X17734851Y-32028155D01*
X17175500Y-32028155D01*
X17175500Y-29567255D01*
X17195185Y-29500216D01*
X17211819Y-29479574D01*
X17523790Y-29167603D01*
X17585113Y-29134118D01*
X17654805Y-29139102D01*
X17710738Y-29180974D01*
X17735155Y-29246438D01*
X17735361Y-29253608D01*
X17734851Y-29258155D01*
X17752090Y-29463446D01*
X17808875Y-29661479D01*
X17811647Y-29666874D01*
X17811648Y-29666875D01*
X17829822Y-29702237D01*
X17903043Y-29844711D01*
X17906811Y-29849465D01*
X17994975Y-29960700D01*
X18031008Y-30006163D01*
X18035627Y-30010094D01*
X18183281Y-30135758D01*
X18183286Y-30135762D01*
X18187895Y-30139684D01*
X18367729Y-30240190D01*
X18563660Y-30303852D01*
X18569678Y-30304570D01*
X18569680Y-30304570D01*
X18711741Y-30321509D01*
X18768225Y-30328244D01*
X18774269Y-30327779D01*
X18774270Y-30327779D01*
X18835597Y-30323060D01*
X18973631Y-30312439D01*
X19058927Y-30288624D01*
X19166216Y-30258669D01*
X19166220Y-30258667D01*
X19172056Y-30257038D01*
X19355941Y-30164151D01*
X19518282Y-30037317D01*
X19522238Y-30032733D01*
X19522242Y-30032730D01*
X19648933Y-29885955D01*
X19652895Y-29881365D01*
X19660208Y-29868492D01*
X19724031Y-29756144D01*
X19774260Y-29707577D01*
X19831848Y-29693393D01*
X20803538Y-29693393D01*
X20870577Y-29713078D01*
X20916332Y-29765882D01*
X20926276Y-29835040D01*
X20897251Y-29898596D01*
X20894501Y-29901518D01*
X20891778Y-29903708D01*
X20759355Y-30061523D01*
X20660107Y-30242055D01*
X20658273Y-30247837D01*
X20658272Y-30247839D01*
X20610179Y-30399449D01*
X20597815Y-30438425D01*
X20574851Y-30643155D01*
X20592090Y-30848446D01*
X20648875Y-31046479D01*
X20743043Y-31229711D01*
X20746811Y-31234465D01*
X20848231Y-31362425D01*
X20871008Y-31391163D01*
X20882168Y-31400661D01*
X21023281Y-31520758D01*
X21023286Y-31520762D01*
X21027895Y-31524684D01*
X21207729Y-31625190D01*
X21403660Y-31688852D01*
X21409678Y-31689570D01*
X21409680Y-31689570D01*
X21551741Y-31706509D01*
X21608225Y-31713244D01*
X21614269Y-31712779D01*
X21614270Y-31712779D01*
X21675597Y-31708060D01*
X21813631Y-31697439D01*
X21898927Y-31673624D01*
X22006216Y-31643669D01*
X22006220Y-31643667D01*
X22012056Y-31642038D01*
X22195941Y-31549151D01*
X22358282Y-31422317D01*
X22362238Y-31417733D01*
X22362242Y-31417730D01*
X22488933Y-31270955D01*
X22492895Y-31266365D01*
X22513718Y-31229711D01*
X22591658Y-31092511D01*
X22594654Y-31087237D01*
X22659682Y-30891756D01*
X22665154Y-30848446D01*
X22685067Y-30690812D01*
X22685067Y-30690808D01*
X22685502Y-30687367D01*
X22685728Y-30671178D01*
X22685866Y-30661354D01*
X22685866Y-30661347D01*
X22685914Y-30657893D01*
X22684469Y-30643155D01*
X22666403Y-30458899D01*
X22666403Y-30458897D01*
X22665811Y-30452863D01*
X22619006Y-30297839D01*
X22608019Y-30261448D01*
X22606266Y-30255642D01*
X22509549Y-30073742D01*
X22379342Y-29914093D01*
X22374675Y-29910232D01*
X22370395Y-29905922D01*
X22372076Y-29904253D01*
X22338833Y-29855022D01*
X22337246Y-29785170D01*
X22373675Y-29725549D01*
X22436555Y-29695088D01*
X22456986Y-29693393D01*
X29694074Y-29693393D01*
X29761113Y-29713078D01*
X29771505Y-29721452D01*
X29771718Y-29721175D01*
X29897159Y-29817429D01*
X29904667Y-29820539D01*
X30035729Y-29874827D01*
X30035731Y-29874828D01*
X30043238Y-29877937D01*
X30200000Y-29898575D01*
X30208059Y-29897514D01*
X30348703Y-29878998D01*
X30356762Y-29877937D01*
X30364269Y-29874828D01*
X30364271Y-29874827D01*
X30495333Y-29820539D01*
X30502841Y-29817429D01*
X30628282Y-29721175D01*
X30724536Y-29595734D01*
X30727646Y-29588226D01*
X30781934Y-29457164D01*
X30781935Y-29457162D01*
X30785044Y-29449655D01*
X30805682Y-29292893D01*
X30792960Y-29196262D01*
X30786105Y-29144190D01*
X30785044Y-29136131D01*
X30773967Y-29109387D01*
X30727646Y-28997560D01*
X30724536Y-28990052D01*
X30669600Y-28918458D01*
X30633229Y-28871058D01*
X30628282Y-28864611D01*
X30502841Y-28768357D01*
X30444521Y-28744200D01*
X30364271Y-28710959D01*
X30364269Y-28710958D01*
X30356762Y-28707849D01*
X30200000Y-28687211D01*
X30043238Y-28707849D01*
X30035731Y-28710958D01*
X30035729Y-28710959D01*
X29955479Y-28744200D01*
X29897159Y-28768357D01*
X29771718Y-28864611D01*
X29770065Y-28862457D01*
X29720432Y-28889559D01*
X29694074Y-28892393D01*
X22796155Y-28892393D01*
X22729116Y-28872708D01*
X22683361Y-28819904D01*
X22674538Y-28744202D01*
X22680831Y-28712567D01*
X22680831Y-27063219D01*
X22666297Y-26990153D01*
X22634792Y-26943001D01*
X22617716Y-26917445D01*
X22610932Y-26907292D01*
X22528071Y-26851927D01*
X22494018Y-26845153D01*
X22460984Y-26838582D01*
X22460981Y-26838582D01*
X22455005Y-26837393D01*
X20805657Y-26837393D01*
X20799681Y-26838582D01*
X20799678Y-26838582D01*
X20766644Y-26845153D01*
X20732591Y-26851927D01*
X20722435Y-26858713D01*
X20692667Y-26878603D01*
X20623777Y-26899500D01*
X18761567Y-26899500D01*
X18740893Y-26906218D01*
X18740501Y-26906345D01*
X18721576Y-26910889D01*
X18699696Y-26914354D01*
X18691001Y-26918784D01*
X18691002Y-26918784D01*
X18679954Y-26924413D01*
X18661979Y-26931859D01*
X18640911Y-26938704D01*
X18633019Y-26944438D01*
X18633017Y-26944439D01*
X18622988Y-26951726D01*
X18606401Y-26961891D01*
X18586658Y-26971950D01*
X18564095Y-26994513D01*
X18564091Y-26994516D01*
X16469516Y-29089091D01*
X16469513Y-29089095D01*
X16446950Y-29111658D01*
X16442503Y-29120387D01*
X16436894Y-29131395D01*
X16426728Y-29147984D01*
X16413704Y-29165910D01*
X16410687Y-29175196D01*
X16406857Y-29186981D01*
X16399413Y-29204952D01*
X16393785Y-29215998D01*
X16393783Y-29216003D01*
X16389354Y-29224696D01*
X16387828Y-29234333D01*
X16385889Y-29246575D01*
X16381345Y-29265501D01*
X16374500Y-29286567D01*
X16374500Y-62419074D01*
X16354815Y-62486113D01*
X16346441Y-62496505D01*
X16346718Y-62496718D01*
X16250464Y-62622159D01*
X16247354Y-62629667D01*
X16202037Y-62739073D01*
X16189956Y-62768238D01*
X16169318Y-62925000D01*
X13050500Y-62925000D01*
X13050500Y-22903890D01*
X18628953Y-22903890D01*
X18637642Y-22915326D01*
X18860657Y-23077356D01*
X18867246Y-23081538D01*
X19136947Y-23229807D01*
X19143990Y-23233121D01*
X19430160Y-23346424D01*
X19437560Y-23348829D01*
X19735666Y-23425370D01*
X19743324Y-23426831D01*
X20048675Y-23465405D01*
X20056436Y-23465893D01*
X20364226Y-23465893D01*
X20371987Y-23465405D01*
X20677338Y-23426831D01*
X20684996Y-23425370D01*
X20983102Y-23348829D01*
X20990502Y-23346424D01*
X21276672Y-23233121D01*
X21283715Y-23229807D01*
X21553416Y-23081538D01*
X21560005Y-23077356D01*
X21783383Y-22915062D01*
X21791675Y-22904309D01*
X21784882Y-22891654D01*
X20222938Y-21329710D01*
X20209218Y-21322218D01*
X20207412Y-21322347D01*
X20200905Y-21326529D01*
X18635460Y-22891974D01*
X18628953Y-22903890D01*
X13050500Y-22903890D01*
X13050500Y-20961787D01*
X17697617Y-20961787D01*
X17716942Y-21268957D01*
X17717917Y-21276677D01*
X17775591Y-21579011D01*
X17777526Y-21586550D01*
X17872637Y-21879271D01*
X17875497Y-21886495D01*
X18006552Y-22165001D01*
X18010294Y-22171807D01*
X18175214Y-22431679D01*
X18179788Y-22437975D01*
X18255010Y-22528903D01*
X18267330Y-22537225D01*
X18277897Y-22531117D01*
X19838514Y-20970500D01*
X19844790Y-20959006D01*
X20574656Y-20959006D01*
X20574785Y-20960812D01*
X20578967Y-20967319D01*
X22141681Y-22530033D01*
X22154731Y-22537159D01*
X22164674Y-22530085D01*
X22240874Y-22437975D01*
X22245448Y-22431679D01*
X22410368Y-22171807D01*
X22414110Y-22165001D01*
X22545165Y-21886495D01*
X22548025Y-21879271D01*
X22643136Y-21586550D01*
X22645071Y-21579011D01*
X22702745Y-21276677D01*
X22703720Y-21268957D01*
X22723045Y-20961787D01*
X22723045Y-20953999D01*
X22703720Y-20646829D01*
X22702745Y-20639109D01*
X22645071Y-20336775D01*
X22643136Y-20329236D01*
X22548025Y-20036515D01*
X22545165Y-20029291D01*
X22414110Y-19750785D01*
X22410368Y-19743979D01*
X22245448Y-19484107D01*
X22240874Y-19477811D01*
X22165652Y-19386883D01*
X22153332Y-19378561D01*
X22142765Y-19384669D01*
X20582148Y-20945286D01*
X20574656Y-20959006D01*
X19844790Y-20959006D01*
X19846006Y-20956780D01*
X19845877Y-20954974D01*
X19841695Y-20948467D01*
X18278981Y-19385753D01*
X18265931Y-19378627D01*
X18255988Y-19385701D01*
X18179788Y-19477811D01*
X18175214Y-19484107D01*
X18010294Y-19743979D01*
X18006552Y-19750785D01*
X17875497Y-20029291D01*
X17872637Y-20036515D01*
X17777526Y-20329236D01*
X17775591Y-20336775D01*
X17717917Y-20639109D01*
X17716942Y-20646829D01*
X17697617Y-20953999D01*
X17697617Y-20961787D01*
X13050500Y-20961787D01*
X13050500Y-19011477D01*
X18628987Y-19011477D01*
X18635780Y-19024132D01*
X20197724Y-20586076D01*
X20211444Y-20593568D01*
X20213250Y-20593439D01*
X20219757Y-20589257D01*
X21785202Y-19023812D01*
X21791709Y-19011896D01*
X21783020Y-19000460D01*
X21560005Y-18838430D01*
X21553416Y-18834248D01*
X21283715Y-18685979D01*
X21276672Y-18682665D01*
X20990502Y-18569362D01*
X20983102Y-18566957D01*
X20684996Y-18490416D01*
X20677338Y-18488955D01*
X20371987Y-18450381D01*
X20364226Y-18449893D01*
X20056436Y-18449893D01*
X20048675Y-18450381D01*
X19743324Y-18488955D01*
X19735666Y-18490416D01*
X19437560Y-18566957D01*
X19430160Y-18569362D01*
X19143990Y-18682665D01*
X19136947Y-18685979D01*
X18867246Y-18834248D01*
X18860657Y-18838430D01*
X18637279Y-19000724D01*
X18628987Y-19011477D01*
X13050500Y-19011477D01*
X13050500Y-18936885D01*
X13052883Y-18912694D01*
X13053025Y-18911980D01*
X13055408Y-18900000D01*
X13053025Y-18888021D01*
X13053025Y-18880452D01*
X13053622Y-18868298D01*
X13063704Y-18765935D01*
X13068446Y-18742093D01*
X13081015Y-18700661D01*
X13104007Y-18624864D01*
X13113310Y-18602407D01*
X13171058Y-18494369D01*
X13184563Y-18474158D01*
X13262276Y-18379464D01*
X13279464Y-18362276D01*
X13374158Y-18284563D01*
X13394369Y-18271058D01*
X13502407Y-18213310D01*
X13524865Y-18204007D01*
X13642095Y-18168446D01*
X13665935Y-18163704D01*
X13768298Y-18153622D01*
X13780452Y-18153025D01*
X13788021Y-18153025D01*
X13800000Y-18155408D01*
X13811980Y-18153025D01*
X13812694Y-18152883D01*
X13836885Y-18150500D01*
X14963115Y-18150500D01*
X14987306Y-18152883D01*
X15000000Y-18155408D01*
X15008659Y-18153686D01*
X15017045Y-18153026D01*
X15017047Y-18153026D01*
X15191374Y-18139306D01*
X15191376Y-18139306D01*
X15196226Y-18138924D01*
X15200953Y-18137789D01*
X15200960Y-18137788D01*
X15382885Y-18094111D01*
X15387621Y-18092974D01*
X15569471Y-18017649D01*
X15737298Y-17914804D01*
X15886971Y-17786971D01*
X16014804Y-17637298D01*
X16117649Y-17469471D01*
X16192974Y-17287621D01*
X16217174Y-17186821D01*
X16237788Y-17100960D01*
X16237789Y-17100953D01*
X16238924Y-17096226D01*
X16253686Y-16908659D01*
X16255408Y-16900000D01*
X16252883Y-16887306D01*
X16250500Y-16863115D01*
X16250500Y-12479392D01*
X17885447Y-12479392D01*
X17893456Y-12490224D01*
X18153971Y-12690124D01*
X18159503Y-12693912D01*
X18455304Y-12873762D01*
X18461198Y-12876924D01*
X18774715Y-13023786D01*
X18780901Y-13026285D01*
X19108436Y-13138424D01*
X19114882Y-13140248D01*
X19452593Y-13216355D01*
X19459202Y-13217473D01*
X19803161Y-13256662D01*
X19809856Y-13257060D01*
X20156027Y-13258872D01*
X20162727Y-13258545D01*
X20507062Y-13222961D01*
X20513704Y-13221909D01*
X20852182Y-13149345D01*
X20858655Y-13147587D01*
X21187324Y-13038890D01*
X21193574Y-13036440D01*
X21508590Y-12892880D01*
X21514510Y-12889785D01*
X21812187Y-12713038D01*
X21817757Y-12709308D01*
X22094603Y-12501446D01*
X22099716Y-12497156D01*
X22106448Y-12490857D01*
X22114390Y-12477393D01*
X22114362Y-12476680D01*
X22109303Y-12468513D01*
X20012607Y-10371817D01*
X19998887Y-10364325D01*
X19997081Y-10364454D01*
X19990574Y-10368636D01*
X17892217Y-12466993D01*
X17885447Y-12479392D01*
X16250500Y-12479392D01*
X16250500Y-9991962D01*
X16737405Y-9991962D01*
X16754919Y-10337692D01*
X16755622Y-10344379D01*
X16810370Y-10686184D01*
X16811790Y-10692753D01*
X16903135Y-11026653D01*
X16905253Y-11033019D01*
X17032133Y-11355126D01*
X17034910Y-11361192D01*
X17195843Y-11667722D01*
X17199267Y-11673467D01*
X17392351Y-11960806D01*
X17396390Y-11966165D01*
X17512097Y-12103571D01*
X17524633Y-12111880D01*
X17534909Y-12105881D01*
X19628183Y-10012607D01*
X19634459Y-10001113D01*
X20364325Y-10001113D01*
X20364454Y-10002919D01*
X20368636Y-10009426D01*
X22463758Y-12104548D01*
X22477138Y-12111854D01*
X22486594Y-12105262D01*
X22582891Y-11993307D01*
X22586965Y-11988016D01*
X22783059Y-11702698D01*
X22786540Y-11696995D01*
X22950662Y-11392187D01*
X22953522Y-11386108D01*
X23083758Y-11065378D01*
X23085945Y-11059027D01*
X23180784Y-10726092D01*
X23182269Y-10719556D01*
X23240595Y-10378330D01*
X23241367Y-10371663D01*
X23262596Y-10024568D01*
X23262711Y-10020976D01*
X23262779Y-10001801D01*
X23262688Y-9998214D01*
X23243882Y-9650962D01*
X23243159Y-9644314D01*
X23187215Y-9302679D01*
X23185774Y-9296127D01*
X23093260Y-8962533D01*
X23091126Y-8956191D01*
X22963126Y-8634540D01*
X22960311Y-8628449D01*
X22798327Y-8322513D01*
X22794865Y-8316753D01*
X22600785Y-8030098D01*
X22596742Y-8024772D01*
X22487905Y-7896435D01*
X22475283Y-7888132D01*
X22465122Y-7894088D01*
X20371817Y-9987393D01*
X20364325Y-10001113D01*
X19634459Y-10001113D01*
X19635675Y-9998887D01*
X19635546Y-9997081D01*
X19631364Y-9990574D01*
X17536252Y-7895462D01*
X17522933Y-7888189D01*
X17513383Y-7894871D01*
X17410186Y-8015699D01*
X17406098Y-8021046D01*
X17211022Y-8307016D01*
X17207550Y-8312748D01*
X17044487Y-8618139D01*
X17041668Y-8624184D01*
X16912537Y-8945408D01*
X16910380Y-8951742D01*
X16816699Y-9285022D01*
X16815239Y-9291556D01*
X16758103Y-9632989D01*
X16757356Y-9639653D01*
X16737428Y-9985259D01*
X16737405Y-9991962D01*
X16250500Y-9991962D01*
X16250500Y-7522215D01*
X17885240Y-7522215D01*
X17885275Y-7523043D01*
X17890245Y-7531035D01*
X19987393Y-9628183D01*
X20001113Y-9635675D01*
X20002919Y-9635546D01*
X20009426Y-9631364D01*
X22107636Y-7533154D01*
X22115128Y-7519434D01*
X22115060Y-7518491D01*
X22111150Y-7512578D01*
X21836625Y-7303446D01*
X21831084Y-7299681D01*
X21534657Y-7120865D01*
X21528742Y-7117720D01*
X21214744Y-6971966D01*
X21208508Y-6969472D01*
X20880604Y-6858483D01*
X20874158Y-6856683D01*
X20536174Y-6781754D01*
X20529555Y-6780658D01*
X20185462Y-6742669D01*
X20178789Y-6742296D01*
X19832591Y-6741693D01*
X19825905Y-6742043D01*
X19481670Y-6778831D01*
X19475074Y-6779900D01*
X19136825Y-6853649D01*
X19130361Y-6855430D01*
X18802078Y-6965272D01*
X18795833Y-6967745D01*
X18481340Y-7112395D01*
X18475393Y-7115530D01*
X18178343Y-7293312D01*
X18172812Y-7297042D01*
X17896686Y-7505874D01*
X17892959Y-7509024D01*
X17885240Y-7522215D01*
X16250500Y-7522215D01*
X16250500Y-7036885D01*
X16252883Y-7012694D01*
X16253025Y-7011980D01*
X16255408Y-7000000D01*
X16253025Y-6988021D01*
X16253025Y-6980452D01*
X16253622Y-6968298D01*
X16263704Y-6865935D01*
X16268446Y-6842093D01*
X16280070Y-6803776D01*
X16304007Y-6724864D01*
X16313310Y-6702407D01*
X16371058Y-6594369D01*
X16384563Y-6574158D01*
X16462276Y-6479464D01*
X16479464Y-6462276D01*
X16574158Y-6384563D01*
X16594369Y-6371058D01*
X16702407Y-6313310D01*
X16724865Y-6304007D01*
X16842095Y-6268446D01*
X16865935Y-6263704D01*
X16968298Y-6253622D01*
X16980452Y-6253025D01*
X16988021Y-6253025D01*
X17000000Y-6255408D01*
X17011980Y-6253025D01*
X17012694Y-6252883D01*
X17036885Y-6250500D01*
X33220500Y-6250500D01*
X33287539Y-6270185D01*
G37*
%TD.AperFunction*%
%TA.AperFunction,Conductor*%
G36*
X20522870Y-27720185D02*
G01*
X20568625Y-27772989D01*
X20579831Y-27824500D01*
X20579831Y-28712567D01*
X20586124Y-28744202D01*
X20579898Y-28813791D01*
X20537036Y-28868969D01*
X20464507Y-28892393D01*
X19852338Y-28892393D01*
X19785299Y-28872708D01*
X19742852Y-28826607D01*
X19740629Y-28822425D01*
X19669549Y-28688742D01*
X19539342Y-28529093D01*
X19463563Y-28466403D01*
X19385277Y-28401639D01*
X19385276Y-28401638D01*
X19380606Y-28397775D01*
X19199386Y-28299790D01*
X19002585Y-28238870D01*
X18797700Y-28217336D01*
X18791667Y-28217885D01*
X18791665Y-28217885D01*
X18787277Y-28218285D01*
X18782790Y-28218693D01*
X18714243Y-28205165D01*
X18663891Y-28156726D01*
X18647720Y-28088753D01*
X18670865Y-28022828D01*
X18683871Y-28007522D01*
X18954574Y-27736819D01*
X19015897Y-27703334D01*
X19042255Y-27700500D01*
X20455831Y-27700500D01*
X20522870Y-27720185D01*
G37*
%TD.AperFunction*%
%TA.AperFunction,Conductor*%
G36*
X28812677Y-35233078D02*
G01*
X28833319Y-35249712D01*
X29859060Y-36275453D01*
X29892545Y-36336776D01*
X29893972Y-36350046D01*
X29894318Y-36350000D01*
X29914956Y-36506762D01*
X29918065Y-36514269D01*
X29918066Y-36514271D01*
X29933140Y-36550663D01*
X29975464Y-36652841D01*
X30071718Y-36778282D01*
X30078165Y-36783229D01*
X30094531Y-36795787D01*
X30135734Y-36852215D01*
X30139889Y-36921961D01*
X30105677Y-36982881D01*
X30051186Y-37013910D01*
X30043238Y-37014956D01*
X30035733Y-37018065D01*
X30035732Y-37018065D01*
X29923184Y-37064684D01*
X29897159Y-37075464D01*
X29890712Y-37080411D01*
X29791200Y-37156769D01*
X29726031Y-37181963D01*
X29715714Y-37182393D01*
X22436344Y-37182393D01*
X22369305Y-37162708D01*
X22323550Y-37109904D01*
X22313606Y-37040746D01*
X22342631Y-36977190D01*
X22350831Y-36968596D01*
X22353508Y-36966047D01*
X22358282Y-36962317D01*
X22362238Y-36957733D01*
X22362242Y-36957730D01*
X22488933Y-36810955D01*
X22492895Y-36806365D01*
X22498905Y-36795787D01*
X22591658Y-36632511D01*
X22594654Y-36627237D01*
X22644631Y-36477000D01*
X22657770Y-36437504D01*
X22657770Y-36437503D01*
X22659682Y-36431756D01*
X22665154Y-36388446D01*
X22685067Y-36230812D01*
X22685067Y-36230808D01*
X22685502Y-36227367D01*
X22685914Y-36197893D01*
X22674983Y-36086403D01*
X22666403Y-35998899D01*
X22666403Y-35998897D01*
X22665811Y-35992863D01*
X22620256Y-35841978D01*
X22608019Y-35801448D01*
X22606266Y-35795642D01*
X22509549Y-35613742D01*
X22379342Y-35454093D01*
X22374675Y-35450232D01*
X22374669Y-35450226D01*
X22353769Y-35432936D01*
X22314662Y-35375036D01*
X22313066Y-35305185D01*
X22349488Y-35245559D01*
X22412364Y-35215090D01*
X22432810Y-35213393D01*
X28745638Y-35213393D01*
X28812677Y-35233078D01*
G37*
%TD.AperFunction*%
%TD*%
%TA.AperFunction,Conductor*%
%TO.N,GND2*%
G36*
X47001518Y-6252883D02*
G01*
X47014212Y-6255408D01*
X47026191Y-6253026D01*
X47033760Y-6253026D01*
X47045912Y-6253623D01*
X47148277Y-6263706D01*
X47172119Y-6268449D01*
X47289344Y-6304011D01*
X47311802Y-6313314D01*
X47419835Y-6371061D01*
X47440045Y-6384565D01*
X47534739Y-6462279D01*
X47551928Y-6479468D01*
X47629642Y-6574165D01*
X47643144Y-6594372D01*
X47700892Y-6702412D01*
X47710193Y-6724865D01*
X47734130Y-6803776D01*
X47745754Y-6842095D01*
X47750496Y-6865936D01*
X47760594Y-6968463D01*
X47761191Y-6980617D01*
X47761191Y-6988020D01*
X47758808Y-7000000D01*
X47761191Y-7011980D01*
X47761333Y-7012694D01*
X47763716Y-7036885D01*
X47763716Y-12620240D01*
X47744031Y-12687279D01*
X47691227Y-12733034D01*
X47639901Y-12744240D01*
X46780304Y-12745512D01*
X46713956Y-12726384D01*
X46564757Y-12632246D01*
X46376898Y-12557298D01*
X46371317Y-12556188D01*
X46371314Y-12556187D01*
X46303373Y-12542673D01*
X46178526Y-12517839D01*
X46172839Y-12517765D01*
X46172834Y-12517764D01*
X45981975Y-12515266D01*
X45981970Y-12515266D01*
X45976286Y-12515192D01*
X45970682Y-12516155D01*
X45970681Y-12516155D01*
X45782546Y-12548482D01*
X45782543Y-12548483D01*
X45776949Y-12549444D01*
X45755660Y-12557298D01*
X45592521Y-12617483D01*
X45592517Y-12617485D01*
X45587193Y-12619449D01*
X45553862Y-12639279D01*
X45486186Y-12656637D01*
X45419866Y-12634651D01*
X45375960Y-12580300D01*
X45368409Y-12510839D01*
X45402784Y-12445030D01*
X45671667Y-12176147D01*
X45732990Y-12142662D01*
X45786714Y-12142886D01*
X45913191Y-12171505D01*
X45913198Y-12171506D01*
X45918740Y-12172760D01*
X46036135Y-12177372D01*
X46115161Y-12180477D01*
X46115163Y-12180477D01*
X46120842Y-12180700D01*
X46126462Y-12179885D01*
X46126465Y-12179885D01*
X46315387Y-12152493D01*
X46315389Y-12152493D01*
X46321007Y-12151678D01*
X46326384Y-12149853D01*
X46326387Y-12149852D01*
X46411090Y-12121099D01*
X46512531Y-12086664D01*
X46689001Y-11987837D01*
X46844505Y-11858505D01*
X46973837Y-11703001D01*
X47072664Y-11526531D01*
X47137678Y-11335007D01*
X47166700Y-11134842D01*
X47168215Y-11077000D01*
X47149708Y-10875591D01*
X47094807Y-10680926D01*
X47005351Y-10499527D01*
X46884335Y-10337467D01*
X46735812Y-10200174D01*
X46564757Y-10092246D01*
X46483126Y-10059678D01*
X46428152Y-10016553D01*
X46405222Y-9950553D01*
X46421613Y-9882634D01*
X46472123Y-9834358D01*
X46493441Y-9825736D01*
X46555332Y-9807168D01*
X46564768Y-9803470D01*
X46756168Y-9709703D01*
X46764877Y-9704512D01*
X46938402Y-9580739D01*
X46946135Y-9574203D01*
X47097103Y-9423760D01*
X47103687Y-9416024D01*
X47228050Y-9242955D01*
X47233278Y-9234254D01*
X47327707Y-9043193D01*
X47331444Y-9033753D01*
X47393402Y-8829829D01*
X47395544Y-8819918D01*
X47397024Y-8808676D01*
X47394847Y-8794719D01*
X47381898Y-8791000D01*
X44745940Y-8791000D01*
X44732623Y-8794910D01*
X44731208Y-8804748D01*
X44761580Y-8939517D01*
X44764618Y-8949209D01*
X44844800Y-9146675D01*
X44849374Y-9155730D01*
X44960731Y-9337448D01*
X44966725Y-9345639D01*
X45106270Y-9506734D01*
X45113515Y-9513829D01*
X45277497Y-9649969D01*
X45285813Y-9655791D01*
X45469820Y-9763317D01*
X45478976Y-9767703D01*
X45638780Y-9828726D01*
X45694387Y-9871030D01*
X45718294Y-9936682D01*
X45702912Y-10004838D01*
X45653124Y-10053858D01*
X45637464Y-10060903D01*
X45592521Y-10077483D01*
X45592517Y-10077485D01*
X45587193Y-10079449D01*
X45582310Y-10082354D01*
X45582308Y-10082355D01*
X45565683Y-10092246D01*
X45413371Y-10182862D01*
X45261305Y-10316220D01*
X45136089Y-10475057D01*
X45041914Y-10654053D01*
X45040229Y-10659479D01*
X45040228Y-10659482D01*
X45033570Y-10680926D01*
X44981937Y-10847213D01*
X44958164Y-11048069D01*
X44958535Y-11053731D01*
X44958535Y-11053735D01*
X44963851Y-11134842D01*
X44971392Y-11249894D01*
X44972790Y-11255398D01*
X44996749Y-11349737D01*
X44994172Y-11419559D01*
X44964245Y-11467941D01*
X41845561Y-14586625D01*
X41836172Y-14594128D01*
X41836480Y-14594490D01*
X41829754Y-14600215D01*
X41822280Y-14604930D01*
X41816431Y-14611553D01*
X41787207Y-14644643D01*
X41781945Y-14650241D01*
X41770680Y-14661506D01*
X41768033Y-14665038D01*
X41768032Y-14665039D01*
X41764512Y-14669736D01*
X41758231Y-14677453D01*
X41727377Y-14712388D01*
X41723623Y-14720384D01*
X41722045Y-14722786D01*
X41711095Y-14741010D01*
X41706780Y-14746768D01*
X41694264Y-14761045D01*
X41544631Y-14907425D01*
X41544626Y-14907431D01*
X41540212Y-14911749D01*
X41473471Y-15009873D01*
X41450000Y-15126200D01*
X41450000Y-47392141D01*
X41430315Y-47459180D01*
X41377511Y-47504935D01*
X41308353Y-47514879D01*
X41244797Y-47485854D01*
X41227624Y-47467627D01*
X41221143Y-47459180D01*
X41154720Y-47372616D01*
X41029279Y-47276362D01*
X40997023Y-47263001D01*
X40890709Y-47218964D01*
X40890707Y-47218963D01*
X40883200Y-47215854D01*
X40726438Y-47195216D01*
X40569676Y-47215854D01*
X40562169Y-47218963D01*
X40562167Y-47218964D01*
X40455853Y-47263001D01*
X40423597Y-47276362D01*
X40298156Y-47372616D01*
X40201902Y-47498057D01*
X40141394Y-47644136D01*
X40120756Y-47800898D01*
X40141394Y-47957660D01*
X40144503Y-47965167D01*
X40144504Y-47965169D01*
X40163499Y-48011027D01*
X40201902Y-48103739D01*
X40298156Y-48229180D01*
X40423597Y-48325434D01*
X40431105Y-48328544D01*
X40522953Y-48366589D01*
X40577356Y-48410430D01*
X40599500Y-48481150D01*
X40599500Y-57925662D01*
X40602515Y-57934940D01*
X40606345Y-57946728D01*
X40610889Y-57965653D01*
X40614354Y-57987533D01*
X40618783Y-57996226D01*
X40618785Y-57996231D01*
X40624413Y-58007277D01*
X40631857Y-58025248D01*
X40634663Y-58033882D01*
X40638704Y-58046319D01*
X40651728Y-58064245D01*
X40661892Y-58080831D01*
X40671950Y-58100571D01*
X40694513Y-58123134D01*
X40694516Y-58123138D01*
X40763681Y-58192303D01*
X40797166Y-58253626D01*
X40800000Y-58279984D01*
X40800000Y-59680682D01*
X40797617Y-59704873D01*
X40781976Y-59783506D01*
X40763461Y-59828206D01*
X40725835Y-59884517D01*
X40691624Y-59918728D01*
X40635313Y-59956354D01*
X40590613Y-59974869D01*
X40511980Y-59990510D01*
X40487789Y-59992893D01*
X33912211Y-59992893D01*
X33888020Y-59990510D01*
X33809387Y-59974869D01*
X33764687Y-59956354D01*
X33708376Y-59918728D01*
X33674165Y-59884517D01*
X33636539Y-59828206D01*
X33618024Y-59783506D01*
X33602383Y-59704873D01*
X33600000Y-59680682D01*
X33600000Y-35916333D01*
X39594318Y-35916333D01*
X39614956Y-36073095D01*
X39618065Y-36080602D01*
X39618066Y-36080604D01*
X39672354Y-36211666D01*
X39675464Y-36219174D01*
X39771718Y-36344615D01*
X39897159Y-36440869D01*
X39904667Y-36443979D01*
X40035729Y-36498267D01*
X40035731Y-36498268D01*
X40043238Y-36501377D01*
X40200000Y-36522015D01*
X40208059Y-36520954D01*
X40348703Y-36502438D01*
X40356762Y-36501377D01*
X40364269Y-36498268D01*
X40364271Y-36498267D01*
X40495333Y-36443979D01*
X40502841Y-36440869D01*
X40628282Y-36344615D01*
X40724536Y-36219174D01*
X40727646Y-36211666D01*
X40781934Y-36080604D01*
X40781935Y-36080602D01*
X40785044Y-36073095D01*
X40805682Y-35916333D01*
X40785044Y-35759571D01*
X40775889Y-35737467D01*
X40727646Y-35621000D01*
X40724536Y-35613492D01*
X40628282Y-35488051D01*
X40630436Y-35486398D01*
X40603334Y-35436765D01*
X40600500Y-35410407D01*
X40600500Y-34598819D01*
X40620185Y-34531780D01*
X40628559Y-34521388D01*
X40628282Y-34521175D01*
X40719589Y-34402181D01*
X40724536Y-34395734D01*
X40785044Y-34249655D01*
X40805682Y-34092893D01*
X40785044Y-33936131D01*
X40773421Y-33908069D01*
X40727646Y-33797560D01*
X40724536Y-33790052D01*
X40628282Y-33664611D01*
X40502841Y-33568357D01*
X40436617Y-33540926D01*
X40364271Y-33510959D01*
X40364269Y-33510958D01*
X40356762Y-33507849D01*
X40200000Y-33487211D01*
X40043238Y-33507849D01*
X40035731Y-33510958D01*
X40035729Y-33510959D01*
X39963383Y-33540926D01*
X39897159Y-33568357D01*
X39771718Y-33664611D01*
X39675464Y-33790052D01*
X39672354Y-33797560D01*
X39626580Y-33908069D01*
X39614956Y-33936131D01*
X39594318Y-34092893D01*
X39614956Y-34249655D01*
X39675464Y-34395734D01*
X39680411Y-34402181D01*
X39771718Y-34521175D01*
X39769564Y-34522828D01*
X39796666Y-34572461D01*
X39799500Y-34598819D01*
X39799500Y-35410407D01*
X39779815Y-35477446D01*
X39771441Y-35487838D01*
X39771718Y-35488051D01*
X39675464Y-35613492D01*
X39672354Y-35621000D01*
X39624112Y-35737467D01*
X39614956Y-35759571D01*
X39594318Y-35916333D01*
X33600000Y-35916333D01*
X33600000Y-8271366D01*
X44727338Y-8271366D01*
X44728838Y-8279660D01*
X44741025Y-8283000D01*
X45791170Y-8283000D01*
X45806169Y-8278596D01*
X45807356Y-8277226D01*
X45809000Y-8269668D01*
X45809000Y-8265170D01*
X46317000Y-8265170D01*
X46321404Y-8280169D01*
X46322774Y-8281356D01*
X46330332Y-8283000D01*
X47381629Y-8283000D01*
X47394946Y-8279090D01*
X47396232Y-8270151D01*
X47354193Y-8102790D01*
X47350930Y-8093207D01*
X47265940Y-7897741D01*
X47261149Y-7888805D01*
X47145378Y-7709852D01*
X47139194Y-7701822D01*
X46995751Y-7544180D01*
X46988333Y-7537263D01*
X46821076Y-7405172D01*
X46812629Y-7399560D01*
X46626037Y-7296555D01*
X46616782Y-7292396D01*
X46415890Y-7221256D01*
X46406066Y-7218660D01*
X46334555Y-7205922D01*
X46321468Y-7207358D01*
X46317000Y-7221685D01*
X46317000Y-8265170D01*
X45809000Y-8265170D01*
X45809000Y-7219817D01*
X45805143Y-7206682D01*
X45791094Y-7204727D01*
X45752235Y-7210674D01*
X45742376Y-7213022D01*
X45539785Y-7279239D01*
X45530436Y-7283169D01*
X45341389Y-7381580D01*
X45332804Y-7386987D01*
X45162368Y-7514954D01*
X45154780Y-7521691D01*
X45007532Y-7675778D01*
X45001153Y-7683655D01*
X44881050Y-7859719D01*
X44876035Y-7868547D01*
X44786301Y-8061864D01*
X44782799Y-8071382D01*
X44727338Y-8271366D01*
X33600000Y-8271366D01*
X33600000Y-6374500D01*
X33619685Y-6307461D01*
X33672489Y-6261706D01*
X33724000Y-6250500D01*
X46977326Y-6250500D01*
X47001518Y-6252883D01*
G37*
%TD.AperFunction*%
%TD*%
M02*
