%TF.GenerationSoftware,KiCad,Pcbnew,(6.0.11-0)*%
%TF.CreationDate,2023-07-12T13:16:53+12:00*%
%TF.ProjectId,controller-upper-cut,636f6e74-726f-46c6-9c65-722d75707065,3.2*%
%TF.SameCoordinates,PX206cc80PY68e7780*%
%TF.FileFunction,Legend,Bot*%
%TF.FilePolarity,Positive*%
%FSLAX46Y46*%
G04 Gerber Fmt 4.6, Leading zero omitted, Abs format (unit mm)*
G04 Created by KiCad (PCBNEW (6.0.11-0)) date 2023-07-12 13:16:53*
%MOMM*%
%LPD*%
G01*
G04 APERTURE LIST*
%ADD10C,0.100000*%
%ADD11C,0.150000*%
%ADD12C,0.110000*%
%ADD13C,0.120000*%
%ADD14C,5.500000*%
%ADD15C,4.000000*%
%ADD16R,1.600000X1.600000*%
%ADD17C,1.600000*%
%ADD18R,1.700000X1.700000*%
%ADD19O,1.700000X1.700000*%
G04 APERTURE END LIST*
D10*
X17500000Y-37500000D02*
X16800000Y-37500000D01*
X24566000Y-44250000D02*
X24566000Y-44600000D01*
X25035000Y-58300000D02*
X25385000Y-58500000D01*
X24576000Y-27650000D02*
X24576000Y-28000000D01*
X25735000Y-52750000D02*
X25035000Y-52750000D01*
X16800000Y-49825000D02*
X16200000Y-49825000D01*
X16800000Y-42900000D02*
X17100000Y-42901000D01*
X24916000Y-50000000D02*
X24566000Y-50150000D01*
X24216000Y-44450000D02*
X24916000Y-44450000D01*
X24926000Y-30620000D02*
X24576000Y-30420000D01*
X16800000Y-54000000D02*
X17100000Y-54001000D01*
X16800000Y-59549500D02*
X17100000Y-59550500D01*
X24566000Y-49800000D02*
X24566000Y-50150000D01*
X24566000Y-33160000D02*
X24566000Y-33510000D01*
X24216000Y-33360000D02*
X24916000Y-33360000D01*
X17200000Y-31750000D02*
X17200000Y-32100000D01*
X25035000Y-55550000D02*
X25385000Y-55750000D01*
X24916000Y-41700000D02*
X24566000Y-41850000D01*
X24566000Y-47000000D02*
X24566000Y-47350000D01*
X24226000Y-36150000D02*
X24926000Y-36150000D01*
X25385000Y-55750000D02*
X25385000Y-55400000D01*
X17200000Y-29400000D02*
X17200000Y-29050000D01*
X16800000Y-45650000D02*
X17100000Y-45651000D01*
X25035000Y-52750000D02*
X25385000Y-52600000D01*
X17550000Y-31950000D02*
X17200000Y-32100000D01*
X16850000Y-31950000D02*
X17550000Y-31950000D01*
X24926000Y-36150000D02*
X24576000Y-36300000D01*
X24576000Y-30420000D02*
X24576000Y-30770000D01*
X24926000Y-36150000D02*
X24576000Y-35950000D01*
X16800000Y-40150000D02*
X17100000Y-40151000D01*
X16800000Y-37500000D02*
X17150000Y-37700000D01*
X24926000Y-27850000D02*
X24576000Y-28000000D01*
X25035000Y-61100000D02*
X25385000Y-60950000D01*
X24216000Y-47200000D02*
X24916000Y-47200000D01*
X24916000Y-33360000D02*
X24566000Y-33160000D01*
X24576000Y-35950000D02*
X24576000Y-36300000D01*
X24916000Y-47200000D02*
X24566000Y-47350000D01*
X16800000Y-34750000D02*
X17150000Y-34950000D01*
X24916000Y-38900000D02*
X24566000Y-38700000D01*
X16800000Y-48450000D02*
X17100000Y-48451000D01*
X24916000Y-44450000D02*
X24566000Y-44250000D01*
X24216000Y-38900000D02*
X24916000Y-38900000D01*
X16800000Y-34750000D02*
X17150000Y-34600000D01*
X25385000Y-52950000D02*
X25385000Y-52600000D01*
X24226000Y-30620000D02*
X24926000Y-30620000D01*
X24916000Y-47200000D02*
X24566000Y-47000000D01*
X24916000Y-33360000D02*
X24566000Y-33510000D01*
X24916000Y-41700000D02*
X24566000Y-41500000D01*
X17150000Y-34950000D02*
X17150000Y-34600000D01*
X25035000Y-52750000D02*
X25385000Y-52950000D01*
X16800000Y-56750000D02*
X17100000Y-56751000D01*
X24916000Y-50000000D02*
X24566000Y-49800000D01*
X24226000Y-27850000D02*
X24926000Y-27850000D01*
X24566000Y-41500000D02*
X24566000Y-41850000D01*
X24916000Y-44450000D02*
X24566000Y-44600000D01*
X16850000Y-29200000D02*
X17200000Y-29050000D01*
X16800000Y-40150000D02*
X16800000Y-59549500D01*
X17550000Y-31950000D02*
X17200000Y-31750000D01*
X25035000Y-55550000D02*
X25385000Y-55400000D01*
X17500000Y-34750000D02*
X16800000Y-34750000D01*
X16850000Y-29200000D02*
X17200000Y-29400000D01*
X24926000Y-27850000D02*
X24576000Y-27650000D01*
X17150000Y-37700000D02*
X17150000Y-37350000D01*
X24566000Y-38700000D02*
X24566000Y-39050000D01*
X25735000Y-55550000D02*
X25035000Y-55550000D01*
X25035000Y-61100000D02*
X25385000Y-61300000D01*
X16800000Y-51200000D02*
X17100000Y-51201000D01*
X24216000Y-50000000D02*
X24916000Y-50000000D01*
X25735000Y-58300000D02*
X25035000Y-58300000D01*
X25735000Y-61100000D02*
X25035000Y-61100000D01*
X25385000Y-58500000D02*
X25385000Y-58150000D01*
X25035000Y-58300000D02*
X25385000Y-58150000D01*
X24926000Y-30620000D02*
X24576000Y-30770000D01*
X24216000Y-41700000D02*
X24916000Y-41700000D01*
X17550000Y-29200000D02*
X16850000Y-29200000D01*
X24916000Y-38900000D02*
X24566000Y-39050000D01*
X25385000Y-61300000D02*
X25385000Y-60950000D01*
X16800000Y-37500000D02*
X17150000Y-37350000D01*
D11*
X31754642Y-28302380D02*
X32087976Y-27826190D01*
X32326071Y-28302380D02*
X32326071Y-27302380D01*
X31945119Y-27302380D01*
X31849880Y-27350000D01*
X31802261Y-27397619D01*
X31754642Y-27492857D01*
X31754642Y-27635714D01*
X31802261Y-27730952D01*
X31849880Y-27778571D01*
X31945119Y-27826190D01*
X32326071Y-27826190D01*
X30849880Y-28302380D02*
X31326071Y-28302380D01*
X31326071Y-27302380D01*
X30326071Y-27826190D02*
X30326071Y-28302380D01*
X30659404Y-27302380D02*
X30326071Y-27826190D01*
X29992738Y-27302380D01*
X29230833Y-27635714D02*
X29230833Y-28302380D01*
X29468928Y-27254761D02*
X29707023Y-27969047D01*
X29087976Y-27969047D01*
X27992738Y-27254761D02*
X28849880Y-28540476D01*
X27087976Y-28207142D02*
X27135595Y-28254761D01*
X27278452Y-28302380D01*
X27373690Y-28302380D01*
X27516547Y-28254761D01*
X27611785Y-28159523D01*
X27659404Y-28064285D01*
X27707023Y-27873809D01*
X27707023Y-27730952D01*
X27659404Y-27540476D01*
X27611785Y-27445238D01*
X27516547Y-27350000D01*
X27373690Y-27302380D01*
X27278452Y-27302380D01*
X27135595Y-27350000D01*
X27087976Y-27397619D01*
X26659404Y-28302380D02*
X26659404Y-27302380D01*
X26278452Y-27302380D01*
X26183214Y-27350000D01*
X26135595Y-27397619D01*
X26087976Y-27492857D01*
X26087976Y-27635714D01*
X26135595Y-27730952D01*
X26183214Y-27778571D01*
X26278452Y-27826190D01*
X26659404Y-27826190D01*
X23570566Y-50452380D02*
X23380090Y-50452380D01*
X23284852Y-50404761D01*
X23237233Y-50357142D01*
X23141995Y-50214285D01*
X23094376Y-50023809D01*
X23094376Y-49642857D01*
X23141995Y-49547619D01*
X23189614Y-49500000D01*
X23284852Y-49452380D01*
X23475328Y-49452380D01*
X23570566Y-49500000D01*
X23618185Y-49547619D01*
X23665804Y-49642857D01*
X23665804Y-49880952D01*
X23618185Y-49976190D01*
X23570566Y-50023809D01*
X23475328Y-50071428D01*
X23284852Y-50071428D01*
X23189614Y-50023809D01*
X23141995Y-49976190D01*
X23094376Y-49880952D01*
X14200000Y-49038095D02*
X14152380Y-48942857D01*
X14152380Y-48800000D01*
X14200000Y-48657142D01*
X14295238Y-48561904D01*
X14390476Y-48514285D01*
X14580952Y-48466666D01*
X14723809Y-48466666D01*
X14914285Y-48514285D01*
X15009523Y-48561904D01*
X15104761Y-48657142D01*
X15152380Y-48800000D01*
X15152380Y-48895238D01*
X15104761Y-49038095D01*
X15057142Y-49085714D01*
X14723809Y-49085714D01*
X14723809Y-48895238D01*
X15152380Y-49514285D02*
X14152380Y-49514285D01*
X15152380Y-50085714D01*
X14152380Y-50085714D01*
X15152380Y-50561904D02*
X14152380Y-50561904D01*
X14152380Y-50800000D01*
X14200000Y-50942857D01*
X14295238Y-51038095D01*
X14390476Y-51085714D01*
X14580952Y-51133333D01*
X14723809Y-51133333D01*
X14914285Y-51085714D01*
X15009523Y-51038095D01*
X15104761Y-50942857D01*
X15152380Y-50800000D01*
X15152380Y-50561904D01*
X30611785Y-61552380D02*
X30611785Y-60552380D01*
X30230833Y-60552380D01*
X30135595Y-60600000D01*
X30087976Y-60647619D01*
X30040357Y-60742857D01*
X30040357Y-60885714D01*
X30087976Y-60980952D01*
X30135595Y-61028571D01*
X30230833Y-61076190D01*
X30611785Y-61076190D01*
X29040357Y-61552380D02*
X29373690Y-61076190D01*
X29611785Y-61552380D02*
X29611785Y-60552380D01*
X29230833Y-60552380D01*
X29135595Y-60600000D01*
X29087976Y-60647619D01*
X29040357Y-60742857D01*
X29040357Y-60885714D01*
X29087976Y-60980952D01*
X29135595Y-61028571D01*
X29230833Y-61076190D01*
X29611785Y-61076190D01*
X28421309Y-60552380D02*
X28230833Y-60552380D01*
X28135595Y-60600000D01*
X28040357Y-60695238D01*
X27992738Y-60885714D01*
X27992738Y-61219047D01*
X28040357Y-61409523D01*
X28135595Y-61504761D01*
X28230833Y-61552380D01*
X28421309Y-61552380D01*
X28516547Y-61504761D01*
X28611785Y-61409523D01*
X28659404Y-61219047D01*
X28659404Y-60885714D01*
X28611785Y-60695238D01*
X28516547Y-60600000D01*
X28421309Y-60552380D01*
X27230833Y-61028571D02*
X27087976Y-61076190D01*
X27040357Y-61123809D01*
X26992738Y-61219047D01*
X26992738Y-61361904D01*
X27040357Y-61457142D01*
X27087976Y-61504761D01*
X27183214Y-61552380D01*
X27564166Y-61552380D01*
X27564166Y-60552380D01*
X27230833Y-60552380D01*
X27135595Y-60600000D01*
X27087976Y-60647619D01*
X27040357Y-60742857D01*
X27040357Y-60838095D01*
X27087976Y-60933333D01*
X27135595Y-60980952D01*
X27230833Y-61028571D01*
X27564166Y-61028571D01*
X26564166Y-61028571D02*
X26230833Y-61028571D01*
X26087976Y-61552380D02*
X26564166Y-61552380D01*
X26564166Y-60552380D01*
X26087976Y-60552380D01*
X28707023Y-47702380D02*
X29040357Y-47226190D01*
X29278452Y-47702380D02*
X29278452Y-46702380D01*
X28897500Y-46702380D01*
X28802261Y-46750000D01*
X28754642Y-46797619D01*
X28707023Y-46892857D01*
X28707023Y-47035714D01*
X28754642Y-47130952D01*
X28802261Y-47178571D01*
X28897500Y-47226190D01*
X29278452Y-47226190D01*
X27802261Y-47702380D02*
X28278452Y-47702380D01*
X28278452Y-46702380D01*
X27278452Y-47226190D02*
X27278452Y-47702380D01*
X27611785Y-46702380D02*
X27278452Y-47226190D01*
X26945119Y-46702380D01*
X26659404Y-46797619D02*
X26611785Y-46750000D01*
X26516547Y-46702380D01*
X26278452Y-46702380D01*
X26183214Y-46750000D01*
X26135595Y-46797619D01*
X26087976Y-46892857D01*
X26087976Y-46988095D01*
X26135595Y-47130952D01*
X26707023Y-47702380D01*
X26087976Y-47702380D01*
X23094376Y-28302380D02*
X23665804Y-28302380D01*
X23380090Y-28302380D02*
X23380090Y-27302380D01*
X23475328Y-27445238D01*
X23570566Y-27540476D01*
X23665804Y-27588095D01*
X24030357Y-55952380D02*
X24601785Y-55952380D01*
X24316071Y-55952380D02*
X24316071Y-54952380D01*
X24411309Y-55095238D01*
X24506547Y-55190476D01*
X24601785Y-55238095D01*
X23077976Y-55952380D02*
X23649404Y-55952380D01*
X23363690Y-55952380D02*
X23363690Y-54952380D01*
X23458928Y-55095238D01*
X23554166Y-55190476D01*
X23649404Y-55238095D01*
X29135595Y-36126190D02*
X29135595Y-36602380D01*
X29468928Y-35602380D02*
X29135595Y-36126190D01*
X28802261Y-35602380D01*
X27897500Y-36507142D02*
X27945119Y-36554761D01*
X28087976Y-36602380D01*
X28183214Y-36602380D01*
X28326071Y-36554761D01*
X28421309Y-36459523D01*
X28468928Y-36364285D01*
X28516547Y-36173809D01*
X28516547Y-36030952D01*
X28468928Y-35840476D01*
X28421309Y-35745238D01*
X28326071Y-35650000D01*
X28183214Y-35602380D01*
X28087976Y-35602380D01*
X27945119Y-35650000D01*
X27897500Y-35697619D01*
X26992738Y-36602380D02*
X27468928Y-36602380D01*
X27468928Y-35602380D01*
X26659404Y-36602380D02*
X26659404Y-35602380D01*
X26087976Y-36602380D02*
X26516547Y-36030952D01*
X26087976Y-35602380D02*
X26659404Y-36173809D01*
X24040357Y-61522380D02*
X24611785Y-61522380D01*
X24326071Y-61522380D02*
X24326071Y-60522380D01*
X24421309Y-60665238D01*
X24516547Y-60760476D01*
X24611785Y-60808095D01*
X23707023Y-60522380D02*
X23087976Y-60522380D01*
X23421309Y-60903333D01*
X23278452Y-60903333D01*
X23183214Y-60950952D01*
X23135595Y-60998571D01*
X23087976Y-61093809D01*
X23087976Y-61331904D01*
X23135595Y-61427142D01*
X23183214Y-61474761D01*
X23278452Y-61522380D01*
X23564166Y-61522380D01*
X23659404Y-61474761D01*
X23707023Y-61427142D01*
X23713423Y-32832380D02*
X23094376Y-32832380D01*
X23427709Y-33213333D01*
X23284852Y-33213333D01*
X23189614Y-33260952D01*
X23141995Y-33308571D01*
X23094376Y-33403809D01*
X23094376Y-33641904D01*
X23141995Y-33737142D01*
X23189614Y-33784761D01*
X23284852Y-33832380D01*
X23570566Y-33832380D01*
X23665804Y-33784761D01*
X23713423Y-33737142D01*
X29373690Y-52202380D02*
X28707023Y-53202380D01*
X28707023Y-52202380D02*
X29373690Y-53202380D01*
X28326071Y-53202380D02*
X28326071Y-52202380D01*
X27992738Y-52916666D01*
X27659404Y-52202380D01*
X27659404Y-53202380D01*
X27183214Y-53202380D02*
X27183214Y-52202380D01*
X26707023Y-53202380D02*
X26707023Y-52202380D01*
X26135595Y-53202380D01*
X26135595Y-52202380D01*
X23150995Y-38342380D02*
X23627185Y-38342380D01*
X23674804Y-38818571D01*
X23627185Y-38770952D01*
X23531947Y-38723333D01*
X23293852Y-38723333D01*
X23198614Y-38770952D01*
X23150995Y-38818571D01*
X23103376Y-38913809D01*
X23103376Y-39151904D01*
X23150995Y-39247142D01*
X23198614Y-39294761D01*
X23293852Y-39342380D01*
X23531947Y-39342380D01*
X23627185Y-39294761D01*
X23674804Y-39247142D01*
X28802261Y-38876190D02*
X28802261Y-39352380D01*
X29135595Y-38352380D02*
X28802261Y-38876190D01*
X28468928Y-38352380D01*
X28135595Y-39352380D02*
X28135595Y-38352380D01*
X27897500Y-38352380D01*
X27754642Y-38400000D01*
X27659404Y-38495238D01*
X27611785Y-38590476D01*
X27564166Y-38780952D01*
X27564166Y-38923809D01*
X27611785Y-39114285D01*
X27659404Y-39209523D01*
X27754642Y-39304761D01*
X27897500Y-39352380D01*
X28135595Y-39352380D01*
X27135595Y-39352380D02*
X27135595Y-38352380D01*
X26087976Y-39352380D02*
X26421309Y-38876190D01*
X26659404Y-39352380D02*
X26659404Y-38352380D01*
X26278452Y-38352380D01*
X26183214Y-38400000D01*
X26135595Y-38447619D01*
X26087976Y-38542857D01*
X26087976Y-38685714D01*
X26135595Y-38780952D01*
X26183214Y-38828571D01*
X26278452Y-38876190D01*
X26659404Y-38876190D01*
X29183214Y-32802380D02*
X28516547Y-33802380D01*
X28516547Y-32802380D02*
X29183214Y-33802380D01*
X28135595Y-33802380D02*
X28135595Y-32802380D01*
X27897500Y-32802380D01*
X27754642Y-32850000D01*
X27659404Y-32945238D01*
X27611785Y-33040476D01*
X27564166Y-33230952D01*
X27564166Y-33373809D01*
X27611785Y-33564285D01*
X27659404Y-33659523D01*
X27754642Y-33754761D01*
X27897500Y-33802380D01*
X28135595Y-33802380D01*
X27135595Y-33802380D02*
X27135595Y-32802380D01*
X26087976Y-33802380D02*
X26421309Y-33326190D01*
X26659404Y-33802380D02*
X26659404Y-32802380D01*
X26278452Y-32802380D01*
X26183214Y-32850000D01*
X26135595Y-32897619D01*
X26087976Y-32992857D01*
X26087976Y-33135714D01*
X26135595Y-33230952D01*
X26183214Y-33278571D01*
X26278452Y-33326190D01*
X26659404Y-33326190D01*
X23713423Y-43902380D02*
X23046757Y-43902380D01*
X23475328Y-44902380D01*
X16464404Y-35202380D02*
X16464404Y-34202380D01*
X16083452Y-34202380D01*
X15988214Y-34250000D01*
X15940595Y-34297619D01*
X15892976Y-34392857D01*
X15892976Y-34535714D01*
X15940595Y-34630952D01*
X15988214Y-34678571D01*
X16083452Y-34726190D01*
X16464404Y-34726190D01*
X15559642Y-34202380D02*
X15321547Y-35202380D01*
X15131071Y-34488095D01*
X14940595Y-35202380D01*
X14702500Y-34202380D01*
X14321547Y-35202380D02*
X14321547Y-34202380D01*
X13988214Y-34916666D01*
X13654880Y-34202380D01*
X13654880Y-35202380D01*
X28992738Y-55526190D02*
X28992738Y-56002380D01*
X29326071Y-55002380D02*
X28992738Y-55526190D01*
X28659404Y-55002380D01*
X28326071Y-56002380D02*
X28326071Y-55002380D01*
X27992738Y-55716666D01*
X27659404Y-55002380D01*
X27659404Y-56002380D01*
X27183214Y-56002380D02*
X27183214Y-55002380D01*
X26707023Y-56002380D02*
X26707023Y-55002380D01*
X26135595Y-56002380D01*
X26135595Y-55002380D01*
X23189614Y-35935714D02*
X23189614Y-36602380D01*
X23427709Y-35554761D02*
X23665804Y-36269047D01*
X23046757Y-36269047D01*
X16131071Y-37428571D02*
X16464404Y-37428571D01*
X16464404Y-37952380D02*
X16464404Y-36952380D01*
X15988214Y-36952380D01*
X15702500Y-36952380D02*
X15464404Y-37952380D01*
X15273928Y-37238095D01*
X15083452Y-37952380D01*
X14845357Y-36952380D01*
X14464404Y-37952380D02*
X14464404Y-36952380D01*
X14226309Y-36952380D01*
X14083452Y-37000000D01*
X13988214Y-37095238D01*
X13940595Y-37190476D01*
X13892976Y-37380952D01*
X13892976Y-37523809D01*
X13940595Y-37714285D01*
X13988214Y-37809523D01*
X14083452Y-37904761D01*
X14226309Y-37952380D01*
X14464404Y-37952380D01*
X29373690Y-57752380D02*
X28707023Y-57752380D01*
X29373690Y-58752380D01*
X28707023Y-58752380D01*
X28326071Y-58752380D02*
X28326071Y-57752380D01*
X27992738Y-58466666D01*
X27659404Y-57752380D01*
X27659404Y-58752380D01*
X27183214Y-58752380D02*
X27183214Y-57752380D01*
X26707023Y-58752380D02*
X26707023Y-57752380D01*
X26135595Y-58752380D01*
X26135595Y-57752380D01*
X28707023Y-50452380D02*
X29040357Y-49976190D01*
X29278452Y-50452380D02*
X29278452Y-49452380D01*
X28897500Y-49452380D01*
X28802261Y-49500000D01*
X28754642Y-49547619D01*
X28707023Y-49642857D01*
X28707023Y-49785714D01*
X28754642Y-49880952D01*
X28802261Y-49928571D01*
X28897500Y-49976190D01*
X29278452Y-49976190D01*
X27802261Y-50452380D02*
X28278452Y-50452380D01*
X28278452Y-49452380D01*
X27278452Y-49976190D02*
X27278452Y-50452380D01*
X27611785Y-49452380D02*
X27278452Y-49976190D01*
X26945119Y-49452380D01*
X26707023Y-49452380D02*
X26087976Y-49452380D01*
X26421309Y-49833333D01*
X26278452Y-49833333D01*
X26183214Y-49880952D01*
X26135595Y-49928571D01*
X26087976Y-50023809D01*
X26087976Y-50261904D01*
X26135595Y-50357142D01*
X26183214Y-50404761D01*
X26278452Y-50452380D01*
X26564166Y-50452380D01*
X26659404Y-50404761D01*
X26707023Y-50357142D01*
X23665804Y-30139619D02*
X23618185Y-30092000D01*
X23522947Y-30044380D01*
X23284852Y-30044380D01*
X23189614Y-30092000D01*
X23141995Y-30139619D01*
X23094376Y-30234857D01*
X23094376Y-30330095D01*
X23141995Y-30472952D01*
X23713423Y-31044380D01*
X23094376Y-31044380D01*
X29183214Y-43902380D02*
X28516547Y-43902380D01*
X29183214Y-44902380D01*
X28516547Y-44902380D01*
X28135595Y-44902380D02*
X28135595Y-43902380D01*
X27897500Y-43902380D01*
X27754642Y-43950000D01*
X27659404Y-44045238D01*
X27611785Y-44140476D01*
X27564166Y-44330952D01*
X27564166Y-44473809D01*
X27611785Y-44664285D01*
X27659404Y-44759523D01*
X27754642Y-44854761D01*
X27897500Y-44902380D01*
X28135595Y-44902380D01*
X27135595Y-44902380D02*
X27135595Y-43902380D01*
X26087976Y-44902380D02*
X26421309Y-44426190D01*
X26659404Y-44902380D02*
X26659404Y-43902380D01*
X26278452Y-43902380D01*
X26183214Y-43950000D01*
X26135595Y-43997619D01*
X26087976Y-44092857D01*
X26087976Y-44235714D01*
X26135595Y-44330952D01*
X26183214Y-44378571D01*
X26278452Y-44426190D01*
X26659404Y-44426190D01*
X29516547Y-41152380D02*
X28849880Y-41152380D01*
X29516547Y-42152380D01*
X28849880Y-42152380D01*
X27897500Y-42057142D02*
X27945119Y-42104761D01*
X28087976Y-42152380D01*
X28183214Y-42152380D01*
X28326071Y-42104761D01*
X28421309Y-42009523D01*
X28468928Y-41914285D01*
X28516547Y-41723809D01*
X28516547Y-41580952D01*
X28468928Y-41390476D01*
X28421309Y-41295238D01*
X28326071Y-41200000D01*
X28183214Y-41152380D01*
X28087976Y-41152380D01*
X27945119Y-41200000D01*
X27897500Y-41247619D01*
X26992738Y-42152380D02*
X27468928Y-42152380D01*
X27468928Y-41152380D01*
X26659404Y-42152380D02*
X26659404Y-41152380D01*
X26087976Y-42152380D02*
X26516547Y-41580952D01*
X26087976Y-41152380D02*
X26659404Y-41723809D01*
X24030357Y-53202380D02*
X24601785Y-53202380D01*
X24316071Y-53202380D02*
X24316071Y-52202380D01*
X24411309Y-52345238D01*
X24506547Y-52440476D01*
X24601785Y-52488095D01*
X23411309Y-52202380D02*
X23316071Y-52202380D01*
X23220833Y-52250000D01*
X23173214Y-52297619D01*
X23125595Y-52392857D01*
X23077976Y-52583333D01*
X23077976Y-52821428D01*
X23125595Y-53011904D01*
X23173214Y-53107142D01*
X23220833Y-53154761D01*
X23316071Y-53202380D01*
X23411309Y-53202380D01*
X23506547Y-53154761D01*
X23554166Y-53107142D01*
X23601785Y-53011904D01*
X23649404Y-52821428D01*
X23649404Y-52583333D01*
X23601785Y-52392857D01*
X23554166Y-52297619D01*
X23506547Y-52250000D01*
X23411309Y-52202380D01*
X16464404Y-29128571D02*
X16131071Y-29128571D01*
X15988214Y-29652380D02*
X16464404Y-29652380D01*
X16464404Y-28652380D01*
X15988214Y-28652380D01*
X15559642Y-29652380D02*
X15559642Y-28652380D01*
X14988214Y-29652380D01*
X14988214Y-28652380D01*
X24040357Y-58752380D02*
X24611785Y-58752380D01*
X24326071Y-58752380D02*
X24326071Y-57752380D01*
X24421309Y-57895238D01*
X24516547Y-57990476D01*
X24611785Y-58038095D01*
X23659404Y-57847619D02*
X23611785Y-57800000D01*
X23516547Y-57752380D01*
X23278452Y-57752380D01*
X23183214Y-57800000D01*
X23135595Y-57847619D01*
X23087976Y-57942857D01*
X23087976Y-58038095D01*
X23135595Y-58180952D01*
X23707023Y-58752380D01*
X23087976Y-58752380D01*
X29468928Y-30052380D02*
X28802261Y-31052380D01*
X28802261Y-30052380D02*
X29468928Y-31052380D01*
X27849880Y-30957142D02*
X27897500Y-31004761D01*
X28040357Y-31052380D01*
X28135595Y-31052380D01*
X28278452Y-31004761D01*
X28373690Y-30909523D01*
X28421309Y-30814285D01*
X28468928Y-30623809D01*
X28468928Y-30480952D01*
X28421309Y-30290476D01*
X28373690Y-30195238D01*
X28278452Y-30100000D01*
X28135595Y-30052380D01*
X28040357Y-30052380D01*
X27897500Y-30100000D01*
X27849880Y-30147619D01*
X26945119Y-31052380D02*
X27421309Y-31052380D01*
X27421309Y-30052380D01*
X26707023Y-30052380D02*
X26040357Y-31052380D01*
X26040357Y-30052380D02*
X26707023Y-31052380D01*
X23475328Y-47080952D02*
X23570566Y-47033333D01*
X23618185Y-46985714D01*
X23665804Y-46890476D01*
X23665804Y-46842857D01*
X23618185Y-46747619D01*
X23570566Y-46700000D01*
X23475328Y-46652380D01*
X23284852Y-46652380D01*
X23189614Y-46700000D01*
X23141995Y-46747619D01*
X23094376Y-46842857D01*
X23094376Y-46890476D01*
X23141995Y-46985714D01*
X23189614Y-47033333D01*
X23284852Y-47080952D01*
X23475328Y-47080952D01*
X23570566Y-47128571D01*
X23618185Y-47176190D01*
X23665804Y-47271428D01*
X23665804Y-47461904D01*
X23618185Y-47557142D01*
X23570566Y-47604761D01*
X23475328Y-47652380D01*
X23284852Y-47652380D01*
X23189614Y-47604761D01*
X23141995Y-47557142D01*
X23094376Y-47461904D01*
X23094376Y-47271428D01*
X23141995Y-47176190D01*
X23189614Y-47128571D01*
X23284852Y-47080952D01*
X23198614Y-41152380D02*
X23389090Y-41152380D01*
X23484328Y-41200000D01*
X23531947Y-41247619D01*
X23627185Y-41390476D01*
X23674804Y-41580952D01*
X23674804Y-41961904D01*
X23627185Y-42057142D01*
X23579566Y-42104761D01*
X23484328Y-42152380D01*
X23293852Y-42152380D01*
X23198614Y-42104761D01*
X23150995Y-42057142D01*
X23103376Y-41961904D01*
X23103376Y-41723809D01*
X23150995Y-41628571D01*
X23198614Y-41580952D01*
X23293852Y-41533333D01*
X23484328Y-41533333D01*
X23579566Y-41580952D01*
X23627185Y-41628571D01*
X23674804Y-41723809D01*
X16464404Y-31928571D02*
X16131071Y-31928571D01*
X15988214Y-32452380D02*
X16464404Y-32452380D01*
X16464404Y-31452380D01*
X15988214Y-31452380D01*
X15607261Y-32404761D02*
X15464404Y-32452380D01*
X15226309Y-32452380D01*
X15131071Y-32404761D01*
X15083452Y-32357142D01*
X15035833Y-32261904D01*
X15035833Y-32166666D01*
X15083452Y-32071428D01*
X15131071Y-32023809D01*
X15226309Y-31976190D01*
X15416785Y-31928571D01*
X15512023Y-31880952D01*
X15559642Y-31833333D01*
X15607261Y-31738095D01*
X15607261Y-31642857D01*
X15559642Y-31547619D01*
X15512023Y-31500000D01*
X15416785Y-31452380D01*
X15178690Y-31452380D01*
X15035833Y-31500000D01*
D12*
X29392000Y-26859333D02*
X29425333Y-26826000D01*
X29492000Y-26726000D01*
X29525333Y-26659333D01*
X29558666Y-26559333D01*
X29592000Y-26392666D01*
X29592000Y-26259333D01*
X29558666Y-26092666D01*
X29525333Y-25992666D01*
X29492000Y-25926000D01*
X29425333Y-25826000D01*
X29392000Y-25792666D01*
X28925333Y-25892666D02*
X28925333Y-26392666D01*
X28958666Y-26492666D01*
X29025333Y-26559333D01*
X29125333Y-26592666D01*
X29192000Y-26592666D01*
X28592000Y-26592666D02*
X28592000Y-25892666D01*
X28325333Y-25892666D01*
X28258666Y-25926000D01*
X28225333Y-25959333D01*
X28192000Y-26026000D01*
X28192000Y-26126000D01*
X28225333Y-26192666D01*
X28258666Y-26226000D01*
X28325333Y-26259333D01*
X28592000Y-26259333D01*
X27958666Y-25892666D02*
X27525333Y-25892666D01*
X27758666Y-26159333D01*
X27658666Y-26159333D01*
X27592000Y-26192666D01*
X27558666Y-26226000D01*
X27525333Y-26292666D01*
X27525333Y-26459333D01*
X27558666Y-26526000D01*
X27592000Y-26559333D01*
X27658666Y-26592666D01*
X27858666Y-26592666D01*
X27925333Y-26559333D01*
X27958666Y-26526000D01*
X27292000Y-26859333D02*
X27258666Y-26826000D01*
X27192000Y-26726000D01*
X27158666Y-26659333D01*
X27125333Y-26559333D01*
X27092000Y-26392666D01*
X27092000Y-26259333D01*
X27125333Y-26092666D01*
X27158666Y-25992666D01*
X27192000Y-25926000D01*
X27258666Y-25826000D01*
X27292000Y-25792666D01*
D11*
%TO.C,J2*%
X46396333Y-66639380D02*
X46396333Y-67353666D01*
X46443952Y-67496523D01*
X46539190Y-67591761D01*
X46682047Y-67639380D01*
X46777285Y-67639380D01*
X45967761Y-66734619D02*
X45920142Y-66687000D01*
X45824904Y-66639380D01*
X45586809Y-66639380D01*
X45491571Y-66687000D01*
X45443952Y-66734619D01*
X45396333Y-66829857D01*
X45396333Y-66925095D01*
X45443952Y-67067952D01*
X46015380Y-67639380D01*
X45396333Y-67639380D01*
D13*
X44733000Y-7207000D02*
X47393000Y-7207000D01*
X44733000Y-63147000D02*
X47393000Y-63147000D01*
X47393000Y-63147000D02*
X47393000Y-7207000D01*
X47393000Y-65747000D02*
X47393000Y-64417000D01*
X46063000Y-65747000D02*
X47393000Y-65747000D01*
X44733000Y-63147000D02*
X44733000Y-7207000D01*
%TD*%
%LPC*%
D14*
%TO.C,H3*%
X20000000Y-10000000D03*
%TD*%
%TO.C,H4*%
X20000000Y-79000000D03*
%TD*%
D15*
%TO.C,J7*%
X20210331Y-68057893D03*
X20210331Y-20957893D03*
D16*
X21630331Y-27887893D03*
D17*
X21630331Y-30657893D03*
X21630331Y-33427893D03*
X21630331Y-36197893D03*
X21630331Y-38967893D03*
X21630331Y-41737893D03*
X21630331Y-44507893D03*
X21630331Y-47277893D03*
X21630331Y-50047893D03*
X21630331Y-52817893D03*
X21630331Y-55587893D03*
X21630331Y-58357893D03*
X21630331Y-61127893D03*
X18790331Y-29272893D03*
X18790331Y-32042893D03*
X18790331Y-34812893D03*
X18790331Y-37582893D03*
X18790331Y-40352893D03*
X18790331Y-43122893D03*
X18790331Y-45892893D03*
X18790331Y-48662893D03*
X18790331Y-51432893D03*
X18790331Y-54202893D03*
X18790331Y-56972893D03*
X18790331Y-59742893D03*
%TD*%
D18*
%TO.C,J2*%
X46063000Y-64417000D03*
D19*
X46063000Y-61877000D03*
X46063000Y-59337000D03*
X46063000Y-56797000D03*
X46063000Y-54257000D03*
X46063000Y-51717000D03*
X46063000Y-49177000D03*
X46063000Y-46637000D03*
X46063000Y-44097000D03*
X46063000Y-41557000D03*
X46063000Y-39017000D03*
X46063000Y-36477000D03*
X46063000Y-33937000D03*
X46063000Y-31397000D03*
X46063000Y-28857000D03*
X46063000Y-26317000D03*
X46063000Y-23777000D03*
X46063000Y-21237000D03*
X46063000Y-18697000D03*
X46063000Y-16157000D03*
X46063000Y-13617000D03*
X46063000Y-11077000D03*
X46063000Y-8537000D03*
%TD*%
M02*
