M48
; DRILL file {KiCad (6.0.11-0)} date Tuesday, 11 July 2023 at 05:46:03 pm
; FORMAT={-:-/ absolute / metric / decimal}
; #@! TF.CreationDate,2023-07-11T17:46:03+12:00
; #@! TF.GenerationSoftware,Kicad,Pcbnew,(6.0.11-0)
; #@! TF.FileFunction,MixedPlating,1,2
FMAT,2
METRIC
; #@! TA.AperFunction,Plated,PTH,ViaDrill
T1C0.300
; #@! TA.AperFunction,Plated,PTH,ViaDrill
T2C0.600
; #@! TA.AperFunction,Plated,PTH,ComponentDrill
T3C1.000
; #@! TA.AperFunction,Plated,PTH,ComponentDrill
T4C3.200
%
G90
G05
T1
X17.9Y-18.9
X17.9Y-34.8
X17.9Y-54.293
X17.9Y-70.093
X19.8Y-43.1
X19.8Y-45.9
X19.8Y-48.7
X19.8Y-51.4
X19.8Y-54.2
X19.8Y-57.0
X19.8Y-59.8
X19.85Y-40.375
X20.875Y-62.925
X22.9Y-62.1
X22.9Y-63.8
X24.0Y-33.5
X24.1Y-28.0
X26.85Y-49.05
X27.15Y-51.75
X27.35Y-24.2
X28.05Y-43.65
X28.1Y-28.4
X29.25Y-33.3
X29.25Y-36.25
X29.3Y-38.5
X29.4Y-62.1
X29.4Y-63.8
X30.1Y-45.7
X30.1Y-82.093
X30.2Y-54.7
X30.2Y-57.493
X30.2Y-59.8
X32.5Y-30.1
X32.7Y-53.9
X32.7Y-57.493
X32.7Y-59.8
X33.05Y-39.95
X33.05Y-41.6
X33.15Y-36.4
X33.15Y-38.5
X33.55Y-15.4
X33.75Y-17.85
X33.8Y-57.0
X34.2Y-51.75
X34.3Y-29.293
X34.3Y-37.6
X34.55Y-41.55
X34.6Y-36.35
X34.65Y-35.1
X34.7Y-45.75
X34.85Y-21.65
X35.05Y-19.15
X35.075Y-48.118
X35.2Y-31.893
X35.3Y-49.9
X35.5Y-62.1
X35.5Y-63.8
X35.6Y-71.8
X36.2Y-10.393
X36.8Y-51.675
X36.9Y-6.893
X37.0Y-15.193
X37.0Y-56.993
X37.05Y-33.65
X38.0Y-60.9
X38.1Y-26.15
X38.1Y-34.093
X38.1Y-36.05
X38.15Y-43.0
X38.2Y-6.893
X38.225Y-19.468
X38.25Y-21.368
X38.6Y-48.7
X38.6Y-59.593
X39.925Y-17.739
X40.1Y-51.8
X40.15Y-19.468
X40.15Y-21.343
X40.2Y-11.093
X40.2Y-15.518
X40.2Y-26.15
X40.2Y-34.093
X40.2Y-36.05
X40.2Y-42.993
X40.3Y-56.193
X40.3Y-58.093
X40.34Y-8.849
X40.8Y-82.093
X41.1Y-49.7
X41.3Y-51.8
X41.3Y-55.4
X41.3Y-59.6
X42.1Y-14.193
X42.1Y-19.093
X42.1Y-62.1
X42.1Y-63.8
X42.1Y-71.8
X42.125Y-21.368
X42.775Y-34.143
X42.775Y-36.093
X42.8Y-27.45
X42.8Y-43.0
X42.8Y-48.0
X42.8Y-59.6
X43.9Y-21.393
X44.3Y-34.093
X44.3Y-35.916
X44.35Y-48.65
X44.4Y-59.593
X44.45Y-19.093
X44.826Y-47.801
X45.1Y-6.893
X45.1Y-11.993
X45.523Y-58.285
X45.6Y-60.2
X47.0Y-9.293
X47.3Y-16.3
X47.3Y-40.95
X47.425Y-42.5
X47.5Y-31.293
X47.7Y-45.575
X47.9Y-32.593
X48.1Y-61.9
X48.45Y-14.15
X51.1Y-45.293
X51.2Y-71.8
X51.2Y-82.093
X51.375Y-19.893
X51.375Y-30.093
X51.375Y-40.293
X51.375Y-50.393
X51.4Y-12.25
X51.4Y-14.8
T2
X46.4Y-59.3
T3
X22.89Y-29.273
X22.89Y-32.043
X22.89Y-34.813
X22.89Y-37.583
X22.89Y-40.353
X22.89Y-43.123
X22.89Y-45.893
X22.89Y-48.663
X22.89Y-51.433
X22.89Y-54.203
X22.89Y-56.973
X22.89Y-59.743
X25.73Y-27.888
X25.73Y-30.658
X25.73Y-33.428
X25.73Y-36.198
X25.73Y-38.968
X25.73Y-41.738
X25.73Y-44.508
X25.73Y-47.278
X25.73Y-50.048
X25.73Y-52.818
X25.73Y-55.588
X25.73Y-58.358
X25.73Y-61.128
X50.163Y-8.537
X50.163Y-11.077
X50.163Y-13.617
X50.163Y-16.157
X50.163Y-18.697
X50.163Y-21.237
X50.163Y-23.777
X50.163Y-26.317
X50.163Y-28.857
X50.163Y-31.397
X50.163Y-33.937
X50.163Y-36.477
X50.163Y-39.017
X50.163Y-41.557
X50.163Y-44.097
X50.163Y-46.637
X50.163Y-49.177
X50.163Y-51.717
X50.163Y-54.257
X50.163Y-56.797
X50.163Y-59.337
X50.163Y-61.877
X50.163Y-64.417
T4
X24.1Y-9.993
X24.1Y-78.993
X24.31Y-20.958
X24.31Y-68.058
T0
M30
