%TF.GenerationSoftware,KiCad,Pcbnew,(6.0.11-0)*%
%TF.CreationDate,2023-07-12T13:16:53+12:00*%
%TF.ProjectId,controller-upper-cut,636f6e74-726f-46c6-9c65-722d75707065,3.2*%
%TF.SameCoordinates,PX206cc80PY68e7780*%
%TF.FileFunction,Paste,Top*%
%TF.FilePolarity,Positive*%
%FSLAX46Y46*%
G04 Gerber Fmt 4.6, Leading zero omitted, Abs format (unit mm)*
G04 Created by KiCad (PCBNEW (6.0.11-0)) date 2023-07-12 13:16:53*
%MOMM*%
%LPD*%
G01*
G04 APERTURE LIST*
G04 Aperture macros list*
%AMRoundRect*
0 Rectangle with rounded corners*
0 $1 Rounding radius*
0 $2 $3 $4 $5 $6 $7 $8 $9 X,Y pos of 4 corners*
0 Add a 4 corners polygon primitive as box body*
4,1,4,$2,$3,$4,$5,$6,$7,$8,$9,$2,$3,0*
0 Add four circle primitives for the rounded corners*
1,1,$1+$1,$2,$3*
1,1,$1+$1,$4,$5*
1,1,$1+$1,$6,$7*
1,1,$1+$1,$8,$9*
0 Add four rect primitives between the rounded corners*
20,1,$1+$1,$2,$3,$4,$5,0*
20,1,$1+$1,$4,$5,$6,$7,0*
20,1,$1+$1,$6,$7,$8,$9,0*
20,1,$1+$1,$8,$9,$2,$3,0*%
G04 Aperture macros list end*
%ADD10R,0.800000X0.500000*%
%ADD11R,0.800000X0.400000*%
%ADD12RoundRect,0.200000X-0.200000X-0.275000X0.200000X-0.275000X0.200000X0.275000X-0.200000X0.275000X0*%
%ADD13RoundRect,0.150000X-0.875000X-0.150000X0.875000X-0.150000X0.875000X0.150000X-0.875000X0.150000X0*%
%ADD14RoundRect,0.225000X0.250000X-0.225000X0.250000X0.225000X-0.250000X0.225000X-0.250000X-0.225000X0*%
%ADD15RoundRect,0.225000X-0.250000X0.225000X-0.250000X-0.225000X0.250000X-0.225000X0.250000X0.225000X0*%
%ADD16RoundRect,0.225000X-0.225000X-0.250000X0.225000X-0.250000X0.225000X0.250000X-0.225000X0.250000X0*%
%ADD17RoundRect,0.150000X0.725000X0.150000X-0.725000X0.150000X-0.725000X-0.150000X0.725000X-0.150000X0*%
%ADD18RoundRect,0.200000X-0.275000X0.200000X-0.275000X-0.200000X0.275000X-0.200000X0.275000X0.200000X0*%
G04 APERTURE END LIST*
D10*
%TO.C,RN2*%
X30000000Y-11889393D03*
D11*
X30000000Y-12689393D03*
X30000000Y-13489393D03*
D10*
X30000000Y-14289393D03*
X31800000Y-14289393D03*
D11*
X31800000Y-13489393D03*
X31800000Y-12689393D03*
D10*
X31800000Y-11889393D03*
%TD*%
D12*
%TO.C,R16*%
X41675000Y-52150000D03*
X43325000Y-52150000D03*
%TD*%
%TO.C,R15*%
X41675000Y-54650000D03*
X43325000Y-54650000D03*
%TD*%
%TO.C,R17*%
X41625000Y-49600000D03*
X43275000Y-49600000D03*
%TD*%
D13*
%TO.C,U3*%
X32300000Y-35135000D03*
X32300000Y-36405000D03*
X32300000Y-37675000D03*
X32300000Y-38945000D03*
X32300000Y-40215000D03*
X32300000Y-41485000D03*
X32300000Y-42755000D03*
X32300000Y-44025000D03*
X32300000Y-45295000D03*
X32300000Y-46565000D03*
X41600000Y-46565000D03*
X41600000Y-45295000D03*
X41600000Y-44025000D03*
X41600000Y-42755000D03*
X41600000Y-41485000D03*
X41600000Y-40215000D03*
X41600000Y-38945000D03*
X41600000Y-37675000D03*
X41600000Y-36405000D03*
X41600000Y-35135000D03*
%TD*%
D10*
%TO.C,RN1*%
X29700000Y-53833393D03*
D11*
X29700000Y-54633393D03*
X29700000Y-55433393D03*
D10*
X29700000Y-56233393D03*
X31500000Y-56233393D03*
D11*
X31500000Y-55433393D03*
X31500000Y-54633393D03*
D10*
X31500000Y-53833393D03*
%TD*%
D14*
%TO.C,C11*%
X43800000Y-35167893D03*
X43800000Y-33617893D03*
%TD*%
D12*
%TO.C,R14*%
X41675000Y-57200000D03*
X43325000Y-57200000D03*
%TD*%
D15*
%TO.C,C10*%
X32544000Y-17009393D03*
X32544000Y-18559393D03*
%TD*%
D12*
%TO.C,R22*%
X42025000Y-11550000D03*
X43675000Y-11550000D03*
%TD*%
D16*
%TO.C,C12*%
X41650000Y-17739393D03*
X43200000Y-17739393D03*
%TD*%
D17*
%TO.C,U5*%
X39654000Y-17739393D03*
X39654000Y-16469393D03*
X39654000Y-15199393D03*
X39654000Y-13929393D03*
X39654000Y-12659393D03*
X39654000Y-11389393D03*
X39654000Y-10119393D03*
X39654000Y-8849393D03*
X34504000Y-8849393D03*
X34504000Y-10119393D03*
X34504000Y-11389393D03*
X34504000Y-12659393D03*
X34504000Y-13929393D03*
X34504000Y-15199393D03*
X34504000Y-16469393D03*
X34504000Y-17739393D03*
%TD*%
D18*
%TO.C,R13*%
X39350000Y-61950000D03*
X39350000Y-63600000D03*
%TD*%
D17*
%TO.C,U4*%
X39654000Y-58466393D03*
X39654000Y-57196393D03*
X39654000Y-55926393D03*
X39654000Y-54656393D03*
X39654000Y-53386393D03*
X39654000Y-52116393D03*
X39654000Y-50846393D03*
X39654000Y-49576393D03*
X34504000Y-49576393D03*
X34504000Y-50846393D03*
X34504000Y-52116393D03*
X34504000Y-53386393D03*
X34504000Y-54656393D03*
X34504000Y-55926393D03*
X34504000Y-57196393D03*
X34504000Y-58466393D03*
%TD*%
D14*
%TO.C,C9*%
X32400000Y-49861006D03*
X32400000Y-48311006D03*
%TD*%
D13*
%TO.C,U2*%
X32553560Y-20445833D03*
X32553560Y-21715833D03*
X32553560Y-22985833D03*
X32553560Y-24255833D03*
X32553560Y-25525833D03*
X32553560Y-26795833D03*
X32553560Y-28065833D03*
X32553560Y-29335833D03*
X32553560Y-30605833D03*
X32553560Y-31875833D03*
X41853560Y-31875833D03*
X41853560Y-30605833D03*
X41853560Y-29335833D03*
X41853560Y-28065833D03*
X41853560Y-26795833D03*
X41853560Y-25525833D03*
X41853560Y-24255833D03*
X41853560Y-22985833D03*
X41853560Y-21715833D03*
X41853560Y-20445833D03*
%TD*%
M02*
