M48
; DRILL file {KiCad (6.0.11-0)} date Wednesday, 12 July 2023 at 01:17:00 pm
; FORMAT={-:-/ absolute / metric / decimal}
; #@! TF.CreationDate,2023-07-12T13:17:00+12:00
; #@! TF.GenerationSoftware,Kicad,Pcbnew,(6.0.11-0)
; #@! TF.FileFunction,MixedPlating,1,2
FMAT,2
METRIC
; #@! TA.AperFunction,Plated,PTH,ViaDrill
T1C0.300
; #@! TA.AperFunction,Plated,PTH,ViaDrill
T2C0.600
; #@! TA.AperFunction,Plated,PTH,ComponentDrill
T3C1.000
; #@! TA.AperFunction,Plated,PTH,ComponentDrill
T4C3.200
%
G90
G05
T1
X13.8Y-18.9
X13.8Y-36.1
X13.8Y-54.293
X13.8Y-70.093
X15.7Y-43.1
X15.7Y-45.9
X15.7Y-48.7
X15.7Y-51.4
X15.7Y-54.2
X15.7Y-57.0
X15.7Y-59.8
X15.75Y-40.375
X16.775Y-62.925
X18.8Y-62.1
X18.8Y-63.8
X19.9Y-33.5
X20.0Y-28.0
X22.75Y-49.05
X22.8Y-57.4
X23.05Y-51.75
X23.25Y-24.2
X23.95Y-43.65
X24.3Y-59.7
X24.5Y-54.0
X25.2Y-38.5
X25.3Y-62.1
X25.3Y-63.8
X25.4Y-36.4
X25.7Y-26.75
X25.7Y-32.7
X26.0Y-45.7
X26.0Y-82.093
X28.6Y-53.9
X28.6Y-57.2
X28.95Y-39.95
X29.3Y-18.1
X29.45Y-15.4
X29.573Y-38.359
X29.6Y-36.8
X29.7Y-57.0
X29.7Y-59.8
X29.9Y-30.3
X30.0Y-40.5
X30.1Y-51.75
X30.2Y-29.293
X30.2Y-37.6
X30.45Y-41.55
X30.5Y-36.35
X30.55Y-35.1
X30.6Y-45.75
X30.75Y-21.65
X30.95Y-19.15
X30.975Y-48.118
X31.1Y-31.893
X31.2Y-50.3
X31.4Y-62.1
X31.4Y-63.8
X31.5Y-71.8
X32.1Y-10.393
X32.3Y-15.75
X32.7Y-51.675
X32.8Y-6.893
X32.9Y-56.993
X32.95Y-33.65
X33.9Y-60.9
X34.0Y-26.15
X34.0Y-34.093
X34.0Y-36.05
X34.05Y-43.0
X34.1Y-6.893
X34.125Y-19.468
X34.15Y-21.368
X34.5Y-48.7
X34.5Y-59.593
X36.0Y-51.8
X36.05Y-19.468
X36.05Y-21.343
X36.1Y-11.093
X36.1Y-15.518
X36.1Y-26.15
X36.1Y-34.093
X36.1Y-36.05
X36.1Y-42.993
X36.15Y-17.25
X36.2Y-56.193
X36.2Y-58.093
X36.24Y-8.849
X36.7Y-82.093
X37.0Y-49.7
X37.2Y-51.8
X37.2Y-55.4
X37.2Y-59.6
X38.0Y-19.093
X38.0Y-62.1
X38.0Y-63.8
X38.0Y-71.8
X38.025Y-21.368
X38.1Y-14.25
X38.15Y-10.75
X38.675Y-34.143
X38.675Y-36.093
X38.7Y-27.45
X38.7Y-43.0
X38.7Y-48.0
X38.7Y-59.6
X39.8Y-21.393
X40.2Y-34.093
X40.2Y-35.916
X40.25Y-48.65
X40.3Y-59.593
X40.35Y-19.093
X40.726Y-47.801
X41.0Y-6.893
X41.15Y-13.0
X41.423Y-58.285
X41.5Y-60.2
X42.9Y-9.293
X43.2Y-16.3
X43.2Y-40.95
X43.325Y-42.5
X43.4Y-31.293
X43.6Y-45.575
X43.8Y-32.593
X44.0Y-61.9
X44.35Y-14.15
X47.0Y-45.293
X47.1Y-71.8
X47.1Y-82.093
X47.275Y-19.893
X47.275Y-30.093
X47.275Y-40.293
X47.275Y-50.393
X47.3Y-12.25
X47.3Y-14.8
T2
X42.3Y-59.3
T3
X18.79Y-29.273
X18.79Y-32.043
X18.79Y-34.813
X18.79Y-37.583
X18.79Y-40.353
X18.79Y-43.123
X18.79Y-45.893
X18.79Y-48.663
X18.79Y-51.433
X18.79Y-54.203
X18.79Y-56.973
X18.79Y-59.743
X21.63Y-27.888
X21.63Y-30.658
X21.63Y-33.428
X21.63Y-36.198
X21.63Y-38.968
X21.63Y-41.738
X21.63Y-44.508
X21.63Y-47.278
X21.63Y-50.048
X21.63Y-52.818
X21.63Y-55.588
X21.63Y-58.358
X21.63Y-61.128
X46.063Y-8.537
X46.063Y-11.077
X46.063Y-13.617
X46.063Y-16.157
X46.063Y-18.697
X46.063Y-21.237
X46.063Y-23.777
X46.063Y-26.317
X46.063Y-28.857
X46.063Y-31.397
X46.063Y-33.937
X46.063Y-36.477
X46.063Y-39.017
X46.063Y-41.557
X46.063Y-44.097
X46.063Y-46.637
X46.063Y-49.177
X46.063Y-51.717
X46.063Y-54.257
X46.063Y-56.797
X46.063Y-59.337
X46.063Y-61.877
X46.063Y-64.417
T4
X20.0Y-10.0
X20.0Y-79.0
X20.21Y-20.958
X20.21Y-68.058
T0
M30
