%TF.GenerationSoftware,KiCad,Pcbnew,(6.0.11-0)*%
%TF.CreationDate,2023-07-11T17:26:52+12:00*%
%TF.ProjectId,controller,636f6e74-726f-46c6-9c65-722e6b696361,3.2*%
%TF.SameCoordinates,PX1c9c380PY1312d00*%
%TF.FileFunction,Legend,Top*%
%TF.FilePolarity,Positive*%
%FSLAX46Y46*%
G04 Gerber Fmt 4.6, Leading zero omitted, Abs format (unit mm)*
G04 Created by KiCad (PCBNEW (6.0.11-0)) date 2023-07-11 17:26:52*
%MOMM*%
%LPD*%
G01*
G04 APERTURE LIST*
G04 Aperture macros list*
%AMRoundRect*
0 Rectangle with rounded corners*
0 $1 Rounding radius*
0 $2 $3 $4 $5 $6 $7 $8 $9 X,Y pos of 4 corners*
0 Add a 4 corners polygon primitive as box body*
4,1,4,$2,$3,$4,$5,$6,$7,$8,$9,$2,$3,0*
0 Add four circle primitives for the rounded corners*
1,1,$1+$1,$2,$3*
1,1,$1+$1,$4,$5*
1,1,$1+$1,$6,$7*
1,1,$1+$1,$8,$9*
0 Add four rect primitives between the rounded corners*
20,1,$1+$1,$2,$3,$4,$5,0*
20,1,$1+$1,$4,$5,$6,$7,0*
20,1,$1+$1,$6,$7,$8,$9,0*
20,1,$1+$1,$8,$9,$2,$3,0*%
G04 Aperture macros list end*
%ADD10C,0.100000*%
%ADD11C,0.150000*%
%ADD12C,0.080000*%
%ADD13C,0.200000*%
%ADD14C,0.125000*%
%ADD15C,0.250000*%
%ADD16C,0.180000*%
%ADD17C,0.120000*%
%ADD18C,0.127000*%
%ADD19R,1.600000X0.550000*%
%ADD20R,0.550000X1.600000*%
%ADD21R,2.900000X5.400000*%
%ADD22C,1.000000*%
%ADD23RoundRect,0.250001X0.499999X-0.499999X0.499999X0.499999X-0.499999X0.499999X-0.499999X-0.499999X0*%
%ADD24C,1.500000*%
%ADD25RoundRect,0.225000X0.250000X-0.225000X0.250000X0.225000X-0.250000X0.225000X-0.250000X-0.225000X0*%
%ADD26RoundRect,0.225000X-0.250000X0.225000X-0.250000X-0.225000X0.250000X-0.225000X0.250000X0.225000X0*%
%ADD27R,0.800000X0.500000*%
%ADD28R,0.800000X0.400000*%
%ADD29RoundRect,0.200000X-0.275000X0.200000X-0.275000X-0.200000X0.275000X-0.200000X0.275000X0.200000X0*%
%ADD30RoundRect,0.250000X-0.620000X-0.845000X0.620000X-0.845000X0.620000X0.845000X-0.620000X0.845000X0*%
%ADD31O,1.740000X2.190000*%
%ADD32RoundRect,0.200000X0.275000X-0.200000X0.275000X0.200000X-0.275000X0.200000X-0.275000X-0.200000X0*%
%ADD33R,2.600000X2.600000*%
%ADD34C,2.600000*%
%ADD35R,0.700000X0.600000*%
%ADD36RoundRect,0.250001X-0.499999X-0.499999X0.499999X-0.499999X0.499999X0.499999X-0.499999X0.499999X0*%
%ADD37C,5.500000*%
%ADD38R,1.700000X1.700000*%
%ADD39O,1.700000X1.700000*%
%ADD40R,2.200000X2.200000*%
%ADD41C,2.200000*%
%ADD42C,1.100000*%
%ADD43RoundRect,0.200000X-0.200000X-0.275000X0.200000X-0.275000X0.200000X0.275000X-0.200000X0.275000X0*%
%ADD44R,0.600000X0.700000*%
%ADD45RoundRect,0.150000X-0.150000X0.587500X-0.150000X-0.587500X0.150000X-0.587500X0.150000X0.587500X0*%
%ADD46R,1.200000X2.200000*%
%ADD47R,5.800000X6.400000*%
%ADD48RoundRect,0.250000X-1.950000X-1.000000X1.950000X-1.000000X1.950000X1.000000X-1.950000X1.000000X0*%
%ADD49C,2.300000*%
%ADD50R,2.300000X2.300000*%
%ADD51RoundRect,0.150000X-0.875000X-0.150000X0.875000X-0.150000X0.875000X0.150000X-0.875000X0.150000X0*%
%ADD52C,1.700000*%
%ADD53O,3.200000X1.600000*%
%ADD54O,1.750000X3.500000*%
%ADD55RoundRect,0.250000X-0.550000X1.500000X-0.550000X-1.500000X0.550000X-1.500000X0.550000X1.500000X0*%
%ADD56RoundRect,0.250000X-0.650000X0.325000X-0.650000X-0.325000X0.650000X-0.325000X0.650000X0.325000X0*%
%ADD57RoundRect,0.225000X-0.225000X-0.250000X0.225000X-0.250000X0.225000X0.250000X-0.225000X0.250000X0*%
%ADD58R,0.450000X0.600000*%
%ADD59RoundRect,0.150000X0.725000X0.150000X-0.725000X0.150000X-0.725000X-0.150000X0.725000X-0.150000X0*%
%ADD60RoundRect,0.200000X0.200000X0.275000X-0.200000X0.275000X-0.200000X-0.275000X0.200000X-0.275000X0*%
%ADD61C,4.000000*%
%ADD62R,1.600000X1.600000*%
%ADD63C,1.600000*%
%ADD64RoundRect,0.150000X0.150000X-0.825000X0.150000X0.825000X-0.150000X0.825000X-0.150000X-0.825000X0*%
%ADD65RoundRect,0.225000X0.225000X0.250000X-0.225000X0.250000X-0.225000X-0.250000X0.225000X-0.250000X0*%
%ADD66RoundRect,0.150000X-0.512500X-0.150000X0.512500X-0.150000X0.512500X0.150000X-0.512500X0.150000X0*%
%ADD67RoundRect,0.150000X-0.587500X-0.150000X0.587500X-0.150000X0.587500X0.150000X-0.587500X0.150000X0*%
%ADD68R,1.800000X2.500000*%
G04 APERTURE END LIST*
D10*
X63225000Y-19800000D02*
X63225000Y-21250000D01*
X42400000Y-34350000D02*
X43700000Y-34350000D01*
X43700000Y-34350000D02*
X43700000Y-31800000D01*
X43700000Y-31800000D02*
X42400000Y-31800000D01*
X42400000Y-31800000D02*
X42400000Y-34350000D01*
D11*
X76250000Y-50309231D02*
X75850000Y-50309231D01*
X67977228Y-39600000D02*
X68677228Y-39600000D01*
D10*
X71300000Y-64092893D02*
X71700000Y-64092893D01*
D11*
X68000000Y-27650000D02*
X68000000Y-24050000D01*
X76250000Y-47759231D02*
X75850000Y-47759231D01*
X68000000Y-50900000D02*
X68700000Y-50900000D01*
X76250000Y-16336711D02*
X75850000Y-16336711D01*
X67977228Y-39600000D02*
X67977228Y-36000000D01*
D10*
X42400000Y-39900000D02*
X43700000Y-39900000D01*
X43700000Y-39900000D02*
X43700000Y-37150000D01*
X43700000Y-37150000D02*
X42400000Y-37150000D01*
X42400000Y-37150000D02*
X42400000Y-39900000D01*
X43050000Y-31800000D02*
X43050000Y-30950000D01*
D11*
X76250000Y-45200000D02*
X75850000Y-45200000D01*
D10*
X43850000Y-52675000D02*
X43050000Y-52675000D01*
D11*
X76250000Y-29350091D02*
X75850000Y-29350091D01*
D10*
X74765000Y-54850000D02*
X74200000Y-54850000D01*
X71200000Y-55092893D02*
X71200000Y-54492893D01*
D11*
X67977228Y-34000000D02*
X67977228Y-30400000D01*
D10*
X43050000Y-52675000D02*
X43050000Y-51825000D01*
X63200000Y-34200000D02*
X62650000Y-34200000D01*
D11*
X68000000Y-22050000D02*
X68000000Y-18450000D01*
D10*
X43850000Y-30950000D02*
X43050000Y-30950000D01*
X66100000Y-64092893D02*
X66500000Y-64092893D01*
D11*
X76250000Y-36959150D02*
X75850000Y-36959150D01*
D10*
X42400000Y-51825000D02*
X43700000Y-51825000D01*
X43700000Y-51825000D02*
X43700000Y-48475000D01*
X43700000Y-48475000D02*
X42400000Y-48475000D01*
X42400000Y-48475000D02*
X42400000Y-51825000D01*
X63225000Y-57475000D02*
X62675000Y-57475000D01*
X16000000Y-34200001D02*
X16000000Y-34000000D01*
D11*
X76250000Y-21395770D02*
X75850000Y-21395770D01*
D10*
X63125000Y-51650000D02*
X63125000Y-53100000D01*
X70800000Y-54492893D02*
X71200000Y-54492893D01*
X63200000Y-70450000D02*
X63200000Y-71900000D01*
X63200000Y-71900000D02*
X62650000Y-71900000D01*
X14800000Y-34200000D02*
X16000000Y-34200001D01*
X42400000Y-30100000D02*
X43700000Y-30100000D01*
X43700000Y-30100000D02*
X43700000Y-24600000D01*
X43700000Y-24600000D02*
X42400000Y-24600000D01*
X42400000Y-24600000D02*
X42400000Y-30100000D01*
X14800000Y-30500001D02*
X16100000Y-30500000D01*
D11*
X68000000Y-45300000D02*
X68000000Y-41700000D01*
D10*
X42400000Y-56075000D02*
X43700000Y-56075000D01*
X43700000Y-56075000D02*
X43700000Y-53525000D01*
X43700000Y-53525000D02*
X42400000Y-53525000D01*
X42400000Y-53525000D02*
X42400000Y-56075000D01*
D11*
X76250000Y-18836539D02*
X75850000Y-18836539D01*
X68000000Y-41700000D02*
X68700000Y-41700000D01*
D10*
X66100000Y-64692893D02*
X66100000Y-64092893D01*
X74180000Y-65542893D02*
X74180000Y-68300000D01*
D11*
X68000000Y-18450000D02*
X68700000Y-18450000D01*
D10*
X63225000Y-57500000D02*
X63225000Y-58950000D01*
X66400000Y-55092893D02*
X66400000Y-54492893D01*
D11*
X76250000Y-31849919D02*
X75850000Y-31849919D01*
D10*
X42400000Y-44150000D02*
X43700000Y-44150000D01*
X43700000Y-44150000D02*
X43700000Y-41600000D01*
X43700000Y-41600000D02*
X42400000Y-41600000D01*
X42400000Y-41600000D02*
X42400000Y-44150000D01*
X63200000Y-32750000D02*
X63200000Y-34200000D01*
X74200000Y-54850000D02*
X74200000Y-57750000D01*
X66400000Y-54492893D02*
X66800000Y-54492893D01*
X63225000Y-19775000D02*
X62675000Y-19775000D01*
X71700000Y-64692893D02*
X71700000Y-64092893D01*
D11*
X68000000Y-27650000D02*
X68700000Y-27650000D01*
D10*
X63150000Y-38675000D02*
X62600000Y-38675000D01*
X43850000Y-40750000D02*
X43050000Y-40750000D01*
X16100000Y-30500000D02*
X16100000Y-30700000D01*
X63150000Y-38700000D02*
X63150000Y-40150000D01*
X43050000Y-30950000D02*
X43050000Y-30100000D01*
D11*
X67977228Y-30400000D02*
X68677228Y-30400000D01*
X76250000Y-23945770D02*
X75850000Y-23945770D01*
X68000000Y-50900000D02*
X68000000Y-47300000D01*
X76250000Y-34409150D02*
X75850000Y-34409150D01*
D10*
X43050000Y-53525000D02*
X43050000Y-52675000D01*
X43050000Y-40750000D02*
X43050000Y-39900000D01*
D11*
X76250000Y-42700172D02*
X75850000Y-42700172D01*
D10*
X43050000Y-41600000D02*
X43050000Y-40750000D01*
X74720000Y-68300000D02*
X74180000Y-68300000D01*
X63125000Y-53100000D02*
X62575000Y-53100000D01*
D12*
X75478571Y-32156769D02*
X75502380Y-32180578D01*
X75526190Y-32252007D01*
X75526190Y-32299626D01*
X75502380Y-32371054D01*
X75454761Y-32418673D01*
X75407142Y-32442483D01*
X75311904Y-32466292D01*
X75240476Y-32466292D01*
X75145238Y-32442483D01*
X75097619Y-32418673D01*
X75050000Y-32371054D01*
X75026190Y-32299626D01*
X75026190Y-32252007D01*
X75050000Y-32180578D01*
X75073809Y-32156769D01*
X75526190Y-31704388D02*
X75526190Y-31942483D01*
X75026190Y-31942483D01*
X75526190Y-31537721D02*
X75026190Y-31537721D01*
X75526190Y-31252007D02*
X75240476Y-31466292D01*
X75026190Y-31252007D02*
X75311904Y-31537721D01*
X75264285Y-37328197D02*
X75264285Y-37161530D01*
X75526190Y-37090102D02*
X75526190Y-37328197D01*
X75026190Y-37328197D01*
X75026190Y-37090102D01*
X75526190Y-36875816D02*
X75026190Y-36875816D01*
X75526190Y-36590102D01*
X75026190Y-36590102D01*
X14918666Y-25453166D02*
X14918666Y-24753166D01*
X15185333Y-24753166D01*
X15252000Y-24786500D01*
X15285333Y-24819833D01*
X15318666Y-24886500D01*
X15318666Y-24986500D01*
X15285333Y-25053166D01*
X15252000Y-25086500D01*
X15185333Y-25119833D01*
X14918666Y-25119833D01*
X15552000Y-24753166D02*
X15718666Y-25453166D01*
X15852000Y-24953166D01*
X15985333Y-25453166D01*
X16152000Y-24753166D01*
X16418666Y-25453166D02*
X16418666Y-24753166D01*
X16652000Y-25253166D01*
X16885333Y-24753166D01*
X16885333Y-25453166D01*
X15252000Y-25880166D02*
X14918666Y-25880166D01*
X14885333Y-26213500D01*
X14918666Y-26180166D01*
X14985333Y-26146833D01*
X15152000Y-26146833D01*
X15218666Y-26180166D01*
X15252000Y-26213500D01*
X15285333Y-26280166D01*
X15285333Y-26446833D01*
X15252000Y-26513500D01*
X15218666Y-26546833D01*
X15152000Y-26580166D01*
X14985333Y-26580166D01*
X14918666Y-26546833D01*
X14885333Y-26513500D01*
X15485333Y-25880166D02*
X15718666Y-26580166D01*
X15952000Y-25880166D01*
D13*
X74874523Y-63981702D02*
X74269761Y-64405035D01*
X74874523Y-64707416D02*
X73604523Y-64707416D01*
X73604523Y-64223607D01*
X73665000Y-64102654D01*
X73725476Y-64042178D01*
X73846428Y-63981702D01*
X74027857Y-63981702D01*
X74148809Y-64042178D01*
X74209285Y-64102654D01*
X74269761Y-64223607D01*
X74269761Y-64707416D01*
X74209285Y-63437416D02*
X74209285Y-63014083D01*
X74874523Y-62832654D02*
X74874523Y-63437416D01*
X73604523Y-63437416D01*
X73604523Y-62832654D01*
X74874523Y-61683607D02*
X74874523Y-62288369D01*
X73604523Y-62288369D01*
X74511666Y-61320750D02*
X74511666Y-60715988D01*
X74874523Y-61441702D02*
X73604523Y-61018369D01*
X74874523Y-60595035D01*
X74269761Y-59929797D02*
X74874523Y-59929797D01*
X73604523Y-60353131D02*
X74269761Y-59929797D01*
X73604523Y-59506464D01*
X74814047Y-59143607D02*
X74874523Y-58962178D01*
X74874523Y-58659797D01*
X74814047Y-58538845D01*
X74753571Y-58478369D01*
X74632619Y-58417893D01*
X74511666Y-58417893D01*
X74390714Y-58478369D01*
X74330238Y-58538845D01*
X74269761Y-58659797D01*
X74209285Y-58901702D01*
X74148809Y-59022654D01*
X74088333Y-59083131D01*
X73967380Y-59143607D01*
X73846428Y-59143607D01*
X73725476Y-59083131D01*
X73665000Y-59022654D01*
X73604523Y-58901702D01*
X73604523Y-58599321D01*
X73665000Y-58417893D01*
D11*
X22264166Y-20378607D02*
X22264166Y-21188131D01*
X22216547Y-21283369D01*
X22168928Y-21330988D01*
X22073690Y-21378607D01*
X21930833Y-21378607D01*
X21835595Y-21330988D01*
X22264166Y-20997654D02*
X22168928Y-21045273D01*
X21978452Y-21045273D01*
X21883214Y-20997654D01*
X21835595Y-20950035D01*
X21787976Y-20854797D01*
X21787976Y-20569083D01*
X21835595Y-20473845D01*
X21883214Y-20426226D01*
X21978452Y-20378607D01*
X22168928Y-20378607D01*
X22264166Y-20426226D01*
X22740357Y-21045273D02*
X22740357Y-20378607D01*
X22740357Y-20045273D02*
X22692738Y-20092893D01*
X22740357Y-20140512D01*
X22787976Y-20092893D01*
X22740357Y-20045273D01*
X22740357Y-20140512D01*
X23073690Y-20378607D02*
X23454642Y-20378607D01*
X23216547Y-20045273D02*
X23216547Y-20902416D01*
X23264166Y-20997654D01*
X23359404Y-21045273D01*
X23454642Y-21045273D01*
X23787976Y-21045273D02*
X23787976Y-20045273D01*
X24216547Y-21045273D02*
X24216547Y-20521464D01*
X24168928Y-20426226D01*
X24073690Y-20378607D01*
X23930833Y-20378607D01*
X23835595Y-20426226D01*
X23787976Y-20473845D01*
X25121309Y-20378607D02*
X25121309Y-21045273D01*
X24692738Y-20378607D02*
X24692738Y-20902416D01*
X24740357Y-20997654D01*
X24835595Y-21045273D01*
X24978452Y-21045273D01*
X25073690Y-20997654D01*
X25121309Y-20950035D01*
X25597500Y-21045273D02*
X25597500Y-20045273D01*
X25597500Y-20426226D02*
X25692738Y-20378607D01*
X25883214Y-20378607D01*
X25978452Y-20426226D01*
X26026071Y-20473845D01*
X26073690Y-20569083D01*
X26073690Y-20854797D01*
X26026071Y-20950035D01*
X25978452Y-20997654D01*
X25883214Y-21045273D01*
X25692738Y-21045273D01*
X25597500Y-20997654D01*
X26502261Y-20950035D02*
X26549880Y-20997654D01*
X26502261Y-21045273D01*
X26454642Y-20997654D01*
X26502261Y-20950035D01*
X26502261Y-21045273D01*
X27407023Y-20997654D02*
X27311785Y-21045273D01*
X27121309Y-21045273D01*
X27026071Y-20997654D01*
X26978452Y-20950035D01*
X26930833Y-20854797D01*
X26930833Y-20569083D01*
X26978452Y-20473845D01*
X27026071Y-20426226D01*
X27121309Y-20378607D01*
X27311785Y-20378607D01*
X27407023Y-20426226D01*
X27978452Y-21045273D02*
X27883214Y-20997654D01*
X27835595Y-20950035D01*
X27787976Y-20854797D01*
X27787976Y-20569083D01*
X27835595Y-20473845D01*
X27883214Y-20426226D01*
X27978452Y-20378607D01*
X28121309Y-20378607D01*
X28216547Y-20426226D01*
X28264166Y-20473845D01*
X28311785Y-20569083D01*
X28311785Y-20854797D01*
X28264166Y-20950035D01*
X28216547Y-20997654D01*
X28121309Y-21045273D01*
X27978452Y-21045273D01*
X28740357Y-21045273D02*
X28740357Y-20378607D01*
X28740357Y-20473845D02*
X28787976Y-20426226D01*
X28883214Y-20378607D01*
X29026071Y-20378607D01*
X29121309Y-20426226D01*
X29168928Y-20521464D01*
X29168928Y-21045273D01*
X29168928Y-20521464D02*
X29216547Y-20426226D01*
X29311785Y-20378607D01*
X29454642Y-20378607D01*
X29549880Y-20426226D01*
X29597500Y-20521464D01*
X29597500Y-21045273D01*
X30787976Y-19997654D02*
X29930833Y-21283369D01*
X31549880Y-20378607D02*
X31549880Y-21188131D01*
X31502261Y-21283369D01*
X31454642Y-21330988D01*
X31359404Y-21378607D01*
X31216547Y-21378607D01*
X31121309Y-21330988D01*
X31549880Y-20997654D02*
X31454642Y-21045273D01*
X31264166Y-21045273D01*
X31168928Y-20997654D01*
X31121309Y-20950035D01*
X31073690Y-20854797D01*
X31073690Y-20569083D01*
X31121309Y-20473845D01*
X31168928Y-20426226D01*
X31264166Y-20378607D01*
X31454642Y-20378607D01*
X31549880Y-20426226D01*
X32026071Y-21045273D02*
X32026071Y-20378607D01*
X32026071Y-20569083D02*
X32073690Y-20473845D01*
X32121309Y-20426226D01*
X32216547Y-20378607D01*
X32311785Y-20378607D01*
X33073690Y-20378607D02*
X33073690Y-21045273D01*
X32645119Y-20378607D02*
X32645119Y-20902416D01*
X32692738Y-20997654D01*
X32787976Y-21045273D01*
X32930833Y-21045273D01*
X33026071Y-20997654D01*
X33073690Y-20950035D01*
X33454642Y-20378607D02*
X33692738Y-21045273D01*
X33930833Y-20378607D01*
X34311785Y-21045273D02*
X34311785Y-20378607D01*
X34311785Y-20045273D02*
X34264166Y-20092893D01*
X34311785Y-20140512D01*
X34359404Y-20092893D01*
X34311785Y-20045273D01*
X34311785Y-20140512D01*
X34787976Y-20378607D02*
X34787976Y-21045273D01*
X34787976Y-20473845D02*
X34835595Y-20426226D01*
X34930833Y-20378607D01*
X35073690Y-20378607D01*
X35168928Y-20426226D01*
X35216547Y-20521464D01*
X35216547Y-21045273D01*
X36407023Y-19997654D02*
X35549880Y-21283369D01*
X36692738Y-20997654D02*
X36787976Y-21045273D01*
X36978452Y-21045273D01*
X37073690Y-20997654D01*
X37121309Y-20902416D01*
X37121309Y-20854797D01*
X37073690Y-20759559D01*
X36978452Y-20711940D01*
X36835595Y-20711940D01*
X36740357Y-20664321D01*
X36692738Y-20569083D01*
X36692738Y-20521464D01*
X36740357Y-20426226D01*
X36835595Y-20378607D01*
X36978452Y-20378607D01*
X37073690Y-20426226D01*
X37549880Y-21045273D02*
X37549880Y-20045273D01*
X37978452Y-21045273D02*
X37978452Y-20521464D01*
X37930833Y-20426226D01*
X37835595Y-20378607D01*
X37692738Y-20378607D01*
X37597500Y-20426226D01*
X37549880Y-20473845D01*
X38883214Y-21045273D02*
X38883214Y-20521464D01*
X38835595Y-20426226D01*
X38740357Y-20378607D01*
X38549880Y-20378607D01*
X38454642Y-20426226D01*
X38883214Y-20997654D02*
X38787976Y-21045273D01*
X38549880Y-21045273D01*
X38454642Y-20997654D01*
X38407023Y-20902416D01*
X38407023Y-20807178D01*
X38454642Y-20711940D01*
X38549880Y-20664321D01*
X38787976Y-20664321D01*
X38883214Y-20616702D01*
X39359404Y-20378607D02*
X39359404Y-21378607D01*
X39359404Y-20426226D02*
X39454642Y-20378607D01*
X39645119Y-20378607D01*
X39740357Y-20426226D01*
X39787976Y-20473845D01*
X39835595Y-20569083D01*
X39835595Y-20854797D01*
X39787976Y-20950035D01*
X39740357Y-20997654D01*
X39645119Y-21045273D01*
X39454642Y-21045273D01*
X39359404Y-20997654D01*
X40645119Y-20997654D02*
X40549880Y-21045273D01*
X40359404Y-21045273D01*
X40264166Y-20997654D01*
X40216547Y-20902416D01*
X40216547Y-20521464D01*
X40264166Y-20426226D01*
X40359404Y-20378607D01*
X40549880Y-20378607D01*
X40645119Y-20426226D01*
X40692738Y-20521464D01*
X40692738Y-20616702D01*
X40216547Y-20711940D01*
X41264166Y-21045273D02*
X41168928Y-20997654D01*
X41121309Y-20950035D01*
X41073690Y-20854797D01*
X41073690Y-20569083D01*
X41121309Y-20473845D01*
X41168928Y-20426226D01*
X41264166Y-20378607D01*
X41407023Y-20378607D01*
X41502261Y-20426226D01*
X41549880Y-20473845D01*
X41597500Y-20569083D01*
X41597500Y-20854797D01*
X41549880Y-20950035D01*
X41502261Y-20997654D01*
X41407023Y-21045273D01*
X41264166Y-21045273D01*
X42026071Y-21045273D02*
X42026071Y-20045273D01*
X42121309Y-20664321D02*
X42407023Y-21045273D01*
X42407023Y-20378607D02*
X42026071Y-20759559D01*
X42978452Y-21045273D02*
X42883214Y-20997654D01*
X42835595Y-20950035D01*
X42787976Y-20854797D01*
X42787976Y-20569083D01*
X42835595Y-20473845D01*
X42883214Y-20426226D01*
X42978452Y-20378607D01*
X43121309Y-20378607D01*
X43216547Y-20426226D01*
X43264166Y-20473845D01*
X43311785Y-20569083D01*
X43311785Y-20854797D01*
X43264166Y-20950035D01*
X43216547Y-20997654D01*
X43121309Y-21045273D01*
X42978452Y-21045273D01*
X43740357Y-20664321D02*
X44502261Y-20664321D01*
X45121309Y-21045273D02*
X45026071Y-20997654D01*
X44978452Y-20902416D01*
X44978452Y-20045273D01*
X45502261Y-20378607D02*
X45502261Y-21378607D01*
X45502261Y-20426226D02*
X45597499Y-20378607D01*
X45787976Y-20378607D01*
X45883214Y-20426226D01*
X45930833Y-20473845D01*
X45978452Y-20569083D01*
X45978452Y-20854797D01*
X45930833Y-20950035D01*
X45883214Y-20997654D01*
X45787976Y-21045273D01*
X45597499Y-21045273D01*
X45502261Y-20997654D01*
X46264166Y-20378607D02*
X46645119Y-20378607D01*
X46407023Y-20045273D02*
X46407023Y-20902416D01*
X46454642Y-20997654D01*
X46549880Y-21045273D01*
X46645119Y-21045273D01*
X46538095Y-97540512D02*
X46585714Y-97492893D01*
X46680952Y-97445273D01*
X46919047Y-97445273D01*
X47014285Y-97492893D01*
X47061904Y-97540512D01*
X47109523Y-97635750D01*
X47109523Y-97730988D01*
X47061904Y-97873845D01*
X46490476Y-98445273D01*
X47109523Y-98445273D01*
X47490476Y-97540512D02*
X47538095Y-97492893D01*
X47633333Y-97445273D01*
X47871428Y-97445273D01*
X47966666Y-97492893D01*
X48014285Y-97540512D01*
X48061904Y-97635750D01*
X48061904Y-97730988D01*
X48014285Y-97873845D01*
X47442857Y-98445273D01*
X48061904Y-98445273D01*
D10*
X43350000Y-55287666D02*
X43383333Y-55321000D01*
X43416666Y-55421000D01*
X43416666Y-55487666D01*
X43383333Y-55587666D01*
X43316666Y-55654333D01*
X43250000Y-55687666D01*
X43116666Y-55721000D01*
X43016666Y-55721000D01*
X42883333Y-55687666D01*
X42816666Y-55654333D01*
X42750000Y-55587666D01*
X42716666Y-55487666D01*
X42716666Y-55421000D01*
X42750000Y-55321000D01*
X42783333Y-55287666D01*
X43350000Y-54987666D02*
X43383333Y-54954333D01*
X43416666Y-54987666D01*
X43383333Y-55021000D01*
X43350000Y-54987666D01*
X43416666Y-54987666D01*
X43416666Y-54654333D02*
X42716666Y-54654333D01*
X42716666Y-54387666D01*
X42750000Y-54321000D01*
X42783333Y-54287666D01*
X42850000Y-54254333D01*
X42950000Y-54254333D01*
X43016666Y-54287666D01*
X43050000Y-54321000D01*
X43083333Y-54387666D01*
X43083333Y-54654333D01*
X43350000Y-53954333D02*
X43383333Y-53921000D01*
X43416666Y-53954333D01*
X43383333Y-53987666D01*
X43350000Y-53954333D01*
X43416666Y-53954333D01*
D11*
X70223809Y-27302380D02*
X70319047Y-27302380D01*
X70414285Y-27350000D01*
X70461904Y-27397619D01*
X70509523Y-27492857D01*
X70557142Y-27683333D01*
X70557142Y-27921428D01*
X70509523Y-28111904D01*
X70461904Y-28207142D01*
X70414285Y-28254761D01*
X70319047Y-28302380D01*
X70223809Y-28302380D01*
X70128571Y-28254761D01*
X70080952Y-28207142D01*
X70033333Y-28111904D01*
X69985714Y-27921428D01*
X69985714Y-27683333D01*
X70033333Y-27492857D01*
X70080952Y-27397619D01*
X70128571Y-27350000D01*
X70223809Y-27302380D01*
X70842857Y-27302380D02*
X71176190Y-28302380D01*
X71509523Y-27302380D01*
X70223809Y-50552380D02*
X70319047Y-50552380D01*
X70414285Y-50600000D01*
X70461904Y-50647619D01*
X70509523Y-50742857D01*
X70557142Y-50933333D01*
X70557142Y-51171428D01*
X70509523Y-51361904D01*
X70461904Y-51457142D01*
X70414285Y-51504761D01*
X70319047Y-51552380D01*
X70223809Y-51552380D01*
X70128571Y-51504761D01*
X70080952Y-51457142D01*
X70033333Y-51361904D01*
X69985714Y-51171428D01*
X69985714Y-50933333D01*
X70033333Y-50742857D01*
X70080952Y-50647619D01*
X70128571Y-50600000D01*
X70223809Y-50552380D01*
X70842857Y-50552380D02*
X71176190Y-51552380D01*
X71509523Y-50552380D01*
D12*
X15166666Y-27950000D02*
X15100000Y-27916666D01*
X15000000Y-27916666D01*
X14900000Y-27950000D01*
X14833333Y-28016666D01*
X14800000Y-28083333D01*
X14766666Y-28216666D01*
X14766666Y-28316666D01*
X14800000Y-28450000D01*
X14833333Y-28516666D01*
X14900000Y-28583333D01*
X15000000Y-28616666D01*
X15066666Y-28616666D01*
X15166666Y-28583333D01*
X15200000Y-28550000D01*
X15200000Y-28316666D01*
X15066666Y-28316666D01*
X15500000Y-28616666D02*
X15500000Y-27916666D01*
X15900000Y-28616666D01*
X15900000Y-27916666D01*
X16233333Y-28616666D02*
X16233333Y-27916666D01*
X16400000Y-27916666D01*
X16500000Y-27950000D01*
X16566666Y-28016666D01*
X16600000Y-28083333D01*
X16633333Y-28216666D01*
X16633333Y-28316666D01*
X16600000Y-28450000D01*
X16566666Y-28516666D01*
X16500000Y-28583333D01*
X16400000Y-28616666D01*
X16233333Y-28616666D01*
X75478571Y-45506850D02*
X75502380Y-45530659D01*
X75526190Y-45602088D01*
X75526190Y-45649707D01*
X75502380Y-45721135D01*
X75454761Y-45768754D01*
X75407142Y-45792564D01*
X75311904Y-45816373D01*
X75240476Y-45816373D01*
X75145238Y-45792564D01*
X75097619Y-45768754D01*
X75050000Y-45721135D01*
X75026190Y-45649707D01*
X75026190Y-45602088D01*
X75050000Y-45530659D01*
X75073809Y-45506850D01*
X75526190Y-45054469D02*
X75526190Y-45292564D01*
X75026190Y-45292564D01*
X75526190Y-44887802D02*
X75026190Y-44887802D01*
X75526190Y-44602088D02*
X75240476Y-44816373D01*
X75026190Y-44602088D02*
X75311904Y-44887802D01*
D10*
X43416666Y-50833333D02*
X43083333Y-51066666D01*
X43416666Y-51233333D02*
X42716666Y-51233333D01*
X42716666Y-50966666D01*
X42750000Y-50900000D01*
X42783333Y-50866666D01*
X42850000Y-50833333D01*
X42950000Y-50833333D01*
X43016666Y-50866666D01*
X43050000Y-50900000D01*
X43083333Y-50966666D01*
X43083333Y-51233333D01*
X43416666Y-50200000D02*
X43416666Y-50533333D01*
X42716666Y-50533333D01*
X43083333Y-49833333D02*
X43416666Y-49833333D01*
X42716666Y-50066666D02*
X43083333Y-49833333D01*
X42716666Y-49600000D01*
X42950000Y-49066666D02*
X43416666Y-49066666D01*
X42683333Y-49233333D02*
X43183333Y-49400000D01*
X43183333Y-48966666D01*
X42716666Y-48066666D02*
X42883333Y-48066666D01*
X42816666Y-48233333D02*
X42883333Y-48066666D01*
X42816666Y-47900000D01*
X43016666Y-48166666D02*
X42883333Y-48066666D01*
X43016666Y-47966666D01*
D11*
X41285714Y-152545273D02*
X40714285Y-152545273D01*
X41000000Y-152545273D02*
X41000000Y-151545273D01*
X40904761Y-151688131D01*
X40809523Y-151783369D01*
X40714285Y-151830988D01*
D12*
X75478571Y-16738627D02*
X75502380Y-16762436D01*
X75526190Y-16833865D01*
X75526190Y-16881484D01*
X75502380Y-16952912D01*
X75454761Y-17000531D01*
X75407142Y-17024341D01*
X75311904Y-17048150D01*
X75240476Y-17048150D01*
X75145238Y-17024341D01*
X75097619Y-17000531D01*
X75050000Y-16952912D01*
X75026190Y-16881484D01*
X75026190Y-16833865D01*
X75050000Y-16762436D01*
X75073809Y-16738627D01*
X75026190Y-16429103D02*
X75026190Y-16333865D01*
X75050000Y-16286246D01*
X75097619Y-16238627D01*
X75192857Y-16214817D01*
X75359523Y-16214817D01*
X75454761Y-16238627D01*
X75502380Y-16286246D01*
X75526190Y-16333865D01*
X75526190Y-16429103D01*
X75502380Y-16476722D01*
X75454761Y-16524341D01*
X75359523Y-16548150D01*
X75192857Y-16548150D01*
X75097619Y-16524341D01*
X75050000Y-16476722D01*
X75026190Y-16429103D01*
X75526190Y-16000531D02*
X75026190Y-16000531D01*
X75383333Y-15833865D01*
X75026190Y-15667198D01*
X75526190Y-15667198D01*
D11*
X76202380Y-57514285D02*
X76202380Y-58085714D01*
X76202380Y-57800000D02*
X75202380Y-57800000D01*
X75345238Y-57895238D01*
X75440476Y-57990476D01*
X75488095Y-58085714D01*
D14*
X67033333Y-64035750D02*
X67133333Y-64073845D01*
X67166666Y-64111940D01*
X67200000Y-64188131D01*
X67200000Y-64302416D01*
X67166666Y-64378607D01*
X67133333Y-64416702D01*
X67066666Y-64454797D01*
X66800000Y-64454797D01*
X66800000Y-63654797D01*
X67033333Y-63654797D01*
X67100000Y-63692893D01*
X67133333Y-63730988D01*
X67166666Y-63807178D01*
X67166666Y-63883369D01*
X67133333Y-63959559D01*
X67100000Y-63997654D01*
X67033333Y-64035750D01*
X66800000Y-64035750D01*
X67500000Y-64454797D02*
X67500000Y-63921464D01*
X67500000Y-63654797D02*
X67466666Y-63692893D01*
X67500000Y-63730988D01*
X67533333Y-63692893D01*
X67500000Y-63654797D01*
X67500000Y-63730988D01*
X67733333Y-63921464D02*
X68000000Y-63921464D01*
X67833333Y-63654797D02*
X67833333Y-64340512D01*
X67866666Y-64416702D01*
X67933333Y-64454797D01*
X68000000Y-64454797D01*
X68200000Y-64416702D02*
X68300000Y-64454797D01*
X68466666Y-64454797D01*
X68533333Y-64416702D01*
X68566666Y-64378607D01*
X68600000Y-64302416D01*
X68600000Y-64226226D01*
X68566666Y-64150035D01*
X68533333Y-64111940D01*
X68466666Y-64073845D01*
X68333333Y-64035750D01*
X68266666Y-63997654D01*
X68233333Y-63959559D01*
X68200000Y-63883369D01*
X68200000Y-63807178D01*
X68233333Y-63730988D01*
X68266666Y-63692893D01*
X68333333Y-63654797D01*
X68500000Y-63654797D01*
X68600000Y-63692893D01*
X69166666Y-64416702D02*
X69100000Y-64454797D01*
X68966666Y-64454797D01*
X68900000Y-64416702D01*
X68866666Y-64340512D01*
X68866666Y-64035750D01*
X68900000Y-63959559D01*
X68966666Y-63921464D01*
X69100000Y-63921464D01*
X69166666Y-63959559D01*
X69200000Y-64035750D01*
X69200000Y-64111940D01*
X68866666Y-64188131D01*
X69400000Y-63921464D02*
X69666666Y-63921464D01*
X69500000Y-63654797D02*
X69500000Y-64340512D01*
X69533333Y-64416702D01*
X69600000Y-64454797D01*
X69666666Y-64454797D01*
X69800000Y-63921464D02*
X70066666Y-63921464D01*
X69900000Y-63654797D02*
X69900000Y-64340512D01*
X69933333Y-64416702D01*
X70000000Y-64454797D01*
X70066666Y-64454797D01*
X70566666Y-64416702D02*
X70500000Y-64454797D01*
X70366666Y-64454797D01*
X70300000Y-64416702D01*
X70266666Y-64340512D01*
X70266666Y-64035750D01*
X70300000Y-63959559D01*
X70366666Y-63921464D01*
X70500000Y-63921464D01*
X70566666Y-63959559D01*
X70600000Y-64035750D01*
X70600000Y-64111940D01*
X70266666Y-64188131D01*
X70900000Y-64454797D02*
X70900000Y-63921464D01*
X70900000Y-64073845D02*
X70933333Y-63997654D01*
X70966666Y-63959559D01*
X71033333Y-63921464D01*
X71100000Y-63921464D01*
D11*
X70486751Y-29752380D02*
X70010561Y-29752380D01*
X69962942Y-30228571D01*
X70010561Y-30180952D01*
X70105799Y-30133333D01*
X70343894Y-30133333D01*
X70439132Y-30180952D01*
X70486751Y-30228571D01*
X70534370Y-30323809D01*
X70534370Y-30561904D01*
X70486751Y-30657142D01*
X70439132Y-30704761D01*
X70343894Y-30752380D01*
X70105799Y-30752380D01*
X70010561Y-30704761D01*
X69962942Y-30657142D01*
X70820085Y-29752380D02*
X71153418Y-30752380D01*
X71486751Y-29752380D01*
D12*
X15783333Y-31316666D02*
X16116666Y-31083333D01*
X15783333Y-30916666D02*
X16483333Y-30916666D01*
X16483333Y-31183333D01*
X16450000Y-31250000D01*
X16416666Y-31283333D01*
X16350000Y-31316666D01*
X16250000Y-31316666D01*
X16183333Y-31283333D01*
X16150000Y-31250000D01*
X16116666Y-31183333D01*
X16116666Y-30916666D01*
X16150000Y-31616666D02*
X16150000Y-31850000D01*
X15783333Y-31950000D02*
X15783333Y-31616666D01*
X16483333Y-31616666D01*
X16483333Y-31950000D01*
X15783333Y-32583333D02*
X15783333Y-32250000D01*
X16483333Y-32250000D01*
X15983333Y-32783333D02*
X15983333Y-33116666D01*
X15783333Y-32716666D02*
X16483333Y-32950000D01*
X15783333Y-33183333D01*
X16116666Y-33550000D02*
X15783333Y-33550000D01*
X16483333Y-33316666D02*
X16116666Y-33550000D01*
X16483333Y-33783333D01*
X75526190Y-48259231D02*
X75026190Y-48259231D01*
X75026190Y-48140183D01*
X75050000Y-48068754D01*
X75097619Y-48021135D01*
X75145238Y-47997326D01*
X75240476Y-47973516D01*
X75311904Y-47973516D01*
X75407142Y-47997326D01*
X75454761Y-48021135D01*
X75502380Y-48068754D01*
X75526190Y-48140183D01*
X75526190Y-48259231D01*
X75526190Y-47759231D02*
X75026190Y-47759231D01*
X75526190Y-47235421D02*
X75288095Y-47402088D01*
X75526190Y-47521135D02*
X75026190Y-47521135D01*
X75026190Y-47330659D01*
X75050000Y-47283040D01*
X75073809Y-47259231D01*
X75121428Y-47235421D01*
X75192857Y-47235421D01*
X75240476Y-47259231D01*
X75264285Y-47283040D01*
X75288095Y-47330659D01*
X75288095Y-47521135D01*
D11*
X77907261Y-84645273D02*
X77431071Y-84645273D01*
X77383452Y-85121464D01*
X77431071Y-85073845D01*
X77526309Y-85026226D01*
X77764404Y-85026226D01*
X77859642Y-85073845D01*
X77907261Y-85121464D01*
X77954880Y-85216702D01*
X77954880Y-85454797D01*
X77907261Y-85550035D01*
X77859642Y-85597654D01*
X77764404Y-85645273D01*
X77526309Y-85645273D01*
X77431071Y-85597654D01*
X77383452Y-85550035D01*
X78335833Y-85359559D02*
X78812023Y-85359559D01*
X78240595Y-85645273D02*
X78573928Y-84645273D01*
X78907261Y-85645273D01*
D12*
X75478571Y-29752007D02*
X75502380Y-29775816D01*
X75526190Y-29847245D01*
X75526190Y-29894864D01*
X75502380Y-29966292D01*
X75454761Y-30013911D01*
X75407142Y-30037721D01*
X75311904Y-30061530D01*
X75240476Y-30061530D01*
X75145238Y-30037721D01*
X75097619Y-30013911D01*
X75050000Y-29966292D01*
X75026190Y-29894864D01*
X75026190Y-29847245D01*
X75050000Y-29775816D01*
X75073809Y-29752007D01*
X75026190Y-29442483D02*
X75026190Y-29347245D01*
X75050000Y-29299626D01*
X75097619Y-29252007D01*
X75192857Y-29228197D01*
X75359523Y-29228197D01*
X75454761Y-29252007D01*
X75502380Y-29299626D01*
X75526190Y-29347245D01*
X75526190Y-29442483D01*
X75502380Y-29490102D01*
X75454761Y-29537721D01*
X75359523Y-29561530D01*
X75192857Y-29561530D01*
X75097619Y-29537721D01*
X75050000Y-29490102D01*
X75026190Y-29442483D01*
X75526190Y-29013911D02*
X75026190Y-29013911D01*
X75383333Y-28847245D01*
X75026190Y-28680578D01*
X75526190Y-28680578D01*
D11*
X52038095Y-11990512D02*
X52085714Y-11942893D01*
X52180952Y-11895273D01*
X52419047Y-11895273D01*
X52514285Y-11942893D01*
X52561904Y-11990512D01*
X52609523Y-12085750D01*
X52609523Y-12180988D01*
X52561904Y-12323845D01*
X51990476Y-12895273D01*
X52609523Y-12895273D01*
X52942857Y-11895273D02*
X53561904Y-11895273D01*
X53228571Y-12276226D01*
X53371428Y-12276226D01*
X53466666Y-12323845D01*
X53514285Y-12371464D01*
X53561904Y-12466702D01*
X53561904Y-12704797D01*
X53514285Y-12800035D01*
X53466666Y-12847654D01*
X53371428Y-12895273D01*
X53085714Y-12895273D01*
X52990476Y-12847654D01*
X52942857Y-12800035D01*
D12*
X75526190Y-34909150D02*
X75026190Y-34909150D01*
X75026190Y-34790102D01*
X75050000Y-34718673D01*
X75097619Y-34671054D01*
X75145238Y-34647245D01*
X75240476Y-34623435D01*
X75311904Y-34623435D01*
X75407142Y-34647245D01*
X75454761Y-34671054D01*
X75502380Y-34718673D01*
X75526190Y-34790102D01*
X75526190Y-34909150D01*
X75526190Y-34409150D02*
X75026190Y-34409150D01*
X75526190Y-33885340D02*
X75288095Y-34052007D01*
X75526190Y-34171054D02*
X75026190Y-34171054D01*
X75026190Y-33980578D01*
X75050000Y-33932959D01*
X75073809Y-33909150D01*
X75121428Y-33885340D01*
X75192857Y-33885340D01*
X75240476Y-33909150D01*
X75264285Y-33932959D01*
X75288095Y-33980578D01*
X75288095Y-34171054D01*
D11*
X56288095Y-83545273D02*
X56288095Y-82545273D01*
X56669047Y-82545273D01*
X56764285Y-82592893D01*
X56811904Y-82640512D01*
X56859523Y-82735750D01*
X56859523Y-82878607D01*
X56811904Y-82973845D01*
X56764285Y-83021464D01*
X56669047Y-83069083D01*
X56288095Y-83069083D01*
X57192857Y-82545273D02*
X57430952Y-83545273D01*
X57621428Y-82830988D01*
X57811904Y-83545273D01*
X58050000Y-82545273D01*
X59002380Y-83545273D02*
X58669047Y-83069083D01*
X58430952Y-83545273D02*
X58430952Y-82545273D01*
X58811904Y-82545273D01*
X58907142Y-82592893D01*
X58954761Y-82640512D01*
X59002380Y-82735750D01*
X59002380Y-82878607D01*
X58954761Y-82973845D01*
X58907142Y-83021464D01*
X58811904Y-83069083D01*
X58430952Y-83069083D01*
X60145238Y-83497654D02*
X60288095Y-83545273D01*
X60526190Y-83545273D01*
X60621428Y-83497654D01*
X60669047Y-83450035D01*
X60716666Y-83354797D01*
X60716666Y-83259559D01*
X60669047Y-83164321D01*
X60621428Y-83116702D01*
X60526190Y-83069083D01*
X60335714Y-83021464D01*
X60240476Y-82973845D01*
X60192857Y-82926226D01*
X60145238Y-82830988D01*
X60145238Y-82735750D01*
X60192857Y-82640512D01*
X60240476Y-82592893D01*
X60335714Y-82545273D01*
X60573809Y-82545273D01*
X60716666Y-82592893D01*
X61050000Y-82545273D02*
X61288095Y-83545273D01*
X61478571Y-82830988D01*
X61669047Y-83545273D01*
X61907142Y-82545273D01*
D15*
X73004523Y-49670055D02*
X73004523Y-48670055D01*
X74274523Y-49670055D01*
X74274523Y-48670055D01*
X74274523Y-46955770D02*
X73004523Y-46955770D01*
X73004523Y-46598627D01*
X73065000Y-46384341D01*
X73185952Y-46241484D01*
X73306904Y-46170055D01*
X73548809Y-46098627D01*
X73730238Y-46098627D01*
X73972142Y-46170055D01*
X74093095Y-46241484D01*
X74214047Y-46384341D01*
X74274523Y-46598627D01*
X74274523Y-46955770D01*
X74274523Y-44598627D02*
X73669761Y-45098627D01*
X74274523Y-45455770D02*
X73004523Y-45455770D01*
X73004523Y-44884341D01*
X73065000Y-44741484D01*
X73125476Y-44670055D01*
X73246428Y-44598627D01*
X73427857Y-44598627D01*
X73548809Y-44670055D01*
X73609285Y-44741484D01*
X73669761Y-44884341D01*
X73669761Y-45455770D01*
X73004523Y-44170055D02*
X74274523Y-43670055D01*
X73004523Y-43170055D01*
D11*
X75202380Y-68090476D02*
X75202380Y-68566666D01*
X75678571Y-68614285D01*
X75630952Y-68566666D01*
X75583333Y-68471428D01*
X75583333Y-68233333D01*
X75630952Y-68138095D01*
X75678571Y-68090476D01*
X75773809Y-68042857D01*
X76011904Y-68042857D01*
X76107142Y-68090476D01*
X76154761Y-68138095D01*
X76202380Y-68233333D01*
X76202380Y-68471428D01*
X76154761Y-68566666D01*
X76107142Y-68614285D01*
X75202380Y-67757142D02*
X76202380Y-67423809D01*
X75202380Y-67090476D01*
X70509523Y-41052380D02*
X70033333Y-41052380D01*
X69985714Y-41528571D01*
X70033333Y-41480952D01*
X70128571Y-41433333D01*
X70366666Y-41433333D01*
X70461904Y-41480952D01*
X70509523Y-41528571D01*
X70557142Y-41623809D01*
X70557142Y-41861904D01*
X70509523Y-41957142D01*
X70461904Y-42004761D01*
X70366666Y-42052380D01*
X70128571Y-42052380D01*
X70033333Y-42004761D01*
X69985714Y-41957142D01*
X70842857Y-41052380D02*
X71176190Y-42052380D01*
X71509523Y-41052380D01*
D12*
X75264285Y-50678278D02*
X75264285Y-50511611D01*
X75526190Y-50440183D02*
X75526190Y-50678278D01*
X75026190Y-50678278D01*
X75026190Y-50440183D01*
X75526190Y-50225897D02*
X75026190Y-50225897D01*
X75526190Y-49940183D01*
X75026190Y-49940183D01*
D14*
X66713988Y-23435714D02*
X66675892Y-23473809D01*
X66561607Y-23511904D01*
X66485416Y-23511904D01*
X66371130Y-23473809D01*
X66294940Y-23397619D01*
X66256845Y-23321428D01*
X66218750Y-23169047D01*
X66218750Y-23054761D01*
X66256845Y-22902380D01*
X66294940Y-22826190D01*
X66371130Y-22750000D01*
X66485416Y-22711904D01*
X66561607Y-22711904D01*
X66675892Y-22750000D01*
X66713988Y-22788095D01*
X67209226Y-22711904D02*
X67361607Y-22711904D01*
X67437797Y-22750000D01*
X67513988Y-22826190D01*
X67552083Y-22978571D01*
X67552083Y-23245238D01*
X67513988Y-23397619D01*
X67437797Y-23473809D01*
X67361607Y-23511904D01*
X67209226Y-23511904D01*
X67133035Y-23473809D01*
X67056845Y-23397619D01*
X67018750Y-23245238D01*
X67018750Y-22978571D01*
X67056845Y-22826190D01*
X67133035Y-22750000D01*
X67209226Y-22711904D01*
X67894940Y-23511904D02*
X67894940Y-22711904D01*
X68161607Y-23283333D01*
X68428273Y-22711904D01*
X68428273Y-23511904D01*
D11*
X75250000Y-56061904D02*
X75202380Y-56157142D01*
X75202380Y-56300000D01*
X75250000Y-56442857D01*
X75345238Y-56538095D01*
X75440476Y-56585714D01*
X75630952Y-56633333D01*
X75773809Y-56633333D01*
X75964285Y-56585714D01*
X76059523Y-56538095D01*
X76154761Y-56442857D01*
X76202380Y-56300000D01*
X76202380Y-56204761D01*
X76154761Y-56061904D01*
X76107142Y-56014285D01*
X75773809Y-56014285D01*
X75773809Y-56204761D01*
X76202380Y-55585714D02*
X75202380Y-55585714D01*
X76202380Y-55014285D01*
X75202380Y-55014285D01*
X76202380Y-54538095D02*
X75202380Y-54538095D01*
X75202380Y-54300000D01*
X75250000Y-54157142D01*
X75345238Y-54061904D01*
X75440476Y-54014285D01*
X75630952Y-53966666D01*
X75773809Y-53966666D01*
X75964285Y-54014285D01*
X76059523Y-54061904D01*
X76154761Y-54157142D01*
X76202380Y-54300000D01*
X76202380Y-54538095D01*
D10*
X43416666Y-39483333D02*
X42716666Y-39483333D01*
X42716666Y-39216666D01*
X42750000Y-39150000D01*
X42783333Y-39116666D01*
X42850000Y-39083333D01*
X42950000Y-39083333D01*
X43016666Y-39116666D01*
X43050000Y-39150000D01*
X43083333Y-39216666D01*
X43083333Y-39483333D01*
X42716666Y-38850000D02*
X43416666Y-38683333D01*
X42916666Y-38550000D01*
X43416666Y-38416666D01*
X42716666Y-38250000D01*
X43416666Y-37983333D02*
X42716666Y-37983333D01*
X43216666Y-37750000D01*
X42716666Y-37516666D01*
X43416666Y-37516666D01*
D15*
X17692857Y-25442857D02*
X17621428Y-25657142D01*
X17621428Y-26014285D01*
X17692857Y-26157142D01*
X17764285Y-26228571D01*
X17907142Y-26300000D01*
X18050000Y-26300000D01*
X18192857Y-26228571D01*
X18264285Y-26157142D01*
X18335714Y-26014285D01*
X18407142Y-25728571D01*
X18478571Y-25585714D01*
X18550000Y-25514285D01*
X18692857Y-25442857D01*
X18835714Y-25442857D01*
X18978571Y-25514285D01*
X19050000Y-25585714D01*
X19121428Y-25728571D01*
X19121428Y-26085714D01*
X19050000Y-26300000D01*
X17621428Y-26942857D02*
X19121428Y-26942857D01*
X19121428Y-27514285D01*
X19050000Y-27657142D01*
X18978571Y-27728571D01*
X18835714Y-27800000D01*
X18621428Y-27800000D01*
X18478571Y-27728571D01*
X18407142Y-27657142D01*
X18335714Y-27514285D01*
X18335714Y-26942857D01*
X17621428Y-28442857D02*
X19121428Y-28442857D01*
X17621428Y-29157142D02*
X19121428Y-29157142D01*
X17621428Y-30014285D01*
X19121428Y-30014285D01*
X17621428Y-30728571D02*
X19121428Y-30728571D01*
X19121428Y-31085714D01*
X19050000Y-31300000D01*
X18907142Y-31442857D01*
X18764285Y-31514285D01*
X18478571Y-31585714D01*
X18264285Y-31585714D01*
X17978571Y-31514285D01*
X17835714Y-31442857D01*
X17692857Y-31300000D01*
X17621428Y-31085714D01*
X17621428Y-30728571D01*
X17621428Y-32942857D02*
X17621428Y-32228571D01*
X19121428Y-32228571D01*
X18407142Y-33442857D02*
X18407142Y-33942857D01*
X17621428Y-34157142D02*
X17621428Y-33442857D01*
X19121428Y-33442857D01*
X19121428Y-34157142D01*
D11*
X70509523Y-17802380D02*
X70033333Y-17802380D01*
X69985714Y-18278571D01*
X70033333Y-18230952D01*
X70128571Y-18183333D01*
X70366666Y-18183333D01*
X70461904Y-18230952D01*
X70509523Y-18278571D01*
X70557142Y-18373809D01*
X70557142Y-18611904D01*
X70509523Y-18707142D01*
X70461904Y-18754761D01*
X70366666Y-18802380D01*
X70128571Y-18802380D01*
X70033333Y-18754761D01*
X69985714Y-18707142D01*
X70842857Y-17802380D02*
X71176190Y-18802380D01*
X71509523Y-17802380D01*
D14*
X66713988Y-46685714D02*
X66675892Y-46723809D01*
X66561607Y-46761904D01*
X66485416Y-46761904D01*
X66371130Y-46723809D01*
X66294940Y-46647619D01*
X66256845Y-46571428D01*
X66218750Y-46419047D01*
X66218750Y-46304761D01*
X66256845Y-46152380D01*
X66294940Y-46076190D01*
X66371130Y-46000000D01*
X66485416Y-45961904D01*
X66561607Y-45961904D01*
X66675892Y-46000000D01*
X66713988Y-46038095D01*
X67209226Y-45961904D02*
X67361607Y-45961904D01*
X67437797Y-46000000D01*
X67513988Y-46076190D01*
X67552083Y-46228571D01*
X67552083Y-46495238D01*
X67513988Y-46647619D01*
X67437797Y-46723809D01*
X67361607Y-46761904D01*
X67209226Y-46761904D01*
X67133035Y-46723809D01*
X67056845Y-46647619D01*
X67018750Y-46495238D01*
X67018750Y-46228571D01*
X67056845Y-46076190D01*
X67133035Y-46000000D01*
X67209226Y-45961904D01*
X67894940Y-46761904D02*
X67894940Y-45961904D01*
X68161607Y-46533333D01*
X68428273Y-45961904D01*
X68428273Y-46761904D01*
X67316666Y-54435750D02*
X67416666Y-54473845D01*
X67450000Y-54511940D01*
X67483333Y-54588131D01*
X67483333Y-54702416D01*
X67450000Y-54778607D01*
X67416666Y-54816702D01*
X67350000Y-54854797D01*
X67083333Y-54854797D01*
X67083333Y-54054797D01*
X67316666Y-54054797D01*
X67383333Y-54092893D01*
X67416666Y-54130988D01*
X67450000Y-54207178D01*
X67450000Y-54283369D01*
X67416666Y-54359559D01*
X67383333Y-54397654D01*
X67316666Y-54435750D01*
X67083333Y-54435750D01*
X67783333Y-54854797D02*
X67783333Y-54321464D01*
X67783333Y-54054797D02*
X67750000Y-54092893D01*
X67783333Y-54130988D01*
X67816666Y-54092893D01*
X67783333Y-54054797D01*
X67783333Y-54130988D01*
X68016666Y-54321464D02*
X68283333Y-54321464D01*
X68116666Y-54054797D02*
X68116666Y-54740512D01*
X68150000Y-54816702D01*
X68216666Y-54854797D01*
X68283333Y-54854797D01*
X68450000Y-54054797D02*
X68916666Y-54054797D01*
X68450000Y-54854797D01*
X68916666Y-54854797D01*
X69450000Y-54816702D02*
X69383333Y-54854797D01*
X69250000Y-54854797D01*
X69183333Y-54816702D01*
X69150000Y-54740512D01*
X69150000Y-54435750D01*
X69183333Y-54359559D01*
X69250000Y-54321464D01*
X69383333Y-54321464D01*
X69450000Y-54359559D01*
X69483333Y-54435750D01*
X69483333Y-54511940D01*
X69150000Y-54588131D01*
X69783333Y-54854797D02*
X69783333Y-54321464D01*
X69783333Y-54473845D02*
X69816666Y-54397654D01*
X69850000Y-54359559D01*
X69916666Y-54321464D01*
X69983333Y-54321464D01*
X70316666Y-54854797D02*
X70250000Y-54816702D01*
X70216666Y-54778607D01*
X70183333Y-54702416D01*
X70183333Y-54473845D01*
X70216666Y-54397654D01*
X70250000Y-54359559D01*
X70316666Y-54321464D01*
X70416666Y-54321464D01*
X70483333Y-54359559D01*
X70516666Y-54397654D01*
X70550000Y-54473845D01*
X70550000Y-54702416D01*
X70516666Y-54778607D01*
X70483333Y-54816702D01*
X70416666Y-54854797D01*
X70316666Y-54854797D01*
D11*
X70201037Y-39252380D02*
X70296275Y-39252380D01*
X70391513Y-39300000D01*
X70439132Y-39347619D01*
X70486751Y-39442857D01*
X70534370Y-39633333D01*
X70534370Y-39871428D01*
X70486751Y-40061904D01*
X70439132Y-40157142D01*
X70391513Y-40204761D01*
X70296275Y-40252380D01*
X70201037Y-40252380D01*
X70105799Y-40204761D01*
X70058180Y-40157142D01*
X70010561Y-40061904D01*
X69962942Y-39871428D01*
X69962942Y-39633333D01*
X70010561Y-39442857D01*
X70058180Y-39347619D01*
X70105799Y-39300000D01*
X70201037Y-39252380D01*
X70820085Y-39252380D02*
X71153418Y-40252380D01*
X71486751Y-39252380D01*
D12*
X75478571Y-19143389D02*
X75502380Y-19167198D01*
X75526190Y-19238627D01*
X75526190Y-19286246D01*
X75502380Y-19357674D01*
X75454761Y-19405293D01*
X75407142Y-19429103D01*
X75311904Y-19452912D01*
X75240476Y-19452912D01*
X75145238Y-19429103D01*
X75097619Y-19405293D01*
X75050000Y-19357674D01*
X75026190Y-19286246D01*
X75026190Y-19238627D01*
X75050000Y-19167198D01*
X75073809Y-19143389D01*
X75526190Y-18691008D02*
X75526190Y-18929103D01*
X75026190Y-18929103D01*
X75526190Y-18524341D02*
X75026190Y-18524341D01*
X75526190Y-18238627D02*
X75240476Y-18452912D01*
X75026190Y-18238627D02*
X75311904Y-18524341D01*
X75478571Y-43102088D02*
X75502380Y-43125897D01*
X75526190Y-43197326D01*
X75526190Y-43244945D01*
X75502380Y-43316373D01*
X75454761Y-43363992D01*
X75407142Y-43387802D01*
X75311904Y-43411611D01*
X75240476Y-43411611D01*
X75145238Y-43387802D01*
X75097619Y-43363992D01*
X75050000Y-43316373D01*
X75026190Y-43244945D01*
X75026190Y-43197326D01*
X75050000Y-43125897D01*
X75073809Y-43102088D01*
X75026190Y-42792564D02*
X75026190Y-42697326D01*
X75050000Y-42649707D01*
X75097619Y-42602088D01*
X75192857Y-42578278D01*
X75359523Y-42578278D01*
X75454761Y-42602088D01*
X75502380Y-42649707D01*
X75526190Y-42697326D01*
X75526190Y-42792564D01*
X75502380Y-42840183D01*
X75454761Y-42887802D01*
X75359523Y-42911611D01*
X75192857Y-42911611D01*
X75097619Y-42887802D01*
X75050000Y-42840183D01*
X75026190Y-42792564D01*
X75526190Y-42363992D02*
X75026190Y-42363992D01*
X75383333Y-42197326D01*
X75026190Y-42030659D01*
X75526190Y-42030659D01*
D15*
X32021428Y-50007178D02*
X31950000Y-49950035D01*
X31878571Y-49835750D01*
X31878571Y-49550035D01*
X31950000Y-49435750D01*
X32021428Y-49378607D01*
X32164285Y-49321464D01*
X32307142Y-49321464D01*
X32521428Y-49378607D01*
X33378571Y-50064321D01*
X33378571Y-49321464D01*
X32378571Y-48292893D02*
X33378571Y-48292893D01*
X31807142Y-48578607D02*
X32878571Y-48864321D01*
X32878571Y-48121464D01*
X31878571Y-47835750D02*
X33378571Y-47435750D01*
X31878571Y-47035750D01*
X31807142Y-45778607D02*
X33735714Y-46807178D01*
X31878571Y-44807178D02*
X31878571Y-45378607D01*
X32592857Y-45435750D01*
X32521428Y-45378607D01*
X32450000Y-45264321D01*
X32450000Y-44978607D01*
X32521428Y-44864321D01*
X32592857Y-44807178D01*
X32735714Y-44750035D01*
X33092857Y-44750035D01*
X33235714Y-44807178D01*
X33307142Y-44864321D01*
X33378571Y-44978607D01*
X33378571Y-45264321D01*
X33307142Y-45378607D01*
X33235714Y-45435750D01*
X32950000Y-44292893D02*
X32950000Y-43721464D01*
X33378571Y-44407178D02*
X31878571Y-44007178D01*
X33378571Y-43607178D01*
X33378571Y-42292893D02*
X31878571Y-42292893D01*
X33378571Y-41721464D02*
X31878571Y-41721464D01*
X33378571Y-41035750D01*
X31878571Y-41035750D01*
X73104523Y-23414285D02*
X74374523Y-22414285D01*
X73104523Y-22414285D02*
X74374523Y-23414285D01*
X74374523Y-20700000D02*
X73104523Y-20700000D01*
X73104523Y-20342857D01*
X73165000Y-20128571D01*
X73285952Y-19985714D01*
X73406904Y-19914285D01*
X73648809Y-19842857D01*
X73830238Y-19842857D01*
X74072142Y-19914285D01*
X74193095Y-19985714D01*
X74314047Y-20128571D01*
X74374523Y-20342857D01*
X74374523Y-20700000D01*
X74374523Y-18342857D02*
X73769761Y-18842857D01*
X74374523Y-19200000D02*
X73104523Y-19200000D01*
X73104523Y-18628571D01*
X73165000Y-18485714D01*
X73225476Y-18414285D01*
X73346428Y-18342857D01*
X73527857Y-18342857D01*
X73648809Y-18414285D01*
X73709285Y-18485714D01*
X73769761Y-18628571D01*
X73769761Y-19200000D01*
X73104523Y-17914285D02*
X74374523Y-17414285D01*
X73104523Y-16914285D01*
D10*
X42716666Y-34833333D02*
X42883333Y-34833333D01*
X42816666Y-35000000D02*
X42883333Y-34833333D01*
X42816666Y-34666666D01*
X43016666Y-34933333D02*
X42883333Y-34833333D01*
X43016666Y-34733333D01*
X43416666Y-33866666D02*
X42716666Y-33866666D01*
X42716666Y-33600000D01*
X42750000Y-33533333D01*
X42783333Y-33500000D01*
X42850000Y-33466666D01*
X42950000Y-33466666D01*
X43016666Y-33500000D01*
X43050000Y-33533333D01*
X43083333Y-33600000D01*
X43083333Y-33866666D01*
X43416666Y-32800000D02*
X43416666Y-33200000D01*
X43416666Y-33000000D02*
X42716666Y-33000000D01*
X42816666Y-33066666D01*
X42883333Y-33133333D01*
X42916666Y-33200000D01*
X42716666Y-32200000D02*
X42716666Y-32333333D01*
X42750000Y-32400000D01*
X42783333Y-32433333D01*
X42883333Y-32500000D01*
X43016666Y-32533333D01*
X43283333Y-32533333D01*
X43350000Y-32500000D01*
X43383333Y-32466666D01*
X43416666Y-32400000D01*
X43416666Y-32266666D01*
X43383333Y-32200000D01*
X43350000Y-32166666D01*
X43283333Y-32133333D01*
X43116666Y-32133333D01*
X43050000Y-32166666D01*
X43016666Y-32200000D01*
X42983333Y-32266666D01*
X42983333Y-32400000D01*
X43016666Y-32466666D01*
X43050000Y-32500000D01*
X43116666Y-32533333D01*
X43383333Y-29783333D02*
X43416666Y-29683333D01*
X43416666Y-29516666D01*
X43383333Y-29450000D01*
X43350000Y-29416666D01*
X43283333Y-29383333D01*
X43216666Y-29383333D01*
X43150000Y-29416666D01*
X43116666Y-29450000D01*
X43083333Y-29516666D01*
X43050000Y-29650000D01*
X43016666Y-29716666D01*
X42983333Y-29750000D01*
X42916666Y-29783333D01*
X42850000Y-29783333D01*
X42783333Y-29750000D01*
X42750000Y-29716666D01*
X42716666Y-29650000D01*
X42716666Y-29483333D01*
X42750000Y-29383333D01*
X43416666Y-29083333D02*
X42716666Y-29083333D01*
X42716666Y-28816666D01*
X42750000Y-28750000D01*
X42783333Y-28716666D01*
X42850000Y-28683333D01*
X42950000Y-28683333D01*
X43016666Y-28716666D01*
X43050000Y-28750000D01*
X43083333Y-28816666D01*
X43083333Y-29083333D01*
X43416666Y-28383333D02*
X42716666Y-28383333D01*
X42716666Y-28216666D01*
X42750000Y-28116666D01*
X42816666Y-28050000D01*
X42883333Y-28016666D01*
X43016666Y-27983333D01*
X43116666Y-27983333D01*
X43250000Y-28016666D01*
X43316666Y-28050000D01*
X43383333Y-28116666D01*
X43416666Y-28216666D01*
X43416666Y-28383333D01*
X43416666Y-27350000D02*
X43416666Y-27683333D01*
X42716666Y-27683333D01*
X43416666Y-26183333D02*
X43083333Y-26416666D01*
X43416666Y-26583333D02*
X42716666Y-26583333D01*
X42716666Y-26316666D01*
X42750000Y-26250000D01*
X42783333Y-26216666D01*
X42850000Y-26183333D01*
X42950000Y-26183333D01*
X43016666Y-26216666D01*
X43050000Y-26250000D01*
X43083333Y-26316666D01*
X43083333Y-26583333D01*
X43416666Y-25550000D02*
X43416666Y-25883333D01*
X42716666Y-25883333D01*
X43083333Y-25183333D02*
X43416666Y-25183333D01*
X42716666Y-25416666D02*
X43083333Y-25183333D01*
X42716666Y-24950000D01*
D12*
X75264285Y-24314817D02*
X75264285Y-24148150D01*
X75526190Y-24076722D02*
X75526190Y-24314817D01*
X75026190Y-24314817D01*
X75026190Y-24076722D01*
X75526190Y-23862436D02*
X75026190Y-23862436D01*
X75526190Y-23576722D01*
X75026190Y-23576722D01*
D15*
X21791071Y-19178607D02*
X21962500Y-19235750D01*
X22248214Y-19235750D01*
X22362500Y-19178607D01*
X22419642Y-19121464D01*
X22476785Y-19007178D01*
X22476785Y-18892893D01*
X22419642Y-18778607D01*
X22362500Y-18721464D01*
X22248214Y-18664321D01*
X22019642Y-18607178D01*
X21905357Y-18550035D01*
X21848214Y-18492893D01*
X21791071Y-18378607D01*
X21791071Y-18264321D01*
X21848214Y-18150035D01*
X21905357Y-18092893D01*
X22019642Y-18035750D01*
X22305357Y-18035750D01*
X22476785Y-18092893D01*
X22991071Y-19235750D02*
X22991071Y-18035750D01*
X23505357Y-19235750D02*
X23505357Y-18607178D01*
X23448214Y-18492893D01*
X23333928Y-18435750D01*
X23162500Y-18435750D01*
X23048214Y-18492893D01*
X22991071Y-18550035D01*
X24591071Y-19235750D02*
X24591071Y-18607178D01*
X24533928Y-18492893D01*
X24419642Y-18435750D01*
X24191071Y-18435750D01*
X24076785Y-18492893D01*
X24591071Y-19178607D02*
X24476785Y-19235750D01*
X24191071Y-19235750D01*
X24076785Y-19178607D01*
X24019642Y-19064321D01*
X24019642Y-18950035D01*
X24076785Y-18835750D01*
X24191071Y-18778607D01*
X24476785Y-18778607D01*
X24591071Y-18721464D01*
X25162500Y-18435750D02*
X25162500Y-19635750D01*
X25162500Y-18492893D02*
X25276785Y-18435750D01*
X25505357Y-18435750D01*
X25619642Y-18492893D01*
X25676785Y-18550035D01*
X25733928Y-18664321D01*
X25733928Y-19007178D01*
X25676785Y-19121464D01*
X25619642Y-19178607D01*
X25505357Y-19235750D01*
X25276785Y-19235750D01*
X25162500Y-19178607D01*
X26705357Y-19178607D02*
X26591071Y-19235750D01*
X26362500Y-19235750D01*
X26248214Y-19178607D01*
X26191071Y-19064321D01*
X26191071Y-18607178D01*
X26248214Y-18492893D01*
X26362500Y-18435750D01*
X26591071Y-18435750D01*
X26705357Y-18492893D01*
X26762500Y-18607178D01*
X26762500Y-18721464D01*
X26191071Y-18835750D01*
X27448214Y-19235750D02*
X27333928Y-19178607D01*
X27276785Y-19121464D01*
X27219642Y-19007178D01*
X27219642Y-18664321D01*
X27276785Y-18550035D01*
X27333928Y-18492893D01*
X27448214Y-18435750D01*
X27619642Y-18435750D01*
X27733928Y-18492893D01*
X27791071Y-18550035D01*
X27848214Y-18664321D01*
X27848214Y-19007178D01*
X27791071Y-19121464D01*
X27733928Y-19178607D01*
X27619642Y-19235750D01*
X27448214Y-19235750D01*
X28362500Y-19235750D02*
X28362500Y-18035750D01*
X28476785Y-18778607D02*
X28819642Y-19235750D01*
X28819642Y-18435750D02*
X28362500Y-18892893D01*
X29505357Y-19235750D02*
X29391071Y-19178607D01*
X29333928Y-19121464D01*
X29276785Y-19007178D01*
X29276785Y-18664321D01*
X29333928Y-18550035D01*
X29391071Y-18492893D01*
X29505357Y-18435750D01*
X29676785Y-18435750D01*
X29791071Y-18492893D01*
X29848214Y-18550035D01*
X29905357Y-18664321D01*
X29905357Y-19007178D01*
X29848214Y-19121464D01*
X29791071Y-19178607D01*
X29676785Y-19235750D01*
X29505357Y-19235750D01*
X31905357Y-19235750D02*
X31333928Y-19235750D01*
X31333928Y-18035750D01*
X32305357Y-19235750D02*
X32305357Y-18035750D01*
X32762500Y-18035750D01*
X32876785Y-18092893D01*
X32933928Y-18150035D01*
X32991071Y-18264321D01*
X32991071Y-18435750D01*
X32933928Y-18550035D01*
X32876785Y-18607178D01*
X32762500Y-18664321D01*
X32305357Y-18664321D01*
X33333928Y-18035750D02*
X34019642Y-18035750D01*
X33676785Y-19235750D02*
X33676785Y-18035750D01*
X35333928Y-19235750D02*
X35333928Y-18035750D01*
X35905357Y-18435750D02*
X35905357Y-19235750D01*
X35905357Y-18550035D02*
X35962500Y-18492893D01*
X36076785Y-18435750D01*
X36248214Y-18435750D01*
X36362500Y-18492893D01*
X36419642Y-18607178D01*
X36419642Y-19235750D01*
X36819642Y-18435750D02*
X37276785Y-18435750D01*
X36991071Y-18035750D02*
X36991071Y-19064321D01*
X37048214Y-19178607D01*
X37162500Y-19235750D01*
X37276785Y-19235750D01*
X38133928Y-19178607D02*
X38019642Y-19235750D01*
X37791071Y-19235750D01*
X37676785Y-19178607D01*
X37619642Y-19064321D01*
X37619642Y-18607178D01*
X37676785Y-18492893D01*
X37791071Y-18435750D01*
X38019642Y-18435750D01*
X38133928Y-18492893D01*
X38191071Y-18607178D01*
X38191071Y-18721464D01*
X37619642Y-18835750D01*
X38705357Y-19235750D02*
X38705357Y-18435750D01*
X38705357Y-18664321D02*
X38762500Y-18550035D01*
X38819642Y-18492893D01*
X38933928Y-18435750D01*
X39048214Y-18435750D01*
X39276785Y-18435750D02*
X39733928Y-18435750D01*
X39448214Y-19235750D02*
X39448214Y-18207178D01*
X39505357Y-18092893D01*
X39619642Y-18035750D01*
X39733928Y-18035750D01*
X40648214Y-19235750D02*
X40648214Y-18607178D01*
X40591071Y-18492893D01*
X40476785Y-18435750D01*
X40248214Y-18435750D01*
X40133928Y-18492893D01*
X40648214Y-19178607D02*
X40533928Y-19235750D01*
X40248214Y-19235750D01*
X40133928Y-19178607D01*
X40076785Y-19064321D01*
X40076785Y-18950035D01*
X40133928Y-18835750D01*
X40248214Y-18778607D01*
X40533928Y-18778607D01*
X40648214Y-18721464D01*
X41733928Y-19178607D02*
X41619642Y-19235750D01*
X41391071Y-19235750D01*
X41276785Y-19178607D01*
X41219642Y-19121464D01*
X41162500Y-19007178D01*
X41162500Y-18664321D01*
X41219642Y-18550035D01*
X41276785Y-18492893D01*
X41391071Y-18435750D01*
X41619642Y-18435750D01*
X41733928Y-18492893D01*
X42705357Y-19178607D02*
X42591071Y-19235750D01*
X42362500Y-19235750D01*
X42248214Y-19178607D01*
X42191071Y-19064321D01*
X42191071Y-18607178D01*
X42248214Y-18492893D01*
X42362500Y-18435750D01*
X42591071Y-18435750D01*
X42705357Y-18492893D01*
X42762500Y-18607178D01*
X42762500Y-18721464D01*
X42191071Y-18835750D01*
X44076785Y-18435750D02*
X44362500Y-19235750D01*
X44648214Y-18435750D01*
X44991071Y-18035750D02*
X45733928Y-18035750D01*
X45333928Y-18492893D01*
X45505357Y-18492893D01*
X45619642Y-18550035D01*
X45676785Y-18607178D01*
X45733928Y-18721464D01*
X45733928Y-19007178D01*
X45676785Y-19121464D01*
X45619642Y-19178607D01*
X45505357Y-19235750D01*
X45162500Y-19235750D01*
X45048214Y-19178607D01*
X44991071Y-19121464D01*
X46248214Y-19121464D02*
X46305357Y-19178607D01*
X46248214Y-19235750D01*
X46191071Y-19178607D01*
X46248214Y-19121464D01*
X46248214Y-19235750D01*
X47048214Y-18035750D02*
X47162500Y-18035750D01*
X47276785Y-18092893D01*
X47333928Y-18150035D01*
X47391071Y-18264321D01*
X47448214Y-18492893D01*
X47448214Y-18778607D01*
X47391071Y-19007178D01*
X47333928Y-19121464D01*
X47276785Y-19178607D01*
X47162500Y-19235750D01*
X47048214Y-19235750D01*
X46933928Y-19178607D01*
X46876785Y-19121464D01*
X46819642Y-19007178D01*
X46762500Y-18778607D01*
X46762500Y-18492893D01*
X46819642Y-18264321D01*
X46876785Y-18150035D01*
X46933928Y-18092893D01*
X47048214Y-18035750D01*
D11*
X75535714Y-65209523D02*
X76202380Y-65209523D01*
X75154761Y-65447619D02*
X75869047Y-65685714D01*
X75869047Y-65066666D01*
D16*
X70678571Y-76050035D02*
X70735714Y-76107178D01*
X70792857Y-76278607D01*
X70792857Y-76392893D01*
X70735714Y-76564321D01*
X70621428Y-76678607D01*
X70507142Y-76735750D01*
X70278571Y-76792893D01*
X70107142Y-76792893D01*
X69878571Y-76735750D01*
X69764285Y-76678607D01*
X69650000Y-76564321D01*
X69592857Y-76392893D01*
X69592857Y-76278607D01*
X69650000Y-76107178D01*
X69707142Y-76050035D01*
X70792857Y-75535750D02*
X69592857Y-75535750D01*
X69592857Y-75078607D01*
X69650000Y-74964321D01*
X69707142Y-74907178D01*
X69821428Y-74850035D01*
X69992857Y-74850035D01*
X70107142Y-74907178D01*
X70164285Y-74964321D01*
X70221428Y-75078607D01*
X70221428Y-75535750D01*
X69592857Y-74107178D02*
X69592857Y-73878607D01*
X69650000Y-73764321D01*
X69764285Y-73650035D01*
X69992857Y-73592893D01*
X70392857Y-73592893D01*
X70621428Y-73650035D01*
X70735714Y-73764321D01*
X70792857Y-73878607D01*
X70792857Y-74107178D01*
X70735714Y-74221464D01*
X70621428Y-74335750D01*
X70392857Y-74392893D01*
X69992857Y-74392893D01*
X69764285Y-74335750D01*
X69650000Y-74221464D01*
X69592857Y-74107178D01*
D11*
X52635714Y-68802380D02*
X52064285Y-68802380D01*
X52350000Y-68802380D02*
X52350000Y-67802380D01*
X52254761Y-67945238D01*
X52159523Y-68040476D01*
X52064285Y-68088095D01*
D13*
X62579523Y-32070714D02*
X63849523Y-31224047D01*
X62579523Y-31224047D02*
X63849523Y-32070714D01*
X63184285Y-29772619D02*
X63184285Y-29349285D01*
X63849523Y-29167857D02*
X63849523Y-29772619D01*
X62579523Y-29772619D01*
X62579523Y-29167857D01*
X63849523Y-28623571D02*
X62579523Y-28623571D01*
X63849523Y-27897857D01*
X62579523Y-27897857D01*
X63849523Y-27293095D02*
X62579523Y-27293095D01*
X62579523Y-26990714D01*
X62640000Y-26809285D01*
X62760952Y-26688333D01*
X62881904Y-26627857D01*
X63123809Y-26567380D01*
X63305238Y-26567380D01*
X63547142Y-26627857D01*
X63668095Y-26688333D01*
X63789047Y-26809285D01*
X63849523Y-26990714D01*
X63849523Y-27293095D01*
X63789047Y-26083571D02*
X63849523Y-25902142D01*
X63849523Y-25599761D01*
X63789047Y-25478809D01*
X63728571Y-25418333D01*
X63607619Y-25357857D01*
X63486666Y-25357857D01*
X63365714Y-25418333D01*
X63305238Y-25478809D01*
X63244761Y-25599761D01*
X63184285Y-25841666D01*
X63123809Y-25962619D01*
X63063333Y-26023095D01*
X62942380Y-26083571D01*
X62821428Y-26083571D01*
X62700476Y-26023095D01*
X62640000Y-25962619D01*
X62579523Y-25841666D01*
X62579523Y-25539285D01*
X62640000Y-25357857D01*
X62579523Y-24995000D02*
X62579523Y-24269285D01*
X63849523Y-24632142D02*
X62579523Y-24632142D01*
X62579523Y-23604047D02*
X62579523Y-23362142D01*
X62640000Y-23241190D01*
X62760952Y-23120238D01*
X63002857Y-23059761D01*
X63426190Y-23059761D01*
X63668095Y-23120238D01*
X63789047Y-23241190D01*
X63849523Y-23362142D01*
X63849523Y-23604047D01*
X63789047Y-23725000D01*
X63668095Y-23845952D01*
X63426190Y-23906428D01*
X63002857Y-23906428D01*
X62760952Y-23845952D01*
X62640000Y-23725000D01*
X62579523Y-23604047D01*
X63849523Y-22515476D02*
X62579523Y-22515476D01*
X62579523Y-22031666D01*
X62640000Y-21910714D01*
X62700476Y-21850238D01*
X62821428Y-21789761D01*
X63002857Y-21789761D01*
X63123809Y-21850238D01*
X63184285Y-21910714D01*
X63244761Y-22031666D01*
X63244761Y-22515476D01*
X77027142Y-82992893D02*
X76912857Y-82935750D01*
X76741428Y-82935750D01*
X76570000Y-82992893D01*
X76455714Y-83107178D01*
X76398571Y-83221464D01*
X76341428Y-83450035D01*
X76341428Y-83621464D01*
X76398571Y-83850035D01*
X76455714Y-83964321D01*
X76570000Y-84078607D01*
X76741428Y-84135750D01*
X76855714Y-84135750D01*
X77027142Y-84078607D01*
X77084285Y-84021464D01*
X77084285Y-83621464D01*
X76855714Y-83621464D01*
X77598571Y-84135750D02*
X77598571Y-82935750D01*
X78284285Y-84135750D01*
X78284285Y-82935750D01*
X78855714Y-84135750D02*
X78855714Y-82935750D01*
X79141428Y-82935750D01*
X79312857Y-82992893D01*
X79427142Y-83107178D01*
X79484285Y-83221464D01*
X79541428Y-83450035D01*
X79541428Y-83621464D01*
X79484285Y-83850035D01*
X79427142Y-83964321D01*
X79312857Y-84078607D01*
X79141428Y-84135750D01*
X78855714Y-84135750D01*
D11*
X75202380Y-63233333D02*
X75202380Y-62614285D01*
X75583333Y-62947619D01*
X75583333Y-62804761D01*
X75630952Y-62709523D01*
X75678571Y-62661904D01*
X75773809Y-62614285D01*
X76011904Y-62614285D01*
X76107142Y-62661904D01*
X76154761Y-62709523D01*
X76202380Y-62804761D01*
X76202380Y-63090476D01*
X76154761Y-63185714D01*
X76107142Y-63233333D01*
D14*
X66713988Y-35385714D02*
X66675892Y-35423809D01*
X66561607Y-35461904D01*
X66485416Y-35461904D01*
X66371130Y-35423809D01*
X66294940Y-35347619D01*
X66256845Y-35271428D01*
X66218750Y-35119047D01*
X66218750Y-35004761D01*
X66256845Y-34852380D01*
X66294940Y-34776190D01*
X66371130Y-34700000D01*
X66485416Y-34661904D01*
X66561607Y-34661904D01*
X66675892Y-34700000D01*
X66713988Y-34738095D01*
X67209226Y-34661904D02*
X67361607Y-34661904D01*
X67437797Y-34700000D01*
X67513988Y-34776190D01*
X67552083Y-34928571D01*
X67552083Y-35195238D01*
X67513988Y-35347619D01*
X67437797Y-35423809D01*
X67361607Y-35461904D01*
X67209226Y-35461904D01*
X67133035Y-35423809D01*
X67056845Y-35347619D01*
X67018750Y-35195238D01*
X67018750Y-34928571D01*
X67056845Y-34776190D01*
X67133035Y-34700000D01*
X67209226Y-34661904D01*
X67894940Y-35461904D02*
X67894940Y-34661904D01*
X68161607Y-35233333D01*
X68428273Y-34661904D01*
X68428273Y-35461904D01*
D12*
X75526190Y-21895770D02*
X75026190Y-21895770D01*
X75026190Y-21776722D01*
X75050000Y-21705293D01*
X75097619Y-21657674D01*
X75145238Y-21633865D01*
X75240476Y-21610055D01*
X75311904Y-21610055D01*
X75407142Y-21633865D01*
X75454761Y-21657674D01*
X75502380Y-21705293D01*
X75526190Y-21776722D01*
X75526190Y-21895770D01*
X75526190Y-21395770D02*
X75026190Y-21395770D01*
X75526190Y-20871960D02*
X75288095Y-21038627D01*
X75526190Y-21157674D02*
X75026190Y-21157674D01*
X75026190Y-20967198D01*
X75050000Y-20919579D01*
X75073809Y-20895770D01*
X75121428Y-20871960D01*
X75192857Y-20871960D01*
X75240476Y-20895770D01*
X75264285Y-20919579D01*
X75288095Y-20967198D01*
X75288095Y-21157674D01*
D10*
X42716666Y-44683333D02*
X42883333Y-44683333D01*
X42816666Y-44850000D02*
X42883333Y-44683333D01*
X42816666Y-44516666D01*
X43016666Y-44783333D02*
X42883333Y-44683333D01*
X43016666Y-44583333D01*
X43416666Y-43716666D02*
X42716666Y-43716666D01*
X42716666Y-43450000D01*
X42750000Y-43383333D01*
X42783333Y-43350000D01*
X42850000Y-43316666D01*
X42950000Y-43316666D01*
X43016666Y-43350000D01*
X43050000Y-43383333D01*
X43083333Y-43450000D01*
X43083333Y-43716666D01*
X43416666Y-42650000D02*
X43416666Y-43050000D01*
X43416666Y-42850000D02*
X42716666Y-42850000D01*
X42816666Y-42916666D01*
X42883333Y-42983333D01*
X42916666Y-43050000D01*
X42716666Y-42416666D02*
X42716666Y-41950000D01*
X43416666Y-42250000D01*
X42716666Y-53116666D02*
X42016666Y-53116666D01*
X42016666Y-52850000D01*
X42050000Y-52783333D01*
X42083333Y-52750000D01*
X42150000Y-52716666D01*
X42250000Y-52716666D01*
X42316666Y-52750000D01*
X42350000Y-52783333D01*
X42383333Y-52850000D01*
X42383333Y-53116666D01*
X42716666Y-52050000D02*
X42716666Y-52450000D01*
X42716666Y-52250000D02*
X42016666Y-52250000D01*
X42116666Y-52316666D01*
X42183333Y-52383333D01*
X42216666Y-52450000D01*
D13*
X75355714Y-71278607D02*
X76270000Y-71278607D01*
X75812857Y-71735750D02*
X75812857Y-70821464D01*
X76784285Y-70650035D02*
X76841428Y-70592893D01*
X76955714Y-70535750D01*
X77241428Y-70535750D01*
X77355714Y-70592893D01*
X77412857Y-70650035D01*
X77470000Y-70764321D01*
X77470000Y-70878607D01*
X77412857Y-71050035D01*
X76727142Y-71735750D01*
X77470000Y-71735750D01*
X78498571Y-70935750D02*
X78498571Y-71735750D01*
X78212857Y-70478607D02*
X77927142Y-71335750D01*
X78670000Y-71335750D01*
X78955714Y-70535750D02*
X79355714Y-71735750D01*
X79755714Y-70535750D01*
D11*
X75297619Y-60585714D02*
X75250000Y-60538095D01*
X75202380Y-60442857D01*
X75202380Y-60204761D01*
X75250000Y-60109523D01*
X75297619Y-60061904D01*
X75392857Y-60014285D01*
X75488095Y-60014285D01*
X75630952Y-60061904D01*
X76202380Y-60633333D01*
X76202380Y-60014285D01*
D13*
X62579523Y-69770714D02*
X62579523Y-68924047D01*
X63849523Y-69770714D01*
X63849523Y-68924047D01*
X63184285Y-67472619D02*
X63184285Y-67049285D01*
X63849523Y-66867857D02*
X63849523Y-67472619D01*
X62579523Y-67472619D01*
X62579523Y-66867857D01*
X63849523Y-66323571D02*
X62579523Y-66323571D01*
X63849523Y-65597857D01*
X62579523Y-65597857D01*
X63849523Y-64993095D02*
X62579523Y-64993095D01*
X62579523Y-64690714D01*
X62640000Y-64509285D01*
X62760952Y-64388333D01*
X62881904Y-64327857D01*
X63123809Y-64267380D01*
X63305238Y-64267380D01*
X63547142Y-64327857D01*
X63668095Y-64388333D01*
X63789047Y-64509285D01*
X63849523Y-64690714D01*
X63849523Y-64993095D01*
X63789047Y-63783571D02*
X63849523Y-63602142D01*
X63849523Y-63299761D01*
X63789047Y-63178809D01*
X63728571Y-63118333D01*
X63607619Y-63057857D01*
X63486666Y-63057857D01*
X63365714Y-63118333D01*
X63305238Y-63178809D01*
X63244761Y-63299761D01*
X63184285Y-63541666D01*
X63123809Y-63662619D01*
X63063333Y-63723095D01*
X62942380Y-63783571D01*
X62821428Y-63783571D01*
X62700476Y-63723095D01*
X62640000Y-63662619D01*
X62579523Y-63541666D01*
X62579523Y-63239285D01*
X62640000Y-63057857D01*
X62579523Y-62695000D02*
X62579523Y-61969285D01*
X63849523Y-62332142D02*
X62579523Y-62332142D01*
X62579523Y-61304047D02*
X62579523Y-61062142D01*
X62640000Y-60941190D01*
X62760952Y-60820238D01*
X63002857Y-60759761D01*
X63426190Y-60759761D01*
X63668095Y-60820238D01*
X63789047Y-60941190D01*
X63849523Y-61062142D01*
X63849523Y-61304047D01*
X63789047Y-61425000D01*
X63668095Y-61545952D01*
X63426190Y-61606428D01*
X63002857Y-61606428D01*
X62760952Y-61545952D01*
X62640000Y-61425000D01*
X62579523Y-61304047D01*
X63849523Y-60215476D02*
X62579523Y-60215476D01*
X62579523Y-59731666D01*
X62640000Y-59610714D01*
X62700476Y-59550238D01*
X62821428Y-59489761D01*
X63002857Y-59489761D01*
X63123809Y-59550238D01*
X63184285Y-59610714D01*
X63244761Y-59731666D01*
X63244761Y-60215476D01*
X63169761Y-50547380D02*
X63774523Y-50547380D01*
X62504523Y-50970714D02*
X63169761Y-50547380D01*
X62504523Y-50124047D01*
X63109285Y-48733095D02*
X63109285Y-48309761D01*
X63774523Y-48128333D02*
X63774523Y-48733095D01*
X62504523Y-48733095D01*
X62504523Y-48128333D01*
X63774523Y-47584047D02*
X62504523Y-47584047D01*
X63774523Y-46858333D01*
X62504523Y-46858333D01*
X63774523Y-46253571D02*
X62504523Y-46253571D01*
X62504523Y-45951190D01*
X62565000Y-45769761D01*
X62685952Y-45648809D01*
X62806904Y-45588333D01*
X63048809Y-45527857D01*
X63230238Y-45527857D01*
X63472142Y-45588333D01*
X63593095Y-45648809D01*
X63714047Y-45769761D01*
X63774523Y-45951190D01*
X63774523Y-46253571D01*
X63714047Y-45044047D02*
X63774523Y-44862619D01*
X63774523Y-44560238D01*
X63714047Y-44439285D01*
X63653571Y-44378809D01*
X63532619Y-44318333D01*
X63411666Y-44318333D01*
X63290714Y-44378809D01*
X63230238Y-44439285D01*
X63169761Y-44560238D01*
X63109285Y-44802142D01*
X63048809Y-44923095D01*
X62988333Y-44983571D01*
X62867380Y-45044047D01*
X62746428Y-45044047D01*
X62625476Y-44983571D01*
X62565000Y-44923095D01*
X62504523Y-44802142D01*
X62504523Y-44499761D01*
X62565000Y-44318333D01*
X62504523Y-43955476D02*
X62504523Y-43229761D01*
X63774523Y-43592619D02*
X62504523Y-43592619D01*
X62504523Y-42564523D02*
X62504523Y-42322619D01*
X62565000Y-42201666D01*
X62685952Y-42080714D01*
X62927857Y-42020238D01*
X63351190Y-42020238D01*
X63593095Y-42080714D01*
X63714047Y-42201666D01*
X63774523Y-42322619D01*
X63774523Y-42564523D01*
X63714047Y-42685476D01*
X63593095Y-42806428D01*
X63351190Y-42866904D01*
X62927857Y-42866904D01*
X62685952Y-42806428D01*
X62565000Y-42685476D01*
X62504523Y-42564523D01*
X63774523Y-41475952D02*
X62504523Y-41475952D01*
X62504523Y-40992142D01*
X62565000Y-40871190D01*
X62625476Y-40810714D01*
X62746428Y-40750238D01*
X62927857Y-40750238D01*
X63048809Y-40810714D01*
X63109285Y-40871190D01*
X63169761Y-40992142D01*
X63169761Y-41475952D01*
D15*
X73669761Y-35364285D02*
X74274523Y-35364285D01*
X73004523Y-35864285D02*
X73669761Y-35364285D01*
X73004523Y-34864285D01*
X74274523Y-33221428D02*
X73004523Y-33221428D01*
X73004523Y-32864285D01*
X73065000Y-32650000D01*
X73185952Y-32507142D01*
X73306904Y-32435714D01*
X73548809Y-32364285D01*
X73730238Y-32364285D01*
X73972142Y-32435714D01*
X74093095Y-32507142D01*
X74214047Y-32650000D01*
X74274523Y-32864285D01*
X74274523Y-33221428D01*
X74274523Y-30864285D02*
X73669761Y-31364285D01*
X74274523Y-31721428D02*
X73004523Y-31721428D01*
X73004523Y-31150000D01*
X73065000Y-31007142D01*
X73125476Y-30935714D01*
X73246428Y-30864285D01*
X73427857Y-30864285D01*
X73548809Y-30935714D01*
X73609285Y-31007142D01*
X73669761Y-31150000D01*
X73669761Y-31721428D01*
X73004523Y-30435714D02*
X74274523Y-29935714D01*
X73004523Y-29435714D01*
D11*
%TO.C,U9*%
X89988095Y-124302380D02*
X89988095Y-125111904D01*
X90035714Y-125207142D01*
X90083333Y-125254761D01*
X90178571Y-125302380D01*
X90369047Y-125302380D01*
X90464285Y-125254761D01*
X90511904Y-125207142D01*
X90559523Y-125111904D01*
X90559523Y-124302380D01*
X91083333Y-125302380D02*
X91273809Y-125302380D01*
X91369047Y-125254761D01*
X91416666Y-125207142D01*
X91511904Y-125064285D01*
X91559523Y-124873809D01*
X91559523Y-124492857D01*
X91511904Y-124397619D01*
X91464285Y-124350000D01*
X91369047Y-124302380D01*
X91178571Y-124302380D01*
X91083333Y-124350000D01*
X91035714Y-124397619D01*
X90988095Y-124492857D01*
X90988095Y-124730952D01*
X91035714Y-124826190D01*
X91083333Y-124873809D01*
X91178571Y-124921428D01*
X91369047Y-124921428D01*
X91464285Y-124873809D01*
X91511904Y-124826190D01*
X91559523Y-124730952D01*
D12*
%TO.C,L1*%
X25616666Y-65416666D02*
X25616666Y-65750000D01*
X24916666Y-65750000D01*
X25616666Y-64816666D02*
X25616666Y-65216666D01*
X25616666Y-65016666D02*
X24916666Y-65016666D01*
X25016666Y-65083333D01*
X25083333Y-65150000D01*
X25116666Y-65216666D01*
%TO.C,J12*%
X56943333Y-17916666D02*
X56943333Y-18416666D01*
X56910000Y-18516666D01*
X56843333Y-18583333D01*
X56743333Y-18616666D01*
X56676666Y-18616666D01*
X57643333Y-18616666D02*
X57243333Y-18616666D01*
X57443333Y-18616666D02*
X57443333Y-17916666D01*
X57376666Y-18016666D01*
X57310000Y-18083333D01*
X57243333Y-18116666D01*
X57910000Y-17983333D02*
X57943333Y-17950000D01*
X58010000Y-17916666D01*
X58176666Y-17916666D01*
X58243333Y-17950000D01*
X58276666Y-17983333D01*
X58310000Y-18050000D01*
X58310000Y-18116666D01*
X58276666Y-18216666D01*
X57876666Y-18616666D01*
X58310000Y-18616666D01*
%TO.C,C5*%
X36750000Y-75309559D02*
X36783333Y-75342893D01*
X36816666Y-75442893D01*
X36816666Y-75509559D01*
X36783333Y-75609559D01*
X36716666Y-75676226D01*
X36650000Y-75709559D01*
X36516666Y-75742893D01*
X36416666Y-75742893D01*
X36283333Y-75709559D01*
X36216666Y-75676226D01*
X36150000Y-75609559D01*
X36116666Y-75509559D01*
X36116666Y-75442893D01*
X36150000Y-75342893D01*
X36183333Y-75309559D01*
X36116666Y-74676226D02*
X36116666Y-75009559D01*
X36450000Y-75042893D01*
X36416666Y-75009559D01*
X36383333Y-74942893D01*
X36383333Y-74776226D01*
X36416666Y-74709559D01*
X36450000Y-74676226D01*
X36516666Y-74642893D01*
X36683333Y-74642893D01*
X36750000Y-74676226D01*
X36783333Y-74709559D01*
X36816666Y-74776226D01*
X36816666Y-74942893D01*
X36783333Y-75009559D01*
X36750000Y-75042893D01*
%TO.C,C1*%
X44650000Y-63916666D02*
X44683333Y-63950000D01*
X44716666Y-64050000D01*
X44716666Y-64116666D01*
X44683333Y-64216666D01*
X44616666Y-64283333D01*
X44550000Y-64316666D01*
X44416666Y-64350000D01*
X44316666Y-64350000D01*
X44183333Y-64316666D01*
X44116666Y-64283333D01*
X44050000Y-64216666D01*
X44016666Y-64116666D01*
X44016666Y-64050000D01*
X44050000Y-63950000D01*
X44083333Y-63916666D01*
X44716666Y-63250000D02*
X44716666Y-63650000D01*
X44716666Y-63450000D02*
X44016666Y-63450000D01*
X44116666Y-63516666D01*
X44183333Y-63583333D01*
X44216666Y-63650000D01*
%TO.C,RN2*%
X34426666Y-105696059D02*
X34193333Y-105362726D01*
X34026666Y-105696059D02*
X34026666Y-104996059D01*
X34293333Y-104996059D01*
X34360000Y-105029393D01*
X34393333Y-105062726D01*
X34426666Y-105129393D01*
X34426666Y-105229393D01*
X34393333Y-105296059D01*
X34360000Y-105329393D01*
X34293333Y-105362726D01*
X34026666Y-105362726D01*
X34726666Y-105696059D02*
X34726666Y-104996059D01*
X35126666Y-105696059D01*
X35126666Y-104996059D01*
X35426666Y-105062726D02*
X35460000Y-105029393D01*
X35526666Y-104996059D01*
X35693333Y-104996059D01*
X35760000Y-105029393D01*
X35793333Y-105062726D01*
X35826666Y-105129393D01*
X35826666Y-105196059D01*
X35793333Y-105296059D01*
X35393333Y-105696059D01*
X35826666Y-105696059D01*
%TO.C,R12*%
X37916666Y-69242893D02*
X37583333Y-69476226D01*
X37916666Y-69642893D02*
X37216666Y-69642893D01*
X37216666Y-69376226D01*
X37250000Y-69309559D01*
X37283333Y-69276226D01*
X37350000Y-69242893D01*
X37450000Y-69242893D01*
X37516666Y-69276226D01*
X37550000Y-69309559D01*
X37583333Y-69376226D01*
X37583333Y-69642893D01*
X37916666Y-68576226D02*
X37916666Y-68976226D01*
X37916666Y-68776226D02*
X37216666Y-68776226D01*
X37316666Y-68842893D01*
X37383333Y-68909559D01*
X37416666Y-68976226D01*
X37283333Y-68309559D02*
X37250000Y-68276226D01*
X37216666Y-68209559D01*
X37216666Y-68042893D01*
X37250000Y-67976226D01*
X37283333Y-67942893D01*
X37350000Y-67909559D01*
X37416666Y-67909559D01*
X37516666Y-67942893D01*
X37916666Y-68342893D01*
X37916666Y-67909559D01*
%TO.C,R6*%
X43483333Y-76866666D02*
X43250000Y-76533333D01*
X43083333Y-76866666D02*
X43083333Y-76166666D01*
X43350000Y-76166666D01*
X43416666Y-76200000D01*
X43450000Y-76233333D01*
X43483333Y-76300000D01*
X43483333Y-76400000D01*
X43450000Y-76466666D01*
X43416666Y-76500000D01*
X43350000Y-76533333D01*
X43083333Y-76533333D01*
X44083333Y-76166666D02*
X43950000Y-76166666D01*
X43883333Y-76200000D01*
X43850000Y-76233333D01*
X43783333Y-76333333D01*
X43750000Y-76466666D01*
X43750000Y-76733333D01*
X43783333Y-76800000D01*
X43816666Y-76833333D01*
X43883333Y-76866666D01*
X44016666Y-76866666D01*
X44083333Y-76833333D01*
X44116666Y-76800000D01*
X44150000Y-76733333D01*
X44150000Y-76566666D01*
X44116666Y-76500000D01*
X44083333Y-76466666D01*
X44016666Y-76433333D01*
X43883333Y-76433333D01*
X43816666Y-76466666D01*
X43783333Y-76500000D01*
X43750000Y-76566666D01*
%TO.C,J19*%
X73793333Y-69709559D02*
X73793333Y-70209559D01*
X73760000Y-70309559D01*
X73693333Y-70376226D01*
X73593333Y-70409559D01*
X73526666Y-70409559D01*
X74493333Y-70409559D02*
X74093333Y-70409559D01*
X74293333Y-70409559D02*
X74293333Y-69709559D01*
X74226666Y-69809559D01*
X74160000Y-69876226D01*
X74093333Y-69909559D01*
X74826666Y-70409559D02*
X74960000Y-70409559D01*
X75026666Y-70376226D01*
X75060000Y-70342893D01*
X75126666Y-70242893D01*
X75160000Y-70109559D01*
X75160000Y-69842893D01*
X75126666Y-69776226D01*
X75093333Y-69742893D01*
X75026666Y-69709559D01*
X74893333Y-69709559D01*
X74826666Y-69742893D01*
X74793333Y-69776226D01*
X74760000Y-69842893D01*
X74760000Y-70009559D01*
X74793333Y-70076226D01*
X74826666Y-70109559D01*
X74893333Y-70142893D01*
X75026666Y-70142893D01*
X75093333Y-70109559D01*
X75126666Y-70076226D01*
X75160000Y-70009559D01*
%TO.C,R18*%
X40166666Y-38307107D02*
X39833333Y-38540440D01*
X40166666Y-38707107D02*
X39466666Y-38707107D01*
X39466666Y-38440440D01*
X39500000Y-38373773D01*
X39533333Y-38340440D01*
X39600000Y-38307107D01*
X39700000Y-38307107D01*
X39766666Y-38340440D01*
X39800000Y-38373773D01*
X39833333Y-38440440D01*
X39833333Y-38707107D01*
X40166666Y-37640440D02*
X40166666Y-38040440D01*
X40166666Y-37840440D02*
X39466666Y-37840440D01*
X39566666Y-37907107D01*
X39633333Y-37973773D01*
X39666666Y-38040440D01*
X39766666Y-37240440D02*
X39733333Y-37307107D01*
X39700000Y-37340440D01*
X39633333Y-37373773D01*
X39600000Y-37373773D01*
X39533333Y-37340440D01*
X39500000Y-37307107D01*
X39466666Y-37240440D01*
X39466666Y-37107107D01*
X39500000Y-37040440D01*
X39533333Y-37007107D01*
X39600000Y-36973773D01*
X39633333Y-36973773D01*
X39700000Y-37007107D01*
X39733333Y-37040440D01*
X39766666Y-37107107D01*
X39766666Y-37240440D01*
X39800000Y-37307107D01*
X39833333Y-37340440D01*
X39900000Y-37373773D01*
X40033333Y-37373773D01*
X40100000Y-37340440D01*
X40133333Y-37307107D01*
X40166666Y-37240440D01*
X40166666Y-37107107D01*
X40133333Y-37040440D01*
X40100000Y-37007107D01*
X40033333Y-36973773D01*
X39900000Y-36973773D01*
X39833333Y-37007107D01*
X39800000Y-37040440D01*
X39766666Y-37107107D01*
D11*
%TO.C,J6*%
X73566666Y-82745273D02*
X73566666Y-83459559D01*
X73519047Y-83602416D01*
X73423809Y-83697654D01*
X73280952Y-83745273D01*
X73185714Y-83745273D01*
X74471428Y-82745273D02*
X74280952Y-82745273D01*
X74185714Y-82792893D01*
X74138095Y-82840512D01*
X74042857Y-82983369D01*
X73995238Y-83173845D01*
X73995238Y-83554797D01*
X74042857Y-83650035D01*
X74090476Y-83697654D01*
X74185714Y-83745273D01*
X74376190Y-83745273D01*
X74471428Y-83697654D01*
X74519047Y-83650035D01*
X74566666Y-83554797D01*
X74566666Y-83316702D01*
X74519047Y-83221464D01*
X74471428Y-83173845D01*
X74376190Y-83126226D01*
X74185714Y-83126226D01*
X74090476Y-83173845D01*
X74042857Y-83221464D01*
X73995238Y-83316702D01*
D12*
%TO.C,D3*%
X47116666Y-71909559D02*
X46416666Y-71909559D01*
X46416666Y-71742893D01*
X46450000Y-71642893D01*
X46516666Y-71576226D01*
X46583333Y-71542893D01*
X46716666Y-71509559D01*
X46816666Y-71509559D01*
X46950000Y-71542893D01*
X47016666Y-71576226D01*
X47083333Y-71642893D01*
X47116666Y-71742893D01*
X47116666Y-71909559D01*
X46416666Y-71276226D02*
X46416666Y-70842893D01*
X46683333Y-71076226D01*
X46683333Y-70976226D01*
X46716666Y-70909559D01*
X46750000Y-70876226D01*
X46816666Y-70842893D01*
X46983333Y-70842893D01*
X47050000Y-70876226D01*
X47083333Y-70909559D01*
X47116666Y-70976226D01*
X47116666Y-71176226D01*
X47083333Y-71242893D01*
X47050000Y-71276226D01*
%TO.C,J5*%
X54566666Y-82259559D02*
X54566666Y-82759559D01*
X54533333Y-82859559D01*
X54466666Y-82926226D01*
X54366666Y-82959559D01*
X54300000Y-82959559D01*
X55233333Y-82259559D02*
X54900000Y-82259559D01*
X54866666Y-82592893D01*
X54900000Y-82559559D01*
X54966666Y-82526226D01*
X55133333Y-82526226D01*
X55200000Y-82559559D01*
X55233333Y-82592893D01*
X55266666Y-82659559D01*
X55266666Y-82826226D01*
X55233333Y-82892893D01*
X55200000Y-82926226D01*
X55133333Y-82959559D01*
X54966666Y-82959559D01*
X54900000Y-82926226D01*
X54866666Y-82892893D01*
%TO.C,JP6*%
X47216666Y-41383333D02*
X47716666Y-41383333D01*
X47816666Y-41416666D01*
X47883333Y-41483333D01*
X47916666Y-41583333D01*
X47916666Y-41650000D01*
X47916666Y-41050000D02*
X47216666Y-41050000D01*
X47216666Y-40783333D01*
X47250000Y-40716666D01*
X47283333Y-40683333D01*
X47350000Y-40650000D01*
X47450000Y-40650000D01*
X47516666Y-40683333D01*
X47550000Y-40716666D01*
X47583333Y-40783333D01*
X47583333Y-41050000D01*
X47216666Y-40050000D02*
X47216666Y-40183333D01*
X47250000Y-40250000D01*
X47283333Y-40283333D01*
X47383333Y-40350000D01*
X47516666Y-40383333D01*
X47783333Y-40383333D01*
X47850000Y-40350000D01*
X47883333Y-40316666D01*
X47916666Y-40250000D01*
X47916666Y-40116666D01*
X47883333Y-40050000D01*
X47850000Y-40016666D01*
X47783333Y-39983333D01*
X47616666Y-39983333D01*
X47550000Y-40016666D01*
X47516666Y-40050000D01*
X47483333Y-40116666D01*
X47483333Y-40250000D01*
X47516666Y-40316666D01*
X47550000Y-40350000D01*
X47616666Y-40383333D01*
%TO.C,J11*%
X78133333Y-25616666D02*
X78133333Y-26116666D01*
X78100000Y-26216666D01*
X78033333Y-26283333D01*
X77933333Y-26316666D01*
X77866666Y-26316666D01*
X78833333Y-26316666D02*
X78433333Y-26316666D01*
X78633333Y-26316666D02*
X78633333Y-25616666D01*
X78566666Y-25716666D01*
X78500000Y-25783333D01*
X78433333Y-25816666D01*
X79500000Y-26316666D02*
X79100000Y-26316666D01*
X79300000Y-26316666D02*
X79300000Y-25616666D01*
X79233333Y-25716666D01*
X79166666Y-25783333D01*
X79100000Y-25816666D01*
D14*
%TO.C,J8*%
X14633333Y-57311904D02*
X14633333Y-57883333D01*
X14595238Y-57997619D01*
X14519047Y-58073809D01*
X14404761Y-58111904D01*
X14328571Y-58111904D01*
X15128571Y-57654761D02*
X15052380Y-57616666D01*
X15014285Y-57578571D01*
X14976190Y-57502380D01*
X14976190Y-57464285D01*
X15014285Y-57388095D01*
X15052380Y-57350000D01*
X15128571Y-57311904D01*
X15280952Y-57311904D01*
X15357142Y-57350000D01*
X15395238Y-57388095D01*
X15433333Y-57464285D01*
X15433333Y-57502380D01*
X15395238Y-57578571D01*
X15357142Y-57616666D01*
X15280952Y-57654761D01*
X15128571Y-57654761D01*
X15052380Y-57692857D01*
X15014285Y-57730952D01*
X14976190Y-57807142D01*
X14976190Y-57959523D01*
X15014285Y-58035714D01*
X15052380Y-58073809D01*
X15128571Y-58111904D01*
X15280952Y-58111904D01*
X15357142Y-58073809D01*
X15395238Y-58035714D01*
X15433333Y-57959523D01*
X15433333Y-57807142D01*
X15395238Y-57730952D01*
X15357142Y-57692857D01*
X15280952Y-57654761D01*
D12*
%TO.C,R19*%
X38896666Y-38297107D02*
X38563333Y-38530440D01*
X38896666Y-38697107D02*
X38196666Y-38697107D01*
X38196666Y-38430440D01*
X38230000Y-38363773D01*
X38263333Y-38330440D01*
X38330000Y-38297107D01*
X38430000Y-38297107D01*
X38496666Y-38330440D01*
X38530000Y-38363773D01*
X38563333Y-38430440D01*
X38563333Y-38697107D01*
X38896666Y-37630440D02*
X38896666Y-38030440D01*
X38896666Y-37830440D02*
X38196666Y-37830440D01*
X38296666Y-37897107D01*
X38363333Y-37963773D01*
X38396666Y-38030440D01*
X38896666Y-37297107D02*
X38896666Y-37163773D01*
X38863333Y-37097107D01*
X38830000Y-37063773D01*
X38730000Y-36997107D01*
X38596666Y-36963773D01*
X38330000Y-36963773D01*
X38263333Y-36997107D01*
X38230000Y-37030440D01*
X38196666Y-37097107D01*
X38196666Y-37230440D01*
X38230000Y-37297107D01*
X38263333Y-37330440D01*
X38330000Y-37363773D01*
X38496666Y-37363773D01*
X38563333Y-37330440D01*
X38596666Y-37297107D01*
X38630000Y-37230440D01*
X38630000Y-37097107D01*
X38596666Y-37030440D01*
X38563333Y-36997107D01*
X38496666Y-36963773D01*
%TO.C,J18*%
X68833333Y-61816666D02*
X68833333Y-62316666D01*
X68800000Y-62416666D01*
X68733333Y-62483333D01*
X68633333Y-62516666D01*
X68566666Y-62516666D01*
X69533333Y-62516666D02*
X69133333Y-62516666D01*
X69333333Y-62516666D02*
X69333333Y-61816666D01*
X69266666Y-61916666D01*
X69200000Y-61983333D01*
X69133333Y-62016666D01*
X69933333Y-62116666D02*
X69866666Y-62083333D01*
X69833333Y-62050000D01*
X69800000Y-61983333D01*
X69800000Y-61950000D01*
X69833333Y-61883333D01*
X69866666Y-61850000D01*
X69933333Y-61816666D01*
X70066666Y-61816666D01*
X70133333Y-61850000D01*
X70166666Y-61883333D01*
X70200000Y-61950000D01*
X70200000Y-61983333D01*
X70166666Y-62050000D01*
X70133333Y-62083333D01*
X70066666Y-62116666D01*
X69933333Y-62116666D01*
X69866666Y-62150000D01*
X69833333Y-62183333D01*
X69800000Y-62250000D01*
X69800000Y-62383333D01*
X69833333Y-62450000D01*
X69866666Y-62483333D01*
X69933333Y-62516666D01*
X70066666Y-62516666D01*
X70133333Y-62483333D01*
X70166666Y-62450000D01*
X70200000Y-62383333D01*
X70200000Y-62250000D01*
X70166666Y-62183333D01*
X70133333Y-62150000D01*
X70066666Y-62116666D01*
%TO.C,JP5*%
X66916666Y-38283333D02*
X67416666Y-38283333D01*
X67516666Y-38316666D01*
X67583333Y-38383333D01*
X67616666Y-38483333D01*
X67616666Y-38550000D01*
X67616666Y-37950000D02*
X66916666Y-37950000D01*
X66916666Y-37683333D01*
X66950000Y-37616666D01*
X66983333Y-37583333D01*
X67050000Y-37550000D01*
X67150000Y-37550000D01*
X67216666Y-37583333D01*
X67250000Y-37616666D01*
X67283333Y-37683333D01*
X67283333Y-37950000D01*
X66916666Y-36916666D02*
X66916666Y-37250000D01*
X67250000Y-37283333D01*
X67216666Y-37250000D01*
X67183333Y-37183333D01*
X67183333Y-37016666D01*
X67216666Y-36950000D01*
X67250000Y-36916666D01*
X67316666Y-36883333D01*
X67483333Y-36883333D01*
X67550000Y-36916666D01*
X67583333Y-36950000D01*
X67616666Y-37016666D01*
X67616666Y-37183333D01*
X67583333Y-37250000D01*
X67550000Y-37283333D01*
%TO.C,J17*%
X57043333Y-55616666D02*
X57043333Y-56116666D01*
X57010000Y-56216666D01*
X56943333Y-56283333D01*
X56843333Y-56316666D01*
X56776666Y-56316666D01*
X57743333Y-56316666D02*
X57343333Y-56316666D01*
X57543333Y-56316666D02*
X57543333Y-55616666D01*
X57476666Y-55716666D01*
X57410000Y-55783333D01*
X57343333Y-55816666D01*
X57976666Y-55616666D02*
X58443333Y-55616666D01*
X58143333Y-56316666D01*
D14*
%TO.C,J15*%
X10052380Y-73961904D02*
X10052380Y-74533333D01*
X10014285Y-74647619D01*
X9938095Y-74723809D01*
X9823809Y-74761904D01*
X9747619Y-74761904D01*
X10852380Y-74761904D02*
X10395238Y-74761904D01*
X10623809Y-74761904D02*
X10623809Y-73961904D01*
X10547619Y-74076190D01*
X10471428Y-74152380D01*
X10395238Y-74190476D01*
X11576190Y-73961904D02*
X11195238Y-73961904D01*
X11157142Y-74342857D01*
X11195238Y-74304761D01*
X11271428Y-74266666D01*
X11461904Y-74266666D01*
X11538095Y-74304761D01*
X11576190Y-74342857D01*
X11614285Y-74419047D01*
X11614285Y-74609523D01*
X11576190Y-74685714D01*
X11538095Y-74723809D01*
X11461904Y-74761904D01*
X11271428Y-74761904D01*
X11195238Y-74723809D01*
X11157142Y-74685714D01*
D12*
%TO.C,R16*%
X46050000Y-141366666D02*
X45816666Y-141033333D01*
X45650000Y-141366666D02*
X45650000Y-140666666D01*
X45916666Y-140666666D01*
X45983333Y-140700000D01*
X46016666Y-140733333D01*
X46050000Y-140800000D01*
X46050000Y-140900000D01*
X46016666Y-140966666D01*
X45983333Y-141000000D01*
X45916666Y-141033333D01*
X45650000Y-141033333D01*
X46716666Y-141366666D02*
X46316666Y-141366666D01*
X46516666Y-141366666D02*
X46516666Y-140666666D01*
X46450000Y-140766666D01*
X46383333Y-140833333D01*
X46316666Y-140866666D01*
X47316666Y-140666666D02*
X47183333Y-140666666D01*
X47116666Y-140700000D01*
X47083333Y-140733333D01*
X47016666Y-140833333D01*
X46983333Y-140966666D01*
X46983333Y-141233333D01*
X47016666Y-141300000D01*
X47050000Y-141333333D01*
X47116666Y-141366666D01*
X47250000Y-141366666D01*
X47316666Y-141333333D01*
X47350000Y-141300000D01*
X47383333Y-141233333D01*
X47383333Y-141066666D01*
X47350000Y-141000000D01*
X47316666Y-140966666D01*
X47250000Y-140933333D01*
X47116666Y-140933333D01*
X47050000Y-140966666D01*
X47016666Y-141000000D01*
X46983333Y-141066666D01*
%TO.C,R7*%
X23358333Y-61016666D02*
X23125000Y-60683333D01*
X22958333Y-61016666D02*
X22958333Y-60316666D01*
X23225000Y-60316666D01*
X23291666Y-60350000D01*
X23325000Y-60383333D01*
X23358333Y-60450000D01*
X23358333Y-60550000D01*
X23325000Y-60616666D01*
X23291666Y-60650000D01*
X23225000Y-60683333D01*
X22958333Y-60683333D01*
X23591666Y-60316666D02*
X24058333Y-60316666D01*
X23758333Y-61016666D01*
%TO.C,D5*%
X48433333Y-82466666D02*
X48433333Y-81766666D01*
X48600000Y-81766666D01*
X48700000Y-81800000D01*
X48766666Y-81866666D01*
X48800000Y-81933333D01*
X48833333Y-82066666D01*
X48833333Y-82166666D01*
X48800000Y-82300000D01*
X48766666Y-82366666D01*
X48700000Y-82433333D01*
X48600000Y-82466666D01*
X48433333Y-82466666D01*
X49466666Y-81766666D02*
X49133333Y-81766666D01*
X49100000Y-82100000D01*
X49133333Y-82066666D01*
X49200000Y-82033333D01*
X49366666Y-82033333D01*
X49433333Y-82066666D01*
X49466666Y-82100000D01*
X49500000Y-82166666D01*
X49500000Y-82333333D01*
X49466666Y-82400000D01*
X49433333Y-82433333D01*
X49366666Y-82466666D01*
X49200000Y-82466666D01*
X49133333Y-82433333D01*
X49100000Y-82400000D01*
%TO.C,JP7*%
X47116666Y-31483333D02*
X47616666Y-31483333D01*
X47716666Y-31516666D01*
X47783333Y-31583333D01*
X47816666Y-31683333D01*
X47816666Y-31750000D01*
X47816666Y-31150000D02*
X47116666Y-31150000D01*
X47116666Y-30883333D01*
X47150000Y-30816666D01*
X47183333Y-30783333D01*
X47250000Y-30750000D01*
X47350000Y-30750000D01*
X47416666Y-30783333D01*
X47450000Y-30816666D01*
X47483333Y-30883333D01*
X47483333Y-31150000D01*
X47116666Y-30516666D02*
X47116666Y-30050000D01*
X47816666Y-30350000D01*
D11*
%TO.C,H2*%
X76716602Y-169761904D02*
X75716602Y-169761904D01*
X76192793Y-169761904D02*
X76192793Y-169190476D01*
X76716602Y-169190476D02*
X75716602Y-169190476D01*
X75811841Y-168761904D02*
X75764222Y-168714285D01*
X75716602Y-168619047D01*
X75716602Y-168380952D01*
X75764222Y-168285714D01*
X75811841Y-168238095D01*
X75907079Y-168190476D01*
X76002317Y-168190476D01*
X76145174Y-168238095D01*
X76716602Y-168809523D01*
X76716602Y-168190476D01*
D12*
%TO.C,R5*%
X65466666Y-80359559D02*
X65133333Y-80592893D01*
X65466666Y-80759559D02*
X64766666Y-80759559D01*
X64766666Y-80492893D01*
X64800000Y-80426226D01*
X64833333Y-80392893D01*
X64900000Y-80359559D01*
X65000000Y-80359559D01*
X65066666Y-80392893D01*
X65100000Y-80426226D01*
X65133333Y-80492893D01*
X65133333Y-80759559D01*
X64766666Y-79726226D02*
X64766666Y-80059559D01*
X65100000Y-80092893D01*
X65066666Y-80059559D01*
X65033333Y-79992893D01*
X65033333Y-79826226D01*
X65066666Y-79759559D01*
X65100000Y-79726226D01*
X65166666Y-79692893D01*
X65333333Y-79692893D01*
X65400000Y-79726226D01*
X65433333Y-79759559D01*
X65466666Y-79826226D01*
X65466666Y-79992893D01*
X65433333Y-80059559D01*
X65400000Y-80092893D01*
%TO.C,Q4*%
X38933333Y-43023773D02*
X38900000Y-43090440D01*
X38833333Y-43157107D01*
X38733333Y-43257107D01*
X38700000Y-43323773D01*
X38700000Y-43390440D01*
X38866666Y-43357107D02*
X38833333Y-43423773D01*
X38766666Y-43490440D01*
X38633333Y-43523773D01*
X38400000Y-43523773D01*
X38266666Y-43490440D01*
X38200000Y-43423773D01*
X38166666Y-43357107D01*
X38166666Y-43223773D01*
X38200000Y-43157107D01*
X38266666Y-43090440D01*
X38400000Y-43057107D01*
X38633333Y-43057107D01*
X38766666Y-43090440D01*
X38833333Y-43157107D01*
X38866666Y-43223773D01*
X38866666Y-43357107D01*
X38400000Y-42457107D02*
X38866666Y-42457107D01*
X38133333Y-42623773D02*
X38633333Y-42790440D01*
X38633333Y-42357107D01*
%TO.C,Q2*%
X19583333Y-70833333D02*
X19516666Y-70800000D01*
X19450000Y-70733333D01*
X19350000Y-70633333D01*
X19283333Y-70600000D01*
X19216666Y-70600000D01*
X19250000Y-70766666D02*
X19183333Y-70733333D01*
X19116666Y-70666666D01*
X19083333Y-70533333D01*
X19083333Y-70300000D01*
X19116666Y-70166666D01*
X19183333Y-70100000D01*
X19250000Y-70066666D01*
X19383333Y-70066666D01*
X19450000Y-70100000D01*
X19516666Y-70166666D01*
X19550000Y-70300000D01*
X19550000Y-70533333D01*
X19516666Y-70666666D01*
X19450000Y-70733333D01*
X19383333Y-70766666D01*
X19250000Y-70766666D01*
X19816666Y-70133333D02*
X19850000Y-70100000D01*
X19916666Y-70066666D01*
X20083333Y-70066666D01*
X20150000Y-70100000D01*
X20183333Y-70133333D01*
X20216666Y-70200000D01*
X20216666Y-70266666D01*
X20183333Y-70366666D01*
X19783333Y-70766666D01*
X20216666Y-70766666D01*
%TO.C,R8*%
X17408333Y-61466666D02*
X17175000Y-61133333D01*
X17008333Y-61466666D02*
X17008333Y-60766666D01*
X17275000Y-60766666D01*
X17341666Y-60800000D01*
X17375000Y-60833333D01*
X17408333Y-60900000D01*
X17408333Y-61000000D01*
X17375000Y-61066666D01*
X17341666Y-61100000D01*
X17275000Y-61133333D01*
X17008333Y-61133333D01*
X17808333Y-61066666D02*
X17741666Y-61033333D01*
X17708333Y-61000000D01*
X17675000Y-60933333D01*
X17675000Y-60900000D01*
X17708333Y-60833333D01*
X17741666Y-60800000D01*
X17808333Y-60766666D01*
X17941666Y-60766666D01*
X18008333Y-60800000D01*
X18041666Y-60833333D01*
X18075000Y-60900000D01*
X18075000Y-60933333D01*
X18041666Y-61000000D01*
X18008333Y-61033333D01*
X17941666Y-61066666D01*
X17808333Y-61066666D01*
X17741666Y-61100000D01*
X17708333Y-61133333D01*
X17675000Y-61200000D01*
X17675000Y-61333333D01*
X17708333Y-61400000D01*
X17741666Y-61433333D01*
X17808333Y-61466666D01*
X17941666Y-61466666D01*
X18008333Y-61433333D01*
X18041666Y-61400000D01*
X18075000Y-61333333D01*
X18075000Y-61200000D01*
X18041666Y-61133333D01*
X18008333Y-61100000D01*
X17941666Y-61066666D01*
%TO.C,D1*%
X45716666Y-69166666D02*
X45016666Y-69166666D01*
X45016666Y-69000000D01*
X45050000Y-68900000D01*
X45116666Y-68833333D01*
X45183333Y-68800000D01*
X45316666Y-68766666D01*
X45416666Y-68766666D01*
X45550000Y-68800000D01*
X45616666Y-68833333D01*
X45683333Y-68900000D01*
X45716666Y-69000000D01*
X45716666Y-69166666D01*
X45716666Y-68100000D02*
X45716666Y-68500000D01*
X45716666Y-68300000D02*
X45016666Y-68300000D01*
X45116666Y-68366666D01*
X45183333Y-68433333D01*
X45216666Y-68500000D01*
%TO.C,C6*%
X29625000Y-72251665D02*
X29658333Y-72284999D01*
X29691666Y-72384999D01*
X29691666Y-72451665D01*
X29658333Y-72551665D01*
X29591666Y-72618332D01*
X29525000Y-72651665D01*
X29391666Y-72684999D01*
X29291666Y-72684999D01*
X29158333Y-72651665D01*
X29091666Y-72618332D01*
X29025000Y-72551665D01*
X28991666Y-72451665D01*
X28991666Y-72384999D01*
X29025000Y-72284999D01*
X29058333Y-72251665D01*
X28991666Y-71651665D02*
X28991666Y-71784999D01*
X29025000Y-71851665D01*
X29058333Y-71884999D01*
X29158333Y-71951665D01*
X29291666Y-71984999D01*
X29558333Y-71984999D01*
X29625000Y-71951665D01*
X29658333Y-71918332D01*
X29691666Y-71851665D01*
X29691666Y-71718332D01*
X29658333Y-71651665D01*
X29625000Y-71618332D01*
X29558333Y-71584999D01*
X29391666Y-71584999D01*
X29325000Y-71618332D01*
X29291666Y-71651665D01*
X29258333Y-71718332D01*
X29258333Y-71851665D01*
X29291666Y-71918332D01*
X29325000Y-71951665D01*
X29391666Y-71984999D01*
%TO.C,R15*%
X46050000Y-143866666D02*
X45816666Y-143533333D01*
X45650000Y-143866666D02*
X45650000Y-143166666D01*
X45916666Y-143166666D01*
X45983333Y-143200000D01*
X46016666Y-143233333D01*
X46050000Y-143300000D01*
X46050000Y-143400000D01*
X46016666Y-143466666D01*
X45983333Y-143500000D01*
X45916666Y-143533333D01*
X45650000Y-143533333D01*
X46716666Y-143866666D02*
X46316666Y-143866666D01*
X46516666Y-143866666D02*
X46516666Y-143166666D01*
X46450000Y-143266666D01*
X46383333Y-143333333D01*
X46316666Y-143366666D01*
X47350000Y-143166666D02*
X47016666Y-143166666D01*
X46983333Y-143500000D01*
X47016666Y-143466666D01*
X47083333Y-143433333D01*
X47250000Y-143433333D01*
X47316666Y-143466666D01*
X47350000Y-143500000D01*
X47383333Y-143566666D01*
X47383333Y-143733333D01*
X47350000Y-143800000D01*
X47316666Y-143833333D01*
X47250000Y-143866666D01*
X47083333Y-143866666D01*
X47016666Y-143833333D01*
X46983333Y-143800000D01*
%TO.C,JP4*%
X67016666Y-26240440D02*
X67516666Y-26240440D01*
X67616666Y-26273773D01*
X67683333Y-26340440D01*
X67716666Y-26440440D01*
X67716666Y-26507107D01*
X67716666Y-25907107D02*
X67016666Y-25907107D01*
X67016666Y-25640440D01*
X67050000Y-25573773D01*
X67083333Y-25540440D01*
X67150000Y-25507107D01*
X67250000Y-25507107D01*
X67316666Y-25540440D01*
X67350000Y-25573773D01*
X67383333Y-25640440D01*
X67383333Y-25907107D01*
X67250000Y-24907107D02*
X67716666Y-24907107D01*
X66983333Y-25073773D02*
X67483333Y-25240440D01*
X67483333Y-24807107D01*
%TO.C,J13*%
X78833333Y-38616666D02*
X78833333Y-39116666D01*
X78800000Y-39216666D01*
X78733333Y-39283333D01*
X78633333Y-39316666D01*
X78566666Y-39316666D01*
X79533333Y-39316666D02*
X79133333Y-39316666D01*
X79333333Y-39316666D02*
X79333333Y-38616666D01*
X79266666Y-38716666D01*
X79200000Y-38783333D01*
X79133333Y-38816666D01*
X79766666Y-38616666D02*
X80200000Y-38616666D01*
X79966666Y-38883333D01*
X80066666Y-38883333D01*
X80133333Y-38916666D01*
X80166666Y-38950000D01*
X80200000Y-39016666D01*
X80200000Y-39183333D01*
X80166666Y-39250000D01*
X80133333Y-39283333D01*
X80066666Y-39316666D01*
X79866666Y-39316666D01*
X79800000Y-39283333D01*
X79766666Y-39250000D01*
%TO.C,C4*%
X38950000Y-83376666D02*
X38983333Y-83410000D01*
X39016666Y-83510000D01*
X39016666Y-83576666D01*
X38983333Y-83676666D01*
X38916666Y-83743333D01*
X38850000Y-83776666D01*
X38716666Y-83810000D01*
X38616666Y-83810000D01*
X38483333Y-83776666D01*
X38416666Y-83743333D01*
X38350000Y-83676666D01*
X38316666Y-83576666D01*
X38316666Y-83510000D01*
X38350000Y-83410000D01*
X38383333Y-83376666D01*
X38550000Y-82776666D02*
X39016666Y-82776666D01*
X38283333Y-82943333D02*
X38783333Y-83110000D01*
X38783333Y-82676666D01*
%TO.C,J16*%
X78233333Y-51716666D02*
X78233333Y-52216666D01*
X78200000Y-52316666D01*
X78133333Y-52383333D01*
X78033333Y-52416666D01*
X77966666Y-52416666D01*
X78933333Y-52416666D02*
X78533333Y-52416666D01*
X78733333Y-52416666D02*
X78733333Y-51716666D01*
X78666666Y-51816666D01*
X78600000Y-51883333D01*
X78533333Y-51916666D01*
X79533333Y-51716666D02*
X79400000Y-51716666D01*
X79333333Y-51750000D01*
X79300000Y-51783333D01*
X79233333Y-51883333D01*
X79200000Y-52016666D01*
X79200000Y-52283333D01*
X79233333Y-52350000D01*
X79266666Y-52383333D01*
X79333333Y-52416666D01*
X79466666Y-52416666D01*
X79533333Y-52383333D01*
X79566666Y-52350000D01*
X79600000Y-52283333D01*
X79600000Y-52116666D01*
X79566666Y-52050000D01*
X79533333Y-52016666D01*
X79466666Y-51983333D01*
X79333333Y-51983333D01*
X79266666Y-52016666D01*
X79233333Y-52050000D01*
X79200000Y-52116666D01*
%TO.C,K1*%
X38016666Y-36016666D02*
X37316666Y-36016666D01*
X38016666Y-35616666D02*
X37616666Y-35916666D01*
X37316666Y-35616666D02*
X37716666Y-36016666D01*
X38016666Y-34950000D02*
X38016666Y-35350000D01*
X38016666Y-35150000D02*
X37316666Y-35150000D01*
X37416666Y-35216666D01*
X37483333Y-35283333D01*
X37516666Y-35350000D01*
%TO.C,R17*%
X46050000Y-138766666D02*
X45816666Y-138433333D01*
X45650000Y-138766666D02*
X45650000Y-138066666D01*
X45916666Y-138066666D01*
X45983333Y-138100000D01*
X46016666Y-138133333D01*
X46050000Y-138200000D01*
X46050000Y-138300000D01*
X46016666Y-138366666D01*
X45983333Y-138400000D01*
X45916666Y-138433333D01*
X45650000Y-138433333D01*
X46716666Y-138766666D02*
X46316666Y-138766666D01*
X46516666Y-138766666D02*
X46516666Y-138066666D01*
X46450000Y-138166666D01*
X46383333Y-138233333D01*
X46316666Y-138266666D01*
X46950000Y-138066666D02*
X47416666Y-138066666D01*
X47116666Y-138766666D01*
D11*
%TO.C,U3*%
X40188095Y-122952380D02*
X40188095Y-123761904D01*
X40235714Y-123857142D01*
X40283333Y-123904761D01*
X40378571Y-123952380D01*
X40569047Y-123952380D01*
X40664285Y-123904761D01*
X40711904Y-123857142D01*
X40759523Y-123761904D01*
X40759523Y-122952380D01*
X41140476Y-122952380D02*
X41759523Y-122952380D01*
X41426190Y-123333333D01*
X41569047Y-123333333D01*
X41664285Y-123380952D01*
X41711904Y-123428571D01*
X41759523Y-123523809D01*
X41759523Y-123761904D01*
X41711904Y-123857142D01*
X41664285Y-123904761D01*
X41569047Y-123952380D01*
X41283333Y-123952380D01*
X41188095Y-123904761D01*
X41140476Y-123857142D01*
%TO.C,U8*%
X96348095Y-142652380D02*
X96348095Y-143461904D01*
X96395714Y-143557142D01*
X96443333Y-143604761D01*
X96538571Y-143652380D01*
X96729047Y-143652380D01*
X96824285Y-143604761D01*
X96871904Y-143557142D01*
X96919523Y-143461904D01*
X96919523Y-142652380D01*
X97538571Y-143080952D02*
X97443333Y-143033333D01*
X97395714Y-142985714D01*
X97348095Y-142890476D01*
X97348095Y-142842857D01*
X97395714Y-142747619D01*
X97443333Y-142700000D01*
X97538571Y-142652380D01*
X97729047Y-142652380D01*
X97824285Y-142700000D01*
X97871904Y-142747619D01*
X97919523Y-142842857D01*
X97919523Y-142890476D01*
X97871904Y-142985714D01*
X97824285Y-143033333D01*
X97729047Y-143080952D01*
X97538571Y-143080952D01*
X97443333Y-143128571D01*
X97395714Y-143176190D01*
X97348095Y-143271428D01*
X97348095Y-143461904D01*
X97395714Y-143557142D01*
X97443333Y-143604761D01*
X97538571Y-143652380D01*
X97729047Y-143652380D01*
X97824285Y-143604761D01*
X97871904Y-143557142D01*
X97919523Y-143461904D01*
X97919523Y-143271428D01*
X97871904Y-143176190D01*
X97824285Y-143128571D01*
X97729047Y-143080952D01*
D12*
%TO.C,J14*%
X57033333Y-36916666D02*
X57033333Y-37416666D01*
X57000000Y-37516666D01*
X56933333Y-37583333D01*
X56833333Y-37616666D01*
X56766666Y-37616666D01*
X57733333Y-37616666D02*
X57333333Y-37616666D01*
X57533333Y-37616666D02*
X57533333Y-36916666D01*
X57466666Y-37016666D01*
X57400000Y-37083333D01*
X57333333Y-37116666D01*
X58333333Y-37150000D02*
X58333333Y-37616666D01*
X58166666Y-36883333D02*
X58000000Y-37383333D01*
X58433333Y-37383333D01*
%TO.C,JP3*%
X47016666Y-53183333D02*
X47516666Y-53183333D01*
X47616666Y-53216666D01*
X47683333Y-53283333D01*
X47716666Y-53383333D01*
X47716666Y-53450000D01*
X47716666Y-52850000D02*
X47016666Y-52850000D01*
X47016666Y-52583333D01*
X47050000Y-52516666D01*
X47083333Y-52483333D01*
X47150000Y-52450000D01*
X47250000Y-52450000D01*
X47316666Y-52483333D01*
X47350000Y-52516666D01*
X47383333Y-52583333D01*
X47383333Y-52850000D01*
X47016666Y-52216666D02*
X47016666Y-51783333D01*
X47283333Y-52016666D01*
X47283333Y-51916666D01*
X47316666Y-51850000D01*
X47350000Y-51816666D01*
X47416666Y-51783333D01*
X47583333Y-51783333D01*
X47650000Y-51816666D01*
X47683333Y-51850000D01*
X47716666Y-51916666D01*
X47716666Y-52116666D01*
X47683333Y-52183333D01*
X47650000Y-52216666D01*
%TO.C,H3*%
X23566666Y-100309559D02*
X23566666Y-99609559D01*
X23566666Y-99942893D02*
X23966666Y-99942893D01*
X23966666Y-100309559D02*
X23966666Y-99609559D01*
X24233333Y-99609559D02*
X24666666Y-99609559D01*
X24433333Y-99876226D01*
X24533333Y-99876226D01*
X24600000Y-99909559D01*
X24633333Y-99942893D01*
X24666666Y-100009559D01*
X24666666Y-100176226D01*
X24633333Y-100242893D01*
X24600000Y-100276226D01*
X24533333Y-100309559D01*
X24333333Y-100309559D01*
X24266666Y-100276226D01*
X24233333Y-100242893D01*
D11*
%TO.C,H1*%
X79238095Y-96702380D02*
X79238095Y-95702380D01*
X79238095Y-96178571D02*
X79809523Y-96178571D01*
X79809523Y-96702380D02*
X79809523Y-95702380D01*
X80809523Y-96702380D02*
X80238095Y-96702380D01*
X80523809Y-96702380D02*
X80523809Y-95702380D01*
X80428571Y-95845238D01*
X80333333Y-95940476D01*
X80238095Y-95988095D01*
D12*
%TO.C,RN1*%
X34616666Y-147816666D02*
X34383333Y-147483333D01*
X34216666Y-147816666D02*
X34216666Y-147116666D01*
X34483333Y-147116666D01*
X34550000Y-147150000D01*
X34583333Y-147183333D01*
X34616666Y-147250000D01*
X34616666Y-147350000D01*
X34583333Y-147416666D01*
X34550000Y-147450000D01*
X34483333Y-147483333D01*
X34216666Y-147483333D01*
X34916666Y-147816666D02*
X34916666Y-147116666D01*
X35316666Y-147816666D01*
X35316666Y-147116666D01*
X36016666Y-147816666D02*
X35616666Y-147816666D01*
X35816666Y-147816666D02*
X35816666Y-147116666D01*
X35750000Y-147216666D01*
X35683333Y-147283333D01*
X35616666Y-147316666D01*
%TO.C,C11*%
X46900000Y-124842893D02*
X46933333Y-124876226D01*
X46966666Y-124976226D01*
X46966666Y-125042893D01*
X46933333Y-125142893D01*
X46866666Y-125209559D01*
X46800000Y-125242893D01*
X46666666Y-125276226D01*
X46566666Y-125276226D01*
X46433333Y-125242893D01*
X46366666Y-125209559D01*
X46300000Y-125142893D01*
X46266666Y-125042893D01*
X46266666Y-124976226D01*
X46300000Y-124876226D01*
X46333333Y-124842893D01*
X46966666Y-124176226D02*
X46966666Y-124576226D01*
X46966666Y-124376226D02*
X46266666Y-124376226D01*
X46366666Y-124442893D01*
X46433333Y-124509559D01*
X46466666Y-124576226D01*
X46966666Y-123509559D02*
X46966666Y-123909559D01*
X46966666Y-123709559D02*
X46266666Y-123709559D01*
X46366666Y-123776226D01*
X46433333Y-123842893D01*
X46466666Y-123909559D01*
%TO.C,C2*%
X51650000Y-73816666D02*
X51683333Y-73850000D01*
X51716666Y-73950000D01*
X51716666Y-74016666D01*
X51683333Y-74116666D01*
X51616666Y-74183333D01*
X51550000Y-74216666D01*
X51416666Y-74250000D01*
X51316666Y-74250000D01*
X51183333Y-74216666D01*
X51116666Y-74183333D01*
X51050000Y-74116666D01*
X51016666Y-74016666D01*
X51016666Y-73950000D01*
X51050000Y-73850000D01*
X51083333Y-73816666D01*
X51083333Y-73550000D02*
X51050000Y-73516666D01*
X51016666Y-73450000D01*
X51016666Y-73283333D01*
X51050000Y-73216666D01*
X51083333Y-73183333D01*
X51150000Y-73150000D01*
X51216666Y-73150000D01*
X51316666Y-73183333D01*
X51716666Y-73583333D01*
X51716666Y-73150000D01*
%TO.C,J4*%
X23416666Y-53966666D02*
X23416666Y-54466666D01*
X23383333Y-54566666D01*
X23316666Y-54633333D01*
X23216666Y-54666666D01*
X23150000Y-54666666D01*
X24050000Y-54200000D02*
X24050000Y-54666666D01*
X23883333Y-53933333D02*
X23716666Y-54433333D01*
X24150000Y-54433333D01*
%TO.C,R14*%
X46050000Y-146416666D02*
X45816666Y-146083333D01*
X45650000Y-146416666D02*
X45650000Y-145716666D01*
X45916666Y-145716666D01*
X45983333Y-145750000D01*
X46016666Y-145783333D01*
X46050000Y-145850000D01*
X46050000Y-145950000D01*
X46016666Y-146016666D01*
X45983333Y-146050000D01*
X45916666Y-146083333D01*
X45650000Y-146083333D01*
X46716666Y-146416666D02*
X46316666Y-146416666D01*
X46516666Y-146416666D02*
X46516666Y-145716666D01*
X46450000Y-145816666D01*
X46383333Y-145883333D01*
X46316666Y-145916666D01*
X47316666Y-145950000D02*
X47316666Y-146416666D01*
X47150000Y-145683333D02*
X46983333Y-146183333D01*
X47416666Y-146183333D01*
%TO.C,R20*%
X35535000Y-35988773D02*
X35301666Y-35655440D01*
X35135000Y-35988773D02*
X35135000Y-35288773D01*
X35401666Y-35288773D01*
X35468333Y-35322107D01*
X35501666Y-35355440D01*
X35535000Y-35422107D01*
X35535000Y-35522107D01*
X35501666Y-35588773D01*
X35468333Y-35622107D01*
X35401666Y-35655440D01*
X35135000Y-35655440D01*
X35801666Y-35355440D02*
X35835000Y-35322107D01*
X35901666Y-35288773D01*
X36068333Y-35288773D01*
X36135000Y-35322107D01*
X36168333Y-35355440D01*
X36201666Y-35422107D01*
X36201666Y-35488773D01*
X36168333Y-35588773D01*
X35768333Y-35988773D01*
X36201666Y-35988773D01*
X36635000Y-35288773D02*
X36701666Y-35288773D01*
X36768333Y-35322107D01*
X36801666Y-35355440D01*
X36835000Y-35422107D01*
X36868333Y-35555440D01*
X36868333Y-35722107D01*
X36835000Y-35855440D01*
X36801666Y-35922107D01*
X36768333Y-35955440D01*
X36701666Y-35988773D01*
X36635000Y-35988773D01*
X36568333Y-35955440D01*
X36535000Y-35922107D01*
X36501666Y-35855440D01*
X36468333Y-35722107D01*
X36468333Y-35555440D01*
X36501666Y-35422107D01*
X36535000Y-35355440D01*
X36568333Y-35322107D01*
X36635000Y-35288773D01*
%TO.C,C8*%
X42633333Y-68650000D02*
X42600000Y-68683333D01*
X42500000Y-68716666D01*
X42433333Y-68716666D01*
X42333333Y-68683333D01*
X42266666Y-68616666D01*
X42233333Y-68550000D01*
X42200000Y-68416666D01*
X42200000Y-68316666D01*
X42233333Y-68183333D01*
X42266666Y-68116666D01*
X42333333Y-68050000D01*
X42433333Y-68016666D01*
X42500000Y-68016666D01*
X42600000Y-68050000D01*
X42633333Y-68083333D01*
X43033333Y-68316666D02*
X42966666Y-68283333D01*
X42933333Y-68250000D01*
X42900000Y-68183333D01*
X42900000Y-68150000D01*
X42933333Y-68083333D01*
X42966666Y-68050000D01*
X43033333Y-68016666D01*
X43166666Y-68016666D01*
X43233333Y-68050000D01*
X43266666Y-68083333D01*
X43300000Y-68150000D01*
X43300000Y-68183333D01*
X43266666Y-68250000D01*
X43233333Y-68283333D01*
X43166666Y-68316666D01*
X43033333Y-68316666D01*
X42966666Y-68350000D01*
X42933333Y-68383333D01*
X42900000Y-68450000D01*
X42900000Y-68583333D01*
X42933333Y-68650000D01*
X42966666Y-68683333D01*
X43033333Y-68716666D01*
X43166666Y-68716666D01*
X43233333Y-68683333D01*
X43266666Y-68650000D01*
X43300000Y-68583333D01*
X43300000Y-68450000D01*
X43266666Y-68383333D01*
X43233333Y-68350000D01*
X43166666Y-68316666D01*
%TO.C,J10*%
X80333333Y-69816666D02*
X80333333Y-70316666D01*
X80300000Y-70416666D01*
X80233333Y-70483333D01*
X80133333Y-70516666D01*
X80066666Y-70516666D01*
X81033333Y-70516666D02*
X80633333Y-70516666D01*
X80833333Y-70516666D02*
X80833333Y-69816666D01*
X80766666Y-69916666D01*
X80700000Y-69983333D01*
X80633333Y-70016666D01*
X81466666Y-69816666D02*
X81533333Y-69816666D01*
X81600000Y-69850000D01*
X81633333Y-69883333D01*
X81666666Y-69950000D01*
X81700000Y-70083333D01*
X81700000Y-70250000D01*
X81666666Y-70383333D01*
X81633333Y-70450000D01*
X81600000Y-70483333D01*
X81533333Y-70516666D01*
X81466666Y-70516666D01*
X81400000Y-70483333D01*
X81366666Y-70450000D01*
X81333333Y-70383333D01*
X81300000Y-70250000D01*
X81300000Y-70083333D01*
X81333333Y-69950000D01*
X81366666Y-69883333D01*
X81400000Y-69850000D01*
X81466666Y-69816666D01*
%TO.C,C10*%
X35675000Y-108284393D02*
X35708333Y-108317726D01*
X35741666Y-108417726D01*
X35741666Y-108484393D01*
X35708333Y-108584393D01*
X35641666Y-108651059D01*
X35575000Y-108684393D01*
X35441666Y-108717726D01*
X35341666Y-108717726D01*
X35208333Y-108684393D01*
X35141666Y-108651059D01*
X35075000Y-108584393D01*
X35041666Y-108484393D01*
X35041666Y-108417726D01*
X35075000Y-108317726D01*
X35108333Y-108284393D01*
X35741666Y-107617726D02*
X35741666Y-108017726D01*
X35741666Y-107817726D02*
X35041666Y-107817726D01*
X35141666Y-107884393D01*
X35208333Y-107951059D01*
X35241666Y-108017726D01*
X35041666Y-107184393D02*
X35041666Y-107117726D01*
X35075000Y-107051059D01*
X35108333Y-107017726D01*
X35175000Y-106984393D01*
X35308333Y-106951059D01*
X35475000Y-106951059D01*
X35608333Y-106984393D01*
X35675000Y-107017726D01*
X35708333Y-107051059D01*
X35741666Y-107117726D01*
X35741666Y-107184393D01*
X35708333Y-107251059D01*
X35675000Y-107284393D01*
X35608333Y-107317726D01*
X35475000Y-107351059D01*
X35308333Y-107351059D01*
X35175000Y-107317726D01*
X35108333Y-107284393D01*
X35075000Y-107251059D01*
X35041666Y-107184393D01*
%TO.C,D4*%
X48433333Y-80966666D02*
X48433333Y-80266666D01*
X48600000Y-80266666D01*
X48700000Y-80300000D01*
X48766666Y-80366666D01*
X48800000Y-80433333D01*
X48833333Y-80566666D01*
X48833333Y-80666666D01*
X48800000Y-80800000D01*
X48766666Y-80866666D01*
X48700000Y-80933333D01*
X48600000Y-80966666D01*
X48433333Y-80966666D01*
X49433333Y-80500000D02*
X49433333Y-80966666D01*
X49266666Y-80233333D02*
X49100000Y-80733333D01*
X49533333Y-80733333D01*
%TO.C,R9*%
X23483333Y-56566666D02*
X23250000Y-56233333D01*
X23083333Y-56566666D02*
X23083333Y-55866666D01*
X23350000Y-55866666D01*
X23416666Y-55900000D01*
X23450000Y-55933333D01*
X23483333Y-56000000D01*
X23483333Y-56100000D01*
X23450000Y-56166666D01*
X23416666Y-56200000D01*
X23350000Y-56233333D01*
X23083333Y-56233333D01*
X23816666Y-56566666D02*
X23950000Y-56566666D01*
X24016666Y-56533333D01*
X24050000Y-56500000D01*
X24116666Y-56400000D01*
X24150000Y-56266666D01*
X24150000Y-56000000D01*
X24116666Y-55933333D01*
X24083333Y-55900000D01*
X24016666Y-55866666D01*
X23883333Y-55866666D01*
X23816666Y-55900000D01*
X23783333Y-55933333D01*
X23750000Y-56000000D01*
X23750000Y-56166666D01*
X23783333Y-56233333D01*
X23816666Y-56266666D01*
X23883333Y-56300000D01*
X24016666Y-56300000D01*
X24083333Y-56266666D01*
X24116666Y-56233333D01*
X24150000Y-56166666D01*
%TO.C,C7*%
X43450000Y-60131666D02*
X43483333Y-60165000D01*
X43516666Y-60265000D01*
X43516666Y-60331666D01*
X43483333Y-60431666D01*
X43416666Y-60498333D01*
X43350000Y-60531666D01*
X43216666Y-60565000D01*
X43116666Y-60565000D01*
X42983333Y-60531666D01*
X42916666Y-60498333D01*
X42850000Y-60431666D01*
X42816666Y-60331666D01*
X42816666Y-60265000D01*
X42850000Y-60165000D01*
X42883333Y-60131666D01*
X42816666Y-59898333D02*
X42816666Y-59431666D01*
X43516666Y-59731666D01*
D11*
%TO.C,Q3*%
X41104761Y-83997619D02*
X41009523Y-83950000D01*
X40914285Y-83854761D01*
X40771428Y-83711904D01*
X40676190Y-83664285D01*
X40580952Y-83664285D01*
X40628571Y-83902380D02*
X40533333Y-83854761D01*
X40438095Y-83759523D01*
X40390476Y-83569047D01*
X40390476Y-83235714D01*
X40438095Y-83045238D01*
X40533333Y-82950000D01*
X40628571Y-82902380D01*
X40819047Y-82902380D01*
X40914285Y-82950000D01*
X41009523Y-83045238D01*
X41057142Y-83235714D01*
X41057142Y-83569047D01*
X41009523Y-83759523D01*
X40914285Y-83854761D01*
X40819047Y-83902380D01*
X40628571Y-83902380D01*
X41390476Y-82902380D02*
X42009523Y-82902380D01*
X41676190Y-83283333D01*
X41819047Y-83283333D01*
X41914285Y-83330952D01*
X41961904Y-83378571D01*
X42009523Y-83473809D01*
X42009523Y-83711904D01*
X41961904Y-83807142D01*
X41914285Y-83854761D01*
X41819047Y-83902380D01*
X41533333Y-83902380D01*
X41438095Y-83854761D01*
X41390476Y-83807142D01*
D12*
%TO.C,JP2*%
X60116666Y-16016666D02*
X60116666Y-16516666D01*
X60083333Y-16616666D01*
X60016666Y-16683333D01*
X59916666Y-16716666D01*
X59850000Y-16716666D01*
X60450000Y-16716666D02*
X60450000Y-16016666D01*
X60716666Y-16016666D01*
X60783333Y-16050000D01*
X60816666Y-16083333D01*
X60850000Y-16150000D01*
X60850000Y-16250000D01*
X60816666Y-16316666D01*
X60783333Y-16350000D01*
X60716666Y-16383333D01*
X60450000Y-16383333D01*
X61116666Y-16083333D02*
X61150000Y-16050000D01*
X61216666Y-16016666D01*
X61383333Y-16016666D01*
X61450000Y-16050000D01*
X61483333Y-16083333D01*
X61516666Y-16150000D01*
X61516666Y-16216666D01*
X61483333Y-16316666D01*
X61083333Y-16716666D01*
X61516666Y-16716666D01*
%TO.C,JP1*%
X67216666Y-78609559D02*
X67216666Y-79109559D01*
X67183333Y-79209559D01*
X67116666Y-79276226D01*
X67016666Y-79309559D01*
X66950000Y-79309559D01*
X67550000Y-79309559D02*
X67550000Y-78609559D01*
X67816666Y-78609559D01*
X67883333Y-78642893D01*
X67916666Y-78676226D01*
X67950000Y-78742893D01*
X67950000Y-78842893D01*
X67916666Y-78909559D01*
X67883333Y-78942893D01*
X67816666Y-78976226D01*
X67550000Y-78976226D01*
X68616666Y-79309559D02*
X68216666Y-79309559D01*
X68416666Y-79309559D02*
X68416666Y-78609559D01*
X68350000Y-78709559D01*
X68283333Y-78776226D01*
X68216666Y-78809559D01*
%TO.C,R11*%
X38600000Y-78366666D02*
X38366666Y-78033333D01*
X38200000Y-78366666D02*
X38200000Y-77666666D01*
X38466666Y-77666666D01*
X38533333Y-77700000D01*
X38566666Y-77733333D01*
X38600000Y-77800000D01*
X38600000Y-77900000D01*
X38566666Y-77966666D01*
X38533333Y-78000000D01*
X38466666Y-78033333D01*
X38200000Y-78033333D01*
X39266666Y-78366666D02*
X38866666Y-78366666D01*
X39066666Y-78366666D02*
X39066666Y-77666666D01*
X39000000Y-77766666D01*
X38933333Y-77833333D01*
X38866666Y-77866666D01*
X39933333Y-78366666D02*
X39533333Y-78366666D01*
X39733333Y-78366666D02*
X39733333Y-77666666D01*
X39666666Y-77766666D01*
X39600000Y-77833333D01*
X39533333Y-77866666D01*
%TO.C,R2*%
X47741666Y-63916666D02*
X47408333Y-64150000D01*
X47741666Y-64316666D02*
X47041666Y-64316666D01*
X47041666Y-64050000D01*
X47075000Y-63983333D01*
X47108333Y-63950000D01*
X47175000Y-63916666D01*
X47275000Y-63916666D01*
X47341666Y-63950000D01*
X47375000Y-63983333D01*
X47408333Y-64050000D01*
X47408333Y-64316666D01*
X47108333Y-63650000D02*
X47075000Y-63616666D01*
X47041666Y-63550000D01*
X47041666Y-63383333D01*
X47075000Y-63316666D01*
X47108333Y-63283333D01*
X47175000Y-63250000D01*
X47241666Y-63250000D01*
X47341666Y-63283333D01*
X47741666Y-63683333D01*
X47741666Y-63250000D01*
%TO.C,RN3*%
X46416666Y-103699559D02*
X46183333Y-103366226D01*
X46016666Y-103699559D02*
X46016666Y-102999559D01*
X46283333Y-102999559D01*
X46350000Y-103032893D01*
X46383333Y-103066226D01*
X46416666Y-103132893D01*
X46416666Y-103232893D01*
X46383333Y-103299559D01*
X46350000Y-103332893D01*
X46283333Y-103366226D01*
X46016666Y-103366226D01*
X46716666Y-103699559D02*
X46716666Y-102999559D01*
X47116666Y-103699559D01*
X47116666Y-102999559D01*
X47383333Y-102999559D02*
X47816666Y-102999559D01*
X47583333Y-103266226D01*
X47683333Y-103266226D01*
X47750000Y-103299559D01*
X47783333Y-103332893D01*
X47816666Y-103399559D01*
X47816666Y-103566226D01*
X47783333Y-103632893D01*
X47750000Y-103666226D01*
X47683333Y-103699559D01*
X47483333Y-103699559D01*
X47416666Y-103666226D01*
X47383333Y-103632893D01*
%TO.C,JP8*%
X66916666Y-49483333D02*
X67416666Y-49483333D01*
X67516666Y-49516666D01*
X67583333Y-49583333D01*
X67616666Y-49683333D01*
X67616666Y-49750000D01*
X67616666Y-49150000D02*
X66916666Y-49150000D01*
X66916666Y-48883333D01*
X66950000Y-48816666D01*
X66983333Y-48783333D01*
X67050000Y-48750000D01*
X67150000Y-48750000D01*
X67216666Y-48783333D01*
X67250000Y-48816666D01*
X67283333Y-48883333D01*
X67283333Y-49150000D01*
X67216666Y-48350000D02*
X67183333Y-48416666D01*
X67150000Y-48450000D01*
X67083333Y-48483333D01*
X67050000Y-48483333D01*
X66983333Y-48450000D01*
X66950000Y-48416666D01*
X66916666Y-48350000D01*
X66916666Y-48216666D01*
X66950000Y-48150000D01*
X66983333Y-48116666D01*
X67050000Y-48083333D01*
X67083333Y-48083333D01*
X67150000Y-48116666D01*
X67183333Y-48150000D01*
X67216666Y-48216666D01*
X67216666Y-48350000D01*
X67250000Y-48416666D01*
X67283333Y-48450000D01*
X67350000Y-48483333D01*
X67483333Y-48483333D01*
X67550000Y-48450000D01*
X67583333Y-48416666D01*
X67616666Y-48350000D01*
X67616666Y-48216666D01*
X67583333Y-48150000D01*
X67550000Y-48116666D01*
X67483333Y-48083333D01*
X67350000Y-48083333D01*
X67283333Y-48116666D01*
X67250000Y-48150000D01*
X67216666Y-48216666D01*
%TO.C,C12*%
X45975000Y-109089393D02*
X45941666Y-109122726D01*
X45841666Y-109156059D01*
X45775000Y-109156059D01*
X45675000Y-109122726D01*
X45608333Y-109056059D01*
X45575000Y-108989393D01*
X45541666Y-108856059D01*
X45541666Y-108756059D01*
X45575000Y-108622726D01*
X45608333Y-108556059D01*
X45675000Y-108489393D01*
X45775000Y-108456059D01*
X45841666Y-108456059D01*
X45941666Y-108489393D01*
X45975000Y-108522726D01*
X46641666Y-109156059D02*
X46241666Y-109156059D01*
X46441666Y-109156059D02*
X46441666Y-108456059D01*
X46375000Y-108556059D01*
X46308333Y-108622726D01*
X46241666Y-108656059D01*
X46908333Y-108522726D02*
X46941666Y-108489393D01*
X47008333Y-108456059D01*
X47175000Y-108456059D01*
X47241666Y-108489393D01*
X47275000Y-108522726D01*
X47308333Y-108589393D01*
X47308333Y-108656059D01*
X47275000Y-108756059D01*
X46875000Y-109156059D01*
X47308333Y-109156059D01*
%TO.C,D7*%
X40716666Y-23466666D02*
X40016666Y-23466666D01*
X40016666Y-23300000D01*
X40050000Y-23200000D01*
X40116666Y-23133333D01*
X40183333Y-23100000D01*
X40316666Y-23066666D01*
X40416666Y-23066666D01*
X40550000Y-23100000D01*
X40616666Y-23133333D01*
X40683333Y-23200000D01*
X40716666Y-23300000D01*
X40716666Y-23466666D01*
X40016666Y-22833333D02*
X40016666Y-22366666D01*
X40716666Y-22666666D01*
D11*
%TO.C,U7*%
X84068095Y-142702380D02*
X84068095Y-143511904D01*
X84115714Y-143607142D01*
X84163333Y-143654761D01*
X84258571Y-143702380D01*
X84449047Y-143702380D01*
X84544285Y-143654761D01*
X84591904Y-143607142D01*
X84639523Y-143511904D01*
X84639523Y-142702380D01*
X85020476Y-142702380D02*
X85687142Y-142702380D01*
X85258571Y-143702380D01*
D12*
%TO.C,U5*%
X39591666Y-97351059D02*
X39591666Y-97917726D01*
X39625000Y-97984393D01*
X39658333Y-98017726D01*
X39725000Y-98051059D01*
X39858333Y-98051059D01*
X39925000Y-98017726D01*
X39958333Y-97984393D01*
X39991666Y-97917726D01*
X39991666Y-97351059D01*
X40658333Y-97351059D02*
X40325000Y-97351059D01*
X40291666Y-97684393D01*
X40325000Y-97651059D01*
X40391666Y-97617726D01*
X40558333Y-97617726D01*
X40625000Y-97651059D01*
X40658333Y-97684393D01*
X40691666Y-97751059D01*
X40691666Y-97917726D01*
X40658333Y-97984393D01*
X40625000Y-98017726D01*
X40558333Y-98051059D01*
X40391666Y-98051059D01*
X40325000Y-98017726D01*
X40291666Y-97984393D01*
%TO.C,R3*%
X49433333Y-76091666D02*
X49200000Y-75758333D01*
X49033333Y-76091666D02*
X49033333Y-75391666D01*
X49300000Y-75391666D01*
X49366666Y-75425000D01*
X49400000Y-75458333D01*
X49433333Y-75525000D01*
X49433333Y-75625000D01*
X49400000Y-75691666D01*
X49366666Y-75725000D01*
X49300000Y-75758333D01*
X49033333Y-75758333D01*
X49666666Y-75391666D02*
X50100000Y-75391666D01*
X49866666Y-75658333D01*
X49966666Y-75658333D01*
X50033333Y-75691666D01*
X50066666Y-75725000D01*
X50100000Y-75791666D01*
X50100000Y-75958333D01*
X50066666Y-76025000D01*
X50033333Y-76058333D01*
X49966666Y-76091666D01*
X49766666Y-76091666D01*
X49700000Y-76058333D01*
X49666666Y-76025000D01*
D11*
%TO.C,J3*%
X49766666Y-70202380D02*
X49766666Y-70916666D01*
X49719047Y-71059523D01*
X49623809Y-71154761D01*
X49480952Y-71202380D01*
X49385714Y-71202380D01*
X50147619Y-70202380D02*
X50766666Y-70202380D01*
X50433333Y-70583333D01*
X50576190Y-70583333D01*
X50671428Y-70630952D01*
X50719047Y-70678571D01*
X50766666Y-70773809D01*
X50766666Y-71011904D01*
X50719047Y-71107142D01*
X50671428Y-71154761D01*
X50576190Y-71202380D01*
X50290476Y-71202380D01*
X50195238Y-71154761D01*
X50147619Y-71107142D01*
D12*
%TO.C,H4*%
X23466666Y-169209559D02*
X23466666Y-168509559D01*
X23466666Y-168842893D02*
X23866666Y-168842893D01*
X23866666Y-169209559D02*
X23866666Y-168509559D01*
X24500000Y-168742893D02*
X24500000Y-169209559D01*
X24333333Y-168476226D02*
X24166666Y-168976226D01*
X24600000Y-168976226D01*
%TO.C,J7*%
X20792666Y-161669559D02*
X20792666Y-162169559D01*
X20759333Y-162269559D01*
X20692666Y-162336226D01*
X20592666Y-162369559D01*
X20526000Y-162369559D01*
X21059333Y-161669559D02*
X21526000Y-161669559D01*
X21226000Y-162369559D01*
%TO.C,U1*%
X29266666Y-75043332D02*
X29833333Y-75043332D01*
X29900000Y-75009999D01*
X29933333Y-74976665D01*
X29966666Y-74909999D01*
X29966666Y-74776665D01*
X29933333Y-74709999D01*
X29900000Y-74676665D01*
X29833333Y-74643332D01*
X29266666Y-74643332D01*
X29966666Y-73943332D02*
X29966666Y-74343332D01*
X29966666Y-74143332D02*
X29266666Y-74143332D01*
X29366666Y-74209999D01*
X29433333Y-74276665D01*
X29466666Y-74343332D01*
%TO.C,D2*%
X48516666Y-71871202D02*
X47816666Y-71871202D01*
X47816666Y-71704536D01*
X47850000Y-71604536D01*
X47916666Y-71537869D01*
X47983333Y-71504536D01*
X48116666Y-71471202D01*
X48216666Y-71471202D01*
X48350000Y-71504536D01*
X48416666Y-71537869D01*
X48483333Y-71604536D01*
X48516666Y-71704536D01*
X48516666Y-71871202D01*
X47883333Y-71204536D02*
X47850000Y-71171202D01*
X47816666Y-71104536D01*
X47816666Y-70937869D01*
X47850000Y-70871202D01*
X47883333Y-70837869D01*
X47950000Y-70804536D01*
X48016666Y-70804536D01*
X48116666Y-70837869D01*
X48516666Y-71237869D01*
X48516666Y-70804536D01*
%TO.C,C3*%
X23483333Y-57899999D02*
X23450000Y-57933332D01*
X23350000Y-57966665D01*
X23283333Y-57966665D01*
X23183333Y-57933332D01*
X23116666Y-57866665D01*
X23083333Y-57799999D01*
X23050000Y-57666665D01*
X23050000Y-57566665D01*
X23083333Y-57433332D01*
X23116666Y-57366665D01*
X23183333Y-57299999D01*
X23283333Y-57266665D01*
X23350000Y-57266665D01*
X23450000Y-57299999D01*
X23483333Y-57333332D01*
X23716666Y-57266665D02*
X24150000Y-57266665D01*
X23916666Y-57533332D01*
X24016666Y-57533332D01*
X24083333Y-57566665D01*
X24116666Y-57599999D01*
X24150000Y-57666665D01*
X24150000Y-57833332D01*
X24116666Y-57899999D01*
X24083333Y-57933332D01*
X24016666Y-57966665D01*
X23816666Y-57966665D01*
X23750000Y-57933332D01*
X23716666Y-57899999D01*
D11*
%TO.C,U6*%
X80088095Y-159852380D02*
X80088095Y-160661904D01*
X80135714Y-160757142D01*
X80183333Y-160804761D01*
X80278571Y-160852380D01*
X80469047Y-160852380D01*
X80564285Y-160804761D01*
X80611904Y-160757142D01*
X80659523Y-160661904D01*
X80659523Y-159852380D01*
X81564285Y-159852380D02*
X81373809Y-159852380D01*
X81278571Y-159900000D01*
X81230952Y-159947619D01*
X81135714Y-160090476D01*
X81088095Y-160280952D01*
X81088095Y-160661904D01*
X81135714Y-160757142D01*
X81183333Y-160804761D01*
X81278571Y-160852380D01*
X81469047Y-160852380D01*
X81564285Y-160804761D01*
X81611904Y-160757142D01*
X81659523Y-160661904D01*
X81659523Y-160423809D01*
X81611904Y-160328571D01*
X81564285Y-160280952D01*
X81469047Y-160233333D01*
X81278571Y-160233333D01*
X81183333Y-160280952D01*
X81135714Y-160328571D01*
X81088095Y-160423809D01*
D12*
%TO.C,R13*%
X43624466Y-150733400D02*
X43291133Y-150966733D01*
X43624466Y-151133400D02*
X42924466Y-151133400D01*
X42924466Y-150866733D01*
X42957800Y-150800066D01*
X42991133Y-150766733D01*
X43057800Y-150733400D01*
X43157800Y-150733400D01*
X43224466Y-150766733D01*
X43257800Y-150800066D01*
X43291133Y-150866733D01*
X43291133Y-151133400D01*
X43624466Y-150066733D02*
X43624466Y-150466733D01*
X43624466Y-150266733D02*
X42924466Y-150266733D01*
X43024466Y-150333400D01*
X43091133Y-150400066D01*
X43124466Y-150466733D01*
X42924466Y-149833400D02*
X42924466Y-149400066D01*
X43191133Y-149633400D01*
X43191133Y-149533400D01*
X43224466Y-149466733D01*
X43257800Y-149433400D01*
X43324466Y-149400066D01*
X43491133Y-149400066D01*
X43557800Y-149433400D01*
X43591133Y-149466733D01*
X43624466Y-149533400D01*
X43624466Y-149733400D01*
X43591133Y-149800066D01*
X43557800Y-149833400D01*
%TO.C,Q1*%
X46895833Y-78383333D02*
X46829166Y-78350000D01*
X46762500Y-78283333D01*
X46662500Y-78183333D01*
X46595833Y-78150000D01*
X46529166Y-78150000D01*
X46562500Y-78316666D02*
X46495833Y-78283333D01*
X46429166Y-78216666D01*
X46395833Y-78083333D01*
X46395833Y-77850000D01*
X46429166Y-77716666D01*
X46495833Y-77650000D01*
X46562500Y-77616666D01*
X46695833Y-77616666D01*
X46762500Y-77650000D01*
X46829166Y-77716666D01*
X46862500Y-77850000D01*
X46862500Y-78083333D01*
X46829166Y-78216666D01*
X46762500Y-78283333D01*
X46695833Y-78316666D01*
X46562500Y-78316666D01*
X47529166Y-78316666D02*
X47129166Y-78316666D01*
X47329166Y-78316666D02*
X47329166Y-77616666D01*
X47262500Y-77716666D01*
X47195833Y-77783333D01*
X47129166Y-77816666D01*
%TO.C,U4*%
X40366666Y-138016666D02*
X40366666Y-138583333D01*
X40400000Y-138650000D01*
X40433333Y-138683333D01*
X40500000Y-138716666D01*
X40633333Y-138716666D01*
X40700000Y-138683333D01*
X40733333Y-138650000D01*
X40766666Y-138583333D01*
X40766666Y-138016666D01*
X41400000Y-138250000D02*
X41400000Y-138716666D01*
X41233333Y-137983333D02*
X41066666Y-138483333D01*
X41500000Y-138483333D01*
%TO.C,R10*%
X43966666Y-78500000D02*
X43633333Y-78733333D01*
X43966666Y-78900000D02*
X43266666Y-78900000D01*
X43266666Y-78633333D01*
X43300000Y-78566666D01*
X43333333Y-78533333D01*
X43400000Y-78500000D01*
X43500000Y-78500000D01*
X43566666Y-78533333D01*
X43600000Y-78566666D01*
X43633333Y-78633333D01*
X43633333Y-78900000D01*
X43966666Y-77833333D02*
X43966666Y-78233333D01*
X43966666Y-78033333D02*
X43266666Y-78033333D01*
X43366666Y-78100000D01*
X43433333Y-78166666D01*
X43466666Y-78233333D01*
X43266666Y-77400000D02*
X43266666Y-77333333D01*
X43300000Y-77266666D01*
X43333333Y-77233333D01*
X43400000Y-77200000D01*
X43533333Y-77166666D01*
X43700000Y-77166666D01*
X43833333Y-77200000D01*
X43900000Y-77233333D01*
X43933333Y-77266666D01*
X43966666Y-77333333D01*
X43966666Y-77400000D01*
X43933333Y-77466666D01*
X43900000Y-77500000D01*
X43833333Y-77533333D01*
X43700000Y-77566666D01*
X43533333Y-77566666D01*
X43400000Y-77533333D01*
X43333333Y-77500000D01*
X43300000Y-77466666D01*
X43266666Y-77400000D01*
%TO.C,C9*%
X35500000Y-139177672D02*
X35533333Y-139211006D01*
X35566666Y-139311006D01*
X35566666Y-139377672D01*
X35533333Y-139477672D01*
X35466666Y-139544339D01*
X35400000Y-139577672D01*
X35266666Y-139611006D01*
X35166666Y-139611006D01*
X35033333Y-139577672D01*
X34966666Y-139544339D01*
X34900000Y-139477672D01*
X34866666Y-139377672D01*
X34866666Y-139311006D01*
X34900000Y-139211006D01*
X34933333Y-139177672D01*
X35566666Y-138844339D02*
X35566666Y-138711006D01*
X35533333Y-138644339D01*
X35500000Y-138611006D01*
X35400000Y-138544339D01*
X35266666Y-138511006D01*
X35000000Y-138511006D01*
X34933333Y-138544339D01*
X34900000Y-138577672D01*
X34866666Y-138644339D01*
X34866666Y-138777672D01*
X34900000Y-138844339D01*
X34933333Y-138877672D01*
X35000000Y-138911006D01*
X35166666Y-138911006D01*
X35233333Y-138877672D01*
X35266666Y-138844339D01*
X35300000Y-138777672D01*
X35300000Y-138644339D01*
X35266666Y-138577672D01*
X35233333Y-138544339D01*
X35166666Y-138511006D01*
D11*
%TO.C,J20*%
X9990476Y-35152380D02*
X9990476Y-35866666D01*
X9942857Y-36009523D01*
X9847619Y-36104761D01*
X9704761Y-36152380D01*
X9609523Y-36152380D01*
X10419047Y-35247619D02*
X10466666Y-35200000D01*
X10561904Y-35152380D01*
X10800000Y-35152380D01*
X10895238Y-35200000D01*
X10942857Y-35247619D01*
X10990476Y-35342857D01*
X10990476Y-35438095D01*
X10942857Y-35580952D01*
X10371428Y-36152380D01*
X10990476Y-36152380D01*
X11609523Y-35152380D02*
X11704761Y-35152380D01*
X11800000Y-35200000D01*
X11847619Y-35247619D01*
X11895238Y-35342857D01*
X11942857Y-35533333D01*
X11942857Y-35771428D01*
X11895238Y-35961904D01*
X11847619Y-36057142D01*
X11800000Y-36104761D01*
X11704761Y-36152380D01*
X11609523Y-36152380D01*
X11514285Y-36104761D01*
X11466666Y-36057142D01*
X11419047Y-35961904D01*
X11371428Y-35771428D01*
X11371428Y-35533333D01*
X11419047Y-35342857D01*
X11466666Y-35247619D01*
X11514285Y-35200000D01*
X11609523Y-35152380D01*
D12*
%TO.C,U2*%
X38734075Y-108706059D02*
X38734075Y-109272726D01*
X38767409Y-109339393D01*
X38800742Y-109372726D01*
X38867409Y-109406059D01*
X39000742Y-109406059D01*
X39067409Y-109372726D01*
X39100742Y-109339393D01*
X39134075Y-109272726D01*
X39134075Y-108706059D01*
X39434075Y-108772726D02*
X39467409Y-108739393D01*
X39534075Y-108706059D01*
X39700742Y-108706059D01*
X39767409Y-108739393D01*
X39800742Y-108772726D01*
X39834075Y-108839393D01*
X39834075Y-108906059D01*
X39800742Y-109006059D01*
X39400742Y-109406059D01*
X39834075Y-109406059D01*
%TO.C,R4*%
X23358333Y-59516666D02*
X23125000Y-59183333D01*
X22958333Y-59516666D02*
X22958333Y-58816666D01*
X23225000Y-58816666D01*
X23291666Y-58850000D01*
X23325000Y-58883333D01*
X23358333Y-58950000D01*
X23358333Y-59050000D01*
X23325000Y-59116666D01*
X23291666Y-59150000D01*
X23225000Y-59183333D01*
X22958333Y-59183333D01*
X23958333Y-59050000D02*
X23958333Y-59516666D01*
X23791666Y-58783333D02*
X23625000Y-59283333D01*
X24058333Y-59283333D01*
%TO.C,D6*%
X25016666Y-72126666D02*
X24316666Y-72126666D01*
X24316666Y-71960000D01*
X24350000Y-71860000D01*
X24416666Y-71793333D01*
X24483333Y-71760000D01*
X24616666Y-71726666D01*
X24716666Y-71726666D01*
X24850000Y-71760000D01*
X24916666Y-71793333D01*
X24983333Y-71860000D01*
X25016666Y-71960000D01*
X25016666Y-72126666D01*
X24316666Y-71126666D02*
X24316666Y-71260000D01*
X24350000Y-71326666D01*
X24383333Y-71360000D01*
X24483333Y-71426666D01*
X24616666Y-71460000D01*
X24883333Y-71460000D01*
X24950000Y-71426666D01*
X24983333Y-71393333D01*
X25016666Y-71326666D01*
X25016666Y-71193333D01*
X24983333Y-71126666D01*
X24950000Y-71093333D01*
X24883333Y-71060000D01*
X24716666Y-71060000D01*
X24650000Y-71093333D01*
X24616666Y-71126666D01*
X24583333Y-71193333D01*
X24583333Y-71326666D01*
X24616666Y-71393333D01*
X24650000Y-71426666D01*
X24716666Y-71460000D01*
%TO.C,Q5*%
X34033333Y-40023773D02*
X34000000Y-40090440D01*
X33933333Y-40157107D01*
X33833333Y-40257107D01*
X33800000Y-40323773D01*
X33800000Y-40390440D01*
X33966666Y-40357107D02*
X33933333Y-40423773D01*
X33866666Y-40490440D01*
X33733333Y-40523773D01*
X33500000Y-40523773D01*
X33366666Y-40490440D01*
X33300000Y-40423773D01*
X33266666Y-40357107D01*
X33266666Y-40223773D01*
X33300000Y-40157107D01*
X33366666Y-40090440D01*
X33500000Y-40057107D01*
X33733333Y-40057107D01*
X33866666Y-40090440D01*
X33933333Y-40157107D01*
X33966666Y-40223773D01*
X33966666Y-40357107D01*
X33266666Y-39423773D02*
X33266666Y-39757107D01*
X33600000Y-39790440D01*
X33566666Y-39757107D01*
X33533333Y-39690440D01*
X33533333Y-39523773D01*
X33566666Y-39457107D01*
X33600000Y-39423773D01*
X33666666Y-39390440D01*
X33833333Y-39390440D01*
X33900000Y-39423773D01*
X33933333Y-39457107D01*
X33966666Y-39523773D01*
X33966666Y-39690440D01*
X33933333Y-39757107D01*
X33900000Y-39790440D01*
D11*
%TO.C,U9*%
X87125000Y-127500000D02*
X85700000Y-127500000D01*
X94375000Y-134525000D02*
X94375000Y-134200000D01*
X94375000Y-127275000D02*
X94050000Y-127275000D01*
X87125000Y-127275000D02*
X87125000Y-127500000D01*
X87125000Y-134525000D02*
X87125000Y-134200000D01*
X87125000Y-134525000D02*
X87450000Y-134525000D01*
X87125000Y-127275000D02*
X87450000Y-127275000D01*
X94375000Y-127275000D02*
X94375000Y-127600000D01*
X94375000Y-134525000D02*
X94050000Y-134525000D01*
D17*
%TO.C,L1*%
X38850000Y-55110000D02*
X38850000Y-58110000D01*
X26250000Y-55110000D02*
X38850000Y-55110000D01*
X38850000Y-67710000D02*
X26250000Y-67710000D01*
X26250000Y-67710000D02*
X26250000Y-64710000D01*
X26250000Y-58110000D02*
X26250000Y-55110000D01*
X38850000Y-64710000D02*
X38850000Y-67710000D01*
%TO.C,J12*%
X54505000Y-33565000D02*
X54505000Y-20535000D01*
X54005000Y-33565000D02*
X54505000Y-33565000D01*
X54005000Y-34985000D02*
X54005000Y-33565000D01*
X54005000Y-19115000D02*
X59765000Y-19115000D01*
X54505000Y-20535000D02*
X54005000Y-20535000D01*
X59765000Y-34985000D02*
X54005000Y-34985000D01*
X61285000Y-34985000D02*
X61595000Y-34985000D01*
X61595000Y-34985000D02*
X61595000Y-19115000D01*
X54005000Y-20535000D02*
X54005000Y-19115000D01*
X61595000Y-19115000D02*
X61285000Y-19115000D01*
%TO.C,C5*%
X37010000Y-73240580D02*
X37010000Y-72959420D01*
X35990000Y-73240580D02*
X35990000Y-72959420D01*
%TO.C,C1*%
X43890000Y-65784420D02*
X43890000Y-66065580D01*
X44910000Y-65784420D02*
X44910000Y-66065580D01*
%TO.C,RN2*%
X35400000Y-101409393D02*
X34400000Y-101409393D01*
X35400000Y-104769393D02*
X34400000Y-104769393D01*
%TO.C,R12*%
X36972499Y-69522742D02*
X36972499Y-69997258D01*
X35927499Y-69522742D02*
X35927499Y-69997258D01*
%TO.C,R6*%
X45322500Y-77762742D02*
X45322500Y-78237258D01*
X44277500Y-77762742D02*
X44277500Y-78237258D01*
%TO.C,J19*%
X66060000Y-64970000D02*
X66060000Y-65570000D01*
X71940000Y-69990000D02*
X71940000Y-70990000D01*
X65480000Y-64970000D02*
X65480000Y-70990000D01*
X66860000Y-70990000D02*
X66860000Y-69990000D01*
X67110000Y-70990000D02*
X67110000Y-69990000D01*
X73320000Y-64970000D02*
X65480000Y-64970000D01*
X73320000Y-70990000D02*
X73320000Y-64970000D01*
X67660000Y-65570000D02*
X67660000Y-64970000D01*
X72740000Y-65570000D02*
X72740000Y-64970000D01*
X71690000Y-69460000D02*
X71940000Y-69990000D01*
X67110000Y-69460000D02*
X71690000Y-69460000D01*
X71140000Y-64970000D02*
X71140000Y-65570000D01*
X66860000Y-69990000D02*
X71940000Y-69990000D01*
X65190000Y-66000000D02*
X65190000Y-70000000D01*
X68600000Y-64970000D02*
X68600000Y-65570000D01*
X71690000Y-70990000D02*
X71690000Y-69990000D01*
X70200000Y-65570000D02*
X70200000Y-64970000D01*
X71140000Y-65570000D02*
X72740000Y-65570000D01*
X65480000Y-70990000D02*
X73320000Y-70990000D01*
X66060000Y-65570000D02*
X67660000Y-65570000D01*
X66860000Y-69990000D02*
X67110000Y-69460000D01*
X68600000Y-65570000D02*
X70200000Y-65570000D01*
%TO.C,R18*%
X39667500Y-40594365D02*
X39667500Y-40119849D01*
X40712500Y-40594365D02*
X40712500Y-40119849D01*
%TO.C,J6*%
X82865000Y-82337893D02*
X82865000Y-72057893D01*
X79228000Y-75884893D02*
X79274000Y-75931893D01*
X79444000Y-75691893D02*
X79479000Y-75726893D01*
X83105000Y-82577893D02*
X83105000Y-82077893D01*
X76930000Y-73587893D02*
X76966000Y-73622893D01*
X72944000Y-82337893D02*
X82865000Y-82337893D01*
X82305000Y-82337893D02*
X82305000Y-72057893D01*
X75904000Y-82337893D02*
X75904000Y-72057893D01*
X80805000Y-82337893D02*
X80805000Y-72057893D01*
X77136000Y-73382893D02*
X77182000Y-73429893D01*
X72944000Y-82337893D02*
X72944000Y-72057893D01*
X72944000Y-72057893D02*
X82865000Y-72057893D01*
X82365000Y-82577893D02*
X83105000Y-82577893D01*
X77521000Y-81272893D02*
G75*
G03*
X78888042Y-81273320I684001J1534993D01*
G01*
X79740000Y-80421893D02*
G75*
G03*
X79885253Y-79709088I-1535001J683999D01*
G01*
X78889000Y-78202892D02*
G75*
G03*
X77521958Y-78202466I-684000J-1535001D01*
G01*
X79885000Y-79737893D02*
G75*
G03*
X79739756Y-79054575I-1680000J0D01*
G01*
X76670000Y-79053893D02*
G75*
G03*
X76669573Y-80420935I1534993J-684001D01*
G01*
X79885000Y-74657893D02*
G75*
G03*
X79885000Y-74657893I-1680000J0D01*
G01*
%TO.C,D3*%
X47000000Y-72592893D02*
X47000000Y-74442893D01*
X45800000Y-74442893D02*
X47000000Y-74442893D01*
X45800000Y-72592893D02*
X45800000Y-74442893D01*
%TO.C,J5*%
X62315000Y-74312893D02*
X63735000Y-74312893D01*
X63735000Y-74312893D02*
X63735000Y-80072893D01*
X53865000Y-81902893D02*
X63735000Y-81902893D01*
X53865000Y-81592893D02*
X53865000Y-81902893D01*
X55285000Y-74812893D02*
X62315000Y-74812893D01*
X53865000Y-80072893D02*
X53865000Y-74312893D01*
X62315000Y-74812893D02*
X62315000Y-74312893D01*
X55285000Y-74312893D02*
X55285000Y-74812893D01*
X63735000Y-81902893D02*
X63735000Y-81592893D01*
X53865000Y-74312893D02*
X55285000Y-74312893D01*
%TO.C,JP6*%
X44095000Y-42055000D02*
X44095000Y-36915000D01*
X46755000Y-43325000D02*
X46755000Y-44655000D01*
X46755000Y-36915000D02*
X44095000Y-36915000D01*
X46755000Y-44655000D02*
X45425000Y-44655000D01*
X46755000Y-42055000D02*
X44095000Y-42055000D01*
X46755000Y-42055000D02*
X46755000Y-36915000D01*
%TO.C,J11*%
X77108381Y-14235001D02*
X77108381Y-24975001D01*
X82408381Y-14235001D02*
X82408381Y-24975001D01*
X82868381Y-24975001D02*
X76548381Y-24975001D01*
X77048381Y-13995001D02*
X76308381Y-13995001D01*
X76308381Y-13995001D02*
X76308381Y-14495001D01*
X82868381Y-14235001D02*
X76548381Y-14235001D01*
X82868381Y-14235001D02*
X82868381Y-24975001D01*
X76548381Y-14235001D02*
X76548381Y-24975001D01*
%TO.C,J8*%
X7540000Y-56370000D02*
X7540000Y-57140000D01*
X13400000Y-56370000D02*
X13400000Y-62030000D01*
X8040000Y-56130000D02*
X7300000Y-56130000D01*
X7300000Y-56130000D02*
X7300000Y-56630000D01*
X13860000Y-62030000D02*
X7540000Y-62030000D01*
X8100000Y-61260000D02*
X8100000Y-62030000D01*
X8100000Y-56370000D02*
X8100000Y-57140000D01*
X13860000Y-56370000D02*
X13860000Y-62030000D01*
X13860000Y-56370000D02*
X7540000Y-56370000D01*
X8100000Y-58720000D02*
X8100000Y-59680000D01*
X7540000Y-58720000D02*
X7540000Y-59680000D01*
X7540000Y-61260000D02*
X7540000Y-62030000D01*
%TO.C,R19*%
X39072500Y-40119849D02*
X39072500Y-40594365D01*
X38027500Y-40119849D02*
X38027500Y-40594365D01*
%TO.C,J18*%
X73320000Y-61390000D02*
X73320000Y-55370000D01*
X71690000Y-59860000D02*
X71940000Y-60390000D01*
X71140000Y-55370000D02*
X71140000Y-55970000D01*
X68600000Y-55370000D02*
X68600000Y-55970000D01*
X65480000Y-61390000D02*
X73320000Y-61390000D01*
X66060000Y-55970000D02*
X67660000Y-55970000D01*
X71140000Y-55970000D02*
X72740000Y-55970000D01*
X66860000Y-60390000D02*
X71940000Y-60390000D01*
X67110000Y-61390000D02*
X67110000Y-60390000D01*
X66060000Y-55370000D02*
X66060000Y-55970000D01*
X67660000Y-55970000D02*
X67660000Y-55370000D01*
X65480000Y-55370000D02*
X65480000Y-61390000D01*
X71690000Y-61390000D02*
X71690000Y-60390000D01*
X65190000Y-56400000D02*
X65190000Y-60400000D01*
X71940000Y-60390000D02*
X71940000Y-61390000D01*
X73320000Y-55370000D02*
X65480000Y-55370000D01*
X67110000Y-59860000D02*
X71690000Y-59860000D01*
X66860000Y-60390000D02*
X67110000Y-59860000D01*
X72740000Y-55970000D02*
X72740000Y-55370000D01*
X66860000Y-61390000D02*
X66860000Y-60390000D01*
X68600000Y-55970000D02*
X70200000Y-55970000D01*
X70200000Y-55970000D02*
X70200000Y-55370000D01*
%TO.C,JP5*%
X71530000Y-36443380D02*
X71530000Y-31303380D01*
X71530000Y-31303380D02*
X68870000Y-31303380D01*
X71530000Y-37713380D02*
X71530000Y-39043380D01*
X71530000Y-36443380D02*
X68870000Y-36443380D01*
X68870000Y-36443380D02*
X68870000Y-31303380D01*
X71530000Y-39043380D02*
X70200000Y-39043380D01*
%TO.C,J17*%
X54005000Y-71165000D02*
X54505000Y-71165000D01*
X61595000Y-56715000D02*
X61285000Y-56715000D01*
X54005000Y-56715000D02*
X59765000Y-56715000D01*
X59765000Y-72585000D02*
X54005000Y-72585000D01*
X54005000Y-58135000D02*
X54005000Y-56715000D01*
X54505000Y-58135000D02*
X54005000Y-58135000D01*
X54005000Y-72585000D02*
X54005000Y-71165000D01*
X61595000Y-72585000D02*
X61595000Y-56715000D01*
X61285000Y-72585000D02*
X61595000Y-72585000D01*
X54505000Y-71165000D02*
X54505000Y-58135000D01*
%TO.C,J15*%
X13860000Y-73800000D02*
X7540000Y-73800000D01*
X8040000Y-62820000D02*
X7300000Y-62820000D01*
X13860000Y-63060000D02*
X13860000Y-73800000D01*
X13400000Y-63060000D02*
X13400000Y-73800000D01*
X13860000Y-63060000D02*
X7540000Y-63060000D01*
X8100000Y-63060000D02*
X8100000Y-73800000D01*
X7540000Y-63060000D02*
X7540000Y-73800000D01*
X7300000Y-62820000D02*
X7300000Y-63320000D01*
%TO.C,R16*%
X46262742Y-141627500D02*
X46737258Y-141627500D01*
X46262742Y-142672500D02*
X46737258Y-142672500D01*
%TO.C,R7*%
X21162742Y-61222500D02*
X21637258Y-61222500D01*
X21162742Y-60177500D02*
X21637258Y-60177500D01*
%TO.C,D5*%
X46350000Y-81550000D02*
X48200000Y-81550000D01*
X48200000Y-82750000D02*
X48200000Y-81550000D01*
X46350000Y-82750000D02*
X48200000Y-82750000D01*
%TO.C,JP7*%
X46755000Y-34830000D02*
X45425000Y-34830000D01*
X46755000Y-32230000D02*
X46755000Y-27090000D01*
X44095000Y-32230000D02*
X44095000Y-27090000D01*
X46755000Y-33500000D02*
X46755000Y-34830000D01*
X46755000Y-32230000D02*
X44095000Y-32230000D01*
X46755000Y-27090000D02*
X44095000Y-27090000D01*
%TO.C,R5*%
X64577500Y-78430151D02*
X64577500Y-77955635D01*
X65622500Y-78430151D02*
X65622500Y-77955635D01*
%TO.C,Q4*%
X36990000Y-43957107D02*
X36990000Y-44607107D01*
X40110000Y-43957107D02*
X40110000Y-44607107D01*
X40110000Y-43957107D02*
X40110000Y-42282107D01*
X36990000Y-43957107D02*
X36990000Y-43307107D01*
%TO.C,Q2*%
X22830000Y-69570000D02*
X22830000Y-70670000D01*
X16200000Y-69570000D02*
X16470000Y-69570000D01*
X16200000Y-68070000D02*
X16200000Y-69570000D01*
X23100000Y-69570000D02*
X22830000Y-69570000D01*
X23100000Y-68070000D02*
X23100000Y-69570000D01*
X16470000Y-69570000D02*
X16470000Y-72400000D01*
%TO.C,R8*%
X18477500Y-59662742D02*
X18477500Y-60137258D01*
X19522500Y-59662742D02*
X19522500Y-60137258D01*
%TO.C,D1*%
X46037500Y-69937500D02*
X46037500Y-71787500D01*
X44837500Y-69937500D02*
X44837500Y-71787500D01*
X44837500Y-71787500D02*
X46037500Y-71787500D01*
%TO.C,C6*%
X28940000Y-69900579D02*
X28940000Y-69619419D01*
X29960000Y-69900579D02*
X29960000Y-69619419D01*
%TO.C,R15*%
X46262742Y-144127500D02*
X46737258Y-144127500D01*
X46262742Y-145172500D02*
X46737258Y-145172500D01*
%TO.C,JP4*%
X71530000Y-25650000D02*
X71530000Y-26980000D01*
X71530000Y-19240000D02*
X68870000Y-19240000D01*
X71530000Y-24380000D02*
X71530000Y-19240000D01*
X71530000Y-24380000D02*
X68870000Y-24380000D01*
X68870000Y-24380000D02*
X68870000Y-19240000D01*
X71530000Y-26980000D02*
X70200000Y-26980000D01*
%TO.C,J13*%
X82868381Y-27288381D02*
X76548381Y-27288381D01*
X77048381Y-27048381D02*
X76308381Y-27048381D01*
X82868381Y-38028381D02*
X76548381Y-38028381D01*
X82868381Y-27288381D02*
X82868381Y-38028381D01*
X82408381Y-27288381D02*
X82408381Y-38028381D01*
X76548381Y-27288381D02*
X76548381Y-38028381D01*
X76308381Y-27048381D02*
X76308381Y-27548381D01*
X77108381Y-27288381D02*
X77108381Y-38028381D01*
%TO.C,C4*%
X28500000Y-77750000D02*
X28500000Y-78750000D01*
X29240000Y-77464437D02*
X29240000Y-79250000D01*
X29240000Y-84055563D02*
X29240000Y-82270000D01*
X29240000Y-84055563D02*
X30304437Y-85120000D01*
X30304437Y-85120000D02*
X37960000Y-85120000D01*
X37960000Y-76400000D02*
X37960000Y-79250000D01*
X28000000Y-78250000D02*
X29000000Y-78250000D01*
X37960000Y-85120000D02*
X37960000Y-82270000D01*
X29240000Y-77464437D02*
X30304437Y-76400000D01*
X30304437Y-76400000D02*
X37960000Y-76400000D01*
D11*
X30075000Y-82310000D02*
G75*
G03*
X30075000Y-82310000I-75000J0D01*
G01*
D17*
%TO.C,J16*%
X76548381Y-40585001D02*
X76548381Y-51325001D01*
X82868381Y-40585001D02*
X76548381Y-40585001D01*
X82868381Y-51325001D02*
X76548381Y-51325001D01*
X77108381Y-40585001D02*
X77108381Y-51325001D01*
X82868381Y-40585001D02*
X82868381Y-51325001D01*
X76308381Y-40345001D02*
X76308381Y-40845001D01*
X77048381Y-40345001D02*
X76308381Y-40345001D01*
X82408381Y-40585001D02*
X82408381Y-51325001D01*
%TO.C,K1*%
X24382200Y-31900000D02*
X24050000Y-31750000D01*
X25200000Y-26850000D02*
X25200000Y-27932800D01*
X26000000Y-31900000D02*
X26700000Y-31900000D01*
D11*
X25250000Y-28450000D02*
X25900000Y-32300000D01*
D17*
X35950000Y-25400000D02*
X35300000Y-25400000D01*
X20725000Y-23710000D02*
X20725000Y-34710000D01*
X39280000Y-34710000D02*
X20725000Y-34710000D01*
X35300000Y-33025000D02*
X35950000Y-33025000D01*
X39280000Y-23710000D02*
X20725000Y-23710000D01*
X24382200Y-31900000D02*
X23350000Y-31900000D01*
X35300000Y-30700000D02*
X35300000Y-33020000D01*
X35300000Y-25400000D02*
X35300000Y-27700000D01*
X26000000Y-31900000D02*
X26332200Y-32050000D01*
X26000000Y-31900000D02*
X26332200Y-31750000D01*
X35810000Y-28695000D02*
X34790000Y-29705000D01*
X39280000Y-23710000D02*
X39280000Y-34710000D01*
X24382200Y-31900000D02*
X24050000Y-32050000D01*
X35800000Y-30700000D02*
X34800000Y-30700000D01*
X34800000Y-30700000D02*
X34800000Y-27700000D01*
X34800000Y-27700000D02*
X35800000Y-27700000D01*
X35800000Y-27700000D02*
X35800000Y-30700000D01*
X25454000Y-28200000D02*
G75*
G03*
X25454000Y-28200000I-254000J0D01*
G01*
%TO.C,R17*%
X46212742Y-140122500D02*
X46687258Y-140122500D01*
X46212742Y-139077500D02*
X46687258Y-139077500D01*
%TO.C,U3*%
X44810000Y-124340000D02*
X44810000Y-124575000D01*
X37090000Y-124575000D02*
X35275000Y-124575000D01*
X40950000Y-124340000D02*
X44810000Y-124340000D01*
X44810000Y-137360000D02*
X44810000Y-137125000D01*
X37090000Y-137360000D02*
X37090000Y-137125000D01*
X40950000Y-137360000D02*
X37090000Y-137360000D01*
X40950000Y-137360000D02*
X44810000Y-137360000D01*
X37090000Y-124340000D02*
X37090000Y-124575000D01*
X40950000Y-124340000D02*
X37090000Y-124340000D01*
D11*
%TO.C,U8*%
X100735000Y-152875000D02*
X100735000Y-152550000D01*
X93485000Y-145625000D02*
X93485000Y-145850000D01*
X93485000Y-145850000D02*
X92060000Y-145850000D01*
X100735000Y-145625000D02*
X100735000Y-145950000D01*
X93485000Y-152875000D02*
X93485000Y-152550000D01*
X100735000Y-152875000D02*
X100410000Y-152875000D01*
X100735000Y-145625000D02*
X100410000Y-145625000D01*
X93485000Y-145625000D02*
X93810000Y-145625000D01*
X93485000Y-152875000D02*
X93810000Y-152875000D01*
D17*
%TO.C,J14*%
X54005000Y-37915000D02*
X59765000Y-37915000D01*
X59765000Y-53785000D02*
X54005000Y-53785000D01*
X54005000Y-52365000D02*
X54505000Y-52365000D01*
X61595000Y-53785000D02*
X61595000Y-37915000D01*
X61285000Y-53785000D02*
X61595000Y-53785000D01*
X54005000Y-53785000D02*
X54005000Y-52365000D01*
X54505000Y-39335000D02*
X54005000Y-39335000D01*
X54505000Y-52365000D02*
X54505000Y-39335000D01*
X61595000Y-37915000D02*
X61285000Y-37915000D01*
X54005000Y-39335000D02*
X54005000Y-37915000D01*
%TO.C,JP3*%
X44070000Y-51345000D02*
X46730000Y-51345000D01*
X44070000Y-56485000D02*
X46730000Y-56485000D01*
X46730000Y-51345000D02*
X46730000Y-56485000D01*
X44070000Y-48745000D02*
X45400000Y-48745000D01*
X44070000Y-51345000D02*
X44070000Y-56485000D01*
X44070000Y-50075000D02*
X44070000Y-48745000D01*
%TO.C,RN1*%
X35100000Y-146713393D02*
X34100000Y-146713393D01*
X35100000Y-143353393D02*
X34100000Y-143353393D01*
%TO.C,C11*%
X47290000Y-124533473D02*
X47290000Y-124252313D01*
X48310000Y-124533473D02*
X48310000Y-124252313D01*
%TO.C,C2*%
X50610000Y-73333473D02*
X50610000Y-73052313D01*
X49590000Y-73333473D02*
X49590000Y-73052313D01*
D18*
%TO.C,J4*%
X16400000Y-51950000D02*
X16400000Y-53500000D01*
X16400000Y-53500000D02*
X18400000Y-53500000D01*
X16400000Y-37500000D02*
X16400000Y-39050000D01*
X21400000Y-53500000D02*
X26400000Y-53500000D01*
X26400000Y-37500000D02*
X21400000Y-37500000D01*
X18400000Y-37500000D02*
X16400000Y-37500000D01*
X16400000Y-39050000D02*
X12400000Y-39050000D01*
X12400000Y-51950000D02*
X16400000Y-51950000D01*
X12400000Y-39050000D02*
X12400000Y-51950000D01*
X29800000Y-52150000D02*
X29800000Y-38850000D01*
D17*
%TO.C,R14*%
X46262742Y-147722500D02*
X46737258Y-147722500D01*
X46262742Y-146677500D02*
X46737258Y-146677500D01*
%TO.C,R20*%
X35747742Y-37624607D02*
X36222258Y-37624607D01*
X35747742Y-36579607D02*
X36222258Y-36579607D01*
%TO.C,C8*%
X43345563Y-69090000D02*
X44410000Y-70154437D01*
X39712500Y-68425000D02*
X38925000Y-68425000D01*
X38654437Y-69090000D02*
X37590000Y-70154437D01*
X39318750Y-68031250D02*
X39318750Y-68818750D01*
X44410000Y-75910000D02*
X42060000Y-75910000D01*
X37590000Y-75910000D02*
X39940000Y-75910000D01*
X43345563Y-69090000D02*
X42060000Y-69090000D01*
X37590000Y-70154437D02*
X37590000Y-75910000D01*
X44410000Y-70154437D02*
X44410000Y-75910000D01*
X38654437Y-69090000D02*
X39940000Y-69090000D01*
D11*
X39975000Y-69850000D02*
G75*
G03*
X39975000Y-69850000I-75000J0D01*
G01*
D17*
%TO.C,J10*%
X82400000Y-53690000D02*
X82400000Y-69510000D01*
X77100000Y-53690000D02*
X77100000Y-69510000D01*
X82860000Y-69510000D02*
X76540000Y-69510000D01*
X77040000Y-53450000D02*
X76300000Y-53450000D01*
X82860000Y-53690000D02*
X76540000Y-53690000D01*
X76300000Y-53450000D02*
X76300000Y-53950000D01*
X76540000Y-53690000D02*
X76540000Y-69510000D01*
X82860000Y-53690000D02*
X82860000Y-69510000D01*
%TO.C,C10*%
X36034000Y-107643813D02*
X36034000Y-107924973D01*
X37054000Y-107643813D02*
X37054000Y-107924973D01*
%TO.C,D4*%
X48200000Y-81150000D02*
X48200000Y-79950000D01*
X46350000Y-81150000D02*
X48200000Y-81150000D01*
X46350000Y-79950000D02*
X48200000Y-79950000D01*
%TO.C,R9*%
X21162742Y-56722500D02*
X21637258Y-56722500D01*
X21162742Y-55677500D02*
X21637258Y-55677500D01*
%TO.C,C7*%
X40615000Y-59213748D02*
X40615000Y-60636252D01*
X42435000Y-59213748D02*
X42435000Y-60636252D01*
%TO.C,Q3*%
X43160000Y-80800000D02*
X43160000Y-79125000D01*
X40040000Y-80800000D02*
X40040000Y-81450000D01*
X43160000Y-80800000D02*
X43160000Y-81450000D01*
X40040000Y-80800000D02*
X40040000Y-80150000D01*
D11*
X42625000Y-78850000D02*
G75*
G03*
X42625000Y-78850000I-75000J0D01*
G01*
D17*
%TO.C,JP2*%
X61995000Y-12470000D02*
X64595000Y-12470000D01*
X64595000Y-15130000D02*
X64595000Y-12470000D01*
X61995000Y-15130000D02*
X64595000Y-15130000D01*
X59395000Y-15130000D02*
X59395000Y-13800000D01*
X60725000Y-15130000D02*
X59395000Y-15130000D01*
X61995000Y-15130000D02*
X61995000Y-12470000D01*
%TO.C,JP1*%
X66470000Y-77822893D02*
X66470000Y-76492893D01*
X67800000Y-77822893D02*
X66470000Y-77822893D01*
X69070000Y-75222893D02*
X66470000Y-75222893D01*
X69070000Y-77822893D02*
X69130000Y-77822893D01*
X69130000Y-77822893D02*
X69130000Y-72622893D01*
X66470000Y-72622893D02*
X69130000Y-72622893D01*
X69070000Y-77822893D02*
X69070000Y-75222893D01*
X66470000Y-75222893D02*
X66470000Y-72622893D01*
%TO.C,R11*%
X41312742Y-78572500D02*
X41787258Y-78572500D01*
X41312742Y-77527500D02*
X41787258Y-77527500D01*
%TO.C,R2*%
X47947500Y-66162258D02*
X47947500Y-65687742D01*
X46902500Y-66162258D02*
X46902500Y-65687742D01*
%TO.C,RN3*%
X46400000Y-102772893D02*
X47400000Y-102772893D01*
X46400000Y-99412893D02*
X47400000Y-99412893D01*
%TO.C,JP8*%
X71530000Y-50240000D02*
X70200000Y-50240000D01*
X68870000Y-47640000D02*
X68870000Y-42500000D01*
X71530000Y-47640000D02*
X71530000Y-42500000D01*
X71530000Y-48910000D02*
X71530000Y-50240000D01*
X71530000Y-42500000D02*
X68870000Y-42500000D01*
X71530000Y-47640000D02*
X68870000Y-47640000D01*
%TO.C,C12*%
X46284420Y-107229393D02*
X46565580Y-107229393D01*
X46284420Y-108249393D02*
X46565580Y-108249393D01*
%TO.C,D7*%
X41750000Y-24250000D02*
X40050000Y-24250000D01*
X40050000Y-24250000D02*
X40050000Y-26800000D01*
X41750000Y-24250000D02*
X41750000Y-26800000D01*
D11*
X41600000Y-26700000D02*
G75*
G03*
X41600000Y-26700000I-75000J0D01*
G01*
D17*
%TO.C,U7*%
X80970000Y-154610000D02*
X80970000Y-154355000D01*
X84830000Y-144090000D02*
X80970000Y-144090000D01*
X84830000Y-154610000D02*
X80970000Y-154610000D01*
X84830000Y-154610000D02*
X88690000Y-154610000D01*
X80970000Y-144090000D02*
X80970000Y-144345000D01*
X80970000Y-144345000D02*
X79155000Y-144345000D01*
X84830000Y-144090000D02*
X88690000Y-144090000D01*
X88690000Y-154610000D02*
X88690000Y-154355000D01*
X88690000Y-144090000D02*
X88690000Y-144345000D01*
%TO.C,U5*%
X41079000Y-108354393D02*
X39129000Y-108354393D01*
X41079000Y-98234393D02*
X39129000Y-98234393D01*
X41079000Y-108354393D02*
X44529000Y-108354393D01*
X41079000Y-98234393D02*
X43029000Y-98234393D01*
%TO.C,R3*%
X47537258Y-75922500D02*
X47062742Y-75922500D01*
X47537258Y-74877500D02*
X47062742Y-74877500D01*
%TO.C,J3*%
X51430000Y-67041000D02*
X48770000Y-67041000D01*
X51430000Y-69641000D02*
X50100000Y-69641000D01*
X48770000Y-67041000D02*
X48770000Y-11101000D01*
X51430000Y-67041000D02*
X51430000Y-11101000D01*
X51430000Y-11101000D02*
X48770000Y-11101000D01*
X51430000Y-68311000D02*
X51430000Y-69641000D01*
%TO.C,J7*%
X27951656Y-117887893D02*
X28384669Y-117637893D01*
X27490331Y-161117893D02*
X15150331Y-161117893D01*
X15150331Y-107897893D02*
X27490331Y-107897893D01*
X27490331Y-107897893D02*
X27490331Y-161117893D01*
X28384669Y-118137893D02*
X27951656Y-117887893D01*
X28384669Y-117637893D02*
X28384669Y-118137893D01*
%TO.C,U1*%
X35510000Y-71959999D02*
X35510000Y-70009999D01*
X30390000Y-71959999D02*
X30390000Y-70009999D01*
X35510000Y-71959999D02*
X35510000Y-73909999D01*
X30390000Y-71959999D02*
X30390000Y-75409999D01*
%TO.C,D2*%
X47600000Y-72592893D02*
X47600000Y-74442893D01*
X48800000Y-72592893D02*
X48800000Y-74442893D01*
X47600000Y-74442893D02*
X48800000Y-74442893D01*
%TO.C,C3*%
X21540580Y-57190000D02*
X21259420Y-57190000D01*
X21540580Y-58210000D02*
X21259420Y-58210000D01*
%TO.C,U6*%
X80950000Y-155940000D02*
X79150000Y-155940000D01*
X80950000Y-159060000D02*
X81750000Y-159060000D01*
X80950000Y-155940000D02*
X81750000Y-155940000D01*
X80950000Y-159060000D02*
X80150000Y-159060000D01*
%TO.C,R13*%
X42827500Y-152537742D02*
X42827500Y-153012258D01*
X43872500Y-152537742D02*
X43872500Y-153012258D01*
%TO.C,Q1*%
X47700000Y-76440000D02*
X48350000Y-76440000D01*
X47700000Y-76440000D02*
X46025000Y-76440000D01*
X47700000Y-79560000D02*
X48350000Y-79560000D01*
X47700000Y-79560000D02*
X47050000Y-79560000D01*
%TO.C,U4*%
X41079000Y-149081393D02*
X39129000Y-149081393D01*
X41079000Y-138961393D02*
X43029000Y-138961393D01*
X41079000Y-149081393D02*
X44529000Y-149081393D01*
X41079000Y-138961393D02*
X39129000Y-138961393D01*
%TO.C,R10*%
X45322500Y-81587258D02*
X45322500Y-81112742D01*
X44277500Y-81587258D02*
X44277500Y-81112742D01*
%TO.C,C9*%
X36910000Y-139226586D02*
X36910000Y-138945426D01*
X35890000Y-139226586D02*
X35890000Y-138945426D01*
%TO.C,J20*%
X7540000Y-24234999D02*
X13860000Y-24234999D01*
X14100000Y-35214999D02*
X14100000Y-34714999D01*
X8000000Y-34974999D02*
X8000000Y-24234999D01*
X7540000Y-34974999D02*
X13860000Y-34974999D01*
X13360000Y-35214999D02*
X14100000Y-35214999D01*
X13860000Y-34974999D02*
X13860000Y-24234999D01*
X13300000Y-34974999D02*
X13300000Y-24234999D01*
X7540000Y-34974999D02*
X7540000Y-24234999D01*
%TO.C,U2*%
X37343560Y-109885833D02*
X35528560Y-109885833D01*
X41203560Y-109650833D02*
X45063560Y-109650833D01*
X45063560Y-122670833D02*
X45063560Y-122435833D01*
X41203560Y-122670833D02*
X37343560Y-122670833D01*
X45063560Y-109650833D02*
X45063560Y-109885833D01*
X41203560Y-122670833D02*
X45063560Y-122670833D01*
X41203560Y-109650833D02*
X37343560Y-109650833D01*
X37343560Y-109650833D02*
X37343560Y-109885833D01*
X37343560Y-122670833D02*
X37343560Y-122435833D01*
%TO.C,R4*%
X21637258Y-58677500D02*
X21162742Y-58677500D01*
X21637258Y-59722500D02*
X21162742Y-59722500D01*
%TO.C,D6*%
X25250000Y-68210000D02*
X25250000Y-73610000D01*
X28550000Y-68210000D02*
X25250000Y-68210000D01*
X28550000Y-68210000D02*
X28550000Y-73610000D01*
D11*
X28350000Y-73560000D02*
G75*
G03*
X28350000Y-73560000I-75000J0D01*
G01*
D17*
%TO.C,Q5*%
X34390000Y-39957107D02*
X34390000Y-40607107D01*
X37510000Y-39957107D02*
X37510000Y-38282107D01*
X34390000Y-39957107D02*
X34390000Y-39307107D01*
X37510000Y-39957107D02*
X37510000Y-40607107D01*
D11*
X36975000Y-38007107D02*
G75*
G03*
X36975000Y-38007107I-75000J0D01*
G01*
%TD*%
%LPC*%
D19*
%TO.C,U9*%
X86500000Y-128100000D03*
X86500000Y-128900000D03*
X86500000Y-129700000D03*
X86500000Y-130500000D03*
X86500000Y-131300000D03*
X86500000Y-132100000D03*
X86500000Y-132900000D03*
X86500000Y-133700000D03*
D20*
X87950000Y-135150000D03*
X88750000Y-135150000D03*
X89550000Y-135150000D03*
X90350000Y-135150000D03*
X91150000Y-135150000D03*
X91950000Y-135150000D03*
X92750000Y-135150000D03*
X93550000Y-135150000D03*
D19*
X95000000Y-133700000D03*
X95000000Y-132900000D03*
X95000000Y-132100000D03*
X95000000Y-131300000D03*
X95000000Y-130500000D03*
X95000000Y-129700000D03*
X95000000Y-128900000D03*
X95000000Y-128100000D03*
D20*
X93550000Y-126650000D03*
X92750000Y-126650000D03*
X91950000Y-126650000D03*
X91150000Y-126650000D03*
X90350000Y-126650000D03*
X89550000Y-126650000D03*
X88750000Y-126650000D03*
X87950000Y-126650000D03*
%TD*%
D21*
%TO.C,L1*%
X27600000Y-61410000D03*
X37500000Y-61410000D03*
%TD*%
D22*
%TO.C,J12*%
X60525000Y-34550000D03*
X60525000Y-19550000D03*
D23*
X56585000Y-31550000D03*
D24*
X56585000Y-28550000D03*
X56585000Y-25550000D03*
X56585000Y-22550000D03*
X59585000Y-31550000D03*
X59585000Y-28550000D03*
X59585000Y-25550000D03*
X59585000Y-22550000D03*
%TD*%
D25*
%TO.C,C5*%
X36500000Y-73875000D03*
X36500000Y-72325000D03*
%TD*%
D26*
%TO.C,C1*%
X44400000Y-65150000D03*
X44400000Y-66700000D03*
%TD*%
D27*
%TO.C,RN2*%
X34000000Y-101889393D03*
D28*
X34000000Y-102689393D03*
X34000000Y-103489393D03*
D27*
X34000000Y-104289393D03*
X35800000Y-104289393D03*
D28*
X35800000Y-103489393D03*
X35800000Y-102689393D03*
D27*
X35800000Y-101889393D03*
%TD*%
D29*
%TO.C,R12*%
X36449999Y-68935000D03*
X36449999Y-70585000D03*
%TD*%
%TO.C,R6*%
X44800000Y-77175000D03*
X44800000Y-78825000D03*
%TD*%
D30*
%TO.C,J19*%
X66860000Y-68000000D03*
D31*
X69400000Y-68000000D03*
X71940000Y-68000000D03*
%TD*%
D32*
%TO.C,R18*%
X40190000Y-41182107D03*
X40190000Y-39532107D03*
%TD*%
D33*
%TO.C,J6*%
X78205000Y-79737893D03*
D34*
X78205000Y-74657893D03*
%TD*%
D35*
%TO.C,D3*%
X46400000Y-73992893D03*
X46400000Y-72592893D03*
%TD*%
D22*
%TO.C,J5*%
X63300000Y-80832893D03*
X54300000Y-80832893D03*
D36*
X57300000Y-76892893D03*
D24*
X60300000Y-76892893D03*
X57300000Y-79892893D03*
X60300000Y-79892893D03*
%TD*%
D37*
%TO.C,H6*%
X24000000Y-83000000D03*
%TD*%
D38*
%TO.C,JP6*%
X45425000Y-43325000D03*
D39*
X45425000Y-40785000D03*
X45425000Y-38245000D03*
%TD*%
D40*
%TO.C,J11*%
X79708381Y-15795001D03*
D41*
X79708381Y-18335001D03*
X79708381Y-20875001D03*
X79708381Y-23415001D03*
%TD*%
D42*
%TO.C,J8*%
X8160000Y-57930000D03*
X8160000Y-60470000D03*
D40*
X10700000Y-57930000D03*
D41*
X10700000Y-60470000D03*
%TD*%
D29*
%TO.C,R19*%
X38550000Y-39532107D03*
X38550000Y-41182107D03*
%TD*%
D30*
%TO.C,J18*%
X66860000Y-58400000D03*
D31*
X69400000Y-58400000D03*
X71940000Y-58400000D03*
%TD*%
D38*
%TO.C,JP5*%
X70200000Y-37713380D03*
D39*
X70200000Y-35173380D03*
X70200000Y-32633380D03*
%TD*%
D22*
%TO.C,J17*%
X60525000Y-72150000D03*
X60525000Y-57150000D03*
D23*
X56585000Y-69150000D03*
D24*
X56585000Y-66150000D03*
X56585000Y-63150000D03*
X56585000Y-60150000D03*
X59585000Y-69150000D03*
X59585000Y-66150000D03*
X59585000Y-63150000D03*
X59585000Y-60150000D03*
%TD*%
D40*
%TO.C,J15*%
X10700000Y-64620000D03*
D41*
X10700000Y-67160000D03*
X10700000Y-69700000D03*
X10700000Y-72240000D03*
%TD*%
D43*
%TO.C,R16*%
X45675000Y-142150000D03*
X47325000Y-142150000D03*
%TD*%
%TO.C,R7*%
X20575000Y-60700000D03*
X22225000Y-60700000D03*
%TD*%
D44*
%TO.C,D5*%
X47750000Y-82150000D03*
X46350000Y-82150000D03*
%TD*%
D37*
%TO.C,H8*%
X69500000Y-82992893D03*
%TD*%
D38*
%TO.C,JP7*%
X45425000Y-33500000D03*
D39*
X45425000Y-30960000D03*
X45425000Y-28420000D03*
%TD*%
D37*
%TO.C,H2*%
X80014222Y-169000000D03*
%TD*%
D32*
%TO.C,R5*%
X65100000Y-79017893D03*
X65100000Y-77367893D03*
%TD*%
D45*
%TO.C,Q4*%
X39500000Y-43019607D03*
X37600000Y-43019607D03*
X38550000Y-44894607D03*
%TD*%
D46*
%TO.C,Q2*%
X17370000Y-71300000D03*
D47*
X19650000Y-65000000D03*
D46*
X21930000Y-71300000D03*
%TD*%
D29*
%TO.C,R8*%
X19000000Y-59075000D03*
X19000000Y-60725000D03*
%TD*%
D35*
%TO.C,D1*%
X45437500Y-71337500D03*
X45437500Y-69937500D03*
%TD*%
D25*
%TO.C,C6*%
X29450000Y-70534999D03*
X29450000Y-68984999D03*
%TD*%
D43*
%TO.C,R15*%
X45675000Y-144650000D03*
X47325000Y-144650000D03*
%TD*%
D38*
%TO.C,JP4*%
X70200000Y-25650000D03*
D39*
X70200000Y-23110000D03*
X70200000Y-20570000D03*
%TD*%
D40*
%TO.C,J13*%
X79708381Y-28848381D03*
D41*
X79708381Y-31388381D03*
X79708381Y-33928381D03*
X79708381Y-36468381D03*
%TD*%
D37*
%TO.C,H7*%
X69500000Y-13992893D03*
%TD*%
D48*
%TO.C,C4*%
X29900000Y-80760000D03*
X37300000Y-80760000D03*
%TD*%
D40*
%TO.C,J16*%
X79708381Y-42145001D03*
D41*
X79708381Y-44685001D03*
X79708381Y-47225001D03*
X79708381Y-49765001D03*
%TD*%
D49*
%TO.C,K1*%
X37600000Y-33020000D03*
X22360000Y-33000000D03*
X24900000Y-25400000D03*
D50*
X37600000Y-25400000D03*
%TD*%
D43*
%TO.C,R17*%
X45625000Y-139600000D03*
X47275000Y-139600000D03*
%TD*%
D51*
%TO.C,U3*%
X36300000Y-125135000D03*
X36300000Y-126405000D03*
X36300000Y-127675000D03*
X36300000Y-128945000D03*
X36300000Y-130215000D03*
X36300000Y-131485000D03*
X36300000Y-132755000D03*
X36300000Y-134025000D03*
X36300000Y-135295000D03*
X36300000Y-136565000D03*
X45600000Y-136565000D03*
X45600000Y-135295000D03*
X45600000Y-134025000D03*
X45600000Y-132755000D03*
X45600000Y-131485000D03*
X45600000Y-130215000D03*
X45600000Y-128945000D03*
X45600000Y-127675000D03*
X45600000Y-126405000D03*
X45600000Y-125135000D03*
%TD*%
D19*
%TO.C,U8*%
X92860000Y-146450000D03*
X92860000Y-147250000D03*
X92860000Y-148050000D03*
X92860000Y-148850000D03*
X92860000Y-149650000D03*
X92860000Y-150450000D03*
X92860000Y-151250000D03*
X92860000Y-152050000D03*
D20*
X94310000Y-153500000D03*
X95110000Y-153500000D03*
X95910000Y-153500000D03*
X96710000Y-153500000D03*
X97510000Y-153500000D03*
X98310000Y-153500000D03*
X99110000Y-153500000D03*
X99910000Y-153500000D03*
D19*
X101360000Y-152050000D03*
X101360000Y-151250000D03*
X101360000Y-150450000D03*
X101360000Y-149650000D03*
X101360000Y-148850000D03*
X101360000Y-148050000D03*
X101360000Y-147250000D03*
X101360000Y-146450000D03*
D20*
X99910000Y-145000000D03*
X99110000Y-145000000D03*
X98310000Y-145000000D03*
X97510000Y-145000000D03*
X96710000Y-145000000D03*
X95910000Y-145000000D03*
X95110000Y-145000000D03*
X94310000Y-145000000D03*
%TD*%
D22*
%TO.C,J14*%
X60525000Y-53350000D03*
X60525000Y-38350000D03*
D23*
X56585000Y-50350000D03*
D24*
X56585000Y-47350000D03*
X56585000Y-44350000D03*
X56585000Y-41350000D03*
X59585000Y-50350000D03*
X59585000Y-47350000D03*
X59585000Y-44350000D03*
X59585000Y-41350000D03*
%TD*%
D38*
%TO.C,JP3*%
X45400000Y-50075000D03*
D39*
X45400000Y-52615000D03*
X45400000Y-55155000D03*
%TD*%
D37*
%TO.C,H3*%
X24000000Y-99992893D03*
%TD*%
%TO.C,H1*%
X80000000Y-100000000D03*
%TD*%
D27*
%TO.C,RN1*%
X33700000Y-143833393D03*
D28*
X33700000Y-144633393D03*
X33700000Y-145433393D03*
D27*
X33700000Y-146233393D03*
X35500000Y-146233393D03*
D28*
X35500000Y-145433393D03*
X35500000Y-144633393D03*
D27*
X35500000Y-143833393D03*
%TD*%
D25*
%TO.C,C11*%
X47800000Y-125167893D03*
X47800000Y-123617893D03*
%TD*%
%TO.C,C2*%
X50100000Y-73967893D03*
X50100000Y-72417893D03*
%TD*%
D41*
%TO.C,J4*%
X19900000Y-53300000D03*
D52*
X19900000Y-48000000D03*
D41*
X19900000Y-37700000D03*
D52*
X19900000Y-43000000D03*
D53*
X27050000Y-48400000D03*
X23400000Y-48000000D03*
X23400000Y-43000000D03*
X27050000Y-42600000D03*
X28400000Y-37700000D03*
D54*
X17900000Y-45500000D03*
D53*
X28400000Y-53300000D03*
%TD*%
D43*
%TO.C,R14*%
X45675000Y-147200000D03*
X47325000Y-147200000D03*
%TD*%
%TO.C,R20*%
X35160000Y-37102107D03*
X36810000Y-37102107D03*
%TD*%
D55*
%TO.C,C8*%
X41000000Y-69800000D03*
X41000000Y-75200000D03*
%TD*%
D40*
%TO.C,J10*%
X79700000Y-55250000D03*
D41*
X79700000Y-57790000D03*
X79700000Y-60330000D03*
X79700000Y-62870000D03*
X79700000Y-65410000D03*
X79700000Y-67950000D03*
%TD*%
D26*
%TO.C,C10*%
X36544000Y-107009393D03*
X36544000Y-108559393D03*
%TD*%
D44*
%TO.C,D4*%
X47750000Y-80550000D03*
X46350000Y-80550000D03*
%TD*%
D43*
%TO.C,R9*%
X20575000Y-56200000D03*
X22225000Y-56200000D03*
%TD*%
D56*
%TO.C,C7*%
X41525000Y-58450000D03*
X41525000Y-61400000D03*
%TD*%
D45*
%TO.C,Q3*%
X42550000Y-79862500D03*
X40650000Y-79862500D03*
X41600000Y-81737500D03*
%TD*%
D38*
%TO.C,JP2*%
X60725000Y-13800000D03*
D39*
X63265000Y-13800000D03*
%TD*%
D38*
%TO.C,JP1*%
X67800000Y-76492893D03*
D39*
X67800000Y-73952893D03*
%TD*%
D43*
%TO.C,R11*%
X40725000Y-78050000D03*
X42375000Y-78050000D03*
%TD*%
D32*
%TO.C,R2*%
X47425000Y-66750000D03*
X47425000Y-65100000D03*
%TD*%
D27*
%TO.C,RN3*%
X47800000Y-102292893D03*
D28*
X47800000Y-101492893D03*
X47800000Y-100692893D03*
D27*
X47800000Y-99892893D03*
X46000000Y-99892893D03*
D28*
X46000000Y-100692893D03*
X46000000Y-101492893D03*
D27*
X46000000Y-102292893D03*
%TD*%
D38*
%TO.C,JP8*%
X70200000Y-48910000D03*
D39*
X70200000Y-46370000D03*
X70200000Y-43830000D03*
%TD*%
D57*
%TO.C,C12*%
X45650000Y-107739393D03*
X47200000Y-107739393D03*
%TD*%
D58*
%TO.C,D7*%
X40900000Y-24700000D03*
X40900000Y-26800000D03*
%TD*%
D51*
%TO.C,U7*%
X80180000Y-144905000D03*
X80180000Y-146175000D03*
X80180000Y-147445000D03*
X80180000Y-148715000D03*
X80180000Y-149985000D03*
X80180000Y-151255000D03*
X80180000Y-152525000D03*
X80180000Y-153795000D03*
X89480000Y-153795000D03*
X89480000Y-152525000D03*
X89480000Y-151255000D03*
X89480000Y-149985000D03*
X89480000Y-148715000D03*
X89480000Y-147445000D03*
X89480000Y-146175000D03*
X89480000Y-144905000D03*
%TD*%
D59*
%TO.C,U5*%
X43654000Y-107739393D03*
X43654000Y-106469393D03*
X43654000Y-105199393D03*
X43654000Y-103929393D03*
X43654000Y-102659393D03*
X43654000Y-101389393D03*
X43654000Y-100119393D03*
X43654000Y-98849393D03*
X38504000Y-98849393D03*
X38504000Y-100119393D03*
X38504000Y-101389393D03*
X38504000Y-102659393D03*
X38504000Y-103929393D03*
X38504000Y-105199393D03*
X38504000Y-106469393D03*
X38504000Y-107739393D03*
%TD*%
D60*
%TO.C,R3*%
X48125000Y-75400000D03*
X46475000Y-75400000D03*
%TD*%
D38*
%TO.C,J3*%
X50100000Y-68311000D03*
D39*
X50100000Y-65771000D03*
X50100000Y-63231000D03*
X50100000Y-60691000D03*
X50100000Y-58151000D03*
X50100000Y-55611000D03*
X50100000Y-53071000D03*
X50100000Y-50531000D03*
X50100000Y-47991000D03*
X50100000Y-45451000D03*
X50100000Y-42911000D03*
X50100000Y-40371000D03*
X50100000Y-37831000D03*
X50100000Y-35291000D03*
X50100000Y-32751000D03*
X50100000Y-30211000D03*
X50100000Y-27671000D03*
X50100000Y-25131000D03*
X50100000Y-22591000D03*
X50100000Y-20051000D03*
X50100000Y-17511000D03*
X50100000Y-14971000D03*
X50100000Y-12431000D03*
%TD*%
D37*
%TO.C,H4*%
X24000000Y-168992893D03*
%TD*%
D61*
%TO.C,J7*%
X24210331Y-158057893D03*
X24210331Y-110957893D03*
D62*
X25630331Y-117887893D03*
D63*
X25630331Y-120657893D03*
X25630331Y-123427893D03*
X25630331Y-126197893D03*
X25630331Y-128967893D03*
X25630331Y-131737893D03*
X25630331Y-134507893D03*
X25630331Y-137277893D03*
X25630331Y-140047893D03*
X25630331Y-142817893D03*
X25630331Y-145587893D03*
X25630331Y-148357893D03*
X25630331Y-151127893D03*
X22790331Y-119272893D03*
X22790331Y-122042893D03*
X22790331Y-124812893D03*
X22790331Y-127582893D03*
X22790331Y-130352893D03*
X22790331Y-133122893D03*
X22790331Y-135892893D03*
X22790331Y-138662893D03*
X22790331Y-141432893D03*
X22790331Y-144202893D03*
X22790331Y-146972893D03*
X22790331Y-149742893D03*
%TD*%
D64*
%TO.C,U1*%
X31045000Y-74434999D03*
X32315000Y-74434999D03*
X33585000Y-74434999D03*
X34855000Y-74434999D03*
X34855000Y-69484999D03*
X33585000Y-69484999D03*
X32315000Y-69484999D03*
X31045000Y-69484999D03*
%TD*%
D35*
%TO.C,D2*%
X48200000Y-73992893D03*
X48200000Y-72592893D03*
%TD*%
D65*
%TO.C,C3*%
X22175000Y-57700000D03*
X20625000Y-57700000D03*
%TD*%
D66*
%TO.C,U6*%
X79812500Y-156550000D03*
X79812500Y-157500000D03*
X79812500Y-158450000D03*
X82087500Y-158450000D03*
X82087500Y-157500000D03*
X82087500Y-156550000D03*
%TD*%
D29*
%TO.C,R13*%
X43350000Y-151950000D03*
X43350000Y-153600000D03*
%TD*%
D67*
%TO.C,Q1*%
X46762500Y-77050000D03*
X46762500Y-78950000D03*
X48637500Y-78000000D03*
%TD*%
D59*
%TO.C,U4*%
X43654000Y-148466393D03*
X43654000Y-147196393D03*
X43654000Y-145926393D03*
X43654000Y-144656393D03*
X43654000Y-143386393D03*
X43654000Y-142116393D03*
X43654000Y-140846393D03*
X43654000Y-139576393D03*
X38504000Y-139576393D03*
X38504000Y-140846393D03*
X38504000Y-142116393D03*
X38504000Y-143386393D03*
X38504000Y-144656393D03*
X38504000Y-145926393D03*
X38504000Y-147196393D03*
X38504000Y-148466393D03*
%TD*%
D32*
%TO.C,R10*%
X44800000Y-82175000D03*
X44800000Y-80525000D03*
%TD*%
D25*
%TO.C,C9*%
X36400000Y-139861006D03*
X36400000Y-138311006D03*
%TD*%
D37*
%TO.C,H5*%
X24000000Y-14000000D03*
%TD*%
D40*
%TO.C,J20*%
X10700000Y-33414999D03*
D41*
X10700000Y-30874999D03*
X10700000Y-28334999D03*
X10700000Y-25794999D03*
%TD*%
D51*
%TO.C,U2*%
X36553560Y-110445833D03*
X36553560Y-111715833D03*
X36553560Y-112985833D03*
X36553560Y-114255833D03*
X36553560Y-115525833D03*
X36553560Y-116795833D03*
X36553560Y-118065833D03*
X36553560Y-119335833D03*
X36553560Y-120605833D03*
X36553560Y-121875833D03*
X45853560Y-121875833D03*
X45853560Y-120605833D03*
X45853560Y-119335833D03*
X45853560Y-118065833D03*
X45853560Y-116795833D03*
X45853560Y-115525833D03*
X45853560Y-114255833D03*
X45853560Y-112985833D03*
X45853560Y-111715833D03*
X45853560Y-110445833D03*
%TD*%
D60*
%TO.C,R4*%
X22225000Y-59200000D03*
X20575000Y-59200000D03*
%TD*%
D68*
%TO.C,D6*%
X26900000Y-69610000D03*
X26900000Y-73610000D03*
%TD*%
D45*
%TO.C,Q5*%
X36900000Y-39019607D03*
X35000000Y-39019607D03*
X35950000Y-40894607D03*
%TD*%
D38*
%TO.C,J1*%
X106125000Y-154417000D03*
D39*
X106125000Y-151877000D03*
X106125000Y-149337000D03*
X106125000Y-146797000D03*
X106125000Y-144257000D03*
X106125000Y-141717000D03*
X106125000Y-139177000D03*
X106125000Y-136637000D03*
X106125000Y-134097000D03*
X106125000Y-131557000D03*
X106125000Y-129017000D03*
X106125000Y-126477000D03*
X106125000Y-123937000D03*
X106125000Y-121397000D03*
X106125000Y-118857000D03*
X106125000Y-116317000D03*
X106125000Y-113777000D03*
X106125000Y-111237000D03*
X106125000Y-108697000D03*
X106125000Y-106157000D03*
X106125000Y-103617000D03*
X106125000Y-101077000D03*
X106125000Y-98537000D03*
%TD*%
D38*
%TO.C,J2*%
X50063000Y-154417000D03*
D39*
X50063000Y-151877000D03*
X50063000Y-149337000D03*
X50063000Y-146797000D03*
X50063000Y-144257000D03*
X50063000Y-141717000D03*
X50063000Y-139177000D03*
X50063000Y-136637000D03*
X50063000Y-134097000D03*
X50063000Y-131557000D03*
X50063000Y-129017000D03*
X50063000Y-126477000D03*
X50063000Y-123937000D03*
X50063000Y-121397000D03*
X50063000Y-118857000D03*
X50063000Y-116317000D03*
X50063000Y-113777000D03*
X50063000Y-111237000D03*
X50063000Y-108697000D03*
X50063000Y-106157000D03*
X50063000Y-103617000D03*
X50063000Y-101077000D03*
X50063000Y-98537000D03*
%TD*%
M02*
