%TF.GenerationSoftware,KiCad,Pcbnew,(6.0.4-0)*%
%TF.CreationDate,2022-07-09T18:46:11+12:00*%
%TF.ProjectId,controller,636f6e74-726f-46c6-9c65-722e6b696361,3.1*%
%TF.SameCoordinates,PX324e6b0PYa469d80*%
%TF.FileFunction,Soldermask,Top*%
%TF.FilePolarity,Negative*%
%FSLAX46Y46*%
G04 Gerber Fmt 4.6, Leading zero omitted, Abs format (unit mm)*
G04 Created by KiCad (PCBNEW (6.0.4-0)) date 2022-07-09 18:46:11*
%MOMM*%
%LPD*%
G01*
G04 APERTURE LIST*
G04 Aperture macros list*
%AMRoundRect*
0 Rectangle with rounded corners*
0 $1 Rounding radius*
0 $2 $3 $4 $5 $6 $7 $8 $9 X,Y pos of 4 corners*
0 Add a 4 corners polygon primitive as box body*
4,1,4,$2,$3,$4,$5,$6,$7,$8,$9,$2,$3,0*
0 Add four circle primitives for the rounded corners*
1,1,$1+$1,$2,$3*
1,1,$1+$1,$4,$5*
1,1,$1+$1,$6,$7*
1,1,$1+$1,$8,$9*
0 Add four rect primitives between the rounded corners*
20,1,$1+$1,$2,$3,$4,$5,0*
20,1,$1+$1,$4,$5,$6,$7,0*
20,1,$1+$1,$6,$7,$8,$9,0*
20,1,$1+$1,$8,$9,$2,$3,0*%
G04 Aperture macros list end*
%ADD10R,1.700000X1.700000*%
%ADD11O,1.700000X1.700000*%
%ADD12R,5.400000X2.900000*%
%ADD13RoundRect,0.147500X-0.172500X0.147500X-0.172500X-0.147500X0.172500X-0.147500X0.172500X0.147500X0*%
%ADD14RoundRect,0.225000X0.225000X0.250000X-0.225000X0.250000X-0.225000X-0.250000X0.225000X-0.250000X0*%
%ADD15RoundRect,0.147500X0.172500X-0.147500X0.172500X0.147500X-0.172500X0.147500X-0.172500X-0.147500X0*%
%ADD16RoundRect,0.225000X-0.225000X-0.250000X0.225000X-0.250000X0.225000X0.250000X-0.225000X0.250000X0*%
%ADD17C,1.000000*%
%ADD18RoundRect,0.250001X-0.499999X0.499999X-0.499999X-0.499999X0.499999X-0.499999X0.499999X0.499999X0*%
%ADD19C,1.500000*%
%ADD20R,0.800000X0.500000*%
%ADD21R,0.800000X0.400000*%
%ADD22RoundRect,0.200000X-0.275000X0.200000X-0.275000X-0.200000X0.275000X-0.200000X0.275000X0.200000X0*%
%ADD23RoundRect,0.200000X0.200000X0.275000X-0.200000X0.275000X-0.200000X-0.275000X0.200000X-0.275000X0*%
%ADD24R,2.100000X2.100000*%
%ADD25C,2.100000*%
%ADD26R,0.700000X0.600000*%
%ADD27RoundRect,0.250001X-0.499999X-0.499999X0.499999X-0.499999X0.499999X0.499999X-0.499999X0.499999X0*%
%ADD28R,1.300000X2.000000*%
%ADD29R,2.000000X2.000000*%
%ADD30C,1.100000*%
%ADD31R,2.200000X2.200000*%
%ADD32C,2.200000*%
%ADD33RoundRect,0.200000X0.275000X-0.200000X0.275000X0.200000X-0.275000X0.200000X-0.275000X-0.200000X0*%
%ADD34C,1.448000*%
%ADD35RoundRect,0.150000X-0.875000X-0.150000X0.875000X-0.150000X0.875000X0.150000X-0.875000X0.150000X0*%
%ADD36RoundRect,0.150000X-0.587500X-0.150000X0.587500X-0.150000X0.587500X0.150000X-0.587500X0.150000X0*%
%ADD37R,2.200000X1.200000*%
%ADD38R,6.400000X5.800000*%
%ADD39RoundRect,0.200000X-0.200000X-0.275000X0.200000X-0.275000X0.200000X0.275000X-0.200000X0.275000X0*%
%ADD40RoundRect,0.225000X0.250000X-0.225000X0.250000X0.225000X-0.250000X0.225000X-0.250000X-0.225000X0*%
%ADD41RoundRect,0.250000X0.620000X0.845000X-0.620000X0.845000X-0.620000X-0.845000X0.620000X-0.845000X0*%
%ADD42O,1.740000X2.190000*%
%ADD43R,1.100000X4.600000*%
%ADD44R,10.800000X9.400000*%
%ADD45C,5.500000*%
%ADD46RoundRect,0.250000X-1.000000X1.950000X-1.000000X-1.950000X1.000000X-1.950000X1.000000X1.950000X0*%
%ADD47R,2.000000X1.200000*%
%ADD48C,2.300000*%
%ADD49R,2.300000X2.300000*%
%ADD50RoundRect,0.225000X-0.250000X0.225000X-0.250000X-0.225000X0.250000X-0.225000X0.250000X0.225000X0*%
%ADD51C,1.700000*%
%ADD52O,3.200000X1.600000*%
%ADD53O,1.750000X3.500000*%
%ADD54RoundRect,0.250000X1.500000X0.550000X-1.500000X0.550000X-1.500000X-0.550000X1.500000X-0.550000X0*%
%ADD55RoundRect,0.150000X0.587500X0.150000X-0.587500X0.150000X-0.587500X-0.150000X0.587500X-0.150000X0*%
%ADD56RoundRect,0.250000X-0.325000X-0.650000X0.325000X-0.650000X0.325000X0.650000X-0.325000X0.650000X0*%
%ADD57RoundRect,0.150000X0.725000X0.150000X-0.725000X0.150000X-0.725000X-0.150000X0.725000X-0.150000X0*%
%ADD58C,4.000000*%
%ADD59R,1.600000X1.600000*%
%ADD60C,1.600000*%
%ADD61RoundRect,0.150000X-0.825000X-0.150000X0.825000X-0.150000X0.825000X0.150000X-0.825000X0.150000X0*%
%ADD62R,0.600000X0.450000*%
%ADD63RoundRect,0.150000X-0.150000X0.587500X-0.150000X-0.587500X0.150000X-0.587500X0.150000X0.587500X0*%
%ADD64RoundRect,0.250000X1.025000X-0.787500X1.025000X0.787500X-1.025000X0.787500X-1.025000X-0.787500X0*%
%ADD65R,2.500000X1.800000*%
G04 APERTURE END LIST*
D10*
%TO.C,JP7*%
X51150000Y36525000D03*
D11*
X51150000Y39065000D03*
X51150000Y41605000D03*
%TD*%
D12*
%TO.C,L1*%
X46100000Y100200000D03*
X46100000Y90300000D03*
%TD*%
D13*
%TO.C,D15*%
X56150000Y68685000D03*
X56150000Y67715000D03*
%TD*%
D14*
%TO.C,C8*%
X34075000Y91550000D03*
X32525000Y91550000D03*
%TD*%
D15*
%TO.C,D34*%
X55075000Y41870001D03*
X55075000Y42840001D03*
%TD*%
D16*
%TO.C,C1*%
X35675000Y21850000D03*
X37225000Y21850000D03*
%TD*%
D13*
%TO.C,D13*%
X56150000Y66160000D03*
X56150000Y65190000D03*
%TD*%
D17*
%TO.C,J12*%
X40871000Y22210000D03*
X40871000Y7210000D03*
D18*
X44811000Y19210000D03*
D19*
X44811000Y16210000D03*
X44811000Y13210000D03*
X44811000Y10210000D03*
X41811000Y19210000D03*
X41811000Y16210000D03*
X41811000Y13210000D03*
X41811000Y10210000D03*
%TD*%
D20*
%TO.C,RN1*%
X19875000Y61950000D03*
D21*
X19875000Y61150000D03*
X19875000Y60350000D03*
D20*
X19875000Y59550000D03*
X21675000Y59550000D03*
D21*
X21675000Y60350000D03*
X21675000Y61150000D03*
D20*
X21675000Y61950000D03*
%TD*%
D22*
%TO.C,R13*%
X21350000Y74325000D03*
X21350000Y72675000D03*
%TD*%
D15*
%TO.C,D24*%
X55050000Y54790000D03*
X55050000Y55760000D03*
%TD*%
D23*
%TO.C,R12*%
X38575000Y91500000D03*
X36925000Y91500000D03*
%TD*%
D22*
%TO.C,R6*%
X30730800Y111285800D03*
X30730800Y109635800D03*
%TD*%
D10*
%TO.C,JP4*%
X26125000Y112250000D03*
D11*
X23585000Y112250000D03*
%TD*%
D24*
%TO.C,J3*%
X60450000Y116050000D03*
D25*
X60450000Y110970000D03*
%TD*%
D26*
%TO.C,D3*%
X23525000Y109875000D03*
X23525000Y108475000D03*
%TD*%
D17*
%TO.C,J2*%
X33150000Y119940000D03*
X24150000Y119940000D03*
D27*
X27150000Y123880000D03*
D19*
X30150000Y123880000D03*
X27150000Y120880000D03*
X30150000Y120880000D03*
%TD*%
D13*
%TO.C,D8*%
X55700000Y18585000D03*
X55700000Y17615000D03*
%TD*%
D28*
%TO.C,RV1*%
X25250000Y69750000D03*
D29*
X26400000Y73750000D03*
D28*
X27550000Y69750000D03*
%TD*%
D30*
%TO.C,J14*%
X64090000Y94590000D03*
X64090000Y92050000D03*
D31*
X61550000Y92050000D03*
D32*
X61550000Y94590000D03*
%TD*%
D33*
%TO.C,R17*%
X30039515Y79584536D03*
X30039515Y81234536D03*
%TD*%
D34*
%TO.C,TH1*%
X19810000Y122070000D03*
%TD*%
D35*
%TO.C,U5*%
X22178560Y38722560D03*
X22178560Y37452560D03*
X22178560Y36182560D03*
X22178560Y34912560D03*
X22178560Y33642560D03*
X22178560Y32372560D03*
X22178560Y31102560D03*
X22178560Y29832560D03*
X22178560Y28562560D03*
X22178560Y27292560D03*
X31478560Y27292560D03*
X31478560Y28562560D03*
X31478560Y29832560D03*
X31478560Y31102560D03*
X31478560Y32372560D03*
X31478560Y33642560D03*
X31478560Y34912560D03*
X31478560Y36182560D03*
X31478560Y37452560D03*
X31478560Y38722560D03*
%TD*%
D13*
%TO.C,D29*%
X56175000Y35210001D03*
X56175000Y34240001D03*
%TD*%
D15*
%TO.C,D14*%
X55025000Y67715000D03*
X55025000Y68685000D03*
%TD*%
D36*
%TO.C,Q4*%
X24582500Y84830000D03*
X24582500Y82930000D03*
X26457500Y83880000D03*
%TD*%
D20*
%TO.C,RN6*%
X56700000Y61100000D03*
D21*
X56700000Y61900000D03*
X56700000Y62700000D03*
D20*
X56700000Y63500000D03*
X54900000Y63500000D03*
D21*
X54900000Y62700000D03*
X54900000Y61900000D03*
D20*
X54900000Y61100000D03*
%TD*%
D37*
%TO.C,U1*%
X19450000Y80902000D03*
D38*
X25750000Y78622000D03*
D37*
X19450000Y76342000D03*
%TD*%
D13*
%TO.C,D27*%
X56175000Y58310000D03*
X56175000Y57340000D03*
%TD*%
D23*
%TO.C,R7*%
X34750000Y109450000D03*
X33100000Y109450000D03*
%TD*%
D26*
%TO.C,D5*%
X24850000Y116100000D03*
X24850000Y114700000D03*
%TD*%
D13*
%TO.C,D11*%
X55600000Y26085000D03*
X55600000Y25115000D03*
%TD*%
D39*
%TO.C,R5*%
X33100000Y115450000D03*
X34750000Y115450000D03*
%TD*%
D13*
%TO.C,D21*%
X56175000Y50685000D03*
X56175000Y49715000D03*
%TD*%
D10*
%TO.C,JP1*%
X34619000Y29600000D03*
D11*
X34619000Y27060000D03*
X34619000Y24520000D03*
%TD*%
D40*
%TO.C,C12*%
X22900000Y72725000D03*
X22900000Y74275000D03*
%TD*%
D23*
%TO.C,R14*%
X11925000Y69150000D03*
X10275000Y69150000D03*
%TD*%
D10*
%TO.C,JP8*%
X45850000Y64675000D03*
D11*
X45850000Y67215000D03*
%TD*%
D41*
%TO.C,J16*%
X35400000Y9750000D03*
D42*
X32860000Y9750000D03*
X30320000Y9750000D03*
%TD*%
D31*
%TO.C,J9*%
X61550000Y57834999D03*
D32*
X61550000Y55294999D03*
X61550000Y52754999D03*
X61550000Y50214999D03*
%TD*%
D43*
%TO.C,Q2*%
X38635000Y112075000D03*
D44*
X41175000Y121225000D03*
D43*
X43715000Y112075000D03*
%TD*%
D39*
%TO.C,R8*%
X33100000Y110950000D03*
X34750000Y110950000D03*
%TD*%
D26*
%TO.C,D1*%
X37150000Y20100000D03*
X37150000Y18700000D03*
%TD*%
D30*
%TO.C,J13*%
X64090000Y101900000D03*
X64090000Y99360000D03*
D31*
X61550000Y99360000D03*
D32*
X61550000Y101900000D03*
%TD*%
D16*
%TO.C,C9*%
X36975000Y98500000D03*
X38525000Y98500000D03*
%TD*%
D13*
%TO.C,D35*%
X56200000Y42835001D03*
X56200000Y41865001D03*
%TD*%
%TO.C,D17*%
X56150000Y71235000D03*
X56150000Y70265000D03*
%TD*%
D31*
%TO.C,J11*%
X61550000Y42360000D03*
D32*
X61550000Y39820000D03*
X61550000Y37280000D03*
X61550000Y34740000D03*
%TD*%
D22*
%TO.C,R18*%
X31620898Y81234536D03*
X31620898Y79584536D03*
%TD*%
D10*
%TO.C,JP5*%
X51200000Y66975000D03*
D11*
X51200000Y69515000D03*
X51200000Y72055000D03*
%TD*%
D13*
%TO.C,D33*%
X56200000Y40285001D03*
X56200000Y39315001D03*
%TD*%
D45*
%TO.C,H4*%
X62500000Y8000000D03*
%TD*%
D46*
%TO.C,C4*%
X26750000Y101900000D03*
X26750000Y94500000D03*
%TD*%
D47*
%TO.C,LF1*%
X38750000Y69730000D03*
X38750000Y72270000D03*
X31250000Y72270000D03*
X31250000Y69730000D03*
%TD*%
D13*
%TO.C,D23*%
X56175000Y53210000D03*
X56175000Y52240000D03*
%TD*%
D31*
%TO.C,J6*%
X61550000Y73299999D03*
D32*
X61550000Y70759999D03*
X61550000Y68219999D03*
X61550000Y65679999D03*
%TD*%
D13*
%TO.C,D9*%
X55600000Y21060000D03*
X55600000Y20090000D03*
%TD*%
D15*
%TO.C,D12*%
X55025000Y65190000D03*
X55025000Y66160000D03*
%TD*%
D31*
%TO.C,J5*%
X61550000Y28100000D03*
D32*
X61550000Y25560000D03*
X61550000Y23020000D03*
X61550000Y20480000D03*
X61550000Y17940000D03*
X61550000Y15400000D03*
%TD*%
D20*
%TO.C,RN3*%
X32150000Y21000000D03*
D21*
X32150000Y20200000D03*
X32150000Y19400000D03*
D20*
X32150000Y18600000D03*
X33950000Y18600000D03*
D21*
X33950000Y19400000D03*
X33950000Y20200000D03*
D20*
X33950000Y21000000D03*
%TD*%
D48*
%TO.C,K1*%
X39500000Y84070000D03*
X54740000Y84050000D03*
X52200000Y76450000D03*
D49*
X39500000Y76450000D03*
%TD*%
D20*
%TO.C,RN2*%
X19900000Y21018000D03*
D21*
X19900000Y20218000D03*
X19900000Y19418000D03*
D20*
X19900000Y18618000D03*
X21700000Y18618000D03*
D21*
X21700000Y19418000D03*
X21700000Y20218000D03*
D20*
X21700000Y21018000D03*
%TD*%
D50*
%TO.C,C17*%
X33800000Y38700000D03*
X33800000Y37150000D03*
%TD*%
D16*
%TO.C,C2*%
X35600000Y17350000D03*
X37150000Y17350000D03*
%TD*%
D15*
%TO.C,D32*%
X55080000Y39315001D03*
X55080000Y40285001D03*
%TD*%
D17*
%TO.C,J10*%
X40871000Y26028000D03*
X40871000Y41028000D03*
D18*
X44811000Y38028000D03*
D19*
X44811000Y35028000D03*
X44811000Y32028000D03*
X44811000Y29028000D03*
X41811000Y38028000D03*
X41811000Y35028000D03*
X41811000Y32028000D03*
X41811000Y29028000D03*
%TD*%
D14*
%TO.C,C5*%
X20375000Y82950000D03*
X18825000Y82950000D03*
%TD*%
D32*
%TO.C,J1*%
X9650000Y96700000D03*
D51*
X9650000Y102000000D03*
D32*
X9650000Y112300000D03*
D51*
X9650000Y107000000D03*
D52*
X16800000Y101600000D03*
X13150000Y102000000D03*
X13150000Y107000000D03*
X16800000Y107400000D03*
X18150000Y112300000D03*
D53*
X7650000Y104500000D03*
D52*
X18150000Y96700000D03*
%TD*%
D15*
%TO.C,D18*%
X55025000Y72815000D03*
X55025000Y73785000D03*
%TD*%
%TO.C,D16*%
X55025000Y70265000D03*
X55025000Y71235000D03*
%TD*%
D22*
%TO.C,R16*%
X22819151Y84497585D03*
X22819151Y82847585D03*
%TD*%
D15*
%TO.C,D30*%
X55080000Y36790001D03*
X55080000Y37760001D03*
%TD*%
D54*
%TO.C,C11*%
X36250000Y87200000D03*
X30850000Y87200000D03*
%TD*%
D10*
%TO.C,JP6*%
X51150000Y51645000D03*
D11*
X51150000Y54185000D03*
X51150000Y56725000D03*
%TD*%
D10*
%TO.C,JP2*%
X9600000Y71850000D03*
D11*
X9600000Y74390000D03*
X9600000Y76930000D03*
%TD*%
D50*
%TO.C,C15*%
X22419000Y56830000D03*
X22419000Y55280000D03*
%TD*%
D26*
%TO.C,D4*%
X26400000Y116100000D03*
X26400000Y114700000D03*
%TD*%
D15*
%TO.C,D28*%
X55055000Y34240001D03*
X55055000Y35210001D03*
%TD*%
D23*
%TO.C,R9*%
X34750000Y113950000D03*
X33100000Y113950000D03*
%TD*%
D55*
%TO.C,Q5*%
X35282500Y80150000D03*
X35282500Y82050000D03*
X33407500Y81100000D03*
%TD*%
D17*
%TO.C,J7*%
X40871000Y59824000D03*
X40871000Y44824000D03*
D18*
X44811000Y56824000D03*
D19*
X44811000Y53824000D03*
X44811000Y50824000D03*
X44811000Y47824000D03*
X41811000Y56824000D03*
X41811000Y53824000D03*
X41811000Y50824000D03*
X41811000Y47824000D03*
%TD*%
D34*
%TO.C,TH3*%
X45000000Y8000000D03*
%TD*%
D56*
%TO.C,C10*%
X43100000Y87175000D03*
X46050000Y87175000D03*
%TD*%
D55*
%TO.C,Q3*%
X25937500Y89300000D03*
X25937500Y91200000D03*
X24062500Y90250000D03*
%TD*%
D14*
%TO.C,C6*%
X17175000Y75000000D03*
X15625000Y75000000D03*
%TD*%
D23*
%TO.C,R11*%
X29275000Y90200000D03*
X27625000Y90200000D03*
%TD*%
D33*
%TO.C,R2*%
X34050000Y52275000D03*
X34050000Y53925000D03*
%TD*%
D20*
%TO.C,RN4*%
X33950000Y59550000D03*
D21*
X33950000Y60350000D03*
X33950000Y61150000D03*
D20*
X33950000Y61950000D03*
X32150000Y61950000D03*
D21*
X32150000Y61150000D03*
X32150000Y60350000D03*
D20*
X32150000Y59550000D03*
%TD*%
D16*
%TO.C,C16*%
X31525000Y56100000D03*
X33075000Y56100000D03*
%TD*%
D20*
%TO.C,RN7*%
X56725000Y45750000D03*
D21*
X56725000Y46550000D03*
X56725000Y47350000D03*
D20*
X56725000Y48150000D03*
X54925000Y48150000D03*
D21*
X54925000Y47350000D03*
X54925000Y46550000D03*
D20*
X54925000Y45750000D03*
%TD*%
D16*
%TO.C,C13*%
X19575000Y67550000D03*
X21125000Y67550000D03*
%TD*%
D57*
%TO.C,U6*%
X29529000Y56100000D03*
X29529000Y57370000D03*
X29529000Y58640000D03*
X29529000Y59910000D03*
X29529000Y61180000D03*
X29529000Y62450000D03*
X29529000Y63720000D03*
X29529000Y64990000D03*
X24379000Y64990000D03*
X24379000Y63720000D03*
X24379000Y62450000D03*
X24379000Y61180000D03*
X24379000Y59910000D03*
X24379000Y58640000D03*
X24379000Y57370000D03*
X24379000Y56100000D03*
%TD*%
D22*
%TO.C,R3*%
X29180800Y111298000D03*
X29180800Y109648000D03*
%TD*%
D13*
%TO.C,D19*%
X56150000Y73785000D03*
X56150000Y72815000D03*
%TD*%
D58*
%TO.C,J4*%
X14130000Y16980000D03*
X14130000Y64080000D03*
D59*
X15550000Y57150000D03*
D60*
X15550000Y54380000D03*
X15550000Y51610000D03*
X15550000Y48840000D03*
X15550000Y46070000D03*
X15550000Y43300000D03*
X15550000Y40530000D03*
X15550000Y37760000D03*
X15550000Y34990000D03*
X15550000Y32220000D03*
X15550000Y29450000D03*
X15550000Y26680000D03*
X15550000Y23910000D03*
X12710000Y55765000D03*
X12710000Y52995000D03*
X12710000Y50225000D03*
X12710000Y47455000D03*
X12710000Y44685000D03*
X12710000Y41915000D03*
X12710000Y39145000D03*
X12710000Y36375000D03*
X12710000Y33605000D03*
X12710000Y30835000D03*
X12710000Y28065000D03*
X12710000Y25295000D03*
%TD*%
D61*
%TO.C,U2*%
X33075000Y96905000D03*
X33075000Y95635000D03*
X33075000Y94365000D03*
X33075000Y93095000D03*
X38025000Y93095000D03*
X38025000Y94365000D03*
X38025000Y95635000D03*
X38025000Y96905000D03*
%TD*%
D15*
%TO.C,D26*%
X55050000Y57340000D03*
X55050000Y58310000D03*
%TD*%
D26*
%TO.C,D2*%
X35675000Y18700000D03*
X35675000Y20100000D03*
%TD*%
D41*
%TO.C,J17*%
X25350000Y9750000D03*
D42*
X22810000Y9750000D03*
X20270000Y9750000D03*
%TD*%
D45*
%TO.C,H1*%
X8000000Y124000000D03*
%TD*%
D20*
%TO.C,RN5*%
X56730000Y11810000D03*
D21*
X56730000Y12610000D03*
X56730000Y13410000D03*
D20*
X56730000Y14210000D03*
X54930000Y14210000D03*
D21*
X54930000Y13410000D03*
X54930000Y12610000D03*
D20*
X54930000Y11810000D03*
%TD*%
D13*
%TO.C,D31*%
X56200000Y37760001D03*
X56200000Y36790001D03*
%TD*%
D31*
%TO.C,J8*%
X61525000Y78162836D03*
D32*
X61525000Y80702836D03*
X61525000Y83242836D03*
X61525000Y85782836D03*
%TD*%
D45*
%TO.C,H3*%
X8000000Y8000000D03*
%TD*%
D33*
%TO.C,R15*%
X21840000Y69025000D03*
X21840000Y70675000D03*
%TD*%
D62*
%TO.C,D7*%
X36650000Y78350000D03*
X34550000Y78350000D03*
%TD*%
D16*
%TO.C,C3*%
X33150000Y107950000D03*
X34700000Y107950000D03*
%TD*%
D61*
%TO.C,U3*%
X14355000Y73217000D03*
X14355000Y71947000D03*
X14355000Y70677000D03*
X14355000Y69407000D03*
X19305000Y69407000D03*
X19305000Y70677000D03*
X19305000Y71947000D03*
X19305000Y73217000D03*
%TD*%
D33*
%TO.C,R19*%
X19782800Y38566600D03*
X19782800Y40216600D03*
%TD*%
D63*
%TO.C,Q1*%
X30740400Y115005100D03*
X28840400Y115005100D03*
X29790400Y113130100D03*
%TD*%
D15*
%TO.C,D20*%
X55050000Y49715000D03*
X55050000Y50685000D03*
%TD*%
D57*
%TO.C,U7*%
X29529000Y15373000D03*
X29529000Y16643000D03*
X29529000Y17913000D03*
X29529000Y19183000D03*
X29529000Y20453000D03*
X29529000Y21723000D03*
X29529000Y22993000D03*
X29529000Y24263000D03*
X24379000Y24263000D03*
X24379000Y22993000D03*
X24379000Y21723000D03*
X24379000Y20453000D03*
X24379000Y19183000D03*
X24379000Y17913000D03*
X24379000Y16643000D03*
X24379000Y15373000D03*
%TD*%
D15*
%TO.C,D22*%
X55050000Y52240000D03*
X55050000Y53210000D03*
%TD*%
D33*
%TO.C,R10*%
X22300000Y89225000D03*
X22300000Y90875000D03*
%TD*%
D20*
%TO.C,RN8*%
X56725000Y30025001D03*
D21*
X56725000Y30825001D03*
X56725000Y31625001D03*
D20*
X56725000Y32425001D03*
X54925000Y32425001D03*
D21*
X54925000Y31625001D03*
X54925000Y30825001D03*
D20*
X54925000Y30025001D03*
%TD*%
D40*
%TO.C,C14*%
X22425000Y23000000D03*
X22425000Y24550000D03*
%TD*%
D34*
%TO.C,TH2*%
X7500000Y64000000D03*
%TD*%
D45*
%TO.C,H2*%
X62500000Y124000000D03*
%TD*%
D35*
%TO.C,U4*%
X22428560Y53393560D03*
X22428560Y52123560D03*
X22428560Y50853560D03*
X22428560Y49583560D03*
X22428560Y48313560D03*
X22428560Y47043560D03*
X22428560Y45773560D03*
X22428560Y44503560D03*
X22428560Y43233560D03*
X22428560Y41963560D03*
X31728560Y41963560D03*
X31728560Y43233560D03*
X31728560Y44503560D03*
X31728560Y45773560D03*
X31728560Y47043560D03*
X31728560Y48313560D03*
X31728560Y49583560D03*
X31728560Y50853560D03*
X31728560Y52123560D03*
X31728560Y53393560D03*
%TD*%
D39*
%TO.C,R4*%
X33100000Y112450000D03*
X34750000Y112450000D03*
%TD*%
D64*
%TO.C,C7*%
X15600000Y77187500D03*
X15600000Y83412500D03*
%TD*%
D65*
%TO.C,D6*%
X37900000Y101050000D03*
X33900000Y101050000D03*
%TD*%
D13*
%TO.C,D10*%
X55600000Y23595000D03*
X55600000Y22625000D03*
%TD*%
%TO.C,D25*%
X56175000Y55760000D03*
X56175000Y54790000D03*
%TD*%
D10*
%TO.C,JP3*%
X9650000Y85925000D03*
D11*
X9650000Y83385000D03*
X9650000Y80845000D03*
%TD*%
M02*
