%TF.GenerationSoftware,KiCad,Pcbnew,(6.0.11-0)*%
%TF.CreationDate,2023-07-11T17:26:52+12:00*%
%TF.ProjectId,controller,636f6e74-726f-46c6-9c65-722e6b696361,3.2*%
%TF.SameCoordinates,PX1c9c380PY1312d00*%
%TF.FileFunction,Soldermask,Top*%
%TF.FilePolarity,Negative*%
%FSLAX46Y46*%
G04 Gerber Fmt 4.6, Leading zero omitted, Abs format (unit mm)*
G04 Created by KiCad (PCBNEW (6.0.11-0)) date 2023-07-11 17:26:52*
%MOMM*%
%LPD*%
G01*
G04 APERTURE LIST*
G04 Aperture macros list*
%AMRoundRect*
0 Rectangle with rounded corners*
0 $1 Rounding radius*
0 $2 $3 $4 $5 $6 $7 $8 $9 X,Y pos of 4 corners*
0 Add a 4 corners polygon primitive as box body*
4,1,4,$2,$3,$4,$5,$6,$7,$8,$9,$2,$3,0*
0 Add four circle primitives for the rounded corners*
1,1,$1+$1,$2,$3*
1,1,$1+$1,$4,$5*
1,1,$1+$1,$6,$7*
1,1,$1+$1,$8,$9*
0 Add four rect primitives between the rounded corners*
20,1,$1+$1,$2,$3,$4,$5,0*
20,1,$1+$1,$4,$5,$6,$7,0*
20,1,$1+$1,$6,$7,$8,$9,0*
20,1,$1+$1,$8,$9,$2,$3,0*%
G04 Aperture macros list end*
%ADD10R,1.600000X0.550000*%
%ADD11R,0.550000X1.600000*%
%ADD12R,2.900000X5.400000*%
%ADD13C,1.000000*%
%ADD14RoundRect,0.250001X0.499999X-0.499999X0.499999X0.499999X-0.499999X0.499999X-0.499999X-0.499999X0*%
%ADD15C,1.500000*%
%ADD16RoundRect,0.225000X0.250000X-0.225000X0.250000X0.225000X-0.250000X0.225000X-0.250000X-0.225000X0*%
%ADD17RoundRect,0.225000X-0.250000X0.225000X-0.250000X-0.225000X0.250000X-0.225000X0.250000X0.225000X0*%
%ADD18R,0.800000X0.500000*%
%ADD19R,0.800000X0.400000*%
%ADD20RoundRect,0.200000X-0.275000X0.200000X-0.275000X-0.200000X0.275000X-0.200000X0.275000X0.200000X0*%
%ADD21RoundRect,0.250000X-0.620000X-0.845000X0.620000X-0.845000X0.620000X0.845000X-0.620000X0.845000X0*%
%ADD22O,1.740000X2.190000*%
%ADD23RoundRect,0.200000X0.275000X-0.200000X0.275000X0.200000X-0.275000X0.200000X-0.275000X-0.200000X0*%
%ADD24R,2.600000X2.600000*%
%ADD25C,2.600000*%
%ADD26R,0.700000X0.600000*%
%ADD27RoundRect,0.250001X-0.499999X-0.499999X0.499999X-0.499999X0.499999X0.499999X-0.499999X0.499999X0*%
%ADD28C,5.500000*%
%ADD29R,1.700000X1.700000*%
%ADD30O,1.700000X1.700000*%
%ADD31R,2.200000X2.200000*%
%ADD32C,2.200000*%
%ADD33C,1.100000*%
%ADD34RoundRect,0.200000X-0.200000X-0.275000X0.200000X-0.275000X0.200000X0.275000X-0.200000X0.275000X0*%
%ADD35R,0.600000X0.700000*%
%ADD36RoundRect,0.150000X-0.150000X0.587500X-0.150000X-0.587500X0.150000X-0.587500X0.150000X0.587500X0*%
%ADD37R,1.200000X2.200000*%
%ADD38R,5.800000X6.400000*%
%ADD39RoundRect,0.250000X-1.950000X-1.000000X1.950000X-1.000000X1.950000X1.000000X-1.950000X1.000000X0*%
%ADD40C,2.300000*%
%ADD41R,2.300000X2.300000*%
%ADD42RoundRect,0.150000X-0.875000X-0.150000X0.875000X-0.150000X0.875000X0.150000X-0.875000X0.150000X0*%
%ADD43C,1.700000*%
%ADD44O,3.200000X1.600000*%
%ADD45O,1.750000X3.500000*%
%ADD46RoundRect,0.250000X-0.550000X1.500000X-0.550000X-1.500000X0.550000X-1.500000X0.550000X1.500000X0*%
%ADD47RoundRect,0.250000X-0.650000X0.325000X-0.650000X-0.325000X0.650000X-0.325000X0.650000X0.325000X0*%
%ADD48RoundRect,0.225000X-0.225000X-0.250000X0.225000X-0.250000X0.225000X0.250000X-0.225000X0.250000X0*%
%ADD49R,0.450000X0.600000*%
%ADD50RoundRect,0.150000X0.725000X0.150000X-0.725000X0.150000X-0.725000X-0.150000X0.725000X-0.150000X0*%
%ADD51RoundRect,0.200000X0.200000X0.275000X-0.200000X0.275000X-0.200000X-0.275000X0.200000X-0.275000X0*%
%ADD52C,4.000000*%
%ADD53R,1.600000X1.600000*%
%ADD54C,1.600000*%
%ADD55RoundRect,0.150000X0.150000X-0.825000X0.150000X0.825000X-0.150000X0.825000X-0.150000X-0.825000X0*%
%ADD56RoundRect,0.225000X0.225000X0.250000X-0.225000X0.250000X-0.225000X-0.250000X0.225000X-0.250000X0*%
%ADD57RoundRect,0.150000X-0.512500X-0.150000X0.512500X-0.150000X0.512500X0.150000X-0.512500X0.150000X0*%
%ADD58RoundRect,0.150000X-0.587500X-0.150000X0.587500X-0.150000X0.587500X0.150000X-0.587500X0.150000X0*%
%ADD59R,1.800000X2.500000*%
G04 APERTURE END LIST*
D10*
%TO.C,U9*%
X86500000Y-128100000D03*
X86500000Y-128900000D03*
X86500000Y-129700000D03*
X86500000Y-130500000D03*
X86500000Y-131300000D03*
X86500000Y-132100000D03*
X86500000Y-132900000D03*
X86500000Y-133700000D03*
D11*
X87950000Y-135150000D03*
X88750000Y-135150000D03*
X89550000Y-135150000D03*
X90350000Y-135150000D03*
X91150000Y-135150000D03*
X91950000Y-135150000D03*
X92750000Y-135150000D03*
X93550000Y-135150000D03*
D10*
X95000000Y-133700000D03*
X95000000Y-132900000D03*
X95000000Y-132100000D03*
X95000000Y-131300000D03*
X95000000Y-130500000D03*
X95000000Y-129700000D03*
X95000000Y-128900000D03*
X95000000Y-128100000D03*
D11*
X93550000Y-126650000D03*
X92750000Y-126650000D03*
X91950000Y-126650000D03*
X91150000Y-126650000D03*
X90350000Y-126650000D03*
X89550000Y-126650000D03*
X88750000Y-126650000D03*
X87950000Y-126650000D03*
%TD*%
D12*
%TO.C,L1*%
X27600000Y-61410000D03*
X37500000Y-61410000D03*
%TD*%
D13*
%TO.C,J12*%
X60525000Y-34550000D03*
X60525000Y-19550000D03*
D14*
X56585000Y-31550000D03*
D15*
X56585000Y-28550000D03*
X56585000Y-25550000D03*
X56585000Y-22550000D03*
X59585000Y-31550000D03*
X59585000Y-28550000D03*
X59585000Y-25550000D03*
X59585000Y-22550000D03*
%TD*%
D16*
%TO.C,C5*%
X36500000Y-73875000D03*
X36500000Y-72325000D03*
%TD*%
D17*
%TO.C,C1*%
X44400000Y-65150000D03*
X44400000Y-66700000D03*
%TD*%
D18*
%TO.C,RN2*%
X34000000Y-101889393D03*
D19*
X34000000Y-102689393D03*
X34000000Y-103489393D03*
D18*
X34000000Y-104289393D03*
X35800000Y-104289393D03*
D19*
X35800000Y-103489393D03*
X35800000Y-102689393D03*
D18*
X35800000Y-101889393D03*
%TD*%
D20*
%TO.C,R12*%
X36449999Y-68935000D03*
X36449999Y-70585000D03*
%TD*%
%TO.C,R6*%
X44800000Y-77175000D03*
X44800000Y-78825000D03*
%TD*%
D21*
%TO.C,J19*%
X66860000Y-68000000D03*
D22*
X69400000Y-68000000D03*
X71940000Y-68000000D03*
%TD*%
D23*
%TO.C,R18*%
X40190000Y-41182107D03*
X40190000Y-39532107D03*
%TD*%
D24*
%TO.C,J6*%
X78205000Y-79737893D03*
D25*
X78205000Y-74657893D03*
%TD*%
D26*
%TO.C,D3*%
X46400000Y-73992893D03*
X46400000Y-72592893D03*
%TD*%
D13*
%TO.C,J5*%
X63300000Y-80832893D03*
X54300000Y-80832893D03*
D27*
X57300000Y-76892893D03*
D15*
X60300000Y-76892893D03*
X57300000Y-79892893D03*
X60300000Y-79892893D03*
%TD*%
D28*
%TO.C,H6*%
X24000000Y-83000000D03*
%TD*%
D29*
%TO.C,JP6*%
X45425000Y-43325000D03*
D30*
X45425000Y-40785000D03*
X45425000Y-38245000D03*
%TD*%
D31*
%TO.C,J11*%
X79708381Y-15795001D03*
D32*
X79708381Y-18335001D03*
X79708381Y-20875001D03*
X79708381Y-23415001D03*
%TD*%
D33*
%TO.C,J8*%
X8160000Y-57930000D03*
X8160000Y-60470000D03*
D31*
X10700000Y-57930000D03*
D32*
X10700000Y-60470000D03*
%TD*%
D20*
%TO.C,R19*%
X38550000Y-39532107D03*
X38550000Y-41182107D03*
%TD*%
D21*
%TO.C,J18*%
X66860000Y-58400000D03*
D22*
X69400000Y-58400000D03*
X71940000Y-58400000D03*
%TD*%
D29*
%TO.C,JP5*%
X70200000Y-37713380D03*
D30*
X70200000Y-35173380D03*
X70200000Y-32633380D03*
%TD*%
D13*
%TO.C,J17*%
X60525000Y-72150000D03*
X60525000Y-57150000D03*
D14*
X56585000Y-69150000D03*
D15*
X56585000Y-66150000D03*
X56585000Y-63150000D03*
X56585000Y-60150000D03*
X59585000Y-69150000D03*
X59585000Y-66150000D03*
X59585000Y-63150000D03*
X59585000Y-60150000D03*
%TD*%
D31*
%TO.C,J15*%
X10700000Y-64620000D03*
D32*
X10700000Y-67160000D03*
X10700000Y-69700000D03*
X10700000Y-72240000D03*
%TD*%
D34*
%TO.C,R16*%
X45675000Y-142150000D03*
X47325000Y-142150000D03*
%TD*%
%TO.C,R7*%
X20575000Y-60700000D03*
X22225000Y-60700000D03*
%TD*%
D35*
%TO.C,D5*%
X47750000Y-82150000D03*
X46350000Y-82150000D03*
%TD*%
D28*
%TO.C,H8*%
X69500000Y-82992893D03*
%TD*%
D29*
%TO.C,JP7*%
X45425000Y-33500000D03*
D30*
X45425000Y-30960000D03*
X45425000Y-28420000D03*
%TD*%
D28*
%TO.C,H2*%
X80014222Y-169000000D03*
%TD*%
D23*
%TO.C,R5*%
X65100000Y-79017893D03*
X65100000Y-77367893D03*
%TD*%
D36*
%TO.C,Q4*%
X39500000Y-43019607D03*
X37600000Y-43019607D03*
X38550000Y-44894607D03*
%TD*%
D37*
%TO.C,Q2*%
X17370000Y-71300000D03*
D38*
X19650000Y-65000000D03*
D37*
X21930000Y-71300000D03*
%TD*%
D20*
%TO.C,R8*%
X19000000Y-59075000D03*
X19000000Y-60725000D03*
%TD*%
D26*
%TO.C,D1*%
X45437500Y-71337500D03*
X45437500Y-69937500D03*
%TD*%
D16*
%TO.C,C6*%
X29450000Y-70534999D03*
X29450000Y-68984999D03*
%TD*%
D34*
%TO.C,R15*%
X45675000Y-144650000D03*
X47325000Y-144650000D03*
%TD*%
D29*
%TO.C,JP4*%
X70200000Y-25650000D03*
D30*
X70200000Y-23110000D03*
X70200000Y-20570000D03*
%TD*%
D31*
%TO.C,J13*%
X79708381Y-28848381D03*
D32*
X79708381Y-31388381D03*
X79708381Y-33928381D03*
X79708381Y-36468381D03*
%TD*%
D28*
%TO.C,H7*%
X69500000Y-13992893D03*
%TD*%
D39*
%TO.C,C4*%
X29900000Y-80760000D03*
X37300000Y-80760000D03*
%TD*%
D31*
%TO.C,J16*%
X79708381Y-42145001D03*
D32*
X79708381Y-44685001D03*
X79708381Y-47225001D03*
X79708381Y-49765001D03*
%TD*%
D40*
%TO.C,K1*%
X37600000Y-33020000D03*
X22360000Y-33000000D03*
X24900000Y-25400000D03*
D41*
X37600000Y-25400000D03*
%TD*%
D34*
%TO.C,R17*%
X45625000Y-139600000D03*
X47275000Y-139600000D03*
%TD*%
D42*
%TO.C,U3*%
X36300000Y-125135000D03*
X36300000Y-126405000D03*
X36300000Y-127675000D03*
X36300000Y-128945000D03*
X36300000Y-130215000D03*
X36300000Y-131485000D03*
X36300000Y-132755000D03*
X36300000Y-134025000D03*
X36300000Y-135295000D03*
X36300000Y-136565000D03*
X45600000Y-136565000D03*
X45600000Y-135295000D03*
X45600000Y-134025000D03*
X45600000Y-132755000D03*
X45600000Y-131485000D03*
X45600000Y-130215000D03*
X45600000Y-128945000D03*
X45600000Y-127675000D03*
X45600000Y-126405000D03*
X45600000Y-125135000D03*
%TD*%
D10*
%TO.C,U8*%
X92860000Y-146450000D03*
X92860000Y-147250000D03*
X92860000Y-148050000D03*
X92860000Y-148850000D03*
X92860000Y-149650000D03*
X92860000Y-150450000D03*
X92860000Y-151250000D03*
X92860000Y-152050000D03*
D11*
X94310000Y-153500000D03*
X95110000Y-153500000D03*
X95910000Y-153500000D03*
X96710000Y-153500000D03*
X97510000Y-153500000D03*
X98310000Y-153500000D03*
X99110000Y-153500000D03*
X99910000Y-153500000D03*
D10*
X101360000Y-152050000D03*
X101360000Y-151250000D03*
X101360000Y-150450000D03*
X101360000Y-149650000D03*
X101360000Y-148850000D03*
X101360000Y-148050000D03*
X101360000Y-147250000D03*
X101360000Y-146450000D03*
D11*
X99910000Y-145000000D03*
X99110000Y-145000000D03*
X98310000Y-145000000D03*
X97510000Y-145000000D03*
X96710000Y-145000000D03*
X95910000Y-145000000D03*
X95110000Y-145000000D03*
X94310000Y-145000000D03*
%TD*%
D13*
%TO.C,J14*%
X60525000Y-53350000D03*
X60525000Y-38350000D03*
D14*
X56585000Y-50350000D03*
D15*
X56585000Y-47350000D03*
X56585000Y-44350000D03*
X56585000Y-41350000D03*
X59585000Y-50350000D03*
X59585000Y-47350000D03*
X59585000Y-44350000D03*
X59585000Y-41350000D03*
%TD*%
D29*
%TO.C,JP3*%
X45400000Y-50075000D03*
D30*
X45400000Y-52615000D03*
X45400000Y-55155000D03*
%TD*%
D28*
%TO.C,H3*%
X24000000Y-99992893D03*
%TD*%
%TO.C,H1*%
X80000000Y-100000000D03*
%TD*%
D18*
%TO.C,RN1*%
X33700000Y-143833393D03*
D19*
X33700000Y-144633393D03*
X33700000Y-145433393D03*
D18*
X33700000Y-146233393D03*
X35500000Y-146233393D03*
D19*
X35500000Y-145433393D03*
X35500000Y-144633393D03*
D18*
X35500000Y-143833393D03*
%TD*%
D16*
%TO.C,C11*%
X47800000Y-125167893D03*
X47800000Y-123617893D03*
%TD*%
%TO.C,C2*%
X50100000Y-73967893D03*
X50100000Y-72417893D03*
%TD*%
D32*
%TO.C,J4*%
X19900000Y-53300000D03*
D43*
X19900000Y-48000000D03*
D32*
X19900000Y-37700000D03*
D43*
X19900000Y-43000000D03*
D44*
X27050000Y-48400000D03*
X23400000Y-48000000D03*
X23400000Y-43000000D03*
X27050000Y-42600000D03*
X28400000Y-37700000D03*
D45*
X17900000Y-45500000D03*
D44*
X28400000Y-53300000D03*
%TD*%
D34*
%TO.C,R14*%
X45675000Y-147200000D03*
X47325000Y-147200000D03*
%TD*%
%TO.C,R20*%
X35160000Y-37102107D03*
X36810000Y-37102107D03*
%TD*%
D46*
%TO.C,C8*%
X41000000Y-69800000D03*
X41000000Y-75200000D03*
%TD*%
D31*
%TO.C,J10*%
X79700000Y-55250000D03*
D32*
X79700000Y-57790000D03*
X79700000Y-60330000D03*
X79700000Y-62870000D03*
X79700000Y-65410000D03*
X79700000Y-67950000D03*
%TD*%
D17*
%TO.C,C10*%
X36544000Y-107009393D03*
X36544000Y-108559393D03*
%TD*%
D35*
%TO.C,D4*%
X47750000Y-80550000D03*
X46350000Y-80550000D03*
%TD*%
D34*
%TO.C,R9*%
X20575000Y-56200000D03*
X22225000Y-56200000D03*
%TD*%
D47*
%TO.C,C7*%
X41525000Y-58450000D03*
X41525000Y-61400000D03*
%TD*%
D36*
%TO.C,Q3*%
X42550000Y-79862500D03*
X40650000Y-79862500D03*
X41600000Y-81737500D03*
%TD*%
D29*
%TO.C,JP2*%
X60725000Y-13800000D03*
D30*
X63265000Y-13800000D03*
%TD*%
D29*
%TO.C,JP1*%
X67800000Y-76492893D03*
D30*
X67800000Y-73952893D03*
%TD*%
D34*
%TO.C,R11*%
X40725000Y-78050000D03*
X42375000Y-78050000D03*
%TD*%
D23*
%TO.C,R2*%
X47425000Y-66750000D03*
X47425000Y-65100000D03*
%TD*%
D18*
%TO.C,RN3*%
X47800000Y-102292893D03*
D19*
X47800000Y-101492893D03*
X47800000Y-100692893D03*
D18*
X47800000Y-99892893D03*
X46000000Y-99892893D03*
D19*
X46000000Y-100692893D03*
X46000000Y-101492893D03*
D18*
X46000000Y-102292893D03*
%TD*%
D29*
%TO.C,JP8*%
X70200000Y-48910000D03*
D30*
X70200000Y-46370000D03*
X70200000Y-43830000D03*
%TD*%
D48*
%TO.C,C12*%
X45650000Y-107739393D03*
X47200000Y-107739393D03*
%TD*%
D49*
%TO.C,D7*%
X40900000Y-24700000D03*
X40900000Y-26800000D03*
%TD*%
D42*
%TO.C,U7*%
X80180000Y-144905000D03*
X80180000Y-146175000D03*
X80180000Y-147445000D03*
X80180000Y-148715000D03*
X80180000Y-149985000D03*
X80180000Y-151255000D03*
X80180000Y-152525000D03*
X80180000Y-153795000D03*
X89480000Y-153795000D03*
X89480000Y-152525000D03*
X89480000Y-151255000D03*
X89480000Y-149985000D03*
X89480000Y-148715000D03*
X89480000Y-147445000D03*
X89480000Y-146175000D03*
X89480000Y-144905000D03*
%TD*%
D50*
%TO.C,U5*%
X43654000Y-107739393D03*
X43654000Y-106469393D03*
X43654000Y-105199393D03*
X43654000Y-103929393D03*
X43654000Y-102659393D03*
X43654000Y-101389393D03*
X43654000Y-100119393D03*
X43654000Y-98849393D03*
X38504000Y-98849393D03*
X38504000Y-100119393D03*
X38504000Y-101389393D03*
X38504000Y-102659393D03*
X38504000Y-103929393D03*
X38504000Y-105199393D03*
X38504000Y-106469393D03*
X38504000Y-107739393D03*
%TD*%
D51*
%TO.C,R3*%
X48125000Y-75400000D03*
X46475000Y-75400000D03*
%TD*%
D29*
%TO.C,J3*%
X50100000Y-68311000D03*
D30*
X50100000Y-65771000D03*
X50100000Y-63231000D03*
X50100000Y-60691000D03*
X50100000Y-58151000D03*
X50100000Y-55611000D03*
X50100000Y-53071000D03*
X50100000Y-50531000D03*
X50100000Y-47991000D03*
X50100000Y-45451000D03*
X50100000Y-42911000D03*
X50100000Y-40371000D03*
X50100000Y-37831000D03*
X50100000Y-35291000D03*
X50100000Y-32751000D03*
X50100000Y-30211000D03*
X50100000Y-27671000D03*
X50100000Y-25131000D03*
X50100000Y-22591000D03*
X50100000Y-20051000D03*
X50100000Y-17511000D03*
X50100000Y-14971000D03*
X50100000Y-12431000D03*
%TD*%
D28*
%TO.C,H4*%
X24000000Y-168992893D03*
%TD*%
D52*
%TO.C,J7*%
X24210331Y-158057893D03*
X24210331Y-110957893D03*
D53*
X25630331Y-117887893D03*
D54*
X25630331Y-120657893D03*
X25630331Y-123427893D03*
X25630331Y-126197893D03*
X25630331Y-128967893D03*
X25630331Y-131737893D03*
X25630331Y-134507893D03*
X25630331Y-137277893D03*
X25630331Y-140047893D03*
X25630331Y-142817893D03*
X25630331Y-145587893D03*
X25630331Y-148357893D03*
X25630331Y-151127893D03*
X22790331Y-119272893D03*
X22790331Y-122042893D03*
X22790331Y-124812893D03*
X22790331Y-127582893D03*
X22790331Y-130352893D03*
X22790331Y-133122893D03*
X22790331Y-135892893D03*
X22790331Y-138662893D03*
X22790331Y-141432893D03*
X22790331Y-144202893D03*
X22790331Y-146972893D03*
X22790331Y-149742893D03*
%TD*%
D55*
%TO.C,U1*%
X31045000Y-74434999D03*
X32315000Y-74434999D03*
X33585000Y-74434999D03*
X34855000Y-74434999D03*
X34855000Y-69484999D03*
X33585000Y-69484999D03*
X32315000Y-69484999D03*
X31045000Y-69484999D03*
%TD*%
D26*
%TO.C,D2*%
X48200000Y-73992893D03*
X48200000Y-72592893D03*
%TD*%
D56*
%TO.C,C3*%
X22175000Y-57700000D03*
X20625000Y-57700000D03*
%TD*%
D57*
%TO.C,U6*%
X79812500Y-156550000D03*
X79812500Y-157500000D03*
X79812500Y-158450000D03*
X82087500Y-158450000D03*
X82087500Y-157500000D03*
X82087500Y-156550000D03*
%TD*%
D20*
%TO.C,R13*%
X43350000Y-151950000D03*
X43350000Y-153600000D03*
%TD*%
D58*
%TO.C,Q1*%
X46762500Y-77050000D03*
X46762500Y-78950000D03*
X48637500Y-78000000D03*
%TD*%
D50*
%TO.C,U4*%
X43654000Y-148466393D03*
X43654000Y-147196393D03*
X43654000Y-145926393D03*
X43654000Y-144656393D03*
X43654000Y-143386393D03*
X43654000Y-142116393D03*
X43654000Y-140846393D03*
X43654000Y-139576393D03*
X38504000Y-139576393D03*
X38504000Y-140846393D03*
X38504000Y-142116393D03*
X38504000Y-143386393D03*
X38504000Y-144656393D03*
X38504000Y-145926393D03*
X38504000Y-147196393D03*
X38504000Y-148466393D03*
%TD*%
D23*
%TO.C,R10*%
X44800000Y-82175000D03*
X44800000Y-80525000D03*
%TD*%
D16*
%TO.C,C9*%
X36400000Y-139861006D03*
X36400000Y-138311006D03*
%TD*%
D28*
%TO.C,H5*%
X24000000Y-14000000D03*
%TD*%
D31*
%TO.C,J20*%
X10700000Y-33414999D03*
D32*
X10700000Y-30874999D03*
X10700000Y-28334999D03*
X10700000Y-25794999D03*
%TD*%
D42*
%TO.C,U2*%
X36553560Y-110445833D03*
X36553560Y-111715833D03*
X36553560Y-112985833D03*
X36553560Y-114255833D03*
X36553560Y-115525833D03*
X36553560Y-116795833D03*
X36553560Y-118065833D03*
X36553560Y-119335833D03*
X36553560Y-120605833D03*
X36553560Y-121875833D03*
X45853560Y-121875833D03*
X45853560Y-120605833D03*
X45853560Y-119335833D03*
X45853560Y-118065833D03*
X45853560Y-116795833D03*
X45853560Y-115525833D03*
X45853560Y-114255833D03*
X45853560Y-112985833D03*
X45853560Y-111715833D03*
X45853560Y-110445833D03*
%TD*%
D51*
%TO.C,R4*%
X22225000Y-59200000D03*
X20575000Y-59200000D03*
%TD*%
D59*
%TO.C,D6*%
X26900000Y-69610000D03*
X26900000Y-73610000D03*
%TD*%
D36*
%TO.C,Q5*%
X36900000Y-39019607D03*
X35000000Y-39019607D03*
X35950000Y-40894607D03*
%TD*%
D29*
%TO.C,J1*%
X106125000Y-154417000D03*
D30*
X106125000Y-151877000D03*
X106125000Y-149337000D03*
X106125000Y-146797000D03*
X106125000Y-144257000D03*
X106125000Y-141717000D03*
X106125000Y-139177000D03*
X106125000Y-136637000D03*
X106125000Y-134097000D03*
X106125000Y-131557000D03*
X106125000Y-129017000D03*
X106125000Y-126477000D03*
X106125000Y-123937000D03*
X106125000Y-121397000D03*
X106125000Y-118857000D03*
X106125000Y-116317000D03*
X106125000Y-113777000D03*
X106125000Y-111237000D03*
X106125000Y-108697000D03*
X106125000Y-106157000D03*
X106125000Y-103617000D03*
X106125000Y-101077000D03*
X106125000Y-98537000D03*
%TD*%
D29*
%TO.C,J2*%
X50063000Y-154417000D03*
D30*
X50063000Y-151877000D03*
X50063000Y-149337000D03*
X50063000Y-146797000D03*
X50063000Y-144257000D03*
X50063000Y-141717000D03*
X50063000Y-139177000D03*
X50063000Y-136637000D03*
X50063000Y-134097000D03*
X50063000Y-131557000D03*
X50063000Y-129017000D03*
X50063000Y-126477000D03*
X50063000Y-123937000D03*
X50063000Y-121397000D03*
X50063000Y-118857000D03*
X50063000Y-116317000D03*
X50063000Y-113777000D03*
X50063000Y-111237000D03*
X50063000Y-108697000D03*
X50063000Y-106157000D03*
X50063000Y-103617000D03*
X50063000Y-101077000D03*
X50063000Y-98537000D03*
%TD*%
M02*
