%TF.GenerationSoftware,KiCad,Pcbnew,(6.0.11-0)*%
%TF.CreationDate,2023-05-17T22:58:47+12:00*%
%TF.ProjectId,controller-lower-cut,636f6e74-726f-46c6-9c65-722d6c6f7765,3.2*%
%TF.SameCoordinates,PX1c9c380PY1312d00*%
%TF.FileFunction,Soldermask,Top*%
%TF.FilePolarity,Negative*%
%FSLAX46Y46*%
G04 Gerber Fmt 4.6, Leading zero omitted, Abs format (unit mm)*
G04 Created by KiCad (PCBNEW (6.0.11-0)) date 2023-05-17 22:58:47*
%MOMM*%
%LPD*%
G01*
G04 APERTURE LIST*
G04 Aperture macros list*
%AMRoundRect*
0 Rectangle with rounded corners*
0 $1 Rounding radius*
0 $2 $3 $4 $5 $6 $7 $8 $9 X,Y pos of 4 corners*
0 Add a 4 corners polygon primitive as box body*
4,1,4,$2,$3,$4,$5,$6,$7,$8,$9,$2,$3,0*
0 Add four circle primitives for the rounded corners*
1,1,$1+$1,$2,$3*
1,1,$1+$1,$4,$5*
1,1,$1+$1,$6,$7*
1,1,$1+$1,$8,$9*
0 Add four rect primitives between the rounded corners*
20,1,$1+$1,$2,$3,$4,$5,0*
20,1,$1+$1,$4,$5,$6,$7,0*
20,1,$1+$1,$6,$7,$8,$9,0*
20,1,$1+$1,$8,$9,$2,$3,0*%
G04 Aperture macros list end*
%ADD10R,2.900000X5.400000*%
%ADD11C,1.000000*%
%ADD12RoundRect,0.250001X0.499999X-0.499999X0.499999X0.499999X-0.499999X0.499999X-0.499999X-0.499999X0*%
%ADD13C,1.500000*%
%ADD14RoundRect,0.225000X0.250000X-0.225000X0.250000X0.225000X-0.250000X0.225000X-0.250000X-0.225000X0*%
%ADD15RoundRect,0.225000X-0.250000X0.225000X-0.250000X-0.225000X0.250000X-0.225000X0.250000X0.225000X0*%
%ADD16RoundRect,0.200000X-0.275000X0.200000X-0.275000X-0.200000X0.275000X-0.200000X0.275000X0.200000X0*%
%ADD17RoundRect,0.200000X0.275000X-0.200000X0.275000X0.200000X-0.275000X0.200000X-0.275000X-0.200000X0*%
%ADD18RoundRect,0.250000X-0.620000X-0.845000X0.620000X-0.845000X0.620000X0.845000X-0.620000X0.845000X0*%
%ADD19O,1.740000X2.190000*%
%ADD20R,2.600000X2.600000*%
%ADD21C,2.600000*%
%ADD22R,0.700000X0.600000*%
%ADD23RoundRect,0.250001X-0.499999X-0.499999X0.499999X-0.499999X0.499999X0.499999X-0.499999X0.499999X0*%
%ADD24C,5.500000*%
%ADD25R,1.700000X1.700000*%
%ADD26O,1.700000X1.700000*%
%ADD27R,2.200000X2.200000*%
%ADD28C,2.200000*%
%ADD29C,1.100000*%
%ADD30RoundRect,0.200000X-0.200000X-0.275000X0.200000X-0.275000X0.200000X0.275000X-0.200000X0.275000X0*%
%ADD31R,0.600000X0.700000*%
%ADD32RoundRect,0.150000X-0.150000X0.587500X-0.150000X-0.587500X0.150000X-0.587500X0.150000X0.587500X0*%
%ADD33R,1.200000X2.200000*%
%ADD34R,5.800000X6.400000*%
%ADD35RoundRect,0.250000X-1.950000X-1.000000X1.950000X-1.000000X1.950000X1.000000X-1.950000X1.000000X0*%
%ADD36C,2.300000*%
%ADD37R,2.300000X2.300000*%
%ADD38C,1.700000*%
%ADD39O,3.200000X1.600000*%
%ADD40O,1.750000X3.500000*%
%ADD41RoundRect,0.250000X-0.550000X1.500000X-0.550000X-1.500000X0.550000X-1.500000X0.550000X1.500000X0*%
%ADD42RoundRect,0.250000X-0.650000X0.325000X-0.650000X-0.325000X0.650000X-0.325000X0.650000X0.325000X0*%
%ADD43R,0.450000X0.600000*%
%ADD44RoundRect,0.200000X0.200000X0.275000X-0.200000X0.275000X-0.200000X-0.275000X0.200000X-0.275000X0*%
%ADD45RoundRect,0.150000X0.150000X-0.825000X0.150000X0.825000X-0.150000X0.825000X-0.150000X-0.825000X0*%
%ADD46RoundRect,0.225000X0.225000X0.250000X-0.225000X0.250000X-0.225000X-0.250000X0.225000X-0.250000X0*%
%ADD47RoundRect,0.150000X-0.587500X-0.150000X0.587500X-0.150000X0.587500X0.150000X-0.587500X0.150000X0*%
%ADD48R,1.800000X2.500000*%
G04 APERTURE END LIST*
D10*
%TO.C,L1*%
X27600000Y-61410000D03*
X37500000Y-61410000D03*
%TD*%
D11*
%TO.C,J11*%
X60525000Y-34550000D03*
X60525000Y-19550000D03*
D12*
X56585000Y-31550000D03*
D13*
X56585000Y-28550000D03*
X56585000Y-25550000D03*
X56585000Y-22550000D03*
X59585000Y-31550000D03*
X59585000Y-28550000D03*
X59585000Y-25550000D03*
X59585000Y-22550000D03*
%TD*%
D14*
%TO.C,C5*%
X36500000Y-73875000D03*
X36500000Y-72325000D03*
%TD*%
D15*
%TO.C,C1*%
X44400000Y-65150000D03*
X44400000Y-66700000D03*
%TD*%
D16*
%TO.C,R12*%
X36449999Y-68935000D03*
X36449999Y-70585000D03*
%TD*%
D17*
%TO.C,R6*%
X45900000Y-66750000D03*
X45900000Y-65100000D03*
%TD*%
D18*
%TO.C,J18*%
X66860000Y-68000000D03*
D19*
X69400000Y-68000000D03*
X71940000Y-68000000D03*
%TD*%
D17*
%TO.C,R14*%
X41140000Y-42725000D03*
X41140000Y-41075000D03*
%TD*%
D20*
%TO.C,J5*%
X78205000Y-79737893D03*
D21*
X78205000Y-74657893D03*
%TD*%
D22*
%TO.C,D3*%
X46400000Y-73992893D03*
X46400000Y-72592893D03*
%TD*%
D11*
%TO.C,J4*%
X63300000Y-80832893D03*
X54300000Y-80832893D03*
D23*
X57300000Y-76892893D03*
D13*
X60300000Y-76892893D03*
X57300000Y-79892893D03*
X60300000Y-79892893D03*
%TD*%
D24*
%TO.C,H4*%
X24000000Y-83000000D03*
%TD*%
D25*
%TO.C,JP7*%
X45425000Y-43325000D03*
D26*
X45425000Y-40785000D03*
X45425000Y-38245000D03*
%TD*%
D27*
%TO.C,J10*%
X79708381Y-15795001D03*
D28*
X79708381Y-18335001D03*
X79708381Y-20875001D03*
X79708381Y-23415001D03*
%TD*%
D29*
%TO.C,J7*%
X8160000Y-57930000D03*
X8160000Y-60470000D03*
D27*
X10700000Y-57930000D03*
D28*
X10700000Y-60470000D03*
%TD*%
D16*
%TO.C,R15*%
X39500000Y-41075000D03*
X39500000Y-42725000D03*
%TD*%
D18*
%TO.C,J17*%
X66860000Y-58400000D03*
D19*
X69400000Y-58400000D03*
X71940000Y-58400000D03*
%TD*%
D25*
%TO.C,JP5*%
X70200000Y-35713380D03*
D26*
X70200000Y-33173380D03*
X70200000Y-30633380D03*
%TD*%
D11*
%TO.C,J16*%
X60525000Y-72150000D03*
X60525000Y-57150000D03*
D12*
X56585000Y-69150000D03*
D13*
X56585000Y-66150000D03*
X56585000Y-63150000D03*
X56585000Y-60150000D03*
X59585000Y-69150000D03*
X59585000Y-66150000D03*
X59585000Y-63150000D03*
X59585000Y-60150000D03*
%TD*%
D27*
%TO.C,J15*%
X10700000Y-64620000D03*
D28*
X10700000Y-67160000D03*
X10700000Y-69700000D03*
X10700000Y-72240000D03*
%TD*%
D30*
%TO.C,R7*%
X20575000Y-60700000D03*
X22225000Y-60700000D03*
%TD*%
D31*
%TO.C,D5*%
X47100000Y-81300000D03*
X45700000Y-81300000D03*
%TD*%
D24*
%TO.C,H6*%
X69500000Y-82992893D03*
%TD*%
D25*
%TO.C,JP6*%
X45425000Y-33500000D03*
D26*
X45425000Y-30960000D03*
X45425000Y-28420000D03*
%TD*%
D17*
%TO.C,R5*%
X65100000Y-79017893D03*
X65100000Y-77367893D03*
%TD*%
D32*
%TO.C,Q4*%
X40450000Y-44562500D03*
X38550000Y-44562500D03*
X39500000Y-46437500D03*
%TD*%
D33*
%TO.C,Q2*%
X17370000Y-71300000D03*
D34*
X19650000Y-65000000D03*
D33*
X21930000Y-71300000D03*
%TD*%
D16*
%TO.C,R8*%
X19000000Y-59075000D03*
X19000000Y-60725000D03*
%TD*%
D22*
%TO.C,D1*%
X45437500Y-71337500D03*
X45437500Y-69937500D03*
%TD*%
D14*
%TO.C,C6*%
X29450000Y-70534999D03*
X29450000Y-68984999D03*
%TD*%
D25*
%TO.C,JP4*%
X70200000Y-23992893D03*
D26*
X70200000Y-21452893D03*
X70200000Y-18912893D03*
%TD*%
D27*
%TO.C,J12*%
X79708381Y-28848381D03*
D28*
X79708381Y-31388381D03*
X79708381Y-33928381D03*
X79708381Y-36468381D03*
%TD*%
D24*
%TO.C,H5*%
X69500000Y-13992893D03*
%TD*%
D35*
%TO.C,C4*%
X29900000Y-80760000D03*
X37300000Y-80760000D03*
%TD*%
D27*
%TO.C,J14*%
X79708381Y-42145001D03*
D28*
X79708381Y-44685001D03*
X79708381Y-47225001D03*
X79708381Y-49765001D03*
%TD*%
D36*
%TO.C,K1*%
X37600000Y-33020000D03*
X22360000Y-33000000D03*
X24900000Y-25400000D03*
D37*
X37600000Y-25400000D03*
%TD*%
D11*
%TO.C,J13*%
X60525000Y-53350000D03*
X60525000Y-38350000D03*
D12*
X56585000Y-50350000D03*
D13*
X56585000Y-47350000D03*
X56585000Y-44350000D03*
X56585000Y-41350000D03*
X59585000Y-50350000D03*
X59585000Y-47350000D03*
X59585000Y-44350000D03*
X59585000Y-41350000D03*
%TD*%
D25*
%TO.C,JP2*%
X45400000Y-50075000D03*
D26*
X45400000Y-52615000D03*
X45400000Y-55155000D03*
%TD*%
D14*
%TO.C,C2*%
X50100000Y-73967893D03*
X50100000Y-72417893D03*
%TD*%
D28*
%TO.C,J3*%
X21500000Y-53300000D03*
D38*
X21500000Y-48000000D03*
D28*
X21500000Y-37700000D03*
D38*
X21500000Y-43000000D03*
D39*
X28650000Y-48400000D03*
X25000000Y-48000000D03*
X25000000Y-43000000D03*
X28650000Y-42600000D03*
X30000000Y-37700000D03*
D40*
X19500000Y-45500000D03*
D39*
X30000000Y-53300000D03*
%TD*%
D30*
%TO.C,R16*%
X36110000Y-38645000D03*
X37760000Y-38645000D03*
%TD*%
D41*
%TO.C,C8*%
X41000000Y-69800000D03*
X41000000Y-75200000D03*
%TD*%
D27*
%TO.C,J9*%
X79700000Y-55250000D03*
D28*
X79700000Y-57790000D03*
X79700000Y-60330000D03*
X79700000Y-62870000D03*
X79700000Y-65410000D03*
X79700000Y-67950000D03*
%TD*%
D31*
%TO.C,D4*%
X45700000Y-79600000D03*
X47100000Y-79600000D03*
%TD*%
D30*
%TO.C,R9*%
X20575000Y-56200000D03*
X22225000Y-56200000D03*
%TD*%
D42*
%TO.C,C7*%
X41525000Y-58450000D03*
X41525000Y-61400000D03*
%TD*%
D32*
%TO.C,Q3*%
X42550000Y-79862500D03*
X40650000Y-79862500D03*
X41600000Y-81737500D03*
%TD*%
D25*
%TO.C,JP3*%
X60725000Y-13800000D03*
D26*
X63265000Y-13800000D03*
%TD*%
D25*
%TO.C,JP1*%
X67800000Y-76492893D03*
D26*
X67800000Y-73952893D03*
%TD*%
D30*
%TO.C,R11*%
X41075000Y-78000000D03*
X42725000Y-78000000D03*
%TD*%
D17*
%TO.C,R2*%
X47425000Y-66750000D03*
X47425000Y-65100000D03*
%TD*%
D25*
%TO.C,JP8*%
X70200000Y-48910000D03*
D26*
X70200000Y-46370000D03*
X70200000Y-43830000D03*
%TD*%
D43*
%TO.C,D11*%
X36700000Y-44150000D03*
X36700000Y-46250000D03*
%TD*%
D44*
%TO.C,R3*%
X47275000Y-68425000D03*
X45625000Y-68425000D03*
%TD*%
D25*
%TO.C,J2*%
X50100000Y-68311000D03*
D26*
X50100000Y-65771000D03*
X50100000Y-63231000D03*
X50100000Y-60691000D03*
X50100000Y-58151000D03*
X50100000Y-55611000D03*
X50100000Y-53071000D03*
X50100000Y-50531000D03*
X50100000Y-47991000D03*
X50100000Y-45451000D03*
X50100000Y-42911000D03*
X50100000Y-40371000D03*
X50100000Y-37831000D03*
X50100000Y-35291000D03*
X50100000Y-32751000D03*
X50100000Y-30211000D03*
X50100000Y-27671000D03*
X50100000Y-25131000D03*
X50100000Y-22591000D03*
X50100000Y-20051000D03*
X50100000Y-17511000D03*
X50100000Y-14971000D03*
X50100000Y-12431000D03*
%TD*%
D45*
%TO.C,U1*%
X31045000Y-74434999D03*
X32315000Y-74434999D03*
X33585000Y-74434999D03*
X34855000Y-74434999D03*
X34855000Y-69484999D03*
X33585000Y-69484999D03*
X32315000Y-69484999D03*
X31045000Y-69484999D03*
%TD*%
D22*
%TO.C,D2*%
X48200000Y-73992893D03*
X48200000Y-72592893D03*
%TD*%
D46*
%TO.C,C3*%
X22175000Y-57700000D03*
X20625000Y-57700000D03*
%TD*%
D47*
%TO.C,Q1*%
X45862500Y-75550000D03*
X45862500Y-77450000D03*
X47737500Y-76500000D03*
%TD*%
D17*
%TO.C,R10*%
X44300000Y-81225000D03*
X44300000Y-79575000D03*
%TD*%
D24*
%TO.C,H3*%
X24000000Y-14000000D03*
%TD*%
D27*
%TO.C,J19*%
X10700000Y-33414999D03*
D28*
X10700000Y-30874999D03*
X10700000Y-28334999D03*
X10700000Y-25794999D03*
%TD*%
D44*
%TO.C,R4*%
X22225000Y-59200000D03*
X20575000Y-59200000D03*
%TD*%
D48*
%TO.C,D6*%
X26900000Y-69610000D03*
X26900000Y-73610000D03*
%TD*%
D32*
%TO.C,Q5*%
X37850000Y-40562500D03*
X35950000Y-40562500D03*
X36900000Y-42437500D03*
%TD*%
M02*
