%TF.GenerationSoftware,KiCad,Pcbnew,(6.0.11-0)*%
%TF.CreationDate,2023-05-17T22:58:48+12:00*%
%TF.ProjectId,controller-lower-cut,636f6e74-726f-46c6-9c65-722d6c6f7765,3.2*%
%TF.SameCoordinates,PX1c9c380PY1312d00*%
%TF.FileFunction,AssemblyDrawing,Top*%
%FSLAX46Y46*%
G04 Gerber Fmt 4.6, Leading zero omitted, Abs format (unit mm)*
G04 Created by KiCad (PCBNEW (6.0.11-0)) date 2023-05-17 22:58:48*
%MOMM*%
%LPD*%
G01*
G04 APERTURE LIST*
%ADD10C,0.100000*%
%ADD11C,0.500000*%
%ADD12C,0.200000*%
%ADD13C,0.080000*%
%ADD14C,0.150000*%
%ADD15C,0.060000*%
%ADD16C,0.050000*%
%ADD17C,0.127000*%
G04 APERTURE END LIST*
D10*
X40800000Y-39492893D02*
X40800000Y-39992893D01*
X40800000Y-39992893D02*
X41200000Y-39992893D01*
D11*
X32540000Y-24202893D02*
X32160000Y-28632893D01*
D12*
X31128571Y-19163964D02*
X31985714Y-19163964D01*
X31557142Y-20663964D02*
X31557142Y-19163964D01*
X32771428Y-19163964D02*
X33057142Y-19163964D01*
X33200000Y-19235393D01*
X33342857Y-19378250D01*
X33414285Y-19663964D01*
X33414285Y-20163964D01*
X33342857Y-20449678D01*
X33200000Y-20592535D01*
X33057142Y-20663964D01*
X32771428Y-20663964D01*
X32628571Y-20592535D01*
X32485714Y-20449678D01*
X32414285Y-20163964D01*
X32414285Y-19663964D01*
X32485714Y-19378250D01*
X32628571Y-19235393D01*
X32771428Y-19163964D01*
X34342857Y-19163964D02*
X34628571Y-19163964D01*
X34771428Y-19235393D01*
X34914285Y-19378250D01*
X34985714Y-19663964D01*
X34985714Y-20163964D01*
X34914285Y-20449678D01*
X34771428Y-20592535D01*
X34628571Y-20663964D01*
X34342857Y-20663964D01*
X34200000Y-20592535D01*
X34057142Y-20449678D01*
X33985714Y-20163964D01*
X33985714Y-19663964D01*
X34057142Y-19378250D01*
X34200000Y-19235393D01*
X34342857Y-19163964D01*
X36342857Y-20663964D02*
X35628571Y-20663964D01*
X35628571Y-19163964D01*
X36842857Y-20663964D02*
X36842857Y-19163964D01*
X37557142Y-20663964D02*
X37557142Y-19163964D01*
X38414285Y-20663964D01*
X38414285Y-19163964D01*
X39914285Y-19235393D02*
X39771428Y-19163964D01*
X39557142Y-19163964D01*
X39342857Y-19235393D01*
X39200000Y-19378250D01*
X39128571Y-19521107D01*
X39057142Y-19806821D01*
X39057142Y-20021107D01*
X39128571Y-20306821D01*
X39200000Y-20449678D01*
X39342857Y-20592535D01*
X39557142Y-20663964D01*
X39700000Y-20663964D01*
X39914285Y-20592535D01*
X39985714Y-20521107D01*
X39985714Y-20021107D01*
X39700000Y-20021107D01*
X30914285Y-23078964D02*
X30914285Y-21578964D01*
X30914285Y-22293250D02*
X31771428Y-22293250D01*
X31771428Y-23078964D02*
X31771428Y-21578964D01*
X32771428Y-21578964D02*
X33057142Y-21578964D01*
X33200000Y-21650393D01*
X33342857Y-21793250D01*
X33414285Y-22078964D01*
X33414285Y-22578964D01*
X33342857Y-22864678D01*
X33200000Y-23007535D01*
X33057142Y-23078964D01*
X32771428Y-23078964D01*
X32628571Y-23007535D01*
X32485714Y-22864678D01*
X32414285Y-22578964D01*
X32414285Y-22078964D01*
X32485714Y-21793250D01*
X32628571Y-21650393D01*
X32771428Y-21578964D01*
X34771428Y-23078964D02*
X34057142Y-23078964D01*
X34057142Y-21578964D01*
X35271428Y-22293250D02*
X35771428Y-22293250D01*
X35985714Y-23078964D02*
X35271428Y-23078964D01*
X35271428Y-21578964D01*
X35985714Y-21578964D01*
X38557142Y-23078964D02*
X37700000Y-23078964D01*
X38128571Y-23078964D02*
X38128571Y-21578964D01*
X37985714Y-21793250D01*
X37842857Y-21936107D01*
X37700000Y-22007535D01*
X40271428Y-21507535D02*
X38985714Y-23436107D01*
X40628571Y-21578964D02*
X41557142Y-21578964D01*
X41057142Y-22150393D01*
X41271428Y-22150393D01*
X41414285Y-22221821D01*
X41485714Y-22293250D01*
X41557142Y-22436107D01*
X41557142Y-22793250D01*
X41485714Y-22936107D01*
X41414285Y-23007535D01*
X41271428Y-23078964D01*
X40842857Y-23078964D01*
X40700000Y-23007535D01*
X40628571Y-22936107D01*
D13*
%TO.C,L1*%
X32376190Y-61343333D02*
X32376190Y-61581428D01*
X31876190Y-61581428D01*
X32376190Y-60914761D02*
X32376190Y-61200476D01*
X32376190Y-61057619D02*
X31876190Y-61057619D01*
X31947619Y-61105238D01*
X31995238Y-61152857D01*
X32019047Y-61200476D01*
D14*
%TO.C,J11*%
X60237380Y-27859523D02*
X60951666Y-27859523D01*
X61094523Y-27907142D01*
X61189761Y-28002380D01*
X61237380Y-28145238D01*
X61237380Y-28240476D01*
X61237380Y-26859523D02*
X61237380Y-27430952D01*
X61237380Y-27145238D02*
X60237380Y-27145238D01*
X60380238Y-27240476D01*
X60475476Y-27335714D01*
X60523095Y-27430952D01*
X61237380Y-25907142D02*
X61237380Y-26478571D01*
X61237380Y-26192857D02*
X60237380Y-26192857D01*
X60380238Y-26288095D01*
X60475476Y-26383333D01*
X60523095Y-26478571D01*
D13*
%TO.C,C5*%
X36678571Y-73183333D02*
X36702380Y-73207142D01*
X36726190Y-73278571D01*
X36726190Y-73326190D01*
X36702380Y-73397619D01*
X36654761Y-73445238D01*
X36607142Y-73469047D01*
X36511904Y-73492857D01*
X36440476Y-73492857D01*
X36345238Y-73469047D01*
X36297619Y-73445238D01*
X36250000Y-73397619D01*
X36226190Y-73326190D01*
X36226190Y-73278571D01*
X36250000Y-73207142D01*
X36273809Y-73183333D01*
X36226190Y-72730952D02*
X36226190Y-72969047D01*
X36464285Y-72992857D01*
X36440476Y-72969047D01*
X36416666Y-72921428D01*
X36416666Y-72802380D01*
X36440476Y-72754761D01*
X36464285Y-72730952D01*
X36511904Y-72707142D01*
X36630952Y-72707142D01*
X36678571Y-72730952D01*
X36702380Y-72754761D01*
X36726190Y-72802380D01*
X36726190Y-72921428D01*
X36702380Y-72969047D01*
X36678571Y-72992857D01*
%TO.C,C1*%
X44578571Y-66008333D02*
X44602380Y-66032142D01*
X44626190Y-66103571D01*
X44626190Y-66151190D01*
X44602380Y-66222619D01*
X44554761Y-66270238D01*
X44507142Y-66294047D01*
X44411904Y-66317857D01*
X44340476Y-66317857D01*
X44245238Y-66294047D01*
X44197619Y-66270238D01*
X44150000Y-66222619D01*
X44126190Y-66151190D01*
X44126190Y-66103571D01*
X44150000Y-66032142D01*
X44173809Y-66008333D01*
X44626190Y-65532142D02*
X44626190Y-65817857D01*
X44626190Y-65675000D02*
X44126190Y-65675000D01*
X44197619Y-65722619D01*
X44245238Y-65770238D01*
X44269047Y-65817857D01*
%TO.C,R12*%
X36676189Y-70081428D02*
X36438094Y-70248095D01*
X36676189Y-70367142D02*
X36176189Y-70367142D01*
X36176189Y-70176666D01*
X36199999Y-70129047D01*
X36223808Y-70105238D01*
X36271427Y-70081428D01*
X36342856Y-70081428D01*
X36390475Y-70105238D01*
X36414284Y-70129047D01*
X36438094Y-70176666D01*
X36438094Y-70367142D01*
X36676189Y-69605238D02*
X36676189Y-69890952D01*
X36676189Y-69748095D02*
X36176189Y-69748095D01*
X36247618Y-69795714D01*
X36295237Y-69843333D01*
X36319046Y-69890952D01*
X36223808Y-69414761D02*
X36199999Y-69390952D01*
X36176189Y-69343333D01*
X36176189Y-69224285D01*
X36199999Y-69176666D01*
X36223808Y-69152857D01*
X36271427Y-69129047D01*
X36319046Y-69129047D01*
X36390475Y-69152857D01*
X36676189Y-69438571D01*
X36676189Y-69129047D01*
%TO.C,R6*%
X46150190Y-66000333D02*
X45912095Y-66167000D01*
X46150190Y-66286047D02*
X45650190Y-66286047D01*
X45650190Y-66095571D01*
X45674000Y-66047952D01*
X45697809Y-66024142D01*
X45745428Y-66000333D01*
X45816857Y-66000333D01*
X45864476Y-66024142D01*
X45888285Y-66047952D01*
X45912095Y-66095571D01*
X45912095Y-66286047D01*
X45650190Y-65571761D02*
X45650190Y-65667000D01*
X45674000Y-65714619D01*
X45697809Y-65738428D01*
X45769238Y-65786047D01*
X45864476Y-65809857D01*
X46054952Y-65809857D01*
X46102571Y-65786047D01*
X46126380Y-65762238D01*
X46150190Y-65714619D01*
X46150190Y-65619380D01*
X46126380Y-65571761D01*
X46102571Y-65547952D01*
X46054952Y-65524142D01*
X45935904Y-65524142D01*
X45888285Y-65547952D01*
X45864476Y-65571761D01*
X45840666Y-65619380D01*
X45840666Y-65714619D01*
X45864476Y-65762238D01*
X45888285Y-65786047D01*
X45935904Y-65809857D01*
D14*
%TO.C,J18*%
X68590476Y-65232380D02*
X68590476Y-65946666D01*
X68542857Y-66089523D01*
X68447619Y-66184761D01*
X68304761Y-66232380D01*
X68209523Y-66232380D01*
X69590476Y-66232380D02*
X69019047Y-66232380D01*
X69304761Y-66232380D02*
X69304761Y-65232380D01*
X69209523Y-65375238D01*
X69114285Y-65470476D01*
X69019047Y-65518095D01*
X70161904Y-65660952D02*
X70066666Y-65613333D01*
X70019047Y-65565714D01*
X69971428Y-65470476D01*
X69971428Y-65422857D01*
X70019047Y-65327619D01*
X70066666Y-65280000D01*
X70161904Y-65232380D01*
X70352380Y-65232380D01*
X70447619Y-65280000D01*
X70495238Y-65327619D01*
X70542857Y-65422857D01*
X70542857Y-65470476D01*
X70495238Y-65565714D01*
X70447619Y-65613333D01*
X70352380Y-65660952D01*
X70161904Y-65660952D01*
X70066666Y-65708571D01*
X70019047Y-65756190D01*
X69971428Y-65851428D01*
X69971428Y-66041904D01*
X70019047Y-66137142D01*
X70066666Y-66184761D01*
X70161904Y-66232380D01*
X70352380Y-66232380D01*
X70447619Y-66184761D01*
X70495238Y-66137142D01*
X70542857Y-66041904D01*
X70542857Y-65851428D01*
X70495238Y-65756190D01*
X70447619Y-65708571D01*
X70352380Y-65660952D01*
D15*
%TO.C,R14*%
X41320952Y-42157142D02*
X41130476Y-42290476D01*
X41320952Y-42385714D02*
X40920952Y-42385714D01*
X40920952Y-42233333D01*
X40940000Y-42195238D01*
X40959047Y-42176190D01*
X40997142Y-42157142D01*
X41054285Y-42157142D01*
X41092380Y-42176190D01*
X41111428Y-42195238D01*
X41130476Y-42233333D01*
X41130476Y-42385714D01*
X41320952Y-41776190D02*
X41320952Y-42004761D01*
X41320952Y-41890476D02*
X40920952Y-41890476D01*
X40978095Y-41928571D01*
X41016190Y-41966666D01*
X41035238Y-42004761D01*
X41054285Y-41433333D02*
X41320952Y-41433333D01*
X40901904Y-41528571D02*
X41187619Y-41623809D01*
X41187619Y-41376190D01*
D14*
%TO.C,J5*%
X80857380Y-77531226D02*
X81571666Y-77531226D01*
X81714523Y-77578845D01*
X81809761Y-77674083D01*
X81857380Y-77816940D01*
X81857380Y-77912178D01*
X80857380Y-76578845D02*
X80857380Y-77055035D01*
X81333571Y-77102654D01*
X81285952Y-77055035D01*
X81238333Y-76959797D01*
X81238333Y-76721702D01*
X81285952Y-76626464D01*
X81333571Y-76578845D01*
X81428809Y-76531226D01*
X81666904Y-76531226D01*
X81762142Y-76578845D01*
X81809761Y-76626464D01*
X81857380Y-76721702D01*
X81857380Y-76959797D01*
X81809761Y-77055035D01*
X81762142Y-77102654D01*
D13*
%TO.C,D3*%
X46626190Y-72261940D02*
X46126190Y-72261940D01*
X46126190Y-72142893D01*
X46150000Y-72071464D01*
X46197619Y-72023845D01*
X46245238Y-72000035D01*
X46340476Y-71976226D01*
X46411904Y-71976226D01*
X46507142Y-72000035D01*
X46554761Y-72023845D01*
X46602380Y-72071464D01*
X46626190Y-72142893D01*
X46626190Y-72261940D01*
X46126190Y-71809559D02*
X46126190Y-71500035D01*
X46316666Y-71666702D01*
X46316666Y-71595273D01*
X46340476Y-71547654D01*
X46364285Y-71523845D01*
X46411904Y-71500035D01*
X46530952Y-71500035D01*
X46578571Y-71523845D01*
X46602380Y-71547654D01*
X46626190Y-71595273D01*
X46626190Y-71738131D01*
X46602380Y-71785750D01*
X46578571Y-71809559D01*
%TO.C,J4*%
X58658333Y-80753083D02*
X58658333Y-81110226D01*
X58634523Y-81181654D01*
X58586904Y-81229273D01*
X58515476Y-81253083D01*
X58467857Y-81253083D01*
X59110714Y-80919750D02*
X59110714Y-81253083D01*
X58991666Y-80729273D02*
X58872619Y-81086416D01*
X59182142Y-81086416D01*
D14*
%TO.C,H4*%
X23238095Y-83452380D02*
X23238095Y-82452380D01*
X23238095Y-82928571D02*
X23809523Y-82928571D01*
X23809523Y-83452380D02*
X23809523Y-82452380D01*
X24714285Y-82785714D02*
X24714285Y-83452380D01*
X24476190Y-82404761D02*
X24238095Y-83119047D01*
X24857142Y-83119047D01*
%TO.C,JP7*%
X44877380Y-41618333D02*
X45591666Y-41618333D01*
X45734523Y-41665952D01*
X45829761Y-41761190D01*
X45877380Y-41904047D01*
X45877380Y-41999285D01*
X45877380Y-41142142D02*
X44877380Y-41142142D01*
X44877380Y-40761190D01*
X44925000Y-40665952D01*
X44972619Y-40618333D01*
X45067857Y-40570714D01*
X45210714Y-40570714D01*
X45305952Y-40618333D01*
X45353571Y-40665952D01*
X45401190Y-40761190D01*
X45401190Y-41142142D01*
X44877380Y-40237380D02*
X44877380Y-39570714D01*
X45877380Y-39999285D01*
%TO.C,J10*%
X77160761Y-20414524D02*
X77875047Y-20414524D01*
X78017904Y-20462143D01*
X78113142Y-20557381D01*
X78160761Y-20700239D01*
X78160761Y-20795477D01*
X78160761Y-19414524D02*
X78160761Y-19985953D01*
X78160761Y-19700239D02*
X77160761Y-19700239D01*
X77303619Y-19795477D01*
X77398857Y-19890715D01*
X77446476Y-19985953D01*
X77160761Y-18795477D02*
X77160761Y-18700239D01*
X77208381Y-18605001D01*
X77256000Y-18557381D01*
X77351238Y-18509762D01*
X77541714Y-18462143D01*
X77779809Y-18462143D01*
X77970285Y-18509762D01*
X78065523Y-18557381D01*
X78113142Y-18605001D01*
X78160761Y-18700239D01*
X78160761Y-18795477D01*
X78113142Y-18890715D01*
X78065523Y-18938334D01*
X77970285Y-18985953D01*
X77779809Y-19033572D01*
X77541714Y-19033572D01*
X77351238Y-18985953D01*
X77256000Y-18938334D01*
X77208381Y-18890715D01*
X77160761Y-18795477D01*
%TO.C,J7*%
X8152380Y-59533333D02*
X8866666Y-59533333D01*
X9009523Y-59580952D01*
X9104761Y-59676190D01*
X9152380Y-59819047D01*
X9152380Y-59914285D01*
X8152380Y-59152380D02*
X8152380Y-58485714D01*
X9152380Y-58914285D01*
D15*
%TO.C,R15*%
X39680952Y-42157142D02*
X39490476Y-42290476D01*
X39680952Y-42385714D02*
X39280952Y-42385714D01*
X39280952Y-42233333D01*
X39300000Y-42195238D01*
X39319047Y-42176190D01*
X39357142Y-42157142D01*
X39414285Y-42157142D01*
X39452380Y-42176190D01*
X39471428Y-42195238D01*
X39490476Y-42233333D01*
X39490476Y-42385714D01*
X39680952Y-41776190D02*
X39680952Y-42004761D01*
X39680952Y-41890476D02*
X39280952Y-41890476D01*
X39338095Y-41928571D01*
X39376190Y-41966666D01*
X39395238Y-42004761D01*
X39280952Y-41414285D02*
X39280952Y-41604761D01*
X39471428Y-41623809D01*
X39452380Y-41604761D01*
X39433333Y-41566666D01*
X39433333Y-41471428D01*
X39452380Y-41433333D01*
X39471428Y-41414285D01*
X39509523Y-41395238D01*
X39604761Y-41395238D01*
X39642857Y-41414285D01*
X39661904Y-41433333D01*
X39680952Y-41471428D01*
X39680952Y-41566666D01*
X39661904Y-41604761D01*
X39642857Y-41623809D01*
D14*
%TO.C,J17*%
X68590476Y-55632380D02*
X68590476Y-56346666D01*
X68542857Y-56489523D01*
X68447619Y-56584761D01*
X68304761Y-56632380D01*
X68209523Y-56632380D01*
X69590476Y-56632380D02*
X69019047Y-56632380D01*
X69304761Y-56632380D02*
X69304761Y-55632380D01*
X69209523Y-55775238D01*
X69114285Y-55870476D01*
X69019047Y-55918095D01*
X69923809Y-55632380D02*
X70590476Y-55632380D01*
X70161904Y-56632380D01*
%TO.C,JP5*%
X69652380Y-34006713D02*
X70366666Y-34006713D01*
X70509523Y-34054332D01*
X70604761Y-34149570D01*
X70652380Y-34292427D01*
X70652380Y-34387665D01*
X70652380Y-33530522D02*
X69652380Y-33530522D01*
X69652380Y-33149570D01*
X69700000Y-33054332D01*
X69747619Y-33006713D01*
X69842857Y-32959094D01*
X69985714Y-32959094D01*
X70080952Y-33006713D01*
X70128571Y-33054332D01*
X70176190Y-33149570D01*
X70176190Y-33530522D01*
X69652380Y-32054332D02*
X69652380Y-32530522D01*
X70128571Y-32578141D01*
X70080952Y-32530522D01*
X70033333Y-32435284D01*
X70033333Y-32197189D01*
X70080952Y-32101951D01*
X70128571Y-32054332D01*
X70223809Y-32006713D01*
X70461904Y-32006713D01*
X70557142Y-32054332D01*
X70604761Y-32101951D01*
X70652380Y-32197189D01*
X70652380Y-32435284D01*
X70604761Y-32530522D01*
X70557142Y-32578141D01*
%TO.C,J16*%
X60237380Y-65459523D02*
X60951666Y-65459523D01*
X61094523Y-65507142D01*
X61189761Y-65602380D01*
X61237380Y-65745238D01*
X61237380Y-65840476D01*
X61237380Y-64459523D02*
X61237380Y-65030952D01*
X61237380Y-64745238D02*
X60237380Y-64745238D01*
X60380238Y-64840476D01*
X60475476Y-64935714D01*
X60523095Y-65030952D01*
X60237380Y-63602380D02*
X60237380Y-63792857D01*
X60285000Y-63888095D01*
X60332619Y-63935714D01*
X60475476Y-64030952D01*
X60665952Y-64078571D01*
X61046904Y-64078571D01*
X61142142Y-64030952D01*
X61189761Y-63983333D01*
X61237380Y-63888095D01*
X61237380Y-63697619D01*
X61189761Y-63602380D01*
X61142142Y-63554761D01*
X61046904Y-63507142D01*
X60808809Y-63507142D01*
X60713571Y-63554761D01*
X60665952Y-63602380D01*
X60618333Y-63697619D01*
X60618333Y-63888095D01*
X60665952Y-63983333D01*
X60713571Y-64030952D01*
X60808809Y-64078571D01*
%TO.C,J15*%
X8152380Y-69239523D02*
X8866666Y-69239523D01*
X9009523Y-69287142D01*
X9104761Y-69382380D01*
X9152380Y-69525238D01*
X9152380Y-69620476D01*
X9152380Y-68239523D02*
X9152380Y-68810952D01*
X9152380Y-68525238D02*
X8152380Y-68525238D01*
X8295238Y-68620476D01*
X8390476Y-68715714D01*
X8438095Y-68810952D01*
X8152380Y-67334761D02*
X8152380Y-67810952D01*
X8628571Y-67858571D01*
X8580952Y-67810952D01*
X8533333Y-67715714D01*
X8533333Y-67477619D01*
X8580952Y-67382380D01*
X8628571Y-67334761D01*
X8723809Y-67287142D01*
X8961904Y-67287142D01*
X9057142Y-67334761D01*
X9104761Y-67382380D01*
X9152380Y-67477619D01*
X9152380Y-67715714D01*
X9104761Y-67810952D01*
X9057142Y-67858571D01*
D13*
%TO.C,R7*%
X21316666Y-60926190D02*
X21150000Y-60688095D01*
X21030952Y-60926190D02*
X21030952Y-60426190D01*
X21221428Y-60426190D01*
X21269047Y-60450000D01*
X21292857Y-60473809D01*
X21316666Y-60521428D01*
X21316666Y-60592857D01*
X21292857Y-60640476D01*
X21269047Y-60664285D01*
X21221428Y-60688095D01*
X21030952Y-60688095D01*
X21483333Y-60426190D02*
X21816666Y-60426190D01*
X21602380Y-60926190D01*
%TO.C,D5*%
X46080952Y-80326190D02*
X46080952Y-79826190D01*
X46200000Y-79826190D01*
X46271428Y-79850000D01*
X46319047Y-79897619D01*
X46342857Y-79945238D01*
X46366666Y-80040476D01*
X46366666Y-80111904D01*
X46342857Y-80207142D01*
X46319047Y-80254761D01*
X46271428Y-80302380D01*
X46200000Y-80326190D01*
X46080952Y-80326190D01*
X46819047Y-79826190D02*
X46580952Y-79826190D01*
X46557142Y-80064285D01*
X46580952Y-80040476D01*
X46628571Y-80016666D01*
X46747619Y-80016666D01*
X46795238Y-80040476D01*
X46819047Y-80064285D01*
X46842857Y-80111904D01*
X46842857Y-80230952D01*
X46819047Y-80278571D01*
X46795238Y-80302380D01*
X46747619Y-80326190D01*
X46628571Y-80326190D01*
X46580952Y-80302380D01*
X46557142Y-80278571D01*
D14*
%TO.C,H6*%
X68738095Y-83445273D02*
X68738095Y-82445273D01*
X68738095Y-82921464D02*
X69309523Y-82921464D01*
X69309523Y-83445273D02*
X69309523Y-82445273D01*
X70214285Y-82445273D02*
X70023809Y-82445273D01*
X69928571Y-82492893D01*
X69880952Y-82540512D01*
X69785714Y-82683369D01*
X69738095Y-82873845D01*
X69738095Y-83254797D01*
X69785714Y-83350035D01*
X69833333Y-83397654D01*
X69928571Y-83445273D01*
X70119047Y-83445273D01*
X70214285Y-83397654D01*
X70261904Y-83350035D01*
X70309523Y-83254797D01*
X70309523Y-83016702D01*
X70261904Y-82921464D01*
X70214285Y-82873845D01*
X70119047Y-82826226D01*
X69928571Y-82826226D01*
X69833333Y-82873845D01*
X69785714Y-82921464D01*
X69738095Y-83016702D01*
%TO.C,JP6*%
X44877380Y-31793333D02*
X45591666Y-31793333D01*
X45734523Y-31840952D01*
X45829761Y-31936190D01*
X45877380Y-32079047D01*
X45877380Y-32174285D01*
X45877380Y-31317142D02*
X44877380Y-31317142D01*
X44877380Y-30936190D01*
X44925000Y-30840952D01*
X44972619Y-30793333D01*
X45067857Y-30745714D01*
X45210714Y-30745714D01*
X45305952Y-30793333D01*
X45353571Y-30840952D01*
X45401190Y-30936190D01*
X45401190Y-31317142D01*
X44877380Y-29888571D02*
X44877380Y-30079047D01*
X44925000Y-30174285D01*
X44972619Y-30221904D01*
X45115476Y-30317142D01*
X45305952Y-30364761D01*
X45686904Y-30364761D01*
X45782142Y-30317142D01*
X45829761Y-30269523D01*
X45877380Y-30174285D01*
X45877380Y-29983809D01*
X45829761Y-29888571D01*
X45782142Y-29840952D01*
X45686904Y-29793333D01*
X45448809Y-29793333D01*
X45353571Y-29840952D01*
X45305952Y-29888571D01*
X45258333Y-29983809D01*
X45258333Y-30174285D01*
X45305952Y-30269523D01*
X45353571Y-30317142D01*
X45448809Y-30364761D01*
D13*
%TO.C,R5*%
X65326190Y-78276226D02*
X65088095Y-78442893D01*
X65326190Y-78561940D02*
X64826190Y-78561940D01*
X64826190Y-78371464D01*
X64850000Y-78323845D01*
X64873809Y-78300035D01*
X64921428Y-78276226D01*
X64992857Y-78276226D01*
X65040476Y-78300035D01*
X65064285Y-78323845D01*
X65088095Y-78371464D01*
X65088095Y-78561940D01*
X64826190Y-77823845D02*
X64826190Y-78061940D01*
X65064285Y-78085750D01*
X65040476Y-78061940D01*
X65016666Y-78014321D01*
X65016666Y-77895273D01*
X65040476Y-77847654D01*
X65064285Y-77823845D01*
X65111904Y-77800035D01*
X65230952Y-77800035D01*
X65278571Y-77823845D01*
X65302380Y-77847654D01*
X65326190Y-77895273D01*
X65326190Y-78014321D01*
X65302380Y-78061940D01*
X65278571Y-78085750D01*
D16*
%TO.C,Q4*%
X39675238Y-45530476D02*
X39660000Y-45560952D01*
X39629523Y-45591428D01*
X39583809Y-45637142D01*
X39568571Y-45667619D01*
X39568571Y-45698095D01*
X39644761Y-45682857D02*
X39629523Y-45713333D01*
X39599047Y-45743809D01*
X39538095Y-45759047D01*
X39431428Y-45759047D01*
X39370476Y-45743809D01*
X39340000Y-45713333D01*
X39324761Y-45682857D01*
X39324761Y-45621904D01*
X39340000Y-45591428D01*
X39370476Y-45560952D01*
X39431428Y-45545714D01*
X39538095Y-45545714D01*
X39599047Y-45560952D01*
X39629523Y-45591428D01*
X39644761Y-45621904D01*
X39644761Y-45682857D01*
X39431428Y-45271428D02*
X39644761Y-45271428D01*
X39309523Y-45347619D02*
X39538095Y-45423809D01*
X39538095Y-45225714D01*
D14*
%TO.C,Q2*%
X20197619Y-67195238D02*
X20150000Y-67290476D01*
X20054761Y-67385714D01*
X19911904Y-67528571D01*
X19864285Y-67623809D01*
X19864285Y-67719047D01*
X20102380Y-67671428D02*
X20054761Y-67766666D01*
X19959523Y-67861904D01*
X19769047Y-67909523D01*
X19435714Y-67909523D01*
X19245238Y-67861904D01*
X19150000Y-67766666D01*
X19102380Y-67671428D01*
X19102380Y-67480952D01*
X19150000Y-67385714D01*
X19245238Y-67290476D01*
X19435714Y-67242857D01*
X19769047Y-67242857D01*
X19959523Y-67290476D01*
X20054761Y-67385714D01*
X20102380Y-67480952D01*
X20102380Y-67671428D01*
X19197619Y-66861904D02*
X19150000Y-66814285D01*
X19102380Y-66719047D01*
X19102380Y-66480952D01*
X19150000Y-66385714D01*
X19197619Y-66338095D01*
X19292857Y-66290476D01*
X19388095Y-66290476D01*
X19530952Y-66338095D01*
X20102380Y-66909523D01*
X20102380Y-66290476D01*
D13*
%TO.C,R8*%
X19226190Y-59983333D02*
X18988095Y-60150000D01*
X19226190Y-60269047D02*
X18726190Y-60269047D01*
X18726190Y-60078571D01*
X18750000Y-60030952D01*
X18773809Y-60007142D01*
X18821428Y-59983333D01*
X18892857Y-59983333D01*
X18940476Y-60007142D01*
X18964285Y-60030952D01*
X18988095Y-60078571D01*
X18988095Y-60269047D01*
X18940476Y-59697619D02*
X18916666Y-59745238D01*
X18892857Y-59769047D01*
X18845238Y-59792857D01*
X18821428Y-59792857D01*
X18773809Y-59769047D01*
X18750000Y-59745238D01*
X18726190Y-59697619D01*
X18726190Y-59602380D01*
X18750000Y-59554761D01*
X18773809Y-59530952D01*
X18821428Y-59507142D01*
X18845238Y-59507142D01*
X18892857Y-59530952D01*
X18916666Y-59554761D01*
X18940476Y-59602380D01*
X18940476Y-59697619D01*
X18964285Y-59745238D01*
X18988095Y-59769047D01*
X19035714Y-59792857D01*
X19130952Y-59792857D01*
X19178571Y-59769047D01*
X19202380Y-59745238D01*
X19226190Y-59697619D01*
X19226190Y-59602380D01*
X19202380Y-59554761D01*
X19178571Y-59530952D01*
X19130952Y-59507142D01*
X19035714Y-59507142D01*
X18988095Y-59530952D01*
X18964285Y-59554761D01*
X18940476Y-59602380D01*
%TO.C,D1*%
X44363690Y-70056547D02*
X43863690Y-70056547D01*
X43863690Y-69937500D01*
X43887500Y-69866071D01*
X43935119Y-69818452D01*
X43982738Y-69794642D01*
X44077976Y-69770833D01*
X44149404Y-69770833D01*
X44244642Y-69794642D01*
X44292261Y-69818452D01*
X44339880Y-69866071D01*
X44363690Y-69937500D01*
X44363690Y-70056547D01*
X44363690Y-69294642D02*
X44363690Y-69580357D01*
X44363690Y-69437500D02*
X43863690Y-69437500D01*
X43935119Y-69485119D01*
X43982738Y-69532738D01*
X44006547Y-69580357D01*
%TO.C,C6*%
X29628571Y-69843332D02*
X29652380Y-69867141D01*
X29676190Y-69938570D01*
X29676190Y-69986189D01*
X29652380Y-70057618D01*
X29604761Y-70105237D01*
X29557142Y-70129046D01*
X29461904Y-70152856D01*
X29390476Y-70152856D01*
X29295238Y-70129046D01*
X29247619Y-70105237D01*
X29200000Y-70057618D01*
X29176190Y-69986189D01*
X29176190Y-69938570D01*
X29200000Y-69867141D01*
X29223809Y-69843332D01*
X29176190Y-69414760D02*
X29176190Y-69509999D01*
X29200000Y-69557618D01*
X29223809Y-69581427D01*
X29295238Y-69629046D01*
X29390476Y-69652856D01*
X29580952Y-69652856D01*
X29628571Y-69629046D01*
X29652380Y-69605237D01*
X29676190Y-69557618D01*
X29676190Y-69462379D01*
X29652380Y-69414760D01*
X29628571Y-69390951D01*
X29580952Y-69367141D01*
X29461904Y-69367141D01*
X29414285Y-69390951D01*
X29390476Y-69414760D01*
X29366666Y-69462379D01*
X29366666Y-69557618D01*
X29390476Y-69605237D01*
X29414285Y-69629046D01*
X29461904Y-69652856D01*
D14*
%TO.C,JP4*%
X69652380Y-22286226D02*
X70366666Y-22286226D01*
X70509523Y-22333845D01*
X70604761Y-22429083D01*
X70652380Y-22571940D01*
X70652380Y-22667178D01*
X70652380Y-21810035D02*
X69652380Y-21810035D01*
X69652380Y-21429083D01*
X69700000Y-21333845D01*
X69747619Y-21286226D01*
X69842857Y-21238607D01*
X69985714Y-21238607D01*
X70080952Y-21286226D01*
X70128571Y-21333845D01*
X70176190Y-21429083D01*
X70176190Y-21810035D01*
X69985714Y-20381464D02*
X70652380Y-20381464D01*
X69604761Y-20619559D02*
X70319047Y-20857654D01*
X70319047Y-20238607D01*
%TO.C,J12*%
X77160761Y-33467904D02*
X77875047Y-33467904D01*
X78017904Y-33515523D01*
X78113142Y-33610761D01*
X78160761Y-33753619D01*
X78160761Y-33848857D01*
X78160761Y-32467904D02*
X78160761Y-33039333D01*
X78160761Y-32753619D02*
X77160761Y-32753619D01*
X77303619Y-32848857D01*
X77398857Y-32944095D01*
X77446476Y-33039333D01*
X77256000Y-32086952D02*
X77208381Y-32039333D01*
X77160761Y-31944095D01*
X77160761Y-31706000D01*
X77208381Y-31610761D01*
X77256000Y-31563142D01*
X77351238Y-31515523D01*
X77446476Y-31515523D01*
X77589333Y-31563142D01*
X78160761Y-32134571D01*
X78160761Y-31515523D01*
%TO.C,H5*%
X68738095Y-14445273D02*
X68738095Y-13445273D01*
X68738095Y-13921464D02*
X69309523Y-13921464D01*
X69309523Y-14445273D02*
X69309523Y-13445273D01*
X70261904Y-13445273D02*
X69785714Y-13445273D01*
X69738095Y-13921464D01*
X69785714Y-13873845D01*
X69880952Y-13826226D01*
X70119047Y-13826226D01*
X70214285Y-13873845D01*
X70261904Y-13921464D01*
X70309523Y-14016702D01*
X70309523Y-14254797D01*
X70261904Y-14350035D01*
X70214285Y-14397654D01*
X70119047Y-14445273D01*
X69880952Y-14445273D01*
X69785714Y-14397654D01*
X69738095Y-14350035D01*
D13*
%TO.C,C4*%
X33516666Y-80938571D02*
X33492857Y-80962380D01*
X33421428Y-80986190D01*
X33373809Y-80986190D01*
X33302380Y-80962380D01*
X33254761Y-80914761D01*
X33230952Y-80867142D01*
X33207142Y-80771904D01*
X33207142Y-80700476D01*
X33230952Y-80605238D01*
X33254761Y-80557619D01*
X33302380Y-80510000D01*
X33373809Y-80486190D01*
X33421428Y-80486190D01*
X33492857Y-80510000D01*
X33516666Y-80533809D01*
X33945238Y-80652857D02*
X33945238Y-80986190D01*
X33826190Y-80462380D02*
X33707142Y-80819523D01*
X34016666Y-80819523D01*
D14*
%TO.C,J14*%
X77160761Y-46764524D02*
X77875047Y-46764524D01*
X78017904Y-46812143D01*
X78113142Y-46907381D01*
X78160761Y-47050239D01*
X78160761Y-47145477D01*
X78160761Y-45764524D02*
X78160761Y-46335953D01*
X78160761Y-46050239D02*
X77160761Y-46050239D01*
X77303619Y-46145477D01*
X77398857Y-46240715D01*
X77446476Y-46335953D01*
X77494095Y-44907381D02*
X78160761Y-44907381D01*
X77113142Y-45145477D02*
X77827428Y-45383572D01*
X77827428Y-44764524D01*
D13*
%TO.C,K1*%
X30513047Y-29442857D02*
X29863047Y-29442857D01*
X30513047Y-29100000D02*
X30141619Y-29357142D01*
X29863047Y-29100000D02*
X30234476Y-29442857D01*
X30513047Y-28528571D02*
X30513047Y-28871428D01*
X30513047Y-28700000D02*
X29863047Y-28700000D01*
X29955904Y-28757142D01*
X30017809Y-28814285D01*
X30048761Y-28871428D01*
D14*
%TO.C,J13*%
X60237380Y-46659523D02*
X60951666Y-46659523D01*
X61094523Y-46707142D01*
X61189761Y-46802380D01*
X61237380Y-46945238D01*
X61237380Y-47040476D01*
X61237380Y-45659523D02*
X61237380Y-46230952D01*
X61237380Y-45945238D02*
X60237380Y-45945238D01*
X60380238Y-46040476D01*
X60475476Y-46135714D01*
X60523095Y-46230952D01*
X60237380Y-45326190D02*
X60237380Y-44707142D01*
X60618333Y-45040476D01*
X60618333Y-44897619D01*
X60665952Y-44802380D01*
X60713571Y-44754761D01*
X60808809Y-44707142D01*
X61046904Y-44707142D01*
X61142142Y-44754761D01*
X61189761Y-44802380D01*
X61237380Y-44897619D01*
X61237380Y-45183333D01*
X61189761Y-45278571D01*
X61142142Y-45326190D01*
%TO.C,JP2*%
X44852380Y-53448333D02*
X45566666Y-53448333D01*
X45709523Y-53495952D01*
X45804761Y-53591190D01*
X45852380Y-53734047D01*
X45852380Y-53829285D01*
X45852380Y-52972142D02*
X44852380Y-52972142D01*
X44852380Y-52591190D01*
X44900000Y-52495952D01*
X44947619Y-52448333D01*
X45042857Y-52400714D01*
X45185714Y-52400714D01*
X45280952Y-52448333D01*
X45328571Y-52495952D01*
X45376190Y-52591190D01*
X45376190Y-52972142D01*
X44947619Y-52019761D02*
X44900000Y-51972142D01*
X44852380Y-51876904D01*
X44852380Y-51638809D01*
X44900000Y-51543571D01*
X44947619Y-51495952D01*
X45042857Y-51448333D01*
X45138095Y-51448333D01*
X45280952Y-51495952D01*
X45852380Y-52067380D01*
X45852380Y-51448333D01*
D13*
%TO.C,C2*%
X50199571Y-73141226D02*
X50223380Y-73165035D01*
X50247190Y-73236464D01*
X50247190Y-73284083D01*
X50223380Y-73355512D01*
X50175761Y-73403131D01*
X50128142Y-73426940D01*
X50032904Y-73450750D01*
X49961476Y-73450750D01*
X49866238Y-73426940D01*
X49818619Y-73403131D01*
X49771000Y-73355512D01*
X49747190Y-73284083D01*
X49747190Y-73236464D01*
X49771000Y-73165035D01*
X49794809Y-73141226D01*
X49794809Y-72950750D02*
X49771000Y-72926940D01*
X49747190Y-72879321D01*
X49747190Y-72760273D01*
X49771000Y-72712654D01*
X49794809Y-72688845D01*
X49842428Y-72665035D01*
X49890047Y-72665035D01*
X49961476Y-72688845D01*
X50247190Y-72974559D01*
X50247190Y-72665035D01*
D15*
%TO.C,R16*%
X36677857Y-38825952D02*
X36544523Y-38635476D01*
X36449285Y-38825952D02*
X36449285Y-38425952D01*
X36601666Y-38425952D01*
X36639761Y-38445000D01*
X36658809Y-38464047D01*
X36677857Y-38502142D01*
X36677857Y-38559285D01*
X36658809Y-38597380D01*
X36639761Y-38616428D01*
X36601666Y-38635476D01*
X36449285Y-38635476D01*
X37058809Y-38825952D02*
X36830238Y-38825952D01*
X36944523Y-38825952D02*
X36944523Y-38425952D01*
X36906428Y-38483095D01*
X36868333Y-38521190D01*
X36830238Y-38540238D01*
X37401666Y-38425952D02*
X37325476Y-38425952D01*
X37287380Y-38445000D01*
X37268333Y-38464047D01*
X37230238Y-38521190D01*
X37211190Y-38597380D01*
X37211190Y-38749761D01*
X37230238Y-38787857D01*
X37249285Y-38806904D01*
X37287380Y-38825952D01*
X37363571Y-38825952D01*
X37401666Y-38806904D01*
X37420714Y-38787857D01*
X37439761Y-38749761D01*
X37439761Y-38654523D01*
X37420714Y-38616428D01*
X37401666Y-38597380D01*
X37363571Y-38578333D01*
X37287380Y-38578333D01*
X37249285Y-38597380D01*
X37230238Y-38616428D01*
X37211190Y-38654523D01*
D13*
%TO.C,C8*%
X41178571Y-72583333D02*
X41202380Y-72607142D01*
X41226190Y-72678571D01*
X41226190Y-72726190D01*
X41202380Y-72797619D01*
X41154761Y-72845238D01*
X41107142Y-72869047D01*
X41011904Y-72892857D01*
X40940476Y-72892857D01*
X40845238Y-72869047D01*
X40797619Y-72845238D01*
X40750000Y-72797619D01*
X40726190Y-72726190D01*
X40726190Y-72678571D01*
X40750000Y-72607142D01*
X40773809Y-72583333D01*
X40940476Y-72297619D02*
X40916666Y-72345238D01*
X40892857Y-72369047D01*
X40845238Y-72392857D01*
X40821428Y-72392857D01*
X40773809Y-72369047D01*
X40750000Y-72345238D01*
X40726190Y-72297619D01*
X40726190Y-72202380D01*
X40750000Y-72154761D01*
X40773809Y-72130952D01*
X40821428Y-72107142D01*
X40845238Y-72107142D01*
X40892857Y-72130952D01*
X40916666Y-72154761D01*
X40940476Y-72202380D01*
X40940476Y-72297619D01*
X40964285Y-72345238D01*
X40988095Y-72369047D01*
X41035714Y-72392857D01*
X41130952Y-72392857D01*
X41178571Y-72369047D01*
X41202380Y-72345238D01*
X41226190Y-72297619D01*
X41226190Y-72202380D01*
X41202380Y-72154761D01*
X41178571Y-72130952D01*
X41130952Y-72107142D01*
X41035714Y-72107142D01*
X40988095Y-72130952D01*
X40964285Y-72154761D01*
X40940476Y-72202380D01*
D14*
%TO.C,J9*%
X77152380Y-61933333D02*
X77866666Y-61933333D01*
X78009523Y-61980952D01*
X78104761Y-62076190D01*
X78152380Y-62219047D01*
X78152380Y-62314285D01*
X78152380Y-61409523D02*
X78152380Y-61219047D01*
X78104761Y-61123809D01*
X78057142Y-61076190D01*
X77914285Y-60980952D01*
X77723809Y-60933333D01*
X77342857Y-60933333D01*
X77247619Y-60980952D01*
X77200000Y-61028571D01*
X77152380Y-61123809D01*
X77152380Y-61314285D01*
X77200000Y-61409523D01*
X77247619Y-61457142D01*
X77342857Y-61504761D01*
X77580952Y-61504761D01*
X77676190Y-61457142D01*
X77723809Y-61409523D01*
X77771428Y-61314285D01*
X77771428Y-61123809D01*
X77723809Y-61028571D01*
X77676190Y-60980952D01*
X77580952Y-60933333D01*
D13*
%TO.C,D4*%
X45930952Y-78776190D02*
X45930952Y-78276190D01*
X46050000Y-78276190D01*
X46121428Y-78300000D01*
X46169047Y-78347619D01*
X46192857Y-78395238D01*
X46216666Y-78490476D01*
X46216666Y-78561904D01*
X46192857Y-78657142D01*
X46169047Y-78704761D01*
X46121428Y-78752380D01*
X46050000Y-78776190D01*
X45930952Y-78776190D01*
X46645238Y-78442857D02*
X46645238Y-78776190D01*
X46526190Y-78252380D02*
X46407142Y-78609523D01*
X46716666Y-78609523D01*
%TO.C,R9*%
X21316666Y-56426190D02*
X21150000Y-56188095D01*
X21030952Y-56426190D02*
X21030952Y-55926190D01*
X21221428Y-55926190D01*
X21269047Y-55950000D01*
X21292857Y-55973809D01*
X21316666Y-56021428D01*
X21316666Y-56092857D01*
X21292857Y-56140476D01*
X21269047Y-56164285D01*
X21221428Y-56188095D01*
X21030952Y-56188095D01*
X21554761Y-56426190D02*
X21650000Y-56426190D01*
X21697619Y-56402380D01*
X21721428Y-56378571D01*
X21769047Y-56307142D01*
X21792857Y-56211904D01*
X21792857Y-56021428D01*
X21769047Y-55973809D01*
X21745238Y-55950000D01*
X21697619Y-55926190D01*
X21602380Y-55926190D01*
X21554761Y-55950000D01*
X21530952Y-55973809D01*
X21507142Y-56021428D01*
X21507142Y-56140476D01*
X21530952Y-56188095D01*
X21554761Y-56211904D01*
X21602380Y-56235714D01*
X21697619Y-56235714D01*
X21745238Y-56211904D01*
X21769047Y-56188095D01*
X21792857Y-56140476D01*
%TO.C,C7*%
X41703571Y-60008333D02*
X41727380Y-60032142D01*
X41751190Y-60103571D01*
X41751190Y-60151190D01*
X41727380Y-60222619D01*
X41679761Y-60270238D01*
X41632142Y-60294047D01*
X41536904Y-60317857D01*
X41465476Y-60317857D01*
X41370238Y-60294047D01*
X41322619Y-60270238D01*
X41275000Y-60222619D01*
X41251190Y-60151190D01*
X41251190Y-60103571D01*
X41275000Y-60032142D01*
X41298809Y-60008333D01*
X41251190Y-59841666D02*
X41251190Y-59508333D01*
X41751190Y-59722619D01*
D16*
%TO.C,Q3*%
X41775238Y-80830476D02*
X41760000Y-80860952D01*
X41729523Y-80891428D01*
X41683809Y-80937142D01*
X41668571Y-80967619D01*
X41668571Y-80998095D01*
X41744761Y-80982857D02*
X41729523Y-81013333D01*
X41699047Y-81043809D01*
X41638095Y-81059047D01*
X41531428Y-81059047D01*
X41470476Y-81043809D01*
X41440000Y-81013333D01*
X41424761Y-80982857D01*
X41424761Y-80921904D01*
X41440000Y-80891428D01*
X41470476Y-80860952D01*
X41531428Y-80845714D01*
X41638095Y-80845714D01*
X41699047Y-80860952D01*
X41729523Y-80891428D01*
X41744761Y-80921904D01*
X41744761Y-80982857D01*
X41424761Y-80739047D02*
X41424761Y-80540952D01*
X41546666Y-80647619D01*
X41546666Y-80601904D01*
X41561904Y-80571428D01*
X41577142Y-80556190D01*
X41607619Y-80540952D01*
X41683809Y-80540952D01*
X41714285Y-80556190D01*
X41729523Y-80571428D01*
X41744761Y-80601904D01*
X41744761Y-80693333D01*
X41729523Y-80723809D01*
X41714285Y-80739047D01*
D14*
%TO.C,JP3*%
X61161666Y-13252380D02*
X61161666Y-13966666D01*
X61114047Y-14109523D01*
X61018809Y-14204761D01*
X60875952Y-14252380D01*
X60780714Y-14252380D01*
X61637857Y-14252380D02*
X61637857Y-13252380D01*
X62018809Y-13252380D01*
X62114047Y-13300000D01*
X62161666Y-13347619D01*
X62209285Y-13442857D01*
X62209285Y-13585714D01*
X62161666Y-13680952D01*
X62114047Y-13728571D01*
X62018809Y-13776190D01*
X61637857Y-13776190D01*
X62542619Y-13252380D02*
X63161666Y-13252380D01*
X62828333Y-13633333D01*
X62971190Y-13633333D01*
X63066428Y-13680952D01*
X63114047Y-13728571D01*
X63161666Y-13823809D01*
X63161666Y-14061904D01*
X63114047Y-14157142D01*
X63066428Y-14204761D01*
X62971190Y-14252380D01*
X62685476Y-14252380D01*
X62590238Y-14204761D01*
X62542619Y-14157142D01*
%TO.C,JP1*%
X66966666Y-74675273D02*
X66966666Y-75389559D01*
X66919047Y-75532416D01*
X66823809Y-75627654D01*
X66680952Y-75675273D01*
X66585714Y-75675273D01*
X67442857Y-75675273D02*
X67442857Y-74675273D01*
X67823809Y-74675273D01*
X67919047Y-74722893D01*
X67966666Y-74770512D01*
X68014285Y-74865750D01*
X68014285Y-75008607D01*
X67966666Y-75103845D01*
X67919047Y-75151464D01*
X67823809Y-75199083D01*
X67442857Y-75199083D01*
X68966666Y-75675273D02*
X68395238Y-75675273D01*
X68680952Y-75675273D02*
X68680952Y-74675273D01*
X68585714Y-74818131D01*
X68490476Y-74913369D01*
X68395238Y-74960988D01*
D13*
%TO.C,R11*%
X41578571Y-78226190D02*
X41411904Y-77988095D01*
X41292857Y-78226190D02*
X41292857Y-77726190D01*
X41483333Y-77726190D01*
X41530952Y-77750000D01*
X41554761Y-77773809D01*
X41578571Y-77821428D01*
X41578571Y-77892857D01*
X41554761Y-77940476D01*
X41530952Y-77964285D01*
X41483333Y-77988095D01*
X41292857Y-77988095D01*
X42054761Y-78226190D02*
X41769047Y-78226190D01*
X41911904Y-78226190D02*
X41911904Y-77726190D01*
X41864285Y-77797619D01*
X41816666Y-77845238D01*
X41769047Y-77869047D01*
X42530952Y-78226190D02*
X42245238Y-78226190D01*
X42388095Y-78226190D02*
X42388095Y-77726190D01*
X42340476Y-77797619D01*
X42292857Y-77845238D01*
X42245238Y-77869047D01*
%TO.C,R2*%
X47651190Y-66008333D02*
X47413095Y-66175000D01*
X47651190Y-66294047D02*
X47151190Y-66294047D01*
X47151190Y-66103571D01*
X47175000Y-66055952D01*
X47198809Y-66032142D01*
X47246428Y-66008333D01*
X47317857Y-66008333D01*
X47365476Y-66032142D01*
X47389285Y-66055952D01*
X47413095Y-66103571D01*
X47413095Y-66294047D01*
X47198809Y-65817857D02*
X47175000Y-65794047D01*
X47151190Y-65746428D01*
X47151190Y-65627380D01*
X47175000Y-65579761D01*
X47198809Y-65555952D01*
X47246428Y-65532142D01*
X47294047Y-65532142D01*
X47365476Y-65555952D01*
X47651190Y-65841666D01*
X47651190Y-65532142D01*
D14*
%TO.C,JP8*%
X69652380Y-47203333D02*
X70366666Y-47203333D01*
X70509523Y-47250952D01*
X70604761Y-47346190D01*
X70652380Y-47489047D01*
X70652380Y-47584285D01*
X70652380Y-46727142D02*
X69652380Y-46727142D01*
X69652380Y-46346190D01*
X69700000Y-46250952D01*
X69747619Y-46203333D01*
X69842857Y-46155714D01*
X69985714Y-46155714D01*
X70080952Y-46203333D01*
X70128571Y-46250952D01*
X70176190Y-46346190D01*
X70176190Y-46727142D01*
X70080952Y-45584285D02*
X70033333Y-45679523D01*
X69985714Y-45727142D01*
X69890476Y-45774761D01*
X69842857Y-45774761D01*
X69747619Y-45727142D01*
X69700000Y-45679523D01*
X69652380Y-45584285D01*
X69652380Y-45393809D01*
X69700000Y-45298571D01*
X69747619Y-45250952D01*
X69842857Y-45203333D01*
X69890476Y-45203333D01*
X69985714Y-45250952D01*
X70033333Y-45298571D01*
X70080952Y-45393809D01*
X70080952Y-45584285D01*
X70128571Y-45679523D01*
X70176190Y-45727142D01*
X70271428Y-45774761D01*
X70461904Y-45774761D01*
X70557142Y-45727142D01*
X70604761Y-45679523D01*
X70652380Y-45584285D01*
X70652380Y-45393809D01*
X70604761Y-45298571D01*
X70557142Y-45250952D01*
X70461904Y-45203333D01*
X70271428Y-45203333D01*
X70176190Y-45250952D01*
X70128571Y-45298571D01*
X70080952Y-45393809D01*
%TO.C,D11*%
X39002380Y-46414285D02*
X38002380Y-46414285D01*
X38002380Y-46176190D01*
X38050000Y-46033333D01*
X38145238Y-45938095D01*
X38240476Y-45890476D01*
X38430952Y-45842857D01*
X38573809Y-45842857D01*
X38764285Y-45890476D01*
X38859523Y-45938095D01*
X38954761Y-46033333D01*
X39002380Y-46176190D01*
X39002380Y-46414285D01*
X39002380Y-44890476D02*
X39002380Y-45461904D01*
X39002380Y-45176190D02*
X38002380Y-45176190D01*
X38145238Y-45271428D01*
X38240476Y-45366666D01*
X38288095Y-45461904D01*
X39002380Y-43938095D02*
X39002380Y-44509523D01*
X39002380Y-44223809D02*
X38002380Y-44223809D01*
X38145238Y-44319047D01*
X38240476Y-44414285D01*
X38288095Y-44509523D01*
D13*
%TO.C,R3*%
X46366666Y-68651190D02*
X46200000Y-68413095D01*
X46080952Y-68651190D02*
X46080952Y-68151190D01*
X46271428Y-68151190D01*
X46319047Y-68175000D01*
X46342857Y-68198809D01*
X46366666Y-68246428D01*
X46366666Y-68317857D01*
X46342857Y-68365476D01*
X46319047Y-68389285D01*
X46271428Y-68413095D01*
X46080952Y-68413095D01*
X46533333Y-68151190D02*
X46842857Y-68151190D01*
X46676190Y-68341666D01*
X46747619Y-68341666D01*
X46795238Y-68365476D01*
X46819047Y-68389285D01*
X46842857Y-68436904D01*
X46842857Y-68555952D01*
X46819047Y-68603571D01*
X46795238Y-68627380D01*
X46747619Y-68651190D01*
X46604761Y-68651190D01*
X46557142Y-68627380D01*
X46533333Y-68603571D01*
D14*
%TO.C,J2*%
X49552380Y-40704333D02*
X50266666Y-40704333D01*
X50409523Y-40751952D01*
X50504761Y-40847190D01*
X50552380Y-40990047D01*
X50552380Y-41085285D01*
X49647619Y-40275761D02*
X49600000Y-40228142D01*
X49552380Y-40132904D01*
X49552380Y-39894809D01*
X49600000Y-39799571D01*
X49647619Y-39751952D01*
X49742857Y-39704333D01*
X49838095Y-39704333D01*
X49980952Y-39751952D01*
X50552380Y-40323380D01*
X50552380Y-39704333D01*
D13*
%TO.C,U1*%
X32776190Y-72340951D02*
X33180952Y-72340951D01*
X33228571Y-72317141D01*
X33252380Y-72293332D01*
X33276190Y-72245713D01*
X33276190Y-72150475D01*
X33252380Y-72102856D01*
X33228571Y-72079046D01*
X33180952Y-72055237D01*
X32776190Y-72055237D01*
X33276190Y-71555237D02*
X33276190Y-71840951D01*
X33276190Y-71698094D02*
X32776190Y-71698094D01*
X32847619Y-71745713D01*
X32895238Y-71793332D01*
X32919047Y-71840951D01*
%TO.C,D2*%
X50677380Y-73266702D02*
X51320238Y-73695273D01*
X51201190Y-73100035D02*
X50701190Y-73100035D01*
X50701190Y-72980988D01*
X50725000Y-72909559D01*
X50772619Y-72861940D01*
X50820238Y-72838131D01*
X50915476Y-72814321D01*
X50986904Y-72814321D01*
X51082142Y-72838131D01*
X51129761Y-72861940D01*
X51177380Y-72909559D01*
X51201190Y-72980988D01*
X51201190Y-73100035D01*
X50748809Y-72623845D02*
X50725000Y-72600035D01*
X50701190Y-72552416D01*
X50701190Y-72433369D01*
X50725000Y-72385750D01*
X50748809Y-72361940D01*
X50796428Y-72338131D01*
X50844047Y-72338131D01*
X50915476Y-72361940D01*
X51201190Y-72647654D01*
X51201190Y-72338131D01*
%TO.C,C3*%
X21316666Y-57878571D02*
X21292857Y-57902380D01*
X21221428Y-57926190D01*
X21173809Y-57926190D01*
X21102380Y-57902380D01*
X21054761Y-57854761D01*
X21030952Y-57807142D01*
X21007142Y-57711904D01*
X21007142Y-57640476D01*
X21030952Y-57545238D01*
X21054761Y-57497619D01*
X21102380Y-57450000D01*
X21173809Y-57426190D01*
X21221428Y-57426190D01*
X21292857Y-57450000D01*
X21316666Y-57473809D01*
X21483333Y-57426190D02*
X21792857Y-57426190D01*
X21626190Y-57616666D01*
X21697619Y-57616666D01*
X21745238Y-57640476D01*
X21769047Y-57664285D01*
X21792857Y-57711904D01*
X21792857Y-57830952D01*
X21769047Y-57878571D01*
X21745238Y-57902380D01*
X21697619Y-57926190D01*
X21554761Y-57926190D01*
X21507142Y-57902380D01*
X21483333Y-57878571D01*
D16*
%TO.C,Q1*%
X46769523Y-76675238D02*
X46739047Y-76660000D01*
X46708571Y-76629523D01*
X46662857Y-76583809D01*
X46632380Y-76568571D01*
X46601904Y-76568571D01*
X46617142Y-76644761D02*
X46586666Y-76629523D01*
X46556190Y-76599047D01*
X46540952Y-76538095D01*
X46540952Y-76431428D01*
X46556190Y-76370476D01*
X46586666Y-76340000D01*
X46617142Y-76324761D01*
X46678095Y-76324761D01*
X46708571Y-76340000D01*
X46739047Y-76370476D01*
X46754285Y-76431428D01*
X46754285Y-76538095D01*
X46739047Y-76599047D01*
X46708571Y-76629523D01*
X46678095Y-76644761D01*
X46617142Y-76644761D01*
X47059047Y-76644761D02*
X46876190Y-76644761D01*
X46967619Y-76644761D02*
X46967619Y-76324761D01*
X46937142Y-76370476D01*
X46906666Y-76400952D01*
X46876190Y-76416190D01*
D13*
%TO.C,R10*%
X44526190Y-80721428D02*
X44288095Y-80888095D01*
X44526190Y-81007142D02*
X44026190Y-81007142D01*
X44026190Y-80816666D01*
X44050000Y-80769047D01*
X44073809Y-80745238D01*
X44121428Y-80721428D01*
X44192857Y-80721428D01*
X44240476Y-80745238D01*
X44264285Y-80769047D01*
X44288095Y-80816666D01*
X44288095Y-81007142D01*
X44526190Y-80245238D02*
X44526190Y-80530952D01*
X44526190Y-80388095D02*
X44026190Y-80388095D01*
X44097619Y-80435714D01*
X44145238Y-80483333D01*
X44169047Y-80530952D01*
X44026190Y-79935714D02*
X44026190Y-79888095D01*
X44050000Y-79840476D01*
X44073809Y-79816666D01*
X44121428Y-79792857D01*
X44216666Y-79769047D01*
X44335714Y-79769047D01*
X44430952Y-79792857D01*
X44478571Y-79816666D01*
X44502380Y-79840476D01*
X44526190Y-79888095D01*
X44526190Y-79935714D01*
X44502380Y-79983333D01*
X44478571Y-80007142D01*
X44430952Y-80030952D01*
X44335714Y-80054761D01*
X44216666Y-80054761D01*
X44121428Y-80030952D01*
X44073809Y-80007142D01*
X44050000Y-79983333D01*
X44026190Y-79935714D01*
D14*
%TO.C,H3*%
X23238095Y-14452380D02*
X23238095Y-13452380D01*
X23238095Y-13928571D02*
X23809523Y-13928571D01*
X23809523Y-14452380D02*
X23809523Y-13452380D01*
X24190476Y-13452380D02*
X24809523Y-13452380D01*
X24476190Y-13833333D01*
X24619047Y-13833333D01*
X24714285Y-13880952D01*
X24761904Y-13928571D01*
X24809523Y-14023809D01*
X24809523Y-14261904D01*
X24761904Y-14357142D01*
X24714285Y-14404761D01*
X24619047Y-14452380D01*
X24333333Y-14452380D01*
X24238095Y-14404761D01*
X24190476Y-14357142D01*
%TO.C,J19*%
X12152380Y-30414522D02*
X12866666Y-30414522D01*
X13009523Y-30462141D01*
X13104761Y-30557379D01*
X13152380Y-30700237D01*
X13152380Y-30795475D01*
X13152380Y-29414522D02*
X13152380Y-29985951D01*
X13152380Y-29700237D02*
X12152380Y-29700237D01*
X12295238Y-29795475D01*
X12390476Y-29890713D01*
X12438095Y-29985951D01*
X13152380Y-28938332D02*
X13152380Y-28747856D01*
X13104761Y-28652618D01*
X13057142Y-28604999D01*
X12914285Y-28509760D01*
X12723809Y-28462141D01*
X12342857Y-28462141D01*
X12247619Y-28509760D01*
X12200000Y-28557379D01*
X12152380Y-28652618D01*
X12152380Y-28843094D01*
X12200000Y-28938332D01*
X12247619Y-28985951D01*
X12342857Y-29033570D01*
X12580952Y-29033570D01*
X12676190Y-28985951D01*
X12723809Y-28938332D01*
X12771428Y-28843094D01*
X12771428Y-28652618D01*
X12723809Y-28557379D01*
X12676190Y-28509760D01*
X12580952Y-28462141D01*
D13*
%TO.C,R4*%
X21316666Y-59426190D02*
X21150000Y-59188095D01*
X21030952Y-59426190D02*
X21030952Y-58926190D01*
X21221428Y-58926190D01*
X21269047Y-58950000D01*
X21292857Y-58973809D01*
X21316666Y-59021428D01*
X21316666Y-59092857D01*
X21292857Y-59140476D01*
X21269047Y-59164285D01*
X21221428Y-59188095D01*
X21030952Y-59188095D01*
X21745238Y-59092857D02*
X21745238Y-59426190D01*
X21626190Y-58902380D02*
X21507142Y-59259523D01*
X21816666Y-59259523D01*
%TO.C,D6*%
X24476190Y-72229047D02*
X23976190Y-72229047D01*
X23976190Y-72110000D01*
X24000000Y-72038571D01*
X24047619Y-71990952D01*
X24095238Y-71967142D01*
X24190476Y-71943333D01*
X24261904Y-71943333D01*
X24357142Y-71967142D01*
X24404761Y-71990952D01*
X24452380Y-72038571D01*
X24476190Y-72110000D01*
X24476190Y-72229047D01*
X23976190Y-71514761D02*
X23976190Y-71610000D01*
X24000000Y-71657619D01*
X24023809Y-71681428D01*
X24095238Y-71729047D01*
X24190476Y-71752857D01*
X24380952Y-71752857D01*
X24428571Y-71729047D01*
X24452380Y-71705238D01*
X24476190Y-71657619D01*
X24476190Y-71562380D01*
X24452380Y-71514761D01*
X24428571Y-71490952D01*
X24380952Y-71467142D01*
X24261904Y-71467142D01*
X24214285Y-71490952D01*
X24190476Y-71514761D01*
X24166666Y-71562380D01*
X24166666Y-71657619D01*
X24190476Y-71705238D01*
X24214285Y-71729047D01*
X24261904Y-71752857D01*
D16*
%TO.C,Q5*%
X37075238Y-41530476D02*
X37060000Y-41560952D01*
X37029523Y-41591428D01*
X36983809Y-41637142D01*
X36968571Y-41667619D01*
X36968571Y-41698095D01*
X37044761Y-41682857D02*
X37029523Y-41713333D01*
X36999047Y-41743809D01*
X36938095Y-41759047D01*
X36831428Y-41759047D01*
X36770476Y-41743809D01*
X36740000Y-41713333D01*
X36724761Y-41682857D01*
X36724761Y-41621904D01*
X36740000Y-41591428D01*
X36770476Y-41560952D01*
X36831428Y-41545714D01*
X36938095Y-41545714D01*
X36999047Y-41560952D01*
X37029523Y-41591428D01*
X37044761Y-41621904D01*
X37044761Y-41682857D01*
X36724761Y-41256190D02*
X36724761Y-41408571D01*
X36877142Y-41423809D01*
X36861904Y-41408571D01*
X36846666Y-41378095D01*
X36846666Y-41301904D01*
X36861904Y-41271428D01*
X36877142Y-41256190D01*
X36907619Y-41240952D01*
X36983809Y-41240952D01*
X37014285Y-41256190D01*
X37029523Y-41271428D01*
X37044761Y-41301904D01*
X37044761Y-41378095D01*
X37029523Y-41408571D01*
X37014285Y-41423809D01*
D10*
%TO.C,L1*%
X31950000Y-66910000D02*
X31050000Y-66710000D01*
X34250000Y-56110000D02*
X33450000Y-55910000D01*
X37450000Y-64710000D02*
X37550000Y-64810000D01*
X34750000Y-56310000D02*
X34250000Y-56110000D01*
X28250000Y-66410000D02*
X27950000Y-66210000D01*
X32550000Y-55810000D02*
X31750000Y-55910000D01*
X27650000Y-66010000D02*
X27450000Y-65510000D01*
X37550000Y-64810000D02*
X37650000Y-65210000D01*
X26350000Y-67610000D02*
X38750000Y-67610000D01*
X37050000Y-66410000D02*
X36550000Y-66510000D01*
X35550000Y-66010000D02*
X34950000Y-66410000D01*
X33150000Y-66910000D02*
X31950000Y-66910000D01*
X37050000Y-56510000D02*
X36750000Y-56310000D01*
X29250000Y-56510000D02*
X28850000Y-56310000D01*
X31750000Y-55910000D02*
X30850000Y-56110000D01*
X31050000Y-66710000D02*
X30450000Y-66510000D01*
X29550000Y-66110000D02*
X29250000Y-66310000D01*
X29250000Y-66310000D02*
X28650000Y-66510000D01*
X27950000Y-66210000D02*
X27650000Y-66010000D01*
X29950000Y-66310000D02*
X29550000Y-66110000D01*
X34150000Y-66710000D02*
X33150000Y-66910000D01*
X38750000Y-55210000D02*
X38750000Y-58110000D01*
X27950000Y-56610000D02*
X27650000Y-56910000D01*
X26350000Y-64710000D02*
X26350000Y-67610000D01*
X37450000Y-58110000D02*
X37550000Y-57810000D01*
X30450000Y-66510000D02*
X29950000Y-66310000D01*
X34950000Y-66410000D02*
X34150000Y-66710000D01*
X35650000Y-66110000D02*
X35550000Y-66010000D01*
X27550000Y-65010000D02*
X27750000Y-64610000D01*
X37550000Y-57810000D02*
X37650000Y-57410000D01*
X28850000Y-56310000D02*
X28350000Y-56410000D01*
X33450000Y-55910000D02*
X32550000Y-55810000D01*
X37550000Y-57110000D02*
X37350000Y-56710000D01*
X37550000Y-65710000D02*
X37350000Y-66010000D01*
X37350000Y-56710000D02*
X37050000Y-56510000D01*
X37650000Y-65210000D02*
X37550000Y-65710000D01*
X28650000Y-66510000D02*
X28250000Y-66410000D01*
X27450000Y-57410000D02*
X27550000Y-57910000D01*
X28350000Y-56410000D02*
X27950000Y-56610000D01*
X36450000Y-56310000D02*
X36150000Y-56410000D01*
X36550000Y-66510000D02*
X36050000Y-66410000D01*
X26350000Y-55210000D02*
X26350000Y-58110000D01*
X27550000Y-57910000D02*
X27750000Y-58210000D01*
X27450000Y-65510000D02*
X27550000Y-65010000D01*
X38750000Y-67610000D02*
X38750000Y-64710000D01*
X27650000Y-56910000D02*
X27450000Y-57410000D01*
X37350000Y-66010000D02*
X37050000Y-66410000D01*
X37650000Y-57410000D02*
X37550000Y-57110000D01*
X35150000Y-56510000D02*
X34750000Y-56310000D01*
X36150000Y-56410000D02*
X35850000Y-56510000D01*
X35850000Y-56510000D02*
X35550000Y-56810000D01*
X38750000Y-55210000D02*
X26350000Y-55210000D01*
X30850000Y-56110000D02*
X29950000Y-56510000D01*
X35550000Y-56810000D02*
X35150000Y-56510000D01*
X36050000Y-66410000D02*
X35650000Y-66110000D01*
X36750000Y-56310000D02*
X36450000Y-56310000D01*
X29950000Y-56510000D02*
X29550000Y-56710000D01*
X29550000Y-56710000D02*
X29250000Y-56510000D01*
X30840512Y-64410000D02*
G75*
G03*
X30840512Y-64410000I-390512J0D01*
G01*
%TO.C,J11*%
X61485000Y-19225000D02*
X54115000Y-19225000D01*
X55245000Y-34875000D02*
X54615000Y-33675000D01*
X54615000Y-20425000D02*
X54615000Y-33675000D01*
X61485000Y-27750000D02*
X62885000Y-27750000D01*
X54115000Y-33675000D02*
X54115000Y-34875000D01*
X62885000Y-27750000D02*
X62885000Y-26350000D01*
X62885000Y-26350000D02*
X61485000Y-26350000D01*
X54115000Y-20425000D02*
X54615000Y-20425000D01*
X54115000Y-34875000D02*
X61485000Y-34875000D01*
X54615000Y-32050000D02*
X55322107Y-31550000D01*
X55322107Y-31550000D02*
X54615000Y-31050000D01*
X54115000Y-19225000D02*
X54115000Y-20425000D01*
X54615000Y-33675000D02*
X54115000Y-33675000D01*
X55245000Y-19225000D02*
X54615000Y-20425000D01*
X61485000Y-34875000D02*
X61485000Y-19225000D01*
%TO.C,C5*%
X36100000Y-73900000D02*
X36100000Y-72300000D01*
X36100000Y-72300000D02*
X36900000Y-72300000D01*
X36900000Y-73900000D02*
X36100000Y-73900000D01*
X36900000Y-72300000D02*
X36900000Y-73900000D01*
%TO.C,C1*%
X44800000Y-66725000D02*
X44000000Y-66725000D01*
X44800000Y-65125000D02*
X44800000Y-66725000D01*
X44000000Y-66725000D02*
X44000000Y-65125000D01*
X44000000Y-65125000D02*
X44800000Y-65125000D01*
%TO.C,R12*%
X36862499Y-70560000D02*
X36037499Y-70560000D01*
X36037499Y-68960000D02*
X36862499Y-68960000D01*
X36037499Y-70560000D02*
X36037499Y-68960000D01*
X36862499Y-68960000D02*
X36862499Y-70560000D01*
%TO.C,R6*%
X45487500Y-66725000D02*
X45487500Y-65125000D01*
X46312500Y-66725000D02*
X45487500Y-66725000D01*
X45487500Y-65125000D02*
X46312500Y-65125000D01*
X46312500Y-65125000D02*
X46312500Y-66725000D01*
%TO.C,J18*%
X65590000Y-65080000D02*
X65590000Y-70880000D01*
X73210000Y-70880000D02*
X73210000Y-65080000D01*
X65590000Y-67500000D02*
X66297107Y-68000000D01*
X65590000Y-70880000D02*
X73210000Y-70880000D01*
X73210000Y-65080000D02*
X65590000Y-65080000D01*
X66297107Y-68000000D02*
X65590000Y-68500000D01*
%TO.C,R14*%
X40727500Y-41100000D02*
X41552500Y-41100000D01*
X41552500Y-41100000D02*
X41552500Y-42700000D01*
X41552500Y-42700000D02*
X40727500Y-42700000D01*
X40727500Y-42700000D02*
X40727500Y-41100000D01*
%TO.C,J5*%
X77067000Y-73702893D02*
X79160000Y-75794893D01*
X73005000Y-82277893D02*
X73005000Y-72117893D01*
X75905000Y-82277893D02*
X75905000Y-72117893D01*
X73005000Y-72117893D02*
X82805000Y-72117893D01*
X82805000Y-72117893D02*
X82805000Y-81777893D01*
X82805000Y-81777893D02*
X82305000Y-82277893D01*
X80805000Y-82277893D02*
X80805000Y-72117893D01*
X77250000Y-78599893D02*
X79343000Y-80692893D01*
X77067000Y-78782893D02*
X79160000Y-80875893D01*
X77250000Y-73519893D02*
X79343000Y-75611893D01*
X82305000Y-82277893D02*
X73005000Y-82277893D01*
X82305000Y-82277893D02*
X82305000Y-72117893D01*
X79705000Y-74657893D02*
G75*
G03*
X79705000Y-74657893I-1500000J0D01*
G01*
X79705000Y-79737893D02*
G75*
G03*
X79705000Y-79737893I-1500000J0D01*
G01*
%TO.C,D3*%
X46600000Y-73192893D02*
X46200000Y-73192893D01*
X46850000Y-73942893D02*
X45950000Y-73942893D01*
X46400000Y-73492893D02*
X46400000Y-73642893D01*
X45950000Y-73942893D02*
X45950000Y-72642893D01*
X46600000Y-73492893D02*
X46200000Y-73492893D01*
X46200000Y-73192893D02*
X46400000Y-73492893D01*
X45950000Y-72642893D02*
X46850000Y-72642893D01*
X46400000Y-73192893D02*
X46400000Y-73042893D01*
X46850000Y-72642893D02*
X46850000Y-73942893D01*
X46400000Y-73492893D02*
X46600000Y-73192893D01*
%TO.C,J4*%
X63625000Y-81792893D02*
X63625000Y-74422893D01*
X55175000Y-74422893D02*
X53975000Y-74422893D01*
X62425000Y-74922893D02*
X55175000Y-74922893D01*
X63625000Y-74422893D02*
X62425000Y-74422893D01*
X63625000Y-75552893D02*
X62425000Y-74922893D01*
X58100000Y-81792893D02*
X58100000Y-83192893D01*
X53975000Y-75552893D02*
X55175000Y-74922893D01*
X56800000Y-74922893D02*
X57300000Y-75630000D01*
X53975000Y-81792893D02*
X63625000Y-81792893D01*
X55175000Y-74922893D02*
X55175000Y-74422893D01*
X53975000Y-74422893D02*
X53975000Y-81792893D01*
X59500000Y-83192893D02*
X59500000Y-81792893D01*
X58100000Y-83192893D02*
X59500000Y-83192893D01*
X57300000Y-75630000D02*
X57800000Y-74922893D01*
X62425000Y-74422893D02*
X62425000Y-74922893D01*
%TO.C,JP7*%
X46695000Y-36975000D02*
X46695000Y-43960000D01*
X44155000Y-36975000D02*
X46695000Y-36975000D01*
X46060000Y-44595000D02*
X44155000Y-44595000D01*
X46695000Y-43960000D02*
X46060000Y-44595000D01*
X44155000Y-44595000D02*
X44155000Y-36975000D01*
%TO.C,J10*%
X80543381Y-21576001D02*
X79008381Y-20041001D01*
X82808381Y-14295001D02*
X82808381Y-24915001D01*
X80543381Y-19036001D02*
X79008381Y-17501001D01*
X76608381Y-14795001D02*
X77108381Y-14295001D01*
X80408381Y-16630001D02*
X78873381Y-15094001D01*
X82808381Y-24915001D02*
X76608381Y-24915001D01*
X76608381Y-24915001D02*
X76608381Y-14795001D01*
X80408381Y-19170001D02*
X78873381Y-17635001D01*
X80543381Y-16496001D02*
X79008381Y-14960001D01*
X77108381Y-14295001D02*
X82808381Y-14295001D01*
X80408381Y-21710001D02*
X78873381Y-20175001D01*
X80543381Y-24116001D02*
X79008381Y-22581001D01*
X82408381Y-14295001D02*
X82408381Y-24915001D01*
X77108381Y-14295001D02*
X77108381Y-24915001D01*
X80408381Y-24250001D02*
X78873381Y-22715001D01*
X80808381Y-15795001D02*
G75*
G03*
X80808381Y-15795001I-1100000J0D01*
G01*
X80808381Y-20875001D02*
G75*
G03*
X80808381Y-20875001I-1100000J0D01*
G01*
X80808381Y-23415001D02*
G75*
G03*
X80808381Y-23415001I-1100000J0D01*
G01*
X80808381Y-18335001D02*
G75*
G03*
X80808381Y-18335001I-1100000J0D01*
G01*
%TO.C,J7*%
X8100000Y-56430000D02*
X8100000Y-61970000D01*
X7600000Y-56930000D02*
X8100000Y-56430000D01*
X8100000Y-56430000D02*
X13800000Y-56430000D01*
X7600000Y-61970000D02*
X7600000Y-56930000D01*
X11400000Y-61305000D02*
X9865000Y-59770000D01*
X13400000Y-56430000D02*
X13400000Y-61970000D01*
X13800000Y-56430000D02*
X13800000Y-61970000D01*
X11535000Y-58631000D02*
X10000000Y-57095000D01*
X13800000Y-61970000D02*
X7600000Y-61970000D01*
X11535000Y-61171000D02*
X10000000Y-59636000D01*
X11400000Y-58765000D02*
X9865000Y-57229000D01*
X11800000Y-60470000D02*
G75*
G03*
X11800000Y-60470000I-1100000J0D01*
G01*
X11800000Y-57930000D02*
G75*
G03*
X11800000Y-57930000I-1100000J0D01*
G01*
%TO.C,R15*%
X39087500Y-42700000D02*
X39087500Y-41100000D01*
X39087500Y-41100000D02*
X39912500Y-41100000D01*
X39912500Y-41100000D02*
X39912500Y-42700000D01*
X39912500Y-42700000D02*
X39087500Y-42700000D01*
%TO.C,J17*%
X66297107Y-58400000D02*
X65590000Y-58900000D01*
X65590000Y-55480000D02*
X65590000Y-61280000D01*
X65590000Y-61280000D02*
X73210000Y-61280000D01*
X73210000Y-61280000D02*
X73210000Y-55480000D01*
X65590000Y-57900000D02*
X66297107Y-58400000D01*
X73210000Y-55480000D02*
X65590000Y-55480000D01*
%TO.C,JP5*%
X68930000Y-36983380D02*
X68930000Y-29363380D01*
X70835000Y-36983380D02*
X68930000Y-36983380D01*
X71470000Y-29363380D02*
X71470000Y-36348380D01*
X71470000Y-36348380D02*
X70835000Y-36983380D01*
X68930000Y-29363380D02*
X71470000Y-29363380D01*
%TO.C,J16*%
X55322107Y-69150000D02*
X54615000Y-68650000D01*
X54115000Y-56825000D02*
X54115000Y-58025000D01*
X62885000Y-65350000D02*
X62885000Y-63950000D01*
X54615000Y-69650000D02*
X55322107Y-69150000D01*
X54115000Y-72475000D02*
X61485000Y-72475000D01*
X54115000Y-71275000D02*
X54115000Y-72475000D01*
X55245000Y-72475000D02*
X54615000Y-71275000D01*
X61485000Y-72475000D02*
X61485000Y-56825000D01*
X54115000Y-58025000D02*
X54615000Y-58025000D01*
X61485000Y-56825000D02*
X54115000Y-56825000D01*
X54615000Y-71275000D02*
X54115000Y-71275000D01*
X62885000Y-63950000D02*
X61485000Y-63950000D01*
X61485000Y-65350000D02*
X62885000Y-65350000D01*
X54615000Y-58025000D02*
X54615000Y-71275000D01*
X55245000Y-56825000D02*
X54615000Y-58025000D01*
%TO.C,J15*%
X11400000Y-73075000D02*
X9865000Y-71540000D01*
X13400000Y-63120000D02*
X13400000Y-73740000D01*
X8100000Y-63120000D02*
X13800000Y-63120000D01*
X8100000Y-63120000D02*
X8100000Y-73740000D01*
X11535000Y-70401000D02*
X10000000Y-68866000D01*
X11400000Y-67995000D02*
X9865000Y-66460000D01*
X7600000Y-73740000D02*
X7600000Y-63620000D01*
X11535000Y-65321000D02*
X10000000Y-63785000D01*
X11400000Y-70535000D02*
X9865000Y-69000000D01*
X11535000Y-67861000D02*
X10000000Y-66326000D01*
X7600000Y-63620000D02*
X8100000Y-63120000D01*
X13800000Y-63120000D02*
X13800000Y-73740000D01*
X11535000Y-72941000D02*
X10000000Y-71406000D01*
X11400000Y-65455000D02*
X9865000Y-63919000D01*
X13800000Y-73740000D02*
X7600000Y-73740000D01*
X11800000Y-72240000D02*
G75*
G03*
X11800000Y-72240000I-1100000J0D01*
G01*
X11800000Y-64620000D02*
G75*
G03*
X11800000Y-64620000I-1100000J0D01*
G01*
X11800000Y-69700000D02*
G75*
G03*
X11800000Y-69700000I-1100000J0D01*
G01*
X11800000Y-67160000D02*
G75*
G03*
X11800000Y-67160000I-1100000J0D01*
G01*
%TO.C,R7*%
X20600000Y-61112500D02*
X20600000Y-60287500D01*
X22200000Y-60287500D02*
X22200000Y-61112500D01*
X20600000Y-60287500D02*
X22200000Y-60287500D01*
X22200000Y-61112500D02*
X20600000Y-61112500D01*
%TO.C,D5*%
X45750000Y-80850000D02*
X47050000Y-80850000D01*
X46600000Y-81300000D02*
X46300000Y-81100000D01*
X47050000Y-80850000D02*
X47050000Y-81750000D01*
X46600000Y-81100000D02*
X46600000Y-81500000D01*
X46600000Y-81300000D02*
X46750000Y-81300000D01*
X46300000Y-81300000D02*
X46150000Y-81300000D01*
X45750000Y-81750000D02*
X45750000Y-80850000D01*
X46300000Y-81500000D02*
X46600000Y-81300000D01*
X46300000Y-81100000D02*
X46300000Y-81500000D01*
X47050000Y-81750000D02*
X45750000Y-81750000D01*
%TO.C,JP6*%
X46695000Y-34135000D02*
X46060000Y-34770000D01*
X44155000Y-34770000D02*
X44155000Y-27150000D01*
X46695000Y-27150000D02*
X46695000Y-34135000D01*
X46060000Y-34770000D02*
X44155000Y-34770000D01*
X44155000Y-27150000D02*
X46695000Y-27150000D01*
%TO.C,R5*%
X65512500Y-77392893D02*
X65512500Y-78992893D01*
X64687500Y-78992893D02*
X64687500Y-77392893D01*
X64687500Y-77392893D02*
X65512500Y-77392893D01*
X65512500Y-78992893D02*
X64687500Y-78992893D01*
%TO.C,Q4*%
X40625000Y-44850000D02*
X40950000Y-45175000D01*
X40950000Y-46150000D02*
X38050000Y-46150000D01*
X38050000Y-46150000D02*
X38050000Y-44850000D01*
X38050000Y-44850000D02*
X40625000Y-44850000D01*
X40950000Y-45175000D02*
X40950000Y-46150000D01*
%TO.C,Q2*%
X16400000Y-63150000D02*
X22900000Y-63150000D01*
X16995000Y-68965000D02*
X16995000Y-72070000D01*
X22305000Y-72070000D02*
X22305000Y-69370000D01*
X17745000Y-72070000D02*
X17745000Y-69370000D01*
X16400000Y-68370000D02*
X16400000Y-63150000D01*
X16995000Y-72070000D02*
X17745000Y-72070000D01*
X16950000Y-62150000D02*
X22350000Y-62150000D01*
X21555000Y-69370000D02*
X21555000Y-72070000D01*
X22900000Y-63150000D02*
X22900000Y-69370000D01*
X16950000Y-63150000D02*
X16950000Y-62150000D01*
X22350000Y-62150000D02*
X22350000Y-63150000D01*
X22900000Y-69370000D02*
X17400000Y-69370000D01*
X17400000Y-69370000D02*
X16400000Y-68370000D01*
X21555000Y-72070000D02*
X22305000Y-72070000D01*
%TO.C,R8*%
X18587500Y-60700000D02*
X18587500Y-59100000D01*
X19412500Y-59100000D02*
X19412500Y-60700000D01*
X19412500Y-60700000D02*
X18587500Y-60700000D01*
X18587500Y-59100000D02*
X19412500Y-59100000D01*
%TO.C,D1*%
X45237500Y-70537500D02*
X45437500Y-70837500D01*
X45887500Y-71287500D02*
X44987500Y-71287500D01*
X45437500Y-70837500D02*
X45437500Y-70987500D01*
X44987500Y-71287500D02*
X44987500Y-69987500D01*
X45637500Y-70537500D02*
X45237500Y-70537500D01*
X44987500Y-69987500D02*
X45887500Y-69987500D01*
X45637500Y-70837500D02*
X45237500Y-70837500D01*
X45887500Y-69987500D02*
X45887500Y-71287500D01*
X45437500Y-70837500D02*
X45637500Y-70537500D01*
X45437500Y-70537500D02*
X45437500Y-70387500D01*
%TO.C,C6*%
X29850000Y-68959999D02*
X29850000Y-70559999D01*
X29050000Y-68959999D02*
X29850000Y-68959999D01*
X29050000Y-70559999D02*
X29050000Y-68959999D01*
X29850000Y-70559999D02*
X29050000Y-70559999D01*
%TO.C,JP4*%
X71470000Y-17642893D02*
X71470000Y-24627893D01*
X68930000Y-25262893D02*
X68930000Y-17642893D01*
X70835000Y-25262893D02*
X68930000Y-25262893D01*
X68930000Y-17642893D02*
X71470000Y-17642893D01*
X71470000Y-24627893D02*
X70835000Y-25262893D01*
%TO.C,J12*%
X80408381Y-34763381D02*
X78873381Y-33228381D01*
X80408381Y-37303381D02*
X78873381Y-35768381D01*
X80408381Y-32223381D02*
X78873381Y-30688381D01*
X82408381Y-27348381D02*
X82408381Y-37968381D01*
X80543381Y-32089381D02*
X79008381Y-30554381D01*
X77108381Y-27348381D02*
X82808381Y-27348381D01*
X80543381Y-34629381D02*
X79008381Y-33094381D01*
X76608381Y-27848381D02*
X77108381Y-27348381D01*
X80543381Y-37169381D02*
X79008381Y-35634381D01*
X82808381Y-37968381D02*
X76608381Y-37968381D01*
X82808381Y-27348381D02*
X82808381Y-37968381D01*
X76608381Y-37968381D02*
X76608381Y-27848381D01*
X80543381Y-29549381D02*
X79008381Y-28013381D01*
X77108381Y-27348381D02*
X77108381Y-37968381D01*
X80408381Y-29683381D02*
X78873381Y-28147381D01*
X80808381Y-31388381D02*
G75*
G03*
X80808381Y-31388381I-1100000J0D01*
G01*
X80808381Y-28848381D02*
G75*
G03*
X80808381Y-28848381I-1100000J0D01*
G01*
X80808381Y-33928381D02*
G75*
G03*
X80808381Y-33928381I-1100000J0D01*
G01*
X80808381Y-36468381D02*
G75*
G03*
X80808381Y-36468381I-1100000J0D01*
G01*
%TO.C,C4*%
X29350000Y-77510000D02*
X29350000Y-84010000D01*
X29350000Y-84010000D02*
X30350000Y-85010000D01*
X30350000Y-85010000D02*
X37850000Y-85010000D01*
X30350000Y-76510000D02*
X37850000Y-76510000D01*
X29350000Y-77510000D02*
X30350000Y-76510000D01*
X30037722Y-79260000D02*
X30837722Y-79260000D01*
X30437722Y-78860000D02*
X30437722Y-79660000D01*
X37850000Y-76510000D02*
X37850000Y-85010000D01*
X37600000Y-80760000D02*
G75*
G03*
X37600000Y-80760000I-4000000J0D01*
G01*
%TO.C,J14*%
X80408381Y-42980001D02*
X78873381Y-41444001D01*
X76608381Y-51265001D02*
X76608381Y-41145001D01*
X80408381Y-50600001D02*
X78873381Y-49065001D01*
X80408381Y-45520001D02*
X78873381Y-43985001D01*
X82408381Y-40645001D02*
X82408381Y-51265001D01*
X82808381Y-51265001D02*
X76608381Y-51265001D01*
X80543381Y-45386001D02*
X79008381Y-43851001D01*
X80543381Y-42846001D02*
X79008381Y-41310001D01*
X77108381Y-40645001D02*
X82808381Y-40645001D01*
X80543381Y-47926001D02*
X79008381Y-46391001D01*
X80543381Y-50466001D02*
X79008381Y-48931001D01*
X76608381Y-41145001D02*
X77108381Y-40645001D01*
X80408381Y-48060001D02*
X78873381Y-46525001D01*
X77108381Y-40645001D02*
X77108381Y-51265001D01*
X82808381Y-40645001D02*
X82808381Y-51265001D01*
X80808381Y-44685001D02*
G75*
G03*
X80808381Y-44685001I-1100000J0D01*
G01*
X80808381Y-47225001D02*
G75*
G03*
X80808381Y-47225001I-1100000J0D01*
G01*
X80808381Y-42145001D02*
G75*
G03*
X80808381Y-42145001I-1100000J0D01*
G01*
X80808381Y-49765001D02*
G75*
G03*
X80808381Y-49765001I-1100000J0D01*
G01*
%TO.C,K1*%
X21217000Y-24210000D02*
X38780000Y-24210000D01*
X21217000Y-34210000D02*
X21217000Y-24210000D01*
X38780000Y-24210000D02*
X38780000Y-34210000D01*
X38780000Y-34210000D02*
X21217000Y-34210000D01*
X37600000Y-26400000D02*
X37600000Y-31900000D01*
%TO.C,J13*%
X54115000Y-53675000D02*
X61485000Y-53675000D01*
X54615000Y-52475000D02*
X54115000Y-52475000D01*
X54115000Y-38025000D02*
X54115000Y-39225000D01*
X54115000Y-52475000D02*
X54115000Y-53675000D01*
X61485000Y-38025000D02*
X54115000Y-38025000D01*
X55245000Y-38025000D02*
X54615000Y-39225000D01*
X61485000Y-46550000D02*
X62885000Y-46550000D01*
X55322107Y-50350000D02*
X54615000Y-49850000D01*
X62885000Y-46550000D02*
X62885000Y-45150000D01*
X54115000Y-39225000D02*
X54615000Y-39225000D01*
X54615000Y-50850000D02*
X55322107Y-50350000D01*
X55245000Y-53675000D02*
X54615000Y-52475000D01*
X62885000Y-45150000D02*
X61485000Y-45150000D01*
X61485000Y-53675000D02*
X61485000Y-38025000D01*
X54615000Y-39225000D02*
X54615000Y-52475000D01*
%TO.C,JP2*%
X46670000Y-56425000D02*
X44130000Y-56425000D01*
X46670000Y-48805000D02*
X46670000Y-56425000D01*
X44130000Y-56425000D02*
X44130000Y-49440000D01*
X44765000Y-48805000D02*
X46670000Y-48805000D01*
X44130000Y-49440000D02*
X44765000Y-48805000D01*
%TO.C,C2*%
X50500000Y-73992893D02*
X49700000Y-73992893D01*
X49700000Y-73992893D02*
X49700000Y-72392893D01*
X50500000Y-72392893D02*
X50500000Y-73992893D01*
X49700000Y-72392893D02*
X50500000Y-72392893D01*
D17*
%TO.C,J3*%
X31400000Y-53500000D02*
X31400000Y-37500000D01*
X18000000Y-53500000D02*
X31400000Y-53500000D01*
X18000000Y-51950000D02*
X18000000Y-53500000D01*
X18000000Y-39050000D02*
X18000000Y-51950000D01*
X18000000Y-37500000D02*
X18000000Y-39050000D01*
X14000000Y-39050000D02*
X14000000Y-51950000D01*
X18000000Y-39050000D02*
X14000000Y-39050000D01*
X31400000Y-37500000D02*
X18000000Y-37500000D01*
X14000000Y-51950000D02*
X18000000Y-51950000D01*
D10*
%TO.C,R16*%
X37735000Y-38232500D02*
X37735000Y-39057500D01*
X36135000Y-38232500D02*
X37735000Y-38232500D01*
X37735000Y-39057500D02*
X36135000Y-39057500D01*
X36135000Y-39057500D02*
X36135000Y-38232500D01*
%TO.C,C8*%
X44300000Y-75800000D02*
X37700000Y-75800000D01*
X42645000Y-70110162D02*
X42015000Y-70110162D01*
X43300000Y-69200000D02*
X44300000Y-70200000D01*
X44300000Y-70200000D02*
X44300000Y-75800000D01*
X38700000Y-69200000D02*
X37700000Y-70200000D01*
X43300000Y-69200000D02*
X38700000Y-69200000D01*
X42330000Y-69795162D02*
X42330000Y-70425162D01*
X37700000Y-70200000D02*
X37700000Y-75800000D01*
X44150000Y-72500000D02*
G75*
G03*
X44150000Y-72500000I-3150000J0D01*
G01*
%TO.C,J9*%
X80535000Y-63571000D02*
X79000000Y-62036000D01*
X77100000Y-53750000D02*
X82800000Y-53750000D01*
X80535000Y-58491000D02*
X79000000Y-56956000D01*
X80535000Y-55951000D02*
X79000000Y-54415000D01*
X80400000Y-58625000D02*
X78865000Y-57090000D01*
X82800000Y-69450000D02*
X76600000Y-69450000D01*
X80535000Y-61031000D02*
X79000000Y-59496000D01*
X80400000Y-56085000D02*
X78865000Y-54549000D01*
X82800000Y-53750000D02*
X82800000Y-69450000D01*
X80400000Y-61165000D02*
X78865000Y-59630000D01*
X80535000Y-66111000D02*
X79000000Y-64576000D01*
X80400000Y-63705000D02*
X78865000Y-62170000D01*
X76600000Y-54250000D02*
X77100000Y-53750000D01*
X82400000Y-53750000D02*
X82400000Y-69450000D01*
X80535000Y-68651000D02*
X79000000Y-67116000D01*
X76600000Y-69450000D02*
X76600000Y-54250000D01*
X77100000Y-53750000D02*
X77100000Y-69450000D01*
X80400000Y-68785000D02*
X78865000Y-67250000D01*
X80400000Y-66245000D02*
X78865000Y-64710000D01*
X80800000Y-55250000D02*
G75*
G03*
X80800000Y-55250000I-1100000J0D01*
G01*
X80800000Y-60330000D02*
G75*
G03*
X80800000Y-60330000I-1100000J0D01*
G01*
X80800000Y-67950000D02*
G75*
G03*
X80800000Y-67950000I-1100000J0D01*
G01*
X80800000Y-62870000D02*
G75*
G03*
X80800000Y-62870000I-1100000J0D01*
G01*
X80800000Y-57790000D02*
G75*
G03*
X80800000Y-57790000I-1100000J0D01*
G01*
X80800000Y-65410000D02*
G75*
G03*
X80800000Y-65410000I-1100000J0D01*
G01*
%TO.C,D4*%
X45750000Y-79150000D02*
X47050000Y-79150000D01*
X46500000Y-79600000D02*
X46650000Y-79600000D01*
X47050000Y-80050000D02*
X45750000Y-80050000D01*
X46200000Y-79600000D02*
X46050000Y-79600000D01*
X46200000Y-79600000D02*
X46500000Y-79800000D01*
X46500000Y-79800000D02*
X46500000Y-79400000D01*
X45750000Y-80050000D02*
X45750000Y-79150000D01*
X46200000Y-79800000D02*
X46200000Y-79400000D01*
X47050000Y-79150000D02*
X47050000Y-80050000D01*
X46500000Y-79400000D02*
X46200000Y-79600000D01*
%TO.C,R9*%
X22200000Y-55787500D02*
X22200000Y-56612500D01*
X22200000Y-56612500D02*
X20600000Y-56612500D01*
X20600000Y-56612500D02*
X20600000Y-55787500D01*
X20600000Y-55787500D02*
X22200000Y-55787500D01*
%TO.C,C7*%
X42325000Y-61525000D02*
X40725000Y-61525000D01*
X40725000Y-58325000D02*
X42325000Y-58325000D01*
X40725000Y-61525000D02*
X40725000Y-58325000D01*
X42325000Y-58325000D02*
X42325000Y-61525000D01*
%TO.C,Q3*%
X43050000Y-81450000D02*
X40150000Y-81450000D01*
X42725000Y-80150000D02*
X43050000Y-80475000D01*
X40150000Y-80150000D02*
X42725000Y-80150000D01*
X43050000Y-80475000D02*
X43050000Y-81450000D01*
X40150000Y-81450000D02*
X40150000Y-80150000D01*
%TO.C,JP3*%
X59455000Y-12530000D02*
X64535000Y-12530000D01*
X60090000Y-15070000D02*
X59455000Y-14435000D01*
X64535000Y-12530000D02*
X64535000Y-15070000D01*
X64535000Y-15070000D02*
X60090000Y-15070000D01*
X59455000Y-14435000D02*
X59455000Y-12530000D01*
%TO.C,JP1*%
X67800000Y-77762893D02*
X66530000Y-76492893D01*
X66530000Y-76492893D02*
X66530000Y-72682893D01*
X66530000Y-72682893D02*
X69070000Y-72682893D01*
X69070000Y-77762893D02*
X67800000Y-77762893D01*
X69070000Y-72682893D02*
X69070000Y-77762893D01*
%TO.C,R11*%
X41100000Y-78412500D02*
X41100000Y-77587500D01*
X41100000Y-77587500D02*
X42700000Y-77587500D01*
X42700000Y-78412500D02*
X41100000Y-78412500D01*
X42700000Y-77587500D02*
X42700000Y-78412500D01*
%TO.C,R2*%
X47012500Y-65125000D02*
X47837500Y-65125000D01*
X47837500Y-65125000D02*
X47837500Y-66725000D01*
X47012500Y-66725000D02*
X47012500Y-65125000D01*
X47837500Y-66725000D02*
X47012500Y-66725000D01*
%TO.C,JP8*%
X71470000Y-49545000D02*
X70835000Y-50180000D01*
X68930000Y-50180000D02*
X68930000Y-42560000D01*
X68930000Y-42560000D02*
X71470000Y-42560000D01*
X71470000Y-42560000D02*
X71470000Y-49545000D01*
X70835000Y-50180000D02*
X68930000Y-50180000D01*
%TO.C,D11*%
X36700000Y-44900000D02*
X37050000Y-45400000D01*
X37050000Y-44900000D02*
X36350000Y-44900000D01*
X36000000Y-44300000D02*
X37400000Y-44300000D01*
X36700000Y-44900000D02*
X36700000Y-44700000D01*
X37400000Y-46100000D02*
X36000000Y-46100000D01*
X36350000Y-45400000D02*
X36700000Y-44900000D01*
X36700000Y-45400000D02*
X36700000Y-45650000D01*
X37400000Y-44300000D02*
X37400000Y-46100000D01*
X37050000Y-45400000D02*
X36350000Y-45400000D01*
X36000000Y-46100000D02*
X36000000Y-44300000D01*
%TO.C,R3*%
X45650000Y-68837500D02*
X45650000Y-68012500D01*
X45650000Y-68012500D02*
X47250000Y-68012500D01*
X47250000Y-68012500D02*
X47250000Y-68837500D01*
X47250000Y-68837500D02*
X45650000Y-68837500D01*
%TO.C,J2*%
X51370000Y-68946000D02*
X50735000Y-69581000D01*
X48830000Y-11161000D02*
X51370000Y-11161000D01*
X51370000Y-11161000D02*
X51370000Y-68946000D01*
X48830000Y-69581000D02*
X48830000Y-11161000D01*
X50735000Y-69581000D02*
X48830000Y-69581000D01*
%TO.C,U1*%
X30500000Y-70009999D02*
X35400000Y-70009999D01*
X30500000Y-72934999D02*
X30500000Y-70009999D01*
X31475000Y-73909999D02*
X30500000Y-72934999D01*
X35400000Y-73909999D02*
X31475000Y-73909999D01*
X35400000Y-70009999D02*
X35400000Y-73909999D01*
%TO.C,D2*%
X48400000Y-73192893D02*
X48000000Y-73192893D01*
X48650000Y-73942893D02*
X47750000Y-73942893D01*
X47750000Y-72642893D02*
X48650000Y-72642893D01*
X48650000Y-72642893D02*
X48650000Y-73942893D01*
X48200000Y-73492893D02*
X48200000Y-73642893D01*
X48200000Y-73492893D02*
X48400000Y-73192893D01*
X48200000Y-73192893D02*
X48200000Y-73042893D01*
X48400000Y-73492893D02*
X48000000Y-73492893D01*
X48000000Y-73192893D02*
X48200000Y-73492893D01*
X47750000Y-73942893D02*
X47750000Y-72642893D01*
%TO.C,C3*%
X20600000Y-57300000D02*
X22200000Y-57300000D01*
X20600000Y-58100000D02*
X20600000Y-57300000D01*
X22200000Y-57300000D02*
X22200000Y-58100000D01*
X22200000Y-58100000D02*
X20600000Y-58100000D01*
%TO.C,Q1*%
X46150000Y-77950000D02*
X46150000Y-75375000D01*
X46475000Y-75050000D02*
X47450000Y-75050000D01*
X47450000Y-77950000D02*
X46150000Y-77950000D01*
X47450000Y-75050000D02*
X47450000Y-77950000D01*
X46150000Y-75375000D02*
X46475000Y-75050000D01*
%TO.C,R10*%
X43887500Y-81200000D02*
X43887500Y-79600000D01*
X44712500Y-81200000D02*
X43887500Y-81200000D01*
X43887500Y-79600000D02*
X44712500Y-79600000D01*
X44712500Y-79600000D02*
X44712500Y-81200000D01*
%TO.C,J19*%
X9865000Y-25093999D02*
X11400000Y-26628999D01*
X13300000Y-34914999D02*
X7600000Y-34914999D01*
X9865000Y-30173999D02*
X11400000Y-31708999D01*
X8000000Y-34914999D02*
X8000000Y-24294999D01*
X10000000Y-24959999D02*
X11535000Y-26494999D01*
X13800000Y-24294999D02*
X13800000Y-34414999D01*
X10000000Y-27499999D02*
X11535000Y-29034999D01*
X13300000Y-34914999D02*
X13300000Y-24294999D01*
X7600000Y-24294999D02*
X13800000Y-24294999D01*
X10000000Y-32579999D02*
X11535000Y-34115999D01*
X7600000Y-34914999D02*
X7600000Y-24294999D01*
X13800000Y-34414999D02*
X13300000Y-34914999D01*
X9865000Y-27633999D02*
X11400000Y-29168999D01*
X10000000Y-30039999D02*
X11535000Y-31574999D01*
X9865000Y-32713999D02*
X11400000Y-34249999D01*
X11800000Y-28334999D02*
G75*
G03*
X11800000Y-28334999I-1100000J0D01*
G01*
X11800000Y-25794999D02*
G75*
G03*
X11800000Y-25794999I-1100000J0D01*
G01*
X11800000Y-30874999D02*
G75*
G03*
X11800000Y-30874999I-1100000J0D01*
G01*
X11800000Y-33414999D02*
G75*
G03*
X11800000Y-33414999I-1100000J0D01*
G01*
%TO.C,R4*%
X22200000Y-58787500D02*
X22200000Y-59612500D01*
X20600000Y-58787500D02*
X22200000Y-58787500D01*
X22200000Y-59612500D02*
X20600000Y-59612500D01*
X20600000Y-59612500D02*
X20600000Y-58787500D01*
%TO.C,D6*%
X26149680Y-72111180D02*
X27699080Y-72111180D01*
X26898980Y-70960560D02*
X26149680Y-72111180D01*
X28400000Y-73910000D02*
X28400000Y-69310000D01*
X25400000Y-69310000D02*
X28400000Y-69310000D01*
X27699080Y-70960560D02*
X26098880Y-70960560D01*
X25400000Y-73910000D02*
X25400000Y-69310000D01*
X26898980Y-70960560D02*
X26898980Y-70058860D01*
X26898980Y-72111180D02*
X26898980Y-73109400D01*
X26898980Y-70960560D02*
X27699080Y-72111180D01*
X28400000Y-73910000D02*
X25400000Y-73910000D01*
%TO.C,Q5*%
X38350000Y-42150000D02*
X35450000Y-42150000D01*
X38350000Y-41175000D02*
X38350000Y-42150000D01*
X35450000Y-40850000D02*
X38025000Y-40850000D01*
X38025000Y-40850000D02*
X38350000Y-41175000D01*
X35450000Y-42150000D02*
X35450000Y-40850000D01*
%TD*%
M02*
