M48
; DRILL file {KiCad (6.0.11-0)} date Wednesday, 17 May 2023 at 10:58:54 pm
; FORMAT={-:-/ absolute / metric / decimal}
; #@! TF.CreationDate,2023-05-17T22:58:54+12:00
; #@! TF.GenerationSoftware,Kicad,Pcbnew,(6.0.11-0)
; #@! TF.FileFunction,MixedPlating,1,2
FMAT,2
METRIC
; #@! TA.AperFunction,Plated,PTH,ViaDrill
T1C0.300
; #@! TA.AperFunction,Plated,PTH,ViaDrill
T2C0.600
; #@! TA.AperFunction,Plated,PTH,ComponentDrill
T3C0.600
; #@! TA.AperFunction,Plated,PTH,ComponentDrill
T4C1.000
; #@! TA.AperFunction,Plated,PTH,ComponentDrill
T5C1.100
; #@! TA.AperFunction,Plated,PTH,ComponentDrill
T6C1.190
; #@! TA.AperFunction,Plated,PTH,ComponentDrill
T7C1.300
; #@! TA.AperFunction,Plated,PTH,ComponentDrill
T8C3.200
; #@! TA.AperFunction,NonPlated,NPTH,ComponentDrill
T9C1.000
; #@! TA.AperFunction,NonPlated,NPTH,ComponentDrill
T10C1.100
; #@! TA.AperFunction,NonPlated,NPTH,ComponentDrill
T11C1.700
; #@! TA.AperFunction,NonPlated,NPTH,ComponentDrill
T12C2.200
%
G90
G05
T1
X7.4Y-68.3
X7.6Y-23.393
X7.6Y-29.7
X7.6Y-36.7
X7.6Y-54.3
X7.6Y-74.2
X11.5Y-62.393
X12.6Y-32.2
X12.6Y-34.393
X12.8Y-54.3
X12.8Y-55.9
X12.8Y-57.1
X12.8Y-58.3
X12.8Y-59.5
X13.0Y-68.9
X13.0Y-71.0
X13.0Y-72.693
X13.7Y-62.0
X13.7Y-64.2
X13.7Y-66.5
X14.0Y-55.9
X14.0Y-57.1
X14.0Y-58.3
X14.0Y-59.5
X14.4Y-69.9
X14.4Y-71.793
X15.2Y-55.9
X15.2Y-57.1
X15.2Y-58.3
X15.4Y-62.0
X15.4Y-64.2
X15.4Y-66.5
X15.4Y-68.593
X15.9Y-71.193
X15.9Y-72.693
X16.5Y-55.9
X16.5Y-57.1
X17.3Y-69.1
X17.9Y-55.9
X18.2Y-54.3
X18.7Y-36.693
X18.8Y-70.3
X18.8Y-72.7
X19.506Y-57.006
X20.3Y-69.1
X20.3Y-70.3
X20.3Y-72.7
X20.6Y-22.8
X21.3Y-76.193
X22.368Y-55.068
X23.0Y-25.893
X23.0Y-69.1
X23.007Y-50.908
X24.354Y-52.247
X24.9Y-30.593
X26.5Y-22.593
X26.6Y-24.493
X26.6Y-79.193
X26.9Y-71.5
X26.9Y-75.3
X28.3Y-76.5
X28.45Y-71.49
X30.054Y-71.609
X30.1Y-49.693
X30.1Y-82.793
X30.7Y-76.4
X30.9Y-78.4
X31.195Y-72.795
X31.6Y-48.893
X31.7Y-86.293
X32.2Y-72.7
X33.25Y-78.3
X33.25Y-80.8
X33.3Y-83.2
X33.308Y-50.801
X33.585Y-71.3
X33.6Y-76.4
X34.055Y-51.301
X34.15Y-54.7
X34.6Y-78.3
X34.65Y-83.2
X34.8Y-10.793
X35.2Y-52.493
X35.3Y-71.5
X35.6Y-41.693
X35.8Y-22.6
X35.8Y-24.493
X35.9Y-51.793
X35.9Y-78.3
X35.95Y-83.2
X36.0Y-49.693
X36.5Y-75.4
X36.7Y-47.393
X36.9Y-40.693
X36.9Y-76.4
X37.1Y-49.693
X37.15Y-52.95
X37.8Y-72.693
X37.9Y-46.793
X38.0Y-75.1
X38.5Y-70.5
X38.8Y-39.793
X39.3Y-76.6
X39.35Y-75.1
X39.4Y-24.493
X39.45Y-83.25
X39.5Y-70.9
X39.6Y-54.693
X39.6Y-67.0
X39.9Y-60.15
X39.9Y-62.6
X39.9Y-64.6
X40.5Y-45.993
X40.5Y-49.693
X40.5Y-56.993
X40.5Y-81.368
X41.0Y-72.3
X41.057Y-52.292
X41.4Y-28.493
X41.4Y-40.293
X41.525Y-60.0
X41.54Y-57.0
X41.95Y-55.35
X42.6Y-56.993
X42.7Y-67.4
X42.7Y-71.6
X42.7Y-75.2
X42.7Y-76.8
X42.7Y-83.5
X42.7Y-86.343
X42.8Y-81.368
X43.1Y-23.593
X43.1Y-64.7
X43.95Y-50.5
X44.1Y-74.0
X44.725Y-67.743
X44.8Y-75.3
X44.9Y-62.1
X44.954Y-69.046
X45.0Y-56.793
X45.1Y-64.349
X45.1Y-78.5
X45.375Y-47.092
X45.5Y-36.693
X45.559Y-70.488
X46.697Y-65.897
X46.7Y-46.393
X47.2Y-10.793
X48.2Y-48.493
X48.2Y-51.086
X48.2Y-53.143
X48.4Y-66.8
X48.4Y-67.9
X48.8Y-78.8
X49.2Y-61.993
X50.05Y-71.193
X50.85Y-76.793
X51.1Y-18.793
X51.1Y-23.943
X51.15Y-74.243
X51.75Y-47.399
X51.75Y-51.299
X51.8Y-83.493
X51.8Y-86.343
X52.02Y-26.13
X52.5Y-51.943
X52.599Y-32.1
X52.599Y-42.993
X52.6Y-31.1
X52.6Y-59.0
X52.6Y-60.8
X52.65Y-28.2
X53.2Y-48.521
X53.2Y-49.493
X53.2Y-50.493
X53.299Y-33.0
X53.599Y-41.2
X53.8Y-19.893
X53.8Y-21.993
X53.8Y-24.6
X53.8Y-34.5
X53.8Y-36.193
X53.8Y-72.9
X53.848Y-57.15
X53.85Y-58.943
X53.85Y-62.9
X53.85Y-65.95
X53.9Y-28.194
X54.5Y-50.4
X54.5Y-53.1
X54.61Y-56.193
X54.9Y-47.2
X55.309Y-61.7
X55.4Y-67.993
X56.35Y-33.093
X56.5Y-51.8
X56.5Y-56.8
X56.85Y-39.843
X56.9Y-36.193
X56.9Y-42.9
X57.95Y-25.9
X57.95Y-47.35
X58.0Y-21.993
X58.0Y-68.743
X58.85Y-76.343
X59.25Y-19.893
X59.3Y-35.043
X59.3Y-39.843
X59.3Y-53.543
X59.3Y-56.1
X59.3Y-72.9
X59.3Y-74.143
X59.7Y-83.493
X59.7Y-86.343
X59.85Y-30.093
X60.9Y-49.9
X61.0Y-10.793
X61.05Y-27.743
X61.1Y-21.993
X61.1Y-33.293
X61.1Y-37.193
X61.15Y-18.243
X61.15Y-70.943
X61.7Y-76.343
X61.9Y-57.193
X61.95Y-58.993
X62.15Y-42.65
X62.15Y-47.85
X62.15Y-49.9
X62.15Y-53.393
X62.2Y-19.893
X62.2Y-21.993
X62.2Y-26.893
X62.2Y-31.893
X62.2Y-71.593
X62.25Y-32.943
X62.25Y-35.043
X62.25Y-37.243
X62.5Y-10.793
X63.05Y-31.036
X64.1Y-78.193
X64.45Y-35.393
X64.6Y-64.3
X64.6Y-66.7
X64.6Y-70.193
X64.9Y-24.293
X65.7Y-82.693
X66.05Y-33.093
X66.25Y-76.343
X66.3Y-37.193
X66.4Y-22.493
X66.4Y-26.793
X66.4Y-31.043
X66.4Y-42.65
X66.45Y-47.85
X66.45Y-49.9
X66.5Y-77.743
X67.85Y-53.35
X67.85Y-56.093
X68.2Y-60.2
X68.2Y-63.2
X68.8Y-26.793
X68.8Y-29.203
X68.8Y-42.65
X69.0Y-74.943
X69.4Y-77.193
X69.55Y-70.193
X70.25Y-56.143
X70.35Y-53.5
X71.6Y-31.593
X71.6Y-63.0
X71.7Y-46.043
X71.7Y-60.1
X71.7Y-66.0
X71.9Y-10.793
X71.9Y-77.193
X71.9Y-80.193
X72.0Y-26.793
X72.0Y-34.493
X73.0Y-37.057
X73.0Y-38.7
X73.5Y-68.9
X73.7Y-58.093
X74.0Y-42.693
X74.2Y-46.893
X74.4Y-24.2
X74.4Y-26.793
X74.4Y-56.193
X74.8Y-43.793
X74.8Y-68.893
X74.8Y-71.593
X75.0Y-51.193
X75.25Y-61.843
X75.5Y-20.5
X76.0Y-74.793
X76.4Y-55.099
X76.4Y-56.293
X76.45Y-46.693
X76.75Y-31.8
X77.05Y-49.193
X77.4Y-37.15
X77.5Y-54.393
X77.8Y-64.9
X77.8Y-68.0
X77.9Y-15.1
X77.9Y-17.7
X77.9Y-21.2
X77.9Y-28.4
X77.9Y-38.7
X77.9Y-41.8
X77.9Y-50.193
X78.0Y-43.793
X78.0Y-47.693
X78.2Y-32.793
X78.3Y-34.993
X80.0Y-25.793
X80.6Y-40.193
X81.1Y-59.1
X81.1Y-64.175
X81.3Y-24.493
X81.5Y-19.6
X81.6Y-36.493
X81.6Y-49.793
X82.2Y-10.793
X82.2Y-70.5
X82.2Y-86.193
T2
X17.4Y-62.55
X17.4Y-64.05
X17.4Y-65.55
X17.4Y-67.05
X18.9Y-62.55
X18.9Y-64.05
X18.9Y-65.55
X18.9Y-67.05
X20.4Y-62.55
X20.4Y-64.05
X20.4Y-65.55
X20.4Y-67.05
X21.9Y-62.55
X21.9Y-64.05
X21.9Y-65.55
X21.9Y-67.05
X24.798Y-77.502
X31.7Y-84.1
X37.1Y-78.3
X37.4Y-83.193
X69.05Y-65.55
T4
X45.4Y-50.075
X45.4Y-52.615
X45.4Y-55.155
X45.425Y-28.42
X45.425Y-30.96
X45.425Y-33.5
X45.425Y-38.245
X45.425Y-40.785
X45.425Y-43.325
X50.1Y-12.431
X50.1Y-14.971
X50.1Y-17.511
X50.1Y-20.051
X50.1Y-22.591
X50.1Y-25.131
X50.1Y-27.671
X50.1Y-30.211
X50.1Y-32.751
X50.1Y-35.291
X50.1Y-37.831
X50.1Y-40.371
X50.1Y-42.911
X50.1Y-45.451
X50.1Y-47.991
X50.1Y-50.531
X50.1Y-53.071
X50.1Y-55.611
X50.1Y-58.151
X50.1Y-60.691
X50.1Y-63.231
X50.1Y-65.771
X50.1Y-68.311
X56.585Y-22.55
X56.585Y-25.55
X56.585Y-28.55
X56.585Y-31.55
X56.585Y-41.35
X56.585Y-44.35
X56.585Y-47.35
X56.585Y-50.35
X56.585Y-60.15
X56.585Y-63.15
X56.585Y-66.15
X56.585Y-69.15
X57.3Y-76.893
X57.3Y-79.893
X59.585Y-22.55
X59.585Y-25.55
X59.585Y-28.55
X59.585Y-31.55
X59.585Y-41.35
X59.585Y-44.35
X59.585Y-47.35
X59.585Y-50.35
X59.585Y-60.15
X59.585Y-63.15
X59.585Y-66.15
X59.585Y-69.15
X60.3Y-76.893
X60.3Y-79.893
X60.725Y-13.8
X63.265Y-13.8
X67.8Y-73.953
X67.8Y-76.493
X70.2Y-18.913
X70.2Y-21.453
X70.2Y-23.993
X70.2Y-30.633
X70.2Y-33.173
X70.2Y-35.713
X70.2Y-43.83
X70.2Y-46.37
X70.2Y-48.91
T5
X10.7Y-25.795
X10.7Y-28.335
X10.7Y-30.875
X10.7Y-33.415
X10.7Y-57.93
X10.7Y-60.47
X10.7Y-64.62
X10.7Y-67.16
X10.7Y-69.7
X10.7Y-72.24
X79.7Y-55.25
X79.7Y-57.79
X79.7Y-60.33
X79.7Y-62.87
X79.7Y-65.41
X79.7Y-67.95
X79.708Y-15.795
X79.708Y-18.335
X79.708Y-20.875
X79.708Y-23.415
X79.708Y-28.848
X79.708Y-31.388
X79.708Y-33.928
X79.708Y-36.468
X79.708Y-42.145
X79.708Y-44.685
X79.708Y-47.225
X79.708Y-49.765
T6
X66.86Y-58.4
X66.86Y-68.0
X69.4Y-58.4
X69.4Y-68.0
X71.94Y-58.4
X71.94Y-68.0
T7
X22.36Y-33.0
X24.9Y-25.4
X37.6Y-25.4
X37.6Y-33.02
X78.205Y-74.658
X78.205Y-79.738
T8
X24.0Y-14.0
X24.0Y-83.0
X69.5Y-13.993
X69.5Y-82.993
T9
X54.3Y-80.833
X60.525Y-19.55
X60.525Y-34.55
X60.525Y-38.35
X60.525Y-53.35
X60.525Y-57.15
X60.525Y-72.15
X63.3Y-80.833
T10
X8.16Y-57.93
X8.16Y-60.47
T11
X21.5Y-43.0
X21.5Y-48.0
T12
X21.5Y-37.7
X21.5Y-53.3
T3
X26.05Y-43.0G85X23.95Y-43.0
G05
X26.05Y-48.0G85X23.95Y-48.0
G05
X29.7Y-42.6G85X27.6Y-42.6
G05
X29.7Y-48.4G85X27.6Y-48.4
G05
X31.05Y-37.7G85X28.95Y-37.7
G05
X31.05Y-53.3G85X28.95Y-53.3
G05
T4
X19.5Y-44.9G85X19.5Y-46.1
G05
T0
M30
