%TF.GenerationSoftware,KiCad,Pcbnew,(6.0.11-0)*%
%TF.CreationDate,2023-05-17T22:58:47+12:00*%
%TF.ProjectId,controller-lower-cut,636f6e74-726f-46c6-9c65-722d6c6f7765,3.2*%
%TF.SameCoordinates,PX1c9c380PY1312d00*%
%TF.FileFunction,OtherDrawing,Comment*%
%FSLAX46Y46*%
G04 Gerber Fmt 4.6, Leading zero omitted, Abs format (unit mm)*
G04 Created by KiCad (PCBNEW (6.0.11-0)) date 2023-05-17 22:58:47*
%MOMM*%
%LPD*%
G01*
G04 APERTURE LIST*
%ADD10C,0.150000*%
%ADD11C,0.200000*%
G04 APERTURE END LIST*
D10*
X234300000Y-14007107D02*
G75*
G03*
X234300000Y-14007107I-1300000J0D01*
G01*
X20400000Y-4207107D02*
X236400000Y-4207107D01*
X17800000Y-21057107D02*
X17800000Y-6807107D01*
X19400000Y-23007107D02*
X19400000Y-21057107D01*
X19400000Y-6807107D02*
X19400000Y-21057107D01*
X25300000Y-83007107D02*
G75*
G03*
X25300000Y-83007107I-1300000J0D01*
G01*
X239000000Y-6807107D02*
X239000000Y-21057107D01*
X237400000Y-23007107D02*
X237400000Y-21057107D01*
X2400000Y-51607107D02*
X2400000Y-73007107D01*
X253400000Y-74007100D02*
G75*
G03*
X254400000Y-73007107I0J1000000D01*
G01*
X237400000Y-23007107D02*
X253400000Y-23007107D01*
X237400000Y-74007107D02*
X253400000Y-74007107D01*
X237400000Y-90307107D02*
X237400000Y-76057107D01*
X20400000Y-4207100D02*
G75*
G03*
X17800000Y-6807107I0J-2600000D01*
G01*
X19399993Y-90307107D02*
G75*
G03*
X20400000Y-91307107I1000007J7D01*
G01*
X238999993Y-6807107D02*
G75*
G03*
X236400000Y-4207107I-2599993J7D01*
G01*
X237400000Y-21057107D02*
X237400000Y-6807107D01*
X25300000Y-14007107D02*
G75*
G03*
X25300000Y-14007107I-1300000J0D01*
G01*
X89518Y-48507107D02*
X1300000Y-48507107D01*
X19400000Y-76057107D02*
X19400000Y-90307107D01*
X236400000Y-91307100D02*
G75*
G03*
X237400000Y-90307107I0J1000000D01*
G01*
X239000000Y-76057107D02*
X237400000Y-76057107D01*
X19400000Y-76057107D02*
X17800000Y-76057107D01*
X2400000Y-45407107D02*
X7500000Y-45407107D01*
X2400000Y-51607107D02*
X7500000Y-51621589D01*
X26300000Y-14007107D02*
G75*
G03*
X26300000Y-14007107I-2300000J0D01*
G01*
X237400000Y-76057107D02*
X237400000Y-74007107D01*
X249400000Y-45407093D02*
G75*
G03*
X249400000Y-51607107I0J-3100007D01*
G01*
X3400000Y-23007100D02*
G75*
G03*
X2400000Y-24007107I0J-1000000D01*
G01*
X2400000Y-45407107D02*
X2400000Y-24007107D01*
X17799993Y-90307107D02*
G75*
G03*
X20400000Y-92907107I2600007J7D01*
G01*
X235300000Y-83007107D02*
G75*
G03*
X235300000Y-83007107I-2300000J0D01*
G01*
X239000000Y-21057107D02*
X237400000Y-21057107D01*
X20400000Y-5807100D02*
G75*
G03*
X19400000Y-6807107I0J-1000000D01*
G01*
X19400000Y-74007107D02*
X19400000Y-76057107D01*
X254794759Y-48507107D02*
X253584277Y-48507107D01*
X254400000Y-45407107D02*
X249300000Y-45407107D01*
X254400000Y-51607107D02*
X249300000Y-51607107D01*
X20400000Y-91307107D02*
X236400000Y-91307107D01*
X20400000Y-92907107D02*
X236400000Y-92907107D01*
X1994759Y-48507107D02*
X3205241Y-48507107D01*
X19400000Y-74007107D02*
X3400000Y-74007107D01*
X254399993Y-24007107D02*
G75*
G03*
X253400000Y-23007107I-999993J7D01*
G01*
X237399993Y-6807107D02*
G75*
G03*
X236400000Y-5807107I-999993J7D01*
G01*
X7400000Y-51621593D02*
G75*
G03*
X7400000Y-45407107I0J3107243D01*
G01*
X26300000Y-83007107D02*
G75*
G03*
X26300000Y-83007107I-2300000J0D01*
G01*
X2399993Y-73007107D02*
G75*
G03*
X3400000Y-74007107I1000007J7D01*
G01*
X19400000Y-21057107D02*
X17800000Y-21057107D01*
X235300000Y-14007107D02*
G75*
G03*
X235300000Y-14007107I-2300000J0D01*
G01*
X234300000Y-83007107D02*
G75*
G03*
X234300000Y-83007107I-1300000J0D01*
G01*
X252800000Y-48507107D02*
X248900000Y-48507107D01*
X236400000Y-5807107D02*
X20400000Y-5807107D01*
X239000000Y-76057107D02*
X239000000Y-90307107D01*
X236400000Y-92907100D02*
G75*
G03*
X239000000Y-90307107I0J2600000D01*
G01*
X19400000Y-23007107D02*
X3400000Y-23007107D01*
X-4500000Y-48507107D02*
X-600000Y-48507107D01*
X254400000Y-51607107D02*
X254400000Y-73007107D01*
X254400000Y-45407107D02*
X254400000Y-24007107D01*
X3989518Y-48507107D02*
X7889518Y-48507107D01*
X17750000Y-76057107D02*
X17800000Y-90307107D01*
D11*
X1628571Y-49578535D02*
X1485714Y-49721392D01*
X1057142Y-49864249D01*
X771428Y-49864249D01*
X342857Y-49721392D01*
X57142Y-49435678D01*
X-85715Y-49149964D01*
X-228572Y-48578535D01*
X-228572Y-48149964D01*
X-85715Y-47578535D01*
X57142Y-47292821D01*
X342857Y-47007107D01*
X771428Y-46864249D01*
X1057142Y-46864249D01*
X1485714Y-47007107D01*
X1628571Y-47149964D01*
D10*
X86376190Y3540513D02*
X85804761Y3540513D01*
X86090476Y3540513D02*
X86090476Y4540513D01*
X85995238Y4397655D01*
X85900000Y4302417D01*
X85804761Y4254798D01*
X87280952Y4540513D02*
X86804761Y4540513D01*
X86757142Y4064322D01*
X86804761Y4111941D01*
X86900000Y4159560D01*
X87138095Y4159560D01*
X87233333Y4111941D01*
X87280952Y4064322D01*
X87328571Y3969084D01*
X87328571Y3730989D01*
X87280952Y3635751D01*
X87233333Y3588132D01*
X87138095Y3540513D01*
X86900000Y3540513D01*
X86804761Y3588132D01*
X86757142Y3635751D01*
X88185714Y4207179D02*
X88185714Y3540513D01*
X87947619Y4588132D02*
X87709523Y3873846D01*
X88328571Y3873846D01*
X88709523Y3635751D02*
X88757142Y3588132D01*
X88709523Y3540513D01*
X88661904Y3588132D01*
X88709523Y3635751D01*
X88709523Y3540513D01*
X89376190Y4540513D02*
X89471428Y4540513D01*
X89566666Y4492893D01*
X89614285Y4445274D01*
X89661904Y4350036D01*
X89709523Y4159560D01*
X89709523Y3921465D01*
X89661904Y3730989D01*
X89614285Y3635751D01*
X89566666Y3588132D01*
X89471428Y3540513D01*
X89376190Y3540513D01*
X89280952Y3588132D01*
X89233333Y3635751D01*
X89185714Y3730989D01*
X89138095Y3921465D01*
X89138095Y4159560D01*
X89185714Y4350036D01*
X89233333Y4445274D01*
X89280952Y4492893D01*
X89376190Y4540513D01*
X90328571Y4540513D02*
X90423809Y4540513D01*
X90519047Y4492893D01*
X90566666Y4445274D01*
X90614285Y4350036D01*
X90661904Y4159560D01*
X90661904Y3921465D01*
X90614285Y3730989D01*
X90566666Y3635751D01*
X90519047Y3588132D01*
X90423809Y3540513D01*
X90328571Y3540513D01*
X90233333Y3588132D01*
X90185714Y3635751D01*
X90138095Y3730989D01*
X90090476Y3921465D01*
X90090476Y4159560D01*
X90138095Y4350036D01*
X90185714Y4445274D01*
X90233333Y4492893D01*
X90328571Y4540513D01*
X91280952Y4540513D02*
X91376190Y4540513D01*
X91471428Y4492893D01*
X91519047Y4445274D01*
X91566666Y4350036D01*
X91614285Y4159560D01*
X91614285Y3921465D01*
X91566666Y3730989D01*
X91519047Y3635751D01*
X91471428Y3588132D01*
X91376190Y3540513D01*
X91280952Y3540513D01*
X91185714Y3588132D01*
X91138095Y3635751D01*
X91090476Y3730989D01*
X91042857Y3921465D01*
X91042857Y4159560D01*
X91090476Y4350036D01*
X91138095Y4445274D01*
X91185714Y4492893D01*
X91280952Y4540513D01*
X92233333Y4540513D02*
X92328571Y4540513D01*
X92423809Y4492893D01*
X92471428Y4445274D01*
X92519047Y4350036D01*
X92566666Y4159560D01*
X92566666Y3921465D01*
X92519047Y3730989D01*
X92471428Y3635751D01*
X92423809Y3588132D01*
X92328571Y3540513D01*
X92233333Y3540513D01*
X92138095Y3588132D01*
X92090476Y3635751D01*
X92042857Y3730989D01*
X91995238Y3921465D01*
X91995238Y4159560D01*
X92042857Y4350036D01*
X92090476Y4445274D01*
X92138095Y4492893D01*
X92233333Y4540513D01*
X93757142Y3540513D02*
X93757142Y4207179D01*
X93757142Y4111941D02*
X93804761Y4159560D01*
X93900000Y4207179D01*
X94042857Y4207179D01*
X94138095Y4159560D01*
X94185714Y4064322D01*
X94185714Y3540513D01*
X94185714Y4064322D02*
X94233333Y4159560D01*
X94328571Y4207179D01*
X94471428Y4207179D01*
X94566666Y4159560D01*
X94614285Y4064322D01*
X94614285Y3540513D01*
X95090476Y3540513D02*
X95090476Y4207179D01*
X95090476Y4111941D02*
X95138095Y4159560D01*
X95233333Y4207179D01*
X95376190Y4207179D01*
X95471428Y4159560D01*
X95519047Y4064322D01*
X95519047Y3540513D01*
X95519047Y4064322D02*
X95566666Y4159560D01*
X95661904Y4207179D01*
X95804761Y4207179D01*
X95900000Y4159560D01*
X95947619Y4064322D01*
X95947619Y3540513D01*
X237400000Y0D02*
X237400000Y3586420D01*
X83400000Y0D02*
X83400000Y3586420D01*
X237400000Y3000000D02*
X83400000Y3000000D01*
X237400000Y3000000D02*
X83400000Y3000000D01*
X237400000Y3000000D02*
X236273496Y3586421D01*
X237400000Y3000000D02*
X236273496Y2413579D01*
X83400000Y3000000D02*
X84526504Y2413579D01*
X83400000Y3000000D02*
X84526504Y3586421D01*
X45457142Y-7252380D02*
X45266666Y-7252380D01*
X45171428Y-7300000D01*
X45123809Y-7347619D01*
X45028571Y-7490476D01*
X44980952Y-7680952D01*
X44980952Y-8061904D01*
X45028571Y-8157142D01*
X45076190Y-8204761D01*
X45171428Y-8252380D01*
X45361904Y-8252380D01*
X45457142Y-8204761D01*
X45504761Y-8157142D01*
X45552380Y-8061904D01*
X45552380Y-7823809D01*
X45504761Y-7728571D01*
X45457142Y-7680952D01*
X45361904Y-7633333D01*
X45171428Y-7633333D01*
X45076190Y-7680952D01*
X45028571Y-7728571D01*
X44980952Y-7823809D01*
X45885714Y-7252380D02*
X46504761Y-7252380D01*
X46171428Y-7633333D01*
X46314285Y-7633333D01*
X46409523Y-7680952D01*
X46457142Y-7728571D01*
X46504761Y-7823809D01*
X46504761Y-8061904D01*
X46457142Y-8157142D01*
X46409523Y-8204761D01*
X46314285Y-8252380D01*
X46028571Y-8252380D01*
X45933333Y-8204761D01*
X45885714Y-8157142D01*
X46933333Y-8157142D02*
X46980952Y-8204761D01*
X46933333Y-8252380D01*
X46885714Y-8204761D01*
X46933333Y-8157142D01*
X46933333Y-8252380D01*
X47600000Y-7252380D02*
X47695238Y-7252380D01*
X47790476Y-7300000D01*
X47838095Y-7347619D01*
X47885714Y-7442857D01*
X47933333Y-7633333D01*
X47933333Y-7871428D01*
X47885714Y-8061904D01*
X47838095Y-8157142D01*
X47790476Y-8204761D01*
X47695238Y-8252380D01*
X47600000Y-8252380D01*
X47504761Y-8204761D01*
X47457142Y-8157142D01*
X47409523Y-8061904D01*
X47361904Y-7871428D01*
X47361904Y-7633333D01*
X47409523Y-7442857D01*
X47457142Y-7347619D01*
X47504761Y-7300000D01*
X47600000Y-7252380D01*
X48552380Y-7252380D02*
X48647619Y-7252380D01*
X48742857Y-7300000D01*
X48790476Y-7347619D01*
X48838095Y-7442857D01*
X48885714Y-7633333D01*
X48885714Y-7871428D01*
X48838095Y-8061904D01*
X48790476Y-8157142D01*
X48742857Y-8204761D01*
X48647619Y-8252380D01*
X48552380Y-8252380D01*
X48457142Y-8204761D01*
X48409523Y-8157142D01*
X48361904Y-8061904D01*
X48314285Y-7871428D01*
X48314285Y-7633333D01*
X48361904Y-7442857D01*
X48409523Y-7347619D01*
X48457142Y-7300000D01*
X48552380Y-7252380D01*
X49504761Y-7252380D02*
X49600000Y-7252380D01*
X49695238Y-7300000D01*
X49742857Y-7347619D01*
X49790476Y-7442857D01*
X49838095Y-7633333D01*
X49838095Y-7871428D01*
X49790476Y-8061904D01*
X49742857Y-8157142D01*
X49695238Y-8204761D01*
X49600000Y-8252380D01*
X49504761Y-8252380D01*
X49409523Y-8204761D01*
X49361904Y-8157142D01*
X49314285Y-8061904D01*
X49266666Y-7871428D01*
X49266666Y-7633333D01*
X49314285Y-7442857D01*
X49361904Y-7347619D01*
X49409523Y-7300000D01*
X49504761Y-7252380D01*
X50457142Y-7252380D02*
X50552380Y-7252380D01*
X50647619Y-7300000D01*
X50695238Y-7347619D01*
X50742857Y-7442857D01*
X50790476Y-7633333D01*
X50790476Y-7871428D01*
X50742857Y-8061904D01*
X50695238Y-8157142D01*
X50647619Y-8204761D01*
X50552380Y-8252380D01*
X50457142Y-8252380D01*
X50361904Y-8204761D01*
X50314285Y-8157142D01*
X50266666Y-8061904D01*
X50219047Y-7871428D01*
X50219047Y-7633333D01*
X50266666Y-7442857D01*
X50314285Y-7347619D01*
X50361904Y-7300000D01*
X50457142Y-7252380D01*
X51980952Y-8252380D02*
X51980952Y-7585714D01*
X51980952Y-7680952D02*
X52028571Y-7633333D01*
X52123809Y-7585714D01*
X52266666Y-7585714D01*
X52361904Y-7633333D01*
X52409523Y-7728571D01*
X52409523Y-8252380D01*
X52409523Y-7728571D02*
X52457142Y-7633333D01*
X52552380Y-7585714D01*
X52695238Y-7585714D01*
X52790476Y-7633333D01*
X52838095Y-7728571D01*
X52838095Y-8252380D01*
X53314285Y-8252380D02*
X53314285Y-7585714D01*
X53314285Y-7680952D02*
X53361904Y-7633333D01*
X53457142Y-7585714D01*
X53600000Y-7585714D01*
X53695238Y-7633333D01*
X53742857Y-7728571D01*
X53742857Y-8252380D01*
X53742857Y-7728571D02*
X53790476Y-7633333D01*
X53885714Y-7585714D01*
X54028571Y-7585714D01*
X54123809Y-7633333D01*
X54171428Y-7728571D01*
X54171428Y-8252380D01*
X20000000Y-10500000D02*
X20000000Y-8613580D01*
X83000000Y-8613580D02*
X83000000Y-10500000D01*
X20000000Y-9200000D02*
X83000000Y-9200000D01*
X20000000Y-9200000D02*
X83000000Y-9200000D01*
X20000000Y-9200000D02*
X21126504Y-9786421D01*
X20000000Y-9200000D02*
X21126504Y-8613579D01*
X83000000Y-9200000D02*
X81873496Y-8613579D01*
X83000000Y-9200000D02*
X81873496Y-9786421D01*
M02*
