%TF.GenerationSoftware,KiCad,Pcbnew,(6.0.11-0)*%
%TF.CreationDate,2023-05-17T23:02:26+12:00*%
%TF.ProjectId,controller-upper-cut,636f6e74-726f-46c6-9c65-722d75707065,3.2*%
%TF.SameCoordinates,PX1c9c380PY1312d00*%
%TF.FileFunction,Soldermask,Top*%
%TF.FilePolarity,Negative*%
%FSLAX46Y46*%
G04 Gerber Fmt 4.6, Leading zero omitted, Abs format (unit mm)*
G04 Created by KiCad (PCBNEW (6.0.11-0)) date 2023-05-17 23:02:26*
%MOMM*%
%LPD*%
G01*
G04 APERTURE LIST*
G04 Aperture macros list*
%AMRoundRect*
0 Rectangle with rounded corners*
0 $1 Rounding radius*
0 $2 $3 $4 $5 $6 $7 $8 $9 X,Y pos of 4 corners*
0 Add a 4 corners polygon primitive as box body*
4,1,4,$2,$3,$4,$5,$6,$7,$8,$9,$2,$3,0*
0 Add four circle primitives for the rounded corners*
1,1,$1+$1,$2,$3*
1,1,$1+$1,$4,$5*
1,1,$1+$1,$6,$7*
1,1,$1+$1,$8,$9*
0 Add four rect primitives between the rounded corners*
20,1,$1+$1,$2,$3,$4,$5,0*
20,1,$1+$1,$4,$5,$6,$7,0*
20,1,$1+$1,$6,$7,$8,$9,0*
20,1,$1+$1,$8,$9,$2,$3,0*%
G04 Aperture macros list end*
%ADD10R,0.800000X0.500000*%
%ADD11R,0.800000X0.400000*%
%ADD12RoundRect,0.150000X-0.875000X-0.150000X0.875000X-0.150000X0.875000X0.150000X-0.875000X0.150000X0*%
%ADD13C,5.500000*%
%ADD14RoundRect,0.225000X0.250000X-0.225000X0.250000X0.225000X-0.250000X0.225000X-0.250000X-0.225000X0*%
%ADD15RoundRect,0.225000X-0.250000X0.225000X-0.250000X-0.225000X0.250000X-0.225000X0.250000X0.225000X0*%
%ADD16RoundRect,0.225000X-0.225000X-0.250000X0.225000X-0.250000X0.225000X0.250000X-0.225000X0.250000X0*%
%ADD17RoundRect,0.150000X0.725000X0.150000X-0.725000X0.150000X-0.725000X-0.150000X0.725000X-0.150000X0*%
%ADD18C,4.000000*%
%ADD19R,1.600000X1.600000*%
%ADD20C,1.600000*%
%ADD21RoundRect,0.200000X-0.275000X0.200000X-0.275000X-0.200000X0.275000X-0.200000X0.275000X0.200000X0*%
%ADD22R,1.700000X1.700000*%
%ADD23O,1.700000X1.700000*%
G04 APERTURE END LIST*
D10*
%TO.C,RN2*%
X34000000Y-101889393D03*
D11*
X34000000Y-102689393D03*
X34000000Y-103489393D03*
D10*
X34000000Y-104289393D03*
X35800000Y-104289393D03*
D11*
X35800000Y-103489393D03*
X35800000Y-102689393D03*
D10*
X35800000Y-101889393D03*
%TD*%
D12*
%TO.C,U3*%
X36303560Y-125116833D03*
X36303560Y-126386833D03*
X36303560Y-127656833D03*
X36303560Y-128926833D03*
X36303560Y-130196833D03*
X36303560Y-131466833D03*
X36303560Y-132736833D03*
X36303560Y-134006833D03*
X36303560Y-135276833D03*
X36303560Y-136546833D03*
X45603560Y-136546833D03*
X45603560Y-135276833D03*
X45603560Y-134006833D03*
X45603560Y-132736833D03*
X45603560Y-131466833D03*
X45603560Y-130196833D03*
X45603560Y-128926833D03*
X45603560Y-127656833D03*
X45603560Y-126386833D03*
X45603560Y-125116833D03*
%TD*%
D13*
%TO.C,H1*%
X24000000Y-99992893D03*
%TD*%
D10*
%TO.C,RN3*%
X45700000Y-140992893D03*
D11*
X45700000Y-141792893D03*
X45700000Y-142592893D03*
D10*
X45700000Y-143392893D03*
X47500000Y-143392893D03*
D11*
X47500000Y-142592893D03*
X47500000Y-141792893D03*
D10*
X47500000Y-140992893D03*
%TD*%
%TO.C,RN1*%
X33700000Y-143833393D03*
D11*
X33700000Y-144633393D03*
X33700000Y-145433393D03*
D10*
X33700000Y-146233393D03*
X35500000Y-146233393D03*
D11*
X35500000Y-145433393D03*
X35500000Y-144633393D03*
D10*
X35500000Y-143833393D03*
%TD*%
D14*
%TO.C,C11*%
X47800000Y-125167893D03*
X47800000Y-123617893D03*
%TD*%
D15*
%TO.C,C10*%
X36544000Y-107009393D03*
X36544000Y-108559393D03*
%TD*%
D10*
%TO.C,RN4*%
X47800000Y-102292893D03*
D11*
X47800000Y-101492893D03*
X47800000Y-100692893D03*
D10*
X47800000Y-99892893D03*
X46000000Y-99892893D03*
D11*
X46000000Y-100692893D03*
X46000000Y-101492893D03*
D10*
X46000000Y-102292893D03*
%TD*%
D16*
%TO.C,C12*%
X45650000Y-107739393D03*
X47200000Y-107739393D03*
%TD*%
D17*
%TO.C,U5*%
X43654000Y-107739393D03*
X43654000Y-106469393D03*
X43654000Y-105199393D03*
X43654000Y-103929393D03*
X43654000Y-102659393D03*
X43654000Y-101389393D03*
X43654000Y-100119393D03*
X43654000Y-98849393D03*
X38504000Y-98849393D03*
X38504000Y-100119393D03*
X38504000Y-101389393D03*
X38504000Y-102659393D03*
X38504000Y-103929393D03*
X38504000Y-105199393D03*
X38504000Y-106469393D03*
X38504000Y-107739393D03*
%TD*%
D13*
%TO.C,H2*%
X24000000Y-168992893D03*
%TD*%
D18*
%TO.C,J6*%
X27410331Y-158057893D03*
X27410331Y-110957893D03*
D19*
X28830331Y-117887893D03*
D20*
X28830331Y-120657893D03*
X28830331Y-123427893D03*
X28830331Y-126197893D03*
X28830331Y-128967893D03*
X28830331Y-131737893D03*
X28830331Y-134507893D03*
X28830331Y-137277893D03*
X28830331Y-140047893D03*
X28830331Y-142817893D03*
X28830331Y-145587893D03*
X28830331Y-148357893D03*
X28830331Y-151127893D03*
X25990331Y-119272893D03*
X25990331Y-122042893D03*
X25990331Y-124812893D03*
X25990331Y-127582893D03*
X25990331Y-130352893D03*
X25990331Y-133122893D03*
X25990331Y-135892893D03*
X25990331Y-138662893D03*
X25990331Y-141432893D03*
X25990331Y-144202893D03*
X25990331Y-146972893D03*
X25990331Y-149742893D03*
%TD*%
D21*
%TO.C,R13*%
X33500000Y-136467893D03*
X33500000Y-138117893D03*
%TD*%
D17*
%TO.C,U4*%
X43654000Y-148466393D03*
X43654000Y-147196393D03*
X43654000Y-145926393D03*
X43654000Y-144656393D03*
X43654000Y-143386393D03*
X43654000Y-142116393D03*
X43654000Y-140846393D03*
X43654000Y-139576393D03*
X38504000Y-139576393D03*
X38504000Y-140846393D03*
X38504000Y-142116393D03*
X38504000Y-143386393D03*
X38504000Y-144656393D03*
X38504000Y-145926393D03*
X38504000Y-147196393D03*
X38504000Y-148466393D03*
%TD*%
D14*
%TO.C,C9*%
X36400000Y-139861006D03*
X36400000Y-138311006D03*
%TD*%
D12*
%TO.C,U2*%
X36553560Y-110445833D03*
X36553560Y-111715833D03*
X36553560Y-112985833D03*
X36553560Y-114255833D03*
X36553560Y-115525833D03*
X36553560Y-116795833D03*
X36553560Y-118065833D03*
X36553560Y-119335833D03*
X36553560Y-120605833D03*
X36553560Y-121875833D03*
X45853560Y-121875833D03*
X45853560Y-120605833D03*
X45853560Y-119335833D03*
X45853560Y-118065833D03*
X45853560Y-116795833D03*
X45853560Y-115525833D03*
X45853560Y-114255833D03*
X45853560Y-112985833D03*
X45853560Y-111715833D03*
X45853560Y-110445833D03*
%TD*%
D22*
%TO.C,J1*%
X50063000Y-154417000D03*
D23*
X50063000Y-151877000D03*
X50063000Y-149337000D03*
X50063000Y-146797000D03*
X50063000Y-144257000D03*
X50063000Y-141717000D03*
X50063000Y-139177000D03*
X50063000Y-136637000D03*
X50063000Y-134097000D03*
X50063000Y-131557000D03*
X50063000Y-129017000D03*
X50063000Y-126477000D03*
X50063000Y-123937000D03*
X50063000Y-121397000D03*
X50063000Y-118857000D03*
X50063000Y-116317000D03*
X50063000Y-113777000D03*
X50063000Y-111237000D03*
X50063000Y-108697000D03*
X50063000Y-106157000D03*
X50063000Y-103617000D03*
X50063000Y-101077000D03*
X50063000Y-98537000D03*
%TD*%
M02*
