%TF.GenerationSoftware,KiCad,Pcbnew,(6.0.11-0)*%
%TF.CreationDate,2023-05-17T23:02:26+12:00*%
%TF.ProjectId,controller-upper-cut,636f6e74-726f-46c6-9c65-722d75707065,3.2*%
%TF.SameCoordinates,PX1c9c380PY1312d00*%
%TF.FileFunction,Legend,Top*%
%TF.FilePolarity,Positive*%
%FSLAX46Y46*%
G04 Gerber Fmt 4.6, Leading zero omitted, Abs format (unit mm)*
G04 Created by KiCad (PCBNEW (6.0.11-0)) date 2023-05-17 23:02:26*
%MOMM*%
%LPD*%
G01*
G04 APERTURE LIST*
G04 Aperture macros list*
%AMRoundRect*
0 Rectangle with rounded corners*
0 $1 Rounding radius*
0 $2 $3 $4 $5 $6 $7 $8 $9 X,Y pos of 4 corners*
0 Add a 4 corners polygon primitive as box body*
4,1,4,$2,$3,$4,$5,$6,$7,$8,$9,$2,$3,0*
0 Add four circle primitives for the rounded corners*
1,1,$1+$1,$2,$3*
1,1,$1+$1,$4,$5*
1,1,$1+$1,$6,$7*
1,1,$1+$1,$8,$9*
0 Add four rect primitives between the rounded corners*
20,1,$1+$1,$2,$3,$4,$5,0*
20,1,$1+$1,$4,$5,$6,$7,0*
20,1,$1+$1,$6,$7,$8,$9,0*
20,1,$1+$1,$8,$9,$2,$3,0*%
G04 Aperture macros list end*
%ADD10C,0.150000*%
%ADD11C,0.080000*%
%ADD12C,0.120000*%
%ADD13R,0.800000X0.500000*%
%ADD14R,0.800000X0.400000*%
%ADD15RoundRect,0.150000X-0.875000X-0.150000X0.875000X-0.150000X0.875000X0.150000X-0.875000X0.150000X0*%
%ADD16C,5.500000*%
%ADD17RoundRect,0.225000X0.250000X-0.225000X0.250000X0.225000X-0.250000X0.225000X-0.250000X-0.225000X0*%
%ADD18RoundRect,0.225000X-0.250000X0.225000X-0.250000X-0.225000X0.250000X-0.225000X0.250000X0.225000X0*%
%ADD19RoundRect,0.225000X-0.225000X-0.250000X0.225000X-0.250000X0.225000X0.250000X-0.225000X0.250000X0*%
%ADD20RoundRect,0.150000X0.725000X0.150000X-0.725000X0.150000X-0.725000X-0.150000X0.725000X-0.150000X0*%
%ADD21C,4.000000*%
%ADD22R,1.600000X1.600000*%
%ADD23C,1.600000*%
%ADD24RoundRect,0.200000X-0.275000X0.200000X-0.275000X-0.200000X0.275000X-0.200000X0.275000X0.200000X0*%
%ADD25R,1.700000X1.700000*%
%ADD26O,1.700000X1.700000*%
G04 APERTURE END LIST*
D10*
X46538095Y-97540512D02*
X46585714Y-97492893D01*
X46680952Y-97445273D01*
X46919047Y-97445273D01*
X47014285Y-97492893D01*
X47061904Y-97540512D01*
X47109523Y-97635750D01*
X47109523Y-97730988D01*
X47061904Y-97873845D01*
X46490476Y-98445273D01*
X47109523Y-98445273D01*
X47490476Y-97540512D02*
X47538095Y-97492893D01*
X47633333Y-97445273D01*
X47871428Y-97445273D01*
X47966666Y-97492893D01*
X48014285Y-97540512D01*
X48061904Y-97635750D01*
X48061904Y-97730988D01*
X48014285Y-97873845D01*
X47442857Y-98445273D01*
X48061904Y-98445273D01*
X41285714Y-152545273D02*
X40714285Y-152545273D01*
X41000000Y-152545273D02*
X41000000Y-151545273D01*
X40904761Y-151688131D01*
X40809523Y-151783369D01*
X40714285Y-151830988D01*
D11*
%TO.C,RN2*%
X34426666Y-105696059D02*
X34193333Y-105362726D01*
X34026666Y-105696059D02*
X34026666Y-104996059D01*
X34293333Y-104996059D01*
X34360000Y-105029393D01*
X34393333Y-105062726D01*
X34426666Y-105129393D01*
X34426666Y-105229393D01*
X34393333Y-105296059D01*
X34360000Y-105329393D01*
X34293333Y-105362726D01*
X34026666Y-105362726D01*
X34726666Y-105696059D02*
X34726666Y-104996059D01*
X35126666Y-105696059D01*
X35126666Y-104996059D01*
X35426666Y-105062726D02*
X35460000Y-105029393D01*
X35526666Y-104996059D01*
X35693333Y-104996059D01*
X35760000Y-105029393D01*
X35793333Y-105062726D01*
X35826666Y-105129393D01*
X35826666Y-105196059D01*
X35793333Y-105296059D01*
X35393333Y-105696059D01*
X35826666Y-105696059D01*
%TO.C,U3*%
X38584075Y-123356059D02*
X38584075Y-123922726D01*
X38617409Y-123989393D01*
X38650742Y-124022726D01*
X38717409Y-124056059D01*
X38850742Y-124056059D01*
X38917409Y-124022726D01*
X38950742Y-123989393D01*
X38984075Y-123922726D01*
X38984075Y-123356059D01*
X39250742Y-123356059D02*
X39684075Y-123356059D01*
X39450742Y-123622726D01*
X39550742Y-123622726D01*
X39617409Y-123656059D01*
X39650742Y-123689393D01*
X39684075Y-123756059D01*
X39684075Y-123922726D01*
X39650742Y-123989393D01*
X39617409Y-124022726D01*
X39550742Y-124056059D01*
X39350742Y-124056059D01*
X39284075Y-124022726D01*
X39250742Y-123989393D01*
%TO.C,H1*%
X23566666Y-100309559D02*
X23566666Y-99609559D01*
X23566666Y-99942893D02*
X23966666Y-99942893D01*
X23966666Y-100309559D02*
X23966666Y-99609559D01*
X24666666Y-100309559D02*
X24266666Y-100309559D01*
X24466666Y-100309559D02*
X24466666Y-99609559D01*
X24400000Y-99709559D01*
X24333333Y-99776226D01*
X24266666Y-99809559D01*
%TO.C,RN3*%
X45716666Y-144809559D02*
X45483333Y-144476226D01*
X45316666Y-144809559D02*
X45316666Y-144109559D01*
X45583333Y-144109559D01*
X45650000Y-144142893D01*
X45683333Y-144176226D01*
X45716666Y-144242893D01*
X45716666Y-144342893D01*
X45683333Y-144409559D01*
X45650000Y-144442893D01*
X45583333Y-144476226D01*
X45316666Y-144476226D01*
X46016666Y-144809559D02*
X46016666Y-144109559D01*
X46416666Y-144809559D01*
X46416666Y-144109559D01*
X46683333Y-144109559D02*
X47116666Y-144109559D01*
X46883333Y-144376226D01*
X46983333Y-144376226D01*
X47050000Y-144409559D01*
X47083333Y-144442893D01*
X47116666Y-144509559D01*
X47116666Y-144676226D01*
X47083333Y-144742893D01*
X47050000Y-144776226D01*
X46983333Y-144809559D01*
X46783333Y-144809559D01*
X46716666Y-144776226D01*
X46683333Y-144742893D01*
%TO.C,RN1*%
X34616666Y-147678059D02*
X34383333Y-147344726D01*
X34216666Y-147678059D02*
X34216666Y-146978059D01*
X34483333Y-146978059D01*
X34550000Y-147011393D01*
X34583333Y-147044726D01*
X34616666Y-147111393D01*
X34616666Y-147211393D01*
X34583333Y-147278059D01*
X34550000Y-147311393D01*
X34483333Y-147344726D01*
X34216666Y-147344726D01*
X34916666Y-147678059D02*
X34916666Y-146978059D01*
X35316666Y-147678059D01*
X35316666Y-146978059D01*
X36016666Y-147678059D02*
X35616666Y-147678059D01*
X35816666Y-147678059D02*
X35816666Y-146978059D01*
X35750000Y-147078059D01*
X35683333Y-147144726D01*
X35616666Y-147178059D01*
%TO.C,C11*%
X46900000Y-124842893D02*
X46933333Y-124876226D01*
X46966666Y-124976226D01*
X46966666Y-125042893D01*
X46933333Y-125142893D01*
X46866666Y-125209559D01*
X46800000Y-125242893D01*
X46666666Y-125276226D01*
X46566666Y-125276226D01*
X46433333Y-125242893D01*
X46366666Y-125209559D01*
X46300000Y-125142893D01*
X46266666Y-125042893D01*
X46266666Y-124976226D01*
X46300000Y-124876226D01*
X46333333Y-124842893D01*
X46966666Y-124176226D02*
X46966666Y-124576226D01*
X46966666Y-124376226D02*
X46266666Y-124376226D01*
X46366666Y-124442893D01*
X46433333Y-124509559D01*
X46466666Y-124576226D01*
X46966666Y-123509559D02*
X46966666Y-123909559D01*
X46966666Y-123709559D02*
X46266666Y-123709559D01*
X46366666Y-123776226D01*
X46433333Y-123842893D01*
X46466666Y-123909559D01*
%TO.C,C10*%
X35675000Y-108284393D02*
X35708333Y-108317726D01*
X35741666Y-108417726D01*
X35741666Y-108484393D01*
X35708333Y-108584393D01*
X35641666Y-108651059D01*
X35575000Y-108684393D01*
X35441666Y-108717726D01*
X35341666Y-108717726D01*
X35208333Y-108684393D01*
X35141666Y-108651059D01*
X35075000Y-108584393D01*
X35041666Y-108484393D01*
X35041666Y-108417726D01*
X35075000Y-108317726D01*
X35108333Y-108284393D01*
X35741666Y-107617726D02*
X35741666Y-108017726D01*
X35741666Y-107817726D02*
X35041666Y-107817726D01*
X35141666Y-107884393D01*
X35208333Y-107951059D01*
X35241666Y-108017726D01*
X35041666Y-107184393D02*
X35041666Y-107117726D01*
X35075000Y-107051059D01*
X35108333Y-107017726D01*
X35175000Y-106984393D01*
X35308333Y-106951059D01*
X35475000Y-106951059D01*
X35608333Y-106984393D01*
X35675000Y-107017726D01*
X35708333Y-107051059D01*
X35741666Y-107117726D01*
X35741666Y-107184393D01*
X35708333Y-107251059D01*
X35675000Y-107284393D01*
X35608333Y-107317726D01*
X35475000Y-107351059D01*
X35308333Y-107351059D01*
X35175000Y-107317726D01*
X35108333Y-107284393D01*
X35075000Y-107251059D01*
X35041666Y-107184393D01*
%TO.C,RN4*%
X46416666Y-103699559D02*
X46183333Y-103366226D01*
X46016666Y-103699559D02*
X46016666Y-102999559D01*
X46283333Y-102999559D01*
X46350000Y-103032893D01*
X46383333Y-103066226D01*
X46416666Y-103132893D01*
X46416666Y-103232893D01*
X46383333Y-103299559D01*
X46350000Y-103332893D01*
X46283333Y-103366226D01*
X46016666Y-103366226D01*
X46716666Y-103699559D02*
X46716666Y-102999559D01*
X47116666Y-103699559D01*
X47116666Y-102999559D01*
X47750000Y-103232893D02*
X47750000Y-103699559D01*
X47583333Y-102966226D02*
X47416666Y-103466226D01*
X47850000Y-103466226D01*
%TO.C,C12*%
X45975000Y-109089393D02*
X45941666Y-109122726D01*
X45841666Y-109156059D01*
X45775000Y-109156059D01*
X45675000Y-109122726D01*
X45608333Y-109056059D01*
X45575000Y-108989393D01*
X45541666Y-108856059D01*
X45541666Y-108756059D01*
X45575000Y-108622726D01*
X45608333Y-108556059D01*
X45675000Y-108489393D01*
X45775000Y-108456059D01*
X45841666Y-108456059D01*
X45941666Y-108489393D01*
X45975000Y-108522726D01*
X46641666Y-109156059D02*
X46241666Y-109156059D01*
X46441666Y-109156059D02*
X46441666Y-108456059D01*
X46375000Y-108556059D01*
X46308333Y-108622726D01*
X46241666Y-108656059D01*
X46908333Y-108522726D02*
X46941666Y-108489393D01*
X47008333Y-108456059D01*
X47175000Y-108456059D01*
X47241666Y-108489393D01*
X47275000Y-108522726D01*
X47308333Y-108589393D01*
X47308333Y-108656059D01*
X47275000Y-108756059D01*
X46875000Y-109156059D01*
X47308333Y-109156059D01*
%TO.C,U5*%
X39591666Y-97351059D02*
X39591666Y-97917726D01*
X39625000Y-97984393D01*
X39658333Y-98017726D01*
X39725000Y-98051059D01*
X39858333Y-98051059D01*
X39925000Y-98017726D01*
X39958333Y-97984393D01*
X39991666Y-97917726D01*
X39991666Y-97351059D01*
X40658333Y-97351059D02*
X40325000Y-97351059D01*
X40291666Y-97684393D01*
X40325000Y-97651059D01*
X40391666Y-97617726D01*
X40558333Y-97617726D01*
X40625000Y-97651059D01*
X40658333Y-97684393D01*
X40691666Y-97751059D01*
X40691666Y-97917726D01*
X40658333Y-97984393D01*
X40625000Y-98017726D01*
X40558333Y-98051059D01*
X40391666Y-98051059D01*
X40325000Y-98017726D01*
X40291666Y-97984393D01*
%TO.C,H2*%
X23466666Y-169209559D02*
X23466666Y-168509559D01*
X23466666Y-168842893D02*
X23866666Y-168842893D01*
X23866666Y-169209559D02*
X23866666Y-168509559D01*
X24166666Y-168576226D02*
X24200000Y-168542893D01*
X24266666Y-168509559D01*
X24433333Y-168509559D01*
X24500000Y-168542893D01*
X24533333Y-168576226D01*
X24566666Y-168642893D01*
X24566666Y-168709559D01*
X24533333Y-168809559D01*
X24133333Y-169209559D01*
X24566666Y-169209559D01*
%TO.C,J6*%
X23992666Y-161669559D02*
X23992666Y-162169559D01*
X23959333Y-162269559D01*
X23892666Y-162336226D01*
X23792666Y-162369559D01*
X23726000Y-162369559D01*
X24626000Y-161669559D02*
X24492666Y-161669559D01*
X24426000Y-161702893D01*
X24392666Y-161736226D01*
X24326000Y-161836226D01*
X24292666Y-161969559D01*
X24292666Y-162236226D01*
X24326000Y-162302893D01*
X24359333Y-162336226D01*
X24426000Y-162369559D01*
X24559333Y-162369559D01*
X24626000Y-162336226D01*
X24659333Y-162302893D01*
X24692666Y-162236226D01*
X24692666Y-162069559D01*
X24659333Y-162002893D01*
X24626000Y-161969559D01*
X24559333Y-161936226D01*
X24426000Y-161936226D01*
X24359333Y-161969559D01*
X24326000Y-162002893D01*
X24292666Y-162069559D01*
%TO.C,R13*%
X33774466Y-135251293D02*
X33441133Y-135484626D01*
X33774466Y-135651293D02*
X33074466Y-135651293D01*
X33074466Y-135384626D01*
X33107800Y-135317959D01*
X33141133Y-135284626D01*
X33207800Y-135251293D01*
X33307800Y-135251293D01*
X33374466Y-135284626D01*
X33407800Y-135317959D01*
X33441133Y-135384626D01*
X33441133Y-135651293D01*
X33774466Y-134584626D02*
X33774466Y-134984626D01*
X33774466Y-134784626D02*
X33074466Y-134784626D01*
X33174466Y-134851293D01*
X33241133Y-134917959D01*
X33274466Y-134984626D01*
X33074466Y-134351293D02*
X33074466Y-133917959D01*
X33341133Y-134151293D01*
X33341133Y-134051293D01*
X33374466Y-133984626D01*
X33407800Y-133951293D01*
X33474466Y-133917959D01*
X33641133Y-133917959D01*
X33707800Y-133951293D01*
X33741133Y-133984626D01*
X33774466Y-134051293D01*
X33774466Y-134251293D01*
X33741133Y-134317959D01*
X33707800Y-134351293D01*
%TO.C,U4*%
X40366666Y-138016666D02*
X40366666Y-138583333D01*
X40400000Y-138650000D01*
X40433333Y-138683333D01*
X40500000Y-138716666D01*
X40633333Y-138716666D01*
X40700000Y-138683333D01*
X40733333Y-138650000D01*
X40766666Y-138583333D01*
X40766666Y-138016666D01*
X41400000Y-138250000D02*
X41400000Y-138716666D01*
X41233333Y-137983333D02*
X41066666Y-138483333D01*
X41500000Y-138483333D01*
%TO.C,C9*%
X35500000Y-139177672D02*
X35533333Y-139211006D01*
X35566666Y-139311006D01*
X35566666Y-139377672D01*
X35533333Y-139477672D01*
X35466666Y-139544339D01*
X35400000Y-139577672D01*
X35266666Y-139611006D01*
X35166666Y-139611006D01*
X35033333Y-139577672D01*
X34966666Y-139544339D01*
X34900000Y-139477672D01*
X34866666Y-139377672D01*
X34866666Y-139311006D01*
X34900000Y-139211006D01*
X34933333Y-139177672D01*
X35566666Y-138844339D02*
X35566666Y-138711006D01*
X35533333Y-138644339D01*
X35500000Y-138611006D01*
X35400000Y-138544339D01*
X35266666Y-138511006D01*
X35000000Y-138511006D01*
X34933333Y-138544339D01*
X34900000Y-138577672D01*
X34866666Y-138644339D01*
X34866666Y-138777672D01*
X34900000Y-138844339D01*
X34933333Y-138877672D01*
X35000000Y-138911006D01*
X35166666Y-138911006D01*
X35233333Y-138877672D01*
X35266666Y-138844339D01*
X35300000Y-138777672D01*
X35300000Y-138644339D01*
X35266666Y-138577672D01*
X35233333Y-138544339D01*
X35166666Y-138511006D01*
%TO.C,U2*%
X38734075Y-108706059D02*
X38734075Y-109272726D01*
X38767409Y-109339393D01*
X38800742Y-109372726D01*
X38867409Y-109406059D01*
X39000742Y-109406059D01*
X39067409Y-109372726D01*
X39100742Y-109339393D01*
X39134075Y-109272726D01*
X39134075Y-108706059D01*
X39434075Y-108772726D02*
X39467409Y-108739393D01*
X39534075Y-108706059D01*
X39700742Y-108706059D01*
X39767409Y-108739393D01*
X39800742Y-108772726D01*
X39834075Y-108839393D01*
X39834075Y-108906059D01*
X39800742Y-109006059D01*
X39400742Y-109406059D01*
X39834075Y-109406059D01*
D12*
%TO.C,RN2*%
X35400000Y-101409393D02*
X34400000Y-101409393D01*
X35400000Y-104769393D02*
X34400000Y-104769393D01*
%TO.C,U3*%
X44813560Y-137341833D02*
X44813560Y-137106833D01*
X44813560Y-124321833D02*
X44813560Y-124556833D01*
X37093560Y-124556833D02*
X35278560Y-124556833D01*
X40953560Y-137341833D02*
X37093560Y-137341833D01*
X37093560Y-124321833D02*
X37093560Y-124556833D01*
X40953560Y-137341833D02*
X44813560Y-137341833D01*
X37093560Y-137341833D02*
X37093560Y-137106833D01*
X40953560Y-124321833D02*
X37093560Y-124321833D01*
X40953560Y-124321833D02*
X44813560Y-124321833D01*
%TO.C,RN3*%
X47100000Y-143872893D02*
X46100000Y-143872893D01*
X47100000Y-140512893D02*
X46100000Y-140512893D01*
%TO.C,RN1*%
X35100000Y-146713393D02*
X34100000Y-146713393D01*
X35100000Y-143353393D02*
X34100000Y-143353393D01*
%TO.C,C11*%
X47290000Y-124533473D02*
X47290000Y-124252313D01*
X48310000Y-124533473D02*
X48310000Y-124252313D01*
%TO.C,C10*%
X36034000Y-107643813D02*
X36034000Y-107924973D01*
X37054000Y-107643813D02*
X37054000Y-107924973D01*
%TO.C,RN4*%
X46400000Y-102772893D02*
X47400000Y-102772893D01*
X46400000Y-99412893D02*
X47400000Y-99412893D01*
%TO.C,C12*%
X46284420Y-107229393D02*
X46565580Y-107229393D01*
X46284420Y-108249393D02*
X46565580Y-108249393D01*
%TO.C,U5*%
X41079000Y-108354393D02*
X39129000Y-108354393D01*
X41079000Y-98234393D02*
X39129000Y-98234393D01*
X41079000Y-108354393D02*
X44529000Y-108354393D01*
X41079000Y-98234393D02*
X43029000Y-98234393D01*
%TO.C,J6*%
X31151656Y-117887893D02*
X31584669Y-117637893D01*
X30690331Y-161117893D02*
X18350331Y-161117893D01*
X18350331Y-107897893D02*
X30690331Y-107897893D01*
X30690331Y-107897893D02*
X30690331Y-161117893D01*
X31584669Y-118137893D02*
X31151656Y-117887893D01*
X31584669Y-117637893D02*
X31584669Y-118137893D01*
%TO.C,R13*%
X32977500Y-137055635D02*
X32977500Y-137530151D01*
X34022500Y-137055635D02*
X34022500Y-137530151D01*
%TO.C,U4*%
X41079000Y-149081393D02*
X39129000Y-149081393D01*
X41079000Y-138961393D02*
X43029000Y-138961393D01*
X41079000Y-149081393D02*
X44529000Y-149081393D01*
X41079000Y-138961393D02*
X39129000Y-138961393D01*
%TO.C,C9*%
X36910000Y-139226586D02*
X36910000Y-138945426D01*
X35890000Y-139226586D02*
X35890000Y-138945426D01*
%TO.C,U2*%
X37343560Y-109885833D02*
X35528560Y-109885833D01*
X41203560Y-109650833D02*
X45063560Y-109650833D01*
X45063560Y-122670833D02*
X45063560Y-122435833D01*
X41203560Y-122670833D02*
X37343560Y-122670833D01*
X45063560Y-109650833D02*
X45063560Y-109885833D01*
X41203560Y-122670833D02*
X45063560Y-122670833D01*
X41203560Y-109650833D02*
X37343560Y-109650833D01*
X37343560Y-109650833D02*
X37343560Y-109885833D01*
X37343560Y-122670833D02*
X37343560Y-122435833D01*
%TD*%
%LPC*%
D13*
%TO.C,RN2*%
X34000000Y-101889393D03*
D14*
X34000000Y-102689393D03*
X34000000Y-103489393D03*
D13*
X34000000Y-104289393D03*
X35800000Y-104289393D03*
D14*
X35800000Y-103489393D03*
X35800000Y-102689393D03*
D13*
X35800000Y-101889393D03*
%TD*%
D15*
%TO.C,U3*%
X36303560Y-125116833D03*
X36303560Y-126386833D03*
X36303560Y-127656833D03*
X36303560Y-128926833D03*
X36303560Y-130196833D03*
X36303560Y-131466833D03*
X36303560Y-132736833D03*
X36303560Y-134006833D03*
X36303560Y-135276833D03*
X36303560Y-136546833D03*
X45603560Y-136546833D03*
X45603560Y-135276833D03*
X45603560Y-134006833D03*
X45603560Y-132736833D03*
X45603560Y-131466833D03*
X45603560Y-130196833D03*
X45603560Y-128926833D03*
X45603560Y-127656833D03*
X45603560Y-126386833D03*
X45603560Y-125116833D03*
%TD*%
D16*
%TO.C,H1*%
X24000000Y-99992893D03*
%TD*%
D13*
%TO.C,RN3*%
X45700000Y-140992893D03*
D14*
X45700000Y-141792893D03*
X45700000Y-142592893D03*
D13*
X45700000Y-143392893D03*
X47500000Y-143392893D03*
D14*
X47500000Y-142592893D03*
X47500000Y-141792893D03*
D13*
X47500000Y-140992893D03*
%TD*%
%TO.C,RN1*%
X33700000Y-143833393D03*
D14*
X33700000Y-144633393D03*
X33700000Y-145433393D03*
D13*
X33700000Y-146233393D03*
X35500000Y-146233393D03*
D14*
X35500000Y-145433393D03*
X35500000Y-144633393D03*
D13*
X35500000Y-143833393D03*
%TD*%
D17*
%TO.C,C11*%
X47800000Y-125167893D03*
X47800000Y-123617893D03*
%TD*%
D18*
%TO.C,C10*%
X36544000Y-107009393D03*
X36544000Y-108559393D03*
%TD*%
D13*
%TO.C,RN4*%
X47800000Y-102292893D03*
D14*
X47800000Y-101492893D03*
X47800000Y-100692893D03*
D13*
X47800000Y-99892893D03*
X46000000Y-99892893D03*
D14*
X46000000Y-100692893D03*
X46000000Y-101492893D03*
D13*
X46000000Y-102292893D03*
%TD*%
D19*
%TO.C,C12*%
X45650000Y-107739393D03*
X47200000Y-107739393D03*
%TD*%
D20*
%TO.C,U5*%
X43654000Y-107739393D03*
X43654000Y-106469393D03*
X43654000Y-105199393D03*
X43654000Y-103929393D03*
X43654000Y-102659393D03*
X43654000Y-101389393D03*
X43654000Y-100119393D03*
X43654000Y-98849393D03*
X38504000Y-98849393D03*
X38504000Y-100119393D03*
X38504000Y-101389393D03*
X38504000Y-102659393D03*
X38504000Y-103929393D03*
X38504000Y-105199393D03*
X38504000Y-106469393D03*
X38504000Y-107739393D03*
%TD*%
D16*
%TO.C,H2*%
X24000000Y-168992893D03*
%TD*%
D21*
%TO.C,J6*%
X27410331Y-158057893D03*
X27410331Y-110957893D03*
D22*
X28830331Y-117887893D03*
D23*
X28830331Y-120657893D03*
X28830331Y-123427893D03*
X28830331Y-126197893D03*
X28830331Y-128967893D03*
X28830331Y-131737893D03*
X28830331Y-134507893D03*
X28830331Y-137277893D03*
X28830331Y-140047893D03*
X28830331Y-142817893D03*
X28830331Y-145587893D03*
X28830331Y-148357893D03*
X28830331Y-151127893D03*
X25990331Y-119272893D03*
X25990331Y-122042893D03*
X25990331Y-124812893D03*
X25990331Y-127582893D03*
X25990331Y-130352893D03*
X25990331Y-133122893D03*
X25990331Y-135892893D03*
X25990331Y-138662893D03*
X25990331Y-141432893D03*
X25990331Y-144202893D03*
X25990331Y-146972893D03*
X25990331Y-149742893D03*
%TD*%
D24*
%TO.C,R13*%
X33500000Y-136467893D03*
X33500000Y-138117893D03*
%TD*%
D20*
%TO.C,U4*%
X43654000Y-148466393D03*
X43654000Y-147196393D03*
X43654000Y-145926393D03*
X43654000Y-144656393D03*
X43654000Y-143386393D03*
X43654000Y-142116393D03*
X43654000Y-140846393D03*
X43654000Y-139576393D03*
X38504000Y-139576393D03*
X38504000Y-140846393D03*
X38504000Y-142116393D03*
X38504000Y-143386393D03*
X38504000Y-144656393D03*
X38504000Y-145926393D03*
X38504000Y-147196393D03*
X38504000Y-148466393D03*
%TD*%
D17*
%TO.C,C9*%
X36400000Y-139861006D03*
X36400000Y-138311006D03*
%TD*%
D15*
%TO.C,U2*%
X36553560Y-110445833D03*
X36553560Y-111715833D03*
X36553560Y-112985833D03*
X36553560Y-114255833D03*
X36553560Y-115525833D03*
X36553560Y-116795833D03*
X36553560Y-118065833D03*
X36553560Y-119335833D03*
X36553560Y-120605833D03*
X36553560Y-121875833D03*
X45853560Y-121875833D03*
X45853560Y-120605833D03*
X45853560Y-119335833D03*
X45853560Y-118065833D03*
X45853560Y-116795833D03*
X45853560Y-115525833D03*
X45853560Y-114255833D03*
X45853560Y-112985833D03*
X45853560Y-111715833D03*
X45853560Y-110445833D03*
%TD*%
D25*
%TO.C,J1*%
X50063000Y-154417000D03*
D26*
X50063000Y-151877000D03*
X50063000Y-149337000D03*
X50063000Y-146797000D03*
X50063000Y-144257000D03*
X50063000Y-141717000D03*
X50063000Y-139177000D03*
X50063000Y-136637000D03*
X50063000Y-134097000D03*
X50063000Y-131557000D03*
X50063000Y-129017000D03*
X50063000Y-126477000D03*
X50063000Y-123937000D03*
X50063000Y-121397000D03*
X50063000Y-118857000D03*
X50063000Y-116317000D03*
X50063000Y-113777000D03*
X50063000Y-111237000D03*
X50063000Y-108697000D03*
X50063000Y-106157000D03*
X50063000Y-103617000D03*
X50063000Y-101077000D03*
X50063000Y-98537000D03*
%TD*%
M02*
