%TF.GenerationSoftware,KiCad,Pcbnew,(6.0.11-0)*%
%TF.CreationDate,2023-05-17T23:02:26+12:00*%
%TF.ProjectId,controller-upper-cut,636f6e74-726f-46c6-9c65-722d75707065,3.2*%
%TF.SameCoordinates,PX1c9c380PY1312d00*%
%TF.FileFunction,Soldermask,Bot*%
%TF.FilePolarity,Negative*%
%FSLAX46Y46*%
G04 Gerber Fmt 4.6, Leading zero omitted, Abs format (unit mm)*
G04 Created by KiCad (PCBNEW (6.0.11-0)) date 2023-05-17 23:02:26*
%MOMM*%
%LPD*%
G01*
G04 APERTURE LIST*
%ADD10C,5.500000*%
%ADD11C,4.000000*%
%ADD12R,1.600000X1.600000*%
%ADD13C,1.600000*%
%ADD14R,1.700000X1.700000*%
%ADD15O,1.700000X1.700000*%
G04 APERTURE END LIST*
D10*
%TO.C,H1*%
X24000000Y-99992893D03*
%TD*%
%TO.C,H2*%
X24000000Y-168992893D03*
%TD*%
D11*
%TO.C,J6*%
X27410331Y-158057893D03*
X27410331Y-110957893D03*
D12*
X28830331Y-117887893D03*
D13*
X28830331Y-120657893D03*
X28830331Y-123427893D03*
X28830331Y-126197893D03*
X28830331Y-128967893D03*
X28830331Y-131737893D03*
X28830331Y-134507893D03*
X28830331Y-137277893D03*
X28830331Y-140047893D03*
X28830331Y-142817893D03*
X28830331Y-145587893D03*
X28830331Y-148357893D03*
X28830331Y-151127893D03*
X25990331Y-119272893D03*
X25990331Y-122042893D03*
X25990331Y-124812893D03*
X25990331Y-127582893D03*
X25990331Y-130352893D03*
X25990331Y-133122893D03*
X25990331Y-135892893D03*
X25990331Y-138662893D03*
X25990331Y-141432893D03*
X25990331Y-144202893D03*
X25990331Y-146972893D03*
X25990331Y-149742893D03*
%TD*%
D14*
%TO.C,J1*%
X50063000Y-154417000D03*
D15*
X50063000Y-151877000D03*
X50063000Y-149337000D03*
X50063000Y-146797000D03*
X50063000Y-144257000D03*
X50063000Y-141717000D03*
X50063000Y-139177000D03*
X50063000Y-136637000D03*
X50063000Y-134097000D03*
X50063000Y-131557000D03*
X50063000Y-129017000D03*
X50063000Y-126477000D03*
X50063000Y-123937000D03*
X50063000Y-121397000D03*
X50063000Y-118857000D03*
X50063000Y-116317000D03*
X50063000Y-113777000D03*
X50063000Y-111237000D03*
X50063000Y-108697000D03*
X50063000Y-106157000D03*
X50063000Y-103617000D03*
X50063000Y-101077000D03*
X50063000Y-98537000D03*
%TD*%
M02*
