%TF.GenerationSoftware,KiCad,Pcbnew,(6.0.11-0)*%
%TF.CreationDate,2023-05-17T23:02:26+12:00*%
%TF.ProjectId,controller-upper-cut,636f6e74-726f-46c6-9c65-722d75707065,3.2*%
%TF.SameCoordinates,PX1c9c380PY1312d00*%
%TF.FileFunction,AssemblyDrawing,Top*%
%FSLAX46Y46*%
G04 Gerber Fmt 4.6, Leading zero omitted, Abs format (unit mm)*
G04 Created by KiCad (PCBNEW (6.0.11-0)) date 2023-05-17 23:02:26*
%MOMM*%
%LPD*%
G01*
G04 APERTURE LIST*
%ADD10C,0.080000*%
%ADD11C,0.150000*%
%ADD12C,0.060000*%
%ADD13C,0.100000*%
G04 APERTURE END LIST*
D10*
%TO.C,RN2*%
X35126190Y-103434631D02*
X34888095Y-103601297D01*
X35126190Y-103720345D02*
X34626190Y-103720345D01*
X34626190Y-103529869D01*
X34650000Y-103482250D01*
X34673809Y-103458440D01*
X34721428Y-103434631D01*
X34792857Y-103434631D01*
X34840476Y-103458440D01*
X34864285Y-103482250D01*
X34888095Y-103529869D01*
X34888095Y-103720345D01*
X35126190Y-103220345D02*
X34626190Y-103220345D01*
X35126190Y-102934631D01*
X34626190Y-102934631D01*
X34673809Y-102720345D02*
X34650000Y-102696535D01*
X34626190Y-102648916D01*
X34626190Y-102529869D01*
X34650000Y-102482250D01*
X34673809Y-102458440D01*
X34721428Y-102434631D01*
X34769047Y-102434631D01*
X34840476Y-102458440D01*
X35126190Y-102744154D01*
X35126190Y-102434631D01*
%TO.C,U3*%
X40193630Y-131391785D02*
X40598392Y-131391785D01*
X40646011Y-131367975D01*
X40669820Y-131344166D01*
X40693630Y-131296547D01*
X40693630Y-131201309D01*
X40669820Y-131153690D01*
X40646011Y-131129880D01*
X40598392Y-131106071D01*
X40193630Y-131106071D01*
X40193630Y-130915594D02*
X40193630Y-130606071D01*
X40384106Y-130772737D01*
X40384106Y-130701309D01*
X40407916Y-130653690D01*
X40431725Y-130629880D01*
X40479344Y-130606071D01*
X40598392Y-130606071D01*
X40646011Y-130629880D01*
X40669820Y-130653690D01*
X40693630Y-130701309D01*
X40693630Y-130844166D01*
X40669820Y-130891785D01*
X40646011Y-130915594D01*
D11*
%TO.C,H1*%
X23238095Y-100445273D02*
X23238095Y-99445273D01*
X23238095Y-99921464D02*
X23809523Y-99921464D01*
X23809523Y-100445273D02*
X23809523Y-99445273D01*
X24809523Y-100445273D02*
X24238095Y-100445273D01*
X24523809Y-100445273D02*
X24523809Y-99445273D01*
X24428571Y-99588131D01*
X24333333Y-99683369D01*
X24238095Y-99730988D01*
D10*
%TO.C,RN3*%
X46912190Y-142526131D02*
X46674095Y-142692797D01*
X46912190Y-142811845D02*
X46412190Y-142811845D01*
X46412190Y-142621369D01*
X46436000Y-142573750D01*
X46459809Y-142549940D01*
X46507428Y-142526131D01*
X46578857Y-142526131D01*
X46626476Y-142549940D01*
X46650285Y-142573750D01*
X46674095Y-142621369D01*
X46674095Y-142811845D01*
X46912190Y-142311845D02*
X46412190Y-142311845D01*
X46912190Y-142026131D01*
X46412190Y-142026131D01*
X46412190Y-141835654D02*
X46412190Y-141526131D01*
X46602666Y-141692797D01*
X46602666Y-141621369D01*
X46626476Y-141573750D01*
X46650285Y-141549940D01*
X46697904Y-141526131D01*
X46816952Y-141526131D01*
X46864571Y-141549940D01*
X46888380Y-141573750D01*
X46912190Y-141621369D01*
X46912190Y-141764226D01*
X46888380Y-141811845D01*
X46864571Y-141835654D01*
%TO.C,RN1*%
X34716190Y-145378631D02*
X34478095Y-145545297D01*
X34716190Y-145664345D02*
X34216190Y-145664345D01*
X34216190Y-145473869D01*
X34240000Y-145426250D01*
X34263809Y-145402440D01*
X34311428Y-145378631D01*
X34382857Y-145378631D01*
X34430476Y-145402440D01*
X34454285Y-145426250D01*
X34478095Y-145473869D01*
X34478095Y-145664345D01*
X34716190Y-145164345D02*
X34216190Y-145164345D01*
X34716190Y-144878631D01*
X34216190Y-144878631D01*
X34716190Y-144378631D02*
X34716190Y-144664345D01*
X34716190Y-144521488D02*
X34216190Y-144521488D01*
X34287619Y-144569107D01*
X34335238Y-144616726D01*
X34359047Y-144664345D01*
%TO.C,C11*%
X47978571Y-124714321D02*
X48002380Y-124738131D01*
X48026190Y-124809559D01*
X48026190Y-124857178D01*
X48002380Y-124928607D01*
X47954761Y-124976226D01*
X47907142Y-125000035D01*
X47811904Y-125023845D01*
X47740476Y-125023845D01*
X47645238Y-125000035D01*
X47597619Y-124976226D01*
X47550000Y-124928607D01*
X47526190Y-124857178D01*
X47526190Y-124809559D01*
X47550000Y-124738131D01*
X47573809Y-124714321D01*
X48026190Y-124238131D02*
X48026190Y-124523845D01*
X48026190Y-124380988D02*
X47526190Y-124380988D01*
X47597619Y-124428607D01*
X47645238Y-124476226D01*
X47669047Y-124523845D01*
X48026190Y-123761940D02*
X48026190Y-124047654D01*
X48026190Y-123904797D02*
X47526190Y-123904797D01*
X47597619Y-123952416D01*
X47645238Y-124000035D01*
X47669047Y-124047654D01*
%TO.C,C10*%
X36722571Y-108105821D02*
X36746380Y-108129631D01*
X36770190Y-108201059D01*
X36770190Y-108248678D01*
X36746380Y-108320107D01*
X36698761Y-108367726D01*
X36651142Y-108391535D01*
X36555904Y-108415345D01*
X36484476Y-108415345D01*
X36389238Y-108391535D01*
X36341619Y-108367726D01*
X36294000Y-108320107D01*
X36270190Y-108248678D01*
X36270190Y-108201059D01*
X36294000Y-108129631D01*
X36317809Y-108105821D01*
X36770190Y-107629631D02*
X36770190Y-107915345D01*
X36770190Y-107772488D02*
X36270190Y-107772488D01*
X36341619Y-107820107D01*
X36389238Y-107867726D01*
X36413047Y-107915345D01*
X36270190Y-107320107D02*
X36270190Y-107272488D01*
X36294000Y-107224869D01*
X36317809Y-107201059D01*
X36365428Y-107177250D01*
X36460666Y-107153440D01*
X36579714Y-107153440D01*
X36674952Y-107177250D01*
X36722571Y-107201059D01*
X36746380Y-107224869D01*
X36770190Y-107272488D01*
X36770190Y-107320107D01*
X36746380Y-107367726D01*
X36722571Y-107391535D01*
X36674952Y-107415345D01*
X36579714Y-107439154D01*
X36460666Y-107439154D01*
X36365428Y-107415345D01*
X36317809Y-107391535D01*
X36294000Y-107367726D01*
X36270190Y-107320107D01*
%TO.C,RN4*%
X47126190Y-101438131D02*
X46888095Y-101604797D01*
X47126190Y-101723845D02*
X46626190Y-101723845D01*
X46626190Y-101533369D01*
X46650000Y-101485750D01*
X46673809Y-101461940D01*
X46721428Y-101438131D01*
X46792857Y-101438131D01*
X46840476Y-101461940D01*
X46864285Y-101485750D01*
X46888095Y-101533369D01*
X46888095Y-101723845D01*
X47126190Y-101223845D02*
X46626190Y-101223845D01*
X47126190Y-100938131D01*
X46626190Y-100938131D01*
X46792857Y-100485750D02*
X47126190Y-100485750D01*
X46602380Y-100604797D02*
X46959523Y-100723845D01*
X46959523Y-100414321D01*
%TO.C,C12*%
X46103571Y-107917964D02*
X46079761Y-107941773D01*
X46008333Y-107965583D01*
X45960714Y-107965583D01*
X45889285Y-107941773D01*
X45841666Y-107894154D01*
X45817857Y-107846535D01*
X45794047Y-107751297D01*
X45794047Y-107679869D01*
X45817857Y-107584631D01*
X45841666Y-107537012D01*
X45889285Y-107489393D01*
X45960714Y-107465583D01*
X46008333Y-107465583D01*
X46079761Y-107489393D01*
X46103571Y-107513202D01*
X46579761Y-107965583D02*
X46294047Y-107965583D01*
X46436904Y-107965583D02*
X46436904Y-107465583D01*
X46389285Y-107537012D01*
X46341666Y-107584631D01*
X46294047Y-107608440D01*
X46770238Y-107513202D02*
X46794047Y-107489393D01*
X46841666Y-107465583D01*
X46960714Y-107465583D01*
X47008333Y-107489393D01*
X47032142Y-107513202D01*
X47055952Y-107560821D01*
X47055952Y-107608440D01*
X47032142Y-107679869D01*
X46746428Y-107965583D01*
X47055952Y-107965583D01*
%TO.C,U5*%
X40201190Y-103720345D02*
X40605952Y-103720345D01*
X40653571Y-103696535D01*
X40677380Y-103672726D01*
X40701190Y-103625107D01*
X40701190Y-103529869D01*
X40677380Y-103482250D01*
X40653571Y-103458440D01*
X40605952Y-103434631D01*
X40201190Y-103434631D01*
X40201190Y-102958440D02*
X40201190Y-103196535D01*
X40439285Y-103220345D01*
X40415476Y-103196535D01*
X40391666Y-103148916D01*
X40391666Y-103029869D01*
X40415476Y-102982250D01*
X40439285Y-102958440D01*
X40486904Y-102934631D01*
X40605952Y-102934631D01*
X40653571Y-102958440D01*
X40677380Y-102982250D01*
X40701190Y-103029869D01*
X40701190Y-103148916D01*
X40677380Y-103196535D01*
X40653571Y-103220345D01*
D11*
%TO.C,H2*%
X23238095Y-169445273D02*
X23238095Y-168445273D01*
X23238095Y-168921464D02*
X23809523Y-168921464D01*
X23809523Y-169445273D02*
X23809523Y-168445273D01*
X24238095Y-168540512D02*
X24285714Y-168492893D01*
X24380952Y-168445273D01*
X24619047Y-168445273D01*
X24714285Y-168492893D01*
X24761904Y-168540512D01*
X24809523Y-168635750D01*
X24809523Y-168730988D01*
X24761904Y-168873845D01*
X24190476Y-169445273D01*
X24809523Y-169445273D01*
D10*
%TO.C,J6*%
X14616521Y-134674559D02*
X14973664Y-134674559D01*
X15045092Y-134698369D01*
X15092711Y-134745988D01*
X15116521Y-134817416D01*
X15116521Y-134865035D01*
X14616521Y-134222178D02*
X14616521Y-134317416D01*
X14640331Y-134365035D01*
X14664140Y-134388845D01*
X14735569Y-134436464D01*
X14830807Y-134460273D01*
X15021283Y-134460273D01*
X15068902Y-134436464D01*
X15092711Y-134412654D01*
X15116521Y-134365035D01*
X15116521Y-134269797D01*
X15092711Y-134222178D01*
X15068902Y-134198369D01*
X15021283Y-134174559D01*
X14902235Y-134174559D01*
X14854616Y-134198369D01*
X14830807Y-134222178D01*
X14806997Y-134269797D01*
X14806997Y-134365035D01*
X14830807Y-134412654D01*
X14854616Y-134436464D01*
X14902235Y-134460273D01*
D12*
%TO.C,R13*%
X33680952Y-137550035D02*
X33490476Y-137683369D01*
X33680952Y-137778607D02*
X33280952Y-137778607D01*
X33280952Y-137626226D01*
X33300000Y-137588131D01*
X33319047Y-137569083D01*
X33357142Y-137550035D01*
X33414285Y-137550035D01*
X33452380Y-137569083D01*
X33471428Y-137588131D01*
X33490476Y-137626226D01*
X33490476Y-137778607D01*
X33680952Y-137169083D02*
X33680952Y-137397654D01*
X33680952Y-137283369D02*
X33280952Y-137283369D01*
X33338095Y-137321464D01*
X33376190Y-137359559D01*
X33395238Y-137397654D01*
X33280952Y-137035750D02*
X33280952Y-136788131D01*
X33433333Y-136921464D01*
X33433333Y-136864321D01*
X33452380Y-136826226D01*
X33471428Y-136807178D01*
X33509523Y-136788131D01*
X33604761Y-136788131D01*
X33642857Y-136807178D01*
X33661904Y-136826226D01*
X33680952Y-136864321D01*
X33680952Y-136978607D01*
X33661904Y-137016702D01*
X33642857Y-137035750D01*
D10*
%TO.C,U4*%
X40129190Y-144154345D02*
X40533952Y-144154345D01*
X40581571Y-144130535D01*
X40605380Y-144106726D01*
X40629190Y-144059107D01*
X40629190Y-143963869D01*
X40605380Y-143916250D01*
X40581571Y-143892440D01*
X40533952Y-143868631D01*
X40129190Y-143868631D01*
X40295857Y-143416250D02*
X40629190Y-143416250D01*
X40105380Y-143535297D02*
X40462523Y-143654345D01*
X40462523Y-143344821D01*
%TO.C,C9*%
X36578571Y-139169339D02*
X36602380Y-139193148D01*
X36626190Y-139264577D01*
X36626190Y-139312196D01*
X36602380Y-139383625D01*
X36554761Y-139431244D01*
X36507142Y-139455053D01*
X36411904Y-139478863D01*
X36340476Y-139478863D01*
X36245238Y-139455053D01*
X36197619Y-139431244D01*
X36150000Y-139383625D01*
X36126190Y-139312196D01*
X36126190Y-139264577D01*
X36150000Y-139193148D01*
X36173809Y-139169339D01*
X36626190Y-138931244D02*
X36626190Y-138836006D01*
X36602380Y-138788386D01*
X36578571Y-138764577D01*
X36507142Y-138716958D01*
X36411904Y-138693148D01*
X36221428Y-138693148D01*
X36173809Y-138716958D01*
X36150000Y-138740767D01*
X36126190Y-138788386D01*
X36126190Y-138883625D01*
X36150000Y-138931244D01*
X36173809Y-138955053D01*
X36221428Y-138978863D01*
X36340476Y-138978863D01*
X36388095Y-138955053D01*
X36411904Y-138931244D01*
X36435714Y-138883625D01*
X36435714Y-138788386D01*
X36411904Y-138740767D01*
X36388095Y-138716958D01*
X36340476Y-138693148D01*
%TO.C,U2*%
X40322630Y-116491785D02*
X40727392Y-116491785D01*
X40775011Y-116467975D01*
X40798820Y-116444166D01*
X40822630Y-116396547D01*
X40822630Y-116301309D01*
X40798820Y-116253690D01*
X40775011Y-116229880D01*
X40727392Y-116206071D01*
X40322630Y-116206071D01*
X40370249Y-115991785D02*
X40346440Y-115967975D01*
X40322630Y-115920356D01*
X40322630Y-115801309D01*
X40346440Y-115753690D01*
X40370249Y-115729880D01*
X40417868Y-115706071D01*
X40465487Y-115706071D01*
X40536916Y-115729880D01*
X40822630Y-116015594D01*
X40822630Y-115706071D01*
D13*
%TO.C,RN2*%
X34100000Y-101489393D02*
X35700000Y-101489393D01*
X35700000Y-101489393D02*
X35700000Y-104689393D01*
X34100000Y-104689393D02*
X34100000Y-101489393D01*
X35700000Y-104689393D02*
X34100000Y-104689393D01*
%TO.C,U3*%
X38203560Y-124431833D02*
X44703560Y-124431833D01*
X37203560Y-125431833D02*
X38203560Y-124431833D01*
X44703560Y-124431833D02*
X44703560Y-137231833D01*
X37203560Y-137231833D02*
X37203560Y-125431833D01*
X44703560Y-137231833D02*
X37203560Y-137231833D01*
%TO.C,RN3*%
X45800000Y-143792893D02*
X45800000Y-140592893D01*
X47400000Y-143792893D02*
X45800000Y-143792893D01*
X47400000Y-140592893D02*
X47400000Y-143792893D01*
X45800000Y-140592893D02*
X47400000Y-140592893D01*
%TO.C,RN1*%
X33800000Y-143433393D02*
X35400000Y-143433393D01*
X35400000Y-146633393D02*
X33800000Y-146633393D01*
X35400000Y-143433393D02*
X35400000Y-146633393D01*
X33800000Y-146633393D02*
X33800000Y-143433393D01*
%TO.C,C11*%
X47400000Y-123592893D02*
X48200000Y-123592893D01*
X48200000Y-125192893D02*
X47400000Y-125192893D01*
X47400000Y-125192893D02*
X47400000Y-123592893D01*
X48200000Y-123592893D02*
X48200000Y-125192893D01*
%TO.C,C10*%
X36144000Y-108584393D02*
X36144000Y-106984393D01*
X36944000Y-106984393D02*
X36944000Y-108584393D01*
X36144000Y-106984393D02*
X36944000Y-106984393D01*
X36944000Y-108584393D02*
X36144000Y-108584393D01*
%TO.C,RN4*%
X47700000Y-102692893D02*
X46100000Y-102692893D01*
X46100000Y-99492893D02*
X47700000Y-99492893D01*
X47700000Y-99492893D02*
X47700000Y-102692893D01*
X46100000Y-102692893D02*
X46100000Y-99492893D01*
%TO.C,C12*%
X45625000Y-107339393D02*
X47225000Y-107339393D01*
X47225000Y-107339393D02*
X47225000Y-108139393D01*
X45625000Y-108139393D02*
X45625000Y-107339393D01*
X47225000Y-108139393D02*
X45625000Y-108139393D01*
%TO.C,U5*%
X39129000Y-108244393D02*
X39129000Y-98344393D01*
X39129000Y-98344393D02*
X43029000Y-98344393D01*
X43029000Y-107269393D02*
X42054000Y-108244393D01*
X43029000Y-98344393D02*
X43029000Y-107269393D01*
X42054000Y-108244393D02*
X39129000Y-108244393D01*
%TO.C,J6*%
X30630331Y-107957893D02*
X18290331Y-107957893D01*
X18290331Y-161057893D02*
X30630331Y-161057893D01*
X11890331Y-115357893D02*
X11890331Y-153657893D01*
X18290331Y-161057893D02*
X18290331Y-107957893D01*
X17890331Y-115357893D02*
X11890331Y-115357893D01*
X17890331Y-161057893D02*
X18290331Y-161057893D01*
X12890331Y-155557893D02*
X12890331Y-160557893D01*
X12890331Y-108457893D02*
X12890331Y-113457893D01*
X17890331Y-153657893D02*
X17890331Y-115357893D01*
X17890331Y-107957893D02*
X17890331Y-161057893D01*
X18290331Y-156457893D02*
X27410331Y-156457893D01*
X11890331Y-153657893D02*
X17890331Y-153657893D01*
X18290331Y-109357893D02*
X27410331Y-109357893D01*
X18290331Y-107957893D02*
X17890331Y-107957893D01*
X30630331Y-161057893D02*
X30630331Y-107957893D01*
X17890331Y-113457893D02*
X17890331Y-108457893D01*
X17890331Y-108457893D02*
X12890331Y-108457893D01*
X18290331Y-107957893D02*
X18290331Y-161057893D01*
X17890331Y-155557893D02*
X12890331Y-155557893D01*
X18290331Y-159657893D02*
X27410331Y-159657893D01*
X12890331Y-113457893D02*
X17890331Y-113457893D01*
X17890331Y-160557893D02*
X17890331Y-155557893D01*
X12890331Y-160557893D02*
X17890331Y-160557893D01*
X18290331Y-112557893D02*
X27410331Y-112557893D01*
X27410331Y-159657893D02*
G75*
G03*
X27410331Y-156457893I0J1600000D01*
G01*
X27410331Y-112557893D02*
G75*
G03*
X27410331Y-109357893I0J1600000D01*
G01*
%TO.C,R13*%
X33912500Y-136492893D02*
X33912500Y-138092893D01*
X33912500Y-138092893D02*
X33087500Y-138092893D01*
X33087500Y-138092893D02*
X33087500Y-136492893D01*
X33087500Y-136492893D02*
X33912500Y-136492893D01*
%TO.C,U4*%
X39129000Y-139071393D02*
X43029000Y-139071393D01*
X43029000Y-147996393D02*
X42054000Y-148971393D01*
X43029000Y-139071393D02*
X43029000Y-147996393D01*
X39129000Y-148971393D02*
X39129000Y-139071393D01*
X42054000Y-148971393D02*
X39129000Y-148971393D01*
%TO.C,C9*%
X36000000Y-138286006D02*
X36800000Y-138286006D01*
X36800000Y-138286006D02*
X36800000Y-139886006D01*
X36800000Y-139886006D02*
X36000000Y-139886006D01*
X36000000Y-139886006D02*
X36000000Y-138286006D01*
%TO.C,U2*%
X44953560Y-122560833D02*
X37453560Y-122560833D01*
X38453560Y-109760833D02*
X44953560Y-109760833D01*
X37453560Y-122560833D02*
X37453560Y-110760833D01*
X44953560Y-109760833D02*
X44953560Y-122560833D01*
X37453560Y-110760833D02*
X38453560Y-109760833D01*
%TD*%
M02*
