%TF.GenerationSoftware,KiCad,Pcbnew,(6.0.11-0)*%
%TF.CreationDate,2023-05-17T23:02:26+12:00*%
%TF.ProjectId,controller-upper-cut,636f6e74-726f-46c6-9c65-722d75707065,3.2*%
%TF.SameCoordinates,PX1c9c380PY1312d00*%
%TF.FileFunction,Copper,L2,Bot*%
%TF.FilePolarity,Positive*%
%FSLAX46Y46*%
G04 Gerber Fmt 4.6, Leading zero omitted, Abs format (unit mm)*
G04 Created by KiCad (PCBNEW (6.0.11-0)) date 2023-05-17 23:02:26*
%MOMM*%
%LPD*%
G01*
G04 APERTURE LIST*
%TA.AperFunction,ComponentPad*%
%ADD10C,5.500000*%
%TD*%
%TA.AperFunction,ComponentPad*%
%ADD11C,4.000000*%
%TD*%
%TA.AperFunction,ComponentPad*%
%ADD12R,1.600000X1.600000*%
%TD*%
%TA.AperFunction,ComponentPad*%
%ADD13C,1.600000*%
%TD*%
%TA.AperFunction,ComponentPad*%
%ADD14R,1.700000X1.700000*%
%TD*%
%TA.AperFunction,ComponentPad*%
%ADD15O,1.700000X1.700000*%
%TD*%
%TA.AperFunction,ViaPad*%
%ADD16C,0.700000*%
%TD*%
%TA.AperFunction,Conductor*%
%ADD17C,0.300000*%
%TD*%
%TA.AperFunction,Conductor*%
%ADD18C,0.500000*%
%TD*%
G04 APERTURE END LIST*
D10*
%TO.P,H1,1,1*%
%TO.N,GND1*%
X24000000Y-99992893D03*
%TD*%
%TO.P,H2,1,1*%
%TO.N,GND1*%
X24000000Y-168992893D03*
%TD*%
D11*
%TO.P,J6,0,PAD*%
%TO.N,GND1*%
X27410331Y-158057893D03*
X27410331Y-110957893D03*
D12*
%TO.P,J6,1,1*%
%TO.N,/LPT Interface/P1_IN*%
X28830331Y-117887893D03*
D13*
%TO.P,J6,2,2*%
%TO.N,/LPT Interface/P2_IN*%
X28830331Y-120657893D03*
%TO.P,J6,3,3*%
%TO.N,/LPT Interface/P3_IN*%
X28830331Y-123427893D03*
%TO.P,J6,4,4*%
%TO.N,/LPT Interface/P4_IN*%
X28830331Y-126197893D03*
%TO.P,J6,5,5*%
%TO.N,/LPT Interface/P5_IN*%
X28830331Y-128967893D03*
%TO.P,J6,6,6*%
%TO.N,/LPT Interface/P6_IN*%
X28830331Y-131737893D03*
%TO.P,J6,7,7*%
%TO.N,/LPT Interface/P7_IN*%
X28830331Y-134507893D03*
%TO.P,J6,8,8*%
%TO.N,/LPT Interface/P8_IN*%
X28830331Y-137277893D03*
%TO.P,J6,9,9*%
%TO.N,/LPT Interface/P9_IN*%
X28830331Y-140047893D03*
%TO.P,J6,10,10*%
%TO.N,/LPT Interface/P10_OUT*%
X28830331Y-142817893D03*
%TO.P,J6,11,11*%
%TO.N,/LPT Interface/P11_OUT*%
X28830331Y-145587893D03*
%TO.P,J6,12,12*%
%TO.N,/LPT Interface/P12_OUT*%
X28830331Y-148357893D03*
%TO.P,J6,13,13*%
%TO.N,/LPT Interface/P13_OUT*%
X28830331Y-151127893D03*
%TO.P,J6,14,P14*%
%TO.N,/LPT Interface/P14_IN*%
X25990331Y-119272893D03*
%TO.P,J6,15,P15*%
%TO.N,/LPT Interface/P15_OUT*%
X25990331Y-122042893D03*
%TO.P,J6,16,P16*%
%TO.N,/LPT Interface/P16_IN*%
X25990331Y-124812893D03*
%TO.P,J6,17,P17*%
%TO.N,/LPT Interface/P17_IN*%
X25990331Y-127582893D03*
%TO.P,J6,18,P18*%
%TO.N,GND1*%
X25990331Y-130352893D03*
%TO.P,J6,19,P19*%
X25990331Y-133122893D03*
%TO.P,J6,20,P20*%
X25990331Y-135892893D03*
%TO.P,J6,21,P21*%
X25990331Y-138662893D03*
%TO.P,J6,22,P22*%
X25990331Y-141432893D03*
%TO.P,J6,23,P23*%
X25990331Y-144202893D03*
%TO.P,J6,24,P24*%
X25990331Y-146972893D03*
%TO.P,J6,25,P25*%
X25990331Y-149742893D03*
%TD*%
D14*
%TO.P,J1,1,Pin_1*%
%TO.N,GND1*%
X50063000Y-154417000D03*
D15*
%TO.P,J1,2,Pin_2*%
%TO.N,+5VA*%
X50063000Y-151877000D03*
%TO.P,J1,3,Pin_3*%
%TO.N,/HOLD_IN*%
X50063000Y-149337000D03*
%TO.P,J1,4,Pin_4*%
%TO.N,/LPT Interface/nCE_IN*%
X50063000Y-146797000D03*
%TO.P,J1,5,Pin_5*%
%TO.N,/LPT Interface/P1_OUT*%
X50063000Y-144257000D03*
%TO.P,J1,6,Pin_6*%
%TO.N,/LPT Interface/P13_IN*%
X50063000Y-141717000D03*
%TO.P,J1,7,Pin_7*%
%TO.N,/LPT Interface/P12_IN*%
X50063000Y-139177000D03*
%TO.P,J1,8,Pin_8*%
%TO.N,/LPT Interface/P11_IN*%
X50063000Y-136637000D03*
%TO.P,J1,9,Pin_9*%
%TO.N,/LPT Interface/P10_IN*%
X50063000Y-134097000D03*
%TO.P,J1,10,Pin_10*%
%TO.N,/LPT Interface/P9_OUT*%
X50063000Y-131557000D03*
%TO.P,J1,11,Pin_11*%
%TO.N,/LPT Interface/P8_OUT*%
X50063000Y-129017000D03*
%TO.P,J1,12,Pin_12*%
%TO.N,/LPT Interface/P17_OUT*%
X50063000Y-126477000D03*
%TO.P,J1,13,Pin_13*%
%TO.N,/LPT Interface/P16_OUT*%
X50063000Y-123937000D03*
%TO.P,J1,14,Pin_14*%
%TO.N,/LPT Interface/P14_OUT*%
X50063000Y-121397000D03*
%TO.P,J1,15,Pin_15*%
%TO.N,/LPT Interface/P7_OUT*%
X50063000Y-118857000D03*
%TO.P,J1,16,Pin_16*%
%TO.N,/LPT Interface/P6_OUT*%
X50063000Y-116317000D03*
%TO.P,J1,17,Pin_17*%
%TO.N,/LPT Interface/P5_OUT*%
X50063000Y-113777000D03*
%TO.P,J1,18,Pin_18*%
%TO.N,/LPT Interface/P4_OUT*%
X50063000Y-111237000D03*
%TO.P,J1,19,Pin_19*%
%TO.N,/LPT Interface/P3_OUT*%
X50063000Y-108697000D03*
%TO.P,J1,20,Pin_20*%
%TO.N,/LPT Interface/P2_OUT*%
X50063000Y-106157000D03*
%TO.P,J1,21,Pin_21*%
%TO.N,/LPT Interface/P15_IN*%
X50063000Y-103617000D03*
%TO.P,J1,22,Pin_22*%
%TO.N,+5VA*%
X50063000Y-101077000D03*
%TO.P,J1,23,Pin_23*%
%TO.N,GND2*%
X50063000Y-98537000D03*
%TD*%
D16*
%TO.N,/LPT Interface/P9_IN*%
X32700000Y-139992893D03*
X33400000Y-130192893D03*
%TO.N,/LPT Interface/P14_IN*%
X34200000Y-119292893D03*
%TO.N,/LPT Interface/P16_IN*%
X34300000Y-131192893D03*
%TO.N,/LPT Interface/P17_IN*%
X31817648Y-128327226D03*
%TO.N,/LPT Interface/P1_OUT*%
X46800500Y-137692893D03*
X47400500Y-144392893D03*
%TO.N,/LPT Interface/nCE_IN*%
X44200000Y-124092893D03*
X44200000Y-125916333D03*
%TO.N,/LPT Interface/P8_IN*%
X32300000Y-137500000D03*
X32700000Y-129092893D03*
%TO.N,/LPT Interface/P1_IN*%
X27100000Y-134492893D03*
X27200000Y-120592893D03*
%TO.N,GND1*%
X45000000Y-172092893D03*
X36000000Y-142800000D03*
X20900000Y-125992893D03*
X32600000Y-143900000D03*
X37900000Y-161592893D03*
X36100000Y-100392893D03*
X33600000Y-121792893D03*
X46500000Y-145692893D03*
X27700000Y-121992893D03*
X34500000Y-111092893D03*
X45500000Y-106392893D03*
X47400000Y-121292893D03*
X36000000Y-141000000D03*
X36900000Y-146992893D03*
X31800000Y-138700000D03*
X46800000Y-109492893D03*
X30300000Y-135600000D03*
X36800000Y-96892893D03*
X20900000Y-142792893D03*
X45500000Y-150200000D03*
X51275000Y-161692893D03*
X34600000Y-126700000D03*
X51000000Y-135292893D03*
X49000000Y-122592893D03*
X31600000Y-129400000D03*
X47100000Y-106392893D03*
X27100000Y-118092893D03*
X45500000Y-147992893D03*
X34600000Y-132300000D03*
X34600000Y-134500000D03*
X30000000Y-172092893D03*
X47100000Y-104392893D03*
X45200000Y-124192893D03*
X45500000Y-104792893D03*
X51100000Y-172092893D03*
X35100000Y-121892893D03*
X51275000Y-130292893D03*
X47244000Y-148392893D03*
X51275000Y-140392893D03*
X29700000Y-115892893D03*
X46500000Y-123292893D03*
X34100000Y-141700000D03*
X32600000Y-147492893D03*
X35200000Y-109492893D03*
X34975000Y-138117893D03*
X30100000Y-144700000D03*
X20900000Y-158592893D03*
X32600000Y-149800000D03*
X36900000Y-105192893D03*
X47100000Y-130692893D03*
X30100000Y-147492893D03*
X51275000Y-109892893D03*
X51275000Y-120092893D03*
X45000000Y-161692893D03*
X20900000Y-110992893D03*
X31900000Y-126700000D03*
X31900000Y-135600000D03*
X34565410Y-136038166D03*
X33500000Y-139300000D03*
X30100000Y-150100000D03*
X37900000Y-172092893D03*
X47300000Y-126292893D03*
X30100000Y-141300000D03*
X37900000Y-150900000D03*
%TO.N,+5VA*%
X35200000Y-139900000D03*
X33700000Y-147000000D03*
%TO.N,GND2*%
X38125000Y-109467893D03*
X38500000Y-139996893D03*
X38100000Y-126092893D03*
X40050000Y-111342893D03*
X40000000Y-141800000D03*
X38000000Y-124092893D03*
X40200000Y-148092893D03*
X41000000Y-139700000D03*
X41200000Y-141800000D03*
X40100000Y-132992893D03*
X41200000Y-149600000D03*
X40100000Y-124092893D03*
X38100000Y-96892893D03*
X40050000Y-109467893D03*
X43800000Y-111392893D03*
X40100000Y-105517893D03*
X42675000Y-126092893D03*
X40100000Y-126092893D03*
X39825000Y-107739393D03*
X42700000Y-138000000D03*
X38500000Y-149592893D03*
X38150000Y-111367893D03*
X44300000Y-138592893D03*
X46900000Y-99292893D03*
X45000000Y-96892893D03*
X42700000Y-149600000D03*
X45000000Y-101992893D03*
X40240000Y-98849393D03*
X40200000Y-146192893D03*
X44350000Y-109092893D03*
X40100000Y-101092893D03*
X42000000Y-104192893D03*
X42025000Y-111367893D03*
X42000000Y-109092893D03*
X44300000Y-149592893D03*
X42675000Y-124142893D03*
X41200000Y-145400000D03*
%TD*%
D17*
%TO.N,/LPT Interface/P9_IN*%
X32700000Y-138592893D02*
X32700000Y-139992893D01*
X33400000Y-137892893D02*
X32700000Y-138592893D01*
X33400000Y-130192893D02*
X33400000Y-137892893D01*
%TO.N,/LPT Interface/P14_IN*%
X34200000Y-119292893D02*
X26010331Y-119292893D01*
X26010331Y-119292893D02*
X25990331Y-119272893D01*
%TO.N,/LPT Interface/P16_IN*%
X29071677Y-124812893D02*
X25990331Y-124812893D01*
X32089950Y-127492893D02*
X30592893Y-127492893D01*
X30592893Y-127492893D02*
X29980331Y-126880331D01*
X29980331Y-126880331D02*
X29980331Y-125721547D01*
X34300000Y-129702943D02*
X32089950Y-127492893D01*
X34300000Y-131192893D02*
X34300000Y-129702943D01*
X29980331Y-125721547D02*
X29071677Y-124812893D01*
%TO.N,/LPT Interface/P17_IN*%
X31483315Y-127992893D02*
X29837285Y-127992893D01*
X29837285Y-127992893D02*
X29427285Y-127582893D01*
X29427285Y-127582893D02*
X25990331Y-127582893D01*
X31817648Y-128327226D02*
X31483315Y-127992893D01*
%TO.N,/LPT Interface/P1_OUT*%
X47400500Y-144392893D02*
X47600000Y-144193393D01*
X47600000Y-144193393D02*
X47600000Y-138492393D01*
X47600000Y-138492393D02*
X46800500Y-137692893D01*
%TO.N,/LPT Interface/nCE_IN*%
X44200000Y-125916333D02*
X44200000Y-124092893D01*
%TO.N,/LPT Interface/P8_IN*%
X32300000Y-137500000D02*
X32700000Y-137100000D01*
X32700000Y-137100000D02*
X32700000Y-129092893D01*
%TO.N,/LPT Interface/P1_IN*%
X24600000Y-133892893D02*
X24600000Y-121592893D01*
X24600000Y-121592893D02*
X25600000Y-120592893D01*
X27100000Y-134492893D02*
X25200000Y-134492893D01*
X25200000Y-134492893D02*
X24600000Y-133892893D01*
X25600000Y-120592893D02*
X27200000Y-120592893D01*
D18*
%TO.N,/HOLD_IN*%
X50125000Y-149292893D02*
X49700000Y-149292893D01*
D17*
%TO.N,GND1*%
X25990331Y-138662893D02*
X25990331Y-135892893D01*
X25990331Y-149742893D02*
X25990331Y-146972893D01*
X25990331Y-141432893D02*
X25990331Y-138662893D01*
X25990331Y-133122893D02*
X25990331Y-130352893D01*
X34565410Y-136038166D02*
X34565410Y-134534590D01*
X25990331Y-146972893D02*
X25990331Y-144202893D01*
X25990331Y-144202893D02*
X25990331Y-141432893D01*
X34565410Y-134534590D02*
X34600000Y-134500000D01*
D18*
%TO.N,+5VA*%
X50063000Y-151877000D02*
X48200000Y-150014000D01*
X35100000Y-145600000D02*
X35100000Y-140000000D01*
X35100000Y-140000000D02*
X35200000Y-139900000D01*
X33700000Y-147000000D02*
X35100000Y-145600000D01*
X48200000Y-150014000D02*
X48200000Y-102957893D01*
X48200000Y-102957893D02*
X50125000Y-101032893D01*
D17*
%TO.N,GND2*%
X42700000Y-138000000D02*
X42700000Y-149600000D01*
X41000000Y-141600000D02*
X41200000Y-141800000D01*
X40200000Y-148092893D02*
X40200000Y-146192893D01*
X38500000Y-139996893D02*
X40000000Y-141496893D01*
X40000000Y-141496893D02*
X40000000Y-141800000D01*
X41000000Y-139700000D02*
X41000000Y-141600000D01*
X41200000Y-149600000D02*
X41200000Y-145400000D01*
X44300000Y-138592893D02*
X44300000Y-149592893D01*
%TD*%
%TA.AperFunction,Conductor*%
%TO.N,GND1*%
G36*
X37287539Y-96270185D02*
G01*
X37333294Y-96322989D01*
X37344500Y-96374500D01*
X37344500Y-149680682D01*
X37345731Y-149705729D01*
X37348114Y-149729920D01*
X37351792Y-149754718D01*
X37352091Y-149756221D01*
X37359107Y-149791491D01*
X37367433Y-149833351D01*
X37381972Y-149881280D01*
X37400487Y-149925980D01*
X37424099Y-149970155D01*
X37425792Y-149972689D01*
X37425797Y-149972697D01*
X37460036Y-150023939D01*
X37460041Y-150023946D01*
X37461725Y-150026466D01*
X37463645Y-150028805D01*
X37463652Y-150028815D01*
X37489352Y-150060130D01*
X37493499Y-150065183D01*
X37527710Y-150099394D01*
X37530068Y-150101329D01*
X37530070Y-150101331D01*
X37564078Y-150129241D01*
X37564088Y-150129248D01*
X37566427Y-150131168D01*
X37568947Y-150132852D01*
X37568954Y-150132857D01*
X37620196Y-150167096D01*
X37620204Y-150167101D01*
X37622738Y-150168794D01*
X37625436Y-150170236D01*
X37664224Y-150190969D01*
X37664229Y-150190971D01*
X37666913Y-150192406D01*
X37711613Y-150210921D01*
X37737715Y-150218839D01*
X37756627Y-150224576D01*
X37756632Y-150224577D01*
X37759542Y-150225460D01*
X37762532Y-150226055D01*
X37762537Y-150226056D01*
X37827630Y-150239003D01*
X37838175Y-150241101D01*
X37853829Y-150243423D01*
X37861468Y-150244556D01*
X37861477Y-150244557D01*
X37862973Y-150244779D01*
X37887164Y-150247162D01*
X37888678Y-150247236D01*
X37888686Y-150247237D01*
X37910700Y-150248319D01*
X37910711Y-150248319D01*
X37912211Y-150248393D01*
X44487789Y-150248393D01*
X44489289Y-150248319D01*
X44489300Y-150248319D01*
X44511314Y-150247237D01*
X44511322Y-150247236D01*
X44512836Y-150247162D01*
X44537027Y-150244779D01*
X44538523Y-150244557D01*
X44538532Y-150244556D01*
X44546171Y-150243423D01*
X44561825Y-150241101D01*
X44572370Y-150239003D01*
X44637463Y-150226056D01*
X44637468Y-150226055D01*
X44640458Y-150225460D01*
X44643368Y-150224577D01*
X44643373Y-150224576D01*
X44662285Y-150218839D01*
X44688387Y-150210921D01*
X44733087Y-150192406D01*
X44735771Y-150190971D01*
X44735776Y-150190969D01*
X44774564Y-150170236D01*
X44777262Y-150168794D01*
X44779796Y-150167101D01*
X44779804Y-150167096D01*
X44831046Y-150132857D01*
X44831053Y-150132852D01*
X44833573Y-150131168D01*
X44835912Y-150129248D01*
X44835922Y-150129241D01*
X44869930Y-150101331D01*
X44869932Y-150101329D01*
X44872290Y-150099394D01*
X44906501Y-150065183D01*
X44910648Y-150060130D01*
X44936348Y-150028815D01*
X44936355Y-150028805D01*
X44938275Y-150026466D01*
X44939959Y-150023946D01*
X44939964Y-150023939D01*
X44974203Y-149972697D01*
X44974208Y-149972689D01*
X44975901Y-149970155D01*
X44999513Y-149925980D01*
X45018028Y-149881280D01*
X45032567Y-149833351D01*
X45040894Y-149791491D01*
X45047909Y-149756221D01*
X45048208Y-149754718D01*
X45051886Y-149729920D01*
X45054269Y-149705729D01*
X45055500Y-149680682D01*
X45055500Y-126464298D01*
X45047183Y-126399638D01*
X45042673Y-126382396D01*
X45031880Y-126341135D01*
X45031876Y-126341121D01*
X45031300Y-126338920D01*
X45018989Y-126303004D01*
X44962622Y-126220779D01*
X44912633Y-126171965D01*
X44877336Y-126143173D01*
X44869166Y-126139732D01*
X44869163Y-126139730D01*
X44868296Y-126139365D01*
X44867568Y-126138771D01*
X44861562Y-126135159D01*
X44862081Y-126134295D01*
X44814156Y-126095198D01*
X44792489Y-126028773D01*
X44793495Y-126008905D01*
X44804621Y-125924392D01*
X44805682Y-125916333D01*
X44785044Y-125759571D01*
X44775889Y-125737467D01*
X44727646Y-125621000D01*
X44724536Y-125613492D01*
X44628282Y-125488051D01*
X44630436Y-125486398D01*
X44603334Y-125436765D01*
X44600500Y-125410407D01*
X44600500Y-124598819D01*
X44620185Y-124531780D01*
X44628559Y-124521388D01*
X44628282Y-124521175D01*
X44711753Y-124412393D01*
X44724536Y-124395734D01*
X44748544Y-124337774D01*
X44781934Y-124257164D01*
X44781935Y-124257162D01*
X44785044Y-124249655D01*
X44805682Y-124092893D01*
X44793136Y-123997597D01*
X44803902Y-123928562D01*
X44854715Y-123873658D01*
X44889533Y-123853831D01*
X44894828Y-123850816D01*
X44947632Y-123805061D01*
X44979257Y-123772287D01*
X45025465Y-123683952D01*
X45045150Y-123616913D01*
X45045800Y-123612396D01*
X45054870Y-123549308D01*
X45055500Y-123544928D01*
X45055500Y-103472393D01*
X45075185Y-103405354D01*
X45127989Y-103359599D01*
X45179500Y-103348393D01*
X47572920Y-103348393D01*
X47572920Y-103349113D01*
X47637869Y-103365106D01*
X47685911Y-103415839D01*
X47699500Y-103472279D01*
X47699500Y-137726138D01*
X47679815Y-137793177D01*
X47627011Y-137838932D01*
X47557853Y-137848876D01*
X47494297Y-137819851D01*
X47487819Y-137813819D01*
X47441440Y-137767440D01*
X47407955Y-137706117D01*
X47406528Y-137692847D01*
X47406182Y-137692893D01*
X47386605Y-137544190D01*
X47385544Y-137536131D01*
X47377829Y-137517504D01*
X47328146Y-137397560D01*
X47325036Y-137390052D01*
X47228782Y-137264611D01*
X47103341Y-137168357D01*
X47078622Y-137158118D01*
X46964771Y-137110959D01*
X46964769Y-137110958D01*
X46957262Y-137107849D01*
X46800500Y-137087211D01*
X46643738Y-137107849D01*
X46636231Y-137110958D01*
X46636229Y-137110959D01*
X46522378Y-137158118D01*
X46497659Y-137168357D01*
X46372218Y-137264611D01*
X46275964Y-137390052D01*
X46272854Y-137397560D01*
X46223172Y-137517504D01*
X46215456Y-137536131D01*
X46214395Y-137544190D01*
X46205137Y-137614512D01*
X46194818Y-137692893D01*
X46215456Y-137849655D01*
X46218565Y-137857162D01*
X46218566Y-137857164D01*
X46253410Y-137941284D01*
X46275964Y-137995734D01*
X46311708Y-138042317D01*
X46363217Y-138109444D01*
X46372218Y-138121175D01*
X46497659Y-138217429D01*
X46505167Y-138220539D01*
X46636229Y-138274827D01*
X46636231Y-138274828D01*
X46643738Y-138277937D01*
X46651797Y-138278998D01*
X46800500Y-138298575D01*
X46800146Y-138301267D01*
X46854405Y-138317199D01*
X46875047Y-138333833D01*
X47163181Y-138621967D01*
X47196666Y-138683290D01*
X47199500Y-138709648D01*
X47199500Y-143743319D01*
X47179815Y-143810358D01*
X47122952Y-143857880D01*
X47105169Y-143865246D01*
X47105167Y-143865247D01*
X47097659Y-143868357D01*
X46972218Y-143964611D01*
X46875964Y-144090052D01*
X46872854Y-144097560D01*
X46824002Y-144215500D01*
X46815456Y-144236131D01*
X46794818Y-144392893D01*
X46815456Y-144549655D01*
X46818565Y-144557162D01*
X46818566Y-144557164D01*
X46841693Y-144612997D01*
X46875964Y-144695734D01*
X46972218Y-144821175D01*
X47097659Y-144917429D01*
X47105167Y-144920539D01*
X47236229Y-144974827D01*
X47236231Y-144974828D01*
X47243738Y-144977937D01*
X47400500Y-144998575D01*
X47408559Y-144997514D01*
X47454066Y-144991523D01*
X47557262Y-144977937D01*
X47557651Y-144980890D01*
X47613262Y-144982216D01*
X47671122Y-145021381D01*
X47698624Y-145085610D01*
X47699500Y-145100326D01*
X47699500Y-149944039D01*
X47698165Y-149955985D01*
X47698639Y-149956023D01*
X47697930Y-149964832D01*
X47695981Y-149973447D01*
X47696528Y-149982264D01*
X47696528Y-149982265D01*
X47699262Y-150026328D01*
X47699500Y-150034007D01*
X47699500Y-150049940D01*
X47700126Y-150054308D01*
X47700126Y-150054314D01*
X47700959Y-150060130D01*
X47701973Y-150070029D01*
X47704859Y-150116538D01*
X47707860Y-150124849D01*
X47708446Y-150127681D01*
X47712610Y-150144384D01*
X47713424Y-150147168D01*
X47714677Y-150155918D01*
X47733969Y-150198348D01*
X47737716Y-150207554D01*
X47750083Y-150241810D01*
X47753540Y-150251387D01*
X47758755Y-150258525D01*
X47760116Y-150261085D01*
X47768805Y-150275955D01*
X47770359Y-150278385D01*
X47774016Y-150286428D01*
X47792847Y-150308282D01*
X47804444Y-150321741D01*
X47810629Y-150329531D01*
X47818522Y-150340336D01*
X47829322Y-150351136D01*
X47835579Y-150357875D01*
X47861833Y-150388345D01*
X47861836Y-150388348D01*
X47867600Y-150395037D01*
X47875015Y-150399843D01*
X47881139Y-150405185D01*
X47892837Y-150414651D01*
X48962983Y-151484797D01*
X48996468Y-151546120D01*
X48993725Y-151609249D01*
X48981937Y-151647213D01*
X48958164Y-151848069D01*
X48958535Y-151853731D01*
X48958535Y-151853735D01*
X48963851Y-151934842D01*
X48971392Y-152049894D01*
X49021178Y-152245928D01*
X49105856Y-152429607D01*
X49222588Y-152594780D01*
X49367466Y-152735913D01*
X49439741Y-152784206D01*
X49511118Y-152831899D01*
X49555923Y-152885511D01*
X49564630Y-152954836D01*
X49534475Y-153017864D01*
X49475032Y-153054583D01*
X49442227Y-153059001D01*
X49168274Y-153059001D01*
X49161569Y-153059364D01*
X49110523Y-153064908D01*
X49095512Y-153068478D01*
X48974810Y-153113727D01*
X48959468Y-153122126D01*
X48857165Y-153198798D01*
X48844798Y-153211165D01*
X48768126Y-153313468D01*
X48759727Y-153328810D01*
X48714476Y-153449515D01*
X48710909Y-153464518D01*
X48705363Y-153515573D01*
X48705000Y-153522271D01*
X48705000Y-154145170D01*
X48709404Y-154160169D01*
X48710774Y-154161356D01*
X48718332Y-154163000D01*
X51403169Y-154163000D01*
X51418168Y-154158596D01*
X51419355Y-154157226D01*
X51420999Y-154149668D01*
X51420999Y-153522274D01*
X51420636Y-153515569D01*
X51415092Y-153464523D01*
X51411522Y-153449512D01*
X51366273Y-153328810D01*
X51357874Y-153313468D01*
X51281202Y-153211165D01*
X51268835Y-153198798D01*
X51166532Y-153122126D01*
X51151190Y-153113727D01*
X51030485Y-153068476D01*
X51015482Y-153064909D01*
X50964427Y-153059363D01*
X50957729Y-153059000D01*
X50679998Y-153059000D01*
X50612959Y-153039315D01*
X50567204Y-152986511D01*
X50557260Y-152917353D01*
X50586285Y-152853797D01*
X50619409Y-152826810D01*
X50684048Y-152790611D01*
X50684050Y-152790610D01*
X50689001Y-152787837D01*
X50751433Y-152735913D01*
X50840138Y-152662137D01*
X50844505Y-152658505D01*
X50973837Y-152503001D01*
X51072664Y-152326531D01*
X51121462Y-152182779D01*
X51135852Y-152140387D01*
X51135853Y-152140384D01*
X51137678Y-152135007D01*
X51143451Y-152095190D01*
X51166176Y-151938458D01*
X51166176Y-151938453D01*
X51166700Y-151934842D01*
X51168215Y-151877000D01*
X51149708Y-151675591D01*
X51104834Y-151516479D01*
X51096352Y-151486403D01*
X51096351Y-151486400D01*
X51094807Y-151480926D01*
X51005351Y-151299527D01*
X50884335Y-151137467D01*
X50735812Y-151000174D01*
X50700838Y-150978107D01*
X50569566Y-150895280D01*
X50569564Y-150895279D01*
X50564757Y-150892246D01*
X50376898Y-150817298D01*
X50371317Y-150816188D01*
X50371314Y-150816187D01*
X50296617Y-150801329D01*
X50178526Y-150777839D01*
X50172839Y-150777765D01*
X50172834Y-150777764D01*
X49981975Y-150775266D01*
X49981970Y-150775266D01*
X49976286Y-150775192D01*
X49970682Y-150776155D01*
X49970681Y-150776155D01*
X49777342Y-150809376D01*
X49707937Y-150801329D01*
X49668662Y-150774848D01*
X49407247Y-150513433D01*
X49373762Y-150452110D01*
X49378746Y-150382418D01*
X49420618Y-150326485D01*
X49486082Y-150302068D01*
X49543876Y-150311822D01*
X49601249Y-150336471D01*
X49721470Y-150388122D01*
X49817502Y-150409852D01*
X49913193Y-150431505D01*
X49913195Y-150431505D01*
X49918740Y-150432760D01*
X50036135Y-150437372D01*
X50115161Y-150440477D01*
X50115163Y-150440477D01*
X50120842Y-150440700D01*
X50126462Y-150439885D01*
X50126465Y-150439885D01*
X50315387Y-150412493D01*
X50315389Y-150412493D01*
X50321007Y-150411678D01*
X50326384Y-150409853D01*
X50326387Y-150409852D01*
X50432862Y-150373708D01*
X50512531Y-150346664D01*
X50638792Y-150275955D01*
X50684048Y-150250611D01*
X50684050Y-150250610D01*
X50689001Y-150247837D01*
X50732330Y-150211801D01*
X50840138Y-150122137D01*
X50844505Y-150118505D01*
X50888853Y-150065183D01*
X50970206Y-149967367D01*
X50970207Y-149967366D01*
X50973837Y-149963001D01*
X50976697Y-149957895D01*
X51018030Y-149884088D01*
X51072664Y-149786531D01*
X51137678Y-149595007D01*
X51164032Y-149413244D01*
X51166176Y-149398458D01*
X51166176Y-149398453D01*
X51166700Y-149394842D01*
X51167323Y-149371076D01*
X51168119Y-149340661D01*
X51168215Y-149337000D01*
X51149708Y-149135591D01*
X51094807Y-148940926D01*
X51005351Y-148759527D01*
X50884335Y-148597467D01*
X50822697Y-148540490D01*
X50739988Y-148464034D01*
X50739986Y-148464033D01*
X50735812Y-148460174D01*
X50708374Y-148442862D01*
X50569566Y-148355280D01*
X50569564Y-148355279D01*
X50564757Y-148352246D01*
X50376898Y-148277298D01*
X50371317Y-148276188D01*
X50371314Y-148276187D01*
X50303373Y-148262673D01*
X50178526Y-148237839D01*
X50172839Y-148237765D01*
X50172834Y-148237764D01*
X49981975Y-148235266D01*
X49981970Y-148235266D01*
X49976286Y-148235192D01*
X49970682Y-148236155D01*
X49970681Y-148236155D01*
X49782546Y-148268482D01*
X49782543Y-148268483D01*
X49776949Y-148269444D01*
X49755660Y-148277298D01*
X49592521Y-148337483D01*
X49592517Y-148337485D01*
X49587193Y-148339449D01*
X49582310Y-148342354D01*
X49582308Y-148342355D01*
X49506650Y-148387367D01*
X49413371Y-148442862D01*
X49261305Y-148576220D01*
X49136089Y-148735057D01*
X49133442Y-148740088D01*
X49130080Y-148746479D01*
X49041914Y-148914053D01*
X49040229Y-148919479D01*
X49040228Y-148919482D01*
X49033570Y-148940926D01*
X48981937Y-149107213D01*
X48958164Y-149308069D01*
X48958535Y-149313731D01*
X48958535Y-149313735D01*
X48964021Y-149397439D01*
X48971392Y-149509894D01*
X49021178Y-149705928D01*
X49060624Y-149791491D01*
X49090930Y-149857230D01*
X49101120Y-149926352D01*
X49072323Y-149990011D01*
X49013680Y-150027995D01*
X48943811Y-150028245D01*
X48890639Y-149996825D01*
X48736819Y-149843005D01*
X48703334Y-149781682D01*
X48700500Y-149755324D01*
X48700500Y-146768069D01*
X48958164Y-146768069D01*
X48958535Y-146773731D01*
X48958535Y-146773735D01*
X48963619Y-146851297D01*
X48971392Y-146969894D01*
X49021178Y-147165928D01*
X49023554Y-147171082D01*
X49100145Y-147337218D01*
X49105856Y-147349607D01*
X49222588Y-147514780D01*
X49367466Y-147655913D01*
X49535637Y-147768282D01*
X49721470Y-147848122D01*
X49817502Y-147869852D01*
X49913193Y-147891505D01*
X49913195Y-147891505D01*
X49918740Y-147892760D01*
X50036135Y-147897372D01*
X50115161Y-147900477D01*
X50115163Y-147900477D01*
X50120842Y-147900700D01*
X50126462Y-147899885D01*
X50126465Y-147899885D01*
X50315387Y-147872493D01*
X50315389Y-147872493D01*
X50321007Y-147871678D01*
X50326384Y-147869853D01*
X50326387Y-147869852D01*
X50411090Y-147841099D01*
X50512531Y-147806664D01*
X50689001Y-147707837D01*
X50751433Y-147655913D01*
X50840138Y-147582137D01*
X50844505Y-147578505D01*
X50924123Y-147482775D01*
X50970206Y-147427367D01*
X50970207Y-147427366D01*
X50973837Y-147423001D01*
X50996808Y-147381984D01*
X51029352Y-147323870D01*
X51072664Y-147246531D01*
X51137678Y-147055007D01*
X51144485Y-147008059D01*
X51166176Y-146858458D01*
X51166176Y-146858453D01*
X51166700Y-146854842D01*
X51168215Y-146797000D01*
X51149708Y-146595591D01*
X51098764Y-146414956D01*
X51096352Y-146406403D01*
X51096351Y-146406400D01*
X51094807Y-146400926D01*
X51005351Y-146219527D01*
X50884335Y-146057467D01*
X50802560Y-145981875D01*
X50739988Y-145924034D01*
X50739986Y-145924033D01*
X50735812Y-145920174D01*
X50701304Y-145898401D01*
X50569566Y-145815280D01*
X50569564Y-145815279D01*
X50564757Y-145812246D01*
X50376898Y-145737298D01*
X50371317Y-145736188D01*
X50371314Y-145736187D01*
X50288317Y-145719678D01*
X50178526Y-145697839D01*
X50172839Y-145697765D01*
X50172834Y-145697764D01*
X49981975Y-145695266D01*
X49981970Y-145695266D01*
X49976286Y-145695192D01*
X49970682Y-145696155D01*
X49970681Y-145696155D01*
X49782546Y-145728482D01*
X49782543Y-145728483D01*
X49776949Y-145729444D01*
X49755660Y-145737298D01*
X49592521Y-145797483D01*
X49592517Y-145797485D01*
X49587193Y-145799449D01*
X49582310Y-145802354D01*
X49582308Y-145802355D01*
X49420869Y-145898401D01*
X49413371Y-145902862D01*
X49261305Y-146036220D01*
X49136089Y-146195057D01*
X49133442Y-146200088D01*
X49102803Y-146258322D01*
X49041914Y-146374053D01*
X49040229Y-146379479D01*
X49040228Y-146379482D01*
X49029213Y-146414956D01*
X48981937Y-146567213D01*
X48958164Y-146768069D01*
X48700500Y-146768069D01*
X48700500Y-144228069D01*
X48958164Y-144228069D01*
X48958535Y-144233731D01*
X48958535Y-144233735D01*
X48963851Y-144314842D01*
X48971392Y-144429894D01*
X49021178Y-144625928D01*
X49105856Y-144809607D01*
X49222588Y-144974780D01*
X49367466Y-145115913D01*
X49535637Y-145228282D01*
X49721470Y-145308122D01*
X49817502Y-145329852D01*
X49913193Y-145351505D01*
X49913195Y-145351505D01*
X49918740Y-145352760D01*
X50036135Y-145357372D01*
X50115161Y-145360477D01*
X50115163Y-145360477D01*
X50120842Y-145360700D01*
X50126462Y-145359885D01*
X50126465Y-145359885D01*
X50315387Y-145332493D01*
X50315389Y-145332493D01*
X50321007Y-145331678D01*
X50326384Y-145329853D01*
X50326387Y-145329852D01*
X50413685Y-145300218D01*
X50512531Y-145266664D01*
X50657208Y-145185642D01*
X50684048Y-145170611D01*
X50684050Y-145170610D01*
X50689001Y-145167837D01*
X50751433Y-145115913D01*
X50840138Y-145042137D01*
X50844505Y-145038505D01*
X50945174Y-144917464D01*
X50970206Y-144887367D01*
X50970207Y-144887366D01*
X50973837Y-144883001D01*
X51005691Y-144826122D01*
X51069886Y-144711491D01*
X51072664Y-144706531D01*
X51107099Y-144605090D01*
X51135852Y-144520387D01*
X51135853Y-144520384D01*
X51137678Y-144515007D01*
X51154215Y-144400952D01*
X51166176Y-144318458D01*
X51166176Y-144318453D01*
X51166700Y-144314842D01*
X51168215Y-144257000D01*
X51149708Y-144055591D01*
X51094807Y-143860926D01*
X51005351Y-143679527D01*
X50884335Y-143517467D01*
X50735812Y-143380174D01*
X50564757Y-143272246D01*
X50376898Y-143197298D01*
X50371317Y-143196188D01*
X50371314Y-143196187D01*
X50303373Y-143182673D01*
X50178526Y-143157839D01*
X50172839Y-143157765D01*
X50172834Y-143157764D01*
X49981975Y-143155266D01*
X49981970Y-143155266D01*
X49976286Y-143155192D01*
X49970682Y-143156155D01*
X49970681Y-143156155D01*
X49782546Y-143188482D01*
X49782543Y-143188483D01*
X49776949Y-143189444D01*
X49755660Y-143197298D01*
X49592521Y-143257483D01*
X49592517Y-143257485D01*
X49587193Y-143259449D01*
X49582310Y-143262354D01*
X49582308Y-143262355D01*
X49565683Y-143272246D01*
X49413371Y-143362862D01*
X49261305Y-143496220D01*
X49136089Y-143655057D01*
X49041914Y-143834053D01*
X49040229Y-143839479D01*
X49040228Y-143839482D01*
X49034508Y-143857904D01*
X48981937Y-144027213D01*
X48958164Y-144228069D01*
X48700500Y-144228069D01*
X48700500Y-141688069D01*
X48958164Y-141688069D01*
X48958535Y-141693731D01*
X48958535Y-141693735D01*
X48963851Y-141774842D01*
X48971392Y-141889894D01*
X49021178Y-142085928D01*
X49023554Y-142091082D01*
X49087156Y-142229043D01*
X49105856Y-142269607D01*
X49222588Y-142434780D01*
X49367466Y-142575913D01*
X49535637Y-142688282D01*
X49721470Y-142768122D01*
X49817502Y-142789852D01*
X49913193Y-142811505D01*
X49913195Y-142811505D01*
X49918740Y-142812760D01*
X50036135Y-142817372D01*
X50115161Y-142820477D01*
X50115163Y-142820477D01*
X50120842Y-142820700D01*
X50126462Y-142819885D01*
X50126465Y-142819885D01*
X50315387Y-142792493D01*
X50315389Y-142792493D01*
X50321007Y-142791678D01*
X50326384Y-142789853D01*
X50326387Y-142789852D01*
X50411090Y-142761099D01*
X50512531Y-142726664D01*
X50689001Y-142627837D01*
X50713983Y-142607060D01*
X50840138Y-142502137D01*
X50844505Y-142498505D01*
X50973837Y-142343001D01*
X51072664Y-142166531D01*
X51137678Y-141975007D01*
X51141791Y-141946639D01*
X51166176Y-141778458D01*
X51166176Y-141778453D01*
X51166700Y-141774842D01*
X51168215Y-141717000D01*
X51149708Y-141515591D01*
X51094807Y-141320926D01*
X51005351Y-141139527D01*
X50884335Y-140977467D01*
X50816417Y-140914684D01*
X50739988Y-140844034D01*
X50739986Y-140844033D01*
X50735812Y-140840174D01*
X50697573Y-140816047D01*
X50569566Y-140735280D01*
X50569564Y-140735279D01*
X50564757Y-140732246D01*
X50376898Y-140657298D01*
X50371317Y-140656188D01*
X50371314Y-140656187D01*
X50303373Y-140642673D01*
X50178526Y-140617839D01*
X50172839Y-140617765D01*
X50172834Y-140617764D01*
X49981975Y-140615266D01*
X49981970Y-140615266D01*
X49976286Y-140615192D01*
X49970682Y-140616155D01*
X49970681Y-140616155D01*
X49782546Y-140648482D01*
X49782543Y-140648483D01*
X49776949Y-140649444D01*
X49758189Y-140656365D01*
X49592521Y-140717483D01*
X49592517Y-140717485D01*
X49587193Y-140719449D01*
X49582310Y-140722354D01*
X49582308Y-140722355D01*
X49424826Y-140816047D01*
X49413371Y-140822862D01*
X49261305Y-140956220D01*
X49136089Y-141115057D01*
X49041914Y-141294053D01*
X49040229Y-141299479D01*
X49040228Y-141299482D01*
X49033570Y-141320926D01*
X48981937Y-141487213D01*
X48958164Y-141688069D01*
X48700500Y-141688069D01*
X48700500Y-139148069D01*
X48958164Y-139148069D01*
X48958535Y-139153731D01*
X48958535Y-139153735D01*
X48963851Y-139234842D01*
X48971392Y-139349894D01*
X49021178Y-139545928D01*
X49023554Y-139551082D01*
X49084649Y-139683605D01*
X49105856Y-139729607D01*
X49222588Y-139894780D01*
X49367466Y-140035913D01*
X49535637Y-140148282D01*
X49721470Y-140228122D01*
X49792895Y-140244284D01*
X49913193Y-140271505D01*
X49913195Y-140271505D01*
X49918740Y-140272760D01*
X50036135Y-140277372D01*
X50115161Y-140280477D01*
X50115163Y-140280477D01*
X50120842Y-140280700D01*
X50126462Y-140279885D01*
X50126465Y-140279885D01*
X50315387Y-140252493D01*
X50315389Y-140252493D01*
X50321007Y-140251678D01*
X50326384Y-140249853D01*
X50326387Y-140249852D01*
X50464875Y-140202841D01*
X50512531Y-140186664D01*
X50689001Y-140087837D01*
X50726365Y-140056762D01*
X50840138Y-139962137D01*
X50844505Y-139958505D01*
X50952692Y-139828425D01*
X50970206Y-139807367D01*
X50970207Y-139807366D01*
X50973837Y-139803001D01*
X51072664Y-139626531D01*
X51107099Y-139525090D01*
X51135852Y-139440387D01*
X51135853Y-139440384D01*
X51137678Y-139435007D01*
X51153799Y-139323820D01*
X51166176Y-139238458D01*
X51166176Y-139238453D01*
X51166700Y-139234842D01*
X51168215Y-139177000D01*
X51149708Y-138975591D01*
X51122258Y-138878259D01*
X51096352Y-138786403D01*
X51096351Y-138786400D01*
X51094807Y-138780926D01*
X51005351Y-138599527D01*
X50884335Y-138437467D01*
X50735812Y-138300174D01*
X50695640Y-138274827D01*
X50569566Y-138195280D01*
X50569564Y-138195279D01*
X50564757Y-138192246D01*
X50376898Y-138117298D01*
X50371317Y-138116188D01*
X50371314Y-138116187D01*
X50303373Y-138102673D01*
X50178526Y-138077839D01*
X50172839Y-138077765D01*
X50172834Y-138077764D01*
X49981975Y-138075266D01*
X49981970Y-138075266D01*
X49976286Y-138075192D01*
X49970682Y-138076155D01*
X49970681Y-138076155D01*
X49782546Y-138108482D01*
X49782543Y-138108483D01*
X49776949Y-138109444D01*
X49755660Y-138117298D01*
X49592521Y-138177483D01*
X49592517Y-138177485D01*
X49587193Y-138179449D01*
X49582310Y-138182354D01*
X49582308Y-138182355D01*
X49421649Y-138277937D01*
X49413371Y-138282862D01*
X49261305Y-138416220D01*
X49136089Y-138575057D01*
X49133442Y-138580088D01*
X49089290Y-138664006D01*
X49041914Y-138754053D01*
X49040229Y-138759479D01*
X49040228Y-138759482D01*
X49033570Y-138780926D01*
X48981937Y-138947213D01*
X48958164Y-139148069D01*
X48700500Y-139148069D01*
X48700500Y-136608069D01*
X48958164Y-136608069D01*
X48958535Y-136613731D01*
X48958535Y-136613735D01*
X48963779Y-136693742D01*
X48971392Y-136809894D01*
X49021178Y-137005928D01*
X49023554Y-137011082D01*
X49096060Y-137168357D01*
X49105856Y-137189607D01*
X49222588Y-137354780D01*
X49367466Y-137495913D01*
X49535637Y-137608282D01*
X49721470Y-137688122D01*
X49817502Y-137709852D01*
X49913193Y-137731505D01*
X49913195Y-137731505D01*
X49918740Y-137732760D01*
X50036135Y-137737372D01*
X50115161Y-137740477D01*
X50115163Y-137740477D01*
X50120842Y-137740700D01*
X50126462Y-137739885D01*
X50126465Y-137739885D01*
X50315387Y-137712493D01*
X50315389Y-137712493D01*
X50321007Y-137711678D01*
X50326384Y-137709853D01*
X50326387Y-137709852D01*
X50454158Y-137666479D01*
X50512531Y-137646664D01*
X50689001Y-137547837D01*
X50712105Y-137528622D01*
X50840138Y-137422137D01*
X50844505Y-137418505D01*
X50907104Y-137343238D01*
X50970206Y-137267367D01*
X50970207Y-137267366D01*
X50973837Y-137263001D01*
X50992834Y-137229080D01*
X51032574Y-137158118D01*
X51072664Y-137086531D01*
X51113350Y-136966674D01*
X51135852Y-136900387D01*
X51135853Y-136900384D01*
X51137678Y-136895007D01*
X51150840Y-136804228D01*
X51166176Y-136698458D01*
X51166176Y-136698453D01*
X51166700Y-136694842D01*
X51168215Y-136637000D01*
X51149708Y-136435591D01*
X51113632Y-136307676D01*
X51096352Y-136246403D01*
X51096351Y-136246400D01*
X51094807Y-136240926D01*
X51005351Y-136059527D01*
X50884335Y-135897467D01*
X50735812Y-135760174D01*
X50564757Y-135652246D01*
X50376898Y-135577298D01*
X50371317Y-135576188D01*
X50371314Y-135576187D01*
X50302635Y-135562526D01*
X50178526Y-135537839D01*
X50172839Y-135537765D01*
X50172834Y-135537764D01*
X49981975Y-135535266D01*
X49981970Y-135535266D01*
X49976286Y-135535192D01*
X49970682Y-135536155D01*
X49970681Y-135536155D01*
X49782546Y-135568482D01*
X49782543Y-135568483D01*
X49776949Y-135569444D01*
X49755660Y-135577298D01*
X49592521Y-135637483D01*
X49592517Y-135637485D01*
X49587193Y-135639449D01*
X49582310Y-135642354D01*
X49582308Y-135642355D01*
X49418262Y-135739952D01*
X49413371Y-135742862D01*
X49261305Y-135876220D01*
X49136089Y-136035057D01*
X49041914Y-136214053D01*
X49040229Y-136219479D01*
X49040228Y-136219482D01*
X49013740Y-136304790D01*
X48981937Y-136407213D01*
X48958164Y-136608069D01*
X48700500Y-136608069D01*
X48700500Y-134068069D01*
X48958164Y-134068069D01*
X48958535Y-134073731D01*
X48958535Y-134073735D01*
X48963667Y-134152026D01*
X48971392Y-134269894D01*
X49021178Y-134465928D01*
X49105856Y-134649607D01*
X49222588Y-134814780D01*
X49367466Y-134955913D01*
X49535637Y-135068282D01*
X49721470Y-135148122D01*
X49817502Y-135169852D01*
X49913193Y-135191505D01*
X49913195Y-135191505D01*
X49918740Y-135192760D01*
X50036135Y-135197372D01*
X50115161Y-135200477D01*
X50115163Y-135200477D01*
X50120842Y-135200700D01*
X50126462Y-135199885D01*
X50126465Y-135199885D01*
X50315387Y-135172493D01*
X50315389Y-135172493D01*
X50321007Y-135171678D01*
X50326384Y-135169853D01*
X50326387Y-135169852D01*
X50411090Y-135141099D01*
X50512531Y-135106664D01*
X50689001Y-135007837D01*
X50751433Y-134955913D01*
X50840138Y-134882137D01*
X50844505Y-134878505D01*
X50914507Y-134794337D01*
X50970206Y-134727367D01*
X50970207Y-134727366D01*
X50973837Y-134723001D01*
X51072664Y-134546531D01*
X51137678Y-134355007D01*
X51144363Y-134308899D01*
X51166176Y-134158458D01*
X51166176Y-134158453D01*
X51166700Y-134154842D01*
X51168215Y-134097000D01*
X51149708Y-133895591D01*
X51094807Y-133700926D01*
X51005351Y-133519527D01*
X50884335Y-133357467D01*
X50735812Y-133220174D01*
X50703762Y-133199952D01*
X50569566Y-133115280D01*
X50569564Y-133115279D01*
X50564757Y-133112246D01*
X50376898Y-133037298D01*
X50371317Y-133036188D01*
X50371314Y-133036187D01*
X50303373Y-133022673D01*
X50178526Y-132997839D01*
X50172839Y-132997765D01*
X50172834Y-132997764D01*
X49981975Y-132995266D01*
X49981970Y-132995266D01*
X49976286Y-132995192D01*
X49970682Y-132996155D01*
X49970681Y-132996155D01*
X49782546Y-133028482D01*
X49782543Y-133028483D01*
X49776949Y-133029444D01*
X49755660Y-133037298D01*
X49592521Y-133097483D01*
X49592517Y-133097485D01*
X49587193Y-133099449D01*
X49582310Y-133102354D01*
X49582308Y-133102355D01*
X49503483Y-133149251D01*
X49413371Y-133202862D01*
X49261305Y-133336220D01*
X49136089Y-133495057D01*
X49041914Y-133674053D01*
X49040229Y-133679479D01*
X49040228Y-133679482D01*
X49033570Y-133700926D01*
X48981937Y-133867213D01*
X48958164Y-134068069D01*
X48700500Y-134068069D01*
X48700500Y-131528069D01*
X48958164Y-131528069D01*
X48958535Y-131533731D01*
X48958535Y-131533735D01*
X48963844Y-131614728D01*
X48971392Y-131729894D01*
X49021178Y-131925928D01*
X49023554Y-131931082D01*
X49066848Y-132024992D01*
X49105856Y-132109607D01*
X49222588Y-132274780D01*
X49367466Y-132415913D01*
X49535637Y-132528282D01*
X49721470Y-132608122D01*
X49797916Y-132625420D01*
X49913193Y-132651505D01*
X49913195Y-132651505D01*
X49918740Y-132652760D01*
X50036135Y-132657372D01*
X50115161Y-132660477D01*
X50115163Y-132660477D01*
X50120842Y-132660700D01*
X50126462Y-132659885D01*
X50126465Y-132659885D01*
X50315387Y-132632493D01*
X50315389Y-132632493D01*
X50321007Y-132631678D01*
X50326384Y-132629853D01*
X50326387Y-132629852D01*
X50412094Y-132600758D01*
X50512531Y-132566664D01*
X50613897Y-132509897D01*
X50684048Y-132470611D01*
X50684050Y-132470610D01*
X50689001Y-132467837D01*
X50751433Y-132415913D01*
X50840138Y-132342137D01*
X50844505Y-132338505D01*
X50973837Y-132183001D01*
X51072664Y-132006531D01*
X51113009Y-131887679D01*
X51135852Y-131820387D01*
X51135853Y-131820384D01*
X51137678Y-131815007D01*
X51138493Y-131809387D01*
X51166176Y-131618458D01*
X51166176Y-131618453D01*
X51166700Y-131614842D01*
X51168215Y-131557000D01*
X51149708Y-131355591D01*
X51122257Y-131258258D01*
X51096352Y-131166403D01*
X51096351Y-131166400D01*
X51094807Y-131160926D01*
X51005351Y-130979527D01*
X50884335Y-130817467D01*
X50761446Y-130703870D01*
X50739988Y-130684034D01*
X50739986Y-130684033D01*
X50735812Y-130680174D01*
X50703762Y-130659952D01*
X50569566Y-130575280D01*
X50569564Y-130575279D01*
X50564757Y-130572246D01*
X50376898Y-130497298D01*
X50371317Y-130496188D01*
X50371314Y-130496187D01*
X50303373Y-130482673D01*
X50178526Y-130457839D01*
X50172839Y-130457765D01*
X50172834Y-130457764D01*
X49981975Y-130455266D01*
X49981970Y-130455266D01*
X49976286Y-130455192D01*
X49970682Y-130456155D01*
X49970681Y-130456155D01*
X49782546Y-130488482D01*
X49782543Y-130488483D01*
X49776949Y-130489444D01*
X49755660Y-130497298D01*
X49592521Y-130557483D01*
X49592517Y-130557485D01*
X49587193Y-130559449D01*
X49582310Y-130562354D01*
X49582308Y-130562355D01*
X49447608Y-130642493D01*
X49413371Y-130662862D01*
X49261305Y-130796220D01*
X49136089Y-130955057D01*
X49133442Y-130960088D01*
X49044562Y-131129020D01*
X49041914Y-131134053D01*
X49040229Y-131139479D01*
X49040228Y-131139482D01*
X49002421Y-131261244D01*
X48981937Y-131327213D01*
X48958164Y-131528069D01*
X48700500Y-131528069D01*
X48700500Y-128988069D01*
X48958164Y-128988069D01*
X48958535Y-128993731D01*
X48958535Y-128993735D01*
X48963851Y-129074842D01*
X48971392Y-129189894D01*
X49021178Y-129385928D01*
X49023554Y-129391082D01*
X49100458Y-129557897D01*
X49105856Y-129569607D01*
X49222588Y-129734780D01*
X49367466Y-129875913D01*
X49535637Y-129988282D01*
X49721470Y-130068122D01*
X49817502Y-130089852D01*
X49913193Y-130111505D01*
X49913195Y-130111505D01*
X49918740Y-130112760D01*
X50036135Y-130117372D01*
X50115161Y-130120477D01*
X50115163Y-130120477D01*
X50120842Y-130120700D01*
X50126462Y-130119885D01*
X50126465Y-130119885D01*
X50315387Y-130092493D01*
X50315389Y-130092493D01*
X50321007Y-130091678D01*
X50326384Y-130089853D01*
X50326387Y-130089852D01*
X50411090Y-130061099D01*
X50512531Y-130026664D01*
X50675871Y-129935190D01*
X50684048Y-129930611D01*
X50684050Y-129930610D01*
X50689001Y-129927837D01*
X50751433Y-129875913D01*
X50840138Y-129802137D01*
X50844505Y-129798505D01*
X50954995Y-129665656D01*
X50970206Y-129647367D01*
X50970207Y-129647366D01*
X50973837Y-129643001D01*
X50987590Y-129618444D01*
X51034702Y-129534317D01*
X51072664Y-129466531D01*
X51137678Y-129275007D01*
X51140580Y-129254992D01*
X51166176Y-129078458D01*
X51166176Y-129078453D01*
X51166700Y-129074842D01*
X51168215Y-129017000D01*
X51149708Y-128815591D01*
X51099489Y-128637526D01*
X51096352Y-128626403D01*
X51096351Y-128626400D01*
X51094807Y-128620926D01*
X51005351Y-128439527D01*
X50884335Y-128277467D01*
X50735812Y-128140174D01*
X50564757Y-128032246D01*
X50376898Y-127957298D01*
X50371317Y-127956188D01*
X50371314Y-127956187D01*
X50301358Y-127942272D01*
X50178526Y-127917839D01*
X50172839Y-127917765D01*
X50172834Y-127917764D01*
X49981975Y-127915266D01*
X49981970Y-127915266D01*
X49976286Y-127915192D01*
X49970682Y-127916155D01*
X49970681Y-127916155D01*
X49782546Y-127948482D01*
X49782543Y-127948483D01*
X49776949Y-127949444D01*
X49755660Y-127957298D01*
X49592521Y-128017483D01*
X49592517Y-128017485D01*
X49587193Y-128019449D01*
X49582310Y-128022354D01*
X49582308Y-128022355D01*
X49477652Y-128084619D01*
X49413371Y-128122862D01*
X49261305Y-128256220D01*
X49136089Y-128415057D01*
X49041914Y-128594053D01*
X49040229Y-128599479D01*
X49040228Y-128599482D01*
X49002421Y-128721244D01*
X48981937Y-128787213D01*
X48958164Y-128988069D01*
X48700500Y-128988069D01*
X48700500Y-126448069D01*
X48958164Y-126448069D01*
X48958535Y-126453731D01*
X48958535Y-126453735D01*
X48963851Y-126534842D01*
X48971392Y-126649894D01*
X49021178Y-126845928D01*
X49023554Y-126851082D01*
X49080274Y-126974115D01*
X49105856Y-127029607D01*
X49222588Y-127194780D01*
X49367466Y-127335913D01*
X49535637Y-127448282D01*
X49721470Y-127528122D01*
X49817502Y-127549852D01*
X49913193Y-127571505D01*
X49913195Y-127571505D01*
X49918740Y-127572760D01*
X50036135Y-127577372D01*
X50115161Y-127580477D01*
X50115163Y-127580477D01*
X50120842Y-127580700D01*
X50126462Y-127579885D01*
X50126465Y-127579885D01*
X50315387Y-127552493D01*
X50315389Y-127552493D01*
X50321007Y-127551678D01*
X50326384Y-127549853D01*
X50326387Y-127549852D01*
X50411090Y-127521099D01*
X50512531Y-127486664D01*
X50689001Y-127387837D01*
X50751433Y-127335913D01*
X50840138Y-127262137D01*
X50844505Y-127258505D01*
X50930767Y-127154787D01*
X50970206Y-127107367D01*
X50970207Y-127107366D01*
X50973837Y-127103001D01*
X50980984Y-127090240D01*
X51066604Y-126937352D01*
X51072664Y-126926531D01*
X51137678Y-126735007D01*
X51141066Y-126711639D01*
X51166176Y-126538458D01*
X51166176Y-126538453D01*
X51166700Y-126534842D01*
X51168215Y-126477000D01*
X51149708Y-126275591D01*
X51113943Y-126148778D01*
X51096352Y-126086403D01*
X51096351Y-126086400D01*
X51094807Y-126080926D01*
X51005351Y-125899527D01*
X50884335Y-125737467D01*
X50765658Y-125627763D01*
X50739988Y-125604034D01*
X50739986Y-125604033D01*
X50735812Y-125600174D01*
X50731002Y-125597139D01*
X50569566Y-125495280D01*
X50569564Y-125495279D01*
X50564757Y-125492246D01*
X50376898Y-125417298D01*
X50371317Y-125416188D01*
X50371314Y-125416187D01*
X50303373Y-125402673D01*
X50178526Y-125377839D01*
X50172839Y-125377765D01*
X50172834Y-125377764D01*
X49981975Y-125375266D01*
X49981970Y-125375266D01*
X49976286Y-125375192D01*
X49970682Y-125376155D01*
X49970681Y-125376155D01*
X49782546Y-125408482D01*
X49782543Y-125408483D01*
X49776949Y-125409444D01*
X49755660Y-125417298D01*
X49592521Y-125477483D01*
X49592517Y-125477485D01*
X49587193Y-125479449D01*
X49582310Y-125482354D01*
X49582308Y-125482355D01*
X49468449Y-125550094D01*
X49413371Y-125582862D01*
X49261305Y-125716220D01*
X49136089Y-125875057D01*
X49041914Y-126054053D01*
X49040229Y-126059479D01*
X49040228Y-126059482D01*
X49016730Y-126135159D01*
X48981937Y-126247213D01*
X48958164Y-126448069D01*
X48700500Y-126448069D01*
X48700500Y-123908069D01*
X48958164Y-123908069D01*
X48958535Y-123913731D01*
X48958535Y-123913735D01*
X48963817Y-123994317D01*
X48971392Y-124109894D01*
X49021178Y-124305928D01*
X49023554Y-124311082D01*
X49070260Y-124412393D01*
X49105856Y-124489607D01*
X49222588Y-124654780D01*
X49367466Y-124795913D01*
X49535637Y-124908282D01*
X49721470Y-124988122D01*
X49817502Y-125009852D01*
X49913193Y-125031505D01*
X49913195Y-125031505D01*
X49918740Y-125032760D01*
X50036135Y-125037372D01*
X50115161Y-125040477D01*
X50115163Y-125040477D01*
X50120842Y-125040700D01*
X50126462Y-125039885D01*
X50126465Y-125039885D01*
X50315387Y-125012493D01*
X50315389Y-125012493D01*
X50321007Y-125011678D01*
X50326384Y-125009853D01*
X50326387Y-125009852D01*
X50411090Y-124981099D01*
X50512531Y-124946664D01*
X50689001Y-124847837D01*
X50751433Y-124795913D01*
X50840138Y-124722137D01*
X50844505Y-124718505D01*
X50973837Y-124563001D01*
X50991322Y-124531780D01*
X51036226Y-124451597D01*
X51072664Y-124386531D01*
X51107099Y-124285090D01*
X51135852Y-124200387D01*
X51135853Y-124200384D01*
X51137678Y-124195007D01*
X51138733Y-124187730D01*
X51166176Y-123998458D01*
X51166176Y-123998453D01*
X51166700Y-123994842D01*
X51168215Y-123937000D01*
X51149708Y-123735591D01*
X51116670Y-123618446D01*
X51096352Y-123546403D01*
X51096351Y-123546400D01*
X51094807Y-123540926D01*
X51005351Y-123359527D01*
X50884335Y-123197467D01*
X50735812Y-123060174D01*
X50683295Y-123027038D01*
X50569566Y-122955280D01*
X50569564Y-122955279D01*
X50564757Y-122952246D01*
X50376898Y-122877298D01*
X50371317Y-122876188D01*
X50371314Y-122876187D01*
X50303373Y-122862673D01*
X50178526Y-122837839D01*
X50172839Y-122837765D01*
X50172834Y-122837764D01*
X49981975Y-122835266D01*
X49981970Y-122835266D01*
X49976286Y-122835192D01*
X49970682Y-122836155D01*
X49970681Y-122836155D01*
X49782546Y-122868482D01*
X49782543Y-122868483D01*
X49776949Y-122869444D01*
X49755660Y-122877298D01*
X49592521Y-122937483D01*
X49592517Y-122937485D01*
X49587193Y-122939449D01*
X49582310Y-122942354D01*
X49582308Y-122942355D01*
X49442315Y-123025642D01*
X49413371Y-123042862D01*
X49261305Y-123176220D01*
X49136089Y-123335057D01*
X49041914Y-123514053D01*
X49040229Y-123519479D01*
X49040228Y-123519482D01*
X49008658Y-123621157D01*
X48981937Y-123707213D01*
X48958164Y-123908069D01*
X48700500Y-123908069D01*
X48700500Y-121368069D01*
X48958164Y-121368069D01*
X48958535Y-121373731D01*
X48958535Y-121373735D01*
X48963799Y-121454043D01*
X48971392Y-121569894D01*
X49021178Y-121765928D01*
X49023554Y-121771082D01*
X49051666Y-121832060D01*
X49105856Y-121949607D01*
X49222588Y-122114780D01*
X49367466Y-122255913D01*
X49535637Y-122368282D01*
X49721470Y-122448122D01*
X49802627Y-122466486D01*
X49913193Y-122491505D01*
X49913195Y-122491505D01*
X49918740Y-122492760D01*
X50036135Y-122497372D01*
X50115161Y-122500477D01*
X50115163Y-122500477D01*
X50120842Y-122500700D01*
X50126462Y-122499885D01*
X50126465Y-122499885D01*
X50315387Y-122472493D01*
X50315389Y-122472493D01*
X50321007Y-122471678D01*
X50326384Y-122469853D01*
X50326387Y-122469852D01*
X50439429Y-122431479D01*
X50512531Y-122406664D01*
X50689001Y-122307837D01*
X50719461Y-122282504D01*
X50840138Y-122182137D01*
X50844505Y-122178505D01*
X50935665Y-122068898D01*
X50970206Y-122027367D01*
X50970207Y-122027366D01*
X50973837Y-122023001D01*
X51072664Y-121846531D01*
X51118153Y-121712526D01*
X51135852Y-121660387D01*
X51135853Y-121660384D01*
X51137678Y-121655007D01*
X51139322Y-121643669D01*
X51166176Y-121458458D01*
X51166176Y-121458453D01*
X51166700Y-121454842D01*
X51168215Y-121397000D01*
X51149708Y-121195591D01*
X51101913Y-121026122D01*
X51096352Y-121006403D01*
X51096351Y-121006400D01*
X51094807Y-121000926D01*
X51005351Y-120819527D01*
X50884335Y-120657467D01*
X50735812Y-120520174D01*
X50687300Y-120489565D01*
X50569566Y-120415280D01*
X50569564Y-120415279D01*
X50564757Y-120412246D01*
X50376898Y-120337298D01*
X50371317Y-120336188D01*
X50371314Y-120336187D01*
X50303373Y-120322673D01*
X50178526Y-120297839D01*
X50172839Y-120297765D01*
X50172834Y-120297764D01*
X49981975Y-120295266D01*
X49981970Y-120295266D01*
X49976286Y-120295192D01*
X49970682Y-120296155D01*
X49970681Y-120296155D01*
X49782546Y-120328482D01*
X49782543Y-120328483D01*
X49776949Y-120329444D01*
X49755660Y-120337298D01*
X49592521Y-120397483D01*
X49592517Y-120397485D01*
X49587193Y-120399449D01*
X49582310Y-120402354D01*
X49582308Y-120402355D01*
X49565683Y-120412246D01*
X49413371Y-120502862D01*
X49261305Y-120636220D01*
X49136089Y-120795057D01*
X49041914Y-120974053D01*
X49040229Y-120979479D01*
X49040228Y-120979482D01*
X49025746Y-121026122D01*
X48981937Y-121167213D01*
X48958164Y-121368069D01*
X48700500Y-121368069D01*
X48700500Y-118828069D01*
X48958164Y-118828069D01*
X48958535Y-118833731D01*
X48958535Y-118833735D01*
X48963851Y-118914842D01*
X48971392Y-119029894D01*
X49021178Y-119225928D01*
X49105856Y-119409607D01*
X49222588Y-119574780D01*
X49367466Y-119715913D01*
X49535637Y-119828282D01*
X49721470Y-119908122D01*
X49747858Y-119914093D01*
X49913193Y-119951505D01*
X49913195Y-119951505D01*
X49918740Y-119952760D01*
X50036135Y-119957372D01*
X50115161Y-119960477D01*
X50115163Y-119960477D01*
X50120842Y-119960700D01*
X50126462Y-119959885D01*
X50126465Y-119959885D01*
X50315387Y-119932493D01*
X50315389Y-119932493D01*
X50321007Y-119931678D01*
X50326384Y-119929853D01*
X50326387Y-119929852D01*
X50476196Y-119878998D01*
X50512531Y-119866664D01*
X50613897Y-119809897D01*
X50684048Y-119770611D01*
X50684050Y-119770610D01*
X50689001Y-119767837D01*
X50751433Y-119715913D01*
X50840138Y-119642137D01*
X50844505Y-119638505D01*
X50973837Y-119483001D01*
X50988177Y-119457396D01*
X51069886Y-119311491D01*
X51072664Y-119306531D01*
X51127772Y-119144190D01*
X51135852Y-119120387D01*
X51135853Y-119120384D01*
X51137678Y-119115007D01*
X51154707Y-118997560D01*
X51166176Y-118918458D01*
X51166176Y-118918453D01*
X51166700Y-118914842D01*
X51168215Y-118857000D01*
X51149708Y-118655591D01*
X51111103Y-118518708D01*
X51096352Y-118466403D01*
X51096351Y-118466400D01*
X51094807Y-118460926D01*
X51005351Y-118279527D01*
X50884335Y-118117467D01*
X50735812Y-117980174D01*
X50564757Y-117872246D01*
X50376898Y-117797298D01*
X50371317Y-117796188D01*
X50371314Y-117796187D01*
X50303373Y-117782673D01*
X50178526Y-117757839D01*
X50172839Y-117757765D01*
X50172834Y-117757764D01*
X49981975Y-117755266D01*
X49981970Y-117755266D01*
X49976286Y-117755192D01*
X49970682Y-117756155D01*
X49970681Y-117756155D01*
X49782546Y-117788482D01*
X49782543Y-117788483D01*
X49776949Y-117789444D01*
X49755660Y-117797298D01*
X49592521Y-117857483D01*
X49592517Y-117857485D01*
X49587193Y-117859449D01*
X49582310Y-117862354D01*
X49582308Y-117862355D01*
X49565683Y-117872246D01*
X49413371Y-117962862D01*
X49261305Y-118096220D01*
X49136089Y-118255057D01*
X49041914Y-118434053D01*
X49040229Y-118439479D01*
X49040228Y-118439482D01*
X49012404Y-118529093D01*
X48981937Y-118627213D01*
X48958164Y-118828069D01*
X48700500Y-118828069D01*
X48700500Y-116288069D01*
X48958164Y-116288069D01*
X48958535Y-116293731D01*
X48958535Y-116293735D01*
X48963851Y-116374842D01*
X48971392Y-116489894D01*
X49021178Y-116685928D01*
X49105856Y-116869607D01*
X49222588Y-117034780D01*
X49367466Y-117175913D01*
X49535637Y-117288282D01*
X49721470Y-117368122D01*
X49817502Y-117389852D01*
X49913193Y-117411505D01*
X49913195Y-117411505D01*
X49918740Y-117412760D01*
X50036135Y-117417372D01*
X50115161Y-117420477D01*
X50115163Y-117420477D01*
X50120842Y-117420700D01*
X50126462Y-117419885D01*
X50126465Y-117419885D01*
X50315387Y-117392493D01*
X50315389Y-117392493D01*
X50321007Y-117391678D01*
X50326384Y-117389853D01*
X50326387Y-117389852D01*
X50411090Y-117361099D01*
X50512531Y-117326664D01*
X50689001Y-117227837D01*
X50751433Y-117175913D01*
X50840138Y-117102137D01*
X50844505Y-117098505D01*
X50973837Y-116943001D01*
X51072664Y-116766531D01*
X51137678Y-116575007D01*
X51166700Y-116374842D01*
X51168215Y-116317000D01*
X51149708Y-116115591D01*
X51094807Y-115920926D01*
X51005351Y-115739527D01*
X50884335Y-115577467D01*
X50735812Y-115440174D01*
X50564757Y-115332246D01*
X50376898Y-115257298D01*
X50371317Y-115256188D01*
X50371314Y-115256187D01*
X50303373Y-115242673D01*
X50178526Y-115217839D01*
X50172839Y-115217765D01*
X50172834Y-115217764D01*
X49981975Y-115215266D01*
X49981970Y-115215266D01*
X49976286Y-115215192D01*
X49970682Y-115216155D01*
X49970681Y-115216155D01*
X49782546Y-115248482D01*
X49782543Y-115248483D01*
X49776949Y-115249444D01*
X49755660Y-115257298D01*
X49592521Y-115317483D01*
X49592517Y-115317485D01*
X49587193Y-115319449D01*
X49582310Y-115322354D01*
X49582308Y-115322355D01*
X49565683Y-115332246D01*
X49413371Y-115422862D01*
X49261305Y-115556220D01*
X49136089Y-115715057D01*
X49041914Y-115894053D01*
X49040229Y-115899479D01*
X49040228Y-115899482D01*
X49033570Y-115920926D01*
X48981937Y-116087213D01*
X48958164Y-116288069D01*
X48700500Y-116288069D01*
X48700500Y-113748069D01*
X48958164Y-113748069D01*
X48958535Y-113753731D01*
X48958535Y-113753735D01*
X48963851Y-113834842D01*
X48971392Y-113949894D01*
X49021178Y-114145928D01*
X49105856Y-114329607D01*
X49222588Y-114494780D01*
X49367466Y-114635913D01*
X49535637Y-114748282D01*
X49721470Y-114828122D01*
X49817502Y-114849852D01*
X49913193Y-114871505D01*
X49913195Y-114871505D01*
X49918740Y-114872760D01*
X50036135Y-114877372D01*
X50115161Y-114880477D01*
X50115163Y-114880477D01*
X50120842Y-114880700D01*
X50126462Y-114879885D01*
X50126465Y-114879885D01*
X50315387Y-114852493D01*
X50315389Y-114852493D01*
X50321007Y-114851678D01*
X50326384Y-114849853D01*
X50326387Y-114849852D01*
X50411090Y-114821099D01*
X50512531Y-114786664D01*
X50689001Y-114687837D01*
X50751433Y-114635913D01*
X50840138Y-114562137D01*
X50844505Y-114558505D01*
X50973837Y-114403001D01*
X51072664Y-114226531D01*
X51137678Y-114035007D01*
X51166700Y-113834842D01*
X51168215Y-113777000D01*
X51149708Y-113575591D01*
X51118632Y-113465405D01*
X51096352Y-113386403D01*
X51096351Y-113386400D01*
X51094807Y-113380926D01*
X51005351Y-113199527D01*
X50884335Y-113037467D01*
X50822697Y-112980490D01*
X50739988Y-112904034D01*
X50739986Y-112904033D01*
X50735812Y-112900174D01*
X50564757Y-112792246D01*
X50376898Y-112717298D01*
X50371317Y-112716188D01*
X50371314Y-112716187D01*
X50303373Y-112702673D01*
X50178526Y-112677839D01*
X50172839Y-112677765D01*
X50172834Y-112677764D01*
X49981975Y-112675266D01*
X49981970Y-112675266D01*
X49976286Y-112675192D01*
X49970682Y-112676155D01*
X49970681Y-112676155D01*
X49782546Y-112708482D01*
X49782543Y-112708483D01*
X49776949Y-112709444D01*
X49755660Y-112717298D01*
X49592521Y-112777483D01*
X49592517Y-112777485D01*
X49587193Y-112779449D01*
X49582310Y-112782354D01*
X49582308Y-112782355D01*
X49565683Y-112792246D01*
X49413371Y-112882862D01*
X49261305Y-113016220D01*
X49136089Y-113175057D01*
X49041914Y-113354053D01*
X49040229Y-113359479D01*
X49040228Y-113359482D01*
X49033570Y-113380926D01*
X48981937Y-113547213D01*
X48958164Y-113748069D01*
X48700500Y-113748069D01*
X48700500Y-111208069D01*
X48958164Y-111208069D01*
X48958535Y-111213731D01*
X48958535Y-111213735D01*
X48963851Y-111294842D01*
X48971392Y-111409894D01*
X49021178Y-111605928D01*
X49105856Y-111789607D01*
X49222588Y-111954780D01*
X49367466Y-112095913D01*
X49535637Y-112208282D01*
X49721470Y-112288122D01*
X49817502Y-112309852D01*
X49913193Y-112331505D01*
X49913195Y-112331505D01*
X49918740Y-112332760D01*
X50036135Y-112337372D01*
X50115161Y-112340477D01*
X50115163Y-112340477D01*
X50120842Y-112340700D01*
X50126462Y-112339885D01*
X50126465Y-112339885D01*
X50315387Y-112312493D01*
X50315389Y-112312493D01*
X50321007Y-112311678D01*
X50326384Y-112309853D01*
X50326387Y-112309852D01*
X50411090Y-112281099D01*
X50512531Y-112246664D01*
X50689001Y-112147837D01*
X50751433Y-112095913D01*
X50840138Y-112022137D01*
X50844505Y-112018505D01*
X50973837Y-111863001D01*
X51072664Y-111686531D01*
X51137678Y-111495007D01*
X51150840Y-111404228D01*
X51166176Y-111298458D01*
X51166176Y-111298453D01*
X51166700Y-111294842D01*
X51168215Y-111237000D01*
X51149708Y-111035591D01*
X51094807Y-110840926D01*
X51005351Y-110659527D01*
X50884335Y-110497467D01*
X50735812Y-110360174D01*
X50698727Y-110336775D01*
X50569566Y-110255280D01*
X50569564Y-110255279D01*
X50564757Y-110252246D01*
X50376898Y-110177298D01*
X50371317Y-110176188D01*
X50371314Y-110176187D01*
X50303373Y-110162673D01*
X50178526Y-110137839D01*
X50172839Y-110137765D01*
X50172834Y-110137764D01*
X49981975Y-110135266D01*
X49981970Y-110135266D01*
X49976286Y-110135192D01*
X49970682Y-110136155D01*
X49970681Y-110136155D01*
X49782546Y-110168482D01*
X49782543Y-110168483D01*
X49776949Y-110169444D01*
X49755660Y-110177298D01*
X49592521Y-110237483D01*
X49592517Y-110237485D01*
X49587193Y-110239449D01*
X49582310Y-110242354D01*
X49582308Y-110242355D01*
X49565683Y-110252246D01*
X49413371Y-110342862D01*
X49261305Y-110476220D01*
X49136089Y-110635057D01*
X49041914Y-110814053D01*
X49040229Y-110819479D01*
X49040228Y-110819482D01*
X49033570Y-110840926D01*
X48981937Y-111007213D01*
X48958164Y-111208069D01*
X48700500Y-111208069D01*
X48700500Y-108668069D01*
X48958164Y-108668069D01*
X48958535Y-108673731D01*
X48958535Y-108673735D01*
X48963851Y-108754842D01*
X48971392Y-108869894D01*
X49021178Y-109065928D01*
X49105856Y-109249607D01*
X49222588Y-109414780D01*
X49367466Y-109555913D01*
X49535637Y-109668282D01*
X49721470Y-109748122D01*
X49733239Y-109750785D01*
X49913193Y-109791505D01*
X49913195Y-109791505D01*
X49918740Y-109792760D01*
X50036135Y-109797372D01*
X50115161Y-109800477D01*
X50115163Y-109800477D01*
X50120842Y-109800700D01*
X50126462Y-109799885D01*
X50126465Y-109799885D01*
X50315387Y-109772493D01*
X50315389Y-109772493D01*
X50321007Y-109771678D01*
X50326384Y-109769853D01*
X50326387Y-109769852D01*
X50411090Y-109741099D01*
X50512531Y-109706664D01*
X50689001Y-109607837D01*
X50751433Y-109555913D01*
X50840138Y-109482137D01*
X50844505Y-109478505D01*
X50920707Y-109386883D01*
X50970206Y-109327367D01*
X50970207Y-109327366D01*
X50973837Y-109323001D01*
X51072664Y-109146531D01*
X51137678Y-108955007D01*
X51166700Y-108754842D01*
X51168215Y-108697000D01*
X51149708Y-108495591D01*
X51094807Y-108300926D01*
X51005351Y-108119527D01*
X50884335Y-107957467D01*
X50735812Y-107820174D01*
X50564757Y-107712246D01*
X50376898Y-107637298D01*
X50371317Y-107636188D01*
X50371314Y-107636187D01*
X50303373Y-107622673D01*
X50178526Y-107597839D01*
X50172839Y-107597765D01*
X50172834Y-107597764D01*
X49981975Y-107595266D01*
X49981970Y-107595266D01*
X49976286Y-107595192D01*
X49970682Y-107596155D01*
X49970681Y-107596155D01*
X49782546Y-107628482D01*
X49782543Y-107628483D01*
X49776949Y-107629444D01*
X49755660Y-107637298D01*
X49592521Y-107697483D01*
X49592517Y-107697485D01*
X49587193Y-107699449D01*
X49582310Y-107702354D01*
X49582308Y-107702355D01*
X49565683Y-107712246D01*
X49413371Y-107802862D01*
X49261305Y-107936220D01*
X49136089Y-108095057D01*
X49041914Y-108274053D01*
X49040229Y-108279479D01*
X49040228Y-108279482D01*
X49033570Y-108300926D01*
X48981937Y-108467213D01*
X48958164Y-108668069D01*
X48700500Y-108668069D01*
X48700500Y-106128069D01*
X48958164Y-106128069D01*
X48958535Y-106133731D01*
X48958535Y-106133735D01*
X48963851Y-106214842D01*
X48971392Y-106329894D01*
X49021178Y-106525928D01*
X49105856Y-106709607D01*
X49222588Y-106874780D01*
X49367466Y-107015913D01*
X49535637Y-107128282D01*
X49721470Y-107208122D01*
X49817502Y-107229852D01*
X49913193Y-107251505D01*
X49913195Y-107251505D01*
X49918740Y-107252760D01*
X50036135Y-107257372D01*
X50115161Y-107260477D01*
X50115163Y-107260477D01*
X50120842Y-107260700D01*
X50126462Y-107259885D01*
X50126465Y-107259885D01*
X50315387Y-107232493D01*
X50315389Y-107232493D01*
X50321007Y-107231678D01*
X50326384Y-107229853D01*
X50326387Y-107229852D01*
X50411090Y-107201099D01*
X50512531Y-107166664D01*
X50689001Y-107067837D01*
X50751433Y-107015913D01*
X50840138Y-106942137D01*
X50844505Y-106938505D01*
X50973837Y-106783001D01*
X51072664Y-106606531D01*
X51137678Y-106415007D01*
X51166700Y-106214842D01*
X51168215Y-106157000D01*
X51149708Y-105955591D01*
X51094807Y-105760926D01*
X51005351Y-105579527D01*
X50884335Y-105417467D01*
X50735812Y-105280174D01*
X50564757Y-105172246D01*
X50376898Y-105097298D01*
X50371317Y-105096188D01*
X50371314Y-105096187D01*
X50303373Y-105082673D01*
X50178526Y-105057839D01*
X50172839Y-105057765D01*
X50172834Y-105057764D01*
X49981975Y-105055266D01*
X49981970Y-105055266D01*
X49976286Y-105055192D01*
X49970682Y-105056155D01*
X49970681Y-105056155D01*
X49782546Y-105088482D01*
X49782543Y-105088483D01*
X49776949Y-105089444D01*
X49755660Y-105097298D01*
X49592521Y-105157483D01*
X49592517Y-105157485D01*
X49587193Y-105159449D01*
X49582310Y-105162354D01*
X49582308Y-105162355D01*
X49565683Y-105172246D01*
X49413371Y-105262862D01*
X49261305Y-105396220D01*
X49136089Y-105555057D01*
X49041914Y-105734053D01*
X49040229Y-105739479D01*
X49040228Y-105739482D01*
X49033570Y-105760926D01*
X48981937Y-105927213D01*
X48958164Y-106128069D01*
X48700500Y-106128069D01*
X48700500Y-103216569D01*
X48720185Y-103149530D01*
X48736819Y-103128888D01*
X48874942Y-102990765D01*
X48936265Y-102957280D01*
X49005957Y-102962264D01*
X49061890Y-103004136D01*
X49086307Y-103069600D01*
X49072361Y-103136182D01*
X49044564Y-103189015D01*
X49044562Y-103189021D01*
X49041914Y-103194053D01*
X49040229Y-103199479D01*
X49040228Y-103199482D01*
X49024680Y-103249555D01*
X48981937Y-103387213D01*
X48958164Y-103588069D01*
X48958535Y-103593731D01*
X48958535Y-103593735D01*
X48963851Y-103674842D01*
X48971392Y-103789894D01*
X49021178Y-103985928D01*
X49105856Y-104169607D01*
X49222588Y-104334780D01*
X49367466Y-104475913D01*
X49535637Y-104588282D01*
X49721470Y-104668122D01*
X49817502Y-104689852D01*
X49913193Y-104711505D01*
X49913195Y-104711505D01*
X49918740Y-104712760D01*
X50036135Y-104717372D01*
X50115161Y-104720477D01*
X50115163Y-104720477D01*
X50120842Y-104720700D01*
X50126462Y-104719885D01*
X50126465Y-104719885D01*
X50315387Y-104692493D01*
X50315389Y-104692493D01*
X50321007Y-104691678D01*
X50326384Y-104689853D01*
X50326387Y-104689852D01*
X50411090Y-104661099D01*
X50512531Y-104626664D01*
X50689001Y-104527837D01*
X50751433Y-104475913D01*
X50840138Y-104402137D01*
X50844505Y-104398505D01*
X50973837Y-104243001D01*
X51072664Y-104066531D01*
X51137678Y-103875007D01*
X51166700Y-103674842D01*
X51168215Y-103617000D01*
X51155970Y-103483739D01*
X51169438Y-103415180D01*
X51217834Y-103364785D01*
X51279450Y-103348393D01*
X51639716Y-103348393D01*
X51706755Y-103368078D01*
X51752510Y-103420882D01*
X51763716Y-103472393D01*
X51763716Y-171956012D01*
X51761333Y-171980203D01*
X51758808Y-171992897D01*
X51761191Y-172004876D01*
X51761191Y-172012446D01*
X51760594Y-172024600D01*
X51750512Y-172126964D01*
X51745770Y-172150804D01*
X51728042Y-172209248D01*
X51715695Y-172249953D01*
X51710210Y-172268034D01*
X51700907Y-172290493D01*
X51643156Y-172398538D01*
X51629652Y-172418748D01*
X51551945Y-172513437D01*
X51534757Y-172530626D01*
X51440057Y-172608346D01*
X51419845Y-172621852D01*
X51311803Y-172679603D01*
X51289346Y-172688905D01*
X51172123Y-172724466D01*
X51148282Y-172729209D01*
X51046110Y-172739274D01*
X51033954Y-172739871D01*
X51026192Y-172739871D01*
X51014212Y-172737488D01*
X51001518Y-172740013D01*
X50977326Y-172742396D01*
X21051101Y-172742396D01*
X21026912Y-172740014D01*
X21026189Y-172739870D01*
X21026188Y-172739870D01*
X21014212Y-172737488D01*
X21002235Y-172739871D01*
X20994662Y-172739871D01*
X20982509Y-172739274D01*
X20880146Y-172729194D01*
X20856307Y-172724453D01*
X20739076Y-172688892D01*
X20716618Y-172679590D01*
X20608579Y-172621844D01*
X20588367Y-172608339D01*
X20493669Y-172530624D01*
X20476480Y-172513435D01*
X20398765Y-172418740D01*
X20385263Y-172398532D01*
X20342236Y-172318035D01*
X20327514Y-172290492D01*
X20318213Y-172268036D01*
X20282651Y-172150805D01*
X20277908Y-172126963D01*
X20267838Y-172024721D01*
X20267241Y-172012567D01*
X20267241Y-172004876D01*
X20269624Y-171992897D01*
X20267099Y-171980203D01*
X20264716Y-171956012D01*
X20264716Y-171472285D01*
X21885447Y-171472285D01*
X21893456Y-171483117D01*
X22153971Y-171683017D01*
X22159503Y-171686805D01*
X22455304Y-171866655D01*
X22461198Y-171869817D01*
X22774715Y-172016679D01*
X22780901Y-172019178D01*
X23108436Y-172131317D01*
X23114882Y-172133141D01*
X23452593Y-172209248D01*
X23459202Y-172210366D01*
X23803161Y-172249555D01*
X23809856Y-172249953D01*
X24156027Y-172251765D01*
X24162727Y-172251438D01*
X24507062Y-172215854D01*
X24513704Y-172214802D01*
X24852182Y-172142238D01*
X24858655Y-172140480D01*
X25187324Y-172031783D01*
X25193574Y-172029333D01*
X25508590Y-171885773D01*
X25514510Y-171882678D01*
X25812187Y-171705931D01*
X25817757Y-171702201D01*
X26094603Y-171494339D01*
X26099716Y-171490049D01*
X26106448Y-171483750D01*
X26114390Y-171470286D01*
X26114362Y-171469573D01*
X26109303Y-171461406D01*
X24012607Y-169364710D01*
X23998887Y-169357218D01*
X23997081Y-169357347D01*
X23990574Y-169361529D01*
X21892217Y-171459886D01*
X21885447Y-171472285D01*
X20264716Y-171472285D01*
X20264716Y-168984855D01*
X20737405Y-168984855D01*
X20754919Y-169330585D01*
X20755622Y-169337272D01*
X20810370Y-169679077D01*
X20811790Y-169685646D01*
X20903135Y-170019546D01*
X20905253Y-170025912D01*
X21032133Y-170348019D01*
X21034910Y-170354085D01*
X21195843Y-170660615D01*
X21199267Y-170666360D01*
X21392351Y-170953699D01*
X21396390Y-170959058D01*
X21512097Y-171096464D01*
X21524633Y-171104773D01*
X21534909Y-171098774D01*
X23628183Y-169005500D01*
X23634459Y-168994006D01*
X24364325Y-168994006D01*
X24364454Y-168995812D01*
X24368636Y-169002319D01*
X26463758Y-171097441D01*
X26477138Y-171104747D01*
X26486594Y-171098155D01*
X26582891Y-170986200D01*
X26586965Y-170980909D01*
X26783059Y-170695591D01*
X26786540Y-170689888D01*
X26950662Y-170385080D01*
X26953522Y-170379001D01*
X27083758Y-170058271D01*
X27085945Y-170051920D01*
X27180784Y-169718985D01*
X27182269Y-169712449D01*
X27240595Y-169371223D01*
X27241367Y-169364556D01*
X27262596Y-169017461D01*
X27262711Y-169013869D01*
X27262779Y-168994694D01*
X27262688Y-168991107D01*
X27243882Y-168643855D01*
X27243159Y-168637207D01*
X27187215Y-168295572D01*
X27185774Y-168289020D01*
X27093260Y-167955426D01*
X27091126Y-167949084D01*
X26963126Y-167627433D01*
X26960311Y-167621342D01*
X26798327Y-167315406D01*
X26794865Y-167309646D01*
X26600785Y-167022991D01*
X26596742Y-167017665D01*
X26487905Y-166889328D01*
X26475283Y-166881025D01*
X26465122Y-166886981D01*
X24371817Y-168980286D01*
X24364325Y-168994006D01*
X23634459Y-168994006D01*
X23635675Y-168991780D01*
X23635546Y-168989974D01*
X23631364Y-168983467D01*
X21536252Y-166888355D01*
X21522933Y-166881082D01*
X21513383Y-166887764D01*
X21410186Y-167008592D01*
X21406098Y-167013939D01*
X21211022Y-167299909D01*
X21207550Y-167305641D01*
X21044487Y-167611032D01*
X21041668Y-167617077D01*
X20912537Y-167938301D01*
X20910380Y-167944635D01*
X20816699Y-168277915D01*
X20815239Y-168284449D01*
X20758103Y-168625882D01*
X20757356Y-168632546D01*
X20737428Y-168978152D01*
X20737405Y-168984855D01*
X20264716Y-168984855D01*
X20264716Y-166515108D01*
X21885240Y-166515108D01*
X21885275Y-166515936D01*
X21890245Y-166523928D01*
X23987393Y-168621076D01*
X24001113Y-168628568D01*
X24002919Y-168628439D01*
X24009426Y-168624257D01*
X26107636Y-166526047D01*
X26115128Y-166512327D01*
X26115060Y-166511384D01*
X26111150Y-166505471D01*
X25836625Y-166296339D01*
X25831084Y-166292574D01*
X25534657Y-166113758D01*
X25528742Y-166110613D01*
X25214744Y-165964859D01*
X25208508Y-165962365D01*
X24880604Y-165851376D01*
X24874158Y-165849576D01*
X24536174Y-165774647D01*
X24529555Y-165773551D01*
X24185462Y-165735562D01*
X24178789Y-165735189D01*
X23832591Y-165734586D01*
X23825905Y-165734936D01*
X23481670Y-165771724D01*
X23475074Y-165772793D01*
X23136825Y-165846542D01*
X23130361Y-165848323D01*
X22802078Y-165958165D01*
X22795833Y-165960638D01*
X22481340Y-166105288D01*
X22475393Y-166108423D01*
X22178343Y-166286205D01*
X22172812Y-166289935D01*
X21896686Y-166498767D01*
X21892959Y-166501917D01*
X21885240Y-166515108D01*
X20264716Y-166515108D01*
X20264716Y-160003890D01*
X25828953Y-160003890D01*
X25837642Y-160015326D01*
X26060657Y-160177356D01*
X26067246Y-160181538D01*
X26336947Y-160329807D01*
X26343990Y-160333121D01*
X26630160Y-160446424D01*
X26637560Y-160448829D01*
X26935666Y-160525370D01*
X26943324Y-160526831D01*
X27248675Y-160565405D01*
X27256436Y-160565893D01*
X27564226Y-160565893D01*
X27571987Y-160565405D01*
X27877338Y-160526831D01*
X27884996Y-160525370D01*
X28183102Y-160448829D01*
X28190502Y-160446424D01*
X28476672Y-160333121D01*
X28483715Y-160329807D01*
X28753416Y-160181538D01*
X28760005Y-160177356D01*
X28983383Y-160015062D01*
X28991675Y-160004309D01*
X28984882Y-159991654D01*
X27422938Y-158429710D01*
X27409218Y-158422218D01*
X27407412Y-158422347D01*
X27400905Y-158426529D01*
X25835460Y-159991974D01*
X25828953Y-160003890D01*
X20264716Y-160003890D01*
X20264716Y-158061787D01*
X24897617Y-158061787D01*
X24916942Y-158368957D01*
X24917917Y-158376677D01*
X24975591Y-158679011D01*
X24977526Y-158686550D01*
X25072637Y-158979271D01*
X25075497Y-158986495D01*
X25206552Y-159265001D01*
X25210294Y-159271807D01*
X25375214Y-159531679D01*
X25379788Y-159537975D01*
X25455010Y-159628903D01*
X25467330Y-159637225D01*
X25477897Y-159631117D01*
X27038514Y-158070500D01*
X27044790Y-158059006D01*
X27774656Y-158059006D01*
X27774785Y-158060812D01*
X27778967Y-158067319D01*
X29341681Y-159630033D01*
X29354731Y-159637159D01*
X29364674Y-159630085D01*
X29440874Y-159537975D01*
X29445448Y-159531679D01*
X29610368Y-159271807D01*
X29614110Y-159265001D01*
X29745165Y-158986495D01*
X29748025Y-158979271D01*
X29843136Y-158686550D01*
X29845071Y-158679011D01*
X29902745Y-158376677D01*
X29903720Y-158368957D01*
X29923045Y-158061787D01*
X29923045Y-158053999D01*
X29903720Y-157746829D01*
X29902745Y-157739109D01*
X29845071Y-157436775D01*
X29843136Y-157429236D01*
X29748025Y-157136515D01*
X29745165Y-157129291D01*
X29614110Y-156850785D01*
X29610368Y-156843979D01*
X29445448Y-156584107D01*
X29440874Y-156577811D01*
X29365652Y-156486883D01*
X29353332Y-156478561D01*
X29342765Y-156484669D01*
X27782148Y-158045286D01*
X27774656Y-158059006D01*
X27044790Y-158059006D01*
X27046006Y-158056780D01*
X27045877Y-158054974D01*
X27041695Y-158048467D01*
X25478981Y-156485753D01*
X25465931Y-156478627D01*
X25455988Y-156485701D01*
X25379788Y-156577811D01*
X25375214Y-156584107D01*
X25210294Y-156843979D01*
X25206552Y-156850785D01*
X25075497Y-157129291D01*
X25072637Y-157136515D01*
X24977526Y-157429236D01*
X24975591Y-157436775D01*
X24917917Y-157739109D01*
X24916942Y-157746829D01*
X24897617Y-158053999D01*
X24897617Y-158061787D01*
X20264716Y-158061787D01*
X20264716Y-156111477D01*
X25828987Y-156111477D01*
X25835780Y-156124132D01*
X27397724Y-157686076D01*
X27411444Y-157693568D01*
X27413250Y-157693439D01*
X27419757Y-157689257D01*
X28985202Y-156123812D01*
X28991709Y-156111896D01*
X28983020Y-156100460D01*
X28760005Y-155938430D01*
X28753416Y-155934248D01*
X28483715Y-155785979D01*
X28476672Y-155782665D01*
X28190502Y-155669362D01*
X28183102Y-155666957D01*
X27884996Y-155590416D01*
X27877338Y-155588955D01*
X27571987Y-155550381D01*
X27564226Y-155549893D01*
X27256436Y-155549893D01*
X27248675Y-155550381D01*
X26943324Y-155588955D01*
X26935666Y-155590416D01*
X26637560Y-155666957D01*
X26630160Y-155669362D01*
X26343990Y-155782665D01*
X26336947Y-155785979D01*
X26067246Y-155934248D01*
X26060657Y-155938430D01*
X25837279Y-156100724D01*
X25828987Y-156111477D01*
X20264716Y-156111477D01*
X20264716Y-155311726D01*
X48705001Y-155311726D01*
X48705364Y-155318431D01*
X48710908Y-155369477D01*
X48714478Y-155384488D01*
X48759727Y-155505190D01*
X48768126Y-155520532D01*
X48844798Y-155622835D01*
X48857165Y-155635202D01*
X48959468Y-155711874D01*
X48974810Y-155720273D01*
X49095515Y-155765524D01*
X49110518Y-155769091D01*
X49161573Y-155774637D01*
X49168271Y-155775000D01*
X49791170Y-155775000D01*
X49806169Y-155770596D01*
X49807356Y-155769226D01*
X49809000Y-155761668D01*
X49809000Y-155757169D01*
X50317000Y-155757169D01*
X50321404Y-155772168D01*
X50322774Y-155773355D01*
X50330332Y-155774999D01*
X50957726Y-155774999D01*
X50964431Y-155774636D01*
X51015477Y-155769092D01*
X51030488Y-155765522D01*
X51151190Y-155720273D01*
X51166532Y-155711874D01*
X51268835Y-155635202D01*
X51281202Y-155622835D01*
X51357874Y-155520532D01*
X51366273Y-155505190D01*
X51411524Y-155384485D01*
X51415091Y-155369482D01*
X51420637Y-155318427D01*
X51421000Y-155311729D01*
X51421000Y-154688830D01*
X51416596Y-154673831D01*
X51415226Y-154672644D01*
X51407668Y-154671000D01*
X50334830Y-154671000D01*
X50319831Y-154675404D01*
X50318644Y-154676774D01*
X50317000Y-154684332D01*
X50317000Y-155757169D01*
X49809000Y-155757169D01*
X49809000Y-154688830D01*
X49804596Y-154673831D01*
X49803226Y-154672644D01*
X49795668Y-154671000D01*
X48722831Y-154671000D01*
X48707832Y-154675404D01*
X48706645Y-154676774D01*
X48705001Y-154684332D01*
X48705001Y-155311726D01*
X20264716Y-155311726D01*
X20264716Y-151113155D01*
X27774851Y-151113155D01*
X27792090Y-151318446D01*
X27848875Y-151516479D01*
X27943043Y-151699711D01*
X27946811Y-151704465D01*
X28065121Y-151853735D01*
X28071008Y-151861163D01*
X28075627Y-151865094D01*
X28223281Y-151990758D01*
X28223286Y-151990762D01*
X28227895Y-151994684D01*
X28407729Y-152095190D01*
X28603660Y-152158852D01*
X28609678Y-152159570D01*
X28609680Y-152159570D01*
X28751741Y-152176509D01*
X28808225Y-152183244D01*
X28814269Y-152182779D01*
X28814270Y-152182779D01*
X28875597Y-152178060D01*
X29013631Y-152167439D01*
X29149919Y-152129387D01*
X29206216Y-152113669D01*
X29206220Y-152113667D01*
X29212056Y-152112038D01*
X29395941Y-152019151D01*
X29558282Y-151892317D01*
X29562238Y-151887733D01*
X29562242Y-151887730D01*
X29688933Y-151740955D01*
X29692895Y-151736365D01*
X29713718Y-151699711D01*
X29791658Y-151562511D01*
X29794654Y-151557237D01*
X29859682Y-151361756D01*
X29865154Y-151318446D01*
X29885067Y-151160812D01*
X29885067Y-151160808D01*
X29885502Y-151157367D01*
X29885914Y-151127893D01*
X29865811Y-150922863D01*
X29821517Y-150776155D01*
X29808019Y-150731448D01*
X29806266Y-150725642D01*
X29709549Y-150543742D01*
X29579342Y-150384093D01*
X29547650Y-150357875D01*
X29425277Y-150256639D01*
X29425276Y-150256638D01*
X29420606Y-150252775D01*
X29262146Y-150167096D01*
X29244724Y-150157676D01*
X29244722Y-150157675D01*
X29239386Y-150154790D01*
X29230322Y-150151984D01*
X29099632Y-150111529D01*
X29042585Y-150093870D01*
X28837700Y-150072336D01*
X28831667Y-150072885D01*
X28831663Y-150072885D01*
X28706052Y-150084317D01*
X28632534Y-150091007D01*
X28626721Y-150092718D01*
X28626720Y-150092718D01*
X28440723Y-150147460D01*
X28434903Y-150149173D01*
X28363050Y-150186737D01*
X28257705Y-150241810D01*
X28257701Y-150241813D01*
X28252333Y-150244619D01*
X28247610Y-150248416D01*
X28247609Y-150248417D01*
X28115804Y-150354391D01*
X28091778Y-150373708D01*
X27959355Y-150531523D01*
X27860107Y-150712055D01*
X27858273Y-150717837D01*
X27858272Y-150717839D01*
X27802947Y-150892246D01*
X27797815Y-150908425D01*
X27774851Y-151113155D01*
X20264716Y-151113155D01*
X20264716Y-150828971D01*
X25268722Y-150828971D01*
X25277869Y-150840794D01*
X25329404Y-150876880D01*
X25338736Y-150882267D01*
X25536354Y-150974418D01*
X25546487Y-150978107D01*
X25757100Y-151034540D01*
X25767731Y-151036414D01*
X25984936Y-151055417D01*
X25995726Y-151055417D01*
X26212931Y-151036414D01*
X26223562Y-151034540D01*
X26434175Y-150978107D01*
X26444308Y-150974418D01*
X26641926Y-150882267D01*
X26651258Y-150876880D01*
X26703616Y-150840218D01*
X26711858Y-150829907D01*
X26704902Y-150816674D01*
X26002938Y-150114710D01*
X25989218Y-150107218D01*
X25987412Y-150107347D01*
X25980905Y-150111529D01*
X25275049Y-150817385D01*
X25268722Y-150828971D01*
X20264716Y-150828971D01*
X20264716Y-149748288D01*
X24677807Y-149748288D01*
X24696810Y-149965493D01*
X24698684Y-149976124D01*
X24755117Y-150186737D01*
X24758806Y-150196870D01*
X24850957Y-150394488D01*
X24856344Y-150403820D01*
X24893006Y-150456178D01*
X24903317Y-150464420D01*
X24916550Y-150457464D01*
X25618514Y-149755500D01*
X25624790Y-149744006D01*
X26354656Y-149744006D01*
X26354785Y-149745812D01*
X26358967Y-149752319D01*
X27064823Y-150458175D01*
X27076409Y-150464502D01*
X27088232Y-150455355D01*
X27124318Y-150403820D01*
X27129705Y-150394488D01*
X27221856Y-150196870D01*
X27225545Y-150186737D01*
X27281978Y-149976124D01*
X27283852Y-149965493D01*
X27302855Y-149748288D01*
X27302855Y-149737498D01*
X27283852Y-149520293D01*
X27281978Y-149509662D01*
X27225545Y-149299049D01*
X27221856Y-149288916D01*
X27129705Y-149091298D01*
X27124318Y-149081966D01*
X27087656Y-149029608D01*
X27077345Y-149021366D01*
X27064112Y-149028322D01*
X26362148Y-149730286D01*
X26354656Y-149744006D01*
X25624790Y-149744006D01*
X25626006Y-149741780D01*
X25625877Y-149739974D01*
X25621695Y-149733467D01*
X24915839Y-149027611D01*
X24904253Y-149021284D01*
X24892430Y-149030431D01*
X24856344Y-149081966D01*
X24850957Y-149091298D01*
X24758806Y-149288916D01*
X24755117Y-149299049D01*
X24698684Y-149509662D01*
X24696810Y-149520293D01*
X24677807Y-149737498D01*
X24677807Y-149748288D01*
X20264716Y-149748288D01*
X20264716Y-148058971D01*
X25268722Y-148058971D01*
X25277869Y-148070794D01*
X25329404Y-148106880D01*
X25338736Y-148112267D01*
X25536354Y-148204418D01*
X25546487Y-148208107D01*
X25658491Y-148238118D01*
X25718151Y-148274483D01*
X25748680Y-148337330D01*
X25740385Y-148406706D01*
X25695900Y-148460584D01*
X25658491Y-148477668D01*
X25546487Y-148507679D01*
X25536354Y-148511368D01*
X25338736Y-148603519D01*
X25329404Y-148608906D01*
X25277046Y-148645568D01*
X25268804Y-148655879D01*
X25275760Y-148669112D01*
X25977724Y-149371076D01*
X25991444Y-149378568D01*
X25993250Y-149378439D01*
X25999757Y-149374257D01*
X26705613Y-148668401D01*
X26711940Y-148656815D01*
X26702793Y-148644992D01*
X26651258Y-148608906D01*
X26641926Y-148603519D01*
X26444308Y-148511368D01*
X26434175Y-148507679D01*
X26322171Y-148477668D01*
X26262511Y-148441303D01*
X26231982Y-148378456D01*
X26236203Y-148343155D01*
X27774851Y-148343155D01*
X27792090Y-148548446D01*
X27848875Y-148746479D01*
X27943043Y-148929711D01*
X27946811Y-148934465D01*
X28063719Y-149081966D01*
X28071008Y-149091163D01*
X28075627Y-149095094D01*
X28223281Y-149220758D01*
X28223286Y-149220762D01*
X28227895Y-149224684D01*
X28407729Y-149325190D01*
X28603660Y-149388852D01*
X28609678Y-149389570D01*
X28609680Y-149389570D01*
X28684221Y-149398458D01*
X28808225Y-149413244D01*
X28814269Y-149412779D01*
X28814270Y-149412779D01*
X28875597Y-149408060D01*
X29013631Y-149397439D01*
X29108053Y-149371076D01*
X29206216Y-149343669D01*
X29206220Y-149343667D01*
X29212056Y-149342038D01*
X29395941Y-149249151D01*
X29558282Y-149122317D01*
X29562238Y-149117733D01*
X29562242Y-149117730D01*
X29688933Y-148970955D01*
X29692895Y-148966365D01*
X29707347Y-148940926D01*
X29791658Y-148792511D01*
X29794654Y-148787237D01*
X29859682Y-148591756D01*
X29865154Y-148548446D01*
X29885067Y-148390812D01*
X29885067Y-148390808D01*
X29885502Y-148387367D01*
X29885914Y-148357893D01*
X29874143Y-148237839D01*
X29866403Y-148158899D01*
X29866403Y-148158897D01*
X29865811Y-148152863D01*
X29806266Y-147955642D01*
X29760651Y-147869852D01*
X29712396Y-147779096D01*
X29712395Y-147779094D01*
X29709549Y-147773742D01*
X29579342Y-147614093D01*
X29562195Y-147599908D01*
X29425277Y-147486639D01*
X29425276Y-147486638D01*
X29420606Y-147482775D01*
X29310056Y-147423001D01*
X29244724Y-147387676D01*
X29244722Y-147387675D01*
X29239386Y-147384790D01*
X29230322Y-147381984D01*
X29048377Y-147325663D01*
X29048378Y-147325663D01*
X29042585Y-147323870D01*
X28837700Y-147302336D01*
X28831667Y-147302885D01*
X28831663Y-147302885D01*
X28706052Y-147314317D01*
X28632534Y-147321007D01*
X28626721Y-147322718D01*
X28626720Y-147322718D01*
X28519601Y-147354245D01*
X28434903Y-147379173D01*
X28363050Y-147416737D01*
X28257705Y-147471810D01*
X28257701Y-147471813D01*
X28252333Y-147474619D01*
X28247610Y-147478416D01*
X28247609Y-147478417D01*
X28118860Y-147581934D01*
X28091778Y-147603708D01*
X27959355Y-147761523D01*
X27860107Y-147942055D01*
X27858273Y-147947837D01*
X27858272Y-147947839D01*
X27806113Y-148112267D01*
X27797815Y-148138425D01*
X27791062Y-148198631D01*
X27782363Y-148276187D01*
X27774851Y-148343155D01*
X26236203Y-148343155D01*
X26240277Y-148309080D01*
X26284762Y-148255202D01*
X26322171Y-148238118D01*
X26434175Y-148208107D01*
X26444308Y-148204418D01*
X26641926Y-148112267D01*
X26651258Y-148106880D01*
X26703616Y-148070218D01*
X26711858Y-148059907D01*
X26704902Y-148046674D01*
X26002938Y-147344710D01*
X25989218Y-147337218D01*
X25987412Y-147337347D01*
X25980905Y-147341529D01*
X25275049Y-148047385D01*
X25268722Y-148058971D01*
X20264716Y-148058971D01*
X20264716Y-146978288D01*
X24677807Y-146978288D01*
X24696810Y-147195493D01*
X24698684Y-147206124D01*
X24755117Y-147416737D01*
X24758806Y-147426870D01*
X24850957Y-147624488D01*
X24856344Y-147633820D01*
X24893006Y-147686178D01*
X24903317Y-147694420D01*
X24916550Y-147687464D01*
X25618514Y-146985500D01*
X25624790Y-146974006D01*
X26354656Y-146974006D01*
X26354785Y-146975812D01*
X26358967Y-146982319D01*
X27064823Y-147688175D01*
X27076409Y-147694502D01*
X27088232Y-147685355D01*
X27124318Y-147633820D01*
X27129705Y-147624488D01*
X27221856Y-147426870D01*
X27225545Y-147416737D01*
X27281978Y-147206124D01*
X27283852Y-147195493D01*
X27300955Y-147000000D01*
X33094318Y-147000000D01*
X33114956Y-147156762D01*
X33118065Y-147164269D01*
X33118066Y-147164271D01*
X33154194Y-147251491D01*
X33175464Y-147302841D01*
X33180411Y-147309288D01*
X33238346Y-147384790D01*
X33271718Y-147428282D01*
X33397159Y-147524536D01*
X33404667Y-147527646D01*
X33535729Y-147581934D01*
X33535731Y-147581935D01*
X33543238Y-147585044D01*
X33700000Y-147605682D01*
X33708059Y-147604621D01*
X33848703Y-147586105D01*
X33856762Y-147585044D01*
X33864269Y-147581935D01*
X33864271Y-147581934D01*
X33995333Y-147527646D01*
X34002841Y-147524536D01*
X34128282Y-147428282D01*
X34161655Y-147384790D01*
X34219589Y-147309288D01*
X34224536Y-147302841D01*
X34245806Y-147251491D01*
X34281934Y-147164271D01*
X34281935Y-147164269D01*
X34285044Y-147156762D01*
X34286105Y-147148703D01*
X34287386Y-147143922D01*
X34319480Y-147088334D01*
X35404439Y-146003375D01*
X35413828Y-145995872D01*
X35413520Y-145995510D01*
X35420246Y-145989785D01*
X35427720Y-145985070D01*
X35462793Y-145945357D01*
X35468055Y-145939759D01*
X35479320Y-145928494D01*
X35485490Y-145920262D01*
X35491773Y-145912543D01*
X35516776Y-145884233D01*
X35516777Y-145884231D01*
X35522623Y-145877612D01*
X35526377Y-145869616D01*
X35527957Y-145867211D01*
X35536840Y-145852429D01*
X35538229Y-145849892D01*
X35543526Y-145842824D01*
X35547015Y-145833519D01*
X35559885Y-145799187D01*
X35563742Y-145790032D01*
X35583553Y-145747837D01*
X35584913Y-145739103D01*
X35585762Y-145736325D01*
X35590130Y-145719678D01*
X35590752Y-145716848D01*
X35593852Y-145708580D01*
X35594651Y-145697839D01*
X35597306Y-145662101D01*
X35598439Y-145652227D01*
X35600500Y-145638991D01*
X35600500Y-145623715D01*
X35600841Y-145614526D01*
X35603821Y-145574418D01*
X35604476Y-145565608D01*
X35602632Y-145556968D01*
X35602078Y-145548846D01*
X35600500Y-145533894D01*
X35600500Y-140405926D01*
X35620185Y-140338887D01*
X35628559Y-140328495D01*
X35628282Y-140328282D01*
X35653257Y-140295734D01*
X35724536Y-140202841D01*
X35731237Y-140186664D01*
X35781934Y-140064271D01*
X35781935Y-140064269D01*
X35785044Y-140056762D01*
X35805682Y-139900000D01*
X35785044Y-139743238D01*
X35777262Y-139724449D01*
X35727646Y-139604667D01*
X35724536Y-139597159D01*
X35628282Y-139471718D01*
X35617888Y-139463742D01*
X35509288Y-139380411D01*
X35502841Y-139375464D01*
X35495333Y-139372354D01*
X35364271Y-139318066D01*
X35364269Y-139318065D01*
X35356762Y-139314956D01*
X35200000Y-139294318D01*
X35043238Y-139314956D01*
X35035731Y-139318065D01*
X35035729Y-139318066D01*
X34904667Y-139372354D01*
X34897159Y-139375464D01*
X34890712Y-139380411D01*
X34782113Y-139463742D01*
X34771718Y-139471718D01*
X34675464Y-139597159D01*
X34672354Y-139604667D01*
X34622739Y-139724449D01*
X34614956Y-139743238D01*
X34594318Y-139900000D01*
X34595379Y-139908059D01*
X34599098Y-139936309D01*
X34599722Y-139959580D01*
X34599500Y-139961009D01*
X34599500Y-139976285D01*
X34599159Y-139985474D01*
X34595524Y-140034392D01*
X34597368Y-140043032D01*
X34597922Y-140051154D01*
X34599500Y-140066106D01*
X34599500Y-145341324D01*
X34579815Y-145408363D01*
X34563181Y-145429005D01*
X33611666Y-146380520D01*
X33556078Y-146412614D01*
X33551297Y-146413895D01*
X33543238Y-146414956D01*
X33535731Y-146418065D01*
X33535729Y-146418066D01*
X33456804Y-146450758D01*
X33397159Y-146475464D01*
X33271718Y-146571718D01*
X33175464Y-146697159D01*
X33172354Y-146704667D01*
X33135617Y-146793359D01*
X33114956Y-146843238D01*
X33094318Y-147000000D01*
X27300955Y-147000000D01*
X27302855Y-146978288D01*
X27302855Y-146967498D01*
X27283852Y-146750293D01*
X27281978Y-146739662D01*
X27225545Y-146529049D01*
X27221856Y-146518916D01*
X27129705Y-146321298D01*
X27124318Y-146311966D01*
X27087656Y-146259608D01*
X27077345Y-146251366D01*
X27064112Y-146258322D01*
X26362148Y-146960286D01*
X26354656Y-146974006D01*
X25624790Y-146974006D01*
X25626006Y-146971780D01*
X25625877Y-146969974D01*
X25621695Y-146963467D01*
X24915839Y-146257611D01*
X24904253Y-146251284D01*
X24892430Y-146260431D01*
X24856344Y-146311966D01*
X24850957Y-146321298D01*
X24758806Y-146518916D01*
X24755117Y-146529049D01*
X24698684Y-146739662D01*
X24696810Y-146750293D01*
X24677807Y-146967498D01*
X24677807Y-146978288D01*
X20264716Y-146978288D01*
X20264716Y-145288971D01*
X25268722Y-145288971D01*
X25277869Y-145300794D01*
X25329404Y-145336880D01*
X25338736Y-145342267D01*
X25536354Y-145434418D01*
X25546487Y-145438107D01*
X25658491Y-145468118D01*
X25718151Y-145504483D01*
X25748680Y-145567330D01*
X25740385Y-145636706D01*
X25695900Y-145690584D01*
X25658491Y-145707668D01*
X25546487Y-145737679D01*
X25536354Y-145741368D01*
X25338736Y-145833519D01*
X25329404Y-145838906D01*
X25277046Y-145875568D01*
X25268804Y-145885879D01*
X25275760Y-145899112D01*
X25977724Y-146601076D01*
X25991444Y-146608568D01*
X25993250Y-146608439D01*
X25999757Y-146604257D01*
X26705613Y-145898401D01*
X26711940Y-145886815D01*
X26702793Y-145874992D01*
X26651258Y-145838906D01*
X26641926Y-145833519D01*
X26444308Y-145741368D01*
X26434175Y-145737679D01*
X26322171Y-145707668D01*
X26262511Y-145671303D01*
X26231982Y-145608456D01*
X26236203Y-145573155D01*
X27774851Y-145573155D01*
X27792090Y-145778446D01*
X27848875Y-145976479D01*
X27851647Y-145981874D01*
X27851648Y-145981875D01*
X27881871Y-146040682D01*
X27943043Y-146159711D01*
X27946811Y-146164465D01*
X28063719Y-146311966D01*
X28071008Y-146321163D01*
X28075627Y-146325094D01*
X28223281Y-146450758D01*
X28223286Y-146450762D01*
X28227895Y-146454684D01*
X28407729Y-146555190D01*
X28603660Y-146618852D01*
X28609678Y-146619570D01*
X28609680Y-146619570D01*
X28751741Y-146636509D01*
X28808225Y-146643244D01*
X28814269Y-146642779D01*
X28814270Y-146642779D01*
X28875597Y-146638060D01*
X29013631Y-146627439D01*
X29108053Y-146601076D01*
X29206216Y-146573669D01*
X29206220Y-146573667D01*
X29212056Y-146572038D01*
X29395941Y-146479151D01*
X29558282Y-146352317D01*
X29562238Y-146347733D01*
X29562242Y-146347730D01*
X29688933Y-146200955D01*
X29692895Y-146196365D01*
X29696174Y-146190594D01*
X29791658Y-146022511D01*
X29794654Y-146017237D01*
X29847243Y-145859148D01*
X29857770Y-145827504D01*
X29857770Y-145827503D01*
X29859682Y-145821756D01*
X29860884Y-145812246D01*
X29885067Y-145620812D01*
X29885067Y-145620808D01*
X29885502Y-145617367D01*
X29885914Y-145587893D01*
X29883729Y-145565608D01*
X29866403Y-145388899D01*
X29866403Y-145388897D01*
X29865811Y-145382863D01*
X29859052Y-145360477D01*
X29808019Y-145191448D01*
X29806266Y-145185642D01*
X29709549Y-145003742D01*
X29579342Y-144844093D01*
X29420606Y-144712775D01*
X29269518Y-144631082D01*
X29244724Y-144617676D01*
X29244722Y-144617675D01*
X29239386Y-144614790D01*
X29230322Y-144611984D01*
X29048377Y-144555663D01*
X29048378Y-144555663D01*
X29042585Y-144553870D01*
X28837700Y-144532336D01*
X28831667Y-144532885D01*
X28831663Y-144532885D01*
X28706052Y-144544317D01*
X28632534Y-144551007D01*
X28626721Y-144552718D01*
X28626720Y-144552718D01*
X28577015Y-144567347D01*
X28434903Y-144609173D01*
X28363050Y-144646737D01*
X28257705Y-144701810D01*
X28257701Y-144701813D01*
X28252333Y-144704619D01*
X28247610Y-144708416D01*
X28247609Y-144708417D01*
X28121754Y-144809607D01*
X28091778Y-144833708D01*
X28018918Y-144920539D01*
X27967165Y-144982216D01*
X27959355Y-144991523D01*
X27860107Y-145172055D01*
X27858273Y-145177837D01*
X27858272Y-145177839D01*
X27799648Y-145362646D01*
X27797815Y-145368425D01*
X27795094Y-145392686D01*
X27775698Y-145565608D01*
X27774851Y-145573155D01*
X26236203Y-145573155D01*
X26240277Y-145539080D01*
X26284762Y-145485202D01*
X26322171Y-145468118D01*
X26434175Y-145438107D01*
X26444308Y-145434418D01*
X26641926Y-145342267D01*
X26651258Y-145336880D01*
X26703616Y-145300218D01*
X26711858Y-145289907D01*
X26704902Y-145276674D01*
X26002938Y-144574710D01*
X25989218Y-144567218D01*
X25987412Y-144567347D01*
X25980905Y-144571529D01*
X25275049Y-145277385D01*
X25268722Y-145288971D01*
X20264716Y-145288971D01*
X20264716Y-144208288D01*
X24677807Y-144208288D01*
X24696810Y-144425493D01*
X24698684Y-144436124D01*
X24755117Y-144646737D01*
X24758806Y-144656870D01*
X24850957Y-144854488D01*
X24856344Y-144863820D01*
X24893006Y-144916178D01*
X24903317Y-144924420D01*
X24916550Y-144917464D01*
X25618514Y-144215500D01*
X25624790Y-144204006D01*
X26354656Y-144204006D01*
X26354785Y-144205812D01*
X26358967Y-144212319D01*
X27064823Y-144918175D01*
X27076409Y-144924502D01*
X27088232Y-144915355D01*
X27124318Y-144863820D01*
X27129705Y-144854488D01*
X27221856Y-144656870D01*
X27225545Y-144646737D01*
X27281978Y-144436124D01*
X27283852Y-144425493D01*
X27302855Y-144208288D01*
X27302855Y-144197498D01*
X27283852Y-143980293D01*
X27281978Y-143969662D01*
X27225545Y-143759049D01*
X27221856Y-143748916D01*
X27129705Y-143551298D01*
X27124318Y-143541966D01*
X27087656Y-143489608D01*
X27077345Y-143481366D01*
X27064112Y-143488322D01*
X26362148Y-144190286D01*
X26354656Y-144204006D01*
X25624790Y-144204006D01*
X25626006Y-144201780D01*
X25625877Y-144199974D01*
X25621695Y-144193467D01*
X24915839Y-143487611D01*
X24904253Y-143481284D01*
X24892430Y-143490431D01*
X24856344Y-143541966D01*
X24850957Y-143551298D01*
X24758806Y-143748916D01*
X24755117Y-143759049D01*
X24698684Y-143969662D01*
X24696810Y-143980293D01*
X24677807Y-144197498D01*
X24677807Y-144208288D01*
X20264716Y-144208288D01*
X20264716Y-142518971D01*
X25268722Y-142518971D01*
X25277869Y-142530794D01*
X25329404Y-142566880D01*
X25338736Y-142572267D01*
X25536354Y-142664418D01*
X25546487Y-142668107D01*
X25658491Y-142698118D01*
X25718151Y-142734483D01*
X25748680Y-142797330D01*
X25740385Y-142866706D01*
X25695900Y-142920584D01*
X25658491Y-142937668D01*
X25546487Y-142967679D01*
X25536354Y-142971368D01*
X25338736Y-143063519D01*
X25329404Y-143068906D01*
X25277046Y-143105568D01*
X25268804Y-143115879D01*
X25275760Y-143129112D01*
X25977724Y-143831076D01*
X25991444Y-143838568D01*
X25993250Y-143838439D01*
X25999757Y-143834257D01*
X26705613Y-143128401D01*
X26711940Y-143116815D01*
X26702793Y-143104992D01*
X26651258Y-143068906D01*
X26641926Y-143063519D01*
X26444308Y-142971368D01*
X26434175Y-142967679D01*
X26322171Y-142937668D01*
X26262511Y-142901303D01*
X26231982Y-142838456D01*
X26236203Y-142803155D01*
X27774851Y-142803155D01*
X27792090Y-143008446D01*
X27848875Y-143206479D01*
X27943043Y-143389711D01*
X27946811Y-143394465D01*
X28063719Y-143541966D01*
X28071008Y-143551163D01*
X28075627Y-143555094D01*
X28223281Y-143680758D01*
X28223286Y-143680762D01*
X28227895Y-143684684D01*
X28407729Y-143785190D01*
X28603660Y-143848852D01*
X28609678Y-143849570D01*
X28609680Y-143849570D01*
X28704919Y-143860926D01*
X28808225Y-143873244D01*
X28814269Y-143872779D01*
X28814270Y-143872779D01*
X28897132Y-143866403D01*
X29013631Y-143857439D01*
X29125614Y-143826173D01*
X29206216Y-143803669D01*
X29206220Y-143803667D01*
X29212056Y-143802038D01*
X29395941Y-143709151D01*
X29558282Y-143582317D01*
X29562238Y-143577733D01*
X29562242Y-143577730D01*
X29688933Y-143430955D01*
X29692895Y-143426365D01*
X29713718Y-143389711D01*
X29791658Y-143252511D01*
X29794654Y-143247237D01*
X29859682Y-143051756D01*
X29865154Y-143008446D01*
X29885067Y-142850812D01*
X29885067Y-142850808D01*
X29885502Y-142847367D01*
X29885914Y-142817893D01*
X29865811Y-142612863D01*
X29806266Y-142415642D01*
X29709549Y-142233742D01*
X29579342Y-142074093D01*
X29459568Y-141975007D01*
X29425277Y-141946639D01*
X29425276Y-141946638D01*
X29420606Y-141942775D01*
X29239386Y-141844790D01*
X29230322Y-141841984D01*
X29048377Y-141785663D01*
X29048378Y-141785663D01*
X29042585Y-141783870D01*
X28837700Y-141762336D01*
X28831667Y-141762885D01*
X28831663Y-141762885D01*
X28706052Y-141774317D01*
X28632534Y-141781007D01*
X28626721Y-141782718D01*
X28626720Y-141782718D01*
X28577015Y-141797347D01*
X28434903Y-141839173D01*
X28363050Y-141876737D01*
X28257705Y-141931810D01*
X28257701Y-141931813D01*
X28252333Y-141934619D01*
X28091778Y-142063708D01*
X27959355Y-142221523D01*
X27860107Y-142402055D01*
X27858273Y-142407837D01*
X27858272Y-142407839D01*
X27806215Y-142571945D01*
X27797815Y-142598425D01*
X27794923Y-142624206D01*
X27778640Y-142769377D01*
X27774851Y-142803155D01*
X26236203Y-142803155D01*
X26240277Y-142769080D01*
X26284762Y-142715202D01*
X26322171Y-142698118D01*
X26434175Y-142668107D01*
X26444308Y-142664418D01*
X26641926Y-142572267D01*
X26651258Y-142566880D01*
X26703616Y-142530218D01*
X26711858Y-142519907D01*
X26704902Y-142506674D01*
X26002938Y-141804710D01*
X25989218Y-141797218D01*
X25987412Y-141797347D01*
X25980905Y-141801529D01*
X25275049Y-142507385D01*
X25268722Y-142518971D01*
X20264716Y-142518971D01*
X20264716Y-141438288D01*
X24677807Y-141438288D01*
X24696810Y-141655493D01*
X24698684Y-141666124D01*
X24755117Y-141876737D01*
X24758806Y-141886870D01*
X24850957Y-142084488D01*
X24856344Y-142093820D01*
X24893006Y-142146178D01*
X24903317Y-142154420D01*
X24916550Y-142147464D01*
X25618514Y-141445500D01*
X25624790Y-141434006D01*
X26354656Y-141434006D01*
X26354785Y-141435812D01*
X26358967Y-141442319D01*
X27064823Y-142148175D01*
X27076409Y-142154502D01*
X27088232Y-142145355D01*
X27124318Y-142093820D01*
X27129705Y-142084488D01*
X27221856Y-141886870D01*
X27225545Y-141876737D01*
X27281978Y-141666124D01*
X27283852Y-141655493D01*
X27302855Y-141438288D01*
X27302855Y-141427498D01*
X27283852Y-141210293D01*
X27281978Y-141199662D01*
X27225545Y-140989049D01*
X27221856Y-140978916D01*
X27129705Y-140781298D01*
X27124318Y-140771966D01*
X27087656Y-140719608D01*
X27077345Y-140711366D01*
X27064112Y-140718322D01*
X26362148Y-141420286D01*
X26354656Y-141434006D01*
X25624790Y-141434006D01*
X25626006Y-141431780D01*
X25625877Y-141429974D01*
X25621695Y-141423467D01*
X24915839Y-140717611D01*
X24904253Y-140711284D01*
X24892430Y-140720431D01*
X24856344Y-140771966D01*
X24850957Y-140781298D01*
X24758806Y-140978916D01*
X24755117Y-140989049D01*
X24698684Y-141199662D01*
X24696810Y-141210293D01*
X24677807Y-141427498D01*
X24677807Y-141438288D01*
X20264716Y-141438288D01*
X20264716Y-139748971D01*
X25268722Y-139748971D01*
X25277869Y-139760794D01*
X25329404Y-139796880D01*
X25338736Y-139802267D01*
X25536354Y-139894418D01*
X25546487Y-139898107D01*
X25658491Y-139928118D01*
X25718151Y-139964483D01*
X25748680Y-140027330D01*
X25740385Y-140096706D01*
X25695900Y-140150584D01*
X25658491Y-140167668D01*
X25546487Y-140197679D01*
X25536354Y-140201368D01*
X25338736Y-140293519D01*
X25329404Y-140298906D01*
X25277046Y-140335568D01*
X25268804Y-140345879D01*
X25275760Y-140359112D01*
X25977724Y-141061076D01*
X25991444Y-141068568D01*
X25993250Y-141068439D01*
X25999757Y-141064257D01*
X26705613Y-140358401D01*
X26711940Y-140346815D01*
X26702793Y-140334992D01*
X26651258Y-140298906D01*
X26641926Y-140293519D01*
X26444308Y-140201368D01*
X26434175Y-140197679D01*
X26322171Y-140167668D01*
X26262511Y-140131303D01*
X26231982Y-140068456D01*
X26236203Y-140033155D01*
X27774851Y-140033155D01*
X27792090Y-140238446D01*
X27848875Y-140436479D01*
X27943043Y-140619711D01*
X27946811Y-140624465D01*
X28063719Y-140771966D01*
X28071008Y-140781163D01*
X28075627Y-140785094D01*
X28223281Y-140910758D01*
X28223286Y-140910762D01*
X28227895Y-140914684D01*
X28407729Y-141015190D01*
X28603660Y-141078852D01*
X28609678Y-141079570D01*
X28609680Y-141079570D01*
X28751741Y-141096509D01*
X28808225Y-141103244D01*
X28814269Y-141102779D01*
X28814270Y-141102779D01*
X28875597Y-141098060D01*
X29013631Y-141087439D01*
X29108053Y-141061076D01*
X29206216Y-141033669D01*
X29206220Y-141033667D01*
X29212056Y-141032038D01*
X29395941Y-140939151D01*
X29558282Y-140812317D01*
X29562238Y-140807733D01*
X29562242Y-140807730D01*
X29688933Y-140660955D01*
X29692895Y-140656365D01*
X29697374Y-140648482D01*
X29791658Y-140482511D01*
X29794654Y-140477237D01*
X29844205Y-140328282D01*
X29857770Y-140287504D01*
X29857770Y-140287503D01*
X29859682Y-140281756D01*
X29860791Y-140272983D01*
X29885067Y-140080812D01*
X29885067Y-140080808D01*
X29885502Y-140077367D01*
X29885790Y-140056762D01*
X29885866Y-140051354D01*
X29885866Y-140051347D01*
X29885914Y-140047893D01*
X29883878Y-140027125D01*
X29866403Y-139848899D01*
X29866403Y-139848897D01*
X29865811Y-139842863D01*
X29864059Y-139837060D01*
X29808019Y-139651448D01*
X29806266Y-139645642D01*
X29750323Y-139540427D01*
X29712396Y-139469096D01*
X29712395Y-139469094D01*
X29709549Y-139463742D01*
X29579342Y-139304093D01*
X29420606Y-139172775D01*
X29239386Y-139074790D01*
X29230322Y-139071984D01*
X29048377Y-139015663D01*
X29048378Y-139015663D01*
X29042585Y-139013870D01*
X28837700Y-138992336D01*
X28831667Y-138992885D01*
X28831663Y-138992885D01*
X28706052Y-139004317D01*
X28632534Y-139011007D01*
X28626721Y-139012718D01*
X28626720Y-139012718D01*
X28577015Y-139027347D01*
X28434903Y-139069173D01*
X28363050Y-139106737D01*
X28257705Y-139161810D01*
X28257701Y-139161813D01*
X28252333Y-139164619D01*
X28247610Y-139168416D01*
X28247609Y-139168417D01*
X28232381Y-139180661D01*
X28091778Y-139293708D01*
X27959355Y-139451523D01*
X27860107Y-139632055D01*
X27858273Y-139637837D01*
X27858272Y-139637839D01*
X27807451Y-139798048D01*
X27797815Y-139828425D01*
X27791062Y-139888631D01*
X27789928Y-139898744D01*
X27774851Y-140033155D01*
X26236203Y-140033155D01*
X26240277Y-139999080D01*
X26284762Y-139945202D01*
X26322171Y-139928118D01*
X26434175Y-139898107D01*
X26444308Y-139894418D01*
X26641926Y-139802267D01*
X26651258Y-139796880D01*
X26703616Y-139760218D01*
X26711858Y-139749907D01*
X26704902Y-139736674D01*
X26002938Y-139034710D01*
X25989218Y-139027218D01*
X25987412Y-139027347D01*
X25980905Y-139031529D01*
X25275049Y-139737385D01*
X25268722Y-139748971D01*
X20264716Y-139748971D01*
X20264716Y-138668288D01*
X24677807Y-138668288D01*
X24696810Y-138885493D01*
X24698684Y-138896124D01*
X24755117Y-139106737D01*
X24758806Y-139116870D01*
X24850957Y-139314488D01*
X24856344Y-139323820D01*
X24893006Y-139376178D01*
X24903317Y-139384420D01*
X24916550Y-139377464D01*
X25618514Y-138675500D01*
X25624790Y-138664006D01*
X26354656Y-138664006D01*
X26354785Y-138665812D01*
X26358967Y-138672319D01*
X27064823Y-139378175D01*
X27076409Y-139384502D01*
X27088232Y-139375355D01*
X27124318Y-139323820D01*
X27129705Y-139314488D01*
X27221856Y-139116870D01*
X27225545Y-139106737D01*
X27281978Y-138896124D01*
X27283852Y-138885493D01*
X27302855Y-138668288D01*
X27302855Y-138657498D01*
X27283852Y-138440293D01*
X27281978Y-138429662D01*
X27225545Y-138219049D01*
X27221856Y-138208916D01*
X27129705Y-138011298D01*
X27124318Y-138001966D01*
X27087656Y-137949608D01*
X27077345Y-137941366D01*
X27064112Y-137948322D01*
X26362148Y-138650286D01*
X26354656Y-138664006D01*
X25624790Y-138664006D01*
X25626006Y-138661780D01*
X25625877Y-138659974D01*
X25621695Y-138653467D01*
X24915839Y-137947611D01*
X24904253Y-137941284D01*
X24892430Y-137950431D01*
X24856344Y-138001966D01*
X24850957Y-138011298D01*
X24758806Y-138208916D01*
X24755117Y-138219049D01*
X24698684Y-138429662D01*
X24696810Y-138440293D01*
X24677807Y-138657498D01*
X24677807Y-138668288D01*
X20264716Y-138668288D01*
X20264716Y-136978971D01*
X25268722Y-136978971D01*
X25277869Y-136990794D01*
X25329404Y-137026880D01*
X25338736Y-137032267D01*
X25536354Y-137124418D01*
X25546487Y-137128107D01*
X25658491Y-137158118D01*
X25718151Y-137194483D01*
X25748680Y-137257330D01*
X25740385Y-137326706D01*
X25695900Y-137380584D01*
X25658491Y-137397668D01*
X25546487Y-137427679D01*
X25536354Y-137431368D01*
X25338736Y-137523519D01*
X25329404Y-137528906D01*
X25277046Y-137565568D01*
X25268804Y-137575879D01*
X25275760Y-137589112D01*
X25977724Y-138291076D01*
X25991444Y-138298568D01*
X25993250Y-138298439D01*
X25999757Y-138294257D01*
X26705613Y-137588401D01*
X26711940Y-137576815D01*
X26702793Y-137564992D01*
X26651258Y-137528906D01*
X26641926Y-137523519D01*
X26444308Y-137431368D01*
X26434175Y-137427679D01*
X26322171Y-137397668D01*
X26262511Y-137361303D01*
X26231982Y-137298456D01*
X26236203Y-137263155D01*
X27774851Y-137263155D01*
X27792090Y-137468446D01*
X27848875Y-137666479D01*
X27851647Y-137671874D01*
X27851648Y-137671875D01*
X27872104Y-137711678D01*
X27943043Y-137849711D01*
X27946811Y-137854465D01*
X28063719Y-138001966D01*
X28071008Y-138011163D01*
X28075627Y-138015094D01*
X28223281Y-138140758D01*
X28223286Y-138140762D01*
X28227895Y-138144684D01*
X28407729Y-138245190D01*
X28523671Y-138282862D01*
X28588832Y-138304034D01*
X28603660Y-138308852D01*
X28609678Y-138309570D01*
X28609680Y-138309570D01*
X28751741Y-138326509D01*
X28808225Y-138333244D01*
X28814269Y-138332779D01*
X28814270Y-138332779D01*
X28875597Y-138328060D01*
X29013631Y-138317439D01*
X29124038Y-138286613D01*
X29206216Y-138263669D01*
X29206220Y-138263667D01*
X29212056Y-138262038D01*
X29395941Y-138169151D01*
X29558282Y-138042317D01*
X29562238Y-138037733D01*
X29562242Y-138037730D01*
X29688933Y-137890955D01*
X29692895Y-137886365D01*
X29709484Y-137857164D01*
X29791658Y-137712511D01*
X29794654Y-137707237D01*
X29853977Y-137528906D01*
X29857770Y-137517504D01*
X29857770Y-137517503D01*
X29859682Y-137511756D01*
X29861285Y-137499073D01*
X29885067Y-137310812D01*
X29885067Y-137310808D01*
X29885502Y-137307367D01*
X29885914Y-137277893D01*
X29877736Y-137194483D01*
X29866403Y-137078899D01*
X29866403Y-137078897D01*
X29865811Y-137072863D01*
X29806266Y-136875642D01*
X29709549Y-136693742D01*
X29579342Y-136534093D01*
X29420606Y-136402775D01*
X29239386Y-136304790D01*
X29230322Y-136301984D01*
X29048377Y-136245663D01*
X29048378Y-136245663D01*
X29042585Y-136243870D01*
X28837700Y-136222336D01*
X28831667Y-136222885D01*
X28831663Y-136222885D01*
X28706052Y-136234317D01*
X28632534Y-136241007D01*
X28626721Y-136242718D01*
X28626720Y-136242718D01*
X28577015Y-136257347D01*
X28434903Y-136299173D01*
X28363050Y-136336737D01*
X28257705Y-136391810D01*
X28257701Y-136391813D01*
X28252333Y-136394619D01*
X28247610Y-136398416D01*
X28247609Y-136398417D01*
X28194331Y-136441254D01*
X28091778Y-136523708D01*
X27959355Y-136681523D01*
X27860107Y-136862055D01*
X27858273Y-136867837D01*
X27858272Y-136867839D01*
X27806113Y-137032267D01*
X27797815Y-137058425D01*
X27794586Y-137087211D01*
X27782254Y-137197159D01*
X27774851Y-137263155D01*
X26236203Y-137263155D01*
X26240277Y-137229080D01*
X26284762Y-137175202D01*
X26322171Y-137158118D01*
X26434175Y-137128107D01*
X26444308Y-137124418D01*
X26641926Y-137032267D01*
X26651258Y-137026880D01*
X26703616Y-136990218D01*
X26711858Y-136979907D01*
X26704902Y-136966674D01*
X26002938Y-136264710D01*
X25989218Y-136257218D01*
X25987412Y-136257347D01*
X25980905Y-136261529D01*
X25275049Y-136967385D01*
X25268722Y-136978971D01*
X20264716Y-136978971D01*
X20264716Y-135898288D01*
X24677807Y-135898288D01*
X24696810Y-136115493D01*
X24698684Y-136126124D01*
X24755117Y-136336737D01*
X24758806Y-136346870D01*
X24850957Y-136544488D01*
X24856344Y-136553820D01*
X24893006Y-136606178D01*
X24903317Y-136614420D01*
X24916550Y-136607464D01*
X25618514Y-135905500D01*
X25626006Y-135891780D01*
X25625877Y-135889974D01*
X25621695Y-135883467D01*
X24915839Y-135177611D01*
X24904253Y-135171284D01*
X24892430Y-135180431D01*
X24856344Y-135231966D01*
X24850957Y-135241298D01*
X24758806Y-135438916D01*
X24755117Y-135449049D01*
X24698684Y-135659662D01*
X24696810Y-135670293D01*
X24677807Y-135887498D01*
X24677807Y-135898288D01*
X20264716Y-135898288D01*
X20264716Y-133956326D01*
X24199500Y-133956326D01*
X24202515Y-133965604D01*
X24206345Y-133977392D01*
X24210889Y-133996317D01*
X24214354Y-134018197D01*
X24218783Y-134026890D01*
X24218785Y-134026895D01*
X24224413Y-134037941D01*
X24231857Y-134055912D01*
X24233974Y-134062425D01*
X24238704Y-134076983D01*
X24251728Y-134094909D01*
X24261892Y-134111495D01*
X24271950Y-134131235D01*
X24294513Y-134153798D01*
X24294516Y-134153802D01*
X24871950Y-134731235D01*
X24961658Y-134820943D01*
X24981396Y-134831000D01*
X24997986Y-134841167D01*
X25015910Y-134854189D01*
X25025192Y-134857205D01*
X25036981Y-134861036D01*
X25054952Y-134868480D01*
X25065998Y-134874108D01*
X25066003Y-134874110D01*
X25074696Y-134878539D01*
X25096576Y-134882004D01*
X25115501Y-134886548D01*
X25136567Y-134893393D01*
X25298679Y-134893393D01*
X25365718Y-134913078D01*
X25386360Y-134929712D01*
X27064823Y-136608175D01*
X27076409Y-136614502D01*
X27088232Y-136605355D01*
X27124318Y-136553820D01*
X27129705Y-136544488D01*
X27221856Y-136346870D01*
X27225545Y-136336737D01*
X27281978Y-136126124D01*
X27283852Y-136115493D01*
X27302855Y-135898288D01*
X27302855Y-135887498D01*
X27283852Y-135670293D01*
X27281978Y-135659662D01*
X27225545Y-135449049D01*
X27221856Y-135438916D01*
X27136755Y-135256416D01*
X27126263Y-135187338D01*
X27154783Y-135123554D01*
X27213259Y-135085315D01*
X27232950Y-135081072D01*
X27248704Y-135078998D01*
X27248705Y-135078998D01*
X27256762Y-135077937D01*
X27264269Y-135074828D01*
X27264271Y-135074827D01*
X27395333Y-135020539D01*
X27402841Y-135017429D01*
X27528282Y-134921175D01*
X27617056Y-134805482D01*
X27673483Y-134764280D01*
X27743229Y-134760125D01*
X27804149Y-134794337D01*
X27834626Y-134846786D01*
X27848875Y-134896479D01*
X27851647Y-134901874D01*
X27851648Y-134901875D01*
X27879420Y-134955913D01*
X27943043Y-135079711D01*
X27946811Y-135084465D01*
X28063719Y-135231966D01*
X28071008Y-135241163D01*
X28075627Y-135245094D01*
X28223281Y-135370758D01*
X28223286Y-135370762D01*
X28227895Y-135374684D01*
X28407729Y-135475190D01*
X28553116Y-135522429D01*
X28595360Y-135536155D01*
X28603660Y-135538852D01*
X28609678Y-135539570D01*
X28609680Y-135539570D01*
X28751741Y-135556509D01*
X28808225Y-135563244D01*
X28814269Y-135562779D01*
X28814270Y-135562779D01*
X28875597Y-135558060D01*
X29013631Y-135547439D01*
X29098927Y-135523624D01*
X29206216Y-135493669D01*
X29206220Y-135493667D01*
X29212056Y-135492038D01*
X29395941Y-135399151D01*
X29558282Y-135272317D01*
X29562238Y-135267733D01*
X29562242Y-135267730D01*
X29688933Y-135120955D01*
X29692895Y-135116365D01*
X29697368Y-135108492D01*
X29791658Y-134942511D01*
X29794654Y-134937237D01*
X29852189Y-134764280D01*
X29857770Y-134747504D01*
X29857770Y-134747503D01*
X29859682Y-134741756D01*
X29862052Y-134723001D01*
X29885067Y-134540812D01*
X29885067Y-134540808D01*
X29885502Y-134537367D01*
X29885914Y-134507893D01*
X29865811Y-134302863D01*
X29822212Y-134158458D01*
X29808019Y-134111448D01*
X29806266Y-134105642D01*
X29731807Y-133965604D01*
X29712396Y-133929096D01*
X29712395Y-133929094D01*
X29709549Y-133923742D01*
X29579342Y-133764093D01*
X29477065Y-133679482D01*
X29425277Y-133636639D01*
X29425276Y-133636638D01*
X29420606Y-133632775D01*
X29239386Y-133534790D01*
X29230322Y-133531984D01*
X29111029Y-133495057D01*
X29042585Y-133473870D01*
X28837700Y-133452336D01*
X28831667Y-133452885D01*
X28831663Y-133452885D01*
X28706052Y-133464317D01*
X28632534Y-133471007D01*
X28626721Y-133472718D01*
X28626720Y-133472718D01*
X28622806Y-133473870D01*
X28434903Y-133529173D01*
X28363050Y-133566737D01*
X28257705Y-133621810D01*
X28257701Y-133621813D01*
X28252333Y-133624619D01*
X28091778Y-133753708D01*
X28036266Y-133819864D01*
X27972724Y-133895591D01*
X27959355Y-133911523D01*
X27860107Y-134092055D01*
X27858273Y-134097836D01*
X27858271Y-134097841D01*
X27841083Y-134152026D01*
X27802049Y-134209976D01*
X27737882Y-134237623D01*
X27668954Y-134226190D01*
X27624511Y-134190019D01*
X27533229Y-134071058D01*
X27528282Y-134064611D01*
X27402841Y-133968357D01*
X27308057Y-133929096D01*
X27264271Y-133910959D01*
X27264269Y-133910958D01*
X27256762Y-133907849D01*
X27246134Y-133906450D01*
X27244127Y-133905562D01*
X27240854Y-133904685D01*
X27240991Y-133904175D01*
X27182239Y-133878187D01*
X27143766Y-133819864D01*
X27142931Y-133750000D01*
X27149935Y-133731106D01*
X27221856Y-133576870D01*
X27225545Y-133566737D01*
X27281978Y-133356124D01*
X27283852Y-133345493D01*
X27302855Y-133128288D01*
X27302855Y-133117498D01*
X27283852Y-132900293D01*
X27281978Y-132889662D01*
X27225545Y-132679049D01*
X27221856Y-132668916D01*
X27129705Y-132471298D01*
X27124318Y-132461966D01*
X27087656Y-132409608D01*
X27077345Y-132401366D01*
X27064112Y-132408322D01*
X26078012Y-133394422D01*
X26016689Y-133427907D01*
X25946997Y-133422923D01*
X25902650Y-133394422D01*
X25718802Y-133210574D01*
X25685317Y-133149251D01*
X25690301Y-133079559D01*
X25718802Y-133035212D01*
X26705613Y-132048401D01*
X26711940Y-132036815D01*
X26702793Y-132024992D01*
X26651258Y-131988906D01*
X26641926Y-131983519D01*
X26444308Y-131891368D01*
X26434175Y-131887679D01*
X26322171Y-131857668D01*
X26262511Y-131821303D01*
X26231982Y-131758456D01*
X26236203Y-131723155D01*
X27774851Y-131723155D01*
X27792090Y-131928446D01*
X27848875Y-132126479D01*
X27943043Y-132309711D01*
X27946811Y-132314465D01*
X28063719Y-132461966D01*
X28071008Y-132471163D01*
X28075627Y-132475094D01*
X28223281Y-132600758D01*
X28223286Y-132600762D01*
X28227895Y-132604684D01*
X28407729Y-132705190D01*
X28603660Y-132768852D01*
X28609678Y-132769570D01*
X28609680Y-132769570D01*
X28751741Y-132786509D01*
X28808225Y-132793244D01*
X28814269Y-132792779D01*
X28814270Y-132792779D01*
X28875597Y-132788060D01*
X29013631Y-132777439D01*
X29098927Y-132753624D01*
X29206216Y-132723669D01*
X29206220Y-132723667D01*
X29212056Y-132722038D01*
X29395941Y-132629151D01*
X29558282Y-132502317D01*
X29562238Y-132497733D01*
X29562242Y-132497730D01*
X29688933Y-132350955D01*
X29692895Y-132346365D01*
X29713718Y-132309711D01*
X29791658Y-132172511D01*
X29794654Y-132167237D01*
X29859682Y-131971756D01*
X29864821Y-131931082D01*
X29885067Y-131770812D01*
X29885067Y-131770808D01*
X29885502Y-131767367D01*
X29885914Y-131737893D01*
X29884213Y-131720540D01*
X29866403Y-131538899D01*
X29866403Y-131538897D01*
X29865811Y-131532863D01*
X29859707Y-131512646D01*
X29808019Y-131341448D01*
X29806266Y-131335642D01*
X29709549Y-131153742D01*
X29579342Y-130994093D01*
X29420606Y-130862775D01*
X29239386Y-130764790D01*
X29230322Y-130761984D01*
X29048377Y-130705663D01*
X29048378Y-130705663D01*
X29042585Y-130703870D01*
X28837700Y-130682336D01*
X28831667Y-130682885D01*
X28831663Y-130682885D01*
X28706052Y-130694317D01*
X28632534Y-130701007D01*
X28626721Y-130702718D01*
X28626720Y-130702718D01*
X28440723Y-130757460D01*
X28434903Y-130759173D01*
X28371205Y-130792474D01*
X28257705Y-130851810D01*
X28257701Y-130851813D01*
X28252333Y-130854619D01*
X28247610Y-130858416D01*
X28247609Y-130858417D01*
X28132964Y-130950594D01*
X28091778Y-130983708D01*
X27959355Y-131141523D01*
X27860107Y-131322055D01*
X27858273Y-131327837D01*
X27858272Y-131327839D01*
X27806113Y-131492267D01*
X27797815Y-131518425D01*
X27793897Y-131553359D01*
X27786595Y-131618458D01*
X27774851Y-131723155D01*
X26236203Y-131723155D01*
X26240277Y-131689080D01*
X26284762Y-131635202D01*
X26322171Y-131618118D01*
X26434175Y-131588107D01*
X26444308Y-131584418D01*
X26641926Y-131492267D01*
X26651258Y-131486880D01*
X26703616Y-131450218D01*
X26711858Y-131439907D01*
X26704902Y-131426674D01*
X25718802Y-130440574D01*
X25685317Y-130379251D01*
X25687122Y-130354006D01*
X26354656Y-130354006D01*
X26354785Y-130355812D01*
X26358967Y-130362319D01*
X27064823Y-131068175D01*
X27076409Y-131074502D01*
X27088232Y-131065355D01*
X27124318Y-131013820D01*
X27129705Y-131004488D01*
X27221856Y-130806870D01*
X27225545Y-130796737D01*
X27281978Y-130586124D01*
X27283852Y-130575493D01*
X27302855Y-130358288D01*
X27302855Y-130347498D01*
X27283852Y-130130293D01*
X27281978Y-130119662D01*
X27225545Y-129909049D01*
X27221856Y-129898916D01*
X27129705Y-129701298D01*
X27124318Y-129691966D01*
X27087656Y-129639608D01*
X27077345Y-129631366D01*
X27064112Y-129638322D01*
X26362148Y-130340286D01*
X26354656Y-130354006D01*
X25687122Y-130354006D01*
X25690301Y-130309559D01*
X25718802Y-130265212D01*
X26705613Y-129278401D01*
X26711940Y-129266815D01*
X26702793Y-129254992D01*
X26651258Y-129218906D01*
X26641926Y-129213519D01*
X26444308Y-129121368D01*
X26434175Y-129117679D01*
X26223562Y-129061246D01*
X26212931Y-129059372D01*
X25995726Y-129040369D01*
X25984936Y-129040369D01*
X25767731Y-129059372D01*
X25757100Y-129061246D01*
X25546487Y-129117679D01*
X25536354Y-129121368D01*
X25338736Y-129213519D01*
X25329398Y-129218910D01*
X25195623Y-129312580D01*
X25129417Y-129334907D01*
X25061650Y-129317897D01*
X25013837Y-129266949D01*
X25000500Y-129211005D01*
X25000500Y-128381413D01*
X25020185Y-128314374D01*
X25072989Y-128268619D01*
X25142147Y-128258675D01*
X25205703Y-128287700D01*
X25221679Y-128304393D01*
X25231008Y-128316163D01*
X25235627Y-128320094D01*
X25383281Y-128445758D01*
X25383286Y-128445762D01*
X25387895Y-128449684D01*
X25567729Y-128550190D01*
X25763660Y-128613852D01*
X25769678Y-128614570D01*
X25769680Y-128614570D01*
X25899648Y-128630067D01*
X25968225Y-128638244D01*
X25974269Y-128637779D01*
X25974270Y-128637779D01*
X26035597Y-128633060D01*
X26173631Y-128622439D01*
X26293325Y-128589020D01*
X26366216Y-128568669D01*
X26366220Y-128568667D01*
X26372056Y-128567038D01*
X26555941Y-128474151D01*
X26718282Y-128347317D01*
X26722238Y-128342733D01*
X26722242Y-128342730D01*
X26848933Y-128195955D01*
X26852895Y-128191365D01*
X26873718Y-128154711D01*
X26935392Y-128046144D01*
X26985621Y-127997577D01*
X27043209Y-127983393D01*
X28026115Y-127983393D01*
X28093154Y-128003078D01*
X28138909Y-128055882D01*
X28148853Y-128125040D01*
X28119828Y-128188596D01*
X28103815Y-128204030D01*
X28091778Y-128213708D01*
X27959355Y-128371523D01*
X27860107Y-128552055D01*
X27858273Y-128557837D01*
X27858272Y-128557839D01*
X27835360Y-128630067D01*
X27797815Y-128748425D01*
X27794073Y-128781790D01*
X27776761Y-128936131D01*
X27774851Y-128953155D01*
X27792090Y-129158446D01*
X27848875Y-129356479D01*
X27851647Y-129361874D01*
X27851648Y-129361875D01*
X27872532Y-129402511D01*
X27943043Y-129539711D01*
X27946811Y-129544465D01*
X28063719Y-129691966D01*
X28071008Y-129701163D01*
X28075627Y-129705094D01*
X28223281Y-129830758D01*
X28223286Y-129830762D01*
X28227895Y-129834684D01*
X28407729Y-129935190D01*
X28603660Y-129998852D01*
X28609678Y-129999570D01*
X28609680Y-129999570D01*
X28751741Y-130016509D01*
X28808225Y-130023244D01*
X28814269Y-130022779D01*
X28814270Y-130022779D01*
X28875597Y-130018060D01*
X29013631Y-130007439D01*
X29098927Y-129983624D01*
X29206216Y-129953669D01*
X29206220Y-129953667D01*
X29212056Y-129952038D01*
X29395941Y-129859151D01*
X29558282Y-129732317D01*
X29562238Y-129727733D01*
X29562242Y-129727730D01*
X29688933Y-129580955D01*
X29692895Y-129576365D01*
X29697111Y-129568945D01*
X29791658Y-129402511D01*
X29794654Y-129397237D01*
X29859682Y-129201756D01*
X29860486Y-129195398D01*
X29885067Y-129000812D01*
X29885067Y-129000808D01*
X29885502Y-128997367D01*
X29885914Y-128967893D01*
X29880155Y-128909160D01*
X29866403Y-128768899D01*
X29866403Y-128768897D01*
X29865811Y-128762863D01*
X29806266Y-128565642D01*
X29805088Y-128563426D01*
X29797867Y-128495167D01*
X29829249Y-128432741D01*
X29889400Y-128397192D01*
X29919859Y-128393393D01*
X31114279Y-128393393D01*
X31181318Y-128413078D01*
X31227073Y-128465882D01*
X31232039Y-128479696D01*
X31232604Y-128483988D01*
X31235714Y-128491496D01*
X31286396Y-128613852D01*
X31293112Y-128630067D01*
X31389366Y-128755508D01*
X31395813Y-128760455D01*
X31423617Y-128781790D01*
X31514807Y-128851762D01*
X31522315Y-128854872D01*
X31653377Y-128909160D01*
X31653379Y-128909161D01*
X31660886Y-128912270D01*
X31817648Y-128932908D01*
X31960416Y-128914112D01*
X32029450Y-128924877D01*
X32081706Y-128971257D01*
X32100591Y-129038526D01*
X32099539Y-129053235D01*
X32094318Y-129092893D01*
X32114956Y-129249655D01*
X32118065Y-129257162D01*
X32118066Y-129257164D01*
X32156787Y-129350644D01*
X32175464Y-129395734D01*
X32228307Y-129464601D01*
X32271718Y-129521175D01*
X32269564Y-129522828D01*
X32296666Y-129572461D01*
X32299500Y-129598819D01*
X32299500Y-136785639D01*
X32279815Y-136852678D01*
X32227011Y-136898433D01*
X32191686Y-136908578D01*
X32143238Y-136914956D01*
X32135731Y-136918065D01*
X32135729Y-136918066D01*
X32018380Y-136966674D01*
X31997159Y-136975464D01*
X31871718Y-137071718D01*
X31775464Y-137197159D01*
X31772354Y-137204667D01*
X31721804Y-137326706D01*
X31714956Y-137343238D01*
X31694318Y-137500000D01*
X31714956Y-137656762D01*
X31718065Y-137664269D01*
X31718066Y-137664271D01*
X31746435Y-137732760D01*
X31775464Y-137802841D01*
X31871718Y-137928282D01*
X31878165Y-137933229D01*
X31934439Y-137976409D01*
X31997159Y-138024536D01*
X32004667Y-138027646D01*
X32135729Y-138081934D01*
X32135731Y-138081935D01*
X32143238Y-138085044D01*
X32300000Y-138105682D01*
X32308059Y-138104621D01*
X32316185Y-138104621D01*
X32316185Y-138106109D01*
X32376327Y-138115488D01*
X32428583Y-138161868D01*
X32447468Y-138229137D01*
X32426987Y-138295937D01*
X32411158Y-138315342D01*
X32394516Y-138331984D01*
X32394513Y-138331988D01*
X32371950Y-138354551D01*
X32367520Y-138363246D01*
X32361894Y-138374288D01*
X32351728Y-138390877D01*
X32338704Y-138408803D01*
X32335687Y-138418089D01*
X32331857Y-138429874D01*
X32324413Y-138447845D01*
X32318785Y-138458891D01*
X32318783Y-138458896D01*
X32314354Y-138467589D01*
X32312828Y-138477226D01*
X32310889Y-138489468D01*
X32306345Y-138508394D01*
X32299500Y-138529460D01*
X32299500Y-139486967D01*
X32279815Y-139554006D01*
X32271441Y-139564398D01*
X32271718Y-139564611D01*
X32175464Y-139690052D01*
X32172354Y-139697560D01*
X32120542Y-139822646D01*
X32114956Y-139836131D01*
X32094318Y-139992893D01*
X32114956Y-140149655D01*
X32118065Y-140157162D01*
X32118066Y-140157164D01*
X32131043Y-140188492D01*
X32175464Y-140295734D01*
X32271718Y-140421175D01*
X32397159Y-140517429D01*
X32404667Y-140520539D01*
X32535729Y-140574827D01*
X32535731Y-140574828D01*
X32543238Y-140577937D01*
X32700000Y-140598575D01*
X32708059Y-140597514D01*
X32848703Y-140578998D01*
X32856762Y-140577937D01*
X32864269Y-140574828D01*
X32864271Y-140574827D01*
X32995333Y-140520539D01*
X33002841Y-140517429D01*
X33128282Y-140421175D01*
X33224536Y-140295734D01*
X33268957Y-140188492D01*
X33281934Y-140157164D01*
X33281935Y-140157162D01*
X33285044Y-140149655D01*
X33305682Y-139992893D01*
X33285044Y-139836131D01*
X33279459Y-139822646D01*
X33227646Y-139697560D01*
X33224536Y-139690052D01*
X33128282Y-139564611D01*
X33130436Y-139562958D01*
X33103334Y-139513325D01*
X33100500Y-139486967D01*
X33100500Y-138810148D01*
X33120185Y-138743109D01*
X33136819Y-138722467D01*
X33705483Y-138153802D01*
X33728050Y-138131235D01*
X33738108Y-138111496D01*
X33748274Y-138094906D01*
X33755559Y-138084879D01*
X33761296Y-138076983D01*
X33768141Y-138055916D01*
X33775586Y-138037941D01*
X33781215Y-138026894D01*
X33781216Y-138026892D01*
X33785646Y-138018197D01*
X33789114Y-137996299D01*
X33793651Y-137977403D01*
X33800499Y-137956326D01*
X33800499Y-137924418D01*
X33800500Y-137924412D01*
X33800500Y-131817437D01*
X33820185Y-131750398D01*
X33872989Y-131704643D01*
X33942147Y-131694699D01*
X33986501Y-131710050D01*
X33990708Y-131712479D01*
X33997159Y-131717429D01*
X34025579Y-131729201D01*
X34135729Y-131774827D01*
X34135731Y-131774828D01*
X34143238Y-131777937D01*
X34151297Y-131778998D01*
X34221619Y-131788256D01*
X34300000Y-131798575D01*
X34308059Y-131797514D01*
X34448703Y-131778998D01*
X34456762Y-131777937D01*
X34464269Y-131774828D01*
X34464271Y-131774827D01*
X34595333Y-131720539D01*
X34602841Y-131717429D01*
X34728282Y-131621175D01*
X34824536Y-131495734D01*
X34827646Y-131488226D01*
X34881934Y-131357164D01*
X34881935Y-131357162D01*
X34885044Y-131349655D01*
X34887256Y-131332857D01*
X34904621Y-131200952D01*
X34905682Y-131192893D01*
X34885044Y-131036131D01*
X34875803Y-131013820D01*
X34827646Y-130897560D01*
X34824536Y-130890052D01*
X34728282Y-130764611D01*
X34730436Y-130762958D01*
X34703334Y-130713325D01*
X34700500Y-130686967D01*
X34700500Y-129639510D01*
X34693655Y-129618444D01*
X34689111Y-129599518D01*
X34687172Y-129587276D01*
X34685646Y-129577639D01*
X34675587Y-129557897D01*
X34668141Y-129539921D01*
X34664311Y-129528133D01*
X34661296Y-129518854D01*
X34648274Y-129500930D01*
X34638109Y-129484344D01*
X34628050Y-129464601D01*
X34605487Y-129442038D01*
X34605484Y-129442034D01*
X32350859Y-127187409D01*
X32350855Y-127187406D01*
X32328292Y-127164843D01*
X32308552Y-127154785D01*
X32291966Y-127144621D01*
X32274040Y-127131597D01*
X32261603Y-127127556D01*
X32252969Y-127124750D01*
X32234998Y-127117306D01*
X32223952Y-127111678D01*
X32223947Y-127111676D01*
X32215254Y-127107247D01*
X32193374Y-127103782D01*
X32174449Y-127099238D01*
X32174057Y-127099111D01*
X32153383Y-127092393D01*
X30810147Y-127092393D01*
X30743108Y-127072708D01*
X30722466Y-127056074D01*
X30417150Y-126750757D01*
X30383665Y-126689434D01*
X30380831Y-126663076D01*
X30380831Y-125658114D01*
X30373986Y-125637048D01*
X30369442Y-125618122D01*
X30368709Y-125613492D01*
X30365977Y-125596243D01*
X30355918Y-125576501D01*
X30348472Y-125558525D01*
X30344642Y-125546737D01*
X30341627Y-125537458D01*
X30328605Y-125519534D01*
X30318440Y-125502948D01*
X30308381Y-125483205D01*
X30285818Y-125460642D01*
X30285815Y-125460638D01*
X29349899Y-124524722D01*
X29316414Y-124463399D01*
X29321398Y-124393707D01*
X29363270Y-124337774D01*
X29381667Y-124326363D01*
X29390522Y-124321890D01*
X29390535Y-124321882D01*
X29395941Y-124319151D01*
X29558282Y-124192317D01*
X29562238Y-124187733D01*
X29562242Y-124187730D01*
X29688933Y-124040955D01*
X29692895Y-124036365D01*
X29713718Y-123999711D01*
X29791658Y-123862511D01*
X29794654Y-123857237D01*
X29827887Y-123757336D01*
X29857770Y-123667504D01*
X29857770Y-123667503D01*
X29859682Y-123661756D01*
X29865154Y-123618446D01*
X29885067Y-123460812D01*
X29885067Y-123460808D01*
X29885502Y-123457367D01*
X29885914Y-123427893D01*
X29865811Y-123222863D01*
X29811465Y-123042862D01*
X29808019Y-123031448D01*
X29806266Y-123025642D01*
X29760437Y-122939449D01*
X29712396Y-122849096D01*
X29712395Y-122849094D01*
X29709549Y-122843742D01*
X29579342Y-122684093D01*
X29420606Y-122552775D01*
X29267243Y-122469852D01*
X29244724Y-122457676D01*
X29244722Y-122457675D01*
X29239386Y-122454790D01*
X29230322Y-122451984D01*
X29083916Y-122406664D01*
X29042585Y-122393870D01*
X28837700Y-122372336D01*
X28831667Y-122372885D01*
X28831663Y-122372885D01*
X28706052Y-122384317D01*
X28632534Y-122391007D01*
X28626721Y-122392718D01*
X28626720Y-122392718D01*
X28579336Y-122406664D01*
X28434903Y-122449173D01*
X28380698Y-122477511D01*
X28257705Y-122541810D01*
X28257701Y-122541813D01*
X28252333Y-122544619D01*
X28091778Y-122673708D01*
X27959355Y-122831523D01*
X27860107Y-123012055D01*
X27858273Y-123017837D01*
X27858272Y-123017839D01*
X27802516Y-123193606D01*
X27797815Y-123208425D01*
X27791062Y-123268631D01*
X27781378Y-123354969D01*
X27774851Y-123413155D01*
X27792090Y-123618446D01*
X27848875Y-123816479D01*
X27943043Y-123999711D01*
X27946811Y-124004465D01*
X28022659Y-124100161D01*
X28071008Y-124161163D01*
X28075623Y-124165090D01*
X28075631Y-124165099D01*
X28109546Y-124193962D01*
X28147842Y-124252402D01*
X28148463Y-124322269D01*
X28111213Y-124381380D01*
X28047917Y-124410969D01*
X28029180Y-124412393D01*
X27041704Y-124412393D01*
X26974665Y-124392708D01*
X26932218Y-124346607D01*
X26913330Y-124311082D01*
X26869549Y-124228742D01*
X26739342Y-124069093D01*
X26649588Y-123994842D01*
X26585277Y-123941639D01*
X26585276Y-123941638D01*
X26580606Y-123937775D01*
X26431654Y-123857237D01*
X26404724Y-123842676D01*
X26404722Y-123842675D01*
X26399386Y-123839790D01*
X26390322Y-123836984D01*
X26208377Y-123780663D01*
X26208378Y-123780663D01*
X26202585Y-123778870D01*
X25997700Y-123757336D01*
X25991667Y-123757885D01*
X25991663Y-123757885D01*
X25866052Y-123769317D01*
X25792534Y-123776007D01*
X25786721Y-123777718D01*
X25786720Y-123777718D01*
X25655022Y-123816479D01*
X25594903Y-123834173D01*
X25550786Y-123857237D01*
X25417705Y-123926810D01*
X25417701Y-123926813D01*
X25412333Y-123929619D01*
X25407610Y-123933416D01*
X25407609Y-123933417D01*
X25278687Y-124037073D01*
X25251778Y-124058708D01*
X25247879Y-124063355D01*
X25219489Y-124097188D01*
X25161317Y-124135890D01*
X25091456Y-124136998D01*
X25032087Y-124100161D01*
X25002057Y-124037073D01*
X25000500Y-124017482D01*
X25000500Y-122841413D01*
X25020185Y-122774374D01*
X25072989Y-122728619D01*
X25142147Y-122718675D01*
X25205703Y-122747700D01*
X25221679Y-122764393D01*
X25231008Y-122776163D01*
X25235627Y-122780094D01*
X25383281Y-122905758D01*
X25383286Y-122905762D01*
X25387895Y-122909684D01*
X25567729Y-123010190D01*
X25712223Y-123057139D01*
X25721564Y-123060174D01*
X25763660Y-123073852D01*
X25769678Y-123074570D01*
X25769680Y-123074570D01*
X25911741Y-123091509D01*
X25968225Y-123098244D01*
X25974269Y-123097779D01*
X25974270Y-123097779D01*
X26035597Y-123093060D01*
X26173631Y-123082439D01*
X26264246Y-123057139D01*
X26366216Y-123028669D01*
X26366220Y-123028667D01*
X26372056Y-123027038D01*
X26555941Y-122934151D01*
X26718282Y-122807317D01*
X26722238Y-122802733D01*
X26722242Y-122802730D01*
X26848933Y-122655955D01*
X26852895Y-122651365D01*
X26873718Y-122614711D01*
X26951658Y-122477511D01*
X26954654Y-122472237D01*
X27019682Y-122276756D01*
X27022817Y-122251945D01*
X27045067Y-122075812D01*
X27045067Y-122075808D01*
X27045502Y-122072367D01*
X27045914Y-122042893D01*
X27037222Y-121954245D01*
X27026403Y-121843899D01*
X27026403Y-121843897D01*
X27025811Y-121837863D01*
X27024059Y-121832060D01*
X26968019Y-121646448D01*
X26966266Y-121640642D01*
X26869549Y-121458742D01*
X26744012Y-121304819D01*
X26716895Y-121240426D01*
X26728897Y-121171595D01*
X26776206Y-121120179D01*
X26843803Y-121102502D01*
X26897075Y-121117631D01*
X26897159Y-121117429D01*
X26970199Y-121147683D01*
X27035729Y-121174827D01*
X27035731Y-121174828D01*
X27043238Y-121177937D01*
X27200000Y-121198575D01*
X27208059Y-121197514D01*
X27348703Y-121178998D01*
X27356762Y-121177937D01*
X27364269Y-121174828D01*
X27364271Y-121174827D01*
X27495333Y-121120539D01*
X27502841Y-121117429D01*
X27628282Y-121021175D01*
X27634454Y-121013132D01*
X27635831Y-121012126D01*
X27638977Y-121008980D01*
X27639468Y-121009471D01*
X27690879Y-120971929D01*
X27760624Y-120967772D01*
X27821546Y-121001983D01*
X27847669Y-121042272D01*
X27848875Y-121046479D01*
X27943043Y-121229711D01*
X27946811Y-121234465D01*
X28048231Y-121362425D01*
X28071008Y-121391163D01*
X28082168Y-121400661D01*
X28223281Y-121520758D01*
X28223286Y-121520762D01*
X28227895Y-121524684D01*
X28407729Y-121625190D01*
X28603660Y-121688852D01*
X28609678Y-121689570D01*
X28609680Y-121689570D01*
X28751741Y-121706509D01*
X28808225Y-121713244D01*
X28814269Y-121712779D01*
X28814270Y-121712779D01*
X28875597Y-121708060D01*
X29013631Y-121697439D01*
X29098927Y-121673624D01*
X29206216Y-121643669D01*
X29206220Y-121643667D01*
X29212056Y-121642038D01*
X29395941Y-121549151D01*
X29558282Y-121422317D01*
X29562238Y-121417733D01*
X29562242Y-121417730D01*
X29688933Y-121270955D01*
X29692895Y-121266365D01*
X29707631Y-121240426D01*
X29791658Y-121092511D01*
X29794654Y-121087237D01*
X29859682Y-120891756D01*
X29865154Y-120848446D01*
X29885067Y-120690812D01*
X29885067Y-120690808D01*
X29885502Y-120687367D01*
X29885728Y-120671178D01*
X29885866Y-120661354D01*
X29885866Y-120661347D01*
X29885914Y-120657893D01*
X29885494Y-120653606D01*
X29866403Y-120458899D01*
X29866403Y-120458897D01*
X29865811Y-120452863D01*
X29819006Y-120297839D01*
X29808019Y-120261448D01*
X29806266Y-120255642D01*
X29709549Y-120073742D01*
X29579342Y-119914093D01*
X29574675Y-119910232D01*
X29570395Y-119905922D01*
X29572076Y-119904253D01*
X29538833Y-119855022D01*
X29537246Y-119785170D01*
X29573675Y-119725549D01*
X29636555Y-119695088D01*
X29656986Y-119693393D01*
X33694074Y-119693393D01*
X33761113Y-119713078D01*
X33771505Y-119721452D01*
X33771718Y-119721175D01*
X33897159Y-119817429D01*
X33904667Y-119820539D01*
X34035729Y-119874827D01*
X34035731Y-119874828D01*
X34043238Y-119877937D01*
X34200000Y-119898575D01*
X34208059Y-119897514D01*
X34348703Y-119878998D01*
X34356762Y-119877937D01*
X34364269Y-119874828D01*
X34364271Y-119874827D01*
X34495333Y-119820539D01*
X34502841Y-119817429D01*
X34628282Y-119721175D01*
X34724536Y-119595734D01*
X34727646Y-119588226D01*
X34781934Y-119457164D01*
X34781935Y-119457162D01*
X34785044Y-119449655D01*
X34805682Y-119292893D01*
X34785044Y-119136131D01*
X34773967Y-119109387D01*
X34727646Y-118997560D01*
X34724536Y-118990052D01*
X34669600Y-118918458D01*
X34633229Y-118871058D01*
X34628282Y-118864611D01*
X34502841Y-118768357D01*
X34444521Y-118744200D01*
X34364271Y-118710959D01*
X34364269Y-118710958D01*
X34356762Y-118707849D01*
X34200000Y-118687211D01*
X34043238Y-118707849D01*
X34035731Y-118710958D01*
X34035729Y-118710959D01*
X33955479Y-118744200D01*
X33897159Y-118768357D01*
X33771718Y-118864611D01*
X33770065Y-118862457D01*
X33720432Y-118889559D01*
X33694074Y-118892393D01*
X29996155Y-118892393D01*
X29929116Y-118872708D01*
X29883361Y-118819904D01*
X29874538Y-118744202D01*
X29880831Y-118712567D01*
X29880831Y-117063219D01*
X29866297Y-116990153D01*
X29810932Y-116907292D01*
X29728071Y-116851927D01*
X29694018Y-116845153D01*
X29660984Y-116838582D01*
X29660981Y-116838582D01*
X29655005Y-116837393D01*
X28005657Y-116837393D01*
X27999681Y-116838582D01*
X27999678Y-116838582D01*
X27966644Y-116845153D01*
X27932591Y-116851927D01*
X27849730Y-116907292D01*
X27794365Y-116990153D01*
X27779831Y-117063219D01*
X27779831Y-118712567D01*
X27786124Y-118744202D01*
X27779898Y-118813791D01*
X27737036Y-118868969D01*
X27664507Y-118892393D01*
X27052338Y-118892393D01*
X26985299Y-118872708D01*
X26942852Y-118826607D01*
X26940629Y-118822425D01*
X26869549Y-118688742D01*
X26739342Y-118529093D01*
X26663563Y-118466403D01*
X26585277Y-118401639D01*
X26585276Y-118401638D01*
X26580606Y-118397775D01*
X26399386Y-118299790D01*
X26390322Y-118296984D01*
X26208377Y-118240663D01*
X26208378Y-118240663D01*
X26202585Y-118238870D01*
X25997700Y-118217336D01*
X25991667Y-118217885D01*
X25991663Y-118217885D01*
X25866052Y-118229317D01*
X25792534Y-118236007D01*
X25786721Y-118237718D01*
X25786720Y-118237718D01*
X25600723Y-118292460D01*
X25594903Y-118294173D01*
X25511150Y-118337958D01*
X25417705Y-118386810D01*
X25417701Y-118386813D01*
X25412333Y-118389619D01*
X25407610Y-118393416D01*
X25407609Y-118393417D01*
X25316833Y-118466403D01*
X25251778Y-118518708D01*
X25119355Y-118676523D01*
X25020107Y-118857055D01*
X25018273Y-118862837D01*
X25018272Y-118862839D01*
X25009796Y-118889559D01*
X24957815Y-119053425D01*
X24957139Y-119059453D01*
X24937888Y-119231082D01*
X24934851Y-119258155D01*
X24952090Y-119463446D01*
X25008875Y-119661479D01*
X25011647Y-119666874D01*
X25011648Y-119666875D01*
X25034811Y-119711945D01*
X25103043Y-119844711D01*
X25106811Y-119849465D01*
X25194975Y-119960700D01*
X25231008Y-120006163D01*
X25246254Y-120019138D01*
X25339002Y-120098073D01*
X25377297Y-120156513D01*
X25377918Y-120226380D01*
X25346316Y-120280185D01*
X25339095Y-120287406D01*
X25339091Y-120287409D01*
X24294516Y-121331984D01*
X24294513Y-121331988D01*
X24271950Y-121354551D01*
X24262176Y-121373735D01*
X24261894Y-121374288D01*
X24251728Y-121390877D01*
X24238704Y-121408803D01*
X24235687Y-121418089D01*
X24231857Y-121429874D01*
X24224413Y-121447845D01*
X24218785Y-121458891D01*
X24218783Y-121458896D01*
X24214354Y-121467589D01*
X24212828Y-121477226D01*
X24210889Y-121489468D01*
X24206345Y-121508394D01*
X24199500Y-121529460D01*
X24199500Y-133956326D01*
X20264716Y-133956326D01*
X20264716Y-112903890D01*
X25828953Y-112903890D01*
X25837642Y-112915326D01*
X26060657Y-113077356D01*
X26067246Y-113081538D01*
X26336947Y-113229807D01*
X26343990Y-113233121D01*
X26630160Y-113346424D01*
X26637560Y-113348829D01*
X26935666Y-113425370D01*
X26943324Y-113426831D01*
X27248675Y-113465405D01*
X27256436Y-113465893D01*
X27564226Y-113465893D01*
X27571987Y-113465405D01*
X27877338Y-113426831D01*
X27884996Y-113425370D01*
X28183102Y-113348829D01*
X28190502Y-113346424D01*
X28476672Y-113233121D01*
X28483715Y-113229807D01*
X28753416Y-113081538D01*
X28760005Y-113077356D01*
X28983383Y-112915062D01*
X28991675Y-112904309D01*
X28984882Y-112891654D01*
X27422938Y-111329710D01*
X27409218Y-111322218D01*
X27407412Y-111322347D01*
X27400905Y-111326529D01*
X25835460Y-112891974D01*
X25828953Y-112903890D01*
X20264716Y-112903890D01*
X20264716Y-110961787D01*
X24897617Y-110961787D01*
X24916942Y-111268957D01*
X24917917Y-111276677D01*
X24975591Y-111579011D01*
X24977526Y-111586550D01*
X25072637Y-111879271D01*
X25075497Y-111886495D01*
X25206552Y-112165001D01*
X25210294Y-112171807D01*
X25375214Y-112431679D01*
X25379788Y-112437975D01*
X25455010Y-112528903D01*
X25467330Y-112537225D01*
X25477897Y-112531117D01*
X27038514Y-110970500D01*
X27044790Y-110959006D01*
X27774656Y-110959006D01*
X27774785Y-110960812D01*
X27778967Y-110967319D01*
X29341681Y-112530033D01*
X29354731Y-112537159D01*
X29364674Y-112530085D01*
X29440874Y-112437975D01*
X29445448Y-112431679D01*
X29610368Y-112171807D01*
X29614110Y-112165001D01*
X29745165Y-111886495D01*
X29748025Y-111879271D01*
X29843136Y-111586550D01*
X29845071Y-111579011D01*
X29902745Y-111276677D01*
X29903720Y-111268957D01*
X29923045Y-110961787D01*
X29923045Y-110953999D01*
X29903720Y-110646829D01*
X29902745Y-110639109D01*
X29845071Y-110336775D01*
X29843136Y-110329236D01*
X29748025Y-110036515D01*
X29745165Y-110029291D01*
X29614110Y-109750785D01*
X29610368Y-109743979D01*
X29445448Y-109484107D01*
X29440874Y-109477811D01*
X29365652Y-109386883D01*
X29353332Y-109378561D01*
X29342765Y-109384669D01*
X27782148Y-110945286D01*
X27774656Y-110959006D01*
X27044790Y-110959006D01*
X27046006Y-110956780D01*
X27045877Y-110954974D01*
X27041695Y-110948467D01*
X25478981Y-109385753D01*
X25465931Y-109378627D01*
X25455988Y-109385701D01*
X25379788Y-109477811D01*
X25375214Y-109484107D01*
X25210294Y-109743979D01*
X25206552Y-109750785D01*
X25075497Y-110029291D01*
X25072637Y-110036515D01*
X24977526Y-110329236D01*
X24975591Y-110336775D01*
X24917917Y-110639109D01*
X24916942Y-110646829D01*
X24897617Y-110953999D01*
X24897617Y-110961787D01*
X20264716Y-110961787D01*
X20264716Y-109011477D01*
X25828987Y-109011477D01*
X25835780Y-109024132D01*
X27397724Y-110586076D01*
X27411444Y-110593568D01*
X27413250Y-110593439D01*
X27419757Y-110589257D01*
X28985202Y-109023812D01*
X28991709Y-109011896D01*
X28983020Y-109000460D01*
X28760005Y-108838430D01*
X28753416Y-108834248D01*
X28483715Y-108685979D01*
X28476672Y-108682665D01*
X28190502Y-108569362D01*
X28183102Y-108566957D01*
X27884996Y-108490416D01*
X27877338Y-108488955D01*
X27571987Y-108450381D01*
X27564226Y-108449893D01*
X27256436Y-108449893D01*
X27248675Y-108450381D01*
X26943324Y-108488955D01*
X26935666Y-108490416D01*
X26637560Y-108566957D01*
X26630160Y-108569362D01*
X26343990Y-108682665D01*
X26336947Y-108685979D01*
X26067246Y-108834248D01*
X26060657Y-108838430D01*
X25837279Y-109000724D01*
X25828987Y-109011477D01*
X20264716Y-109011477D01*
X20264716Y-102472285D01*
X21885447Y-102472285D01*
X21893456Y-102483117D01*
X22153971Y-102683017D01*
X22159503Y-102686805D01*
X22455304Y-102866655D01*
X22461198Y-102869817D01*
X22774715Y-103016679D01*
X22780901Y-103019178D01*
X23108436Y-103131317D01*
X23114882Y-103133141D01*
X23452593Y-103209248D01*
X23459202Y-103210366D01*
X23803161Y-103249555D01*
X23809856Y-103249953D01*
X24156027Y-103251765D01*
X24162727Y-103251438D01*
X24507062Y-103215854D01*
X24513704Y-103214802D01*
X24852182Y-103142238D01*
X24858655Y-103140480D01*
X25187324Y-103031783D01*
X25193574Y-103029333D01*
X25508590Y-102885773D01*
X25514510Y-102882678D01*
X25812187Y-102705931D01*
X25817757Y-102702201D01*
X26094603Y-102494339D01*
X26099716Y-102490049D01*
X26106448Y-102483750D01*
X26114390Y-102470286D01*
X26114362Y-102469573D01*
X26109303Y-102461406D01*
X24012607Y-100364710D01*
X23998887Y-100357218D01*
X23997081Y-100357347D01*
X23990574Y-100361529D01*
X21892217Y-102459886D01*
X21885447Y-102472285D01*
X20264716Y-102472285D01*
X20264716Y-99984855D01*
X20737405Y-99984855D01*
X20754919Y-100330585D01*
X20755622Y-100337272D01*
X20810370Y-100679077D01*
X20811790Y-100685646D01*
X20903135Y-101019546D01*
X20905253Y-101025912D01*
X21032133Y-101348019D01*
X21034910Y-101354085D01*
X21195843Y-101660615D01*
X21199267Y-101666360D01*
X21392351Y-101953699D01*
X21396390Y-101959058D01*
X21512097Y-102096464D01*
X21524633Y-102104773D01*
X21534909Y-102098774D01*
X23628183Y-100005500D01*
X23634459Y-99994006D01*
X24364325Y-99994006D01*
X24364454Y-99995812D01*
X24368636Y-100002319D01*
X26463758Y-102097441D01*
X26477138Y-102104747D01*
X26486594Y-102098155D01*
X26582891Y-101986200D01*
X26586965Y-101980909D01*
X26783059Y-101695591D01*
X26786540Y-101689888D01*
X26950662Y-101385080D01*
X26953522Y-101379001D01*
X27083758Y-101058271D01*
X27085945Y-101051920D01*
X27180784Y-100718985D01*
X27182269Y-100712449D01*
X27240595Y-100371223D01*
X27241367Y-100364556D01*
X27262596Y-100017461D01*
X27262711Y-100013869D01*
X27262779Y-99994694D01*
X27262688Y-99991107D01*
X27243882Y-99643855D01*
X27243159Y-99637207D01*
X27187215Y-99295572D01*
X27185774Y-99289020D01*
X27093260Y-98955426D01*
X27091126Y-98949084D01*
X26963126Y-98627433D01*
X26960311Y-98621342D01*
X26798327Y-98315406D01*
X26794865Y-98309646D01*
X26600785Y-98022991D01*
X26596742Y-98017665D01*
X26487905Y-97889328D01*
X26475283Y-97881025D01*
X26465122Y-97886981D01*
X24371817Y-99980286D01*
X24364325Y-99994006D01*
X23634459Y-99994006D01*
X23635675Y-99991780D01*
X23635546Y-99989974D01*
X23631364Y-99983467D01*
X21536252Y-97888355D01*
X21522933Y-97881082D01*
X21513383Y-97887764D01*
X21410186Y-98008592D01*
X21406098Y-98013939D01*
X21211022Y-98299909D01*
X21207550Y-98305641D01*
X21044487Y-98611032D01*
X21041668Y-98617077D01*
X20912537Y-98938301D01*
X20910380Y-98944635D01*
X20816699Y-99277915D01*
X20815239Y-99284449D01*
X20758103Y-99625882D01*
X20757356Y-99632546D01*
X20737428Y-99978152D01*
X20737405Y-99984855D01*
X20264716Y-99984855D01*
X20264716Y-97515108D01*
X21885240Y-97515108D01*
X21885275Y-97515936D01*
X21890245Y-97523928D01*
X23987393Y-99621076D01*
X24001113Y-99628568D01*
X24002919Y-99628439D01*
X24009426Y-99624257D01*
X26107636Y-97526047D01*
X26115128Y-97512327D01*
X26115060Y-97511384D01*
X26111150Y-97505471D01*
X25836625Y-97296339D01*
X25831084Y-97292574D01*
X25534657Y-97113758D01*
X25528742Y-97110613D01*
X25214744Y-96964859D01*
X25208508Y-96962365D01*
X24880604Y-96851376D01*
X24874158Y-96849576D01*
X24536174Y-96774647D01*
X24529555Y-96773551D01*
X24185462Y-96735562D01*
X24178789Y-96735189D01*
X23832591Y-96734586D01*
X23825905Y-96734936D01*
X23481670Y-96771724D01*
X23475074Y-96772793D01*
X23136825Y-96846542D01*
X23130361Y-96848323D01*
X22802078Y-96958165D01*
X22795833Y-96960638D01*
X22481340Y-97105288D01*
X22475393Y-97108423D01*
X22178343Y-97286205D01*
X22172812Y-97289935D01*
X21896686Y-97498767D01*
X21892959Y-97501917D01*
X21885240Y-97515108D01*
X20264716Y-97515108D01*
X20264716Y-97036885D01*
X20267099Y-97012694D01*
X20267241Y-97011980D01*
X20269624Y-97000000D01*
X20267241Y-96988021D01*
X20267241Y-96980452D01*
X20267838Y-96968298D01*
X20277920Y-96865933D01*
X20282663Y-96842091D01*
X20318222Y-96724871D01*
X20327524Y-96702413D01*
X20385273Y-96594374D01*
X20398779Y-96574162D01*
X20476491Y-96479472D01*
X20493679Y-96462284D01*
X20588374Y-96384571D01*
X20608586Y-96371066D01*
X20716623Y-96313321D01*
X20739080Y-96304019D01*
X20760031Y-96297664D01*
X20856309Y-96268459D01*
X20880148Y-96263718D01*
X20982674Y-96253622D01*
X20994827Y-96253025D01*
X21002233Y-96253025D01*
X21014212Y-96255408D01*
X21026188Y-96253026D01*
X21026189Y-96253026D01*
X21026912Y-96252882D01*
X21051101Y-96250500D01*
X37220500Y-96250500D01*
X37287539Y-96270185D01*
G37*
%TD.AperFunction*%
%TD*%
%TA.AperFunction,Conductor*%
%TO.N,GND2*%
G36*
X51001518Y-96252883D02*
G01*
X51014212Y-96255408D01*
X51026191Y-96253026D01*
X51033760Y-96253026D01*
X51045912Y-96253623D01*
X51148277Y-96263706D01*
X51172119Y-96268449D01*
X51289344Y-96304011D01*
X51311802Y-96313314D01*
X51419835Y-96371061D01*
X51440045Y-96384565D01*
X51534739Y-96462279D01*
X51551928Y-96479468D01*
X51629642Y-96574165D01*
X51643144Y-96594372D01*
X51700892Y-96702412D01*
X51710193Y-96724865D01*
X51734130Y-96803776D01*
X51745754Y-96842095D01*
X51750496Y-96865936D01*
X51760594Y-96968463D01*
X51761191Y-96980617D01*
X51761191Y-96988020D01*
X51758808Y-97000000D01*
X51761191Y-97011980D01*
X51761333Y-97012694D01*
X51763716Y-97036885D01*
X51763716Y-102968893D01*
X51744031Y-103035932D01*
X51691227Y-103081687D01*
X51639716Y-103092893D01*
X51106886Y-103092893D01*
X51039847Y-103073208D01*
X51006235Y-103038867D01*
X51005351Y-103039527D01*
X50970074Y-102992285D01*
X50884335Y-102877467D01*
X50735812Y-102740174D01*
X50585526Y-102645350D01*
X50569566Y-102635280D01*
X50569564Y-102635279D01*
X50564757Y-102632246D01*
X50376898Y-102557298D01*
X50371317Y-102556188D01*
X50371314Y-102556187D01*
X50303373Y-102542673D01*
X50178526Y-102517839D01*
X50172839Y-102517765D01*
X50172834Y-102517764D01*
X49981975Y-102515266D01*
X49981970Y-102515266D01*
X49976286Y-102515192D01*
X49970682Y-102516155D01*
X49970681Y-102516155D01*
X49782546Y-102548482D01*
X49782543Y-102548483D01*
X49776949Y-102549444D01*
X49736637Y-102564316D01*
X49592521Y-102617483D01*
X49592517Y-102617485D01*
X49587193Y-102619449D01*
X49584692Y-102620937D01*
X49516599Y-102631892D01*
X49452567Y-102603932D01*
X49413816Y-102545793D01*
X49412649Y-102475933D01*
X49444512Y-102421195D01*
X49686259Y-102179448D01*
X49747582Y-102145963D01*
X49801304Y-102146187D01*
X49893359Y-102167017D01*
X49913193Y-102171505D01*
X49913195Y-102171505D01*
X49918740Y-102172760D01*
X50047697Y-102177826D01*
X50115161Y-102180477D01*
X50115163Y-102180477D01*
X50120842Y-102180700D01*
X50126462Y-102179885D01*
X50126465Y-102179885D01*
X50315387Y-102152493D01*
X50315389Y-102152493D01*
X50321007Y-102151678D01*
X50326384Y-102149853D01*
X50326387Y-102149852D01*
X50411090Y-102121099D01*
X50512531Y-102086664D01*
X50689001Y-101987837D01*
X50844505Y-101858505D01*
X50973837Y-101703001D01*
X51072664Y-101526531D01*
X51137678Y-101335007D01*
X51166700Y-101134842D01*
X51168215Y-101077000D01*
X51149708Y-100875591D01*
X51094807Y-100680926D01*
X51005351Y-100499527D01*
X50884335Y-100337467D01*
X50735812Y-100200174D01*
X50564757Y-100092246D01*
X50483126Y-100059678D01*
X50428152Y-100016553D01*
X50405222Y-99950553D01*
X50421613Y-99882634D01*
X50472123Y-99834358D01*
X50493441Y-99825736D01*
X50555332Y-99807168D01*
X50564768Y-99803470D01*
X50756168Y-99709703D01*
X50764877Y-99704512D01*
X50938402Y-99580739D01*
X50946135Y-99574203D01*
X51097103Y-99423760D01*
X51103687Y-99416024D01*
X51228050Y-99242955D01*
X51233278Y-99234254D01*
X51327707Y-99043193D01*
X51331444Y-99033753D01*
X51393402Y-98829829D01*
X51395544Y-98819918D01*
X51397024Y-98808676D01*
X51394847Y-98794719D01*
X51381898Y-98791000D01*
X48745940Y-98791000D01*
X48732623Y-98794910D01*
X48731208Y-98804748D01*
X48761580Y-98939517D01*
X48764618Y-98949209D01*
X48844800Y-99146675D01*
X48849374Y-99155730D01*
X48960731Y-99337448D01*
X48966725Y-99345639D01*
X49106270Y-99506734D01*
X49113515Y-99513829D01*
X49277497Y-99649969D01*
X49285813Y-99655791D01*
X49469820Y-99763317D01*
X49478976Y-99767703D01*
X49638780Y-99828726D01*
X49694387Y-99871030D01*
X49718294Y-99936682D01*
X49702912Y-100004838D01*
X49653124Y-100053858D01*
X49637464Y-100060903D01*
X49592521Y-100077483D01*
X49592517Y-100077485D01*
X49587193Y-100079449D01*
X49582310Y-100082354D01*
X49582308Y-100082355D01*
X49565683Y-100092246D01*
X49413371Y-100182862D01*
X49261305Y-100316220D01*
X49136089Y-100475057D01*
X49041914Y-100654053D01*
X49040229Y-100659479D01*
X49040228Y-100659482D01*
X49033570Y-100680926D01*
X48981937Y-100847213D01*
X48958164Y-101048069D01*
X48958535Y-101053731D01*
X48958535Y-101053735D01*
X48963851Y-101134842D01*
X48971392Y-101249894D01*
X49000373Y-101364006D01*
X48997796Y-101433828D01*
X48967869Y-101482210D01*
X47895561Y-102554518D01*
X47886172Y-102562021D01*
X47886480Y-102562383D01*
X47879754Y-102568108D01*
X47872280Y-102572823D01*
X47866431Y-102579446D01*
X47837207Y-102612536D01*
X47831945Y-102618134D01*
X47820680Y-102629399D01*
X47818033Y-102632931D01*
X47818032Y-102632932D01*
X47814512Y-102637629D01*
X47808231Y-102645346D01*
X47777377Y-102680281D01*
X47773623Y-102688277D01*
X47772043Y-102690682D01*
X47763160Y-102705464D01*
X47761771Y-102708001D01*
X47756474Y-102715069D01*
X47753373Y-102723342D01*
X47753372Y-102723343D01*
X47740115Y-102758706D01*
X47736258Y-102767861D01*
X47716447Y-102810056D01*
X47715087Y-102818790D01*
X47714238Y-102821568D01*
X47709870Y-102838215D01*
X47709248Y-102841045D01*
X47706148Y-102849313D01*
X47705494Y-102858117D01*
X47705493Y-102858120D01*
X47702694Y-102895792D01*
X47701561Y-102905666D01*
X47699500Y-102918902D01*
X47699500Y-102934178D01*
X47699159Y-102943368D01*
X47696579Y-102978083D01*
X47671980Y-103043479D01*
X47615930Y-103085195D01*
X47572920Y-103092893D01*
X45100000Y-103092893D01*
X45042071Y-103104416D01*
X44997173Y-103113346D01*
X44997171Y-103113347D01*
X44985195Y-103115729D01*
X44887868Y-103180761D01*
X44822836Y-103278088D01*
X44800000Y-103392893D01*
X44800000Y-123544928D01*
X44780315Y-123611967D01*
X44727511Y-123657722D01*
X44658353Y-123667666D01*
X44600514Y-123643304D01*
X44509288Y-123573304D01*
X44502841Y-123568357D01*
X44495333Y-123565247D01*
X44364271Y-123510959D01*
X44364269Y-123510958D01*
X44356762Y-123507849D01*
X44200000Y-123487211D01*
X44043238Y-123507849D01*
X44035731Y-123510958D01*
X44035729Y-123510959D01*
X43904667Y-123565247D01*
X43897159Y-123568357D01*
X43771718Y-123664611D01*
X43675464Y-123790052D01*
X43672354Y-123797560D01*
X43626580Y-123908069D01*
X43614956Y-123936131D01*
X43594318Y-124092893D01*
X43614956Y-124249655D01*
X43675464Y-124395734D01*
X43680411Y-124402181D01*
X43771718Y-124521175D01*
X43769564Y-124522828D01*
X43796666Y-124572461D01*
X43799500Y-124598819D01*
X43799500Y-125410407D01*
X43779815Y-125477446D01*
X43771441Y-125487838D01*
X43771718Y-125488051D01*
X43675464Y-125613492D01*
X43672354Y-125621000D01*
X43624112Y-125737467D01*
X43614956Y-125759571D01*
X43594318Y-125916333D01*
X43614956Y-126073095D01*
X43618065Y-126080602D01*
X43618066Y-126080604D01*
X43641066Y-126136131D01*
X43675464Y-126219174D01*
X43771718Y-126344615D01*
X43897159Y-126440869D01*
X43904667Y-126443979D01*
X44035729Y-126498267D01*
X44035731Y-126498268D01*
X44043238Y-126501377D01*
X44200000Y-126522015D01*
X44208059Y-126520954D01*
X44348703Y-126502438D01*
X44356762Y-126501377D01*
X44364269Y-126498268D01*
X44364271Y-126498267D01*
X44495333Y-126443979D01*
X44502841Y-126440869D01*
X44600514Y-126365922D01*
X44665683Y-126340728D01*
X44734128Y-126354766D01*
X44784117Y-126403580D01*
X44800000Y-126464298D01*
X44800000Y-149680682D01*
X44797617Y-149704873D01*
X44781976Y-149783506D01*
X44763461Y-149828206D01*
X44725835Y-149884517D01*
X44691624Y-149918728D01*
X44635313Y-149956354D01*
X44590613Y-149974869D01*
X44511980Y-149990510D01*
X44487789Y-149992893D01*
X37912211Y-149992893D01*
X37888020Y-149990510D01*
X37809387Y-149974869D01*
X37764687Y-149956354D01*
X37708376Y-149918728D01*
X37674165Y-149884517D01*
X37636539Y-149828206D01*
X37618024Y-149783506D01*
X37602383Y-149704873D01*
X37600000Y-149680682D01*
X37600000Y-98271366D01*
X48727338Y-98271366D01*
X48728838Y-98279660D01*
X48741025Y-98283000D01*
X49791170Y-98283000D01*
X49806169Y-98278596D01*
X49807356Y-98277226D01*
X49809000Y-98269668D01*
X49809000Y-98265170D01*
X50317000Y-98265170D01*
X50321404Y-98280169D01*
X50322774Y-98281356D01*
X50330332Y-98283000D01*
X51381629Y-98283000D01*
X51394946Y-98279090D01*
X51396232Y-98270151D01*
X51354193Y-98102790D01*
X51350930Y-98093207D01*
X51265940Y-97897741D01*
X51261149Y-97888805D01*
X51145378Y-97709852D01*
X51139194Y-97701822D01*
X50995751Y-97544180D01*
X50988333Y-97537263D01*
X50821076Y-97405172D01*
X50812629Y-97399560D01*
X50626037Y-97296555D01*
X50616782Y-97292396D01*
X50415890Y-97221256D01*
X50406066Y-97218660D01*
X50334555Y-97205922D01*
X50321468Y-97207358D01*
X50317000Y-97221685D01*
X50317000Y-98265170D01*
X49809000Y-98265170D01*
X49809000Y-97219817D01*
X49805143Y-97206682D01*
X49791094Y-97204727D01*
X49752235Y-97210674D01*
X49742376Y-97213022D01*
X49539785Y-97279239D01*
X49530436Y-97283169D01*
X49341389Y-97381580D01*
X49332804Y-97386987D01*
X49162368Y-97514954D01*
X49154780Y-97521691D01*
X49007532Y-97675778D01*
X49001153Y-97683655D01*
X48881050Y-97859719D01*
X48876035Y-97868547D01*
X48786301Y-98061864D01*
X48782799Y-98071382D01*
X48727338Y-98271366D01*
X37600000Y-98271366D01*
X37600000Y-96374500D01*
X37619685Y-96307461D01*
X37672489Y-96261706D01*
X37724000Y-96250500D01*
X50977326Y-96250500D01*
X51001518Y-96252883D01*
G37*
%TD.AperFunction*%
%TD*%
M02*
