%TF.GenerationSoftware,KiCad,Pcbnew,(6.0.11-0)*%
%TF.CreationDate,2023-05-17T23:02:26+12:00*%
%TF.ProjectId,controller-upper-cut,636f6e74-726f-46c6-9c65-722d75707065,3.2*%
%TF.SameCoordinates,PX1c9c380PY1312d00*%
%TF.FileFunction,OtherDrawing,Comment*%
%FSLAX46Y46*%
G04 Gerber Fmt 4.6, Leading zero omitted, Abs format (unit mm)*
G04 Created by KiCad (PCBNEW (6.0.11-0)) date 2023-05-17 23:02:26*
%MOMM*%
%LPD*%
G01*
G04 APERTURE LIST*
%ADD10C,0.200000*%
%ADD11C,0.150000*%
G04 APERTURE END LIST*
D10*
X8766666Y-147571428D02*
X8766666Y-149000000D01*
X5966666Y-149000000D01*
X8766666Y-146571428D02*
X5966666Y-146571428D01*
X5966666Y-145428571D01*
X6100000Y-145142857D01*
X6233333Y-145000000D01*
X6500000Y-144857142D01*
X6900000Y-144857142D01*
X7166666Y-145000000D01*
X7300000Y-145142857D01*
X7433333Y-145428571D01*
X7433333Y-146571428D01*
X5966666Y-144000000D02*
X5966666Y-142285714D01*
X8766666Y-143142857D02*
X5966666Y-143142857D01*
X8766666Y-139000000D02*
X5966666Y-139000000D01*
X8766666Y-137571428D02*
X5966666Y-137571428D01*
X8766666Y-135857142D01*
X5966666Y-135857142D01*
X5966666Y-134857142D02*
X5966666Y-133142857D01*
X8766666Y-134000000D02*
X5966666Y-134000000D01*
X7300000Y-132142857D02*
X7300000Y-131142857D01*
X8766666Y-130714285D02*
X8766666Y-132142857D01*
X5966666Y-132142857D01*
X5966666Y-130714285D01*
X8766666Y-127714285D02*
X7433333Y-128714285D01*
X8766666Y-129428571D02*
X5966666Y-129428571D01*
X5966666Y-128285714D01*
X6100000Y-128000000D01*
X6233333Y-127857142D01*
X6500000Y-127714285D01*
X6900000Y-127714285D01*
X7166666Y-127857142D01*
X7300000Y-128000000D01*
X7433333Y-128285714D01*
X7433333Y-129428571D01*
X7300000Y-125428571D02*
X7300000Y-126428571D01*
X8766666Y-126428571D02*
X5966666Y-126428571D01*
X5966666Y-125000000D01*
X7966666Y-124000000D02*
X7966666Y-122571428D01*
X8766666Y-124285714D02*
X5966666Y-123285714D01*
X8766666Y-122285714D01*
X8500000Y-119571428D02*
X8633333Y-119714285D01*
X8766666Y-120142857D01*
X8766666Y-120428571D01*
X8633333Y-120857142D01*
X8366666Y-121142857D01*
X8100000Y-121285714D01*
X7566666Y-121428571D01*
X7166666Y-121428571D01*
X6633333Y-121285714D01*
X6366666Y-121142857D01*
X6100000Y-120857142D01*
X5966666Y-120428571D01*
X5966666Y-120142857D01*
X6100000Y-119714285D01*
X6233333Y-119571428D01*
X7300000Y-118285714D02*
X7300000Y-117285714D01*
X8766666Y-116857142D02*
X8766666Y-118285714D01*
X5966666Y-118285714D01*
X5966666Y-116857142D01*
D11*
X17152380Y-138542857D02*
X17152380Y-138733333D01*
X17200000Y-138828571D01*
X17247619Y-138876190D01*
X17390476Y-138971428D01*
X17580952Y-139019047D01*
X17961904Y-139019047D01*
X18057142Y-138971428D01*
X18104761Y-138923809D01*
X18152380Y-138828571D01*
X18152380Y-138638095D01*
X18104761Y-138542857D01*
X18057142Y-138495238D01*
X17961904Y-138447619D01*
X17723809Y-138447619D01*
X17628571Y-138495238D01*
X17580952Y-138542857D01*
X17533333Y-138638095D01*
X17533333Y-138828571D01*
X17580952Y-138923809D01*
X17628571Y-138971428D01*
X17723809Y-139019047D01*
X18152380Y-137971428D02*
X18152380Y-137780952D01*
X18104761Y-137685714D01*
X18057142Y-137638095D01*
X17914285Y-137542857D01*
X17723809Y-137495238D01*
X17342857Y-137495238D01*
X17247619Y-137542857D01*
X17200000Y-137590476D01*
X17152380Y-137685714D01*
X17152380Y-137876190D01*
X17200000Y-137971428D01*
X17247619Y-138019047D01*
X17342857Y-138066666D01*
X17580952Y-138066666D01*
X17676190Y-138019047D01*
X17723809Y-137971428D01*
X17771428Y-137876190D01*
X17771428Y-137685714D01*
X17723809Y-137590476D01*
X17676190Y-137542857D01*
X17580952Y-137495238D01*
X18057142Y-137066666D02*
X18104761Y-137019047D01*
X18152380Y-137066666D01*
X18104761Y-137114285D01*
X18057142Y-137066666D01*
X18152380Y-137066666D01*
X17152380Y-136400000D02*
X17152380Y-136304761D01*
X17200000Y-136209523D01*
X17247619Y-136161904D01*
X17342857Y-136114285D01*
X17533333Y-136066666D01*
X17771428Y-136066666D01*
X17961904Y-136114285D01*
X18057142Y-136161904D01*
X18104761Y-136209523D01*
X18152380Y-136304761D01*
X18152380Y-136400000D01*
X18104761Y-136495238D01*
X18057142Y-136542857D01*
X17961904Y-136590476D01*
X17771428Y-136638095D01*
X17533333Y-136638095D01*
X17342857Y-136590476D01*
X17247619Y-136542857D01*
X17200000Y-136495238D01*
X17152380Y-136400000D01*
X17152380Y-135447619D02*
X17152380Y-135352380D01*
X17200000Y-135257142D01*
X17247619Y-135209523D01*
X17342857Y-135161904D01*
X17533333Y-135114285D01*
X17771428Y-135114285D01*
X17961904Y-135161904D01*
X18057142Y-135209523D01*
X18104761Y-135257142D01*
X18152380Y-135352380D01*
X18152380Y-135447619D01*
X18104761Y-135542857D01*
X18057142Y-135590476D01*
X17961904Y-135638095D01*
X17771428Y-135685714D01*
X17533333Y-135685714D01*
X17342857Y-135638095D01*
X17247619Y-135590476D01*
X17200000Y-135542857D01*
X17152380Y-135447619D01*
X17152380Y-134495238D02*
X17152380Y-134400000D01*
X17200000Y-134304761D01*
X17247619Y-134257142D01*
X17342857Y-134209523D01*
X17533333Y-134161904D01*
X17771428Y-134161904D01*
X17961904Y-134209523D01*
X18057142Y-134257142D01*
X18104761Y-134304761D01*
X18152380Y-134400000D01*
X18152380Y-134495238D01*
X18104761Y-134590476D01*
X18057142Y-134638095D01*
X17961904Y-134685714D01*
X17771428Y-134733333D01*
X17533333Y-134733333D01*
X17342857Y-134685714D01*
X17247619Y-134638095D01*
X17200000Y-134590476D01*
X17152380Y-134495238D01*
X17152380Y-133542857D02*
X17152380Y-133447619D01*
X17200000Y-133352380D01*
X17247619Y-133304761D01*
X17342857Y-133257142D01*
X17533333Y-133209523D01*
X17771428Y-133209523D01*
X17961904Y-133257142D01*
X18057142Y-133304761D01*
X18104761Y-133352380D01*
X18152380Y-133447619D01*
X18152380Y-133542857D01*
X18104761Y-133638095D01*
X18057142Y-133685714D01*
X17961904Y-133733333D01*
X17771428Y-133780952D01*
X17533333Y-133780952D01*
X17342857Y-133733333D01*
X17247619Y-133685714D01*
X17200000Y-133638095D01*
X17152380Y-133542857D01*
X18152380Y-132019047D02*
X17485714Y-132019047D01*
X17580952Y-132019047D02*
X17533333Y-131971428D01*
X17485714Y-131876190D01*
X17485714Y-131733333D01*
X17533333Y-131638095D01*
X17628571Y-131590476D01*
X18152380Y-131590476D01*
X17628571Y-131590476D02*
X17533333Y-131542857D01*
X17485714Y-131447619D01*
X17485714Y-131304761D01*
X17533333Y-131209523D01*
X17628571Y-131161904D01*
X18152380Y-131161904D01*
X18152380Y-130685714D02*
X17485714Y-130685714D01*
X17580952Y-130685714D02*
X17533333Y-130638095D01*
X17485714Y-130542857D01*
X17485714Y-130400000D01*
X17533333Y-130304761D01*
X17628571Y-130257142D01*
X18152380Y-130257142D01*
X17628571Y-130257142D02*
X17533333Y-130209523D01*
X17485714Y-130114285D01*
X17485714Y-129971428D01*
X17533333Y-129876190D01*
X17628571Y-129828571D01*
X18152380Y-129828571D01*
X23500000Y-169000000D02*
X18313580Y-169000000D01*
X23500000Y-100000000D02*
X18313580Y-100000000D01*
X18900000Y-169000000D02*
X18900000Y-100000000D01*
X18900000Y-169000000D02*
X18900000Y-100000000D01*
X18900000Y-169000000D02*
X19486421Y-167873496D01*
X18900000Y-169000000D02*
X18313579Y-167873496D01*
X18900000Y-100000000D02*
X18313579Y-101126504D01*
X18900000Y-100000000D02*
X19486421Y-101126504D01*
X13702380Y-139166666D02*
X13702380Y-138500000D01*
X14702380Y-138928571D01*
X13702380Y-138214285D02*
X13702380Y-137547619D01*
X14702380Y-137976190D01*
X14607142Y-137166666D02*
X14654761Y-137119047D01*
X14702380Y-137166666D01*
X14654761Y-137214285D01*
X14607142Y-137166666D01*
X14702380Y-137166666D01*
X13702380Y-136500000D02*
X13702380Y-136404761D01*
X13750000Y-136309523D01*
X13797619Y-136261904D01*
X13892857Y-136214285D01*
X14083333Y-136166666D01*
X14321428Y-136166666D01*
X14511904Y-136214285D01*
X14607142Y-136261904D01*
X14654761Y-136309523D01*
X14702380Y-136404761D01*
X14702380Y-136500000D01*
X14654761Y-136595238D01*
X14607142Y-136642857D01*
X14511904Y-136690476D01*
X14321428Y-136738095D01*
X14083333Y-136738095D01*
X13892857Y-136690476D01*
X13797619Y-136642857D01*
X13750000Y-136595238D01*
X13702380Y-136500000D01*
X13702380Y-135547619D02*
X13702380Y-135452380D01*
X13750000Y-135357142D01*
X13797619Y-135309523D01*
X13892857Y-135261904D01*
X14083333Y-135214285D01*
X14321428Y-135214285D01*
X14511904Y-135261904D01*
X14607142Y-135309523D01*
X14654761Y-135357142D01*
X14702380Y-135452380D01*
X14702380Y-135547619D01*
X14654761Y-135642857D01*
X14607142Y-135690476D01*
X14511904Y-135738095D01*
X14321428Y-135785714D01*
X14083333Y-135785714D01*
X13892857Y-135738095D01*
X13797619Y-135690476D01*
X13750000Y-135642857D01*
X13702380Y-135547619D01*
X13702380Y-134595238D02*
X13702380Y-134500000D01*
X13750000Y-134404761D01*
X13797619Y-134357142D01*
X13892857Y-134309523D01*
X14083333Y-134261904D01*
X14321428Y-134261904D01*
X14511904Y-134309523D01*
X14607142Y-134357142D01*
X14654761Y-134404761D01*
X14702380Y-134500000D01*
X14702380Y-134595238D01*
X14654761Y-134690476D01*
X14607142Y-134738095D01*
X14511904Y-134785714D01*
X14321428Y-134833333D01*
X14083333Y-134833333D01*
X13892857Y-134785714D01*
X13797619Y-134738095D01*
X13750000Y-134690476D01*
X13702380Y-134595238D01*
X13702380Y-133642857D02*
X13702380Y-133547619D01*
X13750000Y-133452380D01*
X13797619Y-133404761D01*
X13892857Y-133357142D01*
X14083333Y-133309523D01*
X14321428Y-133309523D01*
X14511904Y-133357142D01*
X14607142Y-133404761D01*
X14654761Y-133452380D01*
X14702380Y-133547619D01*
X14702380Y-133642857D01*
X14654761Y-133738095D01*
X14607142Y-133785714D01*
X14511904Y-133833333D01*
X14321428Y-133880952D01*
X14083333Y-133880952D01*
X13892857Y-133833333D01*
X13797619Y-133785714D01*
X13750000Y-133738095D01*
X13702380Y-133642857D01*
X14702380Y-132119047D02*
X14035714Y-132119047D01*
X14130952Y-132119047D02*
X14083333Y-132071428D01*
X14035714Y-131976190D01*
X14035714Y-131833333D01*
X14083333Y-131738095D01*
X14178571Y-131690476D01*
X14702380Y-131690476D01*
X14178571Y-131690476D02*
X14083333Y-131642857D01*
X14035714Y-131547619D01*
X14035714Y-131404761D01*
X14083333Y-131309523D01*
X14178571Y-131261904D01*
X14702380Y-131261904D01*
X14702380Y-130785714D02*
X14035714Y-130785714D01*
X14130952Y-130785714D02*
X14083333Y-130738095D01*
X14035714Y-130642857D01*
X14035714Y-130500000D01*
X14083333Y-130404761D01*
X14178571Y-130357142D01*
X14702380Y-130357142D01*
X14178571Y-130357142D02*
X14083333Y-130309523D01*
X14035714Y-130214285D01*
X14035714Y-130071428D01*
X14083333Y-129976190D01*
X14178571Y-129928571D01*
X14702380Y-129928571D01*
X19500000Y-173000000D02*
X14813580Y-173000000D01*
X19500000Y-96000000D02*
X14813580Y-96000000D01*
X15400000Y-173000000D02*
X15400000Y-96000000D01*
X15400000Y-173000000D02*
X15400000Y-96000000D01*
X15400000Y-173000000D02*
X15986421Y-171873496D01*
X15400000Y-173000000D02*
X14813579Y-171873496D01*
X15400000Y-96000000D02*
X14813579Y-97126504D01*
X15400000Y-96000000D02*
X15986421Y-97126504D01*
X11333333Y-94585714D02*
X11333333Y-95252380D01*
X11095238Y-94204761D02*
X10857142Y-94919047D01*
X11476190Y-94919047D01*
X11857142Y-95157142D02*
X11904761Y-95204761D01*
X11857142Y-95252380D01*
X11809523Y-95204761D01*
X11857142Y-95157142D01*
X11857142Y-95252380D01*
X12523809Y-94252380D02*
X12619047Y-94252380D01*
X12714285Y-94300000D01*
X12761904Y-94347619D01*
X12809523Y-94442857D01*
X12857142Y-94633333D01*
X12857142Y-94871428D01*
X12809523Y-95061904D01*
X12761904Y-95157142D01*
X12714285Y-95204761D01*
X12619047Y-95252380D01*
X12523809Y-95252380D01*
X12428571Y-95204761D01*
X12380952Y-95157142D01*
X12333333Y-95061904D01*
X12285714Y-94871428D01*
X12285714Y-94633333D01*
X12333333Y-94442857D01*
X12380952Y-94347619D01*
X12428571Y-94300000D01*
X12523809Y-94252380D01*
X13476190Y-94252380D02*
X13571428Y-94252380D01*
X13666666Y-94300000D01*
X13714285Y-94347619D01*
X13761904Y-94442857D01*
X13809523Y-94633333D01*
X13809523Y-94871428D01*
X13761904Y-95061904D01*
X13714285Y-95157142D01*
X13666666Y-95204761D01*
X13571428Y-95252380D01*
X13476190Y-95252380D01*
X13380952Y-95204761D01*
X13333333Y-95157142D01*
X13285714Y-95061904D01*
X13238095Y-94871428D01*
X13238095Y-94633333D01*
X13285714Y-94442857D01*
X13333333Y-94347619D01*
X13380952Y-94300000D01*
X13476190Y-94252380D01*
X14428571Y-94252380D02*
X14523809Y-94252380D01*
X14619047Y-94300000D01*
X14666666Y-94347619D01*
X14714285Y-94442857D01*
X14761904Y-94633333D01*
X14761904Y-94871428D01*
X14714285Y-95061904D01*
X14666666Y-95157142D01*
X14619047Y-95204761D01*
X14523809Y-95252380D01*
X14428571Y-95252380D01*
X14333333Y-95204761D01*
X14285714Y-95157142D01*
X14238095Y-95061904D01*
X14190476Y-94871428D01*
X14190476Y-94633333D01*
X14238095Y-94442857D01*
X14285714Y-94347619D01*
X14333333Y-94300000D01*
X14428571Y-94252380D01*
X15380952Y-94252380D02*
X15476190Y-94252380D01*
X15571428Y-94300000D01*
X15619047Y-94347619D01*
X15666666Y-94442857D01*
X15714285Y-94633333D01*
X15714285Y-94871428D01*
X15666666Y-95061904D01*
X15619047Y-95157142D01*
X15571428Y-95204761D01*
X15476190Y-95252380D01*
X15380952Y-95252380D01*
X15285714Y-95204761D01*
X15238095Y-95157142D01*
X15190476Y-95061904D01*
X15142857Y-94871428D01*
X15142857Y-94633333D01*
X15190476Y-94442857D01*
X15238095Y-94347619D01*
X15285714Y-94300000D01*
X15380952Y-94252380D01*
X16904761Y-95252380D02*
X16904761Y-94585714D01*
X16904761Y-94680952D02*
X16952380Y-94633333D01*
X17047619Y-94585714D01*
X17190476Y-94585714D01*
X17285714Y-94633333D01*
X17333333Y-94728571D01*
X17333333Y-95252380D01*
X17333333Y-94728571D02*
X17380952Y-94633333D01*
X17476190Y-94585714D01*
X17619047Y-94585714D01*
X17714285Y-94633333D01*
X17761904Y-94728571D01*
X17761904Y-95252380D01*
X18238095Y-95252380D02*
X18238095Y-94585714D01*
X18238095Y-94680952D02*
X18285714Y-94633333D01*
X18380952Y-94585714D01*
X18523809Y-94585714D01*
X18619047Y-94633333D01*
X18666666Y-94728571D01*
X18666666Y-95252380D01*
X18666666Y-94728571D02*
X18714285Y-94633333D01*
X18809523Y-94585714D01*
X18952380Y-94585714D01*
X19047619Y-94633333D01*
X19095238Y-94728571D01*
X19095238Y-95252380D01*
X20000000Y-95500000D02*
X20000000Y-94213580D01*
X24000000Y-95500000D02*
X24000000Y-94213580D01*
X20000000Y-94800000D02*
X24000000Y-94800000D01*
X20000000Y-94800000D02*
X24000000Y-94800000D01*
X20000000Y-94800000D02*
X21126504Y-95386421D01*
X20000000Y-94800000D02*
X21126504Y-94213579D01*
X24000000Y-94800000D02*
X22873496Y-94213579D01*
X24000000Y-94800000D02*
X22873496Y-95386421D01*
X20857142Y-175247619D02*
X20904761Y-175200000D01*
X21000000Y-175152380D01*
X21238095Y-175152380D01*
X21333333Y-175200000D01*
X21380952Y-175247619D01*
X21428571Y-175342857D01*
X21428571Y-175438095D01*
X21380952Y-175580952D01*
X20809523Y-176152380D01*
X21428571Y-176152380D01*
X21857142Y-176057142D02*
X21904761Y-176104761D01*
X21857142Y-176152380D01*
X21809523Y-176104761D01*
X21857142Y-176057142D01*
X21857142Y-176152380D01*
X22857142Y-176152380D02*
X22285714Y-176152380D01*
X22571428Y-176152380D02*
X22571428Y-175152380D01*
X22476190Y-175295238D01*
X22380952Y-175390476D01*
X22285714Y-175438095D01*
X23476190Y-175152380D02*
X23571428Y-175152380D01*
X23666666Y-175200000D01*
X23714285Y-175247619D01*
X23761904Y-175342857D01*
X23809523Y-175533333D01*
X23809523Y-175771428D01*
X23761904Y-175961904D01*
X23714285Y-176057142D01*
X23666666Y-176104761D01*
X23571428Y-176152380D01*
X23476190Y-176152380D01*
X23380952Y-176104761D01*
X23333333Y-176057142D01*
X23285714Y-175961904D01*
X23238095Y-175771428D01*
X23238095Y-175533333D01*
X23285714Y-175342857D01*
X23333333Y-175247619D01*
X23380952Y-175200000D01*
X23476190Y-175152380D01*
X24428571Y-175152380D02*
X24523809Y-175152380D01*
X24619047Y-175200000D01*
X24666666Y-175247619D01*
X24714285Y-175342857D01*
X24761904Y-175533333D01*
X24761904Y-175771428D01*
X24714285Y-175961904D01*
X24666666Y-176057142D01*
X24619047Y-176104761D01*
X24523809Y-176152380D01*
X24428571Y-176152380D01*
X24333333Y-176104761D01*
X24285714Y-176057142D01*
X24238095Y-175961904D01*
X24190476Y-175771428D01*
X24190476Y-175533333D01*
X24238095Y-175342857D01*
X24285714Y-175247619D01*
X24333333Y-175200000D01*
X24428571Y-175152380D01*
X25380952Y-175152380D02*
X25476190Y-175152380D01*
X25571428Y-175200000D01*
X25619047Y-175247619D01*
X25666666Y-175342857D01*
X25714285Y-175533333D01*
X25714285Y-175771428D01*
X25666666Y-175961904D01*
X25619047Y-176057142D01*
X25571428Y-176104761D01*
X25476190Y-176152380D01*
X25380952Y-176152380D01*
X25285714Y-176104761D01*
X25238095Y-176057142D01*
X25190476Y-175961904D01*
X25142857Y-175771428D01*
X25142857Y-175533333D01*
X25190476Y-175342857D01*
X25238095Y-175247619D01*
X25285714Y-175200000D01*
X25380952Y-175152380D01*
X26904761Y-176152380D02*
X26904761Y-175485714D01*
X26904761Y-175580952D02*
X26952380Y-175533333D01*
X27047619Y-175485714D01*
X27190476Y-175485714D01*
X27285714Y-175533333D01*
X27333333Y-175628571D01*
X27333333Y-176152380D01*
X27333333Y-175628571D02*
X27380952Y-175533333D01*
X27476190Y-175485714D01*
X27619047Y-175485714D01*
X27714285Y-175533333D01*
X27761904Y-175628571D01*
X27761904Y-176152380D01*
X28238095Y-176152380D02*
X28238095Y-175485714D01*
X28238095Y-175580952D02*
X28285714Y-175533333D01*
X28380952Y-175485714D01*
X28523809Y-175485714D01*
X28619047Y-175533333D01*
X28666666Y-175628571D01*
X28666666Y-176152380D01*
X28666666Y-175628571D02*
X28714285Y-175533333D01*
X28809523Y-175485714D01*
X28952380Y-175485714D01*
X29047619Y-175533333D01*
X29095238Y-175628571D01*
X29095238Y-176152380D01*
X17900000Y-161600000D02*
X17900000Y-176386420D01*
X20000000Y-176386420D02*
X20000000Y-172600000D01*
X17900000Y-175800000D02*
X20000000Y-175800000D01*
X17900000Y-175800000D02*
X20000000Y-175800000D01*
X17900000Y-175800000D02*
X19026504Y-176386421D01*
X17900000Y-175800000D02*
X19026504Y-175213579D01*
X20000000Y-175800000D02*
X18873496Y-175213579D01*
X20000000Y-175800000D02*
X18873496Y-176386421D01*
M02*
